%TF.GenerationSoftware,KiCad,Pcbnew,9.0.3-9.0.3-0~ubuntu24.04.1*%
%TF.CreationDate,2026-04-21T10:17:34+03:00*%
%TF.ProjectId,sounddecoder-esp32-s3-wroom-2,736f756e-6464-4656-936f-6465722d6573,rev?*%
%TF.SameCoordinates,Original*%
%TF.FileFunction,Copper,L4,Bot*%
%TF.FilePolarity,Positive*%
%FSLAX46Y46*%
G04 Gerber Fmt 4.6, Leading zero omitted, Abs format (unit mm)*
G04 Created by KiCad (PCBNEW 9.0.3-9.0.3-0~ubuntu24.04.1) date 2026-04-21 10:17:34*
%MOMM*%
%LPD*%
G01*
G04 APERTURE LIST*
G04 Aperture macros list*
%AMRoundRect*
0 Rectangle with rounded corners*
0 $1 Rounding radius*
0 $2 $3 $4 $5 $6 $7 $8 $9 X,Y pos of 4 corners*
0 Add a 4 corners polygon primitive as box body*
4,1,4,$2,$3,$4,$5,$6,$7,$8,$9,$2,$3,0*
0 Add four circle primitives for the rounded corners*
1,1,$1+$1,$2,$3*
1,1,$1+$1,$4,$5*
1,1,$1+$1,$6,$7*
1,1,$1+$1,$8,$9*
0 Add four rect primitives between the rounded corners*
20,1,$1+$1,$2,$3,$4,$5,0*
20,1,$1+$1,$4,$5,$6,$7,0*
20,1,$1+$1,$6,$7,$8,$9,0*
20,1,$1+$1,$8,$9,$2,$3,0*%
G04 Aperture macros list end*
%TA.AperFunction,ComponentPad*%
%ADD10R,1.700000X1.700000*%
%TD*%
%TA.AperFunction,ComponentPad*%
%ADD11C,1.700000*%
%TD*%
%TA.AperFunction,ComponentPad*%
%ADD12RoundRect,0.250000X0.750000X-0.750000X0.750000X0.750000X-0.750000X0.750000X-0.750000X-0.750000X0*%
%TD*%
%TA.AperFunction,ComponentPad*%
%ADD13C,2.000000*%
%TD*%
%TA.AperFunction,ComponentPad*%
%ADD14RoundRect,0.250000X-0.750000X0.750000X-0.750000X-0.750000X0.750000X-0.750000X0.750000X0.750000X0*%
%TD*%
%TA.AperFunction,HeatsinkPad*%
%ADD15C,0.600000*%
%TD*%
%TA.AperFunction,ComponentPad*%
%ADD16RoundRect,0.250000X0.750000X0.750000X-0.750000X0.750000X-0.750000X-0.750000X0.750000X-0.750000X0*%
%TD*%
%TA.AperFunction,ComponentPad*%
%ADD17R,0.850000X0.850000*%
%TD*%
%TA.AperFunction,ComponentPad*%
%ADD18C,0.850000*%
%TD*%
%TA.AperFunction,ComponentPad*%
%ADD19RoundRect,0.250000X-0.750000X-0.750000X0.750000X-0.750000X0.750000X0.750000X-0.750000X0.750000X0*%
%TD*%
%TA.AperFunction,ComponentPad*%
%ADD20C,0.600000*%
%TD*%
%TA.AperFunction,SMDPad,CuDef*%
%ADD21R,4.900000X2.950000*%
%TD*%
%TA.AperFunction,ViaPad*%
%ADD22C,1.000000*%
%TD*%
%TA.AperFunction,ViaPad*%
%ADD23C,0.600000*%
%TD*%
%TA.AperFunction,ViaPad*%
%ADD24C,0.800000*%
%TD*%
%TA.AperFunction,Conductor*%
%ADD25C,0.600000*%
%TD*%
%TA.AperFunction,Conductor*%
%ADD26C,0.203200*%
%TD*%
G04 APERTURE END LIST*
D10*
%TO.P,J5,1,Pin_1*%
%TO.N,GND*%
X82000000Y-92500000D03*
D11*
%TO.P,J5,2,Pin_2*%
%TO.N,/IO0*%
X82000000Y-89960000D03*
%TO.P,J5,3,Pin_3*%
%TO.N,/UART-TX*%
X82000000Y-87420000D03*
%TO.P,J5,4,Pin_4*%
%TO.N,/UART-RX*%
X82000000Y-84880000D03*
%TO.P,J5,5,Pin_5*%
%TO.N,+5V*%
X82000000Y-82340000D03*
%TD*%
D12*
%TO.P,J10,1,Pin_1*%
%TO.N,+5V*%
X110770000Y-101025000D03*
D13*
%TO.P,J10,2,Pin_2*%
%TO.N,Net-(J10-Pin_2)*%
X110770000Y-98485000D03*
%TD*%
D14*
%TO.P,J4,1,Pin_1*%
%TO.N,/Sound1*%
X76250000Y-96562500D03*
D13*
%TO.P,J4,2,Pin_2*%
%TO.N,/Sound2*%
X76250000Y-99102500D03*
%TD*%
D15*
%TO.P,U7,41,GND*%
%TO.N,GND*%
X93140000Y-82030000D03*
X93140000Y-83530000D03*
X93890000Y-81280000D03*
X93890000Y-82780000D03*
X93890000Y-84280000D03*
X94640000Y-82030000D03*
X94640000Y-83530000D03*
X95390000Y-81280000D03*
X95390000Y-82780000D03*
X95390000Y-84280000D03*
X96140000Y-82030000D03*
X96140000Y-83530000D03*
%TD*%
D12*
%TO.P,J11,1,Pin_1*%
%TO.N,+5V*%
X110770000Y-107750000D03*
D13*
%TO.P,J11,2,Pin_2*%
%TO.N,Net-(J11-Pin_2)*%
X110770000Y-105210000D03*
%TD*%
D16*
%TO.P,J3,1,Pin_1*%
%TO.N,/MOTOR1*%
X112750000Y-132000000D03*
D13*
%TO.P,J3,2,Pin_2*%
%TO.N,/MOTOR2*%
X110210000Y-132000000D03*
%TD*%
D12*
%TO.P,J8,1,Pin_1*%
%TO.N,+5V*%
X110737500Y-87540000D03*
D13*
%TO.P,J8,2,Pin_2*%
%TO.N,/FwdLED*%
X110737500Y-85000000D03*
%TD*%
D17*
%TO.P,J6,1,Pin_1*%
%TO.N,GND*%
X87500000Y-97250000D03*
D18*
%TO.P,J6,2,Pin_2*%
%TO.N,/SND_GAIN*%
X87500000Y-98250000D03*
%TO.P,J6,3,Pin_3*%
%TO.N,+3.3V*%
X87500000Y-99250000D03*
%TD*%
D12*
%TO.P,J13,1,Pin_1*%
%TO.N,+5V*%
X110770000Y-121275000D03*
D13*
%TO.P,J13,2,Pin_2*%
%TO.N,Net-(J13-Pin_2)*%
X110770000Y-118735000D03*
%TD*%
D19*
%TO.P,J1,1,Pin_1*%
%TO.N,VCC*%
X88160000Y-131505000D03*
D13*
%TO.P,J1,2,Pin_2*%
%TO.N,GND*%
X90700000Y-131505000D03*
%TD*%
D12*
%TO.P,J9,1,Pin_1*%
%TO.N,+5V*%
X110770000Y-94290000D03*
D13*
%TO.P,J9,2,Pin_2*%
%TO.N,/BackLED*%
X110770000Y-91750000D03*
%TD*%
D20*
%TO.P,U4,9,GND*%
%TO.N,GND*%
X107065000Y-128975000D03*
X105765000Y-128975000D03*
X104465000Y-128975000D03*
X103165000Y-128975000D03*
D21*
X105115000Y-129625000D03*
D20*
X107065000Y-130275000D03*
X105765000Y-130275000D03*
X104465000Y-130275000D03*
X103165000Y-130275000D03*
%TD*%
D12*
%TO.P,J7,1,Pin_1*%
%TO.N,+5V*%
X110770000Y-80790000D03*
D13*
%TO.P,J7,2,Pin_2*%
%TO.N,/Smoke*%
X110770000Y-78250000D03*
%TD*%
D12*
%TO.P,J12,1,Pin_1*%
%TO.N,+5V*%
X110770000Y-114540000D03*
D13*
%TO.P,J12,2,Pin_2*%
%TO.N,Net-(J12-Pin_2)*%
X110770000Y-112000000D03*
%TD*%
D22*
%TO.N,VCC*%
X88250000Y-123250000D03*
X85250000Y-123250000D03*
%TO.N,GND*%
X88500000Y-114000000D03*
X85250000Y-114000000D03*
%TO.N,+3.3V*%
X84750000Y-93250000D03*
%TO.N,+5V*%
X90000000Y-117000000D03*
X81250000Y-112500000D03*
%TO.N,GND*%
X79500000Y-106250000D03*
X83250000Y-106250000D03*
X76000000Y-103750000D03*
D23*
X82000000Y-99000000D03*
D22*
%TO.N,+5V*%
X74000000Y-110000000D03*
X78000000Y-110000000D03*
X83500000Y-112500000D03*
D23*
%TO.N,/SND_GAIN*%
X84655800Y-98222496D03*
%TO.N,GND*%
X93500000Y-100000000D03*
%TO.N,Net-(J13-Pin_2)*%
X94500000Y-105250000D03*
%TO.N,Net-(J12-Pin_2)*%
X95750000Y-105250000D03*
%TO.N,Net-(J11-Pin_2)*%
X96750000Y-105000000D03*
%TO.N,Net-(J10-Pin_2)*%
X98000000Y-102250000D03*
%TO.N,/BackLED*%
X99250000Y-101750000D03*
%TO.N,/FwdLED*%
X100500000Y-101000000D03*
%TO.N,/Smoke*%
X101750000Y-100250000D03*
%TO.N,/AUDIO_LRCLK*%
X81989544Y-101261552D03*
X89000000Y-97250000D03*
%TO.N,/AUDIO_BCLK*%
X89000000Y-96500000D03*
X83500000Y-101000000D03*
%TO.N,/AUDIO_OUT*%
X83750000Y-100250000D03*
X84500000Y-95250000D03*
%TO.N,/MOTOR_IN1*%
X91750000Y-78801600D03*
%TO.N,/MOTOR_SENSE*%
X91246297Y-78245915D03*
%TO.N,GND*%
X95000000Y-129750000D03*
X78975000Y-117850000D03*
X78975000Y-123012500D03*
D24*
X99000000Y-127750000D03*
D23*
X73975000Y-116100000D03*
X76475000Y-121500000D03*
X81475000Y-121500000D03*
X81475000Y-123012500D03*
X108250000Y-133750000D03*
X78975000Y-121500000D03*
X109000000Y-128750000D03*
X76475000Y-123012500D03*
X81475000Y-116100000D03*
X76475000Y-114250000D03*
X109000000Y-130000000D03*
X107250000Y-133750000D03*
X102000000Y-128750000D03*
X73975000Y-117850000D03*
X99000000Y-129750000D03*
X97750000Y-129750000D03*
X76475000Y-119750000D03*
X76475000Y-117850000D03*
X78975000Y-114250000D03*
X81475000Y-119750000D03*
X110750000Y-128750000D03*
X78975000Y-119750000D03*
X73975000Y-114250000D03*
X110750000Y-130000000D03*
X102250000Y-130250000D03*
X73975000Y-121500000D03*
X81475000Y-117850000D03*
X73975000Y-119750000D03*
X95000000Y-128500000D03*
X76475000Y-116100000D03*
X93750000Y-129750000D03*
X73975000Y-123012500D03*
X81475000Y-114250000D03*
X97750000Y-128500000D03*
X106000000Y-133750000D03*
X78975000Y-116100000D03*
D24*
%TO.N,VCC*%
X97750000Y-131750000D03*
X102000000Y-134500000D03*
X82500000Y-132250000D03*
X82500000Y-127000000D03*
%TO.N,+3.3V*%
X80500000Y-96812500D03*
X88500000Y-78750000D03*
D23*
X86000000Y-78750000D03*
%TO.N,/MOTOR_SENSE*%
X101625000Y-123875000D03*
%TO.N,/UART-TX*%
X90250000Y-79537242D03*
%TO.N,/UART-RX*%
X89500000Y-80250000D03*
%TO.N,/MOTOR_IN1*%
X104000000Y-125250000D03*
%TO.N,/MOTOR_IN2*%
X101000000Y-124500000D03*
X89125000Y-82125000D03*
%TO.N,/IO0*%
X90500000Y-93860036D03*
%TD*%
D25*
%TO.N,/Smoke*%
X101750000Y-100250000D02*
X106500000Y-95500000D01*
X106500000Y-95500000D02*
X106500000Y-80250000D01*
X106500000Y-80250000D02*
X108500000Y-78250000D01*
X108500000Y-78250000D02*
X110730000Y-78250000D01*
X110730000Y-78250000D02*
X110770000Y-78210000D01*
D26*
%TO.N,/SND_GAIN*%
X84683304Y-98250000D02*
X84655800Y-98222496D01*
X87500000Y-98250000D02*
X84683304Y-98250000D01*
%TO.N,/AUDIO_BCLK*%
X89000000Y-96500000D02*
X84750000Y-96500000D01*
X84302600Y-100478895D02*
X83781495Y-101000000D01*
X84750000Y-96500000D02*
X84104200Y-97145800D01*
X84302600Y-100021105D02*
X84302600Y-100478895D01*
X84104200Y-97145800D02*
X84104200Y-99822705D01*
X84104200Y-99822705D02*
X84302600Y-100021105D01*
X83781495Y-101000000D02*
X83500000Y-101000000D01*
D25*
%TO.N,Net-(J13-Pin_2)*%
X104750000Y-107000000D02*
X106750000Y-109000000D01*
X106750000Y-109000000D02*
X106750000Y-114715000D01*
X94500000Y-105250000D02*
X96250000Y-107000000D01*
X96250000Y-107000000D02*
X104750000Y-107000000D01*
X106750000Y-114715000D02*
X110770000Y-118735000D01*
%TO.N,Net-(J12-Pin_2)*%
X96500000Y-106000000D02*
X105750000Y-106000000D01*
X109750000Y-112000000D02*
X110770000Y-112000000D01*
X95750000Y-105250000D02*
X96500000Y-106000000D01*
X105750000Y-106000000D02*
X107750000Y-108000000D01*
X107750000Y-108000000D02*
X107750000Y-110000000D01*
X107750000Y-110000000D02*
X109750000Y-112000000D01*
%TO.N,Net-(J11-Pin_2)*%
X96750000Y-105000000D02*
X96960000Y-105210000D01*
X96960000Y-105210000D02*
X110770000Y-105210000D01*
%TO.N,Net-(J10-Pin_2)*%
X98251000Y-102501000D02*
X103249000Y-102501000D01*
X98000000Y-102250000D02*
X98251000Y-102501000D01*
X103249000Y-102501000D02*
X107265000Y-98485000D01*
X107265000Y-98485000D02*
X110770000Y-98485000D01*
%TO.N,/BackLED*%
X109500000Y-91750000D02*
X110770000Y-91750000D01*
X108500000Y-96000000D02*
X108500000Y-92750000D01*
X99250000Y-101750000D02*
X102750000Y-101750000D01*
X102750000Y-101750000D02*
X108500000Y-96000000D01*
X108500000Y-92750000D02*
X109500000Y-91750000D01*
%TO.N,/FwdLED*%
X100500000Y-101000000D02*
X102062074Y-101000000D01*
X102062074Y-101000000D02*
X107500000Y-95562074D01*
X107500000Y-95562074D02*
X107500000Y-86500000D01*
X107500000Y-86500000D02*
X109000000Y-85000000D01*
X109000000Y-85000000D02*
X110737500Y-85000000D01*
D26*
%TO.N,/AUDIO_LRCLK*%
X81989544Y-101261552D02*
X81992216Y-101261552D01*
X81992216Y-101261552D02*
X82283264Y-101552600D01*
X82283264Y-101552600D02*
X86155672Y-101552600D01*
X86155672Y-101552600D02*
X89000000Y-98708272D01*
X89000000Y-98708272D02*
X89000000Y-97250000D01*
%TO.N,/AUDIO_OUT*%
X83750000Y-96000000D02*
X83750000Y-100250000D01*
X84500000Y-95250000D02*
X83750000Y-96000000D01*
%TO.N,/MOTOR_SENSE*%
X92250000Y-115000000D02*
X101125000Y-123875000D01*
X91246297Y-78245915D02*
X91246297Y-78253703D01*
X91246297Y-78253703D02*
X91000000Y-78500000D01*
X91000000Y-78500000D02*
X91000000Y-91000000D01*
X92250000Y-92250000D02*
X92250000Y-115000000D01*
X91000000Y-91000000D02*
X92250000Y-92250000D01*
X101125000Y-123875000D02*
X101625000Y-123875000D01*
%TO.N,/MOTOR_IN1*%
X92750000Y-114000000D02*
X92750000Y-92250000D01*
X104000000Y-125250000D02*
X92750000Y-114000000D01*
X92750000Y-92250000D02*
X91750000Y-91250000D01*
X91750000Y-91250000D02*
X91750000Y-78801600D01*
%TO.N,/MOTOR_IN2*%
X101000000Y-124500000D02*
X91750000Y-115250000D01*
X91750000Y-115250000D02*
X91750000Y-93250000D01*
X91750000Y-93250000D02*
X89125000Y-90625000D01*
X89125000Y-90625000D02*
X89125000Y-82125000D01*
%TO.N,/UART-TX*%
X90250000Y-79537242D02*
X90250000Y-80281495D01*
X90250000Y-80281495D02*
X88959095Y-81572400D01*
X88959095Y-81572400D02*
X87847600Y-81572400D01*
X87847600Y-81572400D02*
X82000000Y-87420000D01*
%TO.N,/UART-RX*%
X82000000Y-84880000D02*
X86630000Y-80250000D01*
X86630000Y-80250000D02*
X89500000Y-80250000D01*
%TO.N,/IO0*%
X90500000Y-93860036D02*
X86389964Y-89750000D01*
X86389964Y-89750000D02*
X82210000Y-89750000D01*
X82210000Y-89750000D02*
X82000000Y-89960000D01*
%TO.N,/MOTOR_SENSE*%
X101550001Y-123800001D02*
X101625000Y-123875000D01*
X101625000Y-123875000D02*
X101500000Y-124000000D01*
%TD*%
%TA.AperFunction,Conductor*%
%TO.N,GND*%
G36*
X88376976Y-96921785D02*
G01*
X88422731Y-96974589D01*
X88432675Y-97043747D01*
X88429715Y-97058177D01*
X88399500Y-97170943D01*
X88399500Y-97170945D01*
X88399500Y-97329056D01*
X88440423Y-97481783D01*
X88440426Y-97481790D01*
X88519475Y-97618709D01*
X88519481Y-97618717D01*
X88561581Y-97660817D01*
X88595066Y-97722140D01*
X88597900Y-97748498D01*
X88597900Y-98490354D01*
X88578215Y-98557393D01*
X88561581Y-98578035D01*
X88285954Y-98853661D01*
X88267466Y-98863756D01*
X88251792Y-98877836D01*
X88237413Y-98880166D01*
X88224631Y-98887146D01*
X88203619Y-98885643D01*
X88182822Y-98889014D01*
X88169466Y-98883200D01*
X88154939Y-98882162D01*
X88138073Y-98869536D01*
X88118758Y-98861129D01*
X88102157Y-98842649D01*
X88099006Y-98840290D01*
X88095172Y-98834873D01*
X88084494Y-98818893D01*
X88063615Y-98752216D01*
X88082098Y-98684835D01*
X88084493Y-98681109D01*
X88142925Y-98593659D01*
X88142925Y-98593658D01*
X88142929Y-98593653D01*
X88197619Y-98461620D01*
X88225500Y-98321455D01*
X88225500Y-98178545D01*
X88225500Y-98178542D01*
X88197620Y-98038385D01*
X88197619Y-98038384D01*
X88197619Y-98038380D01*
X88142929Y-97906347D01*
X88142928Y-97906346D01*
X88142925Y-97906340D01*
X88063532Y-97787521D01*
X88063529Y-97787517D01*
X87962482Y-97686470D01*
X87962478Y-97686467D01*
X87843659Y-97607074D01*
X87843650Y-97607069D01*
X87711620Y-97552381D01*
X87711614Y-97552379D01*
X87571457Y-97524500D01*
X87571455Y-97524500D01*
X87428545Y-97524500D01*
X87428543Y-97524500D01*
X87288385Y-97552379D01*
X87288379Y-97552381D01*
X87156349Y-97607069D01*
X87156340Y-97607074D01*
X87037521Y-97686467D01*
X87037517Y-97686470D01*
X86936470Y-97787517D01*
X86936468Y-97787520D01*
X86932945Y-97792793D01*
X86879331Y-97837597D01*
X86829844Y-97847900D01*
X85181802Y-97847900D01*
X85114763Y-97828215D01*
X85094121Y-97811581D01*
X85024517Y-97741977D01*
X85024509Y-97741971D01*
X84887590Y-97662922D01*
X84887586Y-97662920D01*
X84887584Y-97662919D01*
X84734857Y-97621996D01*
X84630300Y-97621996D01*
X84621614Y-97619445D01*
X84612653Y-97620734D01*
X84588612Y-97609755D01*
X84563261Y-97602311D01*
X84557333Y-97595470D01*
X84549097Y-97591709D01*
X84534807Y-97569474D01*
X84517506Y-97549507D01*
X84515218Y-97538992D01*
X84511323Y-97532931D01*
X84506300Y-97497996D01*
X84506300Y-97363717D01*
X84525985Y-97296678D01*
X84542619Y-97276036D01*
X84880236Y-96938419D01*
X84941559Y-96904934D01*
X84967917Y-96902100D01*
X88309937Y-96902100D01*
X88376976Y-96921785D01*
G37*
%TD.AperFunction*%
%TA.AperFunction,Conductor*%
G36*
X114317539Y-76520185D02*
G01*
X114363294Y-76572989D01*
X114374500Y-76624500D01*
X114374500Y-135125500D01*
X114354815Y-135192539D01*
X114302011Y-135238294D01*
X114250500Y-135249500D01*
X102540519Y-135249500D01*
X102473480Y-135229815D01*
X102427725Y-135177011D01*
X102417781Y-135107853D01*
X102446806Y-135044297D01*
X102452838Y-135037819D01*
X102544111Y-134946545D01*
X102544114Y-134946542D01*
X102620775Y-134831811D01*
X102673580Y-134704328D01*
X102700500Y-134568993D01*
X102700500Y-134431007D01*
X102700500Y-134431004D01*
X102673581Y-134295677D01*
X102673580Y-134295676D01*
X102673580Y-134295672D01*
X102673578Y-134295667D01*
X102620778Y-134168195D01*
X102620771Y-134168182D01*
X102544114Y-134053458D01*
X102544111Y-134053454D01*
X102446545Y-133955888D01*
X102446541Y-133955885D01*
X102331817Y-133879228D01*
X102331804Y-133879221D01*
X102204332Y-133826421D01*
X102204322Y-133826418D01*
X102068995Y-133799500D01*
X102068993Y-133799500D01*
X101931007Y-133799500D01*
X101931005Y-133799500D01*
X101795677Y-133826418D01*
X101795667Y-133826421D01*
X101668195Y-133879221D01*
X101668182Y-133879228D01*
X101553458Y-133955885D01*
X101553454Y-133955888D01*
X101455888Y-134053454D01*
X101455885Y-134053458D01*
X101379228Y-134168182D01*
X101379221Y-134168195D01*
X101326421Y-134295667D01*
X101326418Y-134295677D01*
X101299500Y-134431004D01*
X101299500Y-134431007D01*
X101299500Y-134568993D01*
X101299500Y-134568995D01*
X101299499Y-134568995D01*
X101326418Y-134704322D01*
X101326421Y-134704332D01*
X101379221Y-134831804D01*
X101379228Y-134831817D01*
X101455885Y-134946541D01*
X101455888Y-134946545D01*
X101547162Y-135037819D01*
X101580647Y-135099142D01*
X101575663Y-135168834D01*
X101533791Y-135224767D01*
X101468327Y-135249184D01*
X101459481Y-135249500D01*
X72999500Y-135249500D01*
X72932461Y-135229815D01*
X72886706Y-135177011D01*
X72875500Y-135125500D01*
X72875500Y-132318995D01*
X81799499Y-132318995D01*
X81826418Y-132454322D01*
X81826421Y-132454332D01*
X81879221Y-132581804D01*
X81879228Y-132581817D01*
X81955885Y-132696541D01*
X81955888Y-132696545D01*
X82053454Y-132794111D01*
X82053458Y-132794114D01*
X82168182Y-132870771D01*
X82168195Y-132870778D01*
X82295667Y-132923578D01*
X82295672Y-132923580D01*
X82295676Y-132923580D01*
X82295677Y-132923581D01*
X82431004Y-132950500D01*
X82431007Y-132950500D01*
X82568995Y-132950500D01*
X82660041Y-132932389D01*
X82704328Y-132923580D01*
X82831811Y-132870775D01*
X82946542Y-132794114D01*
X83044114Y-132696542D01*
X83120775Y-132581811D01*
X83173580Y-132454328D01*
X83200500Y-132318993D01*
X83200500Y-132181007D01*
X83200500Y-132181004D01*
X83173581Y-132045677D01*
X83173580Y-132045676D01*
X83173580Y-132045672D01*
X83135746Y-131954332D01*
X83120778Y-131918195D01*
X83120771Y-131918182D01*
X83044114Y-131803458D01*
X83044111Y-131803454D01*
X82946545Y-131705888D01*
X82946541Y-131705885D01*
X82831817Y-131629228D01*
X82831804Y-131629221D01*
X82704332Y-131576421D01*
X82704322Y-131576418D01*
X82568995Y-131549500D01*
X82568993Y-131549500D01*
X82431007Y-131549500D01*
X82431005Y-131549500D01*
X82295677Y-131576418D01*
X82295667Y-131576421D01*
X82168195Y-131629221D01*
X82168182Y-131629228D01*
X82053458Y-131705885D01*
X82053454Y-131705888D01*
X81955888Y-131803454D01*
X81955885Y-131803458D01*
X81879228Y-131918182D01*
X81879221Y-131918195D01*
X81826421Y-132045667D01*
X81826418Y-132045677D01*
X81799500Y-132181004D01*
X81799500Y-132181007D01*
X81799500Y-132318993D01*
X81799500Y-132318995D01*
X81799499Y-132318995D01*
X72875500Y-132318995D01*
X72875500Y-130711898D01*
X86859500Y-130711898D01*
X86859500Y-132298102D01*
X86862009Y-132318993D01*
X86870122Y-132386561D01*
X86870122Y-132386563D01*
X86870123Y-132386564D01*
X86884720Y-132423578D01*
X86925639Y-132527343D01*
X87017077Y-132647922D01*
X87137656Y-132739360D01*
X87137657Y-132739360D01*
X87137658Y-132739361D01*
X87278436Y-132794877D01*
X87366898Y-132805500D01*
X87366903Y-132805500D01*
X88953097Y-132805500D01*
X88953102Y-132805500D01*
X89041564Y-132794877D01*
X89182342Y-132739361D01*
X89302922Y-132647922D01*
X89394361Y-132527342D01*
X89449877Y-132386564D01*
X89460500Y-132298102D01*
X89460500Y-131818995D01*
X97049499Y-131818995D01*
X97076418Y-131954322D01*
X97076421Y-131954332D01*
X97129221Y-132081804D01*
X97129228Y-132081817D01*
X97205885Y-132196541D01*
X97205888Y-132196545D01*
X97303454Y-132294111D01*
X97303458Y-132294114D01*
X97418182Y-132370771D01*
X97418195Y-132370778D01*
X97545667Y-132423578D01*
X97545672Y-132423580D01*
X97545676Y-132423580D01*
X97545677Y-132423581D01*
X97681004Y-132450500D01*
X97681007Y-132450500D01*
X97818995Y-132450500D01*
X97910041Y-132432389D01*
X97954328Y-132423580D01*
X98081811Y-132370775D01*
X98196542Y-132294114D01*
X98294114Y-132196542D01*
X98370775Y-132081811D01*
X98423580Y-131954328D01*
X98432546Y-131909248D01*
X98434854Y-131897648D01*
X108909500Y-131897648D01*
X108909500Y-132102351D01*
X108941522Y-132304534D01*
X109004781Y-132499223D01*
X109097715Y-132681613D01*
X109218028Y-132847213D01*
X109362786Y-132991971D01*
X109517749Y-133104556D01*
X109528390Y-133112287D01*
X109644607Y-133171503D01*
X109710776Y-133205218D01*
X109710778Y-133205218D01*
X109710781Y-133205220D01*
X109800465Y-133234360D01*
X109905465Y-133268477D01*
X110006557Y-133284488D01*
X110107648Y-133300500D01*
X110107649Y-133300500D01*
X110312351Y-133300500D01*
X110312352Y-133300500D01*
X110514534Y-133268477D01*
X110709219Y-133205220D01*
X110891610Y-133112287D01*
X110984590Y-133044732D01*
X111057213Y-132991971D01*
X111057215Y-132991968D01*
X111057219Y-132991966D01*
X111201966Y-132847219D01*
X111234211Y-132802836D01*
X111289540Y-132760171D01*
X111359153Y-132754190D01*
X111420949Y-132786795D01*
X111455307Y-132847633D01*
X111457645Y-132860936D01*
X111460121Y-132881558D01*
X111460122Y-132881562D01*
X111460123Y-132881564D01*
X111486849Y-132949336D01*
X111515639Y-133022343D01*
X111607077Y-133142922D01*
X111727656Y-133234360D01*
X111727657Y-133234360D01*
X111727658Y-133234361D01*
X111868436Y-133289877D01*
X111956898Y-133300500D01*
X111956903Y-133300500D01*
X113543097Y-133300500D01*
X113543102Y-133300500D01*
X113631564Y-133289877D01*
X113772342Y-133234361D01*
X113892922Y-133142922D01*
X113984361Y-133022342D01*
X114039877Y-132881564D01*
X114050500Y-132793102D01*
X114050500Y-131206898D01*
X114039877Y-131118436D01*
X113984361Y-130977658D01*
X113984360Y-130977657D01*
X113984360Y-130977656D01*
X113892922Y-130857077D01*
X113772343Y-130765639D01*
X113676192Y-130727722D01*
X113631564Y-130710123D01*
X113631563Y-130710122D01*
X113631561Y-130710122D01*
X113585926Y-130704642D01*
X113543102Y-130699500D01*
X111956898Y-130699500D01*
X111917853Y-130704188D01*
X111868438Y-130710122D01*
X111727656Y-130765639D01*
X111607077Y-130857077D01*
X111515639Y-130977656D01*
X111460121Y-131118441D01*
X111457645Y-131139063D01*
X111430108Y-131203277D01*
X111372225Y-131242410D01*
X111302374Y-131244036D01*
X111242733Y-131207640D01*
X111234211Y-131197163D01*
X111201966Y-131152781D01*
X111057219Y-131008034D01*
X111057213Y-131008028D01*
X110891613Y-130887715D01*
X110891612Y-130887714D01*
X110891610Y-130887713D01*
X110831484Y-130857077D01*
X110709223Y-130794781D01*
X110514534Y-130731522D01*
X110339995Y-130703878D01*
X110312352Y-130699500D01*
X110107648Y-130699500D01*
X110083329Y-130703351D01*
X109905465Y-130731522D01*
X109710776Y-130794781D01*
X109528386Y-130887715D01*
X109362786Y-131008028D01*
X109218028Y-131152786D01*
X109097715Y-131318386D01*
X109004781Y-131500776D01*
X108941522Y-131695465D01*
X108909500Y-131897648D01*
X98434854Y-131897648D01*
X98440636Y-131868585D01*
X98440636Y-131868584D01*
X98450500Y-131818995D01*
X98450500Y-131681004D01*
X98423581Y-131545677D01*
X98423580Y-131545676D01*
X98423580Y-131545672D01*
X98404984Y-131500776D01*
X98370778Y-131418195D01*
X98370771Y-131418182D01*
X98294114Y-131303458D01*
X98294111Y-131303454D01*
X98196545Y-131205888D01*
X98196541Y-131205885D01*
X98081817Y-131129228D01*
X98081804Y-131129221D01*
X97954332Y-131076421D01*
X97954322Y-131076418D01*
X97818995Y-131049500D01*
X97818993Y-131049500D01*
X97681007Y-131049500D01*
X97681005Y-131049500D01*
X97545677Y-131076418D01*
X97545667Y-131076421D01*
X97418195Y-131129221D01*
X97418182Y-131129228D01*
X97303458Y-131205885D01*
X97303454Y-131205888D01*
X97205888Y-131303454D01*
X97205885Y-131303458D01*
X97129228Y-131418182D01*
X97129221Y-131418195D01*
X97076421Y-131545667D01*
X97076418Y-131545677D01*
X97049500Y-131681004D01*
X97049500Y-131681007D01*
X97049500Y-131818993D01*
X97049500Y-131818995D01*
X97049499Y-131818995D01*
X89460500Y-131818995D01*
X89460500Y-130711898D01*
X89449877Y-130623436D01*
X89394361Y-130482658D01*
X89394360Y-130482657D01*
X89394360Y-130482656D01*
X89302922Y-130362077D01*
X89182343Y-130270639D01*
X89041561Y-130215122D01*
X88995926Y-130209642D01*
X88953102Y-130204500D01*
X87366898Y-130204500D01*
X87327853Y-130209188D01*
X87278438Y-130215122D01*
X87137656Y-130270639D01*
X87017077Y-130362077D01*
X86925639Y-130482656D01*
X86870122Y-130623438D01*
X86864188Y-130672853D01*
X86859500Y-130711898D01*
X72875500Y-130711898D01*
X72875500Y-127068995D01*
X81799499Y-127068995D01*
X81826418Y-127204322D01*
X81826421Y-127204332D01*
X81879221Y-127331804D01*
X81879228Y-127331817D01*
X81955885Y-127446541D01*
X81955888Y-127446545D01*
X82053454Y-127544111D01*
X82053458Y-127544114D01*
X82168182Y-127620771D01*
X82168195Y-127620778D01*
X82295667Y-127673578D01*
X82295672Y-127673580D01*
X82295676Y-127673580D01*
X82295677Y-127673581D01*
X82431004Y-127700500D01*
X82431007Y-127700500D01*
X82568995Y-127700500D01*
X82660041Y-127682389D01*
X82704328Y-127673580D01*
X82831811Y-127620775D01*
X82946542Y-127544114D01*
X83044114Y-127446542D01*
X83120775Y-127331811D01*
X83173580Y-127204328D01*
X83200500Y-127068993D01*
X83200500Y-126931007D01*
X83200500Y-126931004D01*
X83173581Y-126795677D01*
X83173580Y-126795676D01*
X83173580Y-126795672D01*
X83173578Y-126795667D01*
X83120778Y-126668195D01*
X83120771Y-126668182D01*
X83044114Y-126553458D01*
X83044111Y-126553454D01*
X82946545Y-126455888D01*
X82946541Y-126455885D01*
X82831817Y-126379228D01*
X82831804Y-126379221D01*
X82704332Y-126326421D01*
X82704322Y-126326418D01*
X82568995Y-126299500D01*
X82568993Y-126299500D01*
X82431007Y-126299500D01*
X82431005Y-126299500D01*
X82295677Y-126326418D01*
X82295667Y-126326421D01*
X82168195Y-126379221D01*
X82168182Y-126379228D01*
X82053458Y-126455885D01*
X82053454Y-126455888D01*
X81955888Y-126553454D01*
X81955885Y-126553458D01*
X81879228Y-126668182D01*
X81879221Y-126668195D01*
X81826421Y-126795667D01*
X81826418Y-126795677D01*
X81799500Y-126931004D01*
X81799500Y-126931007D01*
X81799500Y-127068993D01*
X81799500Y-127068995D01*
X81799499Y-127068995D01*
X72875500Y-127068995D01*
X72875500Y-123171153D01*
X84449500Y-123171153D01*
X84449500Y-123328846D01*
X84480261Y-123483489D01*
X84480264Y-123483501D01*
X84540602Y-123629172D01*
X84540609Y-123629185D01*
X84628210Y-123760288D01*
X84628213Y-123760292D01*
X84739707Y-123871786D01*
X84739711Y-123871789D01*
X84870814Y-123959390D01*
X84870827Y-123959397D01*
X85016498Y-124019735D01*
X85016503Y-124019737D01*
X85171153Y-124050499D01*
X85171156Y-124050500D01*
X85171158Y-124050500D01*
X85328844Y-124050500D01*
X85328845Y-124050499D01*
X85483497Y-124019737D01*
X85629179Y-123959394D01*
X85760289Y-123871789D01*
X85871789Y-123760289D01*
X85959394Y-123629179D01*
X86019737Y-123483497D01*
X86050500Y-123328842D01*
X86050500Y-123171158D01*
X86050500Y-123171155D01*
X86050499Y-123171153D01*
X87449500Y-123171153D01*
X87449500Y-123328846D01*
X87480261Y-123483489D01*
X87480264Y-123483501D01*
X87540602Y-123629172D01*
X87540609Y-123629185D01*
X87628210Y-123760288D01*
X87628213Y-123760292D01*
X87739707Y-123871786D01*
X87739711Y-123871789D01*
X87870814Y-123959390D01*
X87870827Y-123959397D01*
X88016498Y-124019735D01*
X88016503Y-124019737D01*
X88171153Y-124050499D01*
X88171156Y-124050500D01*
X88171158Y-124050500D01*
X88328844Y-124050500D01*
X88328845Y-124050499D01*
X88483497Y-124019737D01*
X88629179Y-123959394D01*
X88760289Y-123871789D01*
X88871789Y-123760289D01*
X88959394Y-123629179D01*
X89019737Y-123483497D01*
X89050500Y-123328842D01*
X89050500Y-123171158D01*
X89050500Y-123171155D01*
X89050499Y-123171153D01*
X89019738Y-123016510D01*
X89019737Y-123016503D01*
X89019735Y-123016498D01*
X88959397Y-122870827D01*
X88959390Y-122870814D01*
X88871789Y-122739711D01*
X88871786Y-122739707D01*
X88760292Y-122628213D01*
X88760288Y-122628210D01*
X88629185Y-122540609D01*
X88629172Y-122540602D01*
X88483501Y-122480264D01*
X88483489Y-122480261D01*
X88328845Y-122449500D01*
X88328842Y-122449500D01*
X88171158Y-122449500D01*
X88171155Y-122449500D01*
X88016510Y-122480261D01*
X88016498Y-122480264D01*
X87870827Y-122540602D01*
X87870814Y-122540609D01*
X87739711Y-122628210D01*
X87739707Y-122628213D01*
X87628213Y-122739707D01*
X87628210Y-122739711D01*
X87540609Y-122870814D01*
X87540602Y-122870827D01*
X87480264Y-123016498D01*
X87480261Y-123016510D01*
X87449500Y-123171153D01*
X86050499Y-123171153D01*
X86019738Y-123016510D01*
X86019737Y-123016503D01*
X86019735Y-123016498D01*
X85959397Y-122870827D01*
X85959390Y-122870814D01*
X85871789Y-122739711D01*
X85871786Y-122739707D01*
X85760292Y-122628213D01*
X85760288Y-122628210D01*
X85629185Y-122540609D01*
X85629172Y-122540602D01*
X85483501Y-122480264D01*
X85483489Y-122480261D01*
X85328845Y-122449500D01*
X85328842Y-122449500D01*
X85171158Y-122449500D01*
X85171155Y-122449500D01*
X85016510Y-122480261D01*
X85016498Y-122480264D01*
X84870827Y-122540602D01*
X84870814Y-122540609D01*
X84739711Y-122628210D01*
X84739707Y-122628213D01*
X84628213Y-122739707D01*
X84628210Y-122739711D01*
X84540609Y-122870814D01*
X84540602Y-122870827D01*
X84480264Y-123016498D01*
X84480261Y-123016510D01*
X84449500Y-123171153D01*
X72875500Y-123171153D01*
X72875500Y-116921153D01*
X89199500Y-116921153D01*
X89199500Y-117078846D01*
X89230261Y-117233489D01*
X89230264Y-117233501D01*
X89290602Y-117379172D01*
X89290609Y-117379185D01*
X89378210Y-117510288D01*
X89378213Y-117510292D01*
X89489707Y-117621786D01*
X89489711Y-117621789D01*
X89620814Y-117709390D01*
X89620827Y-117709397D01*
X89766498Y-117769735D01*
X89766503Y-117769737D01*
X89921153Y-117800499D01*
X89921156Y-117800500D01*
X89921158Y-117800500D01*
X90078844Y-117800500D01*
X90078845Y-117800499D01*
X90233497Y-117769737D01*
X90379179Y-117709394D01*
X90510289Y-117621789D01*
X90621789Y-117510289D01*
X90709394Y-117379179D01*
X90769737Y-117233497D01*
X90800500Y-117078842D01*
X90800500Y-116921158D01*
X90800500Y-116921155D01*
X90800499Y-116921153D01*
X90769738Y-116766510D01*
X90769737Y-116766503D01*
X90769735Y-116766498D01*
X90709397Y-116620827D01*
X90709390Y-116620814D01*
X90621789Y-116489711D01*
X90621786Y-116489707D01*
X90510292Y-116378213D01*
X90510288Y-116378210D01*
X90379185Y-116290609D01*
X90379172Y-116290602D01*
X90233501Y-116230264D01*
X90233489Y-116230261D01*
X90078845Y-116199500D01*
X90078842Y-116199500D01*
X89921158Y-116199500D01*
X89921155Y-116199500D01*
X89766510Y-116230261D01*
X89766498Y-116230264D01*
X89620827Y-116290602D01*
X89620814Y-116290609D01*
X89489711Y-116378210D01*
X89489707Y-116378213D01*
X89378213Y-116489707D01*
X89378210Y-116489711D01*
X89290609Y-116620814D01*
X89290602Y-116620827D01*
X89230264Y-116766498D01*
X89230261Y-116766510D01*
X89199500Y-116921153D01*
X72875500Y-116921153D01*
X72875500Y-112421153D01*
X80449500Y-112421153D01*
X80449500Y-112578846D01*
X80480261Y-112733489D01*
X80480264Y-112733501D01*
X80540602Y-112879172D01*
X80540609Y-112879185D01*
X80628210Y-113010288D01*
X80628213Y-113010292D01*
X80739707Y-113121786D01*
X80739711Y-113121789D01*
X80870814Y-113209390D01*
X80870827Y-113209397D01*
X80969145Y-113250121D01*
X81016503Y-113269737D01*
X81171153Y-113300499D01*
X81171156Y-113300500D01*
X81171158Y-113300500D01*
X81328844Y-113300500D01*
X81328845Y-113300499D01*
X81483497Y-113269737D01*
X81603313Y-113220108D01*
X81629172Y-113209397D01*
X81629172Y-113209396D01*
X81629179Y-113209394D01*
X81760289Y-113121789D01*
X81871789Y-113010289D01*
X81959394Y-112879179D01*
X82019737Y-112733497D01*
X82050500Y-112578842D01*
X82050500Y-112421158D01*
X82050500Y-112421155D01*
X82050499Y-112421153D01*
X82699500Y-112421153D01*
X82699500Y-112578846D01*
X82730261Y-112733489D01*
X82730264Y-112733501D01*
X82790602Y-112879172D01*
X82790609Y-112879185D01*
X82878210Y-113010288D01*
X82878213Y-113010292D01*
X82989707Y-113121786D01*
X82989711Y-113121789D01*
X83120814Y-113209390D01*
X83120827Y-113209397D01*
X83219145Y-113250121D01*
X83266503Y-113269737D01*
X83421153Y-113300499D01*
X83421156Y-113300500D01*
X83421158Y-113300500D01*
X83578844Y-113300500D01*
X83578845Y-113300499D01*
X83733497Y-113269737D01*
X83853313Y-113220108D01*
X83879172Y-113209397D01*
X83879172Y-113209396D01*
X83879179Y-113209394D01*
X84010289Y-113121789D01*
X84121789Y-113010289D01*
X84209394Y-112879179D01*
X84269737Y-112733497D01*
X84300500Y-112578842D01*
X84300500Y-112421158D01*
X84300500Y-112421155D01*
X84300499Y-112421153D01*
X84269737Y-112266503D01*
X84269735Y-112266498D01*
X84209397Y-112120827D01*
X84209390Y-112120814D01*
X84121789Y-111989711D01*
X84121786Y-111989707D01*
X84010292Y-111878213D01*
X84010288Y-111878210D01*
X83879185Y-111790609D01*
X83879172Y-111790602D01*
X83733501Y-111730264D01*
X83733489Y-111730261D01*
X83578845Y-111699500D01*
X83578842Y-111699500D01*
X83421158Y-111699500D01*
X83421155Y-111699500D01*
X83266510Y-111730261D01*
X83266498Y-111730264D01*
X83120827Y-111790602D01*
X83120814Y-111790609D01*
X82989711Y-111878210D01*
X82989707Y-111878213D01*
X82878213Y-111989707D01*
X82878210Y-111989711D01*
X82790609Y-112120814D01*
X82790602Y-112120827D01*
X82730264Y-112266498D01*
X82730261Y-112266510D01*
X82699500Y-112421153D01*
X82050499Y-112421153D01*
X82019737Y-112266503D01*
X82019735Y-112266498D01*
X81959397Y-112120827D01*
X81959390Y-112120814D01*
X81871789Y-111989711D01*
X81871786Y-111989707D01*
X81760292Y-111878213D01*
X81760288Y-111878210D01*
X81629185Y-111790609D01*
X81629172Y-111790602D01*
X81483501Y-111730264D01*
X81483489Y-111730261D01*
X81328845Y-111699500D01*
X81328842Y-111699500D01*
X81171158Y-111699500D01*
X81171155Y-111699500D01*
X81016510Y-111730261D01*
X81016498Y-111730264D01*
X80870827Y-111790602D01*
X80870814Y-111790609D01*
X80739711Y-111878210D01*
X80739707Y-111878213D01*
X80628213Y-111989707D01*
X80628210Y-111989711D01*
X80540609Y-112120814D01*
X80540602Y-112120827D01*
X80480264Y-112266498D01*
X80480261Y-112266510D01*
X80449500Y-112421153D01*
X72875500Y-112421153D01*
X72875500Y-109921153D01*
X73199500Y-109921153D01*
X73199500Y-110078846D01*
X73230261Y-110233489D01*
X73230264Y-110233501D01*
X73290602Y-110379172D01*
X73290609Y-110379185D01*
X73378210Y-110510288D01*
X73378213Y-110510292D01*
X73489707Y-110621786D01*
X73489711Y-110621789D01*
X73620814Y-110709390D01*
X73620827Y-110709397D01*
X73716673Y-110749097D01*
X73766503Y-110769737D01*
X73892402Y-110794780D01*
X73921153Y-110800499D01*
X73921156Y-110800500D01*
X73921158Y-110800500D01*
X74078844Y-110800500D01*
X74078845Y-110800499D01*
X74233497Y-110769737D01*
X74379179Y-110709394D01*
X74510289Y-110621789D01*
X74621789Y-110510289D01*
X74709394Y-110379179D01*
X74769737Y-110233497D01*
X74800500Y-110078842D01*
X74800500Y-109921158D01*
X74800500Y-109921155D01*
X74800499Y-109921153D01*
X77199500Y-109921153D01*
X77199500Y-110078846D01*
X77230261Y-110233489D01*
X77230264Y-110233501D01*
X77290602Y-110379172D01*
X77290609Y-110379185D01*
X77378210Y-110510288D01*
X77378213Y-110510292D01*
X77489707Y-110621786D01*
X77489711Y-110621789D01*
X77620814Y-110709390D01*
X77620827Y-110709397D01*
X77716673Y-110749097D01*
X77766503Y-110769737D01*
X77892402Y-110794780D01*
X77921153Y-110800499D01*
X77921156Y-110800500D01*
X77921158Y-110800500D01*
X78078844Y-110800500D01*
X78078845Y-110800499D01*
X78233497Y-110769737D01*
X78379179Y-110709394D01*
X78510289Y-110621789D01*
X78621789Y-110510289D01*
X78709394Y-110379179D01*
X78769737Y-110233497D01*
X78800500Y-110078842D01*
X78800500Y-109921158D01*
X78800500Y-109921155D01*
X78800499Y-109921153D01*
X78769738Y-109766510D01*
X78769737Y-109766503D01*
X78763425Y-109751265D01*
X78709397Y-109620827D01*
X78709390Y-109620814D01*
X78621789Y-109489711D01*
X78621786Y-109489707D01*
X78510292Y-109378213D01*
X78510288Y-109378210D01*
X78379185Y-109290609D01*
X78379172Y-109290602D01*
X78233501Y-109230264D01*
X78233489Y-109230261D01*
X78078845Y-109199500D01*
X78078842Y-109199500D01*
X77921158Y-109199500D01*
X77921155Y-109199500D01*
X77766510Y-109230261D01*
X77766498Y-109230264D01*
X77620827Y-109290602D01*
X77620814Y-109290609D01*
X77489711Y-109378210D01*
X77489707Y-109378213D01*
X77378213Y-109489707D01*
X77378210Y-109489711D01*
X77290609Y-109620814D01*
X77290602Y-109620827D01*
X77230264Y-109766498D01*
X77230261Y-109766510D01*
X77199500Y-109921153D01*
X74800499Y-109921153D01*
X74769738Y-109766510D01*
X74769737Y-109766503D01*
X74763425Y-109751265D01*
X74709397Y-109620827D01*
X74709390Y-109620814D01*
X74621789Y-109489711D01*
X74621786Y-109489707D01*
X74510292Y-109378213D01*
X74510288Y-109378210D01*
X74379185Y-109290609D01*
X74379172Y-109290602D01*
X74233501Y-109230264D01*
X74233489Y-109230261D01*
X74078845Y-109199500D01*
X74078842Y-109199500D01*
X73921158Y-109199500D01*
X73921155Y-109199500D01*
X73766510Y-109230261D01*
X73766498Y-109230264D01*
X73620827Y-109290602D01*
X73620814Y-109290609D01*
X73489711Y-109378210D01*
X73489707Y-109378213D01*
X73378213Y-109489707D01*
X73378210Y-109489711D01*
X73290609Y-109620814D01*
X73290602Y-109620827D01*
X73230264Y-109766498D01*
X73230261Y-109766510D01*
X73199500Y-109921153D01*
X72875500Y-109921153D01*
X72875500Y-101182495D01*
X81389044Y-101182495D01*
X81389044Y-101340609D01*
X81399945Y-101381290D01*
X81429967Y-101493335D01*
X81429970Y-101493342D01*
X81509019Y-101630261D01*
X81509023Y-101630266D01*
X81509024Y-101630268D01*
X81620828Y-101742072D01*
X81620830Y-101742073D01*
X81620834Y-101742076D01*
X81668295Y-101769477D01*
X81757760Y-101821129D01*
X81910487Y-101862052D01*
X81981825Y-101862052D01*
X82043824Y-101878664D01*
X82128059Y-101927298D01*
X82230326Y-101954700D01*
X82230328Y-101954700D01*
X86208608Y-101954700D01*
X86208610Y-101954700D01*
X86310877Y-101927298D01*
X86402567Y-101874360D01*
X89321760Y-98955167D01*
X89374698Y-98863477D01*
X89402100Y-98761210D01*
X89402100Y-98655335D01*
X89402100Y-97748498D01*
X89421785Y-97681459D01*
X89438419Y-97660817D01*
X89458365Y-97640871D01*
X89480520Y-97618716D01*
X89559577Y-97481784D01*
X89600500Y-97329057D01*
X89600500Y-97170943D01*
X89559577Y-97018216D01*
X89512686Y-96936998D01*
X89496214Y-96869100D01*
X89512687Y-96813000D01*
X89559577Y-96731784D01*
X89600500Y-96579057D01*
X89600500Y-96420943D01*
X89559577Y-96268216D01*
X89555988Y-96262000D01*
X89480524Y-96131290D01*
X89480518Y-96131282D01*
X89368717Y-96019481D01*
X89368709Y-96019475D01*
X89231790Y-95940426D01*
X89231786Y-95940424D01*
X89231784Y-95940423D01*
X89079057Y-95899500D01*
X88920943Y-95899500D01*
X88768216Y-95940423D01*
X88768209Y-95940426D01*
X88631290Y-96019475D01*
X88631282Y-96019481D01*
X88589183Y-96061581D01*
X88527860Y-96095066D01*
X88501502Y-96097900D01*
X84697062Y-96097900D01*
X84594794Y-96125302D01*
X84503105Y-96178240D01*
X84503102Y-96178242D01*
X84363781Y-96317564D01*
X84344344Y-96328176D01*
X84327611Y-96342677D01*
X84314279Y-96344593D01*
X84302458Y-96351049D01*
X84280371Y-96349469D01*
X84258453Y-96352621D01*
X84246201Y-96347025D01*
X84232766Y-96346065D01*
X84215039Y-96332794D01*
X84194897Y-96323596D01*
X84187614Y-96312264D01*
X84176833Y-96304193D01*
X84169095Y-96283447D01*
X84157123Y-96264818D01*
X84153971Y-96242899D01*
X84152416Y-96238729D01*
X84152100Y-96229883D01*
X84152100Y-96217917D01*
X84171785Y-96150878D01*
X84188419Y-96130236D01*
X84431836Y-95886819D01*
X84493159Y-95853334D01*
X84519517Y-95850500D01*
X84579055Y-95850500D01*
X84579057Y-95850500D01*
X84731784Y-95809577D01*
X84868716Y-95730520D01*
X84980520Y-95618716D01*
X85059577Y-95481784D01*
X85100500Y-95329057D01*
X85100500Y-95170943D01*
X85059577Y-95018216D01*
X85059573Y-95018209D01*
X84980524Y-94881290D01*
X84980518Y-94881282D01*
X84868717Y-94769481D01*
X84868709Y-94769475D01*
X84731790Y-94690426D01*
X84731786Y-94690424D01*
X84731784Y-94690423D01*
X84579057Y-94649500D01*
X84420943Y-94649500D01*
X84268216Y-94690423D01*
X84268209Y-94690426D01*
X84131290Y-94769475D01*
X84131282Y-94769481D01*
X84019481Y-94881282D01*
X84019475Y-94881290D01*
X83940426Y-95018209D01*
X83940423Y-95018216D01*
X83899500Y-95170943D01*
X83899500Y-95230483D01*
X83879815Y-95297522D01*
X83863181Y-95318164D01*
X83428242Y-95753102D01*
X83428240Y-95753105D01*
X83375302Y-95844794D01*
X83347900Y-95947062D01*
X83347900Y-99751502D01*
X83328215Y-99818541D01*
X83311581Y-99839183D01*
X83269481Y-99881282D01*
X83269475Y-99881290D01*
X83190426Y-100018209D01*
X83190423Y-100018216D01*
X83149500Y-100170943D01*
X83149500Y-100329057D01*
X83167362Y-100395722D01*
X83165700Y-100465569D01*
X83135270Y-100515494D01*
X83019478Y-100631286D01*
X83019475Y-100631290D01*
X82940426Y-100768209D01*
X82940423Y-100768216D01*
X82899500Y-100920943D01*
X82899500Y-101026500D01*
X82896949Y-101035185D01*
X82898238Y-101044147D01*
X82887259Y-101068187D01*
X82879815Y-101093539D01*
X82872974Y-101099466D01*
X82869213Y-101107703D01*
X82846978Y-101121992D01*
X82827011Y-101139294D01*
X82816496Y-101141581D01*
X82810435Y-101145477D01*
X82775500Y-101150500D01*
X82676619Y-101150500D01*
X82609580Y-101130815D01*
X82563825Y-101078011D01*
X82556846Y-101058599D01*
X82549121Y-101029768D01*
X82496612Y-100938819D01*
X82470068Y-100892842D01*
X82470062Y-100892834D01*
X82358261Y-100781033D01*
X82358253Y-100781027D01*
X82221334Y-100701978D01*
X82221330Y-100701976D01*
X82221328Y-100701975D01*
X82068601Y-100661052D01*
X81910487Y-100661052D01*
X81757760Y-100701975D01*
X81757753Y-100701978D01*
X81620834Y-100781027D01*
X81620826Y-100781033D01*
X81509025Y-100892834D01*
X81509019Y-100892842D01*
X81429970Y-101029761D01*
X81429967Y-101029768D01*
X81389044Y-101182495D01*
X72875500Y-101182495D01*
X72875500Y-95769398D01*
X74949500Y-95769398D01*
X74949500Y-97355602D01*
X74951555Y-97372713D01*
X74960122Y-97444061D01*
X75015639Y-97584843D01*
X75107077Y-97705422D01*
X75227656Y-97796860D01*
X75227657Y-97796860D01*
X75227658Y-97796861D01*
X75368436Y-97852377D01*
X75389060Y-97854853D01*
X75453274Y-97882388D01*
X75492408Y-97940270D01*
X75494037Y-98010121D01*
X75457643Y-98069763D01*
X75447164Y-98078287D01*
X75402782Y-98110532D01*
X75258028Y-98255286D01*
X75137715Y-98420886D01*
X75044781Y-98603276D01*
X74981522Y-98797965D01*
X74949500Y-99000148D01*
X74949500Y-99204851D01*
X74981522Y-99407034D01*
X75044781Y-99601723D01*
X75101215Y-99712479D01*
X75132667Y-99774207D01*
X75137715Y-99784113D01*
X75258028Y-99949713D01*
X75402786Y-100094471D01*
X75508043Y-100170943D01*
X75568390Y-100214787D01*
X75684607Y-100274003D01*
X75750776Y-100307718D01*
X75750778Y-100307718D01*
X75750781Y-100307720D01*
X75816450Y-100329057D01*
X75945465Y-100370977D01*
X76046557Y-100386988D01*
X76147648Y-100403000D01*
X76147649Y-100403000D01*
X76352351Y-100403000D01*
X76352352Y-100403000D01*
X76554534Y-100370977D01*
X76749219Y-100307720D01*
X76931610Y-100214787D01*
X77029817Y-100143436D01*
X77097213Y-100094471D01*
X77097215Y-100094468D01*
X77097219Y-100094466D01*
X77241966Y-99949719D01*
X77241968Y-99949715D01*
X77241971Y-99949713D01*
X77294732Y-99877090D01*
X77362287Y-99784110D01*
X77455220Y-99601719D01*
X77518477Y-99407034D01*
X77550500Y-99204852D01*
X77550500Y-99000148D01*
X77542081Y-98946996D01*
X77518477Y-98797965D01*
X77482883Y-98688419D01*
X77455220Y-98603281D01*
X77455218Y-98603278D01*
X77455218Y-98603276D01*
X77421503Y-98537107D01*
X77362287Y-98420890D01*
X77334503Y-98382648D01*
X77241971Y-98255286D01*
X77097217Y-98110532D01*
X77097212Y-98110528D01*
X77052836Y-98078287D01*
X77010170Y-98022957D01*
X77004191Y-97953344D01*
X77036796Y-97891549D01*
X77097635Y-97857192D01*
X77110931Y-97854854D01*
X77131564Y-97852377D01*
X77272342Y-97796861D01*
X77392922Y-97705422D01*
X77484361Y-97584842D01*
X77539877Y-97444064D01*
X77550500Y-97355602D01*
X77550500Y-96881495D01*
X79799499Y-96881495D01*
X79826418Y-97016822D01*
X79826421Y-97016832D01*
X79879221Y-97144304D01*
X79879228Y-97144317D01*
X79955885Y-97259041D01*
X79955888Y-97259045D01*
X80053454Y-97356611D01*
X80053458Y-97356614D01*
X80168182Y-97433271D01*
X80168195Y-97433278D01*
X80285315Y-97481790D01*
X80295672Y-97486080D01*
X80295676Y-97486080D01*
X80295677Y-97486081D01*
X80431004Y-97513000D01*
X80431007Y-97513000D01*
X80568995Y-97513000D01*
X80669398Y-97493028D01*
X80704328Y-97486080D01*
X80831811Y-97433275D01*
X80946542Y-97356614D01*
X81044114Y-97259042D01*
X81120775Y-97144311D01*
X81173580Y-97016828D01*
X81189459Y-96937000D01*
X81200500Y-96881495D01*
X81200500Y-96743504D01*
X81173581Y-96608177D01*
X81173580Y-96608176D01*
X81173580Y-96608172D01*
X81161520Y-96579056D01*
X81120778Y-96480695D01*
X81120771Y-96480682D01*
X81044114Y-96365958D01*
X81044111Y-96365954D01*
X80946545Y-96268388D01*
X80946541Y-96268385D01*
X80831817Y-96191728D01*
X80831804Y-96191721D01*
X80704332Y-96138921D01*
X80704322Y-96138918D01*
X80568995Y-96112000D01*
X80568993Y-96112000D01*
X80431007Y-96112000D01*
X80431005Y-96112000D01*
X80295677Y-96138918D01*
X80295667Y-96138921D01*
X80168195Y-96191721D01*
X80168182Y-96191728D01*
X80053458Y-96268385D01*
X80053454Y-96268388D01*
X79955888Y-96365954D01*
X79955885Y-96365958D01*
X79879228Y-96480682D01*
X79879221Y-96480695D01*
X79826421Y-96608167D01*
X79826418Y-96608177D01*
X79799500Y-96743504D01*
X79799500Y-96743507D01*
X79799500Y-96881493D01*
X79799500Y-96881495D01*
X79799499Y-96881495D01*
X77550500Y-96881495D01*
X77550500Y-95769398D01*
X77539877Y-95680936D01*
X77484361Y-95540158D01*
X77484360Y-95540157D01*
X77484360Y-95540156D01*
X77392922Y-95419577D01*
X77272343Y-95328139D01*
X77131561Y-95272622D01*
X77084248Y-95266941D01*
X77043102Y-95262000D01*
X75456898Y-95262000D01*
X75417853Y-95266688D01*
X75368438Y-95272622D01*
X75227656Y-95328139D01*
X75107077Y-95419577D01*
X75015639Y-95540156D01*
X74960122Y-95680938D01*
X74954188Y-95730353D01*
X74949500Y-95769398D01*
X72875500Y-95769398D01*
X72875500Y-93171153D01*
X83949500Y-93171153D01*
X83949500Y-93328846D01*
X83980261Y-93483489D01*
X83980264Y-93483501D01*
X84040602Y-93629172D01*
X84040609Y-93629185D01*
X84128210Y-93760288D01*
X84128213Y-93760292D01*
X84239707Y-93871786D01*
X84239711Y-93871789D01*
X84370814Y-93959390D01*
X84370827Y-93959397D01*
X84516498Y-94019735D01*
X84516503Y-94019737D01*
X84671153Y-94050499D01*
X84671156Y-94050500D01*
X84671158Y-94050500D01*
X84828844Y-94050500D01*
X84828845Y-94050499D01*
X84983497Y-94019737D01*
X85129179Y-93959394D01*
X85260289Y-93871789D01*
X85371789Y-93760289D01*
X85459394Y-93629179D01*
X85519737Y-93483497D01*
X85550500Y-93328842D01*
X85550500Y-93171158D01*
X85550500Y-93171155D01*
X85550499Y-93171153D01*
X85545710Y-93147077D01*
X85519737Y-93016503D01*
X85512952Y-93000123D01*
X85459397Y-92870827D01*
X85459390Y-92870814D01*
X85371789Y-92739711D01*
X85371786Y-92739707D01*
X85260292Y-92628213D01*
X85260288Y-92628210D01*
X85129185Y-92540609D01*
X85129172Y-92540602D01*
X84983501Y-92480264D01*
X84983489Y-92480261D01*
X84828845Y-92449500D01*
X84828842Y-92449500D01*
X84671158Y-92449500D01*
X84671155Y-92449500D01*
X84516510Y-92480261D01*
X84516498Y-92480264D01*
X84370827Y-92540602D01*
X84370814Y-92540609D01*
X84239711Y-92628210D01*
X84239707Y-92628213D01*
X84128213Y-92739707D01*
X84128210Y-92739711D01*
X84040609Y-92870814D01*
X84040602Y-92870827D01*
X83980264Y-93016498D01*
X83980261Y-93016510D01*
X83949500Y-93171153D01*
X72875500Y-93171153D01*
X72875500Y-82249448D01*
X80849500Y-82249448D01*
X80849500Y-82430551D01*
X80877829Y-82609410D01*
X80933787Y-82781636D01*
X80933788Y-82781639D01*
X81016006Y-82942997D01*
X81122441Y-83089494D01*
X81122445Y-83089499D01*
X81250500Y-83217554D01*
X81250505Y-83217558D01*
X81324565Y-83271365D01*
X81397006Y-83323996D01*
X81502484Y-83377740D01*
X81558360Y-83406211D01*
X81558363Y-83406212D01*
X81644476Y-83434191D01*
X81730591Y-83462171D01*
X81803639Y-83473740D01*
X81890678Y-83487527D01*
X81953813Y-83517456D01*
X81990744Y-83576768D01*
X81989746Y-83646631D01*
X81951136Y-83704863D01*
X81890678Y-83732473D01*
X81730589Y-83757829D01*
X81558363Y-83813787D01*
X81558360Y-83813788D01*
X81397002Y-83896006D01*
X81250505Y-84002441D01*
X81250500Y-84002445D01*
X81122445Y-84130500D01*
X81122441Y-84130505D01*
X81016006Y-84277002D01*
X80933788Y-84438360D01*
X80933787Y-84438363D01*
X80877829Y-84610589D01*
X80849500Y-84789448D01*
X80849500Y-84970551D01*
X80877829Y-85149410D01*
X80933787Y-85321636D01*
X80933788Y-85321639D01*
X81016006Y-85482997D01*
X81122441Y-85629494D01*
X81122445Y-85629499D01*
X81250500Y-85757554D01*
X81250505Y-85757558D01*
X81324565Y-85811365D01*
X81397006Y-85863996D01*
X81502484Y-85917740D01*
X81558360Y-85946211D01*
X81558363Y-85946212D01*
X81644476Y-85974191D01*
X81730591Y-86002171D01*
X81803639Y-86013740D01*
X81890678Y-86027527D01*
X81953813Y-86057456D01*
X81990744Y-86116768D01*
X81989746Y-86186631D01*
X81951136Y-86244863D01*
X81890678Y-86272473D01*
X81730589Y-86297829D01*
X81558363Y-86353787D01*
X81558360Y-86353788D01*
X81397002Y-86436006D01*
X81250505Y-86542441D01*
X81250500Y-86542445D01*
X81122445Y-86670500D01*
X81122441Y-86670505D01*
X81016006Y-86817002D01*
X80933788Y-86978360D01*
X80933787Y-86978363D01*
X80877829Y-87150589D01*
X80849500Y-87329448D01*
X80849500Y-87510551D01*
X80877829Y-87689410D01*
X80933787Y-87861636D01*
X80933788Y-87861639D01*
X81016006Y-88022997D01*
X81122441Y-88169494D01*
X81122445Y-88169499D01*
X81250500Y-88297554D01*
X81250505Y-88297558D01*
X81299428Y-88333102D01*
X81397006Y-88403996D01*
X81502484Y-88457740D01*
X81558360Y-88486211D01*
X81558363Y-88486212D01*
X81644476Y-88514191D01*
X81730591Y-88542171D01*
X81803639Y-88553740D01*
X81890678Y-88567527D01*
X81953813Y-88597456D01*
X81990744Y-88656768D01*
X81989746Y-88726631D01*
X81951136Y-88784863D01*
X81890678Y-88812473D01*
X81730589Y-88837829D01*
X81558363Y-88893787D01*
X81558360Y-88893788D01*
X81397002Y-88976006D01*
X81250505Y-89082441D01*
X81250500Y-89082445D01*
X81122445Y-89210500D01*
X81122441Y-89210505D01*
X81016006Y-89357002D01*
X80933788Y-89518360D01*
X80933787Y-89518363D01*
X80877829Y-89690589D01*
X80849500Y-89869448D01*
X80849500Y-90050551D01*
X80877829Y-90229410D01*
X80933787Y-90401636D01*
X80933788Y-90401639D01*
X80974492Y-90481523D01*
X81006723Y-90544780D01*
X81016006Y-90562997D01*
X81122441Y-90709494D01*
X81122445Y-90709499D01*
X81250500Y-90837554D01*
X81250505Y-90837558D01*
X81340278Y-90902781D01*
X81397006Y-90943996D01*
X81502484Y-90997740D01*
X81558360Y-91026211D01*
X81558363Y-91026212D01*
X81640620Y-91052938D01*
X81730591Y-91082171D01*
X81813429Y-91095291D01*
X81909449Y-91110500D01*
X81909454Y-91110500D01*
X82090551Y-91110500D01*
X82177259Y-91096765D01*
X82269409Y-91082171D01*
X82441639Y-91026211D01*
X82602994Y-90943996D01*
X82749501Y-90837553D01*
X82877553Y-90709501D01*
X82983996Y-90562994D01*
X83066211Y-90401639D01*
X83066212Y-90401636D01*
X83119451Y-90237782D01*
X83158888Y-90180107D01*
X83223247Y-90152908D01*
X83237382Y-90152100D01*
X86172047Y-90152100D01*
X86239086Y-90171785D01*
X86259728Y-90188419D01*
X89863181Y-93791872D01*
X89896666Y-93853195D01*
X89899500Y-93879553D01*
X89899500Y-93939093D01*
X89929352Y-94050500D01*
X89940423Y-94091819D01*
X89940426Y-94091826D01*
X90019475Y-94228745D01*
X90019479Y-94228750D01*
X90019480Y-94228752D01*
X90131284Y-94340556D01*
X90131286Y-94340557D01*
X90131290Y-94340560D01*
X90268209Y-94419609D01*
X90268216Y-94419613D01*
X90420943Y-94460536D01*
X90420945Y-94460536D01*
X90579055Y-94460536D01*
X90579057Y-94460536D01*
X90731784Y-94419613D01*
X90868716Y-94340556D01*
X90980520Y-94228752D01*
X91059577Y-94091820D01*
X91100500Y-93939093D01*
X91100500Y-93780979D01*
X91059577Y-93628252D01*
X91059573Y-93628245D01*
X90980524Y-93491326D01*
X90980518Y-93491318D01*
X90868717Y-93379517D01*
X90868709Y-93379511D01*
X90731790Y-93300462D01*
X90731786Y-93300460D01*
X90731784Y-93300459D01*
X90579057Y-93259536D01*
X90579056Y-93259536D01*
X90519518Y-93259536D01*
X90452479Y-93239851D01*
X90431837Y-93223217D01*
X86636861Y-89428242D01*
X86636859Y-89428240D01*
X86545169Y-89375302D01*
X86442902Y-89347900D01*
X86442901Y-89347900D01*
X83040561Y-89347900D01*
X82973522Y-89328215D01*
X82940242Y-89296784D01*
X82877556Y-89210502D01*
X82749499Y-89082445D01*
X82749494Y-89082441D01*
X82602997Y-88976006D01*
X82602996Y-88976005D01*
X82602994Y-88976004D01*
X82551300Y-88949664D01*
X82441639Y-88893788D01*
X82441636Y-88893787D01*
X82269410Y-88837829D01*
X82109321Y-88812473D01*
X82046186Y-88782544D01*
X82009255Y-88723232D01*
X82010253Y-88653370D01*
X82048863Y-88595137D01*
X82109321Y-88567527D01*
X82179425Y-88556422D01*
X82269409Y-88542171D01*
X82441639Y-88486211D01*
X82602994Y-88403996D01*
X82749501Y-88297553D01*
X82877553Y-88169501D01*
X82983996Y-88022994D01*
X83066211Y-87861639D01*
X83122171Y-87689409D01*
X83136765Y-87597259D01*
X83150500Y-87510551D01*
X83150500Y-87329448D01*
X83122170Y-87150587D01*
X83075979Y-87008422D01*
X83073984Y-86938581D01*
X83106227Y-86882426D01*
X87977836Y-82010819D01*
X88039159Y-81977334D01*
X88065517Y-81974500D01*
X88400500Y-81974500D01*
X88467539Y-81994185D01*
X88513294Y-82046989D01*
X88524500Y-82098500D01*
X88524500Y-82204057D01*
X88536663Y-82249448D01*
X88565423Y-82356783D01*
X88565426Y-82356790D01*
X88644475Y-82493709D01*
X88644481Y-82493717D01*
X88686581Y-82535817D01*
X88720066Y-82597140D01*
X88722900Y-82623498D01*
X88722900Y-90572062D01*
X88722900Y-90677938D01*
X88750302Y-90780205D01*
X88803240Y-90871895D01*
X88803242Y-90871897D01*
X91311581Y-93380236D01*
X91345066Y-93441559D01*
X91347900Y-93467917D01*
X91347900Y-115197062D01*
X91347900Y-115302938D01*
X91375302Y-115405205D01*
X91428240Y-115496895D01*
X91428242Y-115496897D01*
X100363181Y-124431836D01*
X100396666Y-124493159D01*
X100399500Y-124519517D01*
X100399500Y-124579057D01*
X100429341Y-124690423D01*
X100440423Y-124731783D01*
X100440426Y-124731790D01*
X100519475Y-124868709D01*
X100519479Y-124868714D01*
X100519480Y-124868716D01*
X100631284Y-124980520D01*
X100631286Y-124980521D01*
X100631290Y-124980524D01*
X100768209Y-125059573D01*
X100768216Y-125059577D01*
X100920943Y-125100500D01*
X100920945Y-125100500D01*
X101079055Y-125100500D01*
X101079057Y-125100500D01*
X101231784Y-125059577D01*
X101368716Y-124980520D01*
X101480520Y-124868716D01*
X101559577Y-124731784D01*
X101600500Y-124579057D01*
X101600500Y-124579055D01*
X101602603Y-124571207D01*
X101604611Y-124571745D01*
X101628395Y-124517984D01*
X101686720Y-124479514D01*
X101699243Y-124476789D01*
X101704054Y-124475500D01*
X101704057Y-124475500D01*
X101856784Y-124434577D01*
X101993716Y-124355520D01*
X102105520Y-124243716D01*
X102141680Y-124181083D01*
X102192244Y-124132870D01*
X102260850Y-124119645D01*
X102325716Y-124145612D01*
X102336747Y-124155403D01*
X103363181Y-125181836D01*
X103396666Y-125243159D01*
X103399500Y-125269517D01*
X103399500Y-125329056D01*
X103440423Y-125481783D01*
X103440426Y-125481790D01*
X103519475Y-125618709D01*
X103519479Y-125618714D01*
X103519480Y-125618716D01*
X103631284Y-125730520D01*
X103631286Y-125730521D01*
X103631290Y-125730524D01*
X103768209Y-125809573D01*
X103768216Y-125809577D01*
X103920943Y-125850500D01*
X103920945Y-125850500D01*
X104079055Y-125850500D01*
X104079057Y-125850500D01*
X104231784Y-125809577D01*
X104368716Y-125730520D01*
X104480520Y-125618716D01*
X104559577Y-125481784D01*
X104600500Y-125329057D01*
X104600500Y-125170943D01*
X104559577Y-125018216D01*
X104537816Y-124980524D01*
X104480524Y-124881290D01*
X104480518Y-124881282D01*
X104368717Y-124769481D01*
X104368709Y-124769475D01*
X104231790Y-124690426D01*
X104231786Y-124690424D01*
X104231784Y-124690423D01*
X104079057Y-124649500D01*
X104079056Y-124649500D01*
X104019518Y-124649500D01*
X103952479Y-124629815D01*
X103931837Y-124613181D01*
X93188419Y-113869763D01*
X93154934Y-113808440D01*
X93152100Y-113782082D01*
X93152100Y-105329054D01*
X93899498Y-105329054D01*
X93940424Y-105481789D01*
X93940425Y-105481790D01*
X93962186Y-105519480D01*
X93962187Y-105519482D01*
X94019475Y-105618709D01*
X94019481Y-105618717D01*
X94138349Y-105737585D01*
X94138354Y-105737589D01*
X95881284Y-107480520D01*
X95881286Y-107480521D01*
X95881290Y-107480524D01*
X95948765Y-107519480D01*
X96018216Y-107559577D01*
X96170943Y-107600501D01*
X96170945Y-107600501D01*
X96336654Y-107600501D01*
X96336670Y-107600500D01*
X104449903Y-107600500D01*
X104516942Y-107620185D01*
X104537584Y-107636819D01*
X106113181Y-109212416D01*
X106146666Y-109273739D01*
X106149500Y-109300097D01*
X106149500Y-114628330D01*
X106149499Y-114628348D01*
X106149499Y-114794054D01*
X106149498Y-114794054D01*
X106149499Y-114794057D01*
X106190423Y-114946785D01*
X106190424Y-114946787D01*
X106190423Y-114946787D01*
X106201833Y-114966548D01*
X106201834Y-114966550D01*
X106269475Y-115083709D01*
X106269481Y-115083717D01*
X106388349Y-115202585D01*
X106388355Y-115202590D01*
X109475921Y-118290157D01*
X109509406Y-118351480D01*
X109506173Y-118416149D01*
X109501523Y-118430460D01*
X109501523Y-118430462D01*
X109469500Y-118632648D01*
X109469500Y-118837351D01*
X109501522Y-119039534D01*
X109564781Y-119234223D01*
X109657715Y-119416613D01*
X109778028Y-119582213D01*
X109778034Y-119582219D01*
X109922781Y-119726966D01*
X109967163Y-119759211D01*
X110009829Y-119814541D01*
X110015808Y-119884154D01*
X109983203Y-119945950D01*
X109922364Y-119980307D01*
X109909063Y-119982645D01*
X109888441Y-119985121D01*
X109747656Y-120040639D01*
X109627077Y-120132077D01*
X109535639Y-120252656D01*
X109480122Y-120393438D01*
X109474188Y-120442853D01*
X109469500Y-120481898D01*
X109469500Y-122068102D01*
X109475126Y-122114954D01*
X109480122Y-122156561D01*
X109535639Y-122297343D01*
X109627077Y-122417922D01*
X109747656Y-122509360D01*
X109747657Y-122509360D01*
X109747658Y-122509361D01*
X109888436Y-122564877D01*
X109976898Y-122575500D01*
X109976903Y-122575500D01*
X111563097Y-122575500D01*
X111563102Y-122575500D01*
X111651564Y-122564877D01*
X111792342Y-122509361D01*
X111912922Y-122417922D01*
X112004361Y-122297342D01*
X112059877Y-122156564D01*
X112070500Y-122068102D01*
X112070500Y-120481898D01*
X112059877Y-120393436D01*
X112004361Y-120252658D01*
X112004360Y-120252657D01*
X112004360Y-120252656D01*
X111912922Y-120132077D01*
X111792343Y-120040639D01*
X111719336Y-120011849D01*
X111651564Y-119985123D01*
X111651562Y-119985122D01*
X111651558Y-119985121D01*
X111630936Y-119982645D01*
X111566722Y-119955108D01*
X111527590Y-119897226D01*
X111525963Y-119827375D01*
X111562358Y-119767733D01*
X111572837Y-119759211D01*
X111617215Y-119726969D01*
X111617215Y-119726968D01*
X111617219Y-119726966D01*
X111761966Y-119582219D01*
X111761968Y-119582215D01*
X111761971Y-119582213D01*
X111814732Y-119509590D01*
X111882287Y-119416610D01*
X111975220Y-119234219D01*
X112038477Y-119039534D01*
X112070500Y-118837352D01*
X112070500Y-118632648D01*
X112038477Y-118430466D01*
X111975220Y-118235781D01*
X111975218Y-118235778D01*
X111975218Y-118235776D01*
X111941503Y-118169607D01*
X111882287Y-118053390D01*
X111874556Y-118042749D01*
X111761971Y-117887786D01*
X111617213Y-117743028D01*
X111451613Y-117622715D01*
X111451612Y-117622714D01*
X111451610Y-117622713D01*
X111394653Y-117593691D01*
X111269223Y-117529781D01*
X111074534Y-117466522D01*
X110899995Y-117438878D01*
X110872352Y-117434500D01*
X110667648Y-117434500D01*
X110627211Y-117440904D01*
X110465462Y-117466523D01*
X110465460Y-117466523D01*
X110451149Y-117471173D01*
X110381308Y-117473164D01*
X110325157Y-117440921D01*
X107386819Y-114502583D01*
X107353334Y-114441260D01*
X107350500Y-114414902D01*
X107350500Y-110749097D01*
X107370185Y-110682058D01*
X107422989Y-110636303D01*
X107492147Y-110626359D01*
X107555703Y-110655384D01*
X107562181Y-110661416D01*
X109265139Y-112364374D01*
X109265149Y-112364385D01*
X109269479Y-112368715D01*
X109269480Y-112368716D01*
X109381284Y-112480520D01*
X109468095Y-112530639D01*
X109518215Y-112559577D01*
X109563551Y-112571724D01*
X109572181Y-112575513D01*
X109591991Y-112592174D01*
X109614091Y-112605644D01*
X109622525Y-112617854D01*
X109625654Y-112620485D01*
X109626719Y-112623924D01*
X109632823Y-112632760D01*
X109657715Y-112681614D01*
X109778028Y-112847213D01*
X109778034Y-112847219D01*
X109922781Y-112991966D01*
X109948001Y-113010289D01*
X109967163Y-113024211D01*
X110009829Y-113079541D01*
X110015808Y-113149154D01*
X109983203Y-113210950D01*
X109922364Y-113245307D01*
X109909063Y-113247645D01*
X109888441Y-113250121D01*
X109747656Y-113305639D01*
X109627077Y-113397077D01*
X109535639Y-113517656D01*
X109480122Y-113658438D01*
X109474188Y-113707853D01*
X109469500Y-113746898D01*
X109469500Y-115333102D01*
X109475126Y-115379954D01*
X109480122Y-115421561D01*
X109535639Y-115562343D01*
X109627077Y-115682922D01*
X109747656Y-115774360D01*
X109747657Y-115774360D01*
X109747658Y-115774361D01*
X109888436Y-115829877D01*
X109976898Y-115840500D01*
X109976903Y-115840500D01*
X111563097Y-115840500D01*
X111563102Y-115840500D01*
X111651564Y-115829877D01*
X111792342Y-115774361D01*
X111912922Y-115682922D01*
X112004361Y-115562342D01*
X112059877Y-115421564D01*
X112070500Y-115333102D01*
X112070500Y-113746898D01*
X112059877Y-113658436D01*
X112004361Y-113517658D01*
X112004360Y-113517657D01*
X112004360Y-113517656D01*
X111912922Y-113397077D01*
X111792343Y-113305639D01*
X111701296Y-113269735D01*
X111651564Y-113250123D01*
X111651562Y-113250122D01*
X111651558Y-113250121D01*
X111630936Y-113247645D01*
X111566722Y-113220108D01*
X111527590Y-113162226D01*
X111525963Y-113092375D01*
X111562358Y-113032733D01*
X111572837Y-113024211D01*
X111617215Y-112991969D01*
X111617215Y-112991968D01*
X111617219Y-112991966D01*
X111761966Y-112847219D01*
X111761968Y-112847215D01*
X111761971Y-112847213D01*
X111844595Y-112733489D01*
X111882287Y-112681610D01*
X111975220Y-112499219D01*
X112038477Y-112304534D01*
X112070500Y-112102352D01*
X112070500Y-111897648D01*
X112043989Y-111730264D01*
X112038477Y-111695465D01*
X111975218Y-111500776D01*
X111941503Y-111434607D01*
X111882287Y-111318390D01*
X111874556Y-111307749D01*
X111761971Y-111152786D01*
X111617213Y-111008028D01*
X111451613Y-110887715D01*
X111451612Y-110887714D01*
X111451610Y-110887713D01*
X111394653Y-110858691D01*
X111269223Y-110794781D01*
X111074534Y-110731522D01*
X110899995Y-110703878D01*
X110872352Y-110699500D01*
X110667648Y-110699500D01*
X110643329Y-110703351D01*
X110465465Y-110731522D01*
X110270776Y-110794781D01*
X110088386Y-110887715D01*
X109922786Y-111008028D01*
X109922781Y-111008032D01*
X109852704Y-111078109D01*
X109791380Y-111111594D01*
X109721689Y-111106608D01*
X109677343Y-111078108D01*
X108386819Y-109787584D01*
X108353334Y-109726261D01*
X108350500Y-109699903D01*
X108350500Y-107920945D01*
X108350500Y-107920943D01*
X108309577Y-107768216D01*
X108309577Y-107768215D01*
X108309577Y-107768214D01*
X108280639Y-107718095D01*
X108280637Y-107718092D01*
X108230520Y-107631284D01*
X108118716Y-107519480D01*
X108118715Y-107519479D01*
X108114385Y-107515149D01*
X108114374Y-107515139D01*
X106621416Y-106022181D01*
X106587931Y-105960858D01*
X106592915Y-105891166D01*
X106634787Y-105835233D01*
X106700251Y-105810816D01*
X106709097Y-105810500D01*
X109540398Y-105810500D01*
X109607437Y-105830185D01*
X109650883Y-105878205D01*
X109657715Y-105891614D01*
X109778028Y-106057213D01*
X109778034Y-106057219D01*
X109922781Y-106201966D01*
X109967163Y-106234211D01*
X110009829Y-106289541D01*
X110015808Y-106359154D01*
X109983203Y-106420950D01*
X109922364Y-106455307D01*
X109909063Y-106457645D01*
X109888441Y-106460121D01*
X109747656Y-106515639D01*
X109627077Y-106607077D01*
X109535639Y-106727656D01*
X109480122Y-106868438D01*
X109474188Y-106917853D01*
X109469500Y-106956898D01*
X109469500Y-108543102D01*
X109475126Y-108589954D01*
X109480122Y-108631561D01*
X109535639Y-108772343D01*
X109627077Y-108892922D01*
X109747656Y-108984360D01*
X109747657Y-108984360D01*
X109747658Y-108984361D01*
X109888436Y-109039877D01*
X109976898Y-109050500D01*
X109976903Y-109050500D01*
X111563097Y-109050500D01*
X111563102Y-109050500D01*
X111651564Y-109039877D01*
X111792342Y-108984361D01*
X111912922Y-108892922D01*
X112004361Y-108772342D01*
X112059877Y-108631564D01*
X112070500Y-108543102D01*
X112070500Y-106956898D01*
X112059877Y-106868436D01*
X112004361Y-106727658D01*
X112004360Y-106727657D01*
X112004360Y-106727656D01*
X111912922Y-106607077D01*
X111792343Y-106515639D01*
X111719336Y-106486849D01*
X111651564Y-106460123D01*
X111651562Y-106460122D01*
X111651558Y-106460121D01*
X111630936Y-106457645D01*
X111566722Y-106430108D01*
X111527590Y-106372226D01*
X111525963Y-106302375D01*
X111562358Y-106242733D01*
X111572837Y-106234211D01*
X111617215Y-106201969D01*
X111617215Y-106201968D01*
X111617219Y-106201966D01*
X111761966Y-106057219D01*
X111761968Y-106057215D01*
X111761971Y-106057213D01*
X111831976Y-105960858D01*
X111882287Y-105891610D01*
X111975220Y-105709219D01*
X112038477Y-105514534D01*
X112070500Y-105312352D01*
X112070500Y-105107648D01*
X112049882Y-104977474D01*
X112038477Y-104905465D01*
X111988284Y-104750988D01*
X111975220Y-104710781D01*
X111975218Y-104710778D01*
X111975218Y-104710776D01*
X111934713Y-104631282D01*
X111882287Y-104528390D01*
X111874556Y-104517749D01*
X111761971Y-104362786D01*
X111617213Y-104218028D01*
X111451613Y-104097715D01*
X111451612Y-104097714D01*
X111451610Y-104097713D01*
X111394653Y-104068691D01*
X111269223Y-104004781D01*
X111074534Y-103941522D01*
X110899995Y-103913878D01*
X110872352Y-103909500D01*
X110667648Y-103909500D01*
X110643329Y-103913351D01*
X110465465Y-103941522D01*
X110270776Y-104004781D01*
X110088386Y-104097715D01*
X109922786Y-104218028D01*
X109778028Y-104362786D01*
X109657715Y-104528385D01*
X109650883Y-104541795D01*
X109602909Y-104592591D01*
X109540398Y-104609500D01*
X97260098Y-104609500D01*
X97193059Y-104589815D01*
X97186128Y-104585021D01*
X97178840Y-104579604D01*
X97118716Y-104519480D01*
X97031904Y-104469360D01*
X96981785Y-104440423D01*
X96829057Y-104399499D01*
X96670943Y-104399499D01*
X96563587Y-104428265D01*
X96518210Y-104440424D01*
X96518209Y-104440425D01*
X96468096Y-104469359D01*
X96468095Y-104469360D01*
X96424689Y-104494420D01*
X96381285Y-104519479D01*
X96381282Y-104519481D01*
X96269481Y-104631282D01*
X96269477Y-104631287D01*
X96233948Y-104692826D01*
X96227398Y-104699070D01*
X96224035Y-104707474D01*
X96202506Y-104722805D01*
X96183381Y-104741042D01*
X96174494Y-104742754D01*
X96167122Y-104748005D01*
X96140720Y-104749263D01*
X96114774Y-104754264D01*
X96104527Y-104750988D01*
X96097332Y-104751332D01*
X96064572Y-104738218D01*
X96064565Y-104738216D01*
X96052632Y-104731327D01*
X96031904Y-104719360D01*
X96031902Y-104719358D01*
X96031901Y-104719358D01*
X95981785Y-104690423D01*
X95829057Y-104649499D01*
X95670943Y-104649499D01*
X95563587Y-104678265D01*
X95518210Y-104690424D01*
X95518209Y-104690425D01*
X95468096Y-104719359D01*
X95468095Y-104719360D01*
X95427575Y-104742754D01*
X95381285Y-104769479D01*
X95381282Y-104769481D01*
X95269481Y-104881282D01*
X95269479Y-104881285D01*
X95244512Y-104924529D01*
X95226416Y-104941782D01*
X95211435Y-104961795D01*
X95201567Y-104965475D01*
X95193944Y-104972744D01*
X95169395Y-104977474D01*
X95145971Y-104986212D01*
X95135678Y-104983972D01*
X95125337Y-104985966D01*
X95102127Y-104976674D01*
X95077698Y-104971360D01*
X95064875Y-104961760D01*
X95060472Y-104959998D01*
X95049444Y-104950209D01*
X94987590Y-104888355D01*
X94987588Y-104888352D01*
X94868717Y-104769481D01*
X94868716Y-104769480D01*
X94781904Y-104719360D01*
X94781904Y-104719359D01*
X94781900Y-104719358D01*
X94731785Y-104690423D01*
X94579057Y-104649499D01*
X94420943Y-104649499D01*
X94313587Y-104678265D01*
X94268210Y-104690424D01*
X94268209Y-104690425D01*
X94218096Y-104719359D01*
X94218095Y-104719360D01*
X94177575Y-104742754D01*
X94131285Y-104769479D01*
X94131282Y-104769481D01*
X94019481Y-104881282D01*
X94019479Y-104881285D01*
X93994513Y-104924529D01*
X93972998Y-104961795D01*
X93969361Y-104968094D01*
X93969359Y-104968096D01*
X93940425Y-105018209D01*
X93940424Y-105018210D01*
X93940423Y-105018215D01*
X93899499Y-105170943D01*
X93899499Y-105170945D01*
X93899499Y-105329054D01*
X93899498Y-105329054D01*
X93152100Y-105329054D01*
X93152100Y-102329054D01*
X97399498Y-102329054D01*
X97440422Y-102481783D01*
X97466304Y-102526611D01*
X97466306Y-102526614D01*
X97519479Y-102618714D01*
X97519481Y-102618717D01*
X97648720Y-102747956D01*
X97648725Y-102747960D01*
X97882284Y-102981520D01*
X97882286Y-102981521D01*
X97882290Y-102981524D01*
X98019209Y-103060573D01*
X98019216Y-103060577D01*
X98171943Y-103101501D01*
X98171945Y-103101501D01*
X98337654Y-103101501D01*
X98337670Y-103101500D01*
X103162331Y-103101500D01*
X103162347Y-103101501D01*
X103169943Y-103101501D01*
X103328054Y-103101501D01*
X103328057Y-103101501D01*
X103480785Y-103060577D01*
X103530904Y-103031639D01*
X103617716Y-102981520D01*
X103729520Y-102869716D01*
X103729520Y-102869714D01*
X103739728Y-102859507D01*
X103739729Y-102859504D01*
X107477417Y-99121819D01*
X107538740Y-99088334D01*
X107565098Y-99085500D01*
X109540398Y-99085500D01*
X109607437Y-99105185D01*
X109650883Y-99153205D01*
X109657715Y-99166614D01*
X109778028Y-99332213D01*
X109778034Y-99332219D01*
X109922781Y-99476966D01*
X109967163Y-99509211D01*
X110009829Y-99564541D01*
X110015808Y-99634154D01*
X109983203Y-99695950D01*
X109922364Y-99730307D01*
X109909063Y-99732645D01*
X109888441Y-99735121D01*
X109747656Y-99790639D01*
X109627077Y-99882077D01*
X109535639Y-100002656D01*
X109480122Y-100143438D01*
X109474188Y-100192853D01*
X109469500Y-100231898D01*
X109469500Y-101818102D01*
X109472684Y-101844615D01*
X109480122Y-101906561D01*
X109480122Y-101906563D01*
X109480123Y-101906564D01*
X109493869Y-101941422D01*
X109535639Y-102047343D01*
X109627077Y-102167922D01*
X109747656Y-102259360D01*
X109747657Y-102259360D01*
X109747658Y-102259361D01*
X109888436Y-102314877D01*
X109976898Y-102325500D01*
X109976903Y-102325500D01*
X111563097Y-102325500D01*
X111563102Y-102325500D01*
X111651564Y-102314877D01*
X111792342Y-102259361D01*
X111912922Y-102167922D01*
X112004361Y-102047342D01*
X112059877Y-101906564D01*
X112070500Y-101818102D01*
X112070500Y-100231898D01*
X112059877Y-100143436D01*
X112004361Y-100002658D01*
X112004360Y-100002657D01*
X112004360Y-100002656D01*
X111912922Y-99882077D01*
X111792343Y-99790639D01*
X111693098Y-99751502D01*
X111651564Y-99735123D01*
X111651562Y-99735122D01*
X111651558Y-99735121D01*
X111630936Y-99732645D01*
X111566722Y-99705108D01*
X111527590Y-99647226D01*
X111525963Y-99577375D01*
X111562358Y-99517733D01*
X111572837Y-99509211D01*
X111617215Y-99476969D01*
X111617215Y-99476968D01*
X111617219Y-99476966D01*
X111761966Y-99332219D01*
X111761968Y-99332215D01*
X111761971Y-99332213D01*
X111814732Y-99259590D01*
X111882287Y-99166610D01*
X111975220Y-98984219D01*
X112038477Y-98789534D01*
X112070500Y-98587352D01*
X112070500Y-98382648D01*
X112038477Y-98180466D01*
X111975220Y-97985781D01*
X111975218Y-97985778D01*
X111975218Y-97985776D01*
X111927206Y-97891549D01*
X111882287Y-97803390D01*
X111838305Y-97742853D01*
X111761971Y-97637786D01*
X111617213Y-97493028D01*
X111451613Y-97372715D01*
X111451612Y-97372714D01*
X111451610Y-97372713D01*
X111394653Y-97343691D01*
X111269223Y-97279781D01*
X111074534Y-97216522D01*
X110899995Y-97188878D01*
X110872352Y-97184500D01*
X110667648Y-97184500D01*
X110643329Y-97188351D01*
X110465465Y-97216522D01*
X110270776Y-97279781D01*
X110088386Y-97372715D01*
X109922786Y-97493028D01*
X109778028Y-97637786D01*
X109657715Y-97803385D01*
X109650883Y-97816795D01*
X109602909Y-97867591D01*
X109540398Y-97884500D01*
X107764097Y-97884500D01*
X107697058Y-97864815D01*
X107651303Y-97812011D01*
X107641359Y-97742853D01*
X107670384Y-97679297D01*
X107676416Y-97672819D01*
X107915964Y-97433271D01*
X108858506Y-96490727D01*
X108858511Y-96490724D01*
X108868714Y-96480520D01*
X108868716Y-96480520D01*
X108980520Y-96368716D01*
X109042132Y-96262000D01*
X109059577Y-96231785D01*
X109100501Y-96079057D01*
X109100501Y-95920943D01*
X109100501Y-95913348D01*
X109100500Y-95913330D01*
X109100500Y-93050097D01*
X109120185Y-92983058D01*
X109136819Y-92962416D01*
X109325024Y-92774211D01*
X109559223Y-92540011D01*
X109620544Y-92506528D01*
X109690235Y-92511512D01*
X109746169Y-92553383D01*
X109747220Y-92554808D01*
X109778032Y-92597217D01*
X109778034Y-92597219D01*
X109922781Y-92741966D01*
X109967163Y-92774211D01*
X110009829Y-92829541D01*
X110015808Y-92899154D01*
X109983203Y-92960950D01*
X109922364Y-92995307D01*
X109909063Y-92997645D01*
X109888441Y-93000121D01*
X109747656Y-93055639D01*
X109627077Y-93147077D01*
X109535639Y-93267656D01*
X109480122Y-93408438D01*
X109476145Y-93441559D01*
X109469500Y-93496898D01*
X109469500Y-95083102D01*
X109475126Y-95129954D01*
X109480122Y-95171561D01*
X109535639Y-95312343D01*
X109627077Y-95432922D01*
X109747656Y-95524360D01*
X109747657Y-95524360D01*
X109747658Y-95524361D01*
X109888436Y-95579877D01*
X109976898Y-95590500D01*
X109976903Y-95590500D01*
X111563097Y-95590500D01*
X111563102Y-95590500D01*
X111651564Y-95579877D01*
X111792342Y-95524361D01*
X111912922Y-95432922D01*
X112004361Y-95312342D01*
X112059877Y-95171564D01*
X112070500Y-95083102D01*
X112070500Y-93496898D01*
X112059877Y-93408436D01*
X112004361Y-93267658D01*
X112004360Y-93267657D01*
X112004360Y-93267656D01*
X111912922Y-93147077D01*
X111792343Y-93055639D01*
X111693118Y-93016510D01*
X111651564Y-93000123D01*
X111651562Y-93000122D01*
X111651558Y-93000121D01*
X111630936Y-92997645D01*
X111566722Y-92970108D01*
X111527590Y-92912226D01*
X111525963Y-92842375D01*
X111562358Y-92782733D01*
X111572837Y-92774211D01*
X111617215Y-92741969D01*
X111617215Y-92741968D01*
X111617219Y-92741966D01*
X111761966Y-92597219D01*
X111761968Y-92597215D01*
X111761971Y-92597213D01*
X111846938Y-92480264D01*
X111882287Y-92431610D01*
X111975220Y-92249219D01*
X112038477Y-92054534D01*
X112070500Y-91852352D01*
X112070500Y-91647648D01*
X112038477Y-91445466D01*
X111975220Y-91250781D01*
X111975218Y-91250778D01*
X111975218Y-91250776D01*
X111941503Y-91184607D01*
X111882287Y-91068390D01*
X111851643Y-91026212D01*
X111761971Y-90902786D01*
X111617213Y-90758028D01*
X111451613Y-90637715D01*
X111451612Y-90637714D01*
X111451610Y-90637713D01*
X111394653Y-90608691D01*
X111269223Y-90544781D01*
X111074534Y-90481522D01*
X110899995Y-90453878D01*
X110872352Y-90449500D01*
X110667648Y-90449500D01*
X110643329Y-90453351D01*
X110465465Y-90481522D01*
X110270776Y-90544781D01*
X110088386Y-90637715D01*
X109922786Y-90758028D01*
X109778028Y-90902786D01*
X109657714Y-91068386D01*
X109650882Y-91081796D01*
X109602906Y-91132591D01*
X109540398Y-91149499D01*
X109420943Y-91149499D01*
X109344579Y-91169961D01*
X109268214Y-91190423D01*
X109268209Y-91190426D01*
X109131290Y-91269475D01*
X109131282Y-91269481D01*
X108312181Y-92088583D01*
X108250858Y-92122068D01*
X108181166Y-92117084D01*
X108125233Y-92075212D01*
X108100816Y-92009748D01*
X108100500Y-92000902D01*
X108100500Y-86800097D01*
X108120185Y-86733058D01*
X108136819Y-86712416D01*
X109212416Y-85636819D01*
X109239343Y-85622115D01*
X109265162Y-85605523D01*
X109271362Y-85604631D01*
X109273739Y-85603334D01*
X109300097Y-85600500D01*
X109507898Y-85600500D01*
X109574937Y-85620185D01*
X109618383Y-85668205D01*
X109625215Y-85681614D01*
X109745528Y-85847213D01*
X109745534Y-85847219D01*
X109890281Y-85991966D01*
X109928151Y-86019480D01*
X109934663Y-86024211D01*
X109977329Y-86079541D01*
X109983308Y-86149154D01*
X109950703Y-86210950D01*
X109889864Y-86245307D01*
X109876563Y-86247645D01*
X109855941Y-86250121D01*
X109715156Y-86305639D01*
X109594577Y-86397077D01*
X109503139Y-86517656D01*
X109447622Y-86658438D01*
X109441688Y-86707853D01*
X109437000Y-86746898D01*
X109437000Y-88333102D01*
X109442626Y-88379954D01*
X109447622Y-88421561D01*
X109503139Y-88562343D01*
X109594577Y-88682922D01*
X109715156Y-88774360D01*
X109715157Y-88774360D01*
X109715158Y-88774361D01*
X109855936Y-88829877D01*
X109944398Y-88840500D01*
X109944403Y-88840500D01*
X111530597Y-88840500D01*
X111530602Y-88840500D01*
X111619064Y-88829877D01*
X111759842Y-88774361D01*
X111880422Y-88682922D01*
X111971861Y-88562342D01*
X112027377Y-88421564D01*
X112038000Y-88333102D01*
X112038000Y-86746898D01*
X112027377Y-86658436D01*
X111971861Y-86517658D01*
X111971860Y-86517657D01*
X111971860Y-86517656D01*
X111880422Y-86397077D01*
X111759843Y-86305639D01*
X111668200Y-86269500D01*
X111619064Y-86250123D01*
X111619062Y-86250122D01*
X111619058Y-86250121D01*
X111598436Y-86247645D01*
X111534222Y-86220108D01*
X111495090Y-86162226D01*
X111493463Y-86092375D01*
X111529858Y-86032733D01*
X111540337Y-86024211D01*
X111584715Y-85991969D01*
X111584715Y-85991968D01*
X111584719Y-85991966D01*
X111729466Y-85847219D01*
X111729468Y-85847215D01*
X111729471Y-85847213D01*
X111794611Y-85757554D01*
X111849787Y-85681610D01*
X111942720Y-85499219D01*
X112005977Y-85304534D01*
X112038000Y-85102352D01*
X112038000Y-84897648D01*
X112005977Y-84695465D01*
X111948796Y-84519481D01*
X111942720Y-84500781D01*
X111942718Y-84500778D01*
X111942718Y-84500776D01*
X111909003Y-84434607D01*
X111849787Y-84318390D01*
X111819717Y-84277002D01*
X111729471Y-84152786D01*
X111584713Y-84008028D01*
X111419113Y-83887715D01*
X111419112Y-83887714D01*
X111419110Y-83887713D01*
X111362153Y-83858691D01*
X111236723Y-83794781D01*
X111042034Y-83731522D01*
X110867495Y-83703878D01*
X110839852Y-83699500D01*
X110635148Y-83699500D01*
X110615929Y-83702544D01*
X110432965Y-83731522D01*
X110238276Y-83794781D01*
X110055886Y-83887715D01*
X109890286Y-84008028D01*
X109745528Y-84152786D01*
X109625215Y-84318385D01*
X109618383Y-84331795D01*
X109570409Y-84382591D01*
X109507898Y-84399500D01*
X108920940Y-84399500D01*
X108880019Y-84410464D01*
X108880019Y-84410465D01*
X108842751Y-84420451D01*
X108768214Y-84440423D01*
X108768209Y-84440426D01*
X108631290Y-84519475D01*
X108631282Y-84519481D01*
X107312181Y-85838583D01*
X107250858Y-85872068D01*
X107181166Y-85867084D01*
X107125233Y-85825212D01*
X107100816Y-85759748D01*
X107100500Y-85750902D01*
X107100500Y-80550097D01*
X107120185Y-80483058D01*
X107136819Y-80462416D01*
X108712416Y-78886819D01*
X108773739Y-78853334D01*
X108800097Y-78850500D01*
X109540398Y-78850500D01*
X109607437Y-78870185D01*
X109650883Y-78918205D01*
X109657715Y-78931614D01*
X109778028Y-79097213D01*
X109778034Y-79097219D01*
X109922781Y-79241966D01*
X109967163Y-79274211D01*
X110009829Y-79329541D01*
X110015808Y-79399154D01*
X109983203Y-79460950D01*
X109922364Y-79495307D01*
X109909063Y-79497645D01*
X109888441Y-79500121D01*
X109747656Y-79555639D01*
X109627077Y-79647077D01*
X109535639Y-79767656D01*
X109480122Y-79908438D01*
X109474286Y-79957040D01*
X109469500Y-79996898D01*
X109469500Y-81583102D01*
X109475126Y-81629954D01*
X109480122Y-81671561D01*
X109535639Y-81812343D01*
X109627077Y-81932922D01*
X109747656Y-82024360D01*
X109747657Y-82024360D01*
X109747658Y-82024361D01*
X109888436Y-82079877D01*
X109976898Y-82090500D01*
X109976903Y-82090500D01*
X111563097Y-82090500D01*
X111563102Y-82090500D01*
X111651564Y-82079877D01*
X111792342Y-82024361D01*
X111912922Y-81932922D01*
X112004361Y-81812342D01*
X112059877Y-81671564D01*
X112070500Y-81583102D01*
X112070500Y-79996898D01*
X112059877Y-79908436D01*
X112004361Y-79767658D01*
X112004360Y-79767657D01*
X112004360Y-79767656D01*
X111912922Y-79647077D01*
X111792343Y-79555639D01*
X111715915Y-79525500D01*
X111651564Y-79500123D01*
X111651562Y-79500122D01*
X111651558Y-79500121D01*
X111630936Y-79497645D01*
X111566722Y-79470108D01*
X111527590Y-79412226D01*
X111525963Y-79342375D01*
X111562358Y-79282733D01*
X111572837Y-79274211D01*
X111617215Y-79241969D01*
X111617215Y-79241968D01*
X111617219Y-79241966D01*
X111761966Y-79097219D01*
X111761968Y-79097215D01*
X111761971Y-79097213D01*
X111845829Y-78981790D01*
X111882287Y-78931610D01*
X111975220Y-78749219D01*
X112038477Y-78554534D01*
X112070500Y-78352352D01*
X112070500Y-78147648D01*
X112038477Y-77945466D01*
X111975220Y-77750781D01*
X111975218Y-77750778D01*
X111975218Y-77750776D01*
X111941503Y-77684607D01*
X111882287Y-77568390D01*
X111874556Y-77557749D01*
X111761971Y-77402786D01*
X111617213Y-77258028D01*
X111451613Y-77137715D01*
X111451612Y-77137714D01*
X111451610Y-77137713D01*
X111394653Y-77108691D01*
X111269223Y-77044781D01*
X111074534Y-76981522D01*
X110899995Y-76953878D01*
X110872352Y-76949500D01*
X110667648Y-76949500D01*
X110643329Y-76953351D01*
X110465465Y-76981522D01*
X110270776Y-77044781D01*
X110088386Y-77137715D01*
X109922786Y-77258028D01*
X109778028Y-77402786D01*
X109657715Y-77568385D01*
X109650883Y-77581795D01*
X109602909Y-77632591D01*
X109540398Y-77649500D01*
X108579057Y-77649500D01*
X108420943Y-77649500D01*
X108268215Y-77690423D01*
X108268214Y-77690423D01*
X108268212Y-77690424D01*
X108268209Y-77690425D01*
X108218096Y-77719359D01*
X108218095Y-77719360D01*
X108174689Y-77744420D01*
X108131285Y-77769479D01*
X108131282Y-77769481D01*
X106019481Y-79881282D01*
X106019480Y-79881284D01*
X105975742Y-79957041D01*
X105940423Y-80018215D01*
X105899499Y-80170943D01*
X105899499Y-80170945D01*
X105899499Y-80339046D01*
X105899500Y-80339059D01*
X105899500Y-95199902D01*
X105879815Y-95266941D01*
X105863181Y-95287583D01*
X101269481Y-99881282D01*
X101269479Y-99881285D01*
X101259376Y-99898784D01*
X101229970Y-99949719D01*
X101219361Y-99968094D01*
X101219359Y-99968096D01*
X101190425Y-100018209D01*
X101190424Y-100018210D01*
X101186961Y-100031136D01*
X101149499Y-100170943D01*
X101149499Y-100170945D01*
X101149499Y-100275500D01*
X101129814Y-100342539D01*
X101077010Y-100388294D01*
X101025499Y-100399500D01*
X100420943Y-100399500D01*
X100268216Y-100440423D01*
X100268209Y-100440426D01*
X100131290Y-100519475D01*
X100131282Y-100519481D01*
X100019481Y-100631282D01*
X100019475Y-100631290D01*
X99940426Y-100768209D01*
X99940423Y-100768216D01*
X99899500Y-100920943D01*
X99899500Y-101025500D01*
X99879815Y-101092539D01*
X99827011Y-101138294D01*
X99775500Y-101149500D01*
X99170943Y-101149500D01*
X99018216Y-101190423D01*
X99018209Y-101190426D01*
X98881290Y-101269475D01*
X98881282Y-101269481D01*
X98769481Y-101381282D01*
X98769475Y-101381290D01*
X98690426Y-101518209D01*
X98690423Y-101518216D01*
X98649500Y-101670943D01*
X98649500Y-101750902D01*
X98629815Y-101817941D01*
X98577011Y-101863696D01*
X98507853Y-101873640D01*
X98444297Y-101844615D01*
X98437819Y-101838583D01*
X98368717Y-101769481D01*
X98368709Y-101769475D01*
X98261893Y-101707805D01*
X98261893Y-101707806D01*
X98231783Y-101690422D01*
X98175881Y-101675443D01*
X98079057Y-101649499D01*
X97920943Y-101649499D01*
X97841010Y-101670917D01*
X97768216Y-101690422D01*
X97738107Y-101707806D01*
X97738106Y-101707805D01*
X97631287Y-101769477D01*
X97631282Y-101769481D01*
X97519481Y-101881282D01*
X97519480Y-101881284D01*
X97484759Y-101941423D01*
X97440423Y-102018215D01*
X97399499Y-102170943D01*
X97399499Y-102170945D01*
X97399499Y-102329054D01*
X97399498Y-102329054D01*
X93152100Y-102329054D01*
X93152100Y-92197064D01*
X93152100Y-92197062D01*
X93124698Y-92094795D01*
X93121111Y-92088583D01*
X93101453Y-92054534D01*
X93101453Y-92054533D01*
X93071763Y-92003108D01*
X93071759Y-92003103D01*
X92188419Y-91119763D01*
X92154934Y-91058440D01*
X92152100Y-91032082D01*
X92152100Y-79300098D01*
X92171785Y-79233059D01*
X92188419Y-79212417D01*
X92204295Y-79196541D01*
X92230520Y-79170316D01*
X92309577Y-79033384D01*
X92350500Y-78880657D01*
X92350500Y-78722543D01*
X92309577Y-78569816D01*
X92300754Y-78554534D01*
X92230524Y-78432890D01*
X92230518Y-78432882D01*
X92118717Y-78321081D01*
X92118709Y-78321075D01*
X91981790Y-78242026D01*
X91981786Y-78242024D01*
X91981784Y-78242023D01*
X91981782Y-78242022D01*
X91981781Y-78242022D01*
X91927203Y-78227397D01*
X91867544Y-78191031D01*
X91839525Y-78139719D01*
X91805874Y-78014131D01*
X91729177Y-77881286D01*
X91726821Y-77877205D01*
X91726815Y-77877197D01*
X91615014Y-77765396D01*
X91615006Y-77765390D01*
X91478087Y-77686341D01*
X91478083Y-77686339D01*
X91478081Y-77686338D01*
X91325354Y-77645415D01*
X91167240Y-77645415D01*
X91014513Y-77686338D01*
X91014506Y-77686341D01*
X90877587Y-77765390D01*
X90877579Y-77765396D01*
X90765778Y-77877197D01*
X90765772Y-77877205D01*
X90686723Y-78014124D01*
X90686720Y-78014131D01*
X90645797Y-78166858D01*
X90645797Y-78276070D01*
X90629184Y-78338070D01*
X90625303Y-78344791D01*
X90625303Y-78344792D01*
X90625302Y-78344794D01*
X90625302Y-78344795D01*
X90615525Y-78381284D01*
X90597900Y-78447062D01*
X90597900Y-78847178D01*
X90578215Y-78914217D01*
X90525411Y-78959972D01*
X90456253Y-78969916D01*
X90441807Y-78966953D01*
X90391598Y-78953499D01*
X90329057Y-78936742D01*
X90170943Y-78936742D01*
X90018216Y-78977665D01*
X90018209Y-78977668D01*
X89881290Y-79056717D01*
X89881282Y-79056723D01*
X89769481Y-79168524D01*
X89769475Y-79168532D01*
X89690426Y-79305451D01*
X89690423Y-79305458D01*
X89649500Y-79458185D01*
X89649500Y-79525500D01*
X89629815Y-79592539D01*
X89577011Y-79638294D01*
X89525500Y-79649500D01*
X89420943Y-79649500D01*
X89268216Y-79690423D01*
X89268209Y-79690426D01*
X89131290Y-79769475D01*
X89131282Y-79769481D01*
X89089183Y-79811581D01*
X89027860Y-79845066D01*
X89001502Y-79847900D01*
X86577062Y-79847900D01*
X86474795Y-79875302D01*
X86474792Y-79875303D01*
X86383108Y-79928236D01*
X86383103Y-79928240D01*
X83076913Y-83234430D01*
X83015590Y-83267915D01*
X82945898Y-83262931D01*
X82889965Y-83221059D01*
X82865548Y-83155595D01*
X82880400Y-83087322D01*
X82888914Y-83073864D01*
X82900595Y-83057784D01*
X82983996Y-82942994D01*
X83066211Y-82781639D01*
X83122171Y-82609409D01*
X83140496Y-82493709D01*
X83150500Y-82430551D01*
X83150500Y-82249448D01*
X83125324Y-82090500D01*
X83122171Y-82070591D01*
X83090950Y-81974500D01*
X83066212Y-81898363D01*
X83066211Y-81898360D01*
X83022382Y-81812342D01*
X82983996Y-81737006D01*
X82922101Y-81651814D01*
X82877558Y-81590505D01*
X82877554Y-81590500D01*
X82749499Y-81462445D01*
X82749494Y-81462441D01*
X82602997Y-81356006D01*
X82602996Y-81356005D01*
X82602994Y-81356004D01*
X82551300Y-81329664D01*
X82441639Y-81273788D01*
X82441636Y-81273787D01*
X82269410Y-81217829D01*
X82090551Y-81189500D01*
X82090546Y-81189500D01*
X81909454Y-81189500D01*
X81909449Y-81189500D01*
X81730589Y-81217829D01*
X81558363Y-81273787D01*
X81558360Y-81273788D01*
X81397002Y-81356006D01*
X81250505Y-81462441D01*
X81250500Y-81462445D01*
X81122445Y-81590500D01*
X81122441Y-81590505D01*
X81016006Y-81737002D01*
X80933788Y-81898360D01*
X80933787Y-81898363D01*
X80877829Y-82070589D01*
X80849500Y-82249448D01*
X72875500Y-82249448D01*
X72875500Y-78670943D01*
X85399500Y-78670943D01*
X85399500Y-78829057D01*
X85439320Y-78977665D01*
X85440423Y-78981783D01*
X85440426Y-78981790D01*
X85519475Y-79118709D01*
X85519479Y-79118714D01*
X85519480Y-79118716D01*
X85631284Y-79230520D01*
X85631286Y-79230521D01*
X85631290Y-79230524D01*
X85721720Y-79282733D01*
X85768216Y-79309577D01*
X85920943Y-79350500D01*
X85920945Y-79350500D01*
X86079055Y-79350500D01*
X86079057Y-79350500D01*
X86231784Y-79309577D01*
X86368716Y-79230520D01*
X86480520Y-79118716D01*
X86559577Y-78981784D01*
X86600500Y-78829057D01*
X86600500Y-78818995D01*
X87799499Y-78818995D01*
X87826418Y-78954322D01*
X87826421Y-78954332D01*
X87879221Y-79081804D01*
X87879228Y-79081817D01*
X87955885Y-79196541D01*
X87955888Y-79196545D01*
X88053454Y-79294111D01*
X88053458Y-79294114D01*
X88168182Y-79370771D01*
X88168195Y-79370778D01*
X88236702Y-79399154D01*
X88295672Y-79423580D01*
X88295676Y-79423580D01*
X88295677Y-79423581D01*
X88431004Y-79450500D01*
X88431007Y-79450500D01*
X88568995Y-79450500D01*
X88660041Y-79432389D01*
X88704328Y-79423580D01*
X88831811Y-79370775D01*
X88946542Y-79294114D01*
X89044114Y-79196542D01*
X89120775Y-79081811D01*
X89173580Y-78954328D01*
X89182389Y-78910041D01*
X89200500Y-78818995D01*
X89200500Y-78681004D01*
X89173581Y-78545677D01*
X89173580Y-78545676D01*
X89173580Y-78545672D01*
X89173578Y-78545667D01*
X89120778Y-78418195D01*
X89120771Y-78418182D01*
X89044114Y-78303458D01*
X89044111Y-78303454D01*
X88946545Y-78205888D01*
X88946541Y-78205885D01*
X88831817Y-78129228D01*
X88831804Y-78129221D01*
X88704332Y-78076421D01*
X88704322Y-78076418D01*
X88568995Y-78049500D01*
X88568993Y-78049500D01*
X88431007Y-78049500D01*
X88431005Y-78049500D01*
X88295677Y-78076418D01*
X88295667Y-78076421D01*
X88168195Y-78129221D01*
X88168182Y-78129228D01*
X88053458Y-78205885D01*
X88053454Y-78205888D01*
X87955888Y-78303454D01*
X87955885Y-78303458D01*
X87879228Y-78418182D01*
X87879221Y-78418195D01*
X87826421Y-78545667D01*
X87826418Y-78545677D01*
X87799500Y-78681004D01*
X87799500Y-78681007D01*
X87799500Y-78818993D01*
X87799500Y-78818995D01*
X87799499Y-78818995D01*
X86600500Y-78818995D01*
X86600500Y-78670943D01*
X86559577Y-78518216D01*
X86518497Y-78447062D01*
X86480524Y-78381290D01*
X86480518Y-78381282D01*
X86368717Y-78269481D01*
X86368709Y-78269475D01*
X86231790Y-78190426D01*
X86231786Y-78190424D01*
X86231784Y-78190423D01*
X86079057Y-78149500D01*
X85920943Y-78149500D01*
X85768216Y-78190423D01*
X85768209Y-78190426D01*
X85631290Y-78269475D01*
X85631282Y-78269481D01*
X85519481Y-78381282D01*
X85519475Y-78381290D01*
X85440426Y-78518209D01*
X85440423Y-78518216D01*
X85399500Y-78670943D01*
X72875500Y-78670943D01*
X72875500Y-76624500D01*
X72895185Y-76557461D01*
X72947989Y-76511706D01*
X72999500Y-76500500D01*
X114250500Y-76500500D01*
X114317539Y-76520185D01*
G37*
%TD.AperFunction*%
%TD*%
M02*
