%TF.GenerationSoftware,KiCad,Pcbnew,9.0.3-9.0.3-0~ubuntu24.04.1*%
%TF.CreationDate,2026-04-21T10:17:34+03:00*%
%TF.ProjectId,sounddecoder-esp32-s3-wroom-2,736f756e-6464-4656-936f-6465722d6573,rev?*%
%TF.SameCoordinates,Original*%
%TF.FileFunction,Legend,Bot*%
%TF.FilePolarity,Positive*%
%FSLAX46Y46*%
G04 Gerber Fmt 4.6, Leading zero omitted, Abs format (unit mm)*
G04 Created by KiCad (PCBNEW 9.0.3-9.0.3-0~ubuntu24.04.1) date 2026-04-21 10:17:34*
%MOMM*%
%LPD*%
G01*
G04 APERTURE LIST*
%ADD10C,0.100000*%
G04 APERTURE END LIST*
D10*
X113696115Y-107471466D02*
X112934211Y-107471466D01*
X113315163Y-107852419D02*
X113315163Y-107090514D01*
X113696115Y-78221466D02*
X112934211Y-78221466D01*
X113696115Y-114471466D02*
X112934211Y-114471466D01*
X113315163Y-114852419D02*
X113315163Y-114090514D01*
X113696115Y-98221466D02*
X112934211Y-98221466D01*
X113696115Y-118721466D02*
X112934211Y-118721466D01*
X113696115Y-94221466D02*
X112934211Y-94221466D01*
X113315163Y-94602419D02*
X113315163Y-93840514D01*
X113696115Y-80721466D02*
X112934211Y-80721466D01*
X113315163Y-81102419D02*
X113315163Y-80340514D01*
X113696115Y-111971466D02*
X112934211Y-111971466D01*
X109263734Y-106586704D02*
X108787544Y-106586704D01*
X109358972Y-106872419D02*
X109025639Y-105872419D01*
X109025639Y-105872419D02*
X108692306Y-106872419D01*
X108358972Y-105872419D02*
X108358972Y-106681942D01*
X108358972Y-106681942D02*
X108311353Y-106777180D01*
X108311353Y-106777180D02*
X108263734Y-106824800D01*
X108263734Y-106824800D02*
X108168496Y-106872419D01*
X108168496Y-106872419D02*
X107978020Y-106872419D01*
X107978020Y-106872419D02*
X107882782Y-106824800D01*
X107882782Y-106824800D02*
X107835163Y-106777180D01*
X107835163Y-106777180D02*
X107787544Y-106681942D01*
X107787544Y-106681942D02*
X107787544Y-105872419D01*
X107406591Y-105872419D02*
X106739925Y-106872419D01*
X106739925Y-105872419D02*
X107406591Y-106872419D01*
X106406591Y-105967657D02*
X106358972Y-105920038D01*
X106358972Y-105920038D02*
X106263734Y-105872419D01*
X106263734Y-105872419D02*
X106025639Y-105872419D01*
X106025639Y-105872419D02*
X105930401Y-105920038D01*
X105930401Y-105920038D02*
X105882782Y-105967657D01*
X105882782Y-105967657D02*
X105835163Y-106062895D01*
X105835163Y-106062895D02*
X105835163Y-106158133D01*
X105835163Y-106158133D02*
X105882782Y-106300990D01*
X105882782Y-106300990D02*
X106454210Y-106872419D01*
X106454210Y-106872419D02*
X105835163Y-106872419D01*
X108882782Y-86098609D02*
X109216115Y-86098609D01*
X109216115Y-86622419D02*
X109216115Y-85622419D01*
X109216115Y-85622419D02*
X108739925Y-85622419D01*
X108454210Y-85955752D02*
X108263734Y-86622419D01*
X108263734Y-86622419D02*
X108073258Y-86146228D01*
X108073258Y-86146228D02*
X107882782Y-86622419D01*
X107882782Y-86622419D02*
X107692306Y-85955752D01*
X106882782Y-86622419D02*
X106882782Y-85622419D01*
X106882782Y-86574800D02*
X106978020Y-86622419D01*
X106978020Y-86622419D02*
X107168496Y-86622419D01*
X107168496Y-86622419D02*
X107263734Y-86574800D01*
X107263734Y-86574800D02*
X107311353Y-86527180D01*
X107311353Y-86527180D02*
X107358972Y-86431942D01*
X107358972Y-86431942D02*
X107358972Y-86146228D01*
X107358972Y-86146228D02*
X107311353Y-86050990D01*
X107311353Y-86050990D02*
X107263734Y-86003371D01*
X107263734Y-86003371D02*
X107168496Y-85955752D01*
X107168496Y-85955752D02*
X106978020Y-85955752D01*
X106978020Y-85955752D02*
X106882782Y-86003371D01*
X105930401Y-86622419D02*
X106406591Y-86622419D01*
X106406591Y-86622419D02*
X106406591Y-85622419D01*
X105597067Y-86098609D02*
X105263734Y-86098609D01*
X105120877Y-86622419D02*
X105597067Y-86622419D01*
X105597067Y-86622419D02*
X105597067Y-85622419D01*
X105597067Y-85622419D02*
X105120877Y-85622419D01*
X104692305Y-86622419D02*
X104692305Y-85622419D01*
X104692305Y-85622419D02*
X104454210Y-85622419D01*
X104454210Y-85622419D02*
X104311353Y-85670038D01*
X104311353Y-85670038D02*
X104216115Y-85765276D01*
X104216115Y-85765276D02*
X104168496Y-85860514D01*
X104168496Y-85860514D02*
X104120877Y-86050990D01*
X104120877Y-86050990D02*
X104120877Y-86193847D01*
X104120877Y-86193847D02*
X104168496Y-86384323D01*
X104168496Y-86384323D02*
X104216115Y-86479561D01*
X104216115Y-86479561D02*
X104311353Y-86574800D01*
X104311353Y-86574800D02*
X104454210Y-86622419D01*
X104454210Y-86622419D02*
X104692305Y-86622419D01*
X113696115Y-91721466D02*
X112934211Y-91721466D01*
X109263734Y-79824800D02*
X109120877Y-79872419D01*
X109120877Y-79872419D02*
X108882782Y-79872419D01*
X108882782Y-79872419D02*
X108787544Y-79824800D01*
X108787544Y-79824800D02*
X108739925Y-79777180D01*
X108739925Y-79777180D02*
X108692306Y-79681942D01*
X108692306Y-79681942D02*
X108692306Y-79586704D01*
X108692306Y-79586704D02*
X108739925Y-79491466D01*
X108739925Y-79491466D02*
X108787544Y-79443847D01*
X108787544Y-79443847D02*
X108882782Y-79396228D01*
X108882782Y-79396228D02*
X109073258Y-79348609D01*
X109073258Y-79348609D02*
X109168496Y-79300990D01*
X109168496Y-79300990D02*
X109216115Y-79253371D01*
X109216115Y-79253371D02*
X109263734Y-79158133D01*
X109263734Y-79158133D02*
X109263734Y-79062895D01*
X109263734Y-79062895D02*
X109216115Y-78967657D01*
X109216115Y-78967657D02*
X109168496Y-78920038D01*
X109168496Y-78920038D02*
X109073258Y-78872419D01*
X109073258Y-78872419D02*
X108835163Y-78872419D01*
X108835163Y-78872419D02*
X108692306Y-78920038D01*
X108263734Y-79872419D02*
X108263734Y-79205752D01*
X108263734Y-79300990D02*
X108216115Y-79253371D01*
X108216115Y-79253371D02*
X108120877Y-79205752D01*
X108120877Y-79205752D02*
X107978020Y-79205752D01*
X107978020Y-79205752D02*
X107882782Y-79253371D01*
X107882782Y-79253371D02*
X107835163Y-79348609D01*
X107835163Y-79348609D02*
X107835163Y-79872419D01*
X107835163Y-79348609D02*
X107787544Y-79253371D01*
X107787544Y-79253371D02*
X107692306Y-79205752D01*
X107692306Y-79205752D02*
X107549449Y-79205752D01*
X107549449Y-79205752D02*
X107454210Y-79253371D01*
X107454210Y-79253371D02*
X107406591Y-79348609D01*
X107406591Y-79348609D02*
X107406591Y-79872419D01*
X106787544Y-79872419D02*
X106882782Y-79824800D01*
X106882782Y-79824800D02*
X106930401Y-79777180D01*
X106930401Y-79777180D02*
X106978020Y-79681942D01*
X106978020Y-79681942D02*
X106978020Y-79396228D01*
X106978020Y-79396228D02*
X106930401Y-79300990D01*
X106930401Y-79300990D02*
X106882782Y-79253371D01*
X106882782Y-79253371D02*
X106787544Y-79205752D01*
X106787544Y-79205752D02*
X106644687Y-79205752D01*
X106644687Y-79205752D02*
X106549449Y-79253371D01*
X106549449Y-79253371D02*
X106501830Y-79300990D01*
X106501830Y-79300990D02*
X106454211Y-79396228D01*
X106454211Y-79396228D02*
X106454211Y-79681942D01*
X106454211Y-79681942D02*
X106501830Y-79777180D01*
X106501830Y-79777180D02*
X106549449Y-79824800D01*
X106549449Y-79824800D02*
X106644687Y-79872419D01*
X106644687Y-79872419D02*
X106787544Y-79872419D01*
X106025639Y-79872419D02*
X106025639Y-78872419D01*
X105930401Y-79491466D02*
X105644687Y-79872419D01*
X105644687Y-79205752D02*
X106025639Y-79586704D01*
X104835163Y-79824800D02*
X104930401Y-79872419D01*
X104930401Y-79872419D02*
X105120877Y-79872419D01*
X105120877Y-79872419D02*
X105216115Y-79824800D01*
X105216115Y-79824800D02*
X105263734Y-79729561D01*
X105263734Y-79729561D02*
X105263734Y-79348609D01*
X105263734Y-79348609D02*
X105216115Y-79253371D01*
X105216115Y-79253371D02*
X105120877Y-79205752D01*
X105120877Y-79205752D02*
X104930401Y-79205752D01*
X104930401Y-79205752D02*
X104835163Y-79253371D01*
X104835163Y-79253371D02*
X104787544Y-79348609D01*
X104787544Y-79348609D02*
X104787544Y-79443847D01*
X104787544Y-79443847D02*
X105263734Y-79539085D01*
X108882782Y-93098609D02*
X108739925Y-93146228D01*
X108739925Y-93146228D02*
X108692306Y-93193847D01*
X108692306Y-93193847D02*
X108644687Y-93289085D01*
X108644687Y-93289085D02*
X108644687Y-93431942D01*
X108644687Y-93431942D02*
X108692306Y-93527180D01*
X108692306Y-93527180D02*
X108739925Y-93574800D01*
X108739925Y-93574800D02*
X108835163Y-93622419D01*
X108835163Y-93622419D02*
X109216115Y-93622419D01*
X109216115Y-93622419D02*
X109216115Y-92622419D01*
X109216115Y-92622419D02*
X108882782Y-92622419D01*
X108882782Y-92622419D02*
X108787544Y-92670038D01*
X108787544Y-92670038D02*
X108739925Y-92717657D01*
X108739925Y-92717657D02*
X108692306Y-92812895D01*
X108692306Y-92812895D02*
X108692306Y-92908133D01*
X108692306Y-92908133D02*
X108739925Y-93003371D01*
X108739925Y-93003371D02*
X108787544Y-93050990D01*
X108787544Y-93050990D02*
X108882782Y-93098609D01*
X108882782Y-93098609D02*
X109216115Y-93098609D01*
X107787544Y-93622419D02*
X107787544Y-93098609D01*
X107787544Y-93098609D02*
X107835163Y-93003371D01*
X107835163Y-93003371D02*
X107930401Y-92955752D01*
X107930401Y-92955752D02*
X108120877Y-92955752D01*
X108120877Y-92955752D02*
X108216115Y-93003371D01*
X107787544Y-93574800D02*
X107882782Y-93622419D01*
X107882782Y-93622419D02*
X108120877Y-93622419D01*
X108120877Y-93622419D02*
X108216115Y-93574800D01*
X108216115Y-93574800D02*
X108263734Y-93479561D01*
X108263734Y-93479561D02*
X108263734Y-93384323D01*
X108263734Y-93384323D02*
X108216115Y-93289085D01*
X108216115Y-93289085D02*
X108120877Y-93241466D01*
X108120877Y-93241466D02*
X107882782Y-93241466D01*
X107882782Y-93241466D02*
X107787544Y-93193847D01*
X106882782Y-93574800D02*
X106978020Y-93622419D01*
X106978020Y-93622419D02*
X107168496Y-93622419D01*
X107168496Y-93622419D02*
X107263734Y-93574800D01*
X107263734Y-93574800D02*
X107311353Y-93527180D01*
X107311353Y-93527180D02*
X107358972Y-93431942D01*
X107358972Y-93431942D02*
X107358972Y-93146228D01*
X107358972Y-93146228D02*
X107311353Y-93050990D01*
X107311353Y-93050990D02*
X107263734Y-93003371D01*
X107263734Y-93003371D02*
X107168496Y-92955752D01*
X107168496Y-92955752D02*
X106978020Y-92955752D01*
X106978020Y-92955752D02*
X106882782Y-93003371D01*
X106454210Y-93622419D02*
X106454210Y-92622419D01*
X106358972Y-93241466D02*
X106073258Y-93622419D01*
X106073258Y-92955752D02*
X106454210Y-93336704D01*
X105168496Y-93622419D02*
X105644686Y-93622419D01*
X105644686Y-93622419D02*
X105644686Y-92622419D01*
X104835162Y-93098609D02*
X104501829Y-93098609D01*
X104358972Y-93622419D02*
X104835162Y-93622419D01*
X104835162Y-93622419D02*
X104835162Y-92622419D01*
X104835162Y-92622419D02*
X104358972Y-92622419D01*
X103930400Y-93622419D02*
X103930400Y-92622419D01*
X103930400Y-92622419D02*
X103692305Y-92622419D01*
X103692305Y-92622419D02*
X103549448Y-92670038D01*
X103549448Y-92670038D02*
X103454210Y-92765276D01*
X103454210Y-92765276D02*
X103406591Y-92860514D01*
X103406591Y-92860514D02*
X103358972Y-93050990D01*
X103358972Y-93050990D02*
X103358972Y-93193847D01*
X103358972Y-93193847D02*
X103406591Y-93384323D01*
X103406591Y-93384323D02*
X103454210Y-93479561D01*
X103454210Y-93479561D02*
X103549448Y-93574800D01*
X103549448Y-93574800D02*
X103692305Y-93622419D01*
X103692305Y-93622419D02*
X103930400Y-93622419D01*
X109013734Y-120336704D02*
X108537544Y-120336704D01*
X109108972Y-120622419D02*
X108775639Y-119622419D01*
X108775639Y-119622419D02*
X108442306Y-120622419D01*
X108108972Y-119622419D02*
X108108972Y-120431942D01*
X108108972Y-120431942D02*
X108061353Y-120527180D01*
X108061353Y-120527180D02*
X108013734Y-120574800D01*
X108013734Y-120574800D02*
X107918496Y-120622419D01*
X107918496Y-120622419D02*
X107728020Y-120622419D01*
X107728020Y-120622419D02*
X107632782Y-120574800D01*
X107632782Y-120574800D02*
X107585163Y-120527180D01*
X107585163Y-120527180D02*
X107537544Y-120431942D01*
X107537544Y-120431942D02*
X107537544Y-119622419D01*
X107156591Y-119622419D02*
X106489925Y-120622419D01*
X106489925Y-119622419D02*
X107156591Y-120622419D01*
X105680401Y-119955752D02*
X105680401Y-120622419D01*
X105918496Y-119574800D02*
X106156591Y-120289085D01*
X106156591Y-120289085D02*
X105537544Y-120289085D01*
X113696115Y-87471466D02*
X112934211Y-87471466D01*
X113315163Y-87852419D02*
X113315163Y-87090514D01*
X113696115Y-121221466D02*
X112934211Y-121221466D01*
X113315163Y-121602419D02*
X113315163Y-120840514D01*
X109013734Y-99836704D02*
X108537544Y-99836704D01*
X109108972Y-100122419D02*
X108775639Y-99122419D01*
X108775639Y-99122419D02*
X108442306Y-100122419D01*
X108108972Y-99122419D02*
X108108972Y-99931942D01*
X108108972Y-99931942D02*
X108061353Y-100027180D01*
X108061353Y-100027180D02*
X108013734Y-100074800D01*
X108013734Y-100074800D02*
X107918496Y-100122419D01*
X107918496Y-100122419D02*
X107728020Y-100122419D01*
X107728020Y-100122419D02*
X107632782Y-100074800D01*
X107632782Y-100074800D02*
X107585163Y-100027180D01*
X107585163Y-100027180D02*
X107537544Y-99931942D01*
X107537544Y-99931942D02*
X107537544Y-99122419D01*
X107156591Y-99122419D02*
X106489925Y-100122419D01*
X106489925Y-99122419D02*
X107156591Y-100122419D01*
X105585163Y-100122419D02*
X106156591Y-100122419D01*
X105870877Y-100122419D02*
X105870877Y-99122419D01*
X105870877Y-99122419D02*
X105966115Y-99265276D01*
X105966115Y-99265276D02*
X106061353Y-99360514D01*
X106061353Y-99360514D02*
X106156591Y-99408133D01*
X113696115Y-104971466D02*
X112934211Y-104971466D01*
X109013734Y-113336704D02*
X108537544Y-113336704D01*
X109108972Y-113622419D02*
X108775639Y-112622419D01*
X108775639Y-112622419D02*
X108442306Y-113622419D01*
X108108972Y-112622419D02*
X108108972Y-113431942D01*
X108108972Y-113431942D02*
X108061353Y-113527180D01*
X108061353Y-113527180D02*
X108013734Y-113574800D01*
X108013734Y-113574800D02*
X107918496Y-113622419D01*
X107918496Y-113622419D02*
X107728020Y-113622419D01*
X107728020Y-113622419D02*
X107632782Y-113574800D01*
X107632782Y-113574800D02*
X107585163Y-113527180D01*
X107585163Y-113527180D02*
X107537544Y-113431942D01*
X107537544Y-113431942D02*
X107537544Y-112622419D01*
X107156591Y-112622419D02*
X106489925Y-113622419D01*
X106489925Y-112622419D02*
X107156591Y-113622419D01*
X106204210Y-112622419D02*
X105585163Y-112622419D01*
X105585163Y-112622419D02*
X105918496Y-113003371D01*
X105918496Y-113003371D02*
X105775639Y-113003371D01*
X105775639Y-113003371D02*
X105680401Y-113050990D01*
X105680401Y-113050990D02*
X105632782Y-113098609D01*
X105632782Y-113098609D02*
X105585163Y-113193847D01*
X105585163Y-113193847D02*
X105585163Y-113431942D01*
X105585163Y-113431942D02*
X105632782Y-113527180D01*
X105632782Y-113527180D02*
X105680401Y-113574800D01*
X105680401Y-113574800D02*
X105775639Y-113622419D01*
X105775639Y-113622419D02*
X106061353Y-113622419D01*
X106061353Y-113622419D02*
X106156591Y-113574800D01*
X106156591Y-113574800D02*
X106204210Y-113527180D01*
X113696115Y-100721466D02*
X112934211Y-100721466D01*
X113315163Y-101102419D02*
X113315163Y-100340514D01*
X113696115Y-84971466D02*
X112934211Y-84971466D01*
M02*
