%TF.GenerationSoftware,KiCad,Pcbnew,9.0.3-9.0.3-0~ubuntu24.04.1*%
%TF.CreationDate,2026-04-21T10:17:34+03:00*%
%TF.ProjectId,sounddecoder-esp32-s3-wroom-2,736f756e-6464-4656-936f-6465722d6573,rev?*%
%TF.SameCoordinates,Original*%
%TF.FileFunction,Copper,L1,Top*%
%TF.FilePolarity,Positive*%
%FSLAX46Y46*%
G04 Gerber Fmt 4.6, Leading zero omitted, Abs format (unit mm)*
G04 Created by KiCad (PCBNEW 9.0.3-9.0.3-0~ubuntu24.04.1) date 2026-04-21 10:17:34*
%MOMM*%
%LPD*%
G01*
G04 APERTURE LIST*
G04 Aperture macros list*
%AMRoundRect*
0 Rectangle with rounded corners*
0 $1 Rounding radius*
0 $2 $3 $4 $5 $6 $7 $8 $9 X,Y pos of 4 corners*
0 Add a 4 corners polygon primitive as box body*
4,1,4,$2,$3,$4,$5,$6,$7,$8,$9,$2,$3,0*
0 Add four circle primitives for the rounded corners*
1,1,$1+$1,$2,$3*
1,1,$1+$1,$4,$5*
1,1,$1+$1,$6,$7*
1,1,$1+$1,$8,$9*
0 Add four rect primitives between the rounded corners*
20,1,$1+$1,$2,$3,$4,$5,0*
20,1,$1+$1,$4,$5,$6,$7,0*
20,1,$1+$1,$6,$7,$8,$9,0*
20,1,$1+$1,$8,$9,$2,$3,0*%
G04 Aperture macros list end*
%TA.AperFunction,SMDPad,CuDef*%
%ADD10R,3.100000X5.000000*%
%TD*%
%TA.AperFunction,ComponentPad*%
%ADD11R,1.700000X1.700000*%
%TD*%
%TA.AperFunction,ComponentPad*%
%ADD12C,1.700000*%
%TD*%
%TA.AperFunction,ComponentPad*%
%ADD13RoundRect,0.250000X0.750000X-0.750000X0.750000X0.750000X-0.750000X0.750000X-0.750000X-0.750000X0*%
%TD*%
%TA.AperFunction,ComponentPad*%
%ADD14C,2.000000*%
%TD*%
%TA.AperFunction,ComponentPad*%
%ADD15RoundRect,0.250000X-0.750000X0.750000X-0.750000X-0.750000X0.750000X-0.750000X0.750000X0.750000X0*%
%TD*%
%TA.AperFunction,SMDPad,CuDef*%
%ADD16R,1.500000X0.900000*%
%TD*%
%TA.AperFunction,SMDPad,CuDef*%
%ADD17R,0.900000X1.500000*%
%TD*%
%TA.AperFunction,HeatsinkPad*%
%ADD18R,1.000000X1.000000*%
%TD*%
%TA.AperFunction,HeatsinkPad*%
%ADD19C,0.600000*%
%TD*%
%TA.AperFunction,SMDPad,CuDef*%
%ADD20RoundRect,0.375000X-0.625000X-0.375000X0.625000X-0.375000X0.625000X0.375000X-0.625000X0.375000X0*%
%TD*%
%TA.AperFunction,SMDPad,CuDef*%
%ADD21RoundRect,0.500000X-0.500000X-1.400000X0.500000X-1.400000X0.500000X1.400000X-0.500000X1.400000X0*%
%TD*%
%TA.AperFunction,ComponentPad*%
%ADD22RoundRect,0.250000X0.750000X0.750000X-0.750000X0.750000X-0.750000X-0.750000X0.750000X-0.750000X0*%
%TD*%
%TA.AperFunction,SMDPad,CuDef*%
%ADD23RoundRect,0.250000X0.475000X-0.337500X0.475000X0.337500X-0.475000X0.337500X-0.475000X-0.337500X0*%
%TD*%
%TA.AperFunction,SMDPad,CuDef*%
%ADD24RoundRect,0.250000X0.550000X-1.500000X0.550000X1.500000X-0.550000X1.500000X-0.550000X-1.500000X0*%
%TD*%
%TA.AperFunction,SMDPad,CuDef*%
%ADD25RoundRect,0.250000X-0.350000X-0.450000X0.350000X-0.450000X0.350000X0.450000X-0.350000X0.450000X0*%
%TD*%
%TA.AperFunction,SMDPad,CuDef*%
%ADD26RoundRect,0.250000X1.050000X0.550000X-1.050000X0.550000X-1.050000X-0.550000X1.050000X-0.550000X0*%
%TD*%
%TA.AperFunction,SMDPad,CuDef*%
%ADD27RoundRect,0.250000X-0.450000X0.350000X-0.450000X-0.350000X0.450000X-0.350000X0.450000X0.350000X0*%
%TD*%
%TA.AperFunction,SMDPad,CuDef*%
%ADD28RoundRect,0.250000X1.000000X-1.400000X1.000000X1.400000X-1.000000X1.400000X-1.000000X-1.400000X0*%
%TD*%
%TA.AperFunction,SMDPad,CuDef*%
%ADD29RoundRect,0.250000X-0.337500X-0.475000X0.337500X-0.475000X0.337500X0.475000X-0.337500X0.475000X0*%
%TD*%
%TA.AperFunction,ComponentPad*%
%ADD30R,0.850000X0.850000*%
%TD*%
%TA.AperFunction,ComponentPad*%
%ADD31C,0.850000*%
%TD*%
%TA.AperFunction,SMDPad,CuDef*%
%ADD32RoundRect,0.250000X0.550000X-1.412500X0.550000X1.412500X-0.550000X1.412500X-0.550000X-1.412500X0*%
%TD*%
%TA.AperFunction,SMDPad,CuDef*%
%ADD33RoundRect,0.250000X2.050000X0.300000X-2.050000X0.300000X-2.050000X-0.300000X2.050000X-0.300000X0*%
%TD*%
%TA.AperFunction,SMDPad,CuDef*%
%ADD34RoundRect,0.250002X4.449998X5.149998X-4.449998X5.149998X-4.449998X-5.149998X4.449998X-5.149998X0*%
%TD*%
%TA.AperFunction,SMDPad,CuDef*%
%ADD35RoundRect,0.062500X0.350000X0.062500X-0.350000X0.062500X-0.350000X-0.062500X0.350000X-0.062500X0*%
%TD*%
%TA.AperFunction,SMDPad,CuDef*%
%ADD36RoundRect,0.062500X0.062500X0.350000X-0.062500X0.350000X-0.062500X-0.350000X0.062500X-0.350000X0*%
%TD*%
%TA.AperFunction,HeatsinkPad*%
%ADD37R,1.230000X1.230000*%
%TD*%
%TA.AperFunction,ComponentPad*%
%ADD38RoundRect,0.250000X-0.750000X-0.750000X0.750000X-0.750000X0.750000X0.750000X-0.750000X0.750000X0*%
%TD*%
%TA.AperFunction,SMDPad,CuDef*%
%ADD39RoundRect,0.150000X-0.150000X0.725000X-0.150000X-0.725000X0.150000X-0.725000X0.150000X0.725000X0*%
%TD*%
%TA.AperFunction,SMDPad,CuDef*%
%ADD40RoundRect,0.250000X1.950000X1.000000X-1.950000X1.000000X-1.950000X-1.000000X1.950000X-1.000000X0*%
%TD*%
%TA.AperFunction,SMDPad,CuDef*%
%ADD41R,0.600000X1.550000*%
%TD*%
%TA.AperFunction,ComponentPad*%
%ADD42C,0.600000*%
%TD*%
%TA.AperFunction,SMDPad,CuDef*%
%ADD43R,4.900000X2.950000*%
%TD*%
%TA.AperFunction,ViaPad*%
%ADD44C,1.000000*%
%TD*%
%TA.AperFunction,ViaPad*%
%ADD45C,0.600000*%
%TD*%
%TA.AperFunction,ViaPad*%
%ADD46C,0.800000*%
%TD*%
%TA.AperFunction,Conductor*%
%ADD47C,0.203200*%
%TD*%
%TA.AperFunction,Conductor*%
%ADD48C,1.000000*%
%TD*%
%TA.AperFunction,Conductor*%
%ADD49C,0.600000*%
%TD*%
%TA.AperFunction,Conductor*%
%ADD50C,0.800000*%
%TD*%
G04 APERTURE END LIST*
D10*
%TO.P,L1,1,1*%
%TO.N,/Out5V*%
X91200000Y-112250000D03*
%TO.P,L1,2,2*%
%TO.N,+5V*%
X102300000Y-112250000D03*
%TD*%
D11*
%TO.P,J5,1,Pin_1*%
%TO.N,GND*%
X82000000Y-92500000D03*
D12*
%TO.P,J5,2,Pin_2*%
%TO.N,/IO0*%
X82000000Y-89960000D03*
%TO.P,J5,3,Pin_3*%
%TO.N,/UART-TX*%
X82000000Y-87420000D03*
%TO.P,J5,4,Pin_4*%
%TO.N,/UART-RX*%
X82000000Y-84880000D03*
%TO.P,J5,5,Pin_5*%
%TO.N,+5V*%
X82000000Y-82340000D03*
%TD*%
D13*
%TO.P,J10,1,Pin_1*%
%TO.N,+5V*%
X110770000Y-101025000D03*
D14*
%TO.P,J10,2,Pin_2*%
%TO.N,Net-(J10-Pin_2)*%
X110770000Y-98485000D03*
%TD*%
D15*
%TO.P,J4,1,Pin_1*%
%TO.N,/Sound1*%
X76250000Y-96562500D03*
D14*
%TO.P,J4,2,Pin_2*%
%TO.N,/Sound2*%
X76250000Y-99102500D03*
%TD*%
D16*
%TO.P,U7,1,GND*%
%TO.N,GND*%
X87250000Y-77430000D03*
%TO.P,U7,2,3V3*%
%TO.N,+3.3V*%
X87250000Y-78700000D03*
%TO.P,U7,3,EN*%
%TO.N,Net-(U7-EN)*%
X87250000Y-79970000D03*
%TO.P,U7,4,IO4*%
%TO.N,/MOTOR_IN2*%
X87250000Y-81240000D03*
%TO.P,U7,5,IO5*%
%TO.N,unconnected-(U7-IO5-Pad5)*%
X87250000Y-82510000D03*
%TO.P,U7,6,IO6*%
%TO.N,unconnected-(U7-IO6-Pad6)*%
X87250000Y-83780000D03*
%TO.P,U7,7,IO7*%
%TO.N,unconnected-(U7-IO7-Pad7)*%
X87250000Y-85050000D03*
%TO.P,U7,8,IO15*%
%TO.N,unconnected-(U7-IO15-Pad8)*%
X87250000Y-86320000D03*
%TO.P,U7,9,IO16*%
%TO.N,unconnected-(U7-IO16-Pad9)*%
X87250000Y-87590000D03*
%TO.P,U7,10,IO17*%
%TO.N,unconnected-(U7-IO17-Pad10)*%
X87250000Y-88860000D03*
%TO.P,U7,11,IO18*%
%TO.N,unconnected-(U7-IO18-Pad11)*%
X87250000Y-90130000D03*
%TO.P,U7,12,IO8*%
%TO.N,unconnected-(U7-IO8-Pad12)*%
X87250000Y-91400000D03*
%TO.P,U7,13,USB_D-/IO19*%
%TO.N,unconnected-(U7-USB_D-{slash}IO19-Pad13)*%
X87250000Y-92670000D03*
%TO.P,U7,14,USB_D+/IO20*%
%TO.N,unconnected-(U7-USB_D+{slash}IO20-Pad14)*%
X87250000Y-93940000D03*
D17*
%TO.P,U7,15,IO3*%
%TO.N,/AUDIO_OUT*%
X89015000Y-95190000D03*
%TO.P,U7,16,IO46*%
%TO.N,/AUDIO_BCLK*%
X90285000Y-95190000D03*
%TO.P,U7,17,IO9*%
%TO.N,/AUDIO_LRCLK*%
X91555000Y-95190000D03*
%TO.P,U7,18,IO10*%
%TO.N,unconnected-(U7-IO10-Pad18)*%
X92825000Y-95190000D03*
%TO.P,U7,19,IO11*%
%TO.N,/OUT7*%
X94095000Y-95190000D03*
%TO.P,U7,20,IO12*%
%TO.N,/OUT6*%
X95365000Y-95190000D03*
%TO.P,U7,21,IO13*%
%TO.N,/OUT5*%
X96635000Y-95190000D03*
%TO.P,U7,22,IO14*%
%TO.N,/OUT4*%
X97905000Y-95190000D03*
%TO.P,U7,23,IO21*%
%TO.N,/OUT3*%
X99175000Y-95190000D03*
%TO.P,U7,24,IO47*%
%TO.N,/OUT2*%
X100445000Y-95190000D03*
%TO.P,U7,25,IO48*%
%TO.N,/OUT1*%
X101715000Y-95190000D03*
%TO.P,U7,26,IO45*%
%TO.N,unconnected-(U7-IO45-Pad26)*%
X102985000Y-95190000D03*
D16*
%TO.P,U7,27,IO0*%
%TO.N,/IO0*%
X104750000Y-93940000D03*
%TO.P,U7,28,NC*%
%TO.N,unconnected-(U7-NC-Pad28)*%
X104750000Y-92670000D03*
%TO.P,U7,29,NC*%
%TO.N,unconnected-(U7-NC-Pad29)*%
X104750000Y-91400000D03*
%TO.P,U7,30,NC*%
%TO.N,unconnected-(U7-NC-Pad30)*%
X104750000Y-90130000D03*
%TO.P,U7,31,IO38*%
%TO.N,unconnected-(U7-IO38-Pad31)*%
X104750000Y-88860000D03*
%TO.P,U7,32,MTCK/IO39*%
%TO.N,unconnected-(U7-MTCK{slash}IO39-Pad32)*%
X104750000Y-87590000D03*
%TO.P,U7,33,MTDO/IO40*%
%TO.N,unconnected-(U7-MTDO{slash}IO40-Pad33)*%
X104750000Y-86320000D03*
%TO.P,U7,34,MTDI/IO41*%
%TO.N,unconnected-(U7-MTDI{slash}IO41-Pad34)*%
X104750000Y-85050000D03*
%TO.P,U7,35,MTMS/IO42*%
%TO.N,unconnected-(U7-MTMS{slash}IO42-Pad35)*%
X104750000Y-83780000D03*
%TO.P,U7,36,RXD0/IO44*%
%TO.N,/UART-RX*%
X104750000Y-82510000D03*
%TO.P,U7,37,TXD0/IO43*%
%TO.N,/UART-TX*%
X104750000Y-81240000D03*
%TO.P,U7,38,IO2*%
%TO.N,/MOTOR_IN1*%
X104750000Y-79970000D03*
%TO.P,U7,39,IO1*%
%TO.N,/MOTOR_SENSE*%
X104750000Y-78700000D03*
%TO.P,U7,40,GND*%
%TO.N,GND*%
X104750000Y-77430000D03*
D18*
%TO.P,U7,41,GND*%
X93140000Y-81280000D03*
D19*
X93140000Y-82030000D03*
D18*
X93140000Y-82780000D03*
D19*
X93140000Y-83530000D03*
D18*
X93140000Y-84280000D03*
D19*
X93890000Y-81280000D03*
X93890000Y-82780000D03*
X93890000Y-84280000D03*
D18*
X94640000Y-81280000D03*
D19*
X94640000Y-82030000D03*
D18*
X94640000Y-82780000D03*
D19*
X94640000Y-83530000D03*
D18*
X94640000Y-84280000D03*
D19*
X95390000Y-81280000D03*
X95390000Y-82780000D03*
X95390000Y-84280000D03*
D18*
X96140000Y-81280000D03*
D19*
X96140000Y-82030000D03*
D18*
X96140000Y-82780000D03*
D19*
X96140000Y-83530000D03*
D18*
X96140000Y-84280000D03*
%TD*%
D13*
%TO.P,J11,1,Pin_1*%
%TO.N,+5V*%
X110770000Y-107750000D03*
D14*
%TO.P,J11,2,Pin_2*%
%TO.N,Net-(J11-Pin_2)*%
X110770000Y-105210000D03*
%TD*%
D20*
%TO.P,U6,1,GND*%
%TO.N,GND*%
X81350000Y-106200000D03*
%TO.P,U6,2,VO*%
%TO.N,+3.3V*%
X81350000Y-108500000D03*
D21*
X87650000Y-108500000D03*
D20*
%TO.P,U6,3,VI*%
%TO.N,+5V*%
X81350000Y-110800000D03*
%TD*%
D22*
%TO.P,J3,1,Pin_1*%
%TO.N,/MOTOR1*%
X112750000Y-132000000D03*
D14*
%TO.P,J3,2,Pin_2*%
%TO.N,/MOTOR2*%
X110210000Y-132000000D03*
%TD*%
D13*
%TO.P,J8,1,Pin_1*%
%TO.N,+5V*%
X110737500Y-87540000D03*
D14*
%TO.P,J8,2,Pin_2*%
%TO.N,/FwdLED*%
X110737500Y-85000000D03*
%TD*%
D23*
%TO.P,C10,1*%
%TO.N,+3.3V*%
X83000000Y-79500000D03*
%TO.P,C10,2*%
%TO.N,GND*%
X83000000Y-77425000D03*
%TD*%
D24*
%TO.P,C2,1*%
%TO.N,VCC*%
X96350000Y-133287500D03*
%TO.P,C2,2*%
%TO.N,GND*%
X96350000Y-127687500D03*
%TD*%
D25*
%TO.P,R1,1*%
%TO.N,/MOTOR_SENSE*%
X107500000Y-124750000D03*
%TO.P,R1,2*%
%TO.N,GND*%
X109500000Y-124750000D03*
%TD*%
D26*
%TO.P,C6,1*%
%TO.N,+3.3V*%
X88550000Y-102500000D03*
%TO.P,C6,2*%
%TO.N,GND*%
X84950000Y-102500000D03*
%TD*%
D27*
%TO.P,R2,1*%
%TO.N,+3.3V*%
X85000000Y-79000000D03*
%TO.P,R2,2*%
%TO.N,Net-(U7-EN)*%
X85000000Y-81000000D03*
%TD*%
D28*
%TO.P,D1,1,K*%
%TO.N,/Out5V*%
X91350000Y-122250000D03*
%TO.P,D1,2,A*%
%TO.N,GND*%
X98150000Y-122250000D03*
%TD*%
D29*
%TO.P,C7,1*%
%TO.N,+3.3V*%
X80925000Y-95562500D03*
%TO.P,C7,2*%
%TO.N,GND*%
X83000000Y-95562500D03*
%TD*%
D30*
%TO.P,J6,1,Pin_1*%
%TO.N,GND*%
X87500000Y-97250000D03*
D31*
%TO.P,J6,2,Pin_2*%
%TO.N,/SND_GAIN*%
X87500000Y-98250000D03*
%TO.P,J6,3,Pin_3*%
%TO.N,+3.3V*%
X87500000Y-99250000D03*
%TD*%
D23*
%TO.P,C8,1*%
%TO.N,+3.3V*%
X85250000Y-99250000D03*
%TO.P,C8,2*%
%TO.N,GND*%
X85250000Y-97175000D03*
%TD*%
D13*
%TO.P,J13,1,Pin_1*%
%TO.N,+5V*%
X110770000Y-121275000D03*
D14*
%TO.P,J13,2,Pin_2*%
%TO.N,Net-(J13-Pin_2)*%
X110770000Y-118735000D03*
%TD*%
D32*
%TO.P,C5,1*%
%TO.N,+5V*%
X76000000Y-111075000D03*
%TO.P,C5,2*%
%TO.N,GND*%
X76000000Y-106000000D03*
%TD*%
D33*
%TO.P,U1,1,VIN*%
%TO.N,VCC*%
X86725000Y-122062500D03*
%TO.P,U1,2,OUT*%
%TO.N,/Out5V*%
X86725000Y-120362500D03*
%TO.P,U1,3,GND*%
%TO.N,GND*%
X86725000Y-118662500D03*
D34*
X77575000Y-118662500D03*
D33*
%TO.P,U1,4,FB*%
%TO.N,+5V*%
X86725000Y-116962500D03*
%TO.P,U1,5,~{ON}/OFF*%
%TO.N,GND*%
X86725000Y-115262500D03*
%TD*%
D27*
%TO.P,R3,1*%
%TO.N,/IO0*%
X84750000Y-90000000D03*
%TO.P,R3,2*%
%TO.N,+3.3V*%
X84750000Y-92000000D03*
%TD*%
D29*
%TO.P,C3,1*%
%TO.N,VCC*%
X86425000Y-125500000D03*
%TO.P,C3,2*%
%TO.N,GND*%
X88500000Y-125500000D03*
%TD*%
D35*
%TO.P,U3,1,DIN*%
%TO.N,/AUDIO_OUT*%
X83437500Y-99750000D03*
%TO.P,U3,2,GAIN_SLOT*%
%TO.N,/SND_GAIN*%
X83437500Y-99250000D03*
%TO.P,U3,3,GND*%
%TO.N,GND*%
X83437500Y-98750000D03*
%TO.P,U3,4,~{SD_MODE}*%
%TO.N,+3.3V*%
X83437500Y-98250000D03*
D36*
%TO.P,U3,5,NC*%
%TO.N,unconnected-(U3-NC-Pad5)*%
X82750000Y-97562500D03*
%TO.P,U3,6,NC*%
%TO.N,unconnected-(U3-NC-Pad6)*%
X82250000Y-97562500D03*
%TO.P,U3,7,VDD*%
%TO.N,+3.3V*%
X81750000Y-97562500D03*
%TO.P,U3,8,VDD*%
X81250000Y-97562500D03*
D35*
%TO.P,U3,9,OUTP*%
%TO.N,/Sound1*%
X80562500Y-98250000D03*
%TO.P,U3,10,OUTN*%
%TO.N,/Sound2*%
X80562500Y-98750000D03*
%TO.P,U3,11,GND*%
%TO.N,GND*%
X80562500Y-99250000D03*
%TO.P,U3,12,NC*%
%TO.N,unconnected-(U3-NC-Pad12)*%
X80562500Y-99750000D03*
D36*
%TO.P,U3,13,NC*%
%TO.N,unconnected-(U3-NC-Pad13)*%
X81250000Y-100437500D03*
%TO.P,U3,14,LRCLK*%
%TO.N,/AUDIO_LRCLK*%
X81750000Y-100437500D03*
%TO.P,U3,15,GND*%
%TO.N,GND*%
X82250000Y-100437500D03*
%TO.P,U3,16,BCLK*%
%TO.N,/AUDIO_BCLK*%
X82750000Y-100437500D03*
D37*
%TO.P,U3,17,PAD*%
%TO.N,GND*%
X82000000Y-99000000D03*
%TD*%
D23*
%TO.P,C12,1*%
%TO.N,GND*%
X85000000Y-84787500D03*
%TO.P,C12,2*%
%TO.N,Net-(U7-EN)*%
X85000000Y-82712500D03*
%TD*%
D38*
%TO.P,J1,1,Pin_1*%
%TO.N,VCC*%
X88160000Y-131505000D03*
D14*
%TO.P,J1,2,Pin_2*%
%TO.N,GND*%
X90700000Y-131505000D03*
%TD*%
D39*
%TO.P,U8,1,I1*%
%TO.N,/OUT1*%
X101770000Y-98425000D03*
%TO.P,U8,2,I2*%
%TO.N,/OUT2*%
X100500000Y-98425000D03*
%TO.P,U8,3,I3*%
%TO.N,/OUT3*%
X99230000Y-98425000D03*
%TO.P,U8,4,I4*%
%TO.N,/OUT4*%
X97960000Y-98425000D03*
%TO.P,U8,5,I5*%
%TO.N,/OUT5*%
X96690000Y-98425000D03*
%TO.P,U8,6,I6*%
%TO.N,/OUT6*%
X95420000Y-98425000D03*
%TO.P,U8,7,I7*%
%TO.N,/OUT7*%
X94150000Y-98425000D03*
%TO.P,U8,8,GND*%
%TO.N,GND*%
X92880000Y-98425000D03*
%TO.P,U8,9,COM*%
%TO.N,+5V*%
X92880000Y-103575000D03*
%TO.P,U8,10,O7*%
%TO.N,Net-(J13-Pin_2)*%
X94150000Y-103575000D03*
%TO.P,U8,11,O6*%
%TO.N,Net-(J12-Pin_2)*%
X95420000Y-103575000D03*
%TO.P,U8,12,O5*%
%TO.N,Net-(J11-Pin_2)*%
X96690000Y-103575000D03*
%TO.P,U8,13,O4*%
%TO.N,Net-(J10-Pin_2)*%
X97960000Y-103575000D03*
%TO.P,U8,14,O3*%
%TO.N,/BackLED*%
X99230000Y-103575000D03*
%TO.P,U8,15,O2*%
%TO.N,/FwdLED*%
X100500000Y-103575000D03*
%TO.P,U8,16,O1*%
%TO.N,/Smoke*%
X101770000Y-103575000D03*
%TD*%
D13*
%TO.P,J9,1,Pin_1*%
%TO.N,+5V*%
X110770000Y-94290000D03*
D14*
%TO.P,J9,2,Pin_2*%
%TO.N,/BackLED*%
X110770000Y-91750000D03*
%TD*%
D40*
%TO.P,C4,1*%
%TO.N,VCC*%
X83650000Y-130037500D03*
%TO.P,C4,2*%
%TO.N,GND*%
X75250000Y-130037500D03*
%TD*%
D41*
%TO.P,U4,1,IPROPI*%
%TO.N,/MOTOR_SENSE*%
X107020000Y-126925000D03*
%TO.P,U4,2,IN2*%
%TO.N,/MOTOR_IN2*%
X105750000Y-126925000D03*
%TO.P,U4,3,IN1*%
%TO.N,/MOTOR_IN1*%
X104480000Y-126925000D03*
%TO.P,U4,4,VREF*%
%TO.N,+3.3V*%
X103210000Y-126925000D03*
%TO.P,U4,5,VM*%
%TO.N,VCC*%
X103210000Y-132325000D03*
%TO.P,U4,6,OUT1*%
%TO.N,/MOTOR1*%
X104480000Y-132325000D03*
%TO.P,U4,7,GND*%
%TO.N,GND*%
X105750000Y-132325000D03*
%TO.P,U4,8,OUT2*%
%TO.N,/MOTOR2*%
X107020000Y-132325000D03*
D42*
%TO.P,U4,9,GND*%
%TO.N,GND*%
X107065000Y-128975000D03*
X105765000Y-128975000D03*
X104465000Y-128975000D03*
X103165000Y-128975000D03*
D43*
X105115000Y-129625000D03*
D42*
X107065000Y-130275000D03*
X105765000Y-130275000D03*
X104465000Y-130275000D03*
X103165000Y-130275000D03*
%TD*%
D23*
%TO.P,C11,1*%
%TO.N,+3.3V*%
X81000000Y-79500000D03*
%TO.P,C11,2*%
%TO.N,GND*%
X81000000Y-77425000D03*
%TD*%
%TO.P,C1,1*%
%TO.N,VCC*%
X101000000Y-131825000D03*
%TO.P,C1,2*%
%TO.N,GND*%
X101000000Y-129750000D03*
%TD*%
D13*
%TO.P,J7,1,Pin_1*%
%TO.N,+5V*%
X110770000Y-80790000D03*
D14*
%TO.P,J7,2,Pin_2*%
%TO.N,/Smoke*%
X110770000Y-78250000D03*
%TD*%
D13*
%TO.P,J12,1,Pin_1*%
%TO.N,+5V*%
X110770000Y-114540000D03*
D14*
%TO.P,J12,2,Pin_2*%
%TO.N,Net-(J12-Pin_2)*%
X110770000Y-112000000D03*
%TD*%
D44*
%TO.N,VCC*%
X88250000Y-123250000D03*
X85250000Y-123250000D03*
%TO.N,GND*%
X88500000Y-114000000D03*
X85250000Y-114000000D03*
%TO.N,+3.3V*%
X84750000Y-93250000D03*
%TO.N,+5V*%
X90000000Y-117000000D03*
X81250000Y-112500000D03*
%TO.N,GND*%
X79500000Y-106250000D03*
X83250000Y-106250000D03*
X76000000Y-103750000D03*
D45*
X82000000Y-99000000D03*
D44*
%TO.N,+5V*%
X74000000Y-110000000D03*
X78000000Y-110000000D03*
X83500000Y-112500000D03*
D45*
%TO.N,/SND_GAIN*%
X84655800Y-98222496D03*
%TO.N,GND*%
X93500000Y-100000000D03*
%TO.N,Net-(J13-Pin_2)*%
X94500000Y-105250000D03*
%TO.N,Net-(J12-Pin_2)*%
X95750000Y-105250000D03*
%TO.N,Net-(J11-Pin_2)*%
X96750000Y-105000000D03*
%TO.N,Net-(J10-Pin_2)*%
X98000000Y-102250000D03*
%TO.N,/BackLED*%
X99250000Y-101750000D03*
%TO.N,/FwdLED*%
X100500000Y-101000000D03*
%TO.N,/Smoke*%
X101750000Y-100250000D03*
%TO.N,/AUDIO_LRCLK*%
X81989544Y-101261552D03*
X89000000Y-97250000D03*
%TO.N,/AUDIO_BCLK*%
X89000000Y-96500000D03*
X83500000Y-101000000D03*
%TO.N,/AUDIO_OUT*%
X83750000Y-100250000D03*
X84500000Y-95250000D03*
%TO.N,/MOTOR_IN1*%
X91750000Y-78801600D03*
%TO.N,/MOTOR_SENSE*%
X91246297Y-78245915D03*
%TO.N,GND*%
X95000000Y-129750000D03*
X78975000Y-117850000D03*
X78975000Y-123012500D03*
D46*
X99000000Y-127750000D03*
D45*
X73975000Y-116100000D03*
X76475000Y-121500000D03*
X81475000Y-121500000D03*
X81475000Y-123012500D03*
X108250000Y-133750000D03*
X78975000Y-121500000D03*
X109000000Y-128750000D03*
X76475000Y-123012500D03*
X81475000Y-116100000D03*
X76475000Y-114250000D03*
X109000000Y-130000000D03*
X107250000Y-133750000D03*
X102000000Y-128750000D03*
X73975000Y-117850000D03*
X99000000Y-129750000D03*
X97750000Y-129750000D03*
X76475000Y-119750000D03*
X76475000Y-117850000D03*
X78975000Y-114250000D03*
X81475000Y-119750000D03*
X110750000Y-128750000D03*
X78975000Y-119750000D03*
X73975000Y-114250000D03*
X110750000Y-130000000D03*
X102250000Y-130250000D03*
X73975000Y-121500000D03*
X81475000Y-117850000D03*
X73975000Y-119750000D03*
X95000000Y-128500000D03*
X76475000Y-116100000D03*
X93750000Y-129750000D03*
X73975000Y-123012500D03*
X81475000Y-114250000D03*
X97750000Y-128500000D03*
X106000000Y-133750000D03*
X78975000Y-116100000D03*
D46*
%TO.N,VCC*%
X97750000Y-131750000D03*
X102000000Y-134500000D03*
X82500000Y-132250000D03*
X82500000Y-127000000D03*
%TO.N,+3.3V*%
X80500000Y-96812500D03*
X88500000Y-78750000D03*
D45*
X86000000Y-78750000D03*
%TO.N,/MOTOR_SENSE*%
X101625000Y-123875000D03*
%TO.N,/UART-TX*%
X90250000Y-79537242D03*
%TO.N,/UART-RX*%
X89500000Y-80250000D03*
%TO.N,/MOTOR_IN1*%
X104000000Y-125250000D03*
%TO.N,/MOTOR_IN2*%
X101000000Y-124500000D03*
X89125000Y-82125000D03*
%TO.N,/IO0*%
X90500000Y-93860036D03*
%TD*%
D47*
%TO.N,+3.3V*%
X100250000Y-125000000D02*
X100500000Y-125250000D01*
D48*
X84750000Y-92000000D02*
X84750000Y-93250000D01*
%TO.N,+5V*%
X86725000Y-116962500D02*
X89962500Y-116962500D01*
X89962500Y-116962500D02*
X90000000Y-117000000D01*
D47*
%TO.N,+3.3V*%
X83437500Y-98250000D02*
X83437500Y-97390150D01*
X83437500Y-97390150D02*
X82944750Y-96897400D01*
X82944750Y-96897400D02*
X82002601Y-96897400D01*
X82002601Y-96897400D02*
X81750000Y-97150001D01*
X81750000Y-97150001D02*
X81750000Y-97562500D01*
X100250000Y-125000000D02*
X100250000Y-107500000D01*
X100250000Y-107500000D02*
X93550000Y-107500000D01*
X93550000Y-107500000D02*
X88550000Y-102500000D01*
D48*
%TO.N,+5V*%
X92880000Y-103575000D02*
X92880000Y-104974918D01*
X92880000Y-104974918D02*
X94405082Y-106500000D01*
X94405082Y-106500000D02*
X102500000Y-106500000D01*
X102500000Y-106500000D02*
X103750000Y-107750000D01*
X103750000Y-107750000D02*
X110770000Y-107750000D01*
X82000000Y-82340000D02*
X76910000Y-82340000D01*
X76910000Y-82340000D02*
X73376000Y-85874000D01*
X73376000Y-85874000D02*
X73376000Y-109376000D01*
X73376000Y-109376000D02*
X74000000Y-110000000D01*
X81800000Y-110800000D02*
X83500000Y-112500000D01*
X81350000Y-110800000D02*
X81800000Y-110800000D01*
D47*
%TO.N,/SND_GAIN*%
X84655800Y-98222496D02*
X84599892Y-98222496D01*
X84599892Y-98222496D02*
X84102600Y-98719788D01*
%TO.N,GND*%
X92880000Y-99380000D02*
X93500000Y-100000000D01*
X92880000Y-98425000D02*
X92880000Y-99380000D01*
D49*
%TO.N,Net-(J13-Pin_2)*%
X94150000Y-104900000D02*
X94500000Y-105250000D01*
X94150000Y-103575000D02*
X94150000Y-104900000D01*
%TO.N,Net-(J12-Pin_2)*%
X95420000Y-104920000D02*
X95750000Y-105250000D01*
X95420000Y-103575000D02*
X95420000Y-104920000D01*
%TO.N,Net-(J11-Pin_2)*%
X96690000Y-104940000D02*
X96750000Y-105000000D01*
X96690000Y-103575000D02*
X96690000Y-104940000D01*
%TO.N,Net-(J10-Pin_2)*%
X97960000Y-103575000D02*
X97960000Y-102290000D01*
X97960000Y-102290000D02*
X98000000Y-102250000D01*
%TO.N,/BackLED*%
X99230000Y-101770000D02*
X99250000Y-101750000D01*
X99230000Y-103575000D02*
X99230000Y-101770000D01*
%TO.N,/FwdLED*%
X100500000Y-103575000D02*
X100500000Y-101000000D01*
%TO.N,/Smoke*%
X101770000Y-100270000D02*
X101750000Y-100250000D01*
X101770000Y-103575000D02*
X101770000Y-100270000D01*
D47*
%TO.N,/AUDIO_LRCLK*%
X81989544Y-101261552D02*
X81989544Y-101258880D01*
X81750000Y-101019336D02*
X81750000Y-100437500D01*
X81989544Y-101258880D02*
X81750000Y-101019336D01*
X91555000Y-95190000D02*
X91555000Y-95490000D01*
X91555000Y-95490000D02*
X89795000Y-97250000D01*
X89795000Y-97250000D02*
X89000000Y-97250000D01*
%TO.N,/AUDIO_BCLK*%
X89275000Y-96500000D02*
X89000000Y-96500000D01*
X90285000Y-95490000D02*
X89275000Y-96500000D01*
X90285000Y-95190000D02*
X90285000Y-95490000D01*
X83500000Y-101000000D02*
X83312500Y-101000000D01*
X83312500Y-101000000D02*
X82750000Y-100437500D01*
%TO.N,/AUDIO_OUT*%
X89015000Y-95190000D02*
X84560000Y-95190000D01*
X83750000Y-100250000D02*
X83750000Y-100062500D01*
X84560000Y-95190000D02*
X84500000Y-95250000D01*
X83750000Y-100062500D02*
X83437500Y-99750000D01*
%TO.N,/SND_GAIN*%
X84102600Y-98719788D02*
X84102600Y-98997399D01*
X84102600Y-98997399D02*
X83849999Y-99250000D01*
X83849999Y-99250000D02*
X83437500Y-99250000D01*
%TO.N,/MOTOR_SENSE*%
X104300000Y-78250000D02*
X104750000Y-78700000D01*
X91246297Y-78245915D02*
X91250382Y-78250000D01*
X91250382Y-78250000D02*
X104300000Y-78250000D01*
%TO.N,/OUT1*%
X101770000Y-98425000D02*
X101770000Y-95245000D01*
X101770000Y-95245000D02*
X101715000Y-95190000D01*
%TO.N,/OUT2*%
X100500000Y-98425000D02*
X100500000Y-95245000D01*
X100500000Y-95245000D02*
X100445000Y-95190000D01*
%TO.N,/OUT3*%
X99230000Y-98425000D02*
X99230000Y-95245000D01*
X99230000Y-95245000D02*
X99175000Y-95190000D01*
%TO.N,/OUT4*%
X97960000Y-98425000D02*
X97960000Y-95245000D01*
X97960000Y-95245000D02*
X97905000Y-95190000D01*
%TO.N,/OUT5*%
X96690000Y-98425000D02*
X96690000Y-95245000D01*
X96690000Y-95245000D02*
X96635000Y-95190000D01*
%TO.N,/OUT6*%
X95420000Y-98425000D02*
X95420000Y-95245000D01*
X95420000Y-95245000D02*
X95365000Y-95190000D01*
%TO.N,/OUT7*%
X94150000Y-98425000D02*
X94150000Y-95245000D01*
X94150000Y-95245000D02*
X94095000Y-95190000D01*
%TO.N,/UART-TX*%
X90250000Y-79537242D02*
X90287242Y-79500000D01*
X90287242Y-79500000D02*
X97520000Y-79500000D01*
X97520000Y-79500000D02*
X99260000Y-81240000D01*
X99260000Y-81240000D02*
X104750000Y-81240000D01*
%TO.N,/MOTOR_IN1*%
X103281600Y-78801600D02*
X91750000Y-78801600D01*
X104450000Y-79970000D02*
X103281600Y-78801600D01*
X104750000Y-79970000D02*
X104450000Y-79970000D01*
%TO.N,/UART-RX*%
X89500000Y-80250000D02*
X89514959Y-80264959D01*
X89514959Y-80264959D02*
X97494959Y-80264959D01*
X97494959Y-80264959D02*
X99740000Y-82510000D01*
X99740000Y-82510000D02*
X104750000Y-82510000D01*
%TO.N,/MOTOR_IN2*%
X89125000Y-82125000D02*
X88240000Y-81240000D01*
X88240000Y-81240000D02*
X87250000Y-81240000D01*
%TO.N,/IO0*%
X90500000Y-93860036D02*
X96970034Y-93860036D01*
X96970034Y-93860036D02*
X97049998Y-93940000D01*
X97049998Y-93940000D02*
X104750000Y-93940000D01*
%TO.N,GND*%
X82250000Y-100437500D02*
X82250000Y-99250000D01*
X82250000Y-99250000D02*
X82000000Y-99000000D01*
X80562500Y-99250000D02*
X81750000Y-99250000D01*
D48*
X80975000Y-115262500D02*
X77575000Y-118662500D01*
X86725000Y-118662500D02*
X77575000Y-118662500D01*
X76000000Y-117087500D02*
X77575000Y-118662500D01*
D47*
X81750000Y-99250000D02*
X82000000Y-99000000D01*
X82250000Y-98750000D02*
X82000000Y-99000000D01*
X83437500Y-98750000D02*
X82250000Y-98750000D01*
%TO.N,+3.3V*%
X102750000Y-125250000D02*
X100500000Y-125250000D01*
D50*
X87300000Y-78750000D02*
X87250000Y-78700000D01*
D47*
X103210000Y-126925000D02*
X103210000Y-125710000D01*
X103210000Y-125710000D02*
X102750000Y-125250000D01*
D50*
X88500000Y-78750000D02*
X87300000Y-78750000D01*
D47*
%TO.N,/Sound2*%
X80562500Y-98750000D02*
X76602500Y-98750000D01*
X76602500Y-98750000D02*
X76250000Y-99102500D01*
%TO.N,/Sound1*%
X77937500Y-98250000D02*
X76250000Y-96562500D01*
X80562500Y-98250000D02*
X77937500Y-98250000D01*
%TO.N,/MOTOR_SENSE*%
X104700000Y-78750000D02*
X104750000Y-78700000D01*
X104445000Y-123875000D02*
X107020000Y-126450000D01*
X107020000Y-125230000D02*
X107500000Y-124750000D01*
X101625000Y-123875000D02*
X104445000Y-123875000D01*
X107020000Y-126925000D02*
X107020000Y-125230000D01*
X107020000Y-126450000D02*
X107020000Y-126925000D01*
%TO.N,Net-(U7-EN)*%
X86030000Y-79970000D02*
X87250000Y-79970000D01*
X85000000Y-81000000D02*
X85000000Y-82712500D01*
X85000000Y-81000000D02*
X86030000Y-79970000D01*
D48*
%TO.N,/MOTOR2*%
X109885000Y-132325000D02*
X110210000Y-132000000D01*
X107020000Y-132325000D02*
X109885000Y-132325000D01*
%TO.N,/MOTOR1*%
X104480000Y-132500000D02*
X104480000Y-133882000D01*
X110001000Y-134749000D02*
X112750000Y-132000000D01*
X104480000Y-133882000D02*
X105347000Y-134749000D01*
X105347000Y-134749000D02*
X110001000Y-134749000D01*
D47*
%TO.N,/MOTOR_IN1*%
X104000000Y-126270000D02*
X104480000Y-126750000D01*
X104000000Y-125250000D02*
X104000000Y-126270000D01*
X104720000Y-80000000D02*
X104750000Y-79970000D01*
%TO.N,/MOTOR_IN2*%
X105750000Y-126750000D02*
X105750000Y-126218505D01*
X104031495Y-124500000D02*
X101000000Y-124500000D01*
X105750000Y-126218505D02*
X104031495Y-124500000D01*
%TO.N,unconnected-(U7-IO38-Pad31)*%
X104640000Y-88750000D02*
X104750000Y-88860000D01*
%TO.N,unconnected-(U7-MTDO{slash}IO40-Pad33)*%
X104680000Y-86250000D02*
X104750000Y-86320000D01*
%TO.N,unconnected-(U7-MTCK{slash}IO39-Pad32)*%
X104660000Y-87500000D02*
X104750000Y-87590000D01*
%TO.N,unconnected-(U7-MTDI{slash}IO41-Pad34)*%
X104700000Y-85000000D02*
X104750000Y-85050000D01*
%TO.N,unconnected-(U7-IO7-Pad7)*%
X87250000Y-85050000D02*
X87700000Y-85050000D01*
X86950000Y-85050000D02*
X87250000Y-85050000D01*
%TO.N,/IO0*%
X82000000Y-89960000D02*
X84460000Y-89960000D01*
X84460000Y-89960000D02*
X84500000Y-90000000D01*
%TD*%
%TA.AperFunction,Conductor*%
%TO.N,/Out5V*%
G36*
X94693039Y-108519685D02*
G01*
X94738794Y-108572489D01*
X94750000Y-108624000D01*
X94750000Y-124876000D01*
X94730315Y-124943039D01*
X94677511Y-124988794D01*
X94626000Y-125000000D01*
X90124000Y-125000000D01*
X90056961Y-124980315D01*
X90011206Y-124927511D01*
X90000000Y-124876000D01*
X90000000Y-121250000D01*
X84374000Y-121250000D01*
X84306961Y-121230315D01*
X84261206Y-121177511D01*
X84250000Y-121126000D01*
X84250000Y-119874000D01*
X84269685Y-119806961D01*
X84322489Y-119761206D01*
X84374000Y-119750000D01*
X89250000Y-119750000D01*
X89250000Y-117787000D01*
X89269685Y-117719961D01*
X89322489Y-117674206D01*
X89374000Y-117663000D01*
X89745465Y-117663000D01*
X89789840Y-117671826D01*
X89789845Y-117671812D01*
X89789995Y-117671857D01*
X89792916Y-117672438D01*
X89795672Y-117673580D01*
X89795676Y-117673580D01*
X89795677Y-117673581D01*
X89931003Y-117700500D01*
X89931006Y-117700500D01*
X90068996Y-117700500D01*
X90160040Y-117682389D01*
X90204328Y-117673580D01*
X90268069Y-117647177D01*
X90331807Y-117620777D01*
X90331808Y-117620776D01*
X90331811Y-117620775D01*
X90446543Y-117544114D01*
X90544114Y-117446543D01*
X90620775Y-117331811D01*
X90673580Y-117204328D01*
X90700500Y-117068994D01*
X90700500Y-116931006D01*
X90700500Y-116931003D01*
X90673581Y-116795677D01*
X90673580Y-116795676D01*
X90673580Y-116795672D01*
X90673578Y-116795667D01*
X90620777Y-116668192D01*
X90544112Y-116553454D01*
X90409045Y-116418387D01*
X90294307Y-116341722D01*
X90166832Y-116288921D01*
X90166822Y-116288918D01*
X90031496Y-116262000D01*
X90031494Y-116262000D01*
X90031493Y-116262000D01*
X89374000Y-116262000D01*
X89306961Y-116242315D01*
X89261206Y-116189511D01*
X89250000Y-116138000D01*
X89250000Y-108624000D01*
X89269685Y-108556961D01*
X89322489Y-108511206D01*
X89374000Y-108500000D01*
X94626000Y-108500000D01*
X94693039Y-108519685D01*
G37*
%TD.AperFunction*%
%TD*%
%TA.AperFunction,Conductor*%
%TO.N,GND*%
G36*
X99443039Y-107821785D02*
G01*
X99488794Y-107874589D01*
X99500000Y-107926100D01*
X99500000Y-125500000D01*
X100295586Y-125500000D01*
X100357586Y-125516612D01*
X100383394Y-125531513D01*
X100460228Y-125552100D01*
X102126000Y-125552100D01*
X102193039Y-125571785D01*
X102238794Y-125624589D01*
X102250000Y-125676100D01*
X102250000Y-128000000D01*
X106250000Y-128000000D01*
X108000000Y-128000000D01*
X108000000Y-125710744D01*
X108019685Y-125643705D01*
X108056543Y-125609853D01*
X108055405Y-125608311D01*
X108075617Y-125593394D01*
X108172150Y-125522150D01*
X108252793Y-125412882D01*
X108286731Y-125315892D01*
X108297646Y-125284701D01*
X108297646Y-125284699D01*
X108300500Y-125254269D01*
X108300500Y-124245730D01*
X108297646Y-124215300D01*
X108297646Y-124215298D01*
X108264006Y-124119163D01*
X108252793Y-124087118D01*
X108172150Y-123977850D01*
X108062882Y-123897207D01*
X108062881Y-123897206D01*
X108055405Y-123891689D01*
X108056765Y-123889845D01*
X108055801Y-123888906D01*
X108042797Y-123882968D01*
X108031264Y-123865022D01*
X108015978Y-123850143D01*
X108012027Y-123835089D01*
X108005023Y-123824190D01*
X108000000Y-123789255D01*
X108000000Y-123624000D01*
X108019685Y-123556961D01*
X108072489Y-123511206D01*
X108124000Y-123500000D01*
X114250500Y-123500000D01*
X114317539Y-123519685D01*
X114363294Y-123572489D01*
X114374500Y-123624000D01*
X114374500Y-130876000D01*
X114354815Y-130943039D01*
X114302011Y-130988794D01*
X114250500Y-131000000D01*
X113937997Y-131000000D01*
X113870958Y-130980315D01*
X113838227Y-130949634D01*
X113835284Y-130945646D01*
X113822150Y-130927850D01*
X113712882Y-130847207D01*
X113712880Y-130847206D01*
X113584700Y-130802353D01*
X113554270Y-130799500D01*
X113554266Y-130799500D01*
X111945734Y-130799500D01*
X111945730Y-130799500D01*
X111915300Y-130802353D01*
X111915298Y-130802353D01*
X111787119Y-130847206D01*
X111787117Y-130847207D01*
X111677850Y-130927850D01*
X111661773Y-130949634D01*
X111606125Y-130991885D01*
X111562003Y-131000000D01*
X110916321Y-131000000D01*
X110849282Y-130980315D01*
X110843433Y-130976316D01*
X110839201Y-130973241D01*
X110670836Y-130887454D01*
X110491118Y-130829059D01*
X110304486Y-130799500D01*
X110304481Y-130799500D01*
X110115519Y-130799500D01*
X110115514Y-130799500D01*
X109928881Y-130829059D01*
X109749163Y-130887454D01*
X109580798Y-130973241D01*
X109576567Y-130976316D01*
X109510761Y-130999798D01*
X109503679Y-131000000D01*
X106250000Y-131000000D01*
X106250000Y-133250000D01*
X106545986Y-133250000D01*
X106613025Y-133269685D01*
X106614873Y-133270895D01*
X106641769Y-133288867D01*
X106641772Y-133288867D01*
X106641773Y-133288868D01*
X106700247Y-133300499D01*
X106700250Y-133300500D01*
X106700252Y-133300500D01*
X107339750Y-133300500D01*
X107339751Y-133300499D01*
X107398231Y-133288867D01*
X107425123Y-133270897D01*
X107491801Y-133250020D01*
X107494014Y-133250000D01*
X108876000Y-133250000D01*
X108943039Y-133269685D01*
X108988794Y-133322489D01*
X109000000Y-133374000D01*
X109000000Y-133924500D01*
X108980315Y-133991539D01*
X108927511Y-134037294D01*
X108876000Y-134048500D01*
X105876272Y-134048500D01*
X105820818Y-134035409D01*
X105445312Y-133847656D01*
X105442902Y-133845919D01*
X105441339Y-133845579D01*
X105413085Y-133824428D01*
X105286319Y-133697662D01*
X105252834Y-133636339D01*
X105250000Y-133609981D01*
X105250000Y-131250000D01*
X103960767Y-131250000D01*
X103893728Y-131230315D01*
X103867055Y-131207204D01*
X103848345Y-131185611D01*
X103848344Y-131185610D01*
X103848338Y-131185603D01*
X103830757Y-131167660D01*
X103830756Y-131167659D01*
X103830754Y-131167657D01*
X103830752Y-131167656D01*
X103830750Y-131167654D01*
X103750940Y-131123011D01*
X103750935Y-131123009D01*
X103683903Y-131103326D01*
X103683899Y-131103325D01*
X103683898Y-131103325D01*
X103626000Y-131095000D01*
X103625996Y-131095000D01*
X102691870Y-131095000D01*
X102686201Y-131093975D01*
X102682960Y-131094679D01*
X102666231Y-131090367D01*
X102648477Y-131087159D01*
X102644109Y-131085527D01*
X102615923Y-131072510D01*
X102584797Y-131063370D01*
X102580607Y-131061805D01*
X102556078Y-131043423D01*
X102530285Y-131026846D01*
X102528374Y-131022662D01*
X102524695Y-131019905D01*
X102513995Y-130991175D01*
X102501262Y-130963290D01*
X102500703Y-130955482D01*
X102500311Y-130954428D01*
X102500549Y-130953332D01*
X102500000Y-130945646D01*
X102500000Y-130487500D01*
X94500000Y-130499999D01*
X94500000Y-135125500D01*
X94480315Y-135192539D01*
X94427511Y-135238294D01*
X94376000Y-135249500D01*
X72999500Y-135249500D01*
X72932461Y-135229815D01*
X72886706Y-135177011D01*
X72875500Y-135125500D01*
X72875500Y-113374000D01*
X72895185Y-113306961D01*
X72947989Y-113261206D01*
X72999500Y-113250000D01*
X79126000Y-113250000D01*
X79193039Y-113269685D01*
X79238794Y-113322489D01*
X79250000Y-113374000D01*
X79250000Y-133250000D01*
X89500000Y-133250000D01*
X89500000Y-128000000D01*
X88124000Y-128000000D01*
X88056961Y-127980315D01*
X88011206Y-127927511D01*
X88000000Y-127876000D01*
X88000000Y-124374000D01*
X88019685Y-124306961D01*
X88072489Y-124261206D01*
X88124000Y-124250000D01*
X89626000Y-124250000D01*
X89693039Y-124269685D01*
X89738794Y-124322489D01*
X89750000Y-124374000D01*
X89750000Y-125500000D01*
X95000000Y-125500000D01*
X95000000Y-107926100D01*
X95019685Y-107859061D01*
X95072489Y-107813306D01*
X95124000Y-107802100D01*
X99376000Y-107802100D01*
X99443039Y-107821785D01*
G37*
%TD.AperFunction*%
%TD*%
%TA.AperFunction,Conductor*%
%TO.N,+3.3V*%
G36*
X87943039Y-78474685D02*
G01*
X87988794Y-78527489D01*
X88000000Y-78579000D01*
X88000000Y-78895500D01*
X87980315Y-78962539D01*
X87927511Y-79008294D01*
X87876000Y-79019500D01*
X86452129Y-79019500D01*
X86452123Y-79019501D01*
X86392516Y-79025908D01*
X86257671Y-79076202D01*
X86257664Y-79076206D01*
X86142455Y-79162452D01*
X86142452Y-79162455D01*
X86056206Y-79277664D01*
X86056201Y-79277673D01*
X86052316Y-79288090D01*
X86010442Y-79344021D01*
X85958424Y-79365207D01*
X85958582Y-79365797D01*
X85953888Y-79367054D01*
X85952331Y-79367689D01*
X85950737Y-79367898D01*
X85797596Y-79408933D01*
X85797591Y-79408936D01*
X85688142Y-79472126D01*
X85688142Y-79472127D01*
X85660299Y-79488201D01*
X85285319Y-79863181D01*
X85223996Y-79896666D01*
X85197638Y-79899500D01*
X84499998Y-79899500D01*
X84499980Y-79899501D01*
X84397203Y-79910000D01*
X84397200Y-79910001D01*
X84230668Y-79965185D01*
X84230659Y-79965189D01*
X84150793Y-80014451D01*
X84083400Y-80032891D01*
X84016737Y-80011968D01*
X84016246Y-80011638D01*
X83900771Y-79933567D01*
X83763699Y-79889826D01*
X83694789Y-79878274D01*
X83694794Y-79878274D01*
X83591884Y-79875870D01*
X83591772Y-79875869D01*
X83551001Y-79874917D01*
X83546350Y-79875475D01*
X83546294Y-79875484D01*
X83546294Y-79875483D01*
X83546026Y-79875515D01*
X83546007Y-79875515D01*
X83543940Y-79875763D01*
X83543867Y-79875774D01*
X83507751Y-79880111D01*
X83495229Y-79881615D01*
X83480446Y-79882500D01*
X82550702Y-79882500D01*
X82483663Y-79862815D01*
X82479680Y-79860146D01*
X82472731Y-79855291D01*
X82456536Y-79844435D01*
X82456532Y-79844433D01*
X82325658Y-79784663D01*
X82258613Y-79764976D01*
X82165877Y-79751643D01*
X82116196Y-79744500D01*
X81883804Y-79744500D01*
X81869483Y-79744777D01*
X81864200Y-79744880D01*
X81854584Y-79745253D01*
X81851506Y-79745432D01*
X81835066Y-79746389D01*
X81798389Y-79754601D01*
X81797964Y-79751643D01*
X81776915Y-79754670D01*
X81706476Y-79769992D01*
X81655813Y-79793125D01*
X81651860Y-79794092D01*
X81629280Y-79802675D01*
X81607168Y-79814927D01*
X81607167Y-79814926D01*
X81602941Y-79817267D01*
X81575595Y-79829756D01*
X81556653Y-79841928D01*
X81557122Y-79842658D01*
X81541910Y-79851089D01*
X81541905Y-79851092D01*
X81513276Y-79866958D01*
X81453169Y-79882500D01*
X80604000Y-79882500D01*
X80536961Y-79862815D01*
X80491206Y-79810011D01*
X80480000Y-79758500D01*
X80480000Y-79157057D01*
X80480881Y-79142303D01*
X80480963Y-79141612D01*
X80481381Y-79138129D01*
X80485388Y-79118416D01*
X80487966Y-79109513D01*
X80496611Y-79064025D01*
X80505500Y-78969644D01*
X80505500Y-78636999D01*
X80525185Y-78569960D01*
X80577989Y-78524205D01*
X80629500Y-78512999D01*
X81525002Y-78512999D01*
X81525008Y-78512999D01*
X81592135Y-78506141D01*
X81604735Y-78505500D01*
X82395260Y-78505500D01*
X82407861Y-78506141D01*
X82474991Y-78513000D01*
X83525008Y-78512999D01*
X83592135Y-78506141D01*
X83604735Y-78505500D01*
X86296077Y-78505500D01*
X86296082Y-78505500D01*
X86400424Y-78494614D01*
X86450510Y-78484048D01*
X86522064Y-78460981D01*
X86560110Y-78455000D01*
X87876000Y-78455000D01*
X87943039Y-78474685D01*
G37*
%TD.AperFunction*%
%TD*%
%TA.AperFunction,Conductor*%
%TO.N,VCC*%
G36*
X89193039Y-121519685D02*
G01*
X89238794Y-121572489D01*
X89250000Y-121624000D01*
X89250000Y-123876000D01*
X89230315Y-123943039D01*
X89177511Y-123988794D01*
X89126000Y-124000000D01*
X87750000Y-124000000D01*
X87750000Y-124818789D01*
X87743042Y-124859743D01*
X87714853Y-124940302D01*
X87712000Y-124970730D01*
X87712000Y-126029269D01*
X87714853Y-126059698D01*
X87727997Y-126097261D01*
X87743041Y-126140255D01*
X87750000Y-126181207D01*
X87750000Y-128250000D01*
X89126000Y-128250000D01*
X89193039Y-128269685D01*
X89238794Y-128322489D01*
X89250000Y-128374000D01*
X89250000Y-132876000D01*
X89230315Y-132943039D01*
X89177511Y-132988794D01*
X89126000Y-133000000D01*
X79874000Y-133000000D01*
X79806961Y-132980315D01*
X79761206Y-132927511D01*
X79750000Y-132876000D01*
X79750000Y-125124000D01*
X79769685Y-125056961D01*
X79822489Y-125011206D01*
X79874000Y-125000000D01*
X83250000Y-125000000D01*
X83250000Y-121624000D01*
X83269685Y-121556961D01*
X83322489Y-121511206D01*
X83374000Y-121500000D01*
X89126000Y-121500000D01*
X89193039Y-121519685D01*
G37*
%TD.AperFunction*%
%TD*%
%TA.AperFunction,Conductor*%
%TO.N,VCC*%
G36*
X102193039Y-130769685D02*
G01*
X102238794Y-130822489D01*
X102250000Y-130874000D01*
X102250000Y-131250000D01*
X102490986Y-131250000D01*
X102558025Y-131269685D01*
X102559873Y-131270895D01*
X102586769Y-131288867D01*
X102586772Y-131288867D01*
X102586773Y-131288868D01*
X102645247Y-131300499D01*
X102645250Y-131300500D01*
X103626000Y-131300500D01*
X103693039Y-131320185D01*
X103738794Y-131372989D01*
X103750000Y-131424500D01*
X103750000Y-135125500D01*
X103730315Y-135192539D01*
X103677511Y-135238294D01*
X103626000Y-135249500D01*
X94874000Y-135249500D01*
X94806961Y-135229815D01*
X94761206Y-135177011D01*
X94750000Y-135125500D01*
X94750000Y-130874000D01*
X94769685Y-130806961D01*
X94822489Y-130761206D01*
X94874000Y-130750000D01*
X102126000Y-130750000D01*
X102193039Y-130769685D01*
G37*
%TD.AperFunction*%
%TD*%
%TA.AperFunction,Conductor*%
%TO.N,GND*%
G36*
X105693039Y-76520185D02*
G01*
X105738794Y-76572989D01*
X105750000Y-76624500D01*
X105750000Y-77841595D01*
X105730315Y-77908634D01*
X105677511Y-77954389D01*
X105608353Y-77964333D01*
X105575917Y-77955031D01*
X105569992Y-77952415D01*
X105544868Y-77949500D01*
X105544865Y-77949500D01*
X104616694Y-77949500D01*
X104554541Y-77931249D01*
X104553933Y-77932304D01*
X104546896Y-77928241D01*
X104546895Y-77928240D01*
X104455205Y-77875302D01*
X104352938Y-77847900D01*
X104352937Y-77847900D01*
X91748880Y-77847900D01*
X91681841Y-77828215D01*
X91661199Y-77811581D01*
X91615014Y-77765396D01*
X91615006Y-77765390D01*
X91478087Y-77686341D01*
X91478083Y-77686339D01*
X91478081Y-77686338D01*
X91325354Y-77645415D01*
X91167240Y-77645415D01*
X91014513Y-77686338D01*
X91014506Y-77686341D01*
X90877587Y-77765390D01*
X90877579Y-77765396D01*
X90765778Y-77877197D01*
X90765774Y-77877202D01*
X90730673Y-77938000D01*
X90680106Y-77986216D01*
X90623286Y-78000000D01*
X88203918Y-78000000D01*
X88153831Y-77989434D01*
X88069992Y-77952415D01*
X88044865Y-77949500D01*
X86455143Y-77949500D01*
X86455117Y-77949502D01*
X86430012Y-77952413D01*
X86430008Y-77952415D01*
X86346168Y-77989434D01*
X86296082Y-78000000D01*
X80000000Y-78000000D01*
X80000000Y-78969644D01*
X79991355Y-79015132D01*
X79985123Y-79030935D01*
X79985122Y-79030937D01*
X79982026Y-79056722D01*
X79974500Y-79119398D01*
X79974500Y-79880602D01*
X79979282Y-79920423D01*
X79985122Y-79969063D01*
X79991353Y-79984861D01*
X80000000Y-80030354D01*
X80000000Y-80250000D01*
X80116196Y-80250000D01*
X80183235Y-80269685D01*
X80191111Y-80275188D01*
X80252658Y-80321861D01*
X80393436Y-80377377D01*
X80481898Y-80388000D01*
X80481903Y-80388000D01*
X81518097Y-80388000D01*
X81518102Y-80388000D01*
X81606564Y-80377377D01*
X81747342Y-80321861D01*
X81808879Y-80275195D01*
X81829927Y-80267195D01*
X81848869Y-80255023D01*
X81869918Y-80251996D01*
X81874190Y-80250373D01*
X81883804Y-80250000D01*
X82116196Y-80250000D01*
X82183235Y-80269685D01*
X82191111Y-80275188D01*
X82252658Y-80321861D01*
X82393436Y-80377377D01*
X82481898Y-80388000D01*
X82481903Y-80388000D01*
X83518096Y-80388000D01*
X83518102Y-80388000D01*
X83606564Y-80377377D01*
X83606565Y-80377376D01*
X83611216Y-80376818D01*
X83680124Y-80388370D01*
X83731848Y-80435342D01*
X83750000Y-80499934D01*
X83750000Y-84000000D01*
X85876000Y-84000000D01*
X85943039Y-84019685D01*
X85988794Y-84072489D01*
X86000000Y-84124000D01*
X86000000Y-94663900D01*
X85980315Y-94730939D01*
X85927511Y-94776694D01*
X85876000Y-94787900D01*
X84933846Y-94787900D01*
X84871846Y-94771287D01*
X84731786Y-94690424D01*
X84731785Y-94690423D01*
X84731784Y-94690423D01*
X84579057Y-94649500D01*
X84420943Y-94649500D01*
X84268216Y-94690423D01*
X84268209Y-94690426D01*
X84131290Y-94769475D01*
X84131282Y-94769481D01*
X84019481Y-94881282D01*
X84019475Y-94881290D01*
X83940426Y-95018209D01*
X83940423Y-95018216D01*
X83899500Y-95170943D01*
X83899500Y-95329056D01*
X83940423Y-95481783D01*
X83940426Y-95481790D01*
X84019475Y-95618709D01*
X84019479Y-95618714D01*
X84019480Y-95618716D01*
X84131284Y-95730520D01*
X84131286Y-95730521D01*
X84131290Y-95730524D01*
X84268209Y-95809573D01*
X84268216Y-95809577D01*
X84420943Y-95850500D01*
X84420945Y-95850500D01*
X84579055Y-95850500D01*
X84579057Y-95850500D01*
X84731784Y-95809577D01*
X84868716Y-95730520D01*
X84970817Y-95628419D01*
X85032140Y-95594934D01*
X85058498Y-95592100D01*
X85876000Y-95592100D01*
X85943039Y-95611785D01*
X85988794Y-95664589D01*
X86000000Y-95716100D01*
X86000000Y-98085609D01*
X85980315Y-98152648D01*
X85927511Y-98198403D01*
X85858353Y-98208347D01*
X85841935Y-98204838D01*
X85287889Y-98046539D01*
X85228836Y-98009195D01*
X85214571Y-97989316D01*
X85136320Y-97853780D01*
X85024516Y-97741976D01*
X85024514Y-97741975D01*
X85024509Y-97741971D01*
X84887590Y-97662922D01*
X84887586Y-97662920D01*
X84887584Y-97662919D01*
X84734857Y-97621996D01*
X84576743Y-97621996D01*
X84424016Y-97662919D01*
X84424015Y-97662919D01*
X84326744Y-97719078D01*
X84258844Y-97735549D01*
X84197166Y-97715657D01*
X83896021Y-97519912D01*
X83850540Y-97466872D01*
X83839600Y-97415945D01*
X83839600Y-97337214D01*
X83839600Y-97337212D01*
X83812198Y-97234945D01*
X83759261Y-97143255D01*
X83191645Y-96575640D01*
X83099955Y-96522702D01*
X82997688Y-96495300D01*
X82356452Y-96495300D01*
X82289413Y-96475615D01*
X82288873Y-96475267D01*
X82039936Y-96313458D01*
X81994456Y-96260418D01*
X81983521Y-96208297D01*
X82000000Y-94500000D01*
X79249999Y-94500000D01*
X79278024Y-97722822D01*
X79258923Y-97790030D01*
X79206519Y-97836242D01*
X79154029Y-97847900D01*
X78155417Y-97847900D01*
X78088378Y-97828215D01*
X78067736Y-97811581D01*
X77586819Y-97330664D01*
X77553334Y-97269341D01*
X77550500Y-97242983D01*
X77550500Y-95769403D01*
X77550500Y-95769398D01*
X77539877Y-95680936D01*
X77484361Y-95540158D01*
X77484360Y-95540157D01*
X77484360Y-95540156D01*
X77392922Y-95419577D01*
X77272343Y-95328139D01*
X77131561Y-95272622D01*
X77085926Y-95267142D01*
X77043102Y-95262000D01*
X75456898Y-95262000D01*
X75417853Y-95266688D01*
X75368438Y-95272622D01*
X75227656Y-95328139D01*
X75107077Y-95419577D01*
X75015639Y-95540156D01*
X74960122Y-95680938D01*
X74955900Y-95716100D01*
X74949500Y-95769398D01*
X74949500Y-97355602D01*
X74949622Y-97356614D01*
X74960122Y-97444061D01*
X75015639Y-97584843D01*
X75107077Y-97705422D01*
X75227656Y-97796860D01*
X75227657Y-97796860D01*
X75227658Y-97796861D01*
X75368436Y-97852377D01*
X75389060Y-97854853D01*
X75405330Y-97861829D01*
X75422911Y-97863904D01*
X75436772Y-97875312D01*
X75453274Y-97882388D01*
X75463189Y-97897053D01*
X75476859Y-97908304D01*
X75482352Y-97925397D01*
X75492408Y-97940270D01*
X75492820Y-97957967D01*
X75498238Y-97974823D01*
X75493618Y-97992172D01*
X75494037Y-98010121D01*
X75484799Y-98025294D01*
X75480261Y-98042340D01*
X75463026Y-98061058D01*
X75457832Y-98069591D01*
X75452727Y-98074246D01*
X75402781Y-98110534D01*
X75297619Y-98215695D01*
X75295507Y-98217622D01*
X75266564Y-98231738D01*
X75238311Y-98247166D01*
X75233978Y-98247631D01*
X75232709Y-98248251D01*
X75230568Y-98247998D01*
X75211953Y-98250000D01*
X74300500Y-98250000D01*
X74233461Y-98230315D01*
X74187706Y-98177511D01*
X74176500Y-98126000D01*
X74176500Y-86256940D01*
X74196185Y-86189901D01*
X74212819Y-86169259D01*
X77205259Y-83176819D01*
X77266582Y-83143334D01*
X77292940Y-83140500D01*
X81122084Y-83140500D01*
X81189123Y-83160185D01*
X81209765Y-83176819D01*
X81250500Y-83217554D01*
X81250505Y-83217558D01*
X81378287Y-83310396D01*
X81397006Y-83323996D01*
X81502484Y-83377740D01*
X81558360Y-83406211D01*
X81558363Y-83406212D01*
X81644476Y-83434191D01*
X81730591Y-83462171D01*
X81803639Y-83473740D01*
X81890678Y-83487527D01*
X81953813Y-83517456D01*
X81990744Y-83576768D01*
X81989746Y-83646631D01*
X81951136Y-83704863D01*
X81890678Y-83732473D01*
X81730589Y-83757829D01*
X81558363Y-83813787D01*
X81558360Y-83813788D01*
X81397002Y-83896006D01*
X81250505Y-84002441D01*
X81250500Y-84002445D01*
X81122445Y-84130500D01*
X81122441Y-84130505D01*
X81016006Y-84277002D01*
X80933788Y-84438360D01*
X80933787Y-84438363D01*
X80877829Y-84610589D01*
X80849500Y-84789448D01*
X80849500Y-84970551D01*
X80877829Y-85149410D01*
X80933787Y-85321636D01*
X80933788Y-85321639D01*
X81016006Y-85482997D01*
X81122441Y-85629494D01*
X81122445Y-85629499D01*
X81250500Y-85757554D01*
X81250505Y-85757558D01*
X81378287Y-85850396D01*
X81397006Y-85863996D01*
X81502484Y-85917740D01*
X81558360Y-85946211D01*
X81558363Y-85946212D01*
X81644476Y-85974191D01*
X81730591Y-86002171D01*
X81803639Y-86013740D01*
X81890678Y-86027527D01*
X81953813Y-86057456D01*
X81990744Y-86116768D01*
X81989746Y-86186631D01*
X81951136Y-86244863D01*
X81890678Y-86272473D01*
X81730589Y-86297829D01*
X81558363Y-86353787D01*
X81558360Y-86353788D01*
X81397002Y-86436006D01*
X81250505Y-86542441D01*
X81250500Y-86542445D01*
X81122445Y-86670500D01*
X81122441Y-86670505D01*
X81016006Y-86817002D01*
X80933788Y-86978360D01*
X80933787Y-86978363D01*
X80877829Y-87150589D01*
X80849500Y-87329448D01*
X80849500Y-87510551D01*
X80877829Y-87689410D01*
X80933787Y-87861636D01*
X80933788Y-87861639D01*
X81016006Y-88022997D01*
X81122441Y-88169494D01*
X81122445Y-88169499D01*
X81250500Y-88297554D01*
X81250505Y-88297558D01*
X81378287Y-88390396D01*
X81397006Y-88403996D01*
X81502484Y-88457740D01*
X81558360Y-88486211D01*
X81558363Y-88486212D01*
X81644476Y-88514191D01*
X81730591Y-88542171D01*
X81803639Y-88553740D01*
X81890678Y-88567527D01*
X81953813Y-88597456D01*
X81990744Y-88656768D01*
X81989746Y-88726631D01*
X81951136Y-88784863D01*
X81890678Y-88812473D01*
X81730589Y-88837829D01*
X81558363Y-88893787D01*
X81558360Y-88893788D01*
X81397002Y-88976006D01*
X81250505Y-89082441D01*
X81250500Y-89082445D01*
X81122445Y-89210500D01*
X81122441Y-89210505D01*
X81016006Y-89357002D01*
X80933788Y-89518360D01*
X80933787Y-89518363D01*
X80877829Y-89690589D01*
X80849500Y-89869448D01*
X80849500Y-90050551D01*
X80877829Y-90229410D01*
X80933787Y-90401636D01*
X80933788Y-90401639D01*
X80974513Y-90481564D01*
X81016003Y-90562993D01*
X81016006Y-90562997D01*
X81122441Y-90709494D01*
X81122445Y-90709499D01*
X81250500Y-90837554D01*
X81250505Y-90837558D01*
X81374371Y-90927551D01*
X81397006Y-90943996D01*
X81494082Y-90993459D01*
X81558360Y-91026211D01*
X81558363Y-91026212D01*
X81644476Y-91054191D01*
X81730591Y-91082171D01*
X81813429Y-91095291D01*
X81909449Y-91110500D01*
X81909454Y-91110500D01*
X82090551Y-91110500D01*
X82177259Y-91096765D01*
X82269409Y-91082171D01*
X82441639Y-91026211D01*
X82602994Y-90943996D01*
X82749501Y-90837553D01*
X82877553Y-90709501D01*
X82983996Y-90562994D01*
X82984918Y-90561183D01*
X83051861Y-90429805D01*
X83099835Y-90379009D01*
X83162345Y-90362100D01*
X83635777Y-90362100D01*
X83702816Y-90381785D01*
X83748571Y-90434589D01*
X83758893Y-90471320D01*
X83760122Y-90481561D01*
X83815639Y-90622343D01*
X83907077Y-90742922D01*
X84027656Y-90834360D01*
X84027657Y-90834360D01*
X84027658Y-90834361D01*
X84155171Y-90884646D01*
X84210314Y-90927551D01*
X84233507Y-90993459D01*
X84217386Y-91061444D01*
X84167070Y-91109920D01*
X84155178Y-91115351D01*
X84103663Y-91135665D01*
X84027656Y-91165639D01*
X83907077Y-91257077D01*
X83815639Y-91377656D01*
X83760122Y-91518438D01*
X83754188Y-91567853D01*
X83749500Y-91606898D01*
X83749500Y-92393102D01*
X83755126Y-92439954D01*
X83760122Y-92481561D01*
X83815639Y-92622343D01*
X83907074Y-92742917D01*
X83907078Y-92742922D01*
X83907082Y-92742925D01*
X83913073Y-92748916D01*
X83910443Y-92751545D01*
X83941786Y-92793628D01*
X83949500Y-92836680D01*
X83949500Y-93328846D01*
X83980261Y-93483489D01*
X83980264Y-93483501D01*
X84040602Y-93629172D01*
X84040609Y-93629185D01*
X84128210Y-93760288D01*
X84128213Y-93760292D01*
X84239707Y-93871786D01*
X84239711Y-93871789D01*
X84370814Y-93959390D01*
X84370827Y-93959397D01*
X84516498Y-94019735D01*
X84516503Y-94019737D01*
X84671153Y-94050499D01*
X84671156Y-94050500D01*
X84671158Y-94050500D01*
X84828844Y-94050500D01*
X84828845Y-94050499D01*
X84983497Y-94019737D01*
X85129179Y-93959394D01*
X85260289Y-93871789D01*
X85371789Y-93760289D01*
X85459394Y-93629179D01*
X85519737Y-93483497D01*
X85550500Y-93328842D01*
X85550500Y-92836680D01*
X85570185Y-92769641D01*
X85588226Y-92750215D01*
X85586927Y-92748916D01*
X85592913Y-92742928D01*
X85592922Y-92742922D01*
X85684361Y-92622342D01*
X85739877Y-92481564D01*
X85750500Y-92393102D01*
X85750500Y-91606898D01*
X85739877Y-91518436D01*
X85684361Y-91377658D01*
X85684360Y-91377657D01*
X85684360Y-91377656D01*
X85592922Y-91257077D01*
X85472343Y-91165639D01*
X85434339Y-91150652D01*
X85344826Y-91115353D01*
X85289685Y-91072449D01*
X85266492Y-91006541D01*
X85282612Y-90938557D01*
X85332929Y-90890080D01*
X85344814Y-90884651D01*
X85472342Y-90834361D01*
X85592922Y-90742922D01*
X85684361Y-90622342D01*
X85739877Y-90481564D01*
X85750500Y-90393102D01*
X85750500Y-89606898D01*
X85739877Y-89518436D01*
X85684361Y-89377658D01*
X85684360Y-89377657D01*
X85684360Y-89377656D01*
X85592922Y-89257077D01*
X85472343Y-89165639D01*
X85331561Y-89110122D01*
X85285926Y-89104642D01*
X85243102Y-89099500D01*
X84256898Y-89099500D01*
X84217853Y-89104188D01*
X84168438Y-89110122D01*
X84027656Y-89165639D01*
X83907077Y-89257077D01*
X83815638Y-89377658D01*
X83815637Y-89377660D01*
X83775520Y-89479390D01*
X83732614Y-89534534D01*
X83666707Y-89557727D01*
X83660166Y-89557900D01*
X83162345Y-89557900D01*
X83095306Y-89538215D01*
X83051861Y-89490195D01*
X82983997Y-89357007D01*
X82983996Y-89357006D01*
X82877558Y-89210505D01*
X82877554Y-89210500D01*
X82749499Y-89082445D01*
X82749494Y-89082441D01*
X82602997Y-88976006D01*
X82602996Y-88976005D01*
X82602994Y-88976004D01*
X82551300Y-88949664D01*
X82441639Y-88893788D01*
X82441636Y-88893787D01*
X82269410Y-88837829D01*
X82109321Y-88812473D01*
X82046186Y-88782544D01*
X82009255Y-88723232D01*
X82010253Y-88653370D01*
X82048863Y-88595137D01*
X82109321Y-88567527D01*
X82179425Y-88556422D01*
X82269409Y-88542171D01*
X82441639Y-88486211D01*
X82602994Y-88403996D01*
X82749501Y-88297553D01*
X82877553Y-88169501D01*
X82983996Y-88022994D01*
X83066211Y-87861639D01*
X83122171Y-87689409D01*
X83136765Y-87597259D01*
X83150500Y-87510551D01*
X83150500Y-87329448D01*
X83128894Y-87193039D01*
X83122171Y-87150591D01*
X83066211Y-86978361D01*
X83066211Y-86978360D01*
X83037740Y-86922484D01*
X82983996Y-86817006D01*
X82970396Y-86798287D01*
X82877558Y-86670505D01*
X82877554Y-86670500D01*
X82749499Y-86542445D01*
X82749494Y-86542441D01*
X82602997Y-86436006D01*
X82602996Y-86436005D01*
X82602994Y-86436004D01*
X82551300Y-86409664D01*
X82441639Y-86353788D01*
X82441636Y-86353787D01*
X82269410Y-86297829D01*
X82109321Y-86272473D01*
X82046186Y-86242544D01*
X82009255Y-86183232D01*
X82010253Y-86113370D01*
X82048863Y-86055137D01*
X82109321Y-86027527D01*
X82179425Y-86016422D01*
X82269409Y-86002171D01*
X82441639Y-85946211D01*
X82602994Y-85863996D01*
X82749501Y-85757553D01*
X82877553Y-85629501D01*
X82983996Y-85482994D01*
X83066211Y-85321639D01*
X83122171Y-85149409D01*
X83143084Y-85017369D01*
X83150500Y-84970551D01*
X83150500Y-84789448D01*
X83134019Y-84685397D01*
X83122171Y-84610591D01*
X83066211Y-84438361D01*
X83066211Y-84438360D01*
X83037740Y-84382484D01*
X82983996Y-84277006D01*
X82970396Y-84258287D01*
X82877558Y-84130505D01*
X82877554Y-84130500D01*
X82749499Y-84002445D01*
X82749494Y-84002441D01*
X82602997Y-83896006D01*
X82602996Y-83896005D01*
X82602994Y-83896004D01*
X82551300Y-83869664D01*
X82441639Y-83813788D01*
X82441636Y-83813787D01*
X82269410Y-83757829D01*
X82109321Y-83732473D01*
X82046186Y-83702544D01*
X82009255Y-83643232D01*
X82010253Y-83573370D01*
X82048863Y-83515137D01*
X82109321Y-83487527D01*
X82179425Y-83476422D01*
X82269409Y-83462171D01*
X82441639Y-83406211D01*
X82602994Y-83323996D01*
X82749501Y-83217553D01*
X82877553Y-83089501D01*
X82983996Y-82942994D01*
X83066211Y-82781639D01*
X83122171Y-82609409D01*
X83140495Y-82493716D01*
X83150500Y-82430551D01*
X83150500Y-82249448D01*
X83127250Y-82102658D01*
X83122171Y-82070591D01*
X83066211Y-81898361D01*
X83066211Y-81898360D01*
X83033262Y-81833696D01*
X82983996Y-81737006D01*
X82970340Y-81718210D01*
X82877558Y-81590505D01*
X82877554Y-81590500D01*
X82749499Y-81462445D01*
X82749494Y-81462441D01*
X82602997Y-81356006D01*
X82602996Y-81356005D01*
X82602994Y-81356004D01*
X82551300Y-81329664D01*
X82441639Y-81273788D01*
X82441636Y-81273787D01*
X82269410Y-81217829D01*
X82090551Y-81189500D01*
X82090546Y-81189500D01*
X81909454Y-81189500D01*
X81909449Y-81189500D01*
X81730589Y-81217829D01*
X81558363Y-81273787D01*
X81558360Y-81273788D01*
X81397002Y-81356006D01*
X81250505Y-81462441D01*
X81250500Y-81462445D01*
X81209765Y-81503181D01*
X81148442Y-81536666D01*
X81122084Y-81539500D01*
X76831153Y-81539500D01*
X76676510Y-81570260D01*
X76676502Y-81570262D01*
X76530824Y-81630604D01*
X76530814Y-81630609D01*
X76399711Y-81718210D01*
X76399707Y-81718213D01*
X73087181Y-85030740D01*
X73025858Y-85064225D01*
X72956166Y-85059241D01*
X72900233Y-85017369D01*
X72875816Y-84951905D01*
X72875500Y-84943059D01*
X72875500Y-76624500D01*
X72895185Y-76557461D01*
X72947989Y-76511706D01*
X72999500Y-76500500D01*
X105626000Y-76500500D01*
X105693039Y-76520185D01*
G37*
%TD.AperFunction*%
%TA.AperFunction,Conductor*%
G36*
X96943039Y-80686744D02*
G01*
X96988794Y-80739548D01*
X97000000Y-80791059D01*
X97000000Y-87126000D01*
X96980315Y-87193039D01*
X96927511Y-87238794D01*
X96876000Y-87250000D01*
X92124000Y-87250000D01*
X92056961Y-87230315D01*
X92011206Y-87177511D01*
X92000000Y-87126000D01*
X92000000Y-80791059D01*
X92019685Y-80724020D01*
X92072489Y-80678265D01*
X92124000Y-80667059D01*
X96876000Y-80667059D01*
X96943039Y-80686744D01*
G37*
%TD.AperFunction*%
%TD*%
%TA.AperFunction,Conductor*%
%TO.N,+5V*%
G36*
X78943039Y-108557185D02*
G01*
X78988794Y-108609989D01*
X79000000Y-108661500D01*
X79000000Y-109750000D01*
X83626000Y-109750000D01*
X83693039Y-109769685D01*
X83738794Y-109822489D01*
X83750000Y-109874000D01*
X83750000Y-116500000D01*
X88876000Y-116500000D01*
X88943039Y-116519685D01*
X88988794Y-116572489D01*
X89000000Y-116624000D01*
X89000000Y-117376000D01*
X88980315Y-117443039D01*
X88927511Y-117488794D01*
X88876000Y-117500000D01*
X82874000Y-117500000D01*
X82806961Y-117480315D01*
X82761206Y-117427511D01*
X82750000Y-117376000D01*
X82750000Y-112500000D01*
X72999500Y-112500000D01*
X72932461Y-112480315D01*
X72886706Y-112427511D01*
X72875500Y-112376000D01*
X72875500Y-108661500D01*
X72895185Y-108594461D01*
X72947989Y-108548706D01*
X72999500Y-108537500D01*
X78876000Y-108537500D01*
X78943039Y-108557185D01*
G37*
%TD.AperFunction*%
%TD*%
%TA.AperFunction,Conductor*%
%TO.N,+5V*%
G36*
X114317539Y-76520185D02*
G01*
X114363294Y-76572989D01*
X114374500Y-76624500D01*
X114374500Y-122876000D01*
X114354815Y-122943039D01*
X114302011Y-122988794D01*
X114250500Y-123000000D01*
X100874000Y-123000000D01*
X100806961Y-122980315D01*
X100761206Y-122927511D01*
X100750000Y-122876000D01*
X100750000Y-118640513D01*
X109569500Y-118640513D01*
X109569500Y-118829486D01*
X109599059Y-119016118D01*
X109657454Y-119195836D01*
X109743240Y-119364199D01*
X109854310Y-119517073D01*
X109987927Y-119650690D01*
X110140801Y-119761760D01*
X110220347Y-119802290D01*
X110309163Y-119847545D01*
X110309165Y-119847545D01*
X110309168Y-119847547D01*
X110405497Y-119878846D01*
X110488881Y-119905940D01*
X110675514Y-119935500D01*
X110675519Y-119935500D01*
X110864486Y-119935500D01*
X111051118Y-119905940D01*
X111230832Y-119847547D01*
X111399199Y-119761760D01*
X111552073Y-119650690D01*
X111685690Y-119517073D01*
X111796760Y-119364199D01*
X111882547Y-119195832D01*
X111940940Y-119016118D01*
X111970500Y-118829486D01*
X111970500Y-118640513D01*
X111940940Y-118453881D01*
X111882545Y-118274163D01*
X111796759Y-118105800D01*
X111685690Y-117952927D01*
X111552073Y-117819310D01*
X111399199Y-117708240D01*
X111230836Y-117622454D01*
X111051118Y-117564059D01*
X110864486Y-117534500D01*
X110864481Y-117534500D01*
X110675519Y-117534500D01*
X110675514Y-117534500D01*
X110488881Y-117564059D01*
X110309163Y-117622454D01*
X110140800Y-117708240D01*
X110053579Y-117771610D01*
X109987927Y-117819310D01*
X109987925Y-117819312D01*
X109987924Y-117819312D01*
X109854312Y-117952924D01*
X109854312Y-117952925D01*
X109854310Y-117952927D01*
X109806610Y-118018579D01*
X109743240Y-118105800D01*
X109657454Y-118274163D01*
X109599059Y-118453881D01*
X109569500Y-118640513D01*
X100750000Y-118640513D01*
X100750000Y-111905513D01*
X109569500Y-111905513D01*
X109569500Y-112094486D01*
X109599059Y-112281118D01*
X109657454Y-112460836D01*
X109743240Y-112629199D01*
X109854310Y-112782073D01*
X109987927Y-112915690D01*
X110140801Y-113026760D01*
X110220347Y-113067290D01*
X110309163Y-113112545D01*
X110309165Y-113112545D01*
X110309168Y-113112547D01*
X110405497Y-113143846D01*
X110488881Y-113170940D01*
X110675514Y-113200500D01*
X110675519Y-113200500D01*
X110864486Y-113200500D01*
X111051118Y-113170940D01*
X111230832Y-113112547D01*
X111399199Y-113026760D01*
X111552073Y-112915690D01*
X111685690Y-112782073D01*
X111796760Y-112629199D01*
X111882547Y-112460832D01*
X111940940Y-112281118D01*
X111970500Y-112094486D01*
X111970500Y-111905513D01*
X111940940Y-111718881D01*
X111882545Y-111539163D01*
X111796759Y-111370800D01*
X111685690Y-111217927D01*
X111552073Y-111084310D01*
X111399199Y-110973240D01*
X111230836Y-110887454D01*
X111051118Y-110829059D01*
X110864486Y-110799500D01*
X110864481Y-110799500D01*
X110675519Y-110799500D01*
X110675514Y-110799500D01*
X110488881Y-110829059D01*
X110309163Y-110887454D01*
X110140800Y-110973240D01*
X110053579Y-111036610D01*
X109987927Y-111084310D01*
X109987925Y-111084312D01*
X109987924Y-111084312D01*
X109854312Y-111217924D01*
X109854312Y-111217925D01*
X109854310Y-111217927D01*
X109806610Y-111283579D01*
X109743240Y-111370800D01*
X109657454Y-111539163D01*
X109599059Y-111718881D01*
X109569500Y-111905513D01*
X100750000Y-111905513D01*
X100750000Y-105874000D01*
X100769685Y-105806961D01*
X100822489Y-105761206D01*
X100874000Y-105750000D01*
X107000000Y-105750000D01*
X107000000Y-105115513D01*
X109569500Y-105115513D01*
X109569500Y-105304486D01*
X109599059Y-105491118D01*
X109657454Y-105670836D01*
X109726814Y-105806961D01*
X109743240Y-105839199D01*
X109854310Y-105992073D01*
X109987927Y-106125690D01*
X110140801Y-106236760D01*
X110220347Y-106277290D01*
X110309163Y-106322545D01*
X110309165Y-106322545D01*
X110309168Y-106322547D01*
X110405497Y-106353846D01*
X110488881Y-106380940D01*
X110675514Y-106410500D01*
X110675519Y-106410500D01*
X110864486Y-106410500D01*
X111051118Y-106380940D01*
X111230832Y-106322547D01*
X111399199Y-106236760D01*
X111552073Y-106125690D01*
X111685690Y-105992073D01*
X111796760Y-105839199D01*
X111882547Y-105670832D01*
X111940940Y-105491118D01*
X111970500Y-105304486D01*
X111970500Y-105115513D01*
X111940940Y-104928881D01*
X111882545Y-104749163D01*
X111796759Y-104580800D01*
X111685690Y-104427927D01*
X111552073Y-104294310D01*
X111399199Y-104183240D01*
X111230836Y-104097454D01*
X111051118Y-104039059D01*
X110864486Y-104009500D01*
X110864481Y-104009500D01*
X110675519Y-104009500D01*
X110675514Y-104009500D01*
X110488881Y-104039059D01*
X110309163Y-104097454D01*
X110140800Y-104183240D01*
X110053579Y-104246610D01*
X109987927Y-104294310D01*
X109987925Y-104294312D01*
X109987924Y-104294312D01*
X109854312Y-104427924D01*
X109854312Y-104427925D01*
X109854310Y-104427927D01*
X109806610Y-104493579D01*
X109743240Y-104580800D01*
X109657454Y-104749163D01*
X109599059Y-104928881D01*
X109569500Y-105115513D01*
X107000000Y-105115513D01*
X107000000Y-98390513D01*
X109569500Y-98390513D01*
X109569500Y-98579486D01*
X109599059Y-98766118D01*
X109657454Y-98945836D01*
X109743240Y-99114199D01*
X109854310Y-99267073D01*
X109987927Y-99400690D01*
X110140801Y-99511760D01*
X110220347Y-99552290D01*
X110309163Y-99597545D01*
X110309165Y-99597545D01*
X110309168Y-99597547D01*
X110405497Y-99628846D01*
X110488881Y-99655940D01*
X110675514Y-99685500D01*
X110675519Y-99685500D01*
X110864486Y-99685500D01*
X111051118Y-99655940D01*
X111230832Y-99597547D01*
X111399199Y-99511760D01*
X111552073Y-99400690D01*
X111685690Y-99267073D01*
X111796760Y-99114199D01*
X111882547Y-98945832D01*
X111940940Y-98766118D01*
X111970500Y-98579486D01*
X111970500Y-98390513D01*
X111940940Y-98203881D01*
X111882545Y-98024163D01*
X111796759Y-97855800D01*
X111685690Y-97702927D01*
X111552073Y-97569310D01*
X111399199Y-97458240D01*
X111230836Y-97372454D01*
X111051118Y-97314059D01*
X110864486Y-97284500D01*
X110864481Y-97284500D01*
X110675519Y-97284500D01*
X110675514Y-97284500D01*
X110488881Y-97314059D01*
X110309163Y-97372454D01*
X110140800Y-97458240D01*
X110053579Y-97521610D01*
X109987927Y-97569310D01*
X109987925Y-97569312D01*
X109987924Y-97569312D01*
X109854312Y-97702924D01*
X109854312Y-97702925D01*
X109854310Y-97702927D01*
X109806610Y-97768579D01*
X109743240Y-97855800D01*
X109657454Y-98024163D01*
X109599059Y-98203881D01*
X109569500Y-98390513D01*
X107000000Y-98390513D01*
X107000000Y-91655513D01*
X109569500Y-91655513D01*
X109569500Y-91844486D01*
X109599059Y-92031118D01*
X109657454Y-92210836D01*
X109743240Y-92379199D01*
X109854310Y-92532073D01*
X109987927Y-92665690D01*
X110140801Y-92776760D01*
X110220347Y-92817290D01*
X110309163Y-92862545D01*
X110309165Y-92862545D01*
X110309168Y-92862547D01*
X110405497Y-92893846D01*
X110488881Y-92920940D01*
X110675514Y-92950500D01*
X110675519Y-92950500D01*
X110864486Y-92950500D01*
X111051118Y-92920940D01*
X111230832Y-92862547D01*
X111399199Y-92776760D01*
X111552073Y-92665690D01*
X111685690Y-92532073D01*
X111796760Y-92379199D01*
X111882547Y-92210832D01*
X111940940Y-92031118D01*
X111970500Y-91844486D01*
X111970500Y-91655513D01*
X111940940Y-91468881D01*
X111882545Y-91289163D01*
X111796759Y-91120800D01*
X111685690Y-90967927D01*
X111552073Y-90834310D01*
X111399199Y-90723240D01*
X111230836Y-90637454D01*
X111051118Y-90579059D01*
X110864486Y-90549500D01*
X110864481Y-90549500D01*
X110675519Y-90549500D01*
X110675514Y-90549500D01*
X110488881Y-90579059D01*
X110309163Y-90637454D01*
X110140800Y-90723240D01*
X110053579Y-90786610D01*
X109987927Y-90834310D01*
X109987925Y-90834312D01*
X109987924Y-90834312D01*
X109854312Y-90967924D01*
X109854312Y-90967925D01*
X109854310Y-90967927D01*
X109806610Y-91033579D01*
X109743240Y-91120800D01*
X109657454Y-91289163D01*
X109599059Y-91468881D01*
X109569500Y-91655513D01*
X107000000Y-91655513D01*
X107000000Y-84905513D01*
X109537000Y-84905513D01*
X109537000Y-85094486D01*
X109566559Y-85281118D01*
X109624954Y-85460836D01*
X109710740Y-85629199D01*
X109821810Y-85782073D01*
X109955427Y-85915690D01*
X110108301Y-86026760D01*
X110187847Y-86067290D01*
X110276663Y-86112545D01*
X110276665Y-86112545D01*
X110276668Y-86112547D01*
X110372997Y-86143846D01*
X110456381Y-86170940D01*
X110643014Y-86200500D01*
X110643019Y-86200500D01*
X110831986Y-86200500D01*
X111018618Y-86170940D01*
X111198332Y-86112547D01*
X111366699Y-86026760D01*
X111519573Y-85915690D01*
X111653190Y-85782073D01*
X111764260Y-85629199D01*
X111850047Y-85460832D01*
X111908440Y-85281118D01*
X111938000Y-85094486D01*
X111938000Y-84905513D01*
X111908440Y-84718881D01*
X111850045Y-84539163D01*
X111764259Y-84370800D01*
X111653190Y-84217927D01*
X111519573Y-84084310D01*
X111366699Y-83973240D01*
X111198336Y-83887454D01*
X111018618Y-83829059D01*
X110831986Y-83799500D01*
X110831981Y-83799500D01*
X110643019Y-83799500D01*
X110643014Y-83799500D01*
X110456381Y-83829059D01*
X110276663Y-83887454D01*
X110108300Y-83973240D01*
X110021079Y-84036610D01*
X109955427Y-84084310D01*
X109955425Y-84084312D01*
X109955424Y-84084312D01*
X109821812Y-84217924D01*
X109821812Y-84217925D01*
X109821810Y-84217927D01*
X109798691Y-84249748D01*
X109710740Y-84370800D01*
X109624954Y-84539163D01*
X109566559Y-84718881D01*
X109537000Y-84905513D01*
X107000000Y-84905513D01*
X107000000Y-78155513D01*
X109569500Y-78155513D01*
X109569500Y-78344486D01*
X109599059Y-78531118D01*
X109657454Y-78710836D01*
X109723966Y-78841372D01*
X109743240Y-78879199D01*
X109854310Y-79032073D01*
X109987927Y-79165690D01*
X110140801Y-79276760D01*
X110175720Y-79294552D01*
X110309163Y-79362545D01*
X110309165Y-79362545D01*
X110309168Y-79362547D01*
X110405497Y-79393846D01*
X110488881Y-79420940D01*
X110675514Y-79450500D01*
X110675519Y-79450500D01*
X110864486Y-79450500D01*
X111051118Y-79420940D01*
X111230832Y-79362547D01*
X111399199Y-79276760D01*
X111552073Y-79165690D01*
X111685690Y-79032073D01*
X111796760Y-78879199D01*
X111882547Y-78710832D01*
X111940940Y-78531118D01*
X111947177Y-78491740D01*
X111970500Y-78344486D01*
X111970500Y-78155513D01*
X111940940Y-77968881D01*
X111882545Y-77789163D01*
X111796759Y-77620800D01*
X111685690Y-77467927D01*
X111552073Y-77334310D01*
X111399199Y-77223240D01*
X111230836Y-77137454D01*
X111051118Y-77079059D01*
X110864486Y-77049500D01*
X110864481Y-77049500D01*
X110675519Y-77049500D01*
X110675514Y-77049500D01*
X110488881Y-77079059D01*
X110309163Y-77137454D01*
X110140800Y-77223240D01*
X110053579Y-77286610D01*
X109987927Y-77334310D01*
X109987925Y-77334312D01*
X109987924Y-77334312D01*
X109854312Y-77467924D01*
X109854312Y-77467925D01*
X109854310Y-77467927D01*
X109806610Y-77533579D01*
X109743240Y-77620800D01*
X109657454Y-77789163D01*
X109599059Y-77968881D01*
X109569500Y-78155513D01*
X107000000Y-78155513D01*
X107000000Y-76624500D01*
X107019685Y-76557461D01*
X107072489Y-76511706D01*
X107124000Y-76500500D01*
X114250500Y-76500500D01*
X114317539Y-76520185D01*
G37*
%TD.AperFunction*%
%TD*%
%TA.AperFunction,Conductor*%
%TO.N,+3.3V*%
G36*
X81633376Y-94825185D02*
G01*
X81679131Y-94877989D01*
X81690331Y-94930696D01*
X81678034Y-96205337D01*
X81678034Y-96205347D01*
X81684529Y-96271020D01*
X81695465Y-96323147D01*
X81695468Y-96323157D01*
X81706364Y-96362074D01*
X81733360Y-96408785D01*
X81750000Y-96470831D01*
X81750000Y-96750001D01*
X81917970Y-97085942D01*
X81930345Y-97154707D01*
X81928679Y-97165583D01*
X81924500Y-97186595D01*
X81924500Y-97186597D01*
X81924500Y-97186599D01*
X81924500Y-97562315D01*
X81924501Y-97876000D01*
X81904817Y-97943039D01*
X81852013Y-97988794D01*
X81800501Y-98000000D01*
X81142887Y-98000000D01*
X81075848Y-97980315D01*
X81074029Y-97979124D01*
X81015117Y-97939760D01*
X81015115Y-97939759D01*
X81015112Y-97939758D01*
X80938404Y-97924500D01*
X80186602Y-97924500D01*
X80103319Y-97941065D01*
X80100501Y-97942877D01*
X80065566Y-97947900D01*
X79874000Y-97947900D01*
X79806961Y-97928215D01*
X79761206Y-97875411D01*
X79750000Y-97823900D01*
X79750000Y-94929500D01*
X79769685Y-94862461D01*
X79822489Y-94816706D01*
X79874000Y-94805500D01*
X81566337Y-94805500D01*
X81633376Y-94825185D01*
G37*
%TD.AperFunction*%
%TD*%
%TA.AperFunction,Conductor*%
%TO.N,+3.3V*%
G36*
X87151856Y-98769685D02*
G01*
X87153659Y-98770865D01*
X87203713Y-98804310D01*
X87203716Y-98804312D01*
X87224739Y-98813020D01*
X87317548Y-98851463D01*
X87430853Y-98874000D01*
X87438389Y-98875499D01*
X87438393Y-98875500D01*
X87438394Y-98875500D01*
X87561607Y-98875500D01*
X87561608Y-98875499D01*
X87682452Y-98851463D01*
X87796286Y-98804311D01*
X87846292Y-98770897D01*
X87912969Y-98750020D01*
X87915183Y-98750000D01*
X91376000Y-98750000D01*
X91443039Y-98769685D01*
X91488794Y-98822489D01*
X91500000Y-98874000D01*
X91500000Y-107626000D01*
X91480315Y-107693039D01*
X91427511Y-107738794D01*
X91376000Y-107750000D01*
X88500000Y-107750000D01*
X88500000Y-111876000D01*
X88480315Y-111943039D01*
X88427511Y-111988794D01*
X88376000Y-112000000D01*
X84374000Y-112000000D01*
X84306961Y-111980315D01*
X84261206Y-111927511D01*
X84250000Y-111876000D01*
X84250000Y-109250000D01*
X80124000Y-109250000D01*
X80056961Y-109230315D01*
X80011206Y-109177511D01*
X80000000Y-109126000D01*
X80000000Y-107624000D01*
X80019685Y-107556961D01*
X80072489Y-107511206D01*
X80124000Y-107500000D01*
X86250000Y-107500000D01*
X86250000Y-104874000D01*
X86269685Y-104806961D01*
X86322489Y-104761206D01*
X86374000Y-104750000D01*
X86750000Y-104750000D01*
X86750000Y-101250000D01*
X84624000Y-101250000D01*
X84556961Y-101230315D01*
X84511206Y-101177511D01*
X84500000Y-101126000D01*
X84500000Y-98874000D01*
X84519685Y-98806961D01*
X84572489Y-98761206D01*
X84624000Y-98750000D01*
X87084817Y-98750000D01*
X87151856Y-98769685D01*
G37*
%TD.AperFunction*%
%TD*%
%TA.AperFunction,Conductor*%
%TO.N,GND*%
G36*
X81544732Y-101519685D02*
G01*
X81585079Y-101561999D01*
X81589044Y-101568866D01*
X81682230Y-101662052D01*
X81796358Y-101727944D01*
X81923652Y-101762052D01*
X81923654Y-101762052D01*
X82055434Y-101762052D01*
X82055436Y-101762052D01*
X82182730Y-101727944D01*
X82296858Y-101662052D01*
X82390044Y-101568866D01*
X82394008Y-101561999D01*
X82444575Y-101513785D01*
X82501395Y-101500000D01*
X83432242Y-101500000D01*
X83434108Y-101500500D01*
X83565892Y-101500500D01*
X83567758Y-101500000D01*
X86376000Y-101500000D01*
X86443039Y-101519685D01*
X86488794Y-101572489D01*
X86500000Y-101624000D01*
X86500000Y-104376000D01*
X86480315Y-104443039D01*
X86427511Y-104488794D01*
X86376000Y-104500000D01*
X86000000Y-104500000D01*
X86000000Y-107126000D01*
X85980315Y-107193039D01*
X85927511Y-107238794D01*
X85876000Y-107250000D01*
X79750000Y-107250000D01*
X79750000Y-107876000D01*
X79730315Y-107943039D01*
X79677511Y-107988794D01*
X79626000Y-108000000D01*
X74624000Y-108000000D01*
X74556961Y-107980315D01*
X74511206Y-107927511D01*
X74500000Y-107876000D01*
X74500000Y-101624000D01*
X74519685Y-101556961D01*
X74572489Y-101511206D01*
X74624000Y-101500000D01*
X81477693Y-101500000D01*
X81544732Y-101519685D01*
G37*
%TD.AperFunction*%
%TD*%
%TA.AperFunction,Conductor*%
%TO.N,GND*%
G36*
X88943039Y-112269685D02*
G01*
X88988794Y-112322489D01*
X89000000Y-112374000D01*
X89000000Y-115626000D01*
X88980315Y-115693039D01*
X88927511Y-115738794D01*
X88876000Y-115750000D01*
X84374000Y-115750000D01*
X84306961Y-115730315D01*
X84261206Y-115677511D01*
X84250000Y-115626000D01*
X84250000Y-112374000D01*
X84269685Y-112306961D01*
X84322489Y-112261206D01*
X84374000Y-112250000D01*
X88876000Y-112250000D01*
X88943039Y-112269685D01*
G37*
%TD.AperFunction*%
%TD*%
M02*
