%TF.GenerationSoftware,KiCad,Pcbnew,9.0.3-9.0.3-0~ubuntu24.04.1*%
%TF.CreationDate,2026-04-21T10:17:34+03:00*%
%TF.ProjectId,sounddecoder-esp32-s3-wroom-2,736f756e-6464-4656-936f-6465722d6573,rev?*%
%TF.SameCoordinates,Original*%
%TF.FileFunction,Legend,Top*%
%TF.FilePolarity,Positive*%
%FSLAX46Y46*%
G04 Gerber Fmt 4.6, Leading zero omitted, Abs format (unit mm)*
G04 Created by KiCad (PCBNEW 9.0.3-9.0.3-0~ubuntu24.04.1) date 2026-04-21 10:17:34*
%MOMM*%
%LPD*%
G01*
G04 APERTURE LIST*
%ADD10C,0.100000*%
%ADD11C,0.150000*%
%ADD12C,0.120000*%
G04 APERTURE END LIST*
D10*
X73625312Y-84122419D02*
X73291979Y-83646228D01*
X73053884Y-84122419D02*
X73053884Y-83122419D01*
X73053884Y-83122419D02*
X73434836Y-83122419D01*
X73434836Y-83122419D02*
X73530074Y-83170038D01*
X73530074Y-83170038D02*
X73577693Y-83217657D01*
X73577693Y-83217657D02*
X73625312Y-83312895D01*
X73625312Y-83312895D02*
X73625312Y-83455752D01*
X73625312Y-83455752D02*
X73577693Y-83550990D01*
X73577693Y-83550990D02*
X73530074Y-83598609D01*
X73530074Y-83598609D02*
X73434836Y-83646228D01*
X73434836Y-83646228D02*
X73053884Y-83646228D01*
X73958646Y-83122419D02*
X74625312Y-84122419D01*
X74625312Y-83122419D02*
X73958646Y-84122419D01*
X72803884Y-81241466D02*
X73565789Y-81241466D01*
X73184836Y-81622419D02*
X73184836Y-80860514D01*
X74518169Y-80622419D02*
X74041979Y-80622419D01*
X74041979Y-80622419D02*
X73994360Y-81098609D01*
X73994360Y-81098609D02*
X74041979Y-81050990D01*
X74041979Y-81050990D02*
X74137217Y-81003371D01*
X74137217Y-81003371D02*
X74375312Y-81003371D01*
X74375312Y-81003371D02*
X74470550Y-81050990D01*
X74470550Y-81050990D02*
X74518169Y-81098609D01*
X74518169Y-81098609D02*
X74565788Y-81193847D01*
X74565788Y-81193847D02*
X74565788Y-81431942D01*
X74565788Y-81431942D02*
X74518169Y-81527180D01*
X74518169Y-81527180D02*
X74470550Y-81574800D01*
X74470550Y-81574800D02*
X74375312Y-81622419D01*
X74375312Y-81622419D02*
X74137217Y-81622419D01*
X74137217Y-81622419D02*
X74041979Y-81574800D01*
X74041979Y-81574800D02*
X73994360Y-81527180D01*
X74851503Y-80622419D02*
X75184836Y-81622419D01*
X75184836Y-81622419D02*
X75518169Y-80622419D01*
X73387217Y-88598609D02*
X73530074Y-88646228D01*
X73530074Y-88646228D02*
X73577693Y-88693847D01*
X73577693Y-88693847D02*
X73625312Y-88789085D01*
X73625312Y-88789085D02*
X73625312Y-88931942D01*
X73625312Y-88931942D02*
X73577693Y-89027180D01*
X73577693Y-89027180D02*
X73530074Y-89074800D01*
X73530074Y-89074800D02*
X73434836Y-89122419D01*
X73434836Y-89122419D02*
X73053884Y-89122419D01*
X73053884Y-89122419D02*
X73053884Y-88122419D01*
X73053884Y-88122419D02*
X73387217Y-88122419D01*
X73387217Y-88122419D02*
X73482455Y-88170038D01*
X73482455Y-88170038D02*
X73530074Y-88217657D01*
X73530074Y-88217657D02*
X73577693Y-88312895D01*
X73577693Y-88312895D02*
X73577693Y-88408133D01*
X73577693Y-88408133D02*
X73530074Y-88503371D01*
X73530074Y-88503371D02*
X73482455Y-88550990D01*
X73482455Y-88550990D02*
X73387217Y-88598609D01*
X73387217Y-88598609D02*
X73053884Y-88598609D01*
X74244360Y-88122419D02*
X74434836Y-88122419D01*
X74434836Y-88122419D02*
X74530074Y-88170038D01*
X74530074Y-88170038D02*
X74625312Y-88265276D01*
X74625312Y-88265276D02*
X74672931Y-88455752D01*
X74672931Y-88455752D02*
X74672931Y-88789085D01*
X74672931Y-88789085D02*
X74625312Y-88979561D01*
X74625312Y-88979561D02*
X74530074Y-89074800D01*
X74530074Y-89074800D02*
X74434836Y-89122419D01*
X74434836Y-89122419D02*
X74244360Y-89122419D01*
X74244360Y-89122419D02*
X74149122Y-89074800D01*
X74149122Y-89074800D02*
X74053884Y-88979561D01*
X74053884Y-88979561D02*
X74006265Y-88789085D01*
X74006265Y-88789085D02*
X74006265Y-88455752D01*
X74006265Y-88455752D02*
X74053884Y-88265276D01*
X74053884Y-88265276D02*
X74149122Y-88170038D01*
X74149122Y-88170038D02*
X74244360Y-88122419D01*
X75291979Y-88122419D02*
X75482455Y-88122419D01*
X75482455Y-88122419D02*
X75577693Y-88170038D01*
X75577693Y-88170038D02*
X75672931Y-88265276D01*
X75672931Y-88265276D02*
X75720550Y-88455752D01*
X75720550Y-88455752D02*
X75720550Y-88789085D01*
X75720550Y-88789085D02*
X75672931Y-88979561D01*
X75672931Y-88979561D02*
X75577693Y-89074800D01*
X75577693Y-89074800D02*
X75482455Y-89122419D01*
X75482455Y-89122419D02*
X75291979Y-89122419D01*
X75291979Y-89122419D02*
X75196741Y-89074800D01*
X75196741Y-89074800D02*
X75101503Y-88979561D01*
X75101503Y-88979561D02*
X75053884Y-88789085D01*
X75053884Y-88789085D02*
X75053884Y-88455752D01*
X75053884Y-88455752D02*
X75101503Y-88265276D01*
X75101503Y-88265276D02*
X75196741Y-88170038D01*
X75196741Y-88170038D02*
X75291979Y-88122419D01*
X76006265Y-88122419D02*
X76577693Y-88122419D01*
X76291979Y-89122419D02*
X76291979Y-88122419D01*
X73577693Y-90670038D02*
X73482455Y-90622419D01*
X73482455Y-90622419D02*
X73339598Y-90622419D01*
X73339598Y-90622419D02*
X73196741Y-90670038D01*
X73196741Y-90670038D02*
X73101503Y-90765276D01*
X73101503Y-90765276D02*
X73053884Y-90860514D01*
X73053884Y-90860514D02*
X73006265Y-91050990D01*
X73006265Y-91050990D02*
X73006265Y-91193847D01*
X73006265Y-91193847D02*
X73053884Y-91384323D01*
X73053884Y-91384323D02*
X73101503Y-91479561D01*
X73101503Y-91479561D02*
X73196741Y-91574800D01*
X73196741Y-91574800D02*
X73339598Y-91622419D01*
X73339598Y-91622419D02*
X73434836Y-91622419D01*
X73434836Y-91622419D02*
X73577693Y-91574800D01*
X73577693Y-91574800D02*
X73625312Y-91527180D01*
X73625312Y-91527180D02*
X73625312Y-91193847D01*
X73625312Y-91193847D02*
X73434836Y-91193847D01*
X74053884Y-91622419D02*
X74053884Y-90622419D01*
X74053884Y-90622419D02*
X74625312Y-91622419D01*
X74625312Y-91622419D02*
X74625312Y-90622419D01*
X75101503Y-91622419D02*
X75101503Y-90622419D01*
X75101503Y-90622419D02*
X75339598Y-90622419D01*
X75339598Y-90622419D02*
X75482455Y-90670038D01*
X75482455Y-90670038D02*
X75577693Y-90765276D01*
X75577693Y-90765276D02*
X75625312Y-90860514D01*
X75625312Y-90860514D02*
X75672931Y-91050990D01*
X75672931Y-91050990D02*
X75672931Y-91193847D01*
X75672931Y-91193847D02*
X75625312Y-91384323D01*
X75625312Y-91384323D02*
X75577693Y-91479561D01*
X75577693Y-91479561D02*
X75482455Y-91574800D01*
X75482455Y-91574800D02*
X75339598Y-91622419D01*
X75339598Y-91622419D02*
X75101503Y-91622419D01*
X72911027Y-85862419D02*
X73482455Y-85862419D01*
X73196741Y-86862419D02*
X73196741Y-85862419D01*
X73720551Y-85862419D02*
X74387217Y-86862419D01*
X74387217Y-85862419D02*
X73720551Y-86862419D01*
D11*
X102870833Y-105204819D02*
X102394643Y-105204819D01*
X102394643Y-105204819D02*
X102394643Y-104204819D01*
X103727976Y-105204819D02*
X103156548Y-105204819D01*
X103442262Y-105204819D02*
X103442262Y-104204819D01*
X103442262Y-104204819D02*
X103347024Y-104347676D01*
X103347024Y-104347676D02*
X103251786Y-104442914D01*
X103251786Y-104442914D02*
X103156548Y-104490533D01*
X77281666Y-94224819D02*
X77281666Y-94939104D01*
X77281666Y-94939104D02*
X77234047Y-95081961D01*
X77234047Y-95081961D02*
X77138809Y-95177200D01*
X77138809Y-95177200D02*
X76995952Y-95224819D01*
X76995952Y-95224819D02*
X76900714Y-95224819D01*
X78234047Y-94224819D02*
X77757857Y-94224819D01*
X77757857Y-94224819D02*
X77710238Y-94701009D01*
X77710238Y-94701009D02*
X77757857Y-94653390D01*
X77757857Y-94653390D02*
X77853095Y-94605771D01*
X77853095Y-94605771D02*
X78091190Y-94605771D01*
X78091190Y-94605771D02*
X78186428Y-94653390D01*
X78186428Y-94653390D02*
X78234047Y-94701009D01*
X78234047Y-94701009D02*
X78281666Y-94796247D01*
X78281666Y-94796247D02*
X78281666Y-95034342D01*
X78281666Y-95034342D02*
X78234047Y-95129580D01*
X78234047Y-95129580D02*
X78186428Y-95177200D01*
X78186428Y-95177200D02*
X78091190Y-95224819D01*
X78091190Y-95224819D02*
X77853095Y-95224819D01*
X77853095Y-95224819D02*
X77757857Y-95177200D01*
X77757857Y-95177200D02*
X77710238Y-95129580D01*
X73705595Y-101994700D02*
X73848452Y-102042319D01*
X73848452Y-102042319D02*
X74086547Y-102042319D01*
X74086547Y-102042319D02*
X74181785Y-101994700D01*
X74181785Y-101994700D02*
X74229404Y-101947080D01*
X74229404Y-101947080D02*
X74277023Y-101851842D01*
X74277023Y-101851842D02*
X74277023Y-101756604D01*
X74277023Y-101756604D02*
X74229404Y-101661366D01*
X74229404Y-101661366D02*
X74181785Y-101613747D01*
X74181785Y-101613747D02*
X74086547Y-101566128D01*
X74086547Y-101566128D02*
X73896071Y-101518509D01*
X73896071Y-101518509D02*
X73800833Y-101470890D01*
X73800833Y-101470890D02*
X73753214Y-101423271D01*
X73753214Y-101423271D02*
X73705595Y-101328033D01*
X73705595Y-101328033D02*
X73705595Y-101232795D01*
X73705595Y-101232795D02*
X73753214Y-101137557D01*
X73753214Y-101137557D02*
X73800833Y-101089938D01*
X73800833Y-101089938D02*
X73896071Y-101042319D01*
X73896071Y-101042319D02*
X74134166Y-101042319D01*
X74134166Y-101042319D02*
X74277023Y-101089938D01*
X74705595Y-101375652D02*
X74705595Y-102375652D01*
X74705595Y-101423271D02*
X74800833Y-101375652D01*
X74800833Y-101375652D02*
X74991309Y-101375652D01*
X74991309Y-101375652D02*
X75086547Y-101423271D01*
X75086547Y-101423271D02*
X75134166Y-101470890D01*
X75134166Y-101470890D02*
X75181785Y-101566128D01*
X75181785Y-101566128D02*
X75181785Y-101851842D01*
X75181785Y-101851842D02*
X75134166Y-101947080D01*
X75134166Y-101947080D02*
X75086547Y-101994700D01*
X75086547Y-101994700D02*
X74991309Y-102042319D01*
X74991309Y-102042319D02*
X74800833Y-102042319D01*
X74800833Y-102042319D02*
X74705595Y-101994700D01*
X75991309Y-101994700D02*
X75896071Y-102042319D01*
X75896071Y-102042319D02*
X75705595Y-102042319D01*
X75705595Y-102042319D02*
X75610357Y-101994700D01*
X75610357Y-101994700D02*
X75562738Y-101899461D01*
X75562738Y-101899461D02*
X75562738Y-101518509D01*
X75562738Y-101518509D02*
X75610357Y-101423271D01*
X75610357Y-101423271D02*
X75705595Y-101375652D01*
X75705595Y-101375652D02*
X75896071Y-101375652D01*
X75896071Y-101375652D02*
X75991309Y-101423271D01*
X75991309Y-101423271D02*
X76038928Y-101518509D01*
X76038928Y-101518509D02*
X76038928Y-101613747D01*
X76038928Y-101613747D02*
X75562738Y-101708985D01*
X76896071Y-102042319D02*
X76896071Y-101518509D01*
X76896071Y-101518509D02*
X76848452Y-101423271D01*
X76848452Y-101423271D02*
X76753214Y-101375652D01*
X76753214Y-101375652D02*
X76562738Y-101375652D01*
X76562738Y-101375652D02*
X76467500Y-101423271D01*
X76896071Y-101994700D02*
X76800833Y-102042319D01*
X76800833Y-102042319D02*
X76562738Y-102042319D01*
X76562738Y-102042319D02*
X76467500Y-101994700D01*
X76467500Y-101994700D02*
X76419881Y-101899461D01*
X76419881Y-101899461D02*
X76419881Y-101804223D01*
X76419881Y-101804223D02*
X76467500Y-101708985D01*
X76467500Y-101708985D02*
X76562738Y-101661366D01*
X76562738Y-101661366D02*
X76800833Y-101661366D01*
X76800833Y-101661366D02*
X76896071Y-101613747D01*
X77372262Y-102042319D02*
X77372262Y-101042319D01*
X77467500Y-101661366D02*
X77753214Y-102042319D01*
X77753214Y-101375652D02*
X77372262Y-101756604D01*
X78562738Y-101994700D02*
X78467500Y-102042319D01*
X78467500Y-102042319D02*
X78277024Y-102042319D01*
X78277024Y-102042319D02*
X78181786Y-101994700D01*
X78181786Y-101994700D02*
X78134167Y-101899461D01*
X78134167Y-101899461D02*
X78134167Y-101518509D01*
X78134167Y-101518509D02*
X78181786Y-101423271D01*
X78181786Y-101423271D02*
X78277024Y-101375652D01*
X78277024Y-101375652D02*
X78467500Y-101375652D01*
X78467500Y-101375652D02*
X78562738Y-101423271D01*
X78562738Y-101423271D02*
X78610357Y-101518509D01*
X78610357Y-101518509D02*
X78610357Y-101613747D01*
X78610357Y-101613747D02*
X78134167Y-101708985D01*
X79038929Y-102042319D02*
X79038929Y-101375652D01*
X79038929Y-101566128D02*
X79086548Y-101470890D01*
X79086548Y-101470890D02*
X79134167Y-101423271D01*
X79134167Y-101423271D02*
X79229405Y-101375652D01*
X79229405Y-101375652D02*
X79324643Y-101375652D01*
X88704819Y-93413220D02*
X89514342Y-93413220D01*
X89514342Y-93413220D02*
X89609580Y-93365601D01*
X89609580Y-93365601D02*
X89657200Y-93317982D01*
X89657200Y-93317982D02*
X89704819Y-93222744D01*
X89704819Y-93222744D02*
X89704819Y-93032268D01*
X89704819Y-93032268D02*
X89657200Y-92937030D01*
X89657200Y-92937030D02*
X89609580Y-92889411D01*
X89609580Y-92889411D02*
X89514342Y-92841792D01*
X89514342Y-92841792D02*
X88704819Y-92841792D01*
X88704819Y-92460839D02*
X88704819Y-91794173D01*
X88704819Y-91794173D02*
X89704819Y-92222744D01*
X89138095Y-110954819D02*
X89138095Y-111764342D01*
X89138095Y-111764342D02*
X89185714Y-111859580D01*
X89185714Y-111859580D02*
X89233333Y-111907200D01*
X89233333Y-111907200D02*
X89328571Y-111954819D01*
X89328571Y-111954819D02*
X89519047Y-111954819D01*
X89519047Y-111954819D02*
X89614285Y-111907200D01*
X89614285Y-111907200D02*
X89661904Y-111859580D01*
X89661904Y-111859580D02*
X89709523Y-111764342D01*
X89709523Y-111764342D02*
X89709523Y-110954819D01*
X90614285Y-110954819D02*
X90423809Y-110954819D01*
X90423809Y-110954819D02*
X90328571Y-111002438D01*
X90328571Y-111002438D02*
X90280952Y-111050057D01*
X90280952Y-111050057D02*
X90185714Y-111192914D01*
X90185714Y-111192914D02*
X90138095Y-111383390D01*
X90138095Y-111383390D02*
X90138095Y-111764342D01*
X90138095Y-111764342D02*
X90185714Y-111859580D01*
X90185714Y-111859580D02*
X90233333Y-111907200D01*
X90233333Y-111907200D02*
X90328571Y-111954819D01*
X90328571Y-111954819D02*
X90519047Y-111954819D01*
X90519047Y-111954819D02*
X90614285Y-111907200D01*
X90614285Y-111907200D02*
X90661904Y-111859580D01*
X90661904Y-111859580D02*
X90709523Y-111764342D01*
X90709523Y-111764342D02*
X90709523Y-111526247D01*
X90709523Y-111526247D02*
X90661904Y-111431009D01*
X90661904Y-111431009D02*
X90614285Y-111383390D01*
X90614285Y-111383390D02*
X90519047Y-111335771D01*
X90519047Y-111335771D02*
X90328571Y-111335771D01*
X90328571Y-111335771D02*
X90233333Y-111383390D01*
X90233333Y-111383390D02*
X90185714Y-111431009D01*
X90185714Y-111431009D02*
X90138095Y-111526247D01*
X109666666Y-127954819D02*
X109666666Y-126954819D01*
X109666666Y-126954819D02*
X109999999Y-127669104D01*
X109999999Y-127669104D02*
X110333332Y-126954819D01*
X110333332Y-126954819D02*
X110333332Y-127954819D01*
X110952380Y-127954819D02*
X110857142Y-127907200D01*
X110857142Y-127907200D02*
X110809523Y-127859580D01*
X110809523Y-127859580D02*
X110761904Y-127764342D01*
X110761904Y-127764342D02*
X110761904Y-127478628D01*
X110761904Y-127478628D02*
X110809523Y-127383390D01*
X110809523Y-127383390D02*
X110857142Y-127335771D01*
X110857142Y-127335771D02*
X110952380Y-127288152D01*
X110952380Y-127288152D02*
X111095237Y-127288152D01*
X111095237Y-127288152D02*
X111190475Y-127335771D01*
X111190475Y-127335771D02*
X111238094Y-127383390D01*
X111238094Y-127383390D02*
X111285713Y-127478628D01*
X111285713Y-127478628D02*
X111285713Y-127764342D01*
X111285713Y-127764342D02*
X111238094Y-127859580D01*
X111238094Y-127859580D02*
X111190475Y-127907200D01*
X111190475Y-127907200D02*
X111095237Y-127954819D01*
X111095237Y-127954819D02*
X110952380Y-127954819D01*
X111571428Y-127288152D02*
X111952380Y-127288152D01*
X111714285Y-126954819D02*
X111714285Y-127811961D01*
X111714285Y-127811961D02*
X111761904Y-127907200D01*
X111761904Y-127907200D02*
X111857142Y-127954819D01*
X111857142Y-127954819D02*
X111952380Y-127954819D01*
X112428571Y-127954819D02*
X112333333Y-127907200D01*
X112333333Y-127907200D02*
X112285714Y-127859580D01*
X112285714Y-127859580D02*
X112238095Y-127764342D01*
X112238095Y-127764342D02*
X112238095Y-127478628D01*
X112238095Y-127478628D02*
X112285714Y-127383390D01*
X112285714Y-127383390D02*
X112333333Y-127335771D01*
X112333333Y-127335771D02*
X112428571Y-127288152D01*
X112428571Y-127288152D02*
X112571428Y-127288152D01*
X112571428Y-127288152D02*
X112666666Y-127335771D01*
X112666666Y-127335771D02*
X112714285Y-127383390D01*
X112714285Y-127383390D02*
X112761904Y-127478628D01*
X112761904Y-127478628D02*
X112761904Y-127764342D01*
X112761904Y-127764342D02*
X112714285Y-127859580D01*
X112714285Y-127859580D02*
X112666666Y-127907200D01*
X112666666Y-127907200D02*
X112571428Y-127954819D01*
X112571428Y-127954819D02*
X112428571Y-127954819D01*
X113190476Y-127954819D02*
X113190476Y-127288152D01*
X113190476Y-127478628D02*
X113238095Y-127383390D01*
X113238095Y-127383390D02*
X113285714Y-127335771D01*
X113285714Y-127335771D02*
X113380952Y-127288152D01*
X113380952Y-127288152D02*
X113476190Y-127288152D01*
X84109580Y-82392857D02*
X84157200Y-82440476D01*
X84157200Y-82440476D02*
X84204819Y-82583333D01*
X84204819Y-82583333D02*
X84204819Y-82678571D01*
X84204819Y-82678571D02*
X84157200Y-82821428D01*
X84157200Y-82821428D02*
X84061961Y-82916666D01*
X84061961Y-82916666D02*
X83966723Y-82964285D01*
X83966723Y-82964285D02*
X83776247Y-83011904D01*
X83776247Y-83011904D02*
X83633390Y-83011904D01*
X83633390Y-83011904D02*
X83442914Y-82964285D01*
X83442914Y-82964285D02*
X83347676Y-82916666D01*
X83347676Y-82916666D02*
X83252438Y-82821428D01*
X83252438Y-82821428D02*
X83204819Y-82678571D01*
X83204819Y-82678571D02*
X83204819Y-82583333D01*
X83204819Y-82583333D02*
X83252438Y-82440476D01*
X83252438Y-82440476D02*
X83300057Y-82392857D01*
X84204819Y-81440476D02*
X84204819Y-82011904D01*
X84204819Y-81726190D02*
X83204819Y-81726190D01*
X83204819Y-81726190D02*
X83347676Y-81821428D01*
X83347676Y-81821428D02*
X83442914Y-81916666D01*
X83442914Y-81916666D02*
X83490533Y-82011904D01*
X83204819Y-80821428D02*
X83204819Y-80726190D01*
X83204819Y-80726190D02*
X83252438Y-80630952D01*
X83252438Y-80630952D02*
X83300057Y-80583333D01*
X83300057Y-80583333D02*
X83395295Y-80535714D01*
X83395295Y-80535714D02*
X83585771Y-80488095D01*
X83585771Y-80488095D02*
X83823866Y-80488095D01*
X83823866Y-80488095D02*
X84014342Y-80535714D01*
X84014342Y-80535714D02*
X84109580Y-80583333D01*
X84109580Y-80583333D02*
X84157200Y-80630952D01*
X84157200Y-80630952D02*
X84204819Y-80726190D01*
X84204819Y-80726190D02*
X84204819Y-80821428D01*
X84204819Y-80821428D02*
X84157200Y-80916666D01*
X84157200Y-80916666D02*
X84109580Y-80964285D01*
X84109580Y-80964285D02*
X84014342Y-81011904D01*
X84014342Y-81011904D02*
X83823866Y-81059523D01*
X83823866Y-81059523D02*
X83585771Y-81059523D01*
X83585771Y-81059523D02*
X83395295Y-81011904D01*
X83395295Y-81011904D02*
X83300057Y-80964285D01*
X83300057Y-80964285D02*
X83252438Y-80916666D01*
X83252438Y-80916666D02*
X83204819Y-80821428D01*
X94083333Y-126609580D02*
X94035714Y-126657200D01*
X94035714Y-126657200D02*
X93892857Y-126704819D01*
X93892857Y-126704819D02*
X93797619Y-126704819D01*
X93797619Y-126704819D02*
X93654762Y-126657200D01*
X93654762Y-126657200D02*
X93559524Y-126561961D01*
X93559524Y-126561961D02*
X93511905Y-126466723D01*
X93511905Y-126466723D02*
X93464286Y-126276247D01*
X93464286Y-126276247D02*
X93464286Y-126133390D01*
X93464286Y-126133390D02*
X93511905Y-125942914D01*
X93511905Y-125942914D02*
X93559524Y-125847676D01*
X93559524Y-125847676D02*
X93654762Y-125752438D01*
X93654762Y-125752438D02*
X93797619Y-125704819D01*
X93797619Y-125704819D02*
X93892857Y-125704819D01*
X93892857Y-125704819D02*
X94035714Y-125752438D01*
X94035714Y-125752438D02*
X94083333Y-125800057D01*
X94464286Y-125800057D02*
X94511905Y-125752438D01*
X94511905Y-125752438D02*
X94607143Y-125704819D01*
X94607143Y-125704819D02*
X94845238Y-125704819D01*
X94845238Y-125704819D02*
X94940476Y-125752438D01*
X94940476Y-125752438D02*
X94988095Y-125800057D01*
X94988095Y-125800057D02*
X95035714Y-125895295D01*
X95035714Y-125895295D02*
X95035714Y-125990533D01*
X95035714Y-125990533D02*
X94988095Y-126133390D01*
X94988095Y-126133390D02*
X94416667Y-126704819D01*
X94416667Y-126704819D02*
X95035714Y-126704819D01*
X105333333Y-125204819D02*
X105000000Y-124728628D01*
X104761905Y-125204819D02*
X104761905Y-124204819D01*
X104761905Y-124204819D02*
X105142857Y-124204819D01*
X105142857Y-124204819D02*
X105238095Y-124252438D01*
X105238095Y-124252438D02*
X105285714Y-124300057D01*
X105285714Y-124300057D02*
X105333333Y-124395295D01*
X105333333Y-124395295D02*
X105333333Y-124538152D01*
X105333333Y-124538152D02*
X105285714Y-124633390D01*
X105285714Y-124633390D02*
X105238095Y-124681009D01*
X105238095Y-124681009D02*
X105142857Y-124728628D01*
X105142857Y-124728628D02*
X104761905Y-124728628D01*
X106285714Y-125204819D02*
X105714286Y-125204819D01*
X106000000Y-125204819D02*
X106000000Y-124204819D01*
X106000000Y-124204819D02*
X105904762Y-124347676D01*
X105904762Y-124347676D02*
X105809524Y-124442914D01*
X105809524Y-124442914D02*
X105714286Y-124490533D01*
X89633333Y-100809580D02*
X89585714Y-100857200D01*
X89585714Y-100857200D02*
X89442857Y-100904819D01*
X89442857Y-100904819D02*
X89347619Y-100904819D01*
X89347619Y-100904819D02*
X89204762Y-100857200D01*
X89204762Y-100857200D02*
X89109524Y-100761961D01*
X89109524Y-100761961D02*
X89061905Y-100666723D01*
X89061905Y-100666723D02*
X89014286Y-100476247D01*
X89014286Y-100476247D02*
X89014286Y-100333390D01*
X89014286Y-100333390D02*
X89061905Y-100142914D01*
X89061905Y-100142914D02*
X89109524Y-100047676D01*
X89109524Y-100047676D02*
X89204762Y-99952438D01*
X89204762Y-99952438D02*
X89347619Y-99904819D01*
X89347619Y-99904819D02*
X89442857Y-99904819D01*
X89442857Y-99904819D02*
X89585714Y-99952438D01*
X89585714Y-99952438D02*
X89633333Y-100000057D01*
X90490476Y-99904819D02*
X90300000Y-99904819D01*
X90300000Y-99904819D02*
X90204762Y-99952438D01*
X90204762Y-99952438D02*
X90157143Y-100000057D01*
X90157143Y-100000057D02*
X90061905Y-100142914D01*
X90061905Y-100142914D02*
X90014286Y-100333390D01*
X90014286Y-100333390D02*
X90014286Y-100714342D01*
X90014286Y-100714342D02*
X90061905Y-100809580D01*
X90061905Y-100809580D02*
X90109524Y-100857200D01*
X90109524Y-100857200D02*
X90204762Y-100904819D01*
X90204762Y-100904819D02*
X90395238Y-100904819D01*
X90395238Y-100904819D02*
X90490476Y-100857200D01*
X90490476Y-100857200D02*
X90538095Y-100809580D01*
X90538095Y-100809580D02*
X90585714Y-100714342D01*
X90585714Y-100714342D02*
X90585714Y-100476247D01*
X90585714Y-100476247D02*
X90538095Y-100381009D01*
X90538095Y-100381009D02*
X90490476Y-100333390D01*
X90490476Y-100333390D02*
X90395238Y-100285771D01*
X90395238Y-100285771D02*
X90204762Y-100285771D01*
X90204762Y-100285771D02*
X90109524Y-100333390D01*
X90109524Y-100333390D02*
X90061905Y-100381009D01*
X90061905Y-100381009D02*
X90014286Y-100476247D01*
X85454819Y-77416666D02*
X84978628Y-77749999D01*
X85454819Y-77988094D02*
X84454819Y-77988094D01*
X84454819Y-77988094D02*
X84454819Y-77607142D01*
X84454819Y-77607142D02*
X84502438Y-77511904D01*
X84502438Y-77511904D02*
X84550057Y-77464285D01*
X84550057Y-77464285D02*
X84645295Y-77416666D01*
X84645295Y-77416666D02*
X84788152Y-77416666D01*
X84788152Y-77416666D02*
X84883390Y-77464285D01*
X84883390Y-77464285D02*
X84931009Y-77511904D01*
X84931009Y-77511904D02*
X84978628Y-77607142D01*
X84978628Y-77607142D02*
X84978628Y-77988094D01*
X84550057Y-77035713D02*
X84502438Y-76988094D01*
X84502438Y-76988094D02*
X84454819Y-76892856D01*
X84454819Y-76892856D02*
X84454819Y-76654761D01*
X84454819Y-76654761D02*
X84502438Y-76559523D01*
X84502438Y-76559523D02*
X84550057Y-76511904D01*
X84550057Y-76511904D02*
X84645295Y-76464285D01*
X84645295Y-76464285D02*
X84740533Y-76464285D01*
X84740533Y-76464285D02*
X84883390Y-76511904D01*
X84883390Y-76511904D02*
X85454819Y-77083332D01*
X85454819Y-77083332D02*
X85454819Y-76464285D01*
X94011905Y-118604819D02*
X94011905Y-117604819D01*
X94011905Y-117604819D02*
X94250000Y-117604819D01*
X94250000Y-117604819D02*
X94392857Y-117652438D01*
X94392857Y-117652438D02*
X94488095Y-117747676D01*
X94488095Y-117747676D02*
X94535714Y-117842914D01*
X94535714Y-117842914D02*
X94583333Y-118033390D01*
X94583333Y-118033390D02*
X94583333Y-118176247D01*
X94583333Y-118176247D02*
X94535714Y-118366723D01*
X94535714Y-118366723D02*
X94488095Y-118461961D01*
X94488095Y-118461961D02*
X94392857Y-118557200D01*
X94392857Y-118557200D02*
X94250000Y-118604819D01*
X94250000Y-118604819D02*
X94011905Y-118604819D01*
X95535714Y-118604819D02*
X94964286Y-118604819D01*
X95250000Y-118604819D02*
X95250000Y-117604819D01*
X95250000Y-117604819D02*
X95154762Y-117747676D01*
X95154762Y-117747676D02*
X95059524Y-117842914D01*
X95059524Y-117842914D02*
X94964286Y-117890533D01*
X80833333Y-94859580D02*
X80785714Y-94907200D01*
X80785714Y-94907200D02*
X80642857Y-94954819D01*
X80642857Y-94954819D02*
X80547619Y-94954819D01*
X80547619Y-94954819D02*
X80404762Y-94907200D01*
X80404762Y-94907200D02*
X80309524Y-94811961D01*
X80309524Y-94811961D02*
X80261905Y-94716723D01*
X80261905Y-94716723D02*
X80214286Y-94526247D01*
X80214286Y-94526247D02*
X80214286Y-94383390D01*
X80214286Y-94383390D02*
X80261905Y-94192914D01*
X80261905Y-94192914D02*
X80309524Y-94097676D01*
X80309524Y-94097676D02*
X80404762Y-94002438D01*
X80404762Y-94002438D02*
X80547619Y-93954819D01*
X80547619Y-93954819D02*
X80642857Y-93954819D01*
X80642857Y-93954819D02*
X80785714Y-94002438D01*
X80785714Y-94002438D02*
X80833333Y-94050057D01*
X81166667Y-93954819D02*
X81833333Y-93954819D01*
X81833333Y-93954819D02*
X81404762Y-94954819D01*
X88916666Y-97954819D02*
X88916666Y-98669104D01*
X88916666Y-98669104D02*
X88869047Y-98811961D01*
X88869047Y-98811961D02*
X88773809Y-98907200D01*
X88773809Y-98907200D02*
X88630952Y-98954819D01*
X88630952Y-98954819D02*
X88535714Y-98954819D01*
X89821428Y-97954819D02*
X89630952Y-97954819D01*
X89630952Y-97954819D02*
X89535714Y-98002438D01*
X89535714Y-98002438D02*
X89488095Y-98050057D01*
X89488095Y-98050057D02*
X89392857Y-98192914D01*
X89392857Y-98192914D02*
X89345238Y-98383390D01*
X89345238Y-98383390D02*
X89345238Y-98764342D01*
X89345238Y-98764342D02*
X89392857Y-98859580D01*
X89392857Y-98859580D02*
X89440476Y-98907200D01*
X89440476Y-98907200D02*
X89535714Y-98954819D01*
X89535714Y-98954819D02*
X89726190Y-98954819D01*
X89726190Y-98954819D02*
X89821428Y-98907200D01*
X89821428Y-98907200D02*
X89869047Y-98859580D01*
X89869047Y-98859580D02*
X89916666Y-98764342D01*
X89916666Y-98764342D02*
X89916666Y-98526247D01*
X89916666Y-98526247D02*
X89869047Y-98431009D01*
X89869047Y-98431009D02*
X89821428Y-98383390D01*
X89821428Y-98383390D02*
X89726190Y-98335771D01*
X89726190Y-98335771D02*
X89535714Y-98335771D01*
X89535714Y-98335771D02*
X89440476Y-98383390D01*
X89440476Y-98383390D02*
X89392857Y-98431009D01*
X89392857Y-98431009D02*
X89345238Y-98526247D01*
X85859580Y-95916666D02*
X85907200Y-95964285D01*
X85907200Y-95964285D02*
X85954819Y-96107142D01*
X85954819Y-96107142D02*
X85954819Y-96202380D01*
X85954819Y-96202380D02*
X85907200Y-96345237D01*
X85907200Y-96345237D02*
X85811961Y-96440475D01*
X85811961Y-96440475D02*
X85716723Y-96488094D01*
X85716723Y-96488094D02*
X85526247Y-96535713D01*
X85526247Y-96535713D02*
X85383390Y-96535713D01*
X85383390Y-96535713D02*
X85192914Y-96488094D01*
X85192914Y-96488094D02*
X85097676Y-96440475D01*
X85097676Y-96440475D02*
X85002438Y-96345237D01*
X85002438Y-96345237D02*
X84954819Y-96202380D01*
X84954819Y-96202380D02*
X84954819Y-96107142D01*
X84954819Y-96107142D02*
X85002438Y-95964285D01*
X85002438Y-95964285D02*
X85050057Y-95916666D01*
X85383390Y-95345237D02*
X85335771Y-95440475D01*
X85335771Y-95440475D02*
X85288152Y-95488094D01*
X85288152Y-95488094D02*
X85192914Y-95535713D01*
X85192914Y-95535713D02*
X85145295Y-95535713D01*
X85145295Y-95535713D02*
X85050057Y-95488094D01*
X85050057Y-95488094D02*
X85002438Y-95440475D01*
X85002438Y-95440475D02*
X84954819Y-95345237D01*
X84954819Y-95345237D02*
X84954819Y-95154761D01*
X84954819Y-95154761D02*
X85002438Y-95059523D01*
X85002438Y-95059523D02*
X85050057Y-95011904D01*
X85050057Y-95011904D02*
X85145295Y-94964285D01*
X85145295Y-94964285D02*
X85192914Y-94964285D01*
X85192914Y-94964285D02*
X85288152Y-95011904D01*
X85288152Y-95011904D02*
X85335771Y-95059523D01*
X85335771Y-95059523D02*
X85383390Y-95154761D01*
X85383390Y-95154761D02*
X85383390Y-95345237D01*
X85383390Y-95345237D02*
X85431009Y-95440475D01*
X85431009Y-95440475D02*
X85478628Y-95488094D01*
X85478628Y-95488094D02*
X85573866Y-95535713D01*
X85573866Y-95535713D02*
X85764342Y-95535713D01*
X85764342Y-95535713D02*
X85859580Y-95488094D01*
X85859580Y-95488094D02*
X85907200Y-95440475D01*
X85907200Y-95440475D02*
X85954819Y-95345237D01*
X85954819Y-95345237D02*
X85954819Y-95154761D01*
X85954819Y-95154761D02*
X85907200Y-95059523D01*
X85907200Y-95059523D02*
X85859580Y-95011904D01*
X85859580Y-95011904D02*
X85764342Y-94964285D01*
X85764342Y-94964285D02*
X85573866Y-94964285D01*
X85573866Y-94964285D02*
X85478628Y-95011904D01*
X85478628Y-95011904D02*
X85431009Y-95059523D01*
X85431009Y-95059523D02*
X85383390Y-95154761D01*
X74109580Y-104166666D02*
X74157200Y-104214285D01*
X74157200Y-104214285D02*
X74204819Y-104357142D01*
X74204819Y-104357142D02*
X74204819Y-104452380D01*
X74204819Y-104452380D02*
X74157200Y-104595237D01*
X74157200Y-104595237D02*
X74061961Y-104690475D01*
X74061961Y-104690475D02*
X73966723Y-104738094D01*
X73966723Y-104738094D02*
X73776247Y-104785713D01*
X73776247Y-104785713D02*
X73633390Y-104785713D01*
X73633390Y-104785713D02*
X73442914Y-104738094D01*
X73442914Y-104738094D02*
X73347676Y-104690475D01*
X73347676Y-104690475D02*
X73252438Y-104595237D01*
X73252438Y-104595237D02*
X73204819Y-104452380D01*
X73204819Y-104452380D02*
X73204819Y-104357142D01*
X73204819Y-104357142D02*
X73252438Y-104214285D01*
X73252438Y-104214285D02*
X73300057Y-104166666D01*
X73204819Y-103261904D02*
X73204819Y-103738094D01*
X73204819Y-103738094D02*
X73681009Y-103785713D01*
X73681009Y-103785713D02*
X73633390Y-103738094D01*
X73633390Y-103738094D02*
X73585771Y-103642856D01*
X73585771Y-103642856D02*
X73585771Y-103404761D01*
X73585771Y-103404761D02*
X73633390Y-103309523D01*
X73633390Y-103309523D02*
X73681009Y-103261904D01*
X73681009Y-103261904D02*
X73776247Y-103214285D01*
X73776247Y-103214285D02*
X74014342Y-103214285D01*
X74014342Y-103214285D02*
X74109580Y-103261904D01*
X74109580Y-103261904D02*
X74157200Y-103309523D01*
X74157200Y-103309523D02*
X74204819Y-103404761D01*
X74204819Y-103404761D02*
X74204819Y-103642856D01*
X74204819Y-103642856D02*
X74157200Y-103738094D01*
X74157200Y-103738094D02*
X74109580Y-103785713D01*
X84738095Y-113204819D02*
X84738095Y-114014342D01*
X84738095Y-114014342D02*
X84785714Y-114109580D01*
X84785714Y-114109580D02*
X84833333Y-114157200D01*
X84833333Y-114157200D02*
X84928571Y-114204819D01*
X84928571Y-114204819D02*
X85119047Y-114204819D01*
X85119047Y-114204819D02*
X85214285Y-114157200D01*
X85214285Y-114157200D02*
X85261904Y-114109580D01*
X85261904Y-114109580D02*
X85309523Y-114014342D01*
X85309523Y-114014342D02*
X85309523Y-113204819D01*
X86309523Y-114204819D02*
X85738095Y-114204819D01*
X86023809Y-114204819D02*
X86023809Y-113204819D01*
X86023809Y-113204819D02*
X85928571Y-113347676D01*
X85928571Y-113347676D02*
X85833333Y-113442914D01*
X85833333Y-113442914D02*
X85738095Y-113490533D01*
X84454819Y-93666666D02*
X83978628Y-93999999D01*
X84454819Y-94238094D02*
X83454819Y-94238094D01*
X83454819Y-94238094D02*
X83454819Y-93857142D01*
X83454819Y-93857142D02*
X83502438Y-93761904D01*
X83502438Y-93761904D02*
X83550057Y-93714285D01*
X83550057Y-93714285D02*
X83645295Y-93666666D01*
X83645295Y-93666666D02*
X83788152Y-93666666D01*
X83788152Y-93666666D02*
X83883390Y-93714285D01*
X83883390Y-93714285D02*
X83931009Y-93761904D01*
X83931009Y-93761904D02*
X83978628Y-93857142D01*
X83978628Y-93857142D02*
X83978628Y-94238094D01*
X83454819Y-93333332D02*
X83454819Y-92714285D01*
X83454819Y-92714285D02*
X83835771Y-93047618D01*
X83835771Y-93047618D02*
X83835771Y-92904761D01*
X83835771Y-92904761D02*
X83883390Y-92809523D01*
X83883390Y-92809523D02*
X83931009Y-92761904D01*
X83931009Y-92761904D02*
X84026247Y-92714285D01*
X84026247Y-92714285D02*
X84264342Y-92714285D01*
X84264342Y-92714285D02*
X84359580Y-92761904D01*
X84359580Y-92761904D02*
X84407200Y-92809523D01*
X84407200Y-92809523D02*
X84454819Y-92904761D01*
X84454819Y-92904761D02*
X84454819Y-93190475D01*
X84454819Y-93190475D02*
X84407200Y-93285713D01*
X84407200Y-93285713D02*
X84359580Y-93333332D01*
X90333333Y-126609580D02*
X90285714Y-126657200D01*
X90285714Y-126657200D02*
X90142857Y-126704819D01*
X90142857Y-126704819D02*
X90047619Y-126704819D01*
X90047619Y-126704819D02*
X89904762Y-126657200D01*
X89904762Y-126657200D02*
X89809524Y-126561961D01*
X89809524Y-126561961D02*
X89761905Y-126466723D01*
X89761905Y-126466723D02*
X89714286Y-126276247D01*
X89714286Y-126276247D02*
X89714286Y-126133390D01*
X89714286Y-126133390D02*
X89761905Y-125942914D01*
X89761905Y-125942914D02*
X89809524Y-125847676D01*
X89809524Y-125847676D02*
X89904762Y-125752438D01*
X89904762Y-125752438D02*
X90047619Y-125704819D01*
X90047619Y-125704819D02*
X90142857Y-125704819D01*
X90142857Y-125704819D02*
X90285714Y-125752438D01*
X90285714Y-125752438D02*
X90333333Y-125800057D01*
X90666667Y-125704819D02*
X91285714Y-125704819D01*
X91285714Y-125704819D02*
X90952381Y-126085771D01*
X90952381Y-126085771D02*
X91095238Y-126085771D01*
X91095238Y-126085771D02*
X91190476Y-126133390D01*
X91190476Y-126133390D02*
X91238095Y-126181009D01*
X91238095Y-126181009D02*
X91285714Y-126276247D01*
X91285714Y-126276247D02*
X91285714Y-126514342D01*
X91285714Y-126514342D02*
X91238095Y-126609580D01*
X91238095Y-126609580D02*
X91190476Y-126657200D01*
X91190476Y-126657200D02*
X91095238Y-126704819D01*
X91095238Y-126704819D02*
X90809524Y-126704819D01*
X90809524Y-126704819D02*
X90714286Y-126657200D01*
X90714286Y-126657200D02*
X90666667Y-126609580D01*
X80488095Y-101204819D02*
X80488095Y-102014342D01*
X80488095Y-102014342D02*
X80535714Y-102109580D01*
X80535714Y-102109580D02*
X80583333Y-102157200D01*
X80583333Y-102157200D02*
X80678571Y-102204819D01*
X80678571Y-102204819D02*
X80869047Y-102204819D01*
X80869047Y-102204819D02*
X80964285Y-102157200D01*
X80964285Y-102157200D02*
X81011904Y-102109580D01*
X81011904Y-102109580D02*
X81059523Y-102014342D01*
X81059523Y-102014342D02*
X81059523Y-101204819D01*
X81440476Y-101204819D02*
X82059523Y-101204819D01*
X82059523Y-101204819D02*
X81726190Y-101585771D01*
X81726190Y-101585771D02*
X81869047Y-101585771D01*
X81869047Y-101585771D02*
X81964285Y-101633390D01*
X81964285Y-101633390D02*
X82011904Y-101681009D01*
X82011904Y-101681009D02*
X82059523Y-101776247D01*
X82059523Y-101776247D02*
X82059523Y-102014342D01*
X82059523Y-102014342D02*
X82011904Y-102109580D01*
X82011904Y-102109580D02*
X81964285Y-102157200D01*
X81964285Y-102157200D02*
X81869047Y-102204819D01*
X81869047Y-102204819D02*
X81583333Y-102204819D01*
X81583333Y-102204819D02*
X81488095Y-102157200D01*
X81488095Y-102157200D02*
X81440476Y-102109580D01*
X85359580Y-87642857D02*
X85407200Y-87690476D01*
X85407200Y-87690476D02*
X85454819Y-87833333D01*
X85454819Y-87833333D02*
X85454819Y-87928571D01*
X85454819Y-87928571D02*
X85407200Y-88071428D01*
X85407200Y-88071428D02*
X85311961Y-88166666D01*
X85311961Y-88166666D02*
X85216723Y-88214285D01*
X85216723Y-88214285D02*
X85026247Y-88261904D01*
X85026247Y-88261904D02*
X84883390Y-88261904D01*
X84883390Y-88261904D02*
X84692914Y-88214285D01*
X84692914Y-88214285D02*
X84597676Y-88166666D01*
X84597676Y-88166666D02*
X84502438Y-88071428D01*
X84502438Y-88071428D02*
X84454819Y-87928571D01*
X84454819Y-87928571D02*
X84454819Y-87833333D01*
X84454819Y-87833333D02*
X84502438Y-87690476D01*
X84502438Y-87690476D02*
X84550057Y-87642857D01*
X85454819Y-86690476D02*
X85454819Y-87261904D01*
X85454819Y-86976190D02*
X84454819Y-86976190D01*
X84454819Y-86976190D02*
X84597676Y-87071428D01*
X84597676Y-87071428D02*
X84692914Y-87166666D01*
X84692914Y-87166666D02*
X84740533Y-87261904D01*
X84550057Y-86309523D02*
X84502438Y-86261904D01*
X84502438Y-86261904D02*
X84454819Y-86166666D01*
X84454819Y-86166666D02*
X84454819Y-85928571D01*
X84454819Y-85928571D02*
X84502438Y-85833333D01*
X84502438Y-85833333D02*
X84550057Y-85785714D01*
X84550057Y-85785714D02*
X84645295Y-85738095D01*
X84645295Y-85738095D02*
X84740533Y-85738095D01*
X84740533Y-85738095D02*
X84883390Y-85785714D01*
X84883390Y-85785714D02*
X85454819Y-86357142D01*
X85454819Y-86357142D02*
X85454819Y-85738095D01*
X85259523Y-127704819D02*
X85259523Y-126704819D01*
X85735713Y-127038152D02*
X85735713Y-127704819D01*
X85735713Y-127133390D02*
X85783332Y-127085771D01*
X85783332Y-127085771D02*
X85878570Y-127038152D01*
X85878570Y-127038152D02*
X86021427Y-127038152D01*
X86021427Y-127038152D02*
X86116665Y-127085771D01*
X86116665Y-127085771D02*
X86164284Y-127181009D01*
X86164284Y-127181009D02*
X86164284Y-127704819D01*
X86640475Y-127038152D02*
X86640475Y-128038152D01*
X86640475Y-127085771D02*
X86735713Y-127038152D01*
X86735713Y-127038152D02*
X86926189Y-127038152D01*
X86926189Y-127038152D02*
X87021427Y-127085771D01*
X87021427Y-127085771D02*
X87069046Y-127133390D01*
X87069046Y-127133390D02*
X87116665Y-127228628D01*
X87116665Y-127228628D02*
X87116665Y-127514342D01*
X87116665Y-127514342D02*
X87069046Y-127609580D01*
X87069046Y-127609580D02*
X87021427Y-127657200D01*
X87021427Y-127657200D02*
X86926189Y-127704819D01*
X86926189Y-127704819D02*
X86735713Y-127704819D01*
X86735713Y-127704819D02*
X86640475Y-127657200D01*
X87973808Y-127038152D02*
X87973808Y-127704819D01*
X87545237Y-127038152D02*
X87545237Y-127561961D01*
X87545237Y-127561961D02*
X87592856Y-127657200D01*
X87592856Y-127657200D02*
X87688094Y-127704819D01*
X87688094Y-127704819D02*
X87830951Y-127704819D01*
X87830951Y-127704819D02*
X87926189Y-127657200D01*
X87926189Y-127657200D02*
X87973808Y-127609580D01*
X88307142Y-127038152D02*
X88688094Y-127038152D01*
X88449999Y-126704819D02*
X88449999Y-127561961D01*
X88449999Y-127561961D02*
X88497618Y-127657200D01*
X88497618Y-127657200D02*
X88592856Y-127704819D01*
X88592856Y-127704819D02*
X88688094Y-127704819D01*
X89783333Y-127038152D02*
X89783333Y-128038152D01*
X89783333Y-127085771D02*
X89878571Y-127038152D01*
X89878571Y-127038152D02*
X90069047Y-127038152D01*
X90069047Y-127038152D02*
X90164285Y-127085771D01*
X90164285Y-127085771D02*
X90211904Y-127133390D01*
X90211904Y-127133390D02*
X90259523Y-127228628D01*
X90259523Y-127228628D02*
X90259523Y-127514342D01*
X90259523Y-127514342D02*
X90211904Y-127609580D01*
X90211904Y-127609580D02*
X90164285Y-127657200D01*
X90164285Y-127657200D02*
X90069047Y-127704819D01*
X90069047Y-127704819D02*
X89878571Y-127704819D01*
X89878571Y-127704819D02*
X89783333Y-127657200D01*
X90830952Y-127704819D02*
X90735714Y-127657200D01*
X90735714Y-127657200D02*
X90688095Y-127609580D01*
X90688095Y-127609580D02*
X90640476Y-127514342D01*
X90640476Y-127514342D02*
X90640476Y-127228628D01*
X90640476Y-127228628D02*
X90688095Y-127133390D01*
X90688095Y-127133390D02*
X90735714Y-127085771D01*
X90735714Y-127085771D02*
X90830952Y-127038152D01*
X90830952Y-127038152D02*
X90973809Y-127038152D01*
X90973809Y-127038152D02*
X91069047Y-127085771D01*
X91069047Y-127085771D02*
X91116666Y-127133390D01*
X91116666Y-127133390D02*
X91164285Y-127228628D01*
X91164285Y-127228628D02*
X91164285Y-127514342D01*
X91164285Y-127514342D02*
X91116666Y-127609580D01*
X91116666Y-127609580D02*
X91069047Y-127657200D01*
X91069047Y-127657200D02*
X90973809Y-127704819D01*
X90973809Y-127704819D02*
X90830952Y-127704819D01*
X91497619Y-127038152D02*
X91688095Y-127704819D01*
X91688095Y-127704819D02*
X91878571Y-127228628D01*
X91878571Y-127228628D02*
X92069047Y-127704819D01*
X92069047Y-127704819D02*
X92259523Y-127038152D01*
X93021428Y-127657200D02*
X92926190Y-127704819D01*
X92926190Y-127704819D02*
X92735714Y-127704819D01*
X92735714Y-127704819D02*
X92640476Y-127657200D01*
X92640476Y-127657200D02*
X92592857Y-127561961D01*
X92592857Y-127561961D02*
X92592857Y-127181009D01*
X92592857Y-127181009D02*
X92640476Y-127085771D01*
X92640476Y-127085771D02*
X92735714Y-127038152D01*
X92735714Y-127038152D02*
X92926190Y-127038152D01*
X92926190Y-127038152D02*
X93021428Y-127085771D01*
X93021428Y-127085771D02*
X93069047Y-127181009D01*
X93069047Y-127181009D02*
X93069047Y-127276247D01*
X93069047Y-127276247D02*
X92592857Y-127371485D01*
X93497619Y-127704819D02*
X93497619Y-127038152D01*
X93497619Y-127228628D02*
X93545238Y-127133390D01*
X93545238Y-127133390D02*
X93592857Y-127085771D01*
X93592857Y-127085771D02*
X93688095Y-127038152D01*
X93688095Y-127038152D02*
X93783333Y-127038152D01*
X102679819Y-101761904D02*
X103489342Y-101761904D01*
X103489342Y-101761904D02*
X103584580Y-101714285D01*
X103584580Y-101714285D02*
X103632200Y-101666666D01*
X103632200Y-101666666D02*
X103679819Y-101571428D01*
X103679819Y-101571428D02*
X103679819Y-101380952D01*
X103679819Y-101380952D02*
X103632200Y-101285714D01*
X103632200Y-101285714D02*
X103584580Y-101238095D01*
X103584580Y-101238095D02*
X103489342Y-101190476D01*
X103489342Y-101190476D02*
X102679819Y-101190476D01*
X103108390Y-100571428D02*
X103060771Y-100666666D01*
X103060771Y-100666666D02*
X103013152Y-100714285D01*
X103013152Y-100714285D02*
X102917914Y-100761904D01*
X102917914Y-100761904D02*
X102870295Y-100761904D01*
X102870295Y-100761904D02*
X102775057Y-100714285D01*
X102775057Y-100714285D02*
X102727438Y-100666666D01*
X102727438Y-100666666D02*
X102679819Y-100571428D01*
X102679819Y-100571428D02*
X102679819Y-100380952D01*
X102679819Y-100380952D02*
X102727438Y-100285714D01*
X102727438Y-100285714D02*
X102775057Y-100238095D01*
X102775057Y-100238095D02*
X102870295Y-100190476D01*
X102870295Y-100190476D02*
X102917914Y-100190476D01*
X102917914Y-100190476D02*
X103013152Y-100238095D01*
X103013152Y-100238095D02*
X103060771Y-100285714D01*
X103060771Y-100285714D02*
X103108390Y-100380952D01*
X103108390Y-100380952D02*
X103108390Y-100571428D01*
X103108390Y-100571428D02*
X103156009Y-100666666D01*
X103156009Y-100666666D02*
X103203628Y-100714285D01*
X103203628Y-100714285D02*
X103298866Y-100761904D01*
X103298866Y-100761904D02*
X103489342Y-100761904D01*
X103489342Y-100761904D02*
X103584580Y-100714285D01*
X103584580Y-100714285D02*
X103632200Y-100666666D01*
X103632200Y-100666666D02*
X103679819Y-100571428D01*
X103679819Y-100571428D02*
X103679819Y-100380952D01*
X103679819Y-100380952D02*
X103632200Y-100285714D01*
X103632200Y-100285714D02*
X103584580Y-100238095D01*
X103584580Y-100238095D02*
X103489342Y-100190476D01*
X103489342Y-100190476D02*
X103298866Y-100190476D01*
X103298866Y-100190476D02*
X103203628Y-100238095D01*
X103203628Y-100238095D02*
X103156009Y-100285714D01*
X103156009Y-100285714D02*
X103108390Y-100380952D01*
X85483333Y-135109580D02*
X85435714Y-135157200D01*
X85435714Y-135157200D02*
X85292857Y-135204819D01*
X85292857Y-135204819D02*
X85197619Y-135204819D01*
X85197619Y-135204819D02*
X85054762Y-135157200D01*
X85054762Y-135157200D02*
X84959524Y-135061961D01*
X84959524Y-135061961D02*
X84911905Y-134966723D01*
X84911905Y-134966723D02*
X84864286Y-134776247D01*
X84864286Y-134776247D02*
X84864286Y-134633390D01*
X84864286Y-134633390D02*
X84911905Y-134442914D01*
X84911905Y-134442914D02*
X84959524Y-134347676D01*
X84959524Y-134347676D02*
X85054762Y-134252438D01*
X85054762Y-134252438D02*
X85197619Y-134204819D01*
X85197619Y-134204819D02*
X85292857Y-134204819D01*
X85292857Y-134204819D02*
X85435714Y-134252438D01*
X85435714Y-134252438D02*
X85483333Y-134300057D01*
X86340476Y-134538152D02*
X86340476Y-135204819D01*
X86102381Y-134157200D02*
X85864286Y-134871485D01*
X85864286Y-134871485D02*
X86483333Y-134871485D01*
X108069819Y-130386904D02*
X108879342Y-130386904D01*
X108879342Y-130386904D02*
X108974580Y-130339285D01*
X108974580Y-130339285D02*
X109022200Y-130291666D01*
X109022200Y-130291666D02*
X109069819Y-130196428D01*
X109069819Y-130196428D02*
X109069819Y-130005952D01*
X109069819Y-130005952D02*
X109022200Y-129910714D01*
X109022200Y-129910714D02*
X108974580Y-129863095D01*
X108974580Y-129863095D02*
X108879342Y-129815476D01*
X108879342Y-129815476D02*
X108069819Y-129815476D01*
X108403152Y-128910714D02*
X109069819Y-128910714D01*
X108022200Y-129148809D02*
X108736485Y-129386904D01*
X108736485Y-129386904D02*
X108736485Y-128767857D01*
X80109580Y-79142857D02*
X80157200Y-79190476D01*
X80157200Y-79190476D02*
X80204819Y-79333333D01*
X80204819Y-79333333D02*
X80204819Y-79428571D01*
X80204819Y-79428571D02*
X80157200Y-79571428D01*
X80157200Y-79571428D02*
X80061961Y-79666666D01*
X80061961Y-79666666D02*
X79966723Y-79714285D01*
X79966723Y-79714285D02*
X79776247Y-79761904D01*
X79776247Y-79761904D02*
X79633390Y-79761904D01*
X79633390Y-79761904D02*
X79442914Y-79714285D01*
X79442914Y-79714285D02*
X79347676Y-79666666D01*
X79347676Y-79666666D02*
X79252438Y-79571428D01*
X79252438Y-79571428D02*
X79204819Y-79428571D01*
X79204819Y-79428571D02*
X79204819Y-79333333D01*
X79204819Y-79333333D02*
X79252438Y-79190476D01*
X79252438Y-79190476D02*
X79300057Y-79142857D01*
X80204819Y-78190476D02*
X80204819Y-78761904D01*
X80204819Y-78476190D02*
X79204819Y-78476190D01*
X79204819Y-78476190D02*
X79347676Y-78571428D01*
X79347676Y-78571428D02*
X79442914Y-78666666D01*
X79442914Y-78666666D02*
X79490533Y-78761904D01*
X80204819Y-77238095D02*
X80204819Y-77809523D01*
X80204819Y-77523809D02*
X79204819Y-77523809D01*
X79204819Y-77523809D02*
X79347676Y-77619047D01*
X79347676Y-77619047D02*
X79442914Y-77714285D01*
X79442914Y-77714285D02*
X79490533Y-77809523D01*
X101359580Y-134241666D02*
X101407200Y-134289285D01*
X101407200Y-134289285D02*
X101454819Y-134432142D01*
X101454819Y-134432142D02*
X101454819Y-134527380D01*
X101454819Y-134527380D02*
X101407200Y-134670237D01*
X101407200Y-134670237D02*
X101311961Y-134765475D01*
X101311961Y-134765475D02*
X101216723Y-134813094D01*
X101216723Y-134813094D02*
X101026247Y-134860713D01*
X101026247Y-134860713D02*
X100883390Y-134860713D01*
X100883390Y-134860713D02*
X100692914Y-134813094D01*
X100692914Y-134813094D02*
X100597676Y-134765475D01*
X100597676Y-134765475D02*
X100502438Y-134670237D01*
X100502438Y-134670237D02*
X100454819Y-134527380D01*
X100454819Y-134527380D02*
X100454819Y-134432142D01*
X100454819Y-134432142D02*
X100502438Y-134289285D01*
X100502438Y-134289285D02*
X100550057Y-134241666D01*
X101454819Y-133289285D02*
X101454819Y-133860713D01*
X101454819Y-133574999D02*
X100454819Y-133574999D01*
X100454819Y-133574999D02*
X100597676Y-133670237D01*
X100597676Y-133670237D02*
X100692914Y-133765475D01*
X100692914Y-133765475D02*
X100740533Y-133860713D01*
D12*
%TO.C,L1*%
X90300000Y-106500000D02*
X90300000Y-109450000D01*
X90300000Y-115050000D02*
X90300000Y-117950000D01*
X91000000Y-105850000D02*
X102500000Y-105850000D01*
X102500000Y-118650000D02*
X91000000Y-118650000D01*
X103200000Y-106550000D02*
X103200000Y-109450000D01*
X103200000Y-115050000D02*
X103200000Y-117950000D01*
X90300000Y-106550000D02*
G75*
G02*
X91000000Y-105850000I699999J1D01*
G01*
X91000000Y-118650000D02*
G75*
G02*
X90300000Y-117950000I-1J699999D01*
G01*
X102500000Y-105850000D02*
G75*
G02*
X103200000Y-106550000I0J-700000D01*
G01*
X103200000Y-117950000D02*
G75*
G02*
X102500000Y-118650000I-700000J0D01*
G01*
%TO.C,J5*%
X71850000Y-81910000D02*
X77850000Y-81910000D01*
X71850000Y-82770000D02*
X71850000Y-81910000D01*
X71850000Y-84450000D02*
X77850000Y-84450000D01*
X71850000Y-85310000D02*
X71850000Y-84450000D01*
X71850000Y-86990000D02*
X77850000Y-86990000D01*
X71850000Y-87850000D02*
X71850000Y-86990000D01*
X71850000Y-89530000D02*
X77850000Y-89530000D01*
X71850000Y-90390000D02*
X71850000Y-89530000D01*
X77850000Y-80960000D02*
X77850000Y-93880000D01*
X77850000Y-82770000D02*
X71850000Y-82770000D01*
X77850000Y-85310000D02*
X71850000Y-85310000D01*
X77850000Y-87850000D02*
X71850000Y-87850000D01*
X77850000Y-90390000D02*
X71850000Y-90390000D01*
X77850000Y-93880000D02*
X80610000Y-93880000D01*
X80610000Y-80960000D02*
X77850000Y-80960000D01*
X80610000Y-83610000D02*
X77850000Y-83610000D01*
X80610000Y-86150000D02*
X77850000Y-86150000D01*
X80610000Y-88690000D02*
X77850000Y-88690000D01*
X80610000Y-91230000D02*
X77850000Y-91230000D01*
X80610000Y-93880000D02*
X80610000Y-80960000D01*
X80840000Y-92070000D02*
X80610000Y-92070000D01*
X80840000Y-92930000D02*
X80610000Y-92930000D01*
X80922642Y-81910000D02*
X80610000Y-81910000D01*
X80922642Y-82770000D02*
X80610000Y-82770000D01*
X80922642Y-84450000D02*
X80610000Y-84450000D01*
X80922642Y-85310000D02*
X80610000Y-85310000D01*
X80922642Y-86990000D02*
X80610000Y-86990000D01*
X80922642Y-87850000D02*
X80610000Y-87850000D01*
X80922642Y-89530000D02*
X80610000Y-89530000D01*
X80922642Y-90390000D02*
X80610000Y-90390000D01*
X83270000Y-92500000D02*
X83270000Y-93770000D01*
X83270000Y-93770000D02*
X82000000Y-93770000D01*
X77850000Y-92930000D02*
X71850000Y-92930000D01*
X71850000Y-92070000D01*
X77850000Y-92070000D01*
X77850000Y-92930000D01*
G36*
X77850000Y-92930000D02*
G01*
X71850000Y-92930000D01*
X71850000Y-92070000D01*
X77850000Y-92070000D01*
X77850000Y-92930000D01*
G37*
%TO.C,J10*%
X107550000Y-96845000D02*
X114290000Y-96845000D01*
X107550000Y-102665000D02*
X107550000Y-96845000D01*
X109270000Y-102665000D02*
X109270000Y-96845000D01*
X112370000Y-102665000D02*
X112370000Y-96845000D01*
X113370000Y-102665000D02*
X113370000Y-96845000D01*
X114290000Y-96845000D02*
X114290000Y-100725000D01*
X114290000Y-101325000D02*
X114290000Y-102665000D01*
X114290000Y-102665000D02*
X107550000Y-102665000D01*
X114900000Y-101465000D02*
X114290000Y-101025000D01*
X114900000Y-100585000D01*
X114900000Y-101465000D01*
G36*
X114900000Y-101465000D02*
G01*
X114290000Y-101025000D01*
X114900000Y-100585000D01*
X114900000Y-101465000D01*
G37*
%TO.C,J4*%
X72730000Y-94922500D02*
X79470000Y-94922500D01*
X72730000Y-96262500D02*
X72730000Y-94922500D01*
X72730000Y-100742500D02*
X72730000Y-96862500D01*
X73650000Y-94922500D02*
X73650000Y-100742500D01*
X74650000Y-94922500D02*
X74650000Y-100742500D01*
X77750000Y-94922500D02*
X77750000Y-100742500D01*
X79470000Y-94922500D02*
X79470000Y-100742500D01*
X79470000Y-100742500D02*
X72730000Y-100742500D01*
X72730000Y-96562500D02*
X72120000Y-97002500D01*
X72120000Y-96122500D01*
X72730000Y-96562500D01*
G36*
X72730000Y-96562500D02*
G01*
X72120000Y-97002500D01*
X72120000Y-96122500D01*
X72730000Y-96562500D01*
G37*
%TO.C,U7*%
X86800000Y-95640000D02*
X86800000Y-94690000D01*
X88200000Y-95640000D02*
X86800000Y-95640000D01*
X103800000Y-95640000D02*
X105200000Y-95640000D01*
X105200000Y-95640000D02*
X105200000Y-94690000D01*
X86800000Y-76690000D02*
X86300000Y-76690000D01*
X86800000Y-76190000D01*
X86800000Y-76690000D01*
G36*
X86800000Y-76690000D02*
G01*
X86300000Y-76690000D01*
X86800000Y-76190000D01*
X86800000Y-76690000D01*
G37*
%TO.C,J11*%
X107550000Y-103570000D02*
X114290000Y-103570000D01*
X107550000Y-109390000D02*
X107550000Y-103570000D01*
X109270000Y-109390000D02*
X109270000Y-103570000D01*
X112370000Y-109390000D02*
X112370000Y-103570000D01*
X113370000Y-109390000D02*
X113370000Y-103570000D01*
X114290000Y-103570000D02*
X114290000Y-107450000D01*
X114290000Y-108050000D02*
X114290000Y-109390000D01*
X114290000Y-109390000D02*
X107550000Y-109390000D01*
X114900000Y-108190000D02*
X114290000Y-107750000D01*
X114900000Y-107310000D01*
X114900000Y-108190000D01*
G36*
X114900000Y-108190000D02*
G01*
X114290000Y-107750000D01*
X114900000Y-107310000D01*
X114900000Y-108190000D01*
G37*
%TO.C,U6*%
X82650000Y-105090000D02*
X86410000Y-105090000D01*
X82650000Y-111910000D02*
X86410000Y-111910000D01*
X86410000Y-105090000D02*
X86410000Y-106350000D01*
X86410000Y-111910000D02*
X86410000Y-110650000D01*
X81370000Y-105190000D02*
X81130000Y-104860000D01*
X81610000Y-104860000D01*
X81370000Y-105190000D01*
G36*
X81370000Y-105190000D02*
G01*
X81130000Y-104860000D01*
X81610000Y-104860000D01*
X81370000Y-105190000D01*
G37*
%TO.C,J3*%
X108570000Y-128480000D02*
X112450000Y-128480000D01*
X108570000Y-135220000D02*
X108570000Y-128480000D01*
X113050000Y-128480000D02*
X114390000Y-128480000D01*
X114390000Y-128480000D02*
X114390000Y-135220000D01*
X114390000Y-129400000D02*
X108570000Y-129400000D01*
X114390000Y-130400000D02*
X108570000Y-130400000D01*
X114390000Y-133500000D02*
X108570000Y-133500000D01*
X114390000Y-135220000D02*
X108570000Y-135220000D01*
X112750000Y-128480000D02*
X112310000Y-127870000D01*
X113190000Y-127870000D01*
X112750000Y-128480000D01*
G36*
X112750000Y-128480000D02*
G01*
X112310000Y-127870000D01*
X113190000Y-127870000D01*
X112750000Y-128480000D01*
G37*
%TO.C,J8*%
X107517500Y-83360000D02*
X114257500Y-83360000D01*
X107517500Y-89180000D02*
X107517500Y-83360000D01*
X109237500Y-89180000D02*
X109237500Y-83360000D01*
X112337500Y-89180000D02*
X112337500Y-83360000D01*
X113337500Y-89180000D02*
X113337500Y-83360000D01*
X114257500Y-83360000D02*
X114257500Y-87240000D01*
X114257500Y-87840000D02*
X114257500Y-89180000D01*
X114257500Y-89180000D02*
X107517500Y-89180000D01*
X114867500Y-87980000D02*
X114257500Y-87540000D01*
X114867500Y-87100000D01*
X114867500Y-87980000D01*
G36*
X114867500Y-87980000D02*
G01*
X114257500Y-87540000D01*
X114867500Y-87100000D01*
X114867500Y-87980000D01*
G37*
%TO.C,C10*%
X82265000Y-78723752D02*
X82265000Y-78201248D01*
X83735000Y-78723752D02*
X83735000Y-78201248D01*
%TO.C,C2*%
X92940000Y-127077500D02*
X95290000Y-127077500D01*
X92940000Y-132833063D02*
X92940000Y-127077500D01*
X94004437Y-133897500D02*
X92940000Y-132833063D01*
X94004437Y-133897500D02*
X95290000Y-133897500D01*
X94108750Y-134531250D02*
X94896250Y-134531250D01*
X94502500Y-134925000D02*
X94502500Y-134137500D01*
X98695563Y-133897500D02*
X97410000Y-133897500D01*
X98695563Y-133897500D02*
X99760000Y-132833063D01*
X99760000Y-127077500D02*
X97410000Y-127077500D01*
X99760000Y-132833063D02*
X99760000Y-127077500D01*
%TO.C,R1*%
X108272936Y-124015000D02*
X108727064Y-124015000D01*
X108272936Y-125485000D02*
X108727064Y-125485000D01*
%TO.C,C6*%
X84490000Y-100240000D02*
X84490000Y-101440000D01*
X84490000Y-104760000D02*
X84490000Y-103560000D01*
X87945563Y-100240000D02*
X84490000Y-100240000D01*
X87945563Y-104760000D02*
X84490000Y-104760000D01*
X89010000Y-101304437D02*
X87945563Y-100240000D01*
X89010000Y-101304437D02*
X89010000Y-101440000D01*
X89010000Y-103695563D02*
X87945563Y-104760000D01*
X89010000Y-103695563D02*
X89010000Y-103560000D01*
X89500000Y-104310000D02*
X89500000Y-103810000D01*
X89750000Y-104060000D02*
X89250000Y-104060000D01*
%TO.C,R2*%
X84265000Y-79772936D02*
X84265000Y-80227064D01*
X85735000Y-79772936D02*
X85735000Y-80227064D01*
%TO.C,D1*%
X89840000Y-119000000D02*
X98350000Y-119000000D01*
X89840000Y-125500000D02*
X89840000Y-119000000D01*
X89840000Y-125500000D02*
X98350000Y-125500000D01*
%TO.C,C7*%
X81701248Y-94827500D02*
X82223752Y-94827500D01*
X81701248Y-96297500D02*
X82223752Y-96297500D01*
%TO.C,J6*%
X86755000Y-96515000D02*
X87500000Y-96515000D01*
X86755000Y-97250000D02*
X86755000Y-96515000D01*
X86755000Y-97985000D02*
X86755000Y-99860000D01*
X86755000Y-97985000D02*
X86814435Y-97985000D01*
X86755000Y-99860000D02*
X87089970Y-99860000D01*
X87910030Y-99860000D02*
X88245000Y-99860000D01*
X88185565Y-97985000D02*
X88245000Y-97985000D01*
X88245000Y-97985000D02*
X88245000Y-99860000D01*
%TO.C,C8*%
X84515000Y-98473752D02*
X84515000Y-97951248D01*
X85985000Y-98473752D02*
X85985000Y-97951248D01*
%TO.C,J13*%
X107550000Y-117095000D02*
X114290000Y-117095000D01*
X107550000Y-122915000D02*
X107550000Y-117095000D01*
X109270000Y-122915000D02*
X109270000Y-117095000D01*
X112370000Y-122915000D02*
X112370000Y-117095000D01*
X113370000Y-122915000D02*
X113370000Y-117095000D01*
X114290000Y-117095000D02*
X114290000Y-120975000D01*
X114290000Y-121575000D02*
X114290000Y-122915000D01*
X114290000Y-122915000D02*
X107550000Y-122915000D01*
X114900000Y-121715000D02*
X114290000Y-121275000D01*
X114900000Y-120835000D01*
X114900000Y-121715000D01*
G36*
X114900000Y-121715000D02*
G01*
X114290000Y-121275000D01*
X114900000Y-120835000D01*
X114900000Y-121715000D01*
G37*
%TO.C,C5*%
X79410000Y-110883063D02*
X79410000Y-105127500D01*
X79410000Y-105127500D02*
X77060000Y-105127500D01*
X78345563Y-111947500D02*
X79410000Y-110883063D01*
X78345563Y-111947500D02*
X77060000Y-111947500D01*
X73654437Y-111947500D02*
X74940000Y-111947500D01*
X73654437Y-111947500D02*
X72590000Y-110883063D01*
X72590000Y-110883063D02*
X72590000Y-105127500D01*
X72590000Y-105127500D02*
X74940000Y-105127500D01*
%TO.C,U1*%
X82535000Y-113462500D02*
X83900000Y-113462500D01*
X82535000Y-123862500D02*
X83900000Y-123862500D01*
X83900000Y-113462500D02*
X83900000Y-114412500D01*
X83900000Y-123862500D02*
X83900000Y-122912500D01*
X87065000Y-123342500D02*
X86385000Y-123342500D01*
X86725000Y-122872500D01*
X87065000Y-123342500D01*
G36*
X87065000Y-123342500D02*
G01*
X86385000Y-123342500D01*
X86725000Y-122872500D01*
X87065000Y-123342500D01*
G37*
%TO.C,R3*%
X84015000Y-90772936D02*
X84015000Y-91227064D01*
X85485000Y-90772936D02*
X85485000Y-91227064D01*
%TO.C,C3*%
X87201248Y-124765000D02*
X87723752Y-124765000D01*
X87201248Y-126235000D02*
X87723752Y-126235000D01*
%TO.C,U3*%
X80390000Y-97390000D02*
X80390000Y-97865000D01*
X80390000Y-100610000D02*
X80390000Y-100135000D01*
X80865000Y-97390000D02*
X80390000Y-97390000D01*
X80865000Y-100610000D02*
X80390000Y-100610000D01*
X83135000Y-97390000D02*
X83610000Y-97390000D01*
X83135000Y-100610000D02*
X83310000Y-100610000D01*
X83610000Y-97390000D02*
X83610000Y-97865000D01*
X83610000Y-100135000D02*
X83610000Y-100370000D01*
X83850000Y-100940000D02*
X83370000Y-100940000D01*
X83610000Y-100610000D01*
X83850000Y-100940000D01*
G36*
X83850000Y-100940000D02*
G01*
X83370000Y-100940000D01*
X83610000Y-100610000D01*
X83850000Y-100940000D01*
G37*
%TO.C,C12*%
X84265000Y-84011252D02*
X84265000Y-83488748D01*
X85735000Y-84011252D02*
X85735000Y-83488748D01*
%TO.C,J1*%
X86520000Y-128285000D02*
X92340000Y-128285000D01*
X86520000Y-130005000D02*
X92340000Y-130005000D01*
X86520000Y-133105000D02*
X92340000Y-133105000D01*
X86520000Y-134105000D02*
X92340000Y-134105000D01*
X86520000Y-135025000D02*
X86520000Y-128285000D01*
X87860000Y-135025000D02*
X86520000Y-135025000D01*
X92340000Y-128285000D02*
X92340000Y-135025000D01*
X92340000Y-135025000D02*
X88460000Y-135025000D01*
X88600000Y-135635000D02*
X87720000Y-135635000D01*
X88160000Y-135025000D01*
X88600000Y-135635000D01*
G36*
X88600000Y-135635000D02*
G01*
X87720000Y-135635000D01*
X88160000Y-135025000D01*
X88600000Y-135635000D01*
G37*
%TO.C,U8*%
X92265000Y-101000000D02*
X92265000Y-99050000D01*
X92265000Y-101000000D02*
X92265000Y-102950000D01*
X102385000Y-101000000D02*
X102385000Y-99050000D01*
X102385000Y-101000000D02*
X102385000Y-102950000D01*
X102660000Y-98540000D02*
X102330000Y-98300000D01*
X102660000Y-98060000D01*
X102660000Y-98540000D01*
G36*
X102660000Y-98540000D02*
G01*
X102330000Y-98300000D01*
X102660000Y-98060000D01*
X102660000Y-98540000D01*
G37*
%TO.C,J9*%
X107550000Y-90110000D02*
X114290000Y-90110000D01*
X107550000Y-95930000D02*
X107550000Y-90110000D01*
X109270000Y-95930000D02*
X109270000Y-90110000D01*
X112370000Y-95930000D02*
X112370000Y-90110000D01*
X113370000Y-95930000D02*
X113370000Y-90110000D01*
X114290000Y-90110000D02*
X114290000Y-93990000D01*
X114290000Y-94590000D02*
X114290000Y-95930000D01*
X114290000Y-95930000D02*
X107550000Y-95930000D01*
X114900000Y-94730000D02*
X114290000Y-94290000D01*
X114900000Y-93850000D01*
X114900000Y-94730000D01*
G36*
X114900000Y-94730000D02*
G01*
X114290000Y-94290000D01*
X114900000Y-93850000D01*
X114900000Y-94730000D01*
G37*
%TO.C,C4*%
X74090000Y-124677500D02*
X74090000Y-128527500D01*
X74090000Y-135397500D02*
X74090000Y-131547500D01*
X83745563Y-124677500D02*
X74090000Y-124677500D01*
X83745563Y-135397500D02*
X74090000Y-135397500D01*
X84810000Y-125741937D02*
X83745563Y-124677500D01*
X84810000Y-125741937D02*
X84810000Y-128527500D01*
X84810000Y-134333063D02*
X83745563Y-135397500D01*
X84810000Y-134333063D02*
X84810000Y-131547500D01*
X85675000Y-133422500D02*
X85675000Y-132172500D01*
X86300000Y-132797500D02*
X85050000Y-132797500D01*
D11*
%TO.C,U4*%
X102540000Y-127550000D02*
X102540000Y-131700000D01*
X107690000Y-127550000D02*
X107690000Y-131700000D01*
D12*
X107920000Y-127190000D02*
X107590000Y-126950000D01*
X107920000Y-126710000D01*
X107920000Y-127190000D01*
G36*
X107920000Y-127190000D02*
G01*
X107590000Y-126950000D01*
X107920000Y-126710000D01*
X107920000Y-127190000D01*
G37*
%TO.C,C11*%
X80265000Y-78723752D02*
X80265000Y-78201248D01*
X81735000Y-78723752D02*
X81735000Y-78201248D01*
%TO.C,C1*%
X100265000Y-131048752D02*
X100265000Y-130526248D01*
X101735000Y-131048752D02*
X101735000Y-130526248D01*
%TO.C,J7*%
X107550000Y-76610000D02*
X114290000Y-76610000D01*
X107550000Y-82430000D02*
X107550000Y-76610000D01*
X109270000Y-82430000D02*
X109270000Y-76610000D01*
X112370000Y-82430000D02*
X112370000Y-76610000D01*
X113370000Y-82430000D02*
X113370000Y-76610000D01*
X114290000Y-76610000D02*
X114290000Y-80490000D01*
X114290000Y-81090000D02*
X114290000Y-82430000D01*
X114290000Y-82430000D02*
X107550000Y-82430000D01*
X114900000Y-81230000D02*
X114290000Y-80790000D01*
X114900000Y-80350000D01*
X114900000Y-81230000D01*
G36*
X114900000Y-81230000D02*
G01*
X114290000Y-80790000D01*
X114900000Y-80350000D01*
X114900000Y-81230000D01*
G37*
%TO.C,J12*%
X107550000Y-110360000D02*
X114290000Y-110360000D01*
X107550000Y-116180000D02*
X107550000Y-110360000D01*
X109270000Y-116180000D02*
X109270000Y-110360000D01*
X112370000Y-116180000D02*
X112370000Y-110360000D01*
X113370000Y-116180000D02*
X113370000Y-110360000D01*
X114290000Y-110360000D02*
X114290000Y-114240000D01*
X114290000Y-114840000D02*
X114290000Y-116180000D01*
X114290000Y-116180000D02*
X107550000Y-116180000D01*
X114900000Y-114980000D02*
X114290000Y-114540000D01*
X114900000Y-114100000D01*
X114900000Y-114980000D01*
G36*
X114900000Y-114980000D02*
G01*
X114290000Y-114540000D01*
X114900000Y-114100000D01*
X114900000Y-114980000D01*
G37*
%TD*%
M02*
