%TF.GenerationSoftware,KiCad,Pcbnew,9.0.3-9.0.3-0~ubuntu24.04.1*%
%TF.CreationDate,2026-04-21T10:17:34+03:00*%
%TF.ProjectId,sounddecoder-esp32-s3-wroom-2,736f756e-6464-4656-936f-6465722d6573,rev?*%
%TF.SameCoordinates,Original*%
%TF.FileFunction,Soldermask,Top*%
%TF.FilePolarity,Negative*%
%FSLAX46Y46*%
G04 Gerber Fmt 4.6, Leading zero omitted, Abs format (unit mm)*
G04 Created by KiCad (PCBNEW 9.0.3-9.0.3-0~ubuntu24.04.1) date 2026-04-21 10:17:34*
%MOMM*%
%LPD*%
G01*
G04 APERTURE LIST*
G04 Aperture macros list*
%AMRoundRect*
0 Rectangle with rounded corners*
0 $1 Rounding radius*
0 $2 $3 $4 $5 $6 $7 $8 $9 X,Y pos of 4 corners*
0 Add a 4 corners polygon primitive as box body*
4,1,4,$2,$3,$4,$5,$6,$7,$8,$9,$2,$3,0*
0 Add four circle primitives for the rounded corners*
1,1,$1+$1,$2,$3*
1,1,$1+$1,$4,$5*
1,1,$1+$1,$6,$7*
1,1,$1+$1,$8,$9*
0 Add four rect primitives between the rounded corners*
20,1,$1+$1,$2,$3,$4,$5,0*
20,1,$1+$1,$4,$5,$6,$7,0*
20,1,$1+$1,$6,$7,$8,$9,0*
20,1,$1+$1,$8,$9,$2,$3,0*%
G04 Aperture macros list end*
%ADD10R,3.100000X5.000000*%
%ADD11R,1.700000X1.700000*%
%ADD12C,1.700000*%
%ADD13RoundRect,0.250000X0.750000X-0.750000X0.750000X0.750000X-0.750000X0.750000X-0.750000X-0.750000X0*%
%ADD14C,2.000000*%
%ADD15RoundRect,0.250000X-0.750000X0.750000X-0.750000X-0.750000X0.750000X-0.750000X0.750000X0.750000X0*%
%ADD16R,1.500000X0.900000*%
%ADD17R,0.900000X1.500000*%
%ADD18R,1.000000X1.000000*%
%ADD19C,0.600000*%
%ADD20RoundRect,0.375000X-0.625000X-0.375000X0.625000X-0.375000X0.625000X0.375000X-0.625000X0.375000X0*%
%ADD21RoundRect,0.500000X-0.500000X-1.400000X0.500000X-1.400000X0.500000X1.400000X-0.500000X1.400000X0*%
%ADD22RoundRect,0.250000X0.750000X0.750000X-0.750000X0.750000X-0.750000X-0.750000X0.750000X-0.750000X0*%
%ADD23RoundRect,0.250000X0.475000X-0.337500X0.475000X0.337500X-0.475000X0.337500X-0.475000X-0.337500X0*%
%ADD24RoundRect,0.250000X0.550000X-1.500000X0.550000X1.500000X-0.550000X1.500000X-0.550000X-1.500000X0*%
%ADD25RoundRect,0.250000X-0.350000X-0.450000X0.350000X-0.450000X0.350000X0.450000X-0.350000X0.450000X0*%
%ADD26RoundRect,0.250000X1.050000X0.550000X-1.050000X0.550000X-1.050000X-0.550000X1.050000X-0.550000X0*%
%ADD27RoundRect,0.250000X-0.450000X0.350000X-0.450000X-0.350000X0.450000X-0.350000X0.450000X0.350000X0*%
%ADD28RoundRect,0.250000X1.000000X-1.400000X1.000000X1.400000X-1.000000X1.400000X-1.000000X-1.400000X0*%
%ADD29RoundRect,0.250000X-0.337500X-0.475000X0.337500X-0.475000X0.337500X0.475000X-0.337500X0.475000X0*%
%ADD30R,0.850000X0.850000*%
%ADD31C,0.850000*%
%ADD32RoundRect,0.250000X0.550000X-1.412500X0.550000X1.412500X-0.550000X1.412500X-0.550000X-1.412500X0*%
%ADD33RoundRect,0.250000X2.050000X0.300000X-2.050000X0.300000X-2.050000X-0.300000X2.050000X-0.300000X0*%
%ADD34RoundRect,0.250002X4.449998X5.149998X-4.449998X5.149998X-4.449998X-5.149998X4.449998X-5.149998X0*%
%ADD35RoundRect,0.062500X0.350000X0.062500X-0.350000X0.062500X-0.350000X-0.062500X0.350000X-0.062500X0*%
%ADD36RoundRect,0.062500X0.062500X0.350000X-0.062500X0.350000X-0.062500X-0.350000X0.062500X-0.350000X0*%
%ADD37R,1.230000X1.230000*%
%ADD38RoundRect,0.250000X-0.750000X-0.750000X0.750000X-0.750000X0.750000X0.750000X-0.750000X0.750000X0*%
%ADD39RoundRect,0.150000X-0.150000X0.725000X-0.150000X-0.725000X0.150000X-0.725000X0.150000X0.725000X0*%
%ADD40RoundRect,0.250000X1.950000X1.000000X-1.950000X1.000000X-1.950000X-1.000000X1.950000X-1.000000X0*%
%ADD41R,3.100000X2.600000*%
%ADD42R,0.600000X1.550000*%
G04 APERTURE END LIST*
D10*
%TO.C,L1*%
X91200000Y-112250000D03*
X102300000Y-112250000D03*
%TD*%
D11*
%TO.C,J5*%
X82000000Y-92500000D03*
D12*
X82000000Y-89960000D03*
X82000000Y-87420000D03*
X82000000Y-84880000D03*
X82000000Y-82340000D03*
%TD*%
D13*
%TO.C,J10*%
X110770000Y-101025000D03*
D14*
X110770000Y-98485000D03*
%TD*%
D15*
%TO.C,J4*%
X76250000Y-96562500D03*
D14*
X76250000Y-99102500D03*
%TD*%
D16*
%TO.C,U7*%
X87250000Y-77430000D03*
X87250000Y-78700000D03*
X87250000Y-79970000D03*
X87250000Y-81240000D03*
X87250000Y-82510000D03*
X87250000Y-83780000D03*
X87250000Y-85050000D03*
X87250000Y-86320000D03*
X87250000Y-87590000D03*
X87250000Y-88860000D03*
X87250000Y-90130000D03*
X87250000Y-91400000D03*
X87250000Y-92670000D03*
X87250000Y-93940000D03*
D17*
X89015000Y-95190000D03*
X90285000Y-95190000D03*
X91555000Y-95190000D03*
X92825000Y-95190000D03*
X94095000Y-95190000D03*
X95365000Y-95190000D03*
X96635000Y-95190000D03*
X97905000Y-95190000D03*
X99175000Y-95190000D03*
X100445000Y-95190000D03*
X101715000Y-95190000D03*
X102985000Y-95190000D03*
D16*
X104750000Y-93940000D03*
X104750000Y-92670000D03*
X104750000Y-91400000D03*
X104750000Y-90130000D03*
X104750000Y-88860000D03*
X104750000Y-87590000D03*
X104750000Y-86320000D03*
X104750000Y-85050000D03*
X104750000Y-83780000D03*
X104750000Y-82510000D03*
X104750000Y-81240000D03*
X104750000Y-79970000D03*
X104750000Y-78700000D03*
X104750000Y-77430000D03*
D18*
X93140000Y-81280000D03*
D19*
X93140000Y-82030000D03*
D18*
X93140000Y-82780000D03*
D19*
X93140000Y-83530000D03*
D18*
X93140000Y-84280000D03*
D19*
X93890000Y-81280000D03*
X93890000Y-82780000D03*
X93890000Y-84280000D03*
D18*
X94640000Y-81280000D03*
D19*
X94640000Y-82030000D03*
D18*
X94640000Y-82780000D03*
D19*
X94640000Y-83530000D03*
D18*
X94640000Y-84280000D03*
D19*
X95390000Y-81280000D03*
X95390000Y-82780000D03*
X95390000Y-84280000D03*
D18*
X96140000Y-81280000D03*
D19*
X96140000Y-82030000D03*
D18*
X96140000Y-82780000D03*
D19*
X96140000Y-83530000D03*
D18*
X96140000Y-84280000D03*
%TD*%
D13*
%TO.C,J11*%
X110770000Y-107750000D03*
D14*
X110770000Y-105210000D03*
%TD*%
D20*
%TO.C,U6*%
X81350000Y-106200000D03*
X81350000Y-108500000D03*
D21*
X87650000Y-108500000D03*
D20*
X81350000Y-110800000D03*
%TD*%
D22*
%TO.C,J3*%
X112750000Y-132000000D03*
D14*
X110210000Y-132000000D03*
%TD*%
D13*
%TO.C,J8*%
X110737500Y-87540000D03*
D14*
X110737500Y-85000000D03*
%TD*%
D23*
%TO.C,C10*%
X83000000Y-79500000D03*
X83000000Y-77425000D03*
%TD*%
D24*
%TO.C,C2*%
X96350000Y-133287500D03*
X96350000Y-127687500D03*
%TD*%
D25*
%TO.C,R1*%
X107500000Y-124750000D03*
X109500000Y-124750000D03*
%TD*%
D26*
%TO.C,C6*%
X88550000Y-102500000D03*
X84950000Y-102500000D03*
%TD*%
D27*
%TO.C,R2*%
X85000000Y-79000000D03*
X85000000Y-81000000D03*
%TD*%
D28*
%TO.C,D1*%
X91350000Y-122250000D03*
X98150000Y-122250000D03*
%TD*%
D29*
%TO.C,C7*%
X80925000Y-95562500D03*
X83000000Y-95562500D03*
%TD*%
D30*
%TO.C,J6*%
X87500000Y-97250000D03*
D31*
X87500000Y-98250000D03*
X87500000Y-99250000D03*
%TD*%
D23*
%TO.C,C8*%
X85250000Y-99250000D03*
X85250000Y-97175000D03*
%TD*%
D13*
%TO.C,J13*%
X110770000Y-121275000D03*
D14*
X110770000Y-118735000D03*
%TD*%
D32*
%TO.C,C5*%
X76000000Y-111075000D03*
X76000000Y-106000000D03*
%TD*%
D33*
%TO.C,U1*%
X86725000Y-122062500D03*
X86725000Y-120362500D03*
X86725000Y-118662500D03*
D34*
X77575000Y-118662500D03*
D33*
X86725000Y-116962500D03*
X86725000Y-115262500D03*
%TD*%
D27*
%TO.C,R3*%
X84750000Y-90000000D03*
X84750000Y-92000000D03*
%TD*%
D29*
%TO.C,C3*%
X86425000Y-125500000D03*
X88500000Y-125500000D03*
%TD*%
D35*
%TO.C,U3*%
X83437500Y-99750000D03*
X83437500Y-99250000D03*
X83437500Y-98750000D03*
X83437500Y-98250000D03*
D36*
X82750000Y-97562500D03*
X82250000Y-97562500D03*
X81750000Y-97562500D03*
X81250000Y-97562500D03*
D35*
X80562500Y-98250000D03*
X80562500Y-98750000D03*
X80562500Y-99250000D03*
X80562500Y-99750000D03*
D36*
X81250000Y-100437500D03*
X81750000Y-100437500D03*
X82250000Y-100437500D03*
X82750000Y-100437500D03*
D37*
X82000000Y-99000000D03*
%TD*%
D23*
%TO.C,C12*%
X85000000Y-84787500D03*
X85000000Y-82712500D03*
%TD*%
D38*
%TO.C,J1*%
X88160000Y-131505000D03*
D14*
X90700000Y-131505000D03*
%TD*%
D39*
%TO.C,U8*%
X101770000Y-98425000D03*
X100500000Y-98425000D03*
X99230000Y-98425000D03*
X97960000Y-98425000D03*
X96690000Y-98425000D03*
X95420000Y-98425000D03*
X94150000Y-98425000D03*
X92880000Y-98425000D03*
X92880000Y-103575000D03*
X94150000Y-103575000D03*
X95420000Y-103575000D03*
X96690000Y-103575000D03*
X97960000Y-103575000D03*
X99230000Y-103575000D03*
X100500000Y-103575000D03*
X101770000Y-103575000D03*
%TD*%
D13*
%TO.C,J9*%
X110770000Y-94290000D03*
D14*
X110770000Y-91750000D03*
%TD*%
D40*
%TO.C,C4*%
X83650000Y-130037500D03*
X75250000Y-130037500D03*
%TD*%
D41*
%TO.C,U4*%
X105115000Y-129625000D03*
D42*
X107020000Y-126925000D03*
X105750000Y-126925000D03*
X104480000Y-126925000D03*
X103210000Y-126925000D03*
X103210000Y-132325000D03*
X104480000Y-132325000D03*
X105750000Y-132325000D03*
X107020000Y-132325000D03*
%TD*%
D23*
%TO.C,C11*%
X81000000Y-79500000D03*
X81000000Y-77425000D03*
%TD*%
%TO.C,C1*%
X101000000Y-131825000D03*
X101000000Y-129750000D03*
%TD*%
D13*
%TO.C,J7*%
X110770000Y-80790000D03*
D14*
X110770000Y-78250000D03*
%TD*%
D13*
%TO.C,J12*%
X110770000Y-114540000D03*
D14*
X110770000Y-112000000D03*
%TD*%
M02*
