%TF.GenerationSoftware,KiCad,Pcbnew,9.0.3-9.0.3-0~ubuntu24.04.1*%
%TF.CreationDate,2026-04-21T10:17:34+03:00*%
%TF.ProjectId,sounddecoder-esp32-s3-wroom-2,736f756e-6464-4656-936f-6465722d6573,rev?*%
%TF.SameCoordinates,Original*%
%TF.FileFunction,Copper,L3,Inr*%
%TF.FilePolarity,Positive*%
%FSLAX46Y46*%
G04 Gerber Fmt 4.6, Leading zero omitted, Abs format (unit mm)*
G04 Created by KiCad (PCBNEW 9.0.3-9.0.3-0~ubuntu24.04.1) date 2026-04-21 10:17:34*
%MOMM*%
%LPD*%
G01*
G04 APERTURE LIST*
G04 Aperture macros list*
%AMRoundRect*
0 Rectangle with rounded corners*
0 $1 Rounding radius*
0 $2 $3 $4 $5 $6 $7 $8 $9 X,Y pos of 4 corners*
0 Add a 4 corners polygon primitive as box body*
4,1,4,$2,$3,$4,$5,$6,$7,$8,$9,$2,$3,0*
0 Add four circle primitives for the rounded corners*
1,1,$1+$1,$2,$3*
1,1,$1+$1,$4,$5*
1,1,$1+$1,$6,$7*
1,1,$1+$1,$8,$9*
0 Add four rect primitives between the rounded corners*
20,1,$1+$1,$2,$3,$4,$5,0*
20,1,$1+$1,$4,$5,$6,$7,0*
20,1,$1+$1,$6,$7,$8,$9,0*
20,1,$1+$1,$8,$9,$2,$3,0*%
G04 Aperture macros list end*
%TA.AperFunction,ComponentPad*%
%ADD10R,1.700000X1.700000*%
%TD*%
%TA.AperFunction,ComponentPad*%
%ADD11C,1.700000*%
%TD*%
%TA.AperFunction,ComponentPad*%
%ADD12RoundRect,0.250000X0.750000X-0.750000X0.750000X0.750000X-0.750000X0.750000X-0.750000X-0.750000X0*%
%TD*%
%TA.AperFunction,ComponentPad*%
%ADD13C,2.000000*%
%TD*%
%TA.AperFunction,ComponentPad*%
%ADD14RoundRect,0.250000X-0.750000X0.750000X-0.750000X-0.750000X0.750000X-0.750000X0.750000X0.750000X0*%
%TD*%
%TA.AperFunction,HeatsinkPad*%
%ADD15C,0.600000*%
%TD*%
%TA.AperFunction,ComponentPad*%
%ADD16RoundRect,0.250000X0.750000X0.750000X-0.750000X0.750000X-0.750000X-0.750000X0.750000X-0.750000X0*%
%TD*%
%TA.AperFunction,ComponentPad*%
%ADD17R,0.850000X0.850000*%
%TD*%
%TA.AperFunction,ComponentPad*%
%ADD18C,0.850000*%
%TD*%
%TA.AperFunction,ComponentPad*%
%ADD19RoundRect,0.250000X-0.750000X-0.750000X0.750000X-0.750000X0.750000X0.750000X-0.750000X0.750000X0*%
%TD*%
%TA.AperFunction,ComponentPad*%
%ADD20C,0.600000*%
%TD*%
%TA.AperFunction,ViaPad*%
%ADD21C,1.000000*%
%TD*%
%TA.AperFunction,ViaPad*%
%ADD22C,0.600000*%
%TD*%
%TA.AperFunction,ViaPad*%
%ADD23C,0.800000*%
%TD*%
G04 APERTURE END LIST*
D10*
%TO.N,GND*%
%TO.C,J5*%
X82000000Y-92500000D03*
D11*
%TO.N,/IO0*%
X82000000Y-89960000D03*
%TO.N,/UART-TX*%
X82000000Y-87420000D03*
%TO.N,/UART-RX*%
X82000000Y-84880000D03*
%TO.N,+5V*%
X82000000Y-82340000D03*
%TD*%
D12*
%TO.N,+5V*%
%TO.C,J10*%
X110770000Y-101025000D03*
D13*
%TO.N,Net-(J10-Pin_2)*%
X110770000Y-98485000D03*
%TD*%
D14*
%TO.N,/Sound1*%
%TO.C,J4*%
X76250000Y-96562500D03*
D13*
%TO.N,/Sound2*%
X76250000Y-99102500D03*
%TD*%
D15*
%TO.N,GND*%
%TO.C,U7*%
X93140000Y-82030000D03*
X93140000Y-83530000D03*
X93890000Y-81280000D03*
X93890000Y-82780000D03*
X93890000Y-84280000D03*
X94640000Y-82030000D03*
X94640000Y-83530000D03*
X95390000Y-81280000D03*
X95390000Y-82780000D03*
X95390000Y-84280000D03*
X96140000Y-82030000D03*
X96140000Y-83530000D03*
%TD*%
D12*
%TO.N,+5V*%
%TO.C,J11*%
X110770000Y-107750000D03*
D13*
%TO.N,Net-(J11-Pin_2)*%
X110770000Y-105210000D03*
%TD*%
D16*
%TO.N,/MOTOR1*%
%TO.C,J3*%
X112750000Y-132000000D03*
D13*
%TO.N,/MOTOR2*%
X110210000Y-132000000D03*
%TD*%
D12*
%TO.N,+5V*%
%TO.C,J8*%
X110737500Y-87540000D03*
D13*
%TO.N,/FwdLED*%
X110737500Y-85000000D03*
%TD*%
D17*
%TO.N,GND*%
%TO.C,J6*%
X87500000Y-97250000D03*
D18*
%TO.N,/SND_GAIN*%
X87500000Y-98250000D03*
%TO.N,+3.3V*%
X87500000Y-99250000D03*
%TD*%
D12*
%TO.N,+5V*%
%TO.C,J13*%
X110770000Y-121275000D03*
D13*
%TO.N,Net-(J13-Pin_2)*%
X110770000Y-118735000D03*
%TD*%
D19*
%TO.N,VCC*%
%TO.C,J1*%
X88160000Y-131505000D03*
D13*
%TO.N,GND*%
X90700000Y-131505000D03*
%TD*%
D12*
%TO.N,+5V*%
%TO.C,J9*%
X110770000Y-94290000D03*
D13*
%TO.N,/BackLED*%
X110770000Y-91750000D03*
%TD*%
D20*
%TO.N,GND*%
%TO.C,U4*%
X107065000Y-128975000D03*
X105765000Y-128975000D03*
X104465000Y-128975000D03*
X103165000Y-128975000D03*
X107065000Y-130275000D03*
X105765000Y-130275000D03*
X104465000Y-130275000D03*
X103165000Y-130275000D03*
%TD*%
D12*
%TO.N,+5V*%
%TO.C,J7*%
X110770000Y-80790000D03*
D13*
%TO.N,/Smoke*%
X110770000Y-78250000D03*
%TD*%
D12*
%TO.N,+5V*%
%TO.C,J12*%
X110770000Y-114540000D03*
D13*
%TO.N,Net-(J12-Pin_2)*%
X110770000Y-112000000D03*
%TD*%
D21*
%TO.N,VCC*%
X88250000Y-123250000D03*
X85250000Y-123250000D03*
%TO.N,GND*%
X88500000Y-114000000D03*
X85250000Y-114000000D03*
%TO.N,+3.3V*%
X84750000Y-93250000D03*
%TO.N,+5V*%
X90000000Y-117000000D03*
X81250000Y-112500000D03*
%TO.N,GND*%
X79500000Y-106250000D03*
X83250000Y-106250000D03*
X76000000Y-103750000D03*
D22*
X82000000Y-99000000D03*
D21*
%TO.N,+5V*%
X74000000Y-110000000D03*
X78000000Y-110000000D03*
X83500000Y-112500000D03*
D22*
%TO.N,/SND_GAIN*%
X84655800Y-98222496D03*
%TO.N,GND*%
X93500000Y-100000000D03*
%TO.N,Net-(J13-Pin_2)*%
X94500000Y-105250000D03*
%TO.N,Net-(J12-Pin_2)*%
X95750000Y-105250000D03*
%TO.N,Net-(J11-Pin_2)*%
X96750000Y-105000000D03*
%TO.N,Net-(J10-Pin_2)*%
X98000000Y-102250000D03*
%TO.N,/BackLED*%
X99250000Y-101750000D03*
%TO.N,/FwdLED*%
X100500000Y-101000000D03*
%TO.N,/Smoke*%
X101750000Y-100250000D03*
%TO.N,/AUDIO_LRCLK*%
X81989544Y-101261552D03*
X89000000Y-97250000D03*
%TO.N,/AUDIO_BCLK*%
X89000000Y-96500000D03*
X83500000Y-101000000D03*
%TO.N,/AUDIO_OUT*%
X83750000Y-100250000D03*
X84500000Y-95250000D03*
%TO.N,/MOTOR_IN1*%
X91750000Y-78801600D03*
%TO.N,/MOTOR_SENSE*%
X91246297Y-78245915D03*
%TO.N,GND*%
X95000000Y-129750000D03*
X78975000Y-117850000D03*
X78975000Y-123012500D03*
D23*
X99000000Y-127750000D03*
D22*
X73975000Y-116100000D03*
X76475000Y-121500000D03*
X81475000Y-121500000D03*
X81475000Y-123012500D03*
X108250000Y-133750000D03*
X78975000Y-121500000D03*
X109000000Y-128750000D03*
X76475000Y-123012500D03*
X81475000Y-116100000D03*
X76475000Y-114250000D03*
X109000000Y-130000000D03*
X107250000Y-133750000D03*
X102000000Y-128750000D03*
X73975000Y-117850000D03*
X99000000Y-129750000D03*
X97750000Y-129750000D03*
X76475000Y-119750000D03*
X76475000Y-117850000D03*
X78975000Y-114250000D03*
X81475000Y-119750000D03*
X110750000Y-128750000D03*
X78975000Y-119750000D03*
X73975000Y-114250000D03*
X110750000Y-130000000D03*
X102250000Y-130250000D03*
X73975000Y-121500000D03*
X81475000Y-117850000D03*
X73975000Y-119750000D03*
X95000000Y-128500000D03*
X76475000Y-116100000D03*
X93750000Y-129750000D03*
X73975000Y-123012500D03*
X81475000Y-114250000D03*
X97750000Y-128500000D03*
X106000000Y-133750000D03*
X78975000Y-116100000D03*
D23*
%TO.N,VCC*%
X97750000Y-131750000D03*
X102000000Y-134500000D03*
X82500000Y-132250000D03*
X82500000Y-127000000D03*
%TO.N,+3.3V*%
X80500000Y-96812500D03*
X88500000Y-78750000D03*
D22*
X86000000Y-78750000D03*
%TO.N,/MOTOR_SENSE*%
X101625000Y-123875000D03*
%TO.N,/UART-TX*%
X90250000Y-79537242D03*
%TO.N,/UART-RX*%
X89500000Y-80250000D03*
%TO.N,/MOTOR_IN1*%
X104000000Y-125250000D03*
%TO.N,/MOTOR_IN2*%
X101000000Y-124500000D03*
X89125000Y-82125000D03*
%TO.N,/IO0*%
X90500000Y-93860036D03*
%TD*%
%TA.AperFunction,Conductor*%
%TO.N,+3.3V*%
G36*
X106187539Y-76520185D02*
G01*
X106233294Y-76572989D01*
X106244500Y-76624500D01*
X106244500Y-96870500D01*
X106224815Y-96937539D01*
X106172011Y-96983294D01*
X106120500Y-96994500D01*
X92523506Y-96994500D01*
X92421421Y-97004914D01*
X92372385Y-97015024D01*
X92274509Y-97045839D01*
X92151811Y-97120974D01*
X92098023Y-97165571D01*
X92098020Y-97165574D01*
X92001460Y-97272237D01*
X91938859Y-97401784D01*
X91917713Y-97468408D01*
X91917602Y-97469100D01*
X91894156Y-97610303D01*
X91894155Y-97610315D01*
X91880678Y-98230263D01*
X91877947Y-98355915D01*
X91876843Y-98406687D01*
X91847865Y-99739707D01*
X91844159Y-99910166D01*
X91842838Y-99970941D01*
X91831432Y-100495621D01*
X91815127Y-101245621D01*
X91795246Y-102160166D01*
X91793925Y-102220941D01*
X91730028Y-105160166D01*
X91728707Y-105220941D01*
X91651042Y-108793508D01*
X91629905Y-108860104D01*
X91576119Y-108904700D01*
X91533825Y-108914629D01*
X85489591Y-109244316D01*
X85482837Y-109244500D01*
X78707782Y-109244500D01*
X78640743Y-109224815D01*
X78638891Y-109223602D01*
X78473920Y-109113371D01*
X78473907Y-109113364D01*
X78291839Y-109037950D01*
X78291829Y-109037947D01*
X78098543Y-108999500D01*
X78098541Y-108999500D01*
X77901459Y-108999500D01*
X77901457Y-108999500D01*
X77708170Y-109037947D01*
X77708160Y-109037950D01*
X77536170Y-109109190D01*
X77473944Y-109117746D01*
X73074500Y-108589813D01*
X73074498Y-108589813D01*
X73068869Y-108589911D01*
X73001673Y-108591090D01*
X72934299Y-108572583D01*
X72887626Y-108520589D01*
X72875500Y-108467109D01*
X72875500Y-106348543D01*
X78499499Y-106348543D01*
X78537947Y-106541829D01*
X78537950Y-106541839D01*
X78613364Y-106723907D01*
X78613371Y-106723920D01*
X78722860Y-106887781D01*
X78722863Y-106887785D01*
X78862214Y-107027136D01*
X78862218Y-107027139D01*
X79026079Y-107136628D01*
X79026092Y-107136635D01*
X79208160Y-107212049D01*
X79208165Y-107212051D01*
X79208169Y-107212051D01*
X79208170Y-107212052D01*
X79401456Y-107250500D01*
X79401459Y-107250500D01*
X79598543Y-107250500D01*
X79728582Y-107224632D01*
X79791835Y-107212051D01*
X79973914Y-107136632D01*
X80137782Y-107027139D01*
X80277139Y-106887782D01*
X80386632Y-106723914D01*
X80462051Y-106541835D01*
X80500500Y-106348543D01*
X82249499Y-106348543D01*
X82287947Y-106541829D01*
X82287950Y-106541839D01*
X82363364Y-106723907D01*
X82363371Y-106723920D01*
X82472860Y-106887781D01*
X82472863Y-106887785D01*
X82612214Y-107027136D01*
X82612218Y-107027139D01*
X82776079Y-107136628D01*
X82776092Y-107136635D01*
X82958160Y-107212049D01*
X82958165Y-107212051D01*
X82958169Y-107212051D01*
X82958170Y-107212052D01*
X83151456Y-107250500D01*
X83151459Y-107250500D01*
X83348543Y-107250500D01*
X83478582Y-107224632D01*
X83541835Y-107212051D01*
X83723914Y-107136632D01*
X83887782Y-107027139D01*
X84027139Y-106887782D01*
X84136632Y-106723914D01*
X84212051Y-106541835D01*
X84250500Y-106348541D01*
X84250500Y-106151459D01*
X84250500Y-106151456D01*
X84212052Y-105958170D01*
X84212051Y-105958169D01*
X84212051Y-105958165D01*
X84170646Y-105858203D01*
X84136635Y-105776092D01*
X84136628Y-105776079D01*
X84027139Y-105612218D01*
X84027136Y-105612214D01*
X83887785Y-105472863D01*
X83887781Y-105472860D01*
X83723920Y-105363371D01*
X83723907Y-105363364D01*
X83541839Y-105287950D01*
X83541829Y-105287947D01*
X83348543Y-105249500D01*
X83348541Y-105249500D01*
X83151459Y-105249500D01*
X83151457Y-105249500D01*
X82958170Y-105287947D01*
X82958160Y-105287950D01*
X82776092Y-105363364D01*
X82776079Y-105363371D01*
X82612218Y-105472860D01*
X82612214Y-105472863D01*
X82472863Y-105612214D01*
X82472860Y-105612218D01*
X82363371Y-105776079D01*
X82363364Y-105776092D01*
X82287950Y-105958160D01*
X82287947Y-105958170D01*
X82249500Y-106151456D01*
X82249500Y-106151459D01*
X82249500Y-106348541D01*
X82249500Y-106348543D01*
X82249499Y-106348543D01*
X80500500Y-106348543D01*
X80500500Y-106348541D01*
X80500500Y-106151459D01*
X80500500Y-106151456D01*
X80462052Y-105958170D01*
X80462051Y-105958169D01*
X80462051Y-105958165D01*
X80420646Y-105858203D01*
X80386635Y-105776092D01*
X80386628Y-105776079D01*
X80277139Y-105612218D01*
X80277136Y-105612214D01*
X80137785Y-105472863D01*
X80137781Y-105472860D01*
X79973920Y-105363371D01*
X79973907Y-105363364D01*
X79791839Y-105287950D01*
X79791829Y-105287947D01*
X79598543Y-105249500D01*
X79598541Y-105249500D01*
X79401459Y-105249500D01*
X79401457Y-105249500D01*
X79208170Y-105287947D01*
X79208160Y-105287950D01*
X79026092Y-105363364D01*
X79026079Y-105363371D01*
X78862218Y-105472860D01*
X78862214Y-105472863D01*
X78722863Y-105612214D01*
X78722860Y-105612218D01*
X78613371Y-105776079D01*
X78613364Y-105776092D01*
X78537950Y-105958160D01*
X78537947Y-105958170D01*
X78499500Y-106151456D01*
X78499500Y-106151459D01*
X78499500Y-106348541D01*
X78499500Y-106348543D01*
X78499499Y-106348543D01*
X72875500Y-106348543D01*
X72875500Y-103848543D01*
X74999499Y-103848543D01*
X75037947Y-104041829D01*
X75037950Y-104041839D01*
X75113364Y-104223907D01*
X75113371Y-104223920D01*
X75222860Y-104387781D01*
X75222863Y-104387785D01*
X75362214Y-104527136D01*
X75362218Y-104527139D01*
X75526079Y-104636628D01*
X75526092Y-104636635D01*
X75708160Y-104712049D01*
X75708165Y-104712051D01*
X75708169Y-104712051D01*
X75708170Y-104712052D01*
X75901456Y-104750500D01*
X75901459Y-104750500D01*
X76098543Y-104750500D01*
X76228582Y-104724632D01*
X76291835Y-104712051D01*
X76473914Y-104636632D01*
X76637782Y-104527139D01*
X76777139Y-104387782D01*
X76886632Y-104223914D01*
X76962051Y-104041835D01*
X77000500Y-103848541D01*
X77000500Y-103651459D01*
X77000500Y-103651456D01*
X76962052Y-103458170D01*
X76962051Y-103458169D01*
X76962051Y-103458165D01*
X76962049Y-103458160D01*
X76886635Y-103276092D01*
X76886628Y-103276079D01*
X76777139Y-103112218D01*
X76777136Y-103112214D01*
X76637785Y-102972863D01*
X76637781Y-102972860D01*
X76473920Y-102863371D01*
X76473907Y-102863364D01*
X76291839Y-102787950D01*
X76291829Y-102787947D01*
X76098543Y-102749500D01*
X76098541Y-102749500D01*
X75901459Y-102749500D01*
X75901457Y-102749500D01*
X75708170Y-102787947D01*
X75708160Y-102787950D01*
X75526092Y-102863364D01*
X75526079Y-102863371D01*
X75362218Y-102972860D01*
X75362214Y-102972863D01*
X75222863Y-103112214D01*
X75222860Y-103112218D01*
X75113371Y-103276079D01*
X75113364Y-103276092D01*
X75037950Y-103458160D01*
X75037947Y-103458170D01*
X74999500Y-103651456D01*
X74999500Y-103651459D01*
X74999500Y-103848541D01*
X74999500Y-103848543D01*
X74999499Y-103848543D01*
X72875500Y-103848543D01*
X72875500Y-101182705D01*
X81189044Y-101182705D01*
X81189044Y-101340398D01*
X81219805Y-101495041D01*
X81219808Y-101495053D01*
X81280146Y-101640724D01*
X81280153Y-101640737D01*
X81367754Y-101771840D01*
X81367757Y-101771844D01*
X81479251Y-101883338D01*
X81479255Y-101883341D01*
X81610358Y-101970942D01*
X81610371Y-101970949D01*
X81756042Y-102031287D01*
X81756047Y-102031289D01*
X81910697Y-102062051D01*
X81910700Y-102062052D01*
X81910702Y-102062052D01*
X82068388Y-102062052D01*
X82068389Y-102062051D01*
X82223041Y-102031289D01*
X82368723Y-101970946D01*
X82499833Y-101883341D01*
X82611333Y-101771841D01*
X82698938Y-101640731D01*
X82718633Y-101593180D01*
X82762473Y-101538780D01*
X82828767Y-101516714D01*
X82896466Y-101533993D01*
X82920875Y-101552954D01*
X82989707Y-101621786D01*
X82989711Y-101621789D01*
X83120814Y-101709390D01*
X83120827Y-101709397D01*
X83266498Y-101769735D01*
X83266503Y-101769737D01*
X83421153Y-101800499D01*
X83421156Y-101800500D01*
X83421158Y-101800500D01*
X83578844Y-101800500D01*
X83578845Y-101800499D01*
X83733497Y-101769737D01*
X83879179Y-101709394D01*
X84010289Y-101621789D01*
X84121789Y-101510289D01*
X84209394Y-101379179D01*
X84269737Y-101233497D01*
X84300500Y-101078842D01*
X84300500Y-100921158D01*
X84300500Y-100921155D01*
X84298569Y-100911450D01*
X84304793Y-100841858D01*
X84332503Y-100799573D01*
X84371789Y-100760289D01*
X84459394Y-100629179D01*
X84519737Y-100483497D01*
X84550500Y-100328842D01*
X84550500Y-100171158D01*
X84550500Y-100171155D01*
X84550499Y-100171153D01*
X84532370Y-100080012D01*
X84519737Y-100016503D01*
X84500865Y-99970941D01*
X84459397Y-99870827D01*
X84459390Y-99870814D01*
X84371789Y-99739711D01*
X84371786Y-99739707D01*
X84260292Y-99628213D01*
X84260288Y-99628210D01*
X84129185Y-99540609D01*
X84129172Y-99540602D01*
X83983501Y-99480264D01*
X83983489Y-99480261D01*
X83828845Y-99449500D01*
X83828842Y-99449500D01*
X83671158Y-99449500D01*
X83671155Y-99449500D01*
X83516510Y-99480261D01*
X83516498Y-99480264D01*
X83370827Y-99540602D01*
X83370814Y-99540609D01*
X83239711Y-99628210D01*
X83239707Y-99628213D01*
X83128213Y-99739707D01*
X83128210Y-99739711D01*
X83040609Y-99870814D01*
X83040602Y-99870827D01*
X82980264Y-100016498D01*
X82980261Y-100016510D01*
X82949500Y-100171153D01*
X82949500Y-100171158D01*
X82949500Y-100328842D01*
X82949501Y-100328846D01*
X82951432Y-100338554D01*
X82945203Y-100408145D01*
X82917497Y-100450423D01*
X82878212Y-100489708D01*
X82878208Y-100489714D01*
X82790609Y-100620814D01*
X82790601Y-100620829D01*
X82770909Y-100668370D01*
X82727068Y-100722773D01*
X82660773Y-100744837D01*
X82593074Y-100727557D01*
X82568668Y-100708597D01*
X82499836Y-100639765D01*
X82499832Y-100639762D01*
X82368729Y-100552161D01*
X82368716Y-100552154D01*
X82223045Y-100491816D01*
X82223033Y-100491813D01*
X82068389Y-100461052D01*
X82068386Y-100461052D01*
X81910702Y-100461052D01*
X81910699Y-100461052D01*
X81756054Y-100491813D01*
X81756042Y-100491816D01*
X81610371Y-100552154D01*
X81610358Y-100552161D01*
X81479255Y-100639762D01*
X81479251Y-100639765D01*
X81367757Y-100751259D01*
X81367754Y-100751263D01*
X81280153Y-100882366D01*
X81280146Y-100882379D01*
X81219808Y-101028050D01*
X81219805Y-101028062D01*
X81189044Y-101182705D01*
X72875500Y-101182705D01*
X72875500Y-95762483D01*
X74749500Y-95762483D01*
X74749500Y-97362501D01*
X74749501Y-97362518D01*
X74760000Y-97465296D01*
X74760001Y-97465299D01*
X74804872Y-97600709D01*
X74815186Y-97631834D01*
X74907288Y-97781156D01*
X75031344Y-97905212D01*
X75073102Y-97930968D01*
X75079656Y-97935011D01*
X75126381Y-97986959D01*
X75137604Y-98055921D01*
X75109760Y-98120004D01*
X75108615Y-98121259D01*
X75108647Y-98121286D01*
X75105485Y-98124987D01*
X75105483Y-98124990D01*
X75080885Y-98158846D01*
X74966657Y-98316066D01*
X74859433Y-98526503D01*
X74786446Y-98751131D01*
X74749500Y-98984402D01*
X74749500Y-99220597D01*
X74786446Y-99453868D01*
X74859433Y-99678496D01*
X74966657Y-99888933D01*
X75105483Y-100080010D01*
X75272490Y-100247017D01*
X75463567Y-100385843D01*
X75562991Y-100436502D01*
X75674003Y-100493066D01*
X75674005Y-100493066D01*
X75674008Y-100493068D01*
X75794412Y-100532189D01*
X75898631Y-100566053D01*
X76131903Y-100603000D01*
X76131908Y-100603000D01*
X76368097Y-100603000D01*
X76601368Y-100566053D01*
X76644132Y-100552158D01*
X76825992Y-100493068D01*
X77036433Y-100385843D01*
X77227510Y-100247017D01*
X77394517Y-100080010D01*
X77533343Y-99888933D01*
X77640568Y-99678492D01*
X77713553Y-99453868D01*
X77725382Y-99379185D01*
X77750500Y-99220597D01*
X77750500Y-98984403D01*
X77742590Y-98934465D01*
X77742590Y-98934464D01*
X77740482Y-98921153D01*
X81199500Y-98921153D01*
X81199500Y-99078846D01*
X81230261Y-99233489D01*
X81230264Y-99233501D01*
X81290602Y-99379172D01*
X81290609Y-99379185D01*
X81378210Y-99510288D01*
X81378213Y-99510292D01*
X81489707Y-99621786D01*
X81489711Y-99621789D01*
X81620814Y-99709390D01*
X81620827Y-99709397D01*
X81694013Y-99739711D01*
X81766503Y-99769737D01*
X81921153Y-99800499D01*
X81921156Y-99800500D01*
X81921158Y-99800500D01*
X82078844Y-99800500D01*
X82078845Y-99800499D01*
X82233497Y-99769737D01*
X82379179Y-99709394D01*
X82510289Y-99621789D01*
X82621789Y-99510289D01*
X82709394Y-99379179D01*
X82769737Y-99233497D01*
X82800500Y-99078842D01*
X82800500Y-98921158D01*
X82800500Y-98921155D01*
X82800499Y-98921153D01*
X82785208Y-98844282D01*
X82769737Y-98766503D01*
X82749643Y-98717992D01*
X82709397Y-98620827D01*
X82709390Y-98620814D01*
X82621789Y-98489711D01*
X82621786Y-98489707D01*
X82510292Y-98378213D01*
X82510288Y-98378210D01*
X82379185Y-98290609D01*
X82379172Y-98290602D01*
X82286273Y-98252123D01*
X82233501Y-98230264D01*
X82233489Y-98230261D01*
X82078845Y-98199500D01*
X82078842Y-98199500D01*
X81921158Y-98199500D01*
X81921155Y-98199500D01*
X81766510Y-98230261D01*
X81766498Y-98230264D01*
X81620827Y-98290602D01*
X81620814Y-98290609D01*
X81489711Y-98378210D01*
X81489707Y-98378213D01*
X81378213Y-98489707D01*
X81378210Y-98489711D01*
X81290609Y-98620814D01*
X81290602Y-98620827D01*
X81230264Y-98766498D01*
X81230261Y-98766510D01*
X81199500Y-98921153D01*
X77740482Y-98921153D01*
X77727624Y-98839975D01*
X77713553Y-98751132D01*
X77640568Y-98526508D01*
X77640566Y-98526505D01*
X77640566Y-98526503D01*
X77565006Y-98378210D01*
X77533343Y-98316067D01*
X77408074Y-98143649D01*
X83855300Y-98143649D01*
X83855300Y-98301342D01*
X83886061Y-98455985D01*
X83886064Y-98455997D01*
X83946402Y-98601668D01*
X83946409Y-98601681D01*
X84034010Y-98732784D01*
X84034013Y-98732788D01*
X84145507Y-98844282D01*
X84145511Y-98844285D01*
X84276614Y-98931886D01*
X84276627Y-98931893D01*
X84422298Y-98992231D01*
X84422303Y-98992233D01*
X84576953Y-99022995D01*
X84576956Y-99022996D01*
X84576958Y-99022996D01*
X84734644Y-99022996D01*
X84734645Y-99022995D01*
X84889297Y-98992233D01*
X85001966Y-98945563D01*
X85034972Y-98931893D01*
X85034972Y-98931892D01*
X85034979Y-98931890D01*
X85166089Y-98844285D01*
X85277589Y-98732785D01*
X85365194Y-98601675D01*
X85425537Y-98455993D01*
X85448380Y-98341156D01*
X86574499Y-98341156D01*
X86610065Y-98519952D01*
X86610068Y-98519962D01*
X86679831Y-98688387D01*
X86679833Y-98688391D01*
X86781113Y-98839967D01*
X86781119Y-98839975D01*
X86910024Y-98968880D01*
X86910032Y-98968886D01*
X87061608Y-99070166D01*
X87061612Y-99070168D01*
X87213794Y-99133203D01*
X87230042Y-99139933D01*
X87230046Y-99139933D01*
X87230047Y-99139934D01*
X87408843Y-99175500D01*
X87408846Y-99175500D01*
X87591156Y-99175500D01*
X87711445Y-99151572D01*
X87769958Y-99139933D01*
X87938389Y-99070167D01*
X87938391Y-99070166D01*
X88033687Y-99006491D01*
X88089972Y-98968883D01*
X88218883Y-98839972D01*
X88290503Y-98732785D01*
X88320166Y-98688391D01*
X88320168Y-98688387D01*
X88371974Y-98563314D01*
X88389933Y-98519958D01*
X88412464Y-98406688D01*
X88425500Y-98341156D01*
X88425500Y-98158843D01*
X88408209Y-98071919D01*
X88414436Y-98002327D01*
X88457299Y-97947150D01*
X88523188Y-97923905D01*
X88591185Y-97939972D01*
X88598717Y-97944625D01*
X88620815Y-97959390D01*
X88620821Y-97959394D01*
X88620823Y-97959395D01*
X88620827Y-97959397D01*
X88766498Y-98019735D01*
X88766503Y-98019737D01*
X88921153Y-98050499D01*
X88921156Y-98050500D01*
X88921158Y-98050500D01*
X89078844Y-98050500D01*
X89078845Y-98050499D01*
X89233497Y-98019737D01*
X89379179Y-97959394D01*
X89510289Y-97871789D01*
X89621789Y-97760289D01*
X89709394Y-97629179D01*
X89769737Y-97483497D01*
X89800500Y-97328842D01*
X89800500Y-97171158D01*
X89800500Y-97171155D01*
X89800499Y-97171153D01*
X89769738Y-97016510D01*
X89769737Y-97016503D01*
X89730778Y-96922449D01*
X89723310Y-96852984D01*
X89730775Y-96827556D01*
X89769737Y-96733497D01*
X89800500Y-96578842D01*
X89800500Y-96421158D01*
X89800500Y-96421155D01*
X89800499Y-96421153D01*
X89792553Y-96381206D01*
X89769737Y-96266503D01*
X89769735Y-96266498D01*
X89709397Y-96120827D01*
X89709390Y-96120814D01*
X89621789Y-95989711D01*
X89621786Y-95989707D01*
X89510292Y-95878213D01*
X89510288Y-95878210D01*
X89379185Y-95790609D01*
X89379172Y-95790602D01*
X89233501Y-95730264D01*
X89233489Y-95730261D01*
X89078845Y-95699500D01*
X89078842Y-95699500D01*
X88921158Y-95699500D01*
X88921155Y-95699500D01*
X88766510Y-95730261D01*
X88766498Y-95730264D01*
X88620827Y-95790602D01*
X88620814Y-95790609D01*
X88489711Y-95878210D01*
X88489707Y-95878213D01*
X88378213Y-95989707D01*
X88378210Y-95989711D01*
X88290609Y-96120814D01*
X88290602Y-96120827D01*
X88227932Y-96272130D01*
X88226264Y-96271439D01*
X88192607Y-96322773D01*
X88128788Y-96351215D01*
X88068933Y-96344503D01*
X88032485Y-96330909D01*
X88032483Y-96330908D01*
X87972883Y-96324501D01*
X87972881Y-96324500D01*
X87972873Y-96324500D01*
X87972864Y-96324500D01*
X87027129Y-96324500D01*
X87027123Y-96324501D01*
X86967516Y-96330908D01*
X86832671Y-96381202D01*
X86832664Y-96381206D01*
X86717455Y-96467452D01*
X86717452Y-96467455D01*
X86631206Y-96582664D01*
X86631202Y-96582671D01*
X86580908Y-96717517D01*
X86574501Y-96777116D01*
X86574500Y-96777135D01*
X86574500Y-97722870D01*
X86574501Y-97722876D01*
X86580908Y-97782483D01*
X86616447Y-97877765D01*
X86621431Y-97947456D01*
X86614828Y-97968545D01*
X86610069Y-97980034D01*
X86610065Y-97980047D01*
X86574500Y-98158843D01*
X86574500Y-98158846D01*
X86574500Y-98341154D01*
X86574500Y-98341156D01*
X86574499Y-98341156D01*
X85448380Y-98341156D01*
X85456300Y-98301338D01*
X85456300Y-98143654D01*
X85456300Y-98143651D01*
X85456299Y-98143649D01*
X85441034Y-98066908D01*
X85425537Y-97988999D01*
X85413273Y-97959390D01*
X85365197Y-97843323D01*
X85365190Y-97843310D01*
X85277589Y-97712207D01*
X85277586Y-97712203D01*
X85166092Y-97600709D01*
X85166088Y-97600706D01*
X85034985Y-97513105D01*
X85034972Y-97513098D01*
X84889301Y-97452760D01*
X84889289Y-97452757D01*
X84734645Y-97421996D01*
X84734642Y-97421996D01*
X84576958Y-97421996D01*
X84576955Y-97421996D01*
X84422310Y-97452757D01*
X84422298Y-97452760D01*
X84276627Y-97513098D01*
X84276614Y-97513105D01*
X84145511Y-97600706D01*
X84145507Y-97600709D01*
X84034013Y-97712203D01*
X84034010Y-97712207D01*
X83946409Y-97843310D01*
X83946402Y-97843323D01*
X83886064Y-97988994D01*
X83886061Y-97989006D01*
X83855300Y-98143649D01*
X77408074Y-98143649D01*
X77394517Y-98124990D01*
X77394508Y-98124981D01*
X77391353Y-98121286D01*
X77393134Y-98119764D01*
X77364273Y-98066908D01*
X77369257Y-97997216D01*
X77411129Y-97941283D01*
X77420334Y-97935016D01*
X77468656Y-97905212D01*
X77592712Y-97781156D01*
X77684814Y-97631834D01*
X77739999Y-97465297D01*
X77750500Y-97362509D01*
X77750499Y-96467455D01*
X77750499Y-95762498D01*
X77750498Y-95762481D01*
X77739999Y-95659703D01*
X77739998Y-95659700D01*
X77729882Y-95629172D01*
X77684814Y-95493166D01*
X77592712Y-95343844D01*
X77468656Y-95219788D01*
X77389806Y-95171153D01*
X83699500Y-95171153D01*
X83699500Y-95328846D01*
X83730261Y-95483489D01*
X83730264Y-95483501D01*
X83790602Y-95629172D01*
X83790609Y-95629185D01*
X83878210Y-95760288D01*
X83878213Y-95760292D01*
X83989707Y-95871786D01*
X83989711Y-95871789D01*
X84120814Y-95959390D01*
X84120827Y-95959397D01*
X84194013Y-95989711D01*
X84266503Y-96019737D01*
X84421153Y-96050499D01*
X84421156Y-96050500D01*
X84421158Y-96050500D01*
X84578844Y-96050500D01*
X84578845Y-96050499D01*
X84733497Y-96019737D01*
X84879179Y-95959394D01*
X85010289Y-95871789D01*
X85121789Y-95760289D01*
X85209394Y-95629179D01*
X85269737Y-95483497D01*
X85300500Y-95328842D01*
X85300500Y-95171158D01*
X85300500Y-95171155D01*
X85300499Y-95171153D01*
X85280876Y-95072501D01*
X85269737Y-95016503D01*
X85269735Y-95016498D01*
X85209397Y-94870827D01*
X85209390Y-94870814D01*
X85121789Y-94739711D01*
X85121786Y-94739707D01*
X85010292Y-94628213D01*
X85010288Y-94628210D01*
X84879185Y-94540609D01*
X84879172Y-94540602D01*
X84733501Y-94480264D01*
X84733489Y-94480261D01*
X84578845Y-94449500D01*
X84578842Y-94449500D01*
X84421158Y-94449500D01*
X84421155Y-94449500D01*
X84266510Y-94480261D01*
X84266498Y-94480264D01*
X84120827Y-94540602D01*
X84120814Y-94540609D01*
X83989711Y-94628210D01*
X83989707Y-94628213D01*
X83878213Y-94739707D01*
X83878210Y-94739711D01*
X83790609Y-94870814D01*
X83790602Y-94870827D01*
X83730264Y-95016498D01*
X83730261Y-95016510D01*
X83699500Y-95171153D01*
X77389806Y-95171153D01*
X77319334Y-95127686D01*
X77152797Y-95072501D01*
X77152795Y-95072500D01*
X77050010Y-95062000D01*
X75449998Y-95062000D01*
X75449981Y-95062001D01*
X75347203Y-95072500D01*
X75347200Y-95072501D01*
X75180668Y-95127685D01*
X75180663Y-95127687D01*
X75031342Y-95219789D01*
X74907289Y-95343842D01*
X74815187Y-95493163D01*
X74815186Y-95493166D01*
X74760001Y-95659703D01*
X74760001Y-95659704D01*
X74760000Y-95659704D01*
X74749500Y-95762483D01*
X72875500Y-95762483D01*
X72875500Y-82233713D01*
X80649500Y-82233713D01*
X80649500Y-82446286D01*
X80682048Y-82651789D01*
X80682754Y-82656243D01*
X80729410Y-82799836D01*
X80748444Y-82858414D01*
X80844951Y-83047820D01*
X80969890Y-83219786D01*
X81120213Y-83370109D01*
X81292182Y-83495050D01*
X81300946Y-83499516D01*
X81351742Y-83547491D01*
X81368536Y-83615312D01*
X81345998Y-83681447D01*
X81300946Y-83720484D01*
X81292182Y-83724949D01*
X81120213Y-83849890D01*
X80969890Y-84000213D01*
X80844951Y-84172179D01*
X80748444Y-84361585D01*
X80682753Y-84563760D01*
X80661302Y-84699199D01*
X80649500Y-84773713D01*
X80649500Y-84986287D01*
X80682754Y-85196243D01*
X80743093Y-85381947D01*
X80748444Y-85398414D01*
X80844951Y-85587820D01*
X80969890Y-85759786D01*
X81120213Y-85910109D01*
X81292182Y-86035050D01*
X81300946Y-86039516D01*
X81351742Y-86087491D01*
X81368536Y-86155312D01*
X81345998Y-86221447D01*
X81300946Y-86260484D01*
X81292182Y-86264949D01*
X81120213Y-86389890D01*
X80969890Y-86540213D01*
X80844951Y-86712179D01*
X80748444Y-86901585D01*
X80682753Y-87103760D01*
X80649500Y-87313713D01*
X80649500Y-87526286D01*
X80682753Y-87736239D01*
X80748444Y-87938414D01*
X80844951Y-88127820D01*
X80969890Y-88299786D01*
X81120213Y-88450109D01*
X81292182Y-88575050D01*
X81300946Y-88579516D01*
X81351742Y-88627491D01*
X81368536Y-88695312D01*
X81345998Y-88761447D01*
X81300946Y-88800484D01*
X81292182Y-88804949D01*
X81120213Y-88929890D01*
X80969890Y-89080213D01*
X80844951Y-89252179D01*
X80748444Y-89441585D01*
X80682753Y-89643760D01*
X80649500Y-89853713D01*
X80649500Y-90066286D01*
X80682753Y-90276239D01*
X80748444Y-90478414D01*
X80844951Y-90667820D01*
X80969890Y-90839786D01*
X81083430Y-90953326D01*
X81116915Y-91014649D01*
X81111931Y-91084341D01*
X81070059Y-91140274D01*
X81039083Y-91157189D01*
X80907669Y-91206203D01*
X80907664Y-91206206D01*
X80792455Y-91292452D01*
X80792452Y-91292455D01*
X80706206Y-91407664D01*
X80706202Y-91407671D01*
X80655908Y-91542517D01*
X80649501Y-91602116D01*
X80649501Y-91602123D01*
X80649500Y-91602135D01*
X80649500Y-93397870D01*
X80649501Y-93397876D01*
X80655908Y-93457483D01*
X80706202Y-93592328D01*
X80706206Y-93592335D01*
X80792452Y-93707544D01*
X80792455Y-93707547D01*
X80907664Y-93793793D01*
X80907671Y-93793797D01*
X81042517Y-93844091D01*
X81042516Y-93844091D01*
X81049444Y-93844835D01*
X81102127Y-93850500D01*
X82897872Y-93850499D01*
X82957483Y-93844091D01*
X83092331Y-93793796D01*
X83109172Y-93781189D01*
X89699500Y-93781189D01*
X89699500Y-93938882D01*
X89730261Y-94093525D01*
X89730264Y-94093537D01*
X89790602Y-94239208D01*
X89790609Y-94239221D01*
X89878210Y-94370324D01*
X89878213Y-94370328D01*
X89989707Y-94481822D01*
X89989711Y-94481825D01*
X90120814Y-94569426D01*
X90120827Y-94569433D01*
X90262732Y-94628211D01*
X90266503Y-94629773D01*
X90421153Y-94660535D01*
X90421156Y-94660536D01*
X90421158Y-94660536D01*
X90578844Y-94660536D01*
X90578845Y-94660535D01*
X90733497Y-94629773D01*
X90879179Y-94569430D01*
X91010289Y-94481825D01*
X91121789Y-94370325D01*
X91209394Y-94239215D01*
X91269737Y-94093533D01*
X91300500Y-93938878D01*
X91300500Y-93781194D01*
X91300500Y-93781191D01*
X91300499Y-93781189D01*
X91285851Y-93707548D01*
X91269737Y-93626539D01*
X91269735Y-93626534D01*
X91209397Y-93480863D01*
X91209390Y-93480850D01*
X91121789Y-93349747D01*
X91121786Y-93349743D01*
X91010292Y-93238249D01*
X91010288Y-93238246D01*
X90879185Y-93150645D01*
X90879172Y-93150638D01*
X90733501Y-93090300D01*
X90733489Y-93090297D01*
X90578845Y-93059536D01*
X90578842Y-93059536D01*
X90421158Y-93059536D01*
X90421155Y-93059536D01*
X90266510Y-93090297D01*
X90266498Y-93090300D01*
X90120827Y-93150638D01*
X90120814Y-93150645D01*
X89989711Y-93238246D01*
X89989707Y-93238249D01*
X89878213Y-93349743D01*
X89878210Y-93349747D01*
X89790609Y-93480850D01*
X89790602Y-93480863D01*
X89730264Y-93626534D01*
X89730261Y-93626546D01*
X89699500Y-93781189D01*
X83109172Y-93781189D01*
X83207546Y-93707546D01*
X83293796Y-93592331D01*
X83344091Y-93457483D01*
X83350500Y-93397873D01*
X83350499Y-91602128D01*
X83344091Y-91542517D01*
X83293796Y-91407669D01*
X83293795Y-91407668D01*
X83293793Y-91407664D01*
X83207547Y-91292455D01*
X83207544Y-91292452D01*
X83092335Y-91206206D01*
X83092328Y-91206202D01*
X82960917Y-91157189D01*
X82904983Y-91115318D01*
X82880566Y-91049853D01*
X82895418Y-90981580D01*
X82916563Y-90953332D01*
X83030104Y-90839792D01*
X83155051Y-90667816D01*
X83251557Y-90478412D01*
X83317246Y-90276243D01*
X83350500Y-90066287D01*
X83350500Y-89853713D01*
X83317246Y-89643757D01*
X83251557Y-89441588D01*
X83155051Y-89252184D01*
X83155049Y-89252181D01*
X83155048Y-89252179D01*
X83030109Y-89080213D01*
X82879786Y-88929890D01*
X82707820Y-88804951D01*
X82707115Y-88804591D01*
X82699054Y-88800485D01*
X82648259Y-88752512D01*
X82631463Y-88684692D01*
X82653999Y-88618556D01*
X82699054Y-88579515D01*
X82707816Y-88575051D01*
X82729789Y-88559086D01*
X82879786Y-88450109D01*
X82879788Y-88450106D01*
X82879792Y-88450104D01*
X83030104Y-88299792D01*
X83030106Y-88299788D01*
X83030109Y-88299786D01*
X83155048Y-88127820D01*
X83155047Y-88127820D01*
X83155051Y-88127816D01*
X83251557Y-87938412D01*
X83317246Y-87736243D01*
X83350500Y-87526287D01*
X83350500Y-87313713D01*
X83317246Y-87103757D01*
X83251557Y-86901588D01*
X83155051Y-86712184D01*
X83155049Y-86712181D01*
X83155048Y-86712179D01*
X83030109Y-86540213D01*
X82879786Y-86389890D01*
X82707820Y-86264951D01*
X82707115Y-86264591D01*
X82699054Y-86260485D01*
X82648259Y-86212512D01*
X82631463Y-86144692D01*
X82653999Y-86078556D01*
X82699054Y-86039515D01*
X82707816Y-86035051D01*
X82762942Y-85995000D01*
X82879786Y-85910109D01*
X82879788Y-85910106D01*
X82879792Y-85910104D01*
X83030104Y-85759792D01*
X83030106Y-85759788D01*
X83030109Y-85759786D01*
X83155048Y-85587820D01*
X83155047Y-85587820D01*
X83155051Y-85587816D01*
X83251557Y-85398412D01*
X83317246Y-85196243D01*
X83350500Y-84986287D01*
X83350500Y-84773713D01*
X83317246Y-84563757D01*
X83251557Y-84361588D01*
X83155051Y-84172184D01*
X83155049Y-84172181D01*
X83155048Y-84172179D01*
X83030109Y-84000213D01*
X82879786Y-83849890D01*
X82707820Y-83724951D01*
X82707115Y-83724591D01*
X82699054Y-83720485D01*
X82648259Y-83672512D01*
X82631463Y-83604692D01*
X82653999Y-83538556D01*
X82699054Y-83499515D01*
X82707816Y-83495051D01*
X82768237Y-83451153D01*
X82879786Y-83370109D01*
X82879788Y-83370106D01*
X82879792Y-83370104D01*
X83030104Y-83219792D01*
X83030106Y-83219788D01*
X83030109Y-83219786D01*
X83155048Y-83047820D01*
X83155047Y-83047820D01*
X83155051Y-83047816D01*
X83251557Y-82858412D01*
X83317246Y-82656243D01*
X83350500Y-82446287D01*
X83350500Y-82233713D01*
X83322902Y-82059464D01*
X83320793Y-82046153D01*
X88324500Y-82046153D01*
X88324500Y-82203846D01*
X88355261Y-82358489D01*
X88355264Y-82358501D01*
X88415602Y-82504172D01*
X88415609Y-82504185D01*
X88503210Y-82635288D01*
X88503213Y-82635292D01*
X88614707Y-82746786D01*
X88614711Y-82746789D01*
X88745814Y-82834390D01*
X88745827Y-82834397D01*
X88863413Y-82883102D01*
X88891503Y-82894737D01*
X89046153Y-82925499D01*
X89046156Y-82925500D01*
X89046158Y-82925500D01*
X89203844Y-82925500D01*
X89203845Y-82925499D01*
X89358497Y-82894737D01*
X89504179Y-82834394D01*
X89635289Y-82746789D01*
X89746789Y-82635289D01*
X89834394Y-82504179D01*
X89894737Y-82358497D01*
X89925500Y-82203842D01*
X89925500Y-82046158D01*
X89925500Y-82046155D01*
X89925499Y-82046153D01*
X89910204Y-81969257D01*
X89906603Y-81951153D01*
X92339500Y-81951153D01*
X92339500Y-82108846D01*
X92370261Y-82263489D01*
X92370264Y-82263501D01*
X92430602Y-82409172D01*
X92430609Y-82409185D01*
X92518210Y-82540288D01*
X92518213Y-82540292D01*
X92629707Y-82651786D01*
X92629710Y-82651788D01*
X92629711Y-82651789D01*
X92636371Y-82656239D01*
X92667289Y-82676898D01*
X92712093Y-82730511D01*
X92720800Y-82799836D01*
X92690645Y-82862863D01*
X92667289Y-82883102D01*
X92629707Y-82908213D01*
X92518213Y-83019707D01*
X92518210Y-83019711D01*
X92430609Y-83150814D01*
X92430602Y-83150827D01*
X92370264Y-83296498D01*
X92370261Y-83296510D01*
X92339500Y-83451153D01*
X92339500Y-83608846D01*
X92370261Y-83763489D01*
X92370264Y-83763501D01*
X92430602Y-83909172D01*
X92430609Y-83909185D01*
X92518210Y-84040288D01*
X92518213Y-84040292D01*
X92629707Y-84151786D01*
X92629711Y-84151789D01*
X92760814Y-84239390D01*
X92760827Y-84239397D01*
X92906498Y-84299735D01*
X92906503Y-84299737D01*
X93002367Y-84318805D01*
X93003535Y-84319038D01*
X93065446Y-84351422D01*
X93100020Y-84412138D01*
X93100961Y-84416463D01*
X93120261Y-84513491D01*
X93120264Y-84513501D01*
X93180602Y-84659172D01*
X93180609Y-84659185D01*
X93268210Y-84790288D01*
X93268213Y-84790292D01*
X93379707Y-84901786D01*
X93379711Y-84901789D01*
X93510814Y-84989390D01*
X93510827Y-84989397D01*
X93656498Y-85049735D01*
X93656503Y-85049737D01*
X93800153Y-85078311D01*
X93811153Y-85080499D01*
X93811156Y-85080500D01*
X93811158Y-85080500D01*
X93968844Y-85080500D01*
X93968845Y-85080499D01*
X94123497Y-85049737D01*
X94269179Y-84989394D01*
X94400289Y-84901789D01*
X94511789Y-84790289D01*
X94527349Y-84767002D01*
X94536898Y-84752712D01*
X94590510Y-84707906D01*
X94659835Y-84699199D01*
X94722862Y-84729353D01*
X94743102Y-84752712D01*
X94768207Y-84790284D01*
X94768213Y-84790292D01*
X94879707Y-84901786D01*
X94879711Y-84901789D01*
X95010814Y-84989390D01*
X95010827Y-84989397D01*
X95156498Y-85049735D01*
X95156503Y-85049737D01*
X95300153Y-85078311D01*
X95311153Y-85080499D01*
X95311156Y-85080500D01*
X95311158Y-85080500D01*
X95468844Y-85080500D01*
X95468845Y-85080499D01*
X95623497Y-85049737D01*
X95769179Y-84989394D01*
X95900289Y-84901789D01*
X96011789Y-84790289D01*
X96099394Y-84659179D01*
X96159737Y-84513497D01*
X96179038Y-84416460D01*
X96211422Y-84354553D01*
X96272138Y-84319979D01*
X96276400Y-84319050D01*
X96373497Y-84299737D01*
X96519179Y-84239394D01*
X96650289Y-84151789D01*
X96761789Y-84040289D01*
X96849394Y-83909179D01*
X96909737Y-83763497D01*
X96940500Y-83608842D01*
X96940500Y-83451158D01*
X96940500Y-83451155D01*
X96940499Y-83451153D01*
X96909738Y-83296510D01*
X96909737Y-83296503D01*
X96877960Y-83219786D01*
X96849397Y-83150827D01*
X96849390Y-83150814D01*
X96761789Y-83019711D01*
X96761786Y-83019707D01*
X96650292Y-82908213D01*
X96650284Y-82908207D01*
X96612712Y-82883102D01*
X96567906Y-82829490D01*
X96559199Y-82760165D01*
X96589353Y-82697138D01*
X96612712Y-82676898D01*
X96643629Y-82656239D01*
X96650289Y-82651789D01*
X96761789Y-82540289D01*
X96849394Y-82409179D01*
X96909737Y-82263497D01*
X96940500Y-82108842D01*
X96940500Y-81951158D01*
X96940500Y-81951155D01*
X96940499Y-81951153D01*
X96928633Y-81891498D01*
X96909737Y-81796503D01*
X96909735Y-81796498D01*
X96849397Y-81650827D01*
X96849390Y-81650814D01*
X96761789Y-81519711D01*
X96761786Y-81519707D01*
X96650292Y-81408213D01*
X96650288Y-81408210D01*
X96519185Y-81320609D01*
X96519172Y-81320602D01*
X96373501Y-81260264D01*
X96373491Y-81260261D01*
X96276463Y-81240961D01*
X96214552Y-81208576D01*
X96179978Y-81147860D01*
X96179038Y-81143535D01*
X96178805Y-81142367D01*
X96159737Y-81046503D01*
X96148650Y-81019737D01*
X96099397Y-80900827D01*
X96099390Y-80900814D01*
X96011789Y-80769711D01*
X96011786Y-80769707D01*
X95900292Y-80658213D01*
X95900288Y-80658210D01*
X95769185Y-80570609D01*
X95769172Y-80570602D01*
X95623501Y-80510264D01*
X95623489Y-80510261D01*
X95468845Y-80479500D01*
X95468842Y-80479500D01*
X95311158Y-80479500D01*
X95311155Y-80479500D01*
X95156510Y-80510261D01*
X95156498Y-80510264D01*
X95010827Y-80570602D01*
X95010814Y-80570609D01*
X94879711Y-80658210D01*
X94879707Y-80658213D01*
X94768213Y-80769707D01*
X94743102Y-80807289D01*
X94689489Y-80852093D01*
X94620164Y-80860800D01*
X94557137Y-80830645D01*
X94536898Y-80807289D01*
X94511786Y-80769707D01*
X94400292Y-80658213D01*
X94400288Y-80658210D01*
X94269185Y-80570609D01*
X94269172Y-80570602D01*
X94123501Y-80510264D01*
X94123489Y-80510261D01*
X93968845Y-80479500D01*
X93968842Y-80479500D01*
X93811158Y-80479500D01*
X93811155Y-80479500D01*
X93656510Y-80510261D01*
X93656498Y-80510264D01*
X93510827Y-80570602D01*
X93510814Y-80570609D01*
X93379711Y-80658210D01*
X93379707Y-80658213D01*
X93268213Y-80769707D01*
X93268210Y-80769711D01*
X93180609Y-80900814D01*
X93180602Y-80900827D01*
X93120264Y-81046498D01*
X93120261Y-81046508D01*
X93100961Y-81143536D01*
X93068576Y-81205447D01*
X93007860Y-81240021D01*
X93003536Y-81240961D01*
X92906508Y-81260261D01*
X92906498Y-81260264D01*
X92760827Y-81320602D01*
X92760814Y-81320609D01*
X92629711Y-81408210D01*
X92629707Y-81408213D01*
X92518213Y-81519707D01*
X92518210Y-81519711D01*
X92430609Y-81650814D01*
X92430602Y-81650827D01*
X92370264Y-81796498D01*
X92370261Y-81796510D01*
X92339500Y-81951153D01*
X89906603Y-81951153D01*
X89894738Y-81891508D01*
X89894737Y-81891507D01*
X89894737Y-81891503D01*
X89894735Y-81891498D01*
X89834397Y-81745827D01*
X89834390Y-81745814D01*
X89746789Y-81614711D01*
X89746786Y-81614707D01*
X89635292Y-81503213D01*
X89635288Y-81503210D01*
X89504185Y-81415609D01*
X89504172Y-81415602D01*
X89358501Y-81355264D01*
X89358489Y-81355261D01*
X89203845Y-81324500D01*
X89203842Y-81324500D01*
X89046158Y-81324500D01*
X89046155Y-81324500D01*
X88891510Y-81355261D01*
X88891498Y-81355264D01*
X88745827Y-81415602D01*
X88745814Y-81415609D01*
X88614711Y-81503210D01*
X88614707Y-81503213D01*
X88503213Y-81614707D01*
X88503210Y-81614711D01*
X88415609Y-81745814D01*
X88415602Y-81745827D01*
X88355264Y-81891498D01*
X88355261Y-81891510D01*
X88324500Y-82046153D01*
X83320793Y-82046153D01*
X83317246Y-82023759D01*
X83317246Y-82023757D01*
X83251557Y-81821588D01*
X83155051Y-81632184D01*
X83155049Y-81632181D01*
X83155048Y-81632179D01*
X83030109Y-81460213D01*
X82879786Y-81309890D01*
X82707820Y-81184951D01*
X82518414Y-81088444D01*
X82518413Y-81088443D01*
X82518412Y-81088443D01*
X82316243Y-81022754D01*
X82316241Y-81022753D01*
X82316240Y-81022753D01*
X82154957Y-80997208D01*
X82106287Y-80989500D01*
X81893713Y-80989500D01*
X81845042Y-80997208D01*
X81683760Y-81022753D01*
X81481585Y-81088444D01*
X81292179Y-81184951D01*
X81120213Y-81309890D01*
X80969890Y-81460213D01*
X80844951Y-81632179D01*
X80748444Y-81821585D01*
X80682753Y-82023760D01*
X80649500Y-82233713D01*
X72875500Y-82233713D01*
X72875500Y-80171153D01*
X88699500Y-80171153D01*
X88699500Y-80328846D01*
X88730261Y-80483489D01*
X88730264Y-80483501D01*
X88790602Y-80629172D01*
X88790609Y-80629185D01*
X88878210Y-80760288D01*
X88878213Y-80760292D01*
X88989707Y-80871786D01*
X88989711Y-80871789D01*
X89120814Y-80959390D01*
X89120827Y-80959397D01*
X89216084Y-80998853D01*
X89266503Y-81019737D01*
X89401039Y-81046498D01*
X89421153Y-81050499D01*
X89421156Y-81050500D01*
X89421158Y-81050500D01*
X89578844Y-81050500D01*
X89578845Y-81050499D01*
X89733497Y-81019737D01*
X89879179Y-80959394D01*
X90010289Y-80871789D01*
X90121789Y-80760289D01*
X90209394Y-80629179D01*
X90269737Y-80483497D01*
X90281325Y-80425237D01*
X90313709Y-80363329D01*
X90374424Y-80328755D01*
X90378687Y-80327827D01*
X90483497Y-80306979D01*
X90629179Y-80246636D01*
X90760289Y-80159031D01*
X90871789Y-80047531D01*
X90959394Y-79916421D01*
X91019737Y-79770739D01*
X91050500Y-79616084D01*
X91050500Y-79528950D01*
X91070185Y-79461911D01*
X91122989Y-79416156D01*
X91192147Y-79406212D01*
X91243391Y-79425848D01*
X91370814Y-79510990D01*
X91370827Y-79510997D01*
X91442311Y-79540606D01*
X91516503Y-79571337D01*
X91671153Y-79602099D01*
X91671156Y-79602100D01*
X91671158Y-79602100D01*
X91828844Y-79602100D01*
X91828845Y-79602099D01*
X91983497Y-79571337D01*
X92129179Y-79510994D01*
X92260289Y-79423389D01*
X92371789Y-79311889D01*
X92459394Y-79180779D01*
X92519737Y-79035097D01*
X92550500Y-78880442D01*
X92550500Y-78722758D01*
X92550500Y-78722755D01*
X92550499Y-78722753D01*
X92519738Y-78568110D01*
X92519737Y-78568103D01*
X92483002Y-78479416D01*
X92459397Y-78422427D01*
X92459390Y-78422414D01*
X92371789Y-78291311D01*
X92371786Y-78291307D01*
X92260292Y-78179813D01*
X92260288Y-78179810D01*
X92129185Y-78092209D01*
X92129172Y-78092202D01*
X92079949Y-78071814D01*
X92025545Y-78027974D01*
X92012840Y-78004706D01*
X91955692Y-77866738D01*
X91955687Y-77866729D01*
X91868086Y-77735626D01*
X91868083Y-77735622D01*
X91756589Y-77624128D01*
X91756585Y-77624125D01*
X91625482Y-77536524D01*
X91625469Y-77536517D01*
X91479798Y-77476179D01*
X91479786Y-77476176D01*
X91325142Y-77445415D01*
X91325139Y-77445415D01*
X91167455Y-77445415D01*
X91167452Y-77445415D01*
X91012807Y-77476176D01*
X91012795Y-77476179D01*
X90867124Y-77536517D01*
X90867111Y-77536524D01*
X90736008Y-77624125D01*
X90736004Y-77624128D01*
X90624510Y-77735622D01*
X90624507Y-77735626D01*
X90536906Y-77866729D01*
X90536899Y-77866742D01*
X90476561Y-78012413D01*
X90476558Y-78012425D01*
X90445797Y-78167068D01*
X90445797Y-78324761D01*
X90476558Y-78479404D01*
X90476561Y-78479416D01*
X90517205Y-78577540D01*
X90524674Y-78647009D01*
X90493398Y-78709488D01*
X90433309Y-78745140D01*
X90378454Y-78746610D01*
X90328842Y-78736742D01*
X90171158Y-78736742D01*
X90171155Y-78736742D01*
X90016510Y-78767503D01*
X90016498Y-78767506D01*
X89870827Y-78827844D01*
X89870814Y-78827851D01*
X89739711Y-78915452D01*
X89739707Y-78915455D01*
X89628213Y-79026949D01*
X89628210Y-79026953D01*
X89540609Y-79158056D01*
X89540602Y-79158069D01*
X89480264Y-79303740D01*
X89480261Y-79303750D01*
X89468674Y-79362002D01*
X89436288Y-79423913D01*
X89375572Y-79458487D01*
X89371249Y-79459427D01*
X89266508Y-79480261D01*
X89266498Y-79480264D01*
X89120827Y-79540602D01*
X89120814Y-79540609D01*
X88989711Y-79628210D01*
X88989707Y-79628213D01*
X88878213Y-79739707D01*
X88878210Y-79739711D01*
X88790609Y-79870814D01*
X88790602Y-79870827D01*
X88730264Y-80016498D01*
X88730261Y-80016510D01*
X88699500Y-80171153D01*
X72875500Y-80171153D01*
X72875500Y-76624500D01*
X72895185Y-76557461D01*
X72947989Y-76511706D01*
X72999500Y-76500500D01*
X106120500Y-76500500D01*
X106187539Y-76520185D01*
G37*
%TD.AperFunction*%
%TD*%
%TA.AperFunction,Conductor*%
%TO.N,VCC*%
G36*
X73191106Y-123269685D02*
G01*
X73236861Y-123322489D01*
X73238628Y-123326548D01*
X73265602Y-123391673D01*
X73265609Y-123391685D01*
X73353210Y-123522788D01*
X73353213Y-123522792D01*
X73464707Y-123634286D01*
X73464711Y-123634289D01*
X73595814Y-123721890D01*
X73595827Y-123721897D01*
X73741498Y-123782235D01*
X73741503Y-123782237D01*
X73896153Y-123812999D01*
X73896156Y-123813000D01*
X73896158Y-123813000D01*
X74053844Y-123813000D01*
X74053845Y-123812999D01*
X74208497Y-123782237D01*
X74354179Y-123721894D01*
X74485289Y-123634289D01*
X74596789Y-123522789D01*
X74684394Y-123391679D01*
X74684395Y-123391676D01*
X74684397Y-123391673D01*
X74711372Y-123326548D01*
X74755212Y-123272144D01*
X74821506Y-123250079D01*
X74825933Y-123250000D01*
X75624067Y-123250000D01*
X75691106Y-123269685D01*
X75736861Y-123322489D01*
X75738628Y-123326548D01*
X75765602Y-123391673D01*
X75765609Y-123391685D01*
X75853210Y-123522788D01*
X75853213Y-123522792D01*
X75964707Y-123634286D01*
X75964711Y-123634289D01*
X76095814Y-123721890D01*
X76095827Y-123721897D01*
X76241498Y-123782235D01*
X76241503Y-123782237D01*
X76396153Y-123812999D01*
X76396156Y-123813000D01*
X76396158Y-123813000D01*
X76553844Y-123813000D01*
X76553845Y-123812999D01*
X76708497Y-123782237D01*
X76854179Y-123721894D01*
X76985289Y-123634289D01*
X77096789Y-123522789D01*
X77184394Y-123391679D01*
X77184395Y-123391676D01*
X77184397Y-123391673D01*
X77211372Y-123326548D01*
X77255212Y-123272144D01*
X77321506Y-123250079D01*
X77325933Y-123250000D01*
X78124067Y-123250000D01*
X78191106Y-123269685D01*
X78236861Y-123322489D01*
X78238628Y-123326548D01*
X78265602Y-123391673D01*
X78265609Y-123391685D01*
X78353210Y-123522788D01*
X78353213Y-123522792D01*
X78464707Y-123634286D01*
X78464711Y-123634289D01*
X78595814Y-123721890D01*
X78595827Y-123721897D01*
X78741498Y-123782235D01*
X78741503Y-123782237D01*
X78896153Y-123812999D01*
X78896156Y-123813000D01*
X78896158Y-123813000D01*
X79053844Y-123813000D01*
X79053845Y-123812999D01*
X79208497Y-123782237D01*
X79354179Y-123721894D01*
X79485289Y-123634289D01*
X79596789Y-123522789D01*
X79684394Y-123391679D01*
X79684395Y-123391676D01*
X79684397Y-123391673D01*
X79711372Y-123326548D01*
X79755212Y-123272144D01*
X79821506Y-123250079D01*
X79825933Y-123250000D01*
X80624067Y-123250000D01*
X80691106Y-123269685D01*
X80736861Y-123322489D01*
X80738628Y-123326548D01*
X80765602Y-123391673D01*
X80765609Y-123391685D01*
X80853210Y-123522788D01*
X80853213Y-123522792D01*
X80964707Y-123634286D01*
X80964711Y-123634289D01*
X81095814Y-123721890D01*
X81095827Y-123721897D01*
X81241498Y-123782235D01*
X81241503Y-123782237D01*
X81396153Y-123812999D01*
X81396156Y-123813000D01*
X81396158Y-123813000D01*
X81553844Y-123813000D01*
X81553845Y-123812999D01*
X81708497Y-123782237D01*
X81854179Y-123721894D01*
X81985289Y-123634289D01*
X82096789Y-123522789D01*
X82184394Y-123391679D01*
X82184395Y-123391676D01*
X82184397Y-123391673D01*
X82211372Y-123326548D01*
X82255212Y-123272144D01*
X82321506Y-123250079D01*
X82325933Y-123250000D01*
X100847870Y-123250000D01*
X100914909Y-123269685D01*
X100960664Y-123322489D01*
X100970608Y-123391647D01*
X100950972Y-123442891D01*
X100915609Y-123495814D01*
X100915602Y-123495827D01*
X100855259Y-123641509D01*
X100853839Y-123646192D01*
X100815535Y-123704626D01*
X100771192Y-123728839D01*
X100766509Y-123730259D01*
X100620827Y-123790602D01*
X100620814Y-123790609D01*
X100489711Y-123878210D01*
X100489707Y-123878213D01*
X100378213Y-123989707D01*
X100378210Y-123989711D01*
X100290609Y-124120814D01*
X100290602Y-124120827D01*
X100230264Y-124266498D01*
X100230261Y-124266510D01*
X100199500Y-124421153D01*
X100199500Y-124578846D01*
X100230261Y-124733489D01*
X100230264Y-124733501D01*
X100290602Y-124879172D01*
X100290609Y-124879185D01*
X100378210Y-125010288D01*
X100378213Y-125010292D01*
X100489707Y-125121786D01*
X100489711Y-125121789D01*
X100620814Y-125209390D01*
X100620827Y-125209397D01*
X100766498Y-125269735D01*
X100766503Y-125269737D01*
X100921153Y-125300499D01*
X100921156Y-125300500D01*
X100921158Y-125300500D01*
X101078844Y-125300500D01*
X101078845Y-125300499D01*
X101233497Y-125269737D01*
X101379179Y-125209394D01*
X101436411Y-125171153D01*
X103199500Y-125171153D01*
X103199500Y-125328846D01*
X103230261Y-125483489D01*
X103230264Y-125483501D01*
X103290602Y-125629172D01*
X103290609Y-125629185D01*
X103378210Y-125760288D01*
X103378213Y-125760292D01*
X103489707Y-125871786D01*
X103489711Y-125871789D01*
X103620814Y-125959390D01*
X103620827Y-125959397D01*
X103766498Y-126019735D01*
X103766503Y-126019737D01*
X103921153Y-126050499D01*
X103921156Y-126050500D01*
X103921158Y-126050500D01*
X104078844Y-126050500D01*
X104078845Y-126050499D01*
X104233497Y-126019737D01*
X104379179Y-125959394D01*
X104510289Y-125871789D01*
X104621789Y-125760289D01*
X104709394Y-125629179D01*
X104769737Y-125483497D01*
X104800500Y-125328842D01*
X104800500Y-125171158D01*
X104800500Y-125171155D01*
X104800499Y-125171153D01*
X104769738Y-125016510D01*
X104769737Y-125016503D01*
X104767163Y-125010288D01*
X104709397Y-124870827D01*
X104709390Y-124870814D01*
X104621789Y-124739711D01*
X104621786Y-124739707D01*
X104510292Y-124628213D01*
X104510288Y-124628210D01*
X104379185Y-124540609D01*
X104379172Y-124540602D01*
X104233501Y-124480264D01*
X104233489Y-124480261D01*
X104078845Y-124449500D01*
X104078842Y-124449500D01*
X103921158Y-124449500D01*
X103921155Y-124449500D01*
X103766510Y-124480261D01*
X103766498Y-124480264D01*
X103620827Y-124540602D01*
X103620814Y-124540609D01*
X103489711Y-124628210D01*
X103489707Y-124628213D01*
X103378213Y-124739707D01*
X103378210Y-124739711D01*
X103290609Y-124870814D01*
X103290602Y-124870827D01*
X103230264Y-125016498D01*
X103230261Y-125016510D01*
X103199500Y-125171153D01*
X101436411Y-125171153D01*
X101510289Y-125121789D01*
X101510292Y-125121786D01*
X101554694Y-125077385D01*
X101621786Y-125010292D01*
X101621789Y-125010289D01*
X101709394Y-124879179D01*
X101712854Y-124870827D01*
X101715725Y-124863893D01*
X101769737Y-124733497D01*
X101769740Y-124733478D01*
X101771151Y-124728830D01*
X101809444Y-124670388D01*
X101853830Y-124646151D01*
X101858478Y-124644740D01*
X101858497Y-124644737D01*
X102004179Y-124584394D01*
X102135289Y-124496789D01*
X102246789Y-124385289D01*
X102334394Y-124254179D01*
X102394737Y-124108497D01*
X102425500Y-123953842D01*
X102425500Y-123796158D01*
X102425500Y-123796155D01*
X102425499Y-123796153D01*
X102422731Y-123782237D01*
X102394737Y-123641503D01*
X102345566Y-123522792D01*
X102334397Y-123495827D01*
X102334390Y-123495814D01*
X102299028Y-123442891D01*
X102278150Y-123376213D01*
X102296635Y-123308833D01*
X102348614Y-123262143D01*
X102402130Y-123250000D01*
X114250500Y-123250000D01*
X114317539Y-123269685D01*
X114363294Y-123322489D01*
X114374500Y-123374000D01*
X114374500Y-130800957D01*
X114354815Y-130867996D01*
X114302011Y-130913751D01*
X114232853Y-130923695D01*
X114169297Y-130894670D01*
X114144961Y-130866054D01*
X114116669Y-130820185D01*
X114092712Y-130781344D01*
X113968656Y-130657288D01*
X113875888Y-130600069D01*
X113819336Y-130565187D01*
X113819331Y-130565185D01*
X113817862Y-130564698D01*
X113652797Y-130510001D01*
X113652795Y-130510000D01*
X113550010Y-130499500D01*
X111949998Y-130499500D01*
X111949981Y-130499501D01*
X111847203Y-130510000D01*
X111847200Y-130510001D01*
X111680668Y-130565185D01*
X111680659Y-130565190D01*
X111577225Y-130628987D01*
X111509832Y-130647427D01*
X111443169Y-130626504D01*
X111398400Y-130572861D01*
X111389739Y-130503530D01*
X111409027Y-130454558D01*
X111459394Y-130379179D01*
X111519737Y-130233497D01*
X111550500Y-130078842D01*
X111550500Y-129921158D01*
X111550500Y-129921155D01*
X111550499Y-129921153D01*
X111530482Y-129820523D01*
X111519737Y-129766503D01*
X111513774Y-129752107D01*
X111459397Y-129620827D01*
X111459390Y-129620814D01*
X111371789Y-129489711D01*
X111371786Y-129489707D01*
X111344760Y-129462681D01*
X111311275Y-129401358D01*
X111316259Y-129331666D01*
X111344760Y-129287319D01*
X111371786Y-129260292D01*
X111371789Y-129260289D01*
X111459394Y-129129179D01*
X111519737Y-128983497D01*
X111550500Y-128828842D01*
X111550500Y-128671158D01*
X111550500Y-128671155D01*
X111550499Y-128671153D01*
X111540969Y-128623244D01*
X111519737Y-128516503D01*
X111513774Y-128502107D01*
X111459397Y-128370827D01*
X111459390Y-128370814D01*
X111371789Y-128239711D01*
X111371786Y-128239707D01*
X111260292Y-128128213D01*
X111260288Y-128128210D01*
X111129185Y-128040609D01*
X111129172Y-128040602D01*
X110983501Y-127980264D01*
X110983489Y-127980261D01*
X110828845Y-127949500D01*
X110828842Y-127949500D01*
X110671158Y-127949500D01*
X110671155Y-127949500D01*
X110516510Y-127980261D01*
X110516498Y-127980264D01*
X110370827Y-128040602D01*
X110370814Y-128040609D01*
X110239711Y-128128210D01*
X110239707Y-128128213D01*
X110128213Y-128239707D01*
X110128210Y-128239711D01*
X110040609Y-128370814D01*
X110040602Y-128370827D01*
X109989561Y-128494054D01*
X109945720Y-128548458D01*
X109879426Y-128570523D01*
X109811727Y-128553244D01*
X109764116Y-128502107D01*
X109760439Y-128494054D01*
X109709397Y-128370827D01*
X109709390Y-128370814D01*
X109621789Y-128239711D01*
X109621786Y-128239707D01*
X109510292Y-128128213D01*
X109510288Y-128128210D01*
X109379185Y-128040609D01*
X109379172Y-128040602D01*
X109233501Y-127980264D01*
X109233489Y-127980261D01*
X109078845Y-127949500D01*
X109078842Y-127949500D01*
X108921158Y-127949500D01*
X108921155Y-127949500D01*
X108766510Y-127980261D01*
X108766498Y-127980264D01*
X108620827Y-128040602D01*
X108620814Y-128040609D01*
X108489711Y-128128210D01*
X108489707Y-128128213D01*
X108378213Y-128239707D01*
X108378210Y-128239711D01*
X108290609Y-128370814D01*
X108290602Y-128370827D01*
X108230264Y-128516498D01*
X108230261Y-128516510D01*
X108199500Y-128671153D01*
X108199500Y-128828846D01*
X108230261Y-128983489D01*
X108230264Y-128983501D01*
X108290602Y-129129172D01*
X108290609Y-129129185D01*
X108378210Y-129260288D01*
X108378213Y-129260292D01*
X108405240Y-129287319D01*
X108438725Y-129348642D01*
X108433741Y-129418334D01*
X108405240Y-129462681D01*
X108378213Y-129489707D01*
X108378210Y-129489711D01*
X108290609Y-129620814D01*
X108290602Y-129620827D01*
X108230264Y-129766498D01*
X108230261Y-129766510D01*
X108199500Y-129921153D01*
X108199500Y-130078846D01*
X108230261Y-130233489D01*
X108230264Y-130233501D01*
X108290602Y-130379172D01*
X108290609Y-130379185D01*
X108378210Y-130510288D01*
X108378213Y-130510292D01*
X108489707Y-130621786D01*
X108489711Y-130621789D01*
X108620814Y-130709390D01*
X108620827Y-130709397D01*
X108766498Y-130769735D01*
X108766503Y-130769737D01*
X108921153Y-130800499D01*
X108921156Y-130800500D01*
X108988111Y-130800500D01*
X109055150Y-130820185D01*
X109100905Y-130872989D01*
X109110849Y-130942147D01*
X109081824Y-131005703D01*
X109075792Y-131012181D01*
X109065485Y-131022487D01*
X109065485Y-131022488D01*
X109065483Y-131022490D01*
X109026970Y-131075499D01*
X108926657Y-131213566D01*
X108819433Y-131424003D01*
X108746446Y-131648631D01*
X108709500Y-131881902D01*
X108709500Y-132118097D01*
X108746446Y-132351368D01*
X108819433Y-132575996D01*
X108926657Y-132786433D01*
X109065483Y-132977510D01*
X109232490Y-133144517D01*
X109423567Y-133283343D01*
X109522991Y-133334002D01*
X109634003Y-133390566D01*
X109634005Y-133390566D01*
X109634008Y-133390568D01*
X109754412Y-133429689D01*
X109858631Y-133463553D01*
X110091903Y-133500500D01*
X110091908Y-133500500D01*
X110328097Y-133500500D01*
X110561368Y-133463553D01*
X110785992Y-133390568D01*
X110996433Y-133283343D01*
X111187510Y-133144517D01*
X111187516Y-133144511D01*
X111191221Y-133141348D01*
X111192784Y-133143179D01*
X111245292Y-133114339D01*
X111314996Y-133119152D01*
X111371032Y-133160885D01*
X111377487Y-133170342D01*
X111407287Y-133218655D01*
X111407288Y-133218656D01*
X111531344Y-133342712D01*
X111680666Y-133434814D01*
X111847203Y-133489999D01*
X111949991Y-133500500D01*
X113550008Y-133500499D01*
X113652797Y-133489999D01*
X113819334Y-133434814D01*
X113968656Y-133342712D01*
X114092712Y-133218656D01*
X114144961Y-133133945D01*
X114196909Y-133087221D01*
X114265871Y-133075998D01*
X114329953Y-133103841D01*
X114368810Y-133161910D01*
X114374500Y-133199042D01*
X114374500Y-135125500D01*
X114354815Y-135192539D01*
X114302011Y-135238294D01*
X114250500Y-135249500D01*
X72999500Y-135249500D01*
X72932461Y-135229815D01*
X72886706Y-135177011D01*
X72875500Y-135125500D01*
X72875500Y-133671153D01*
X105199500Y-133671153D01*
X105199500Y-133828846D01*
X105230261Y-133983489D01*
X105230264Y-133983501D01*
X105290602Y-134129172D01*
X105290609Y-134129185D01*
X105378210Y-134260288D01*
X105378213Y-134260292D01*
X105489707Y-134371786D01*
X105489711Y-134371789D01*
X105620814Y-134459390D01*
X105620827Y-134459397D01*
X105766498Y-134519735D01*
X105766503Y-134519737D01*
X105921153Y-134550499D01*
X105921156Y-134550500D01*
X105921158Y-134550500D01*
X106078844Y-134550500D01*
X106078845Y-134550499D01*
X106233497Y-134519737D01*
X106379179Y-134459394D01*
X106510289Y-134371789D01*
X106510292Y-134371786D01*
X106537319Y-134344760D01*
X106598642Y-134311275D01*
X106668334Y-134316259D01*
X106712681Y-134344760D01*
X106739707Y-134371786D01*
X106739711Y-134371789D01*
X106870814Y-134459390D01*
X106870827Y-134459397D01*
X107016498Y-134519735D01*
X107016503Y-134519737D01*
X107171153Y-134550499D01*
X107171156Y-134550500D01*
X107171158Y-134550500D01*
X107328844Y-134550500D01*
X107328845Y-134550499D01*
X107483497Y-134519737D01*
X107629179Y-134459394D01*
X107681110Y-134424694D01*
X107747785Y-134403816D01*
X107815165Y-134422300D01*
X107818863Y-134424676D01*
X107870821Y-134459394D01*
X107870823Y-134459395D01*
X107870825Y-134459396D01*
X108016498Y-134519735D01*
X108016503Y-134519737D01*
X108171153Y-134550499D01*
X108171156Y-134550500D01*
X108171158Y-134550500D01*
X108328844Y-134550500D01*
X108328845Y-134550499D01*
X108483497Y-134519737D01*
X108629179Y-134459394D01*
X108760289Y-134371789D01*
X108871789Y-134260289D01*
X108959394Y-134129179D01*
X109019737Y-133983497D01*
X109050500Y-133828842D01*
X109050500Y-133671158D01*
X109050500Y-133671155D01*
X109050499Y-133671153D01*
X109019738Y-133516510D01*
X109019737Y-133516503D01*
X109019735Y-133516498D01*
X108959397Y-133370827D01*
X108959390Y-133370814D01*
X108871789Y-133239711D01*
X108871786Y-133239707D01*
X108760292Y-133128213D01*
X108760288Y-133128210D01*
X108629185Y-133040609D01*
X108629172Y-133040602D01*
X108483501Y-132980264D01*
X108483489Y-132980261D01*
X108328845Y-132949500D01*
X108328842Y-132949500D01*
X108171158Y-132949500D01*
X108171155Y-132949500D01*
X108016510Y-132980261D01*
X108016498Y-132980264D01*
X107870827Y-133040602D01*
X107870814Y-133040609D01*
X107818891Y-133075304D01*
X107752214Y-133096182D01*
X107684833Y-133077698D01*
X107681109Y-133075304D01*
X107629185Y-133040609D01*
X107629172Y-133040602D01*
X107483501Y-132980264D01*
X107483489Y-132980261D01*
X107328845Y-132949500D01*
X107328842Y-132949500D01*
X107171158Y-132949500D01*
X107171155Y-132949500D01*
X107016510Y-132980261D01*
X107016498Y-132980264D01*
X106870827Y-133040602D01*
X106870814Y-133040609D01*
X106739711Y-133128210D01*
X106739707Y-133128213D01*
X106712681Y-133155240D01*
X106651358Y-133188725D01*
X106581666Y-133183741D01*
X106537319Y-133155240D01*
X106510292Y-133128213D01*
X106510288Y-133128210D01*
X106379185Y-133040609D01*
X106379172Y-133040602D01*
X106233501Y-132980264D01*
X106233489Y-132980261D01*
X106078845Y-132949500D01*
X106078842Y-132949500D01*
X105921158Y-132949500D01*
X105921155Y-132949500D01*
X105766510Y-132980261D01*
X105766498Y-132980264D01*
X105620827Y-133040602D01*
X105620814Y-133040609D01*
X105489711Y-133128210D01*
X105489707Y-133128213D01*
X105378213Y-133239707D01*
X105378210Y-133239711D01*
X105290609Y-133370814D01*
X105290602Y-133370827D01*
X105230264Y-133516498D01*
X105230261Y-133516510D01*
X105199500Y-133671153D01*
X72875500Y-133671153D01*
X72875500Y-131386902D01*
X89199500Y-131386902D01*
X89199500Y-131623097D01*
X89236446Y-131856368D01*
X89309433Y-132080996D01*
X89416657Y-132291433D01*
X89555483Y-132482510D01*
X89722490Y-132649517D01*
X89913567Y-132788343D01*
X90012991Y-132839002D01*
X90124003Y-132895566D01*
X90124005Y-132895566D01*
X90124008Y-132895568D01*
X90146257Y-132902797D01*
X90348631Y-132968553D01*
X90581903Y-133005500D01*
X90581908Y-133005500D01*
X90818097Y-133005500D01*
X91051368Y-132968553D01*
X91275992Y-132895568D01*
X91486433Y-132788343D01*
X91677510Y-132649517D01*
X91844517Y-132482510D01*
X91983343Y-132291433D01*
X92090568Y-132080992D01*
X92163553Y-131856368D01*
X92200500Y-131623097D01*
X92200500Y-131386902D01*
X92163553Y-131153631D01*
X92103917Y-130970093D01*
X92090568Y-130929008D01*
X92090566Y-130929005D01*
X92090566Y-130929003D01*
X92017341Y-130785292D01*
X91983343Y-130718567D01*
X91844517Y-130527490D01*
X91677510Y-130360483D01*
X91486433Y-130221657D01*
X91275996Y-130114433D01*
X91051368Y-130041446D01*
X90818097Y-130004500D01*
X90818092Y-130004500D01*
X90581908Y-130004500D01*
X90581903Y-130004500D01*
X90348631Y-130041446D01*
X90124003Y-130114433D01*
X89913566Y-130221657D01*
X89804550Y-130300862D01*
X89722490Y-130360483D01*
X89722488Y-130360485D01*
X89722487Y-130360485D01*
X89555485Y-130527487D01*
X89555485Y-130527488D01*
X89555483Y-130527490D01*
X89522519Y-130572861D01*
X89416657Y-130718566D01*
X89309433Y-130929003D01*
X89236446Y-131153631D01*
X89199500Y-131386902D01*
X72875500Y-131386902D01*
X72875500Y-129671153D01*
X92949500Y-129671153D01*
X92949500Y-129828846D01*
X92980261Y-129983489D01*
X92980264Y-129983501D01*
X93040602Y-130129172D01*
X93040609Y-130129185D01*
X93128210Y-130260288D01*
X93128213Y-130260292D01*
X93239707Y-130371786D01*
X93239711Y-130371789D01*
X93370814Y-130459390D01*
X93370827Y-130459397D01*
X93516498Y-130519735D01*
X93516503Y-130519737D01*
X93671153Y-130550499D01*
X93671156Y-130550500D01*
X93671158Y-130550500D01*
X93828844Y-130550500D01*
X93828845Y-130550499D01*
X93983497Y-130519737D01*
X94129179Y-130459394D01*
X94260289Y-130371789D01*
X94271595Y-130360483D01*
X94287319Y-130344760D01*
X94348642Y-130311275D01*
X94418334Y-130316259D01*
X94462681Y-130344760D01*
X94489707Y-130371786D01*
X94489711Y-130371789D01*
X94620814Y-130459390D01*
X94620827Y-130459397D01*
X94766498Y-130519735D01*
X94766503Y-130519737D01*
X94921153Y-130550499D01*
X94921156Y-130550500D01*
X94921158Y-130550500D01*
X95078844Y-130550500D01*
X95078845Y-130550499D01*
X95233497Y-130519737D01*
X95379179Y-130459394D01*
X95510289Y-130371789D01*
X95621789Y-130260289D01*
X95709394Y-130129179D01*
X95769737Y-129983497D01*
X95800500Y-129828842D01*
X95800500Y-129671158D01*
X95800500Y-129671155D01*
X95800499Y-129671153D01*
X95796930Y-129653211D01*
X95769737Y-129516503D01*
X95769729Y-129516483D01*
X95709397Y-129370827D01*
X95709390Y-129370814D01*
X95621789Y-129239711D01*
X95621786Y-129239707D01*
X95594760Y-129212681D01*
X95561275Y-129151358D01*
X95566259Y-129081666D01*
X95594760Y-129037319D01*
X95621786Y-129010292D01*
X95621789Y-129010289D01*
X95709394Y-128879179D01*
X95769737Y-128733497D01*
X95800500Y-128578842D01*
X95800500Y-128421158D01*
X95800500Y-128421155D01*
X95800499Y-128421153D01*
X96949500Y-128421153D01*
X96949500Y-128578846D01*
X96980261Y-128733489D01*
X96980264Y-128733501D01*
X97040602Y-128879172D01*
X97040609Y-128879185D01*
X97128210Y-129010288D01*
X97128213Y-129010292D01*
X97155240Y-129037319D01*
X97188725Y-129098642D01*
X97183741Y-129168334D01*
X97155240Y-129212681D01*
X97128213Y-129239707D01*
X97128210Y-129239711D01*
X97040609Y-129370814D01*
X97040602Y-129370827D01*
X96980264Y-129516498D01*
X96980261Y-129516510D01*
X96949500Y-129671153D01*
X96949500Y-129828846D01*
X96980261Y-129983489D01*
X96980264Y-129983501D01*
X97040602Y-130129172D01*
X97040609Y-130129185D01*
X97128210Y-130260288D01*
X97128213Y-130260292D01*
X97239707Y-130371786D01*
X97239711Y-130371789D01*
X97370814Y-130459390D01*
X97370827Y-130459397D01*
X97516498Y-130519735D01*
X97516503Y-130519737D01*
X97671153Y-130550499D01*
X97671156Y-130550500D01*
X97671158Y-130550500D01*
X97828844Y-130550500D01*
X97828845Y-130550499D01*
X97983497Y-130519737D01*
X98129179Y-130459394D01*
X98260289Y-130371789D01*
X98271595Y-130360483D01*
X98287319Y-130344760D01*
X98348642Y-130311275D01*
X98418334Y-130316259D01*
X98462681Y-130344760D01*
X98489707Y-130371786D01*
X98489711Y-130371789D01*
X98620814Y-130459390D01*
X98620827Y-130459397D01*
X98766498Y-130519735D01*
X98766503Y-130519737D01*
X98921153Y-130550499D01*
X98921156Y-130550500D01*
X98921158Y-130550500D01*
X99078844Y-130550500D01*
X99078845Y-130550499D01*
X99233497Y-130519737D01*
X99379179Y-130459394D01*
X99510289Y-130371789D01*
X99621789Y-130260289D01*
X99709394Y-130129179D01*
X99769737Y-129983497D01*
X99800500Y-129828842D01*
X99800500Y-129671158D01*
X99800500Y-129671155D01*
X99800499Y-129671153D01*
X99796930Y-129653211D01*
X99769737Y-129516503D01*
X99769729Y-129516483D01*
X99709397Y-129370827D01*
X99709390Y-129370814D01*
X99621789Y-129239711D01*
X99621786Y-129239707D01*
X99510292Y-129128213D01*
X99510288Y-129128210D01*
X99379185Y-129040609D01*
X99379172Y-129040602D01*
X99233501Y-128980264D01*
X99233489Y-128980261D01*
X99078845Y-128949500D01*
X99078842Y-128949500D01*
X98921158Y-128949500D01*
X98921155Y-128949500D01*
X98766510Y-128980261D01*
X98766498Y-128980264D01*
X98621822Y-129040190D01*
X98602764Y-129042238D01*
X98584899Y-129049181D01*
X98568744Y-129045896D01*
X98552352Y-129047659D01*
X98535211Y-129039078D01*
X98516430Y-129035260D01*
X98504615Y-129023762D01*
X98489873Y-129016383D01*
X98480092Y-128999898D01*
X98466357Y-128986532D01*
X98462633Y-128970473D01*
X98454221Y-128956294D01*
X98454905Y-128937138D01*
X98450577Y-128918468D01*
X98456495Y-128892636D01*
X98456716Y-128886469D01*
X98457609Y-128883881D01*
X98459170Y-128879513D01*
X98459394Y-128879179D01*
X98519737Y-128733497D01*
X98530217Y-128680807D01*
X98533292Y-128672209D01*
X98534060Y-128671153D01*
X101199500Y-128671153D01*
X101199500Y-128828846D01*
X101230261Y-128983489D01*
X101230264Y-128983501D01*
X101290602Y-129129172D01*
X101290609Y-129129185D01*
X101378210Y-129260288D01*
X101378213Y-129260292D01*
X101489707Y-129371786D01*
X101489711Y-129371789D01*
X101620814Y-129459390D01*
X101620827Y-129459397D01*
X101652806Y-129472643D01*
X101707210Y-129516483D01*
X101729275Y-129582778D01*
X101711996Y-129650477D01*
X101693036Y-129674885D01*
X101628210Y-129739711D01*
X101540609Y-129870814D01*
X101540602Y-129870827D01*
X101480264Y-130016498D01*
X101480261Y-130016510D01*
X101449500Y-130171153D01*
X101449500Y-130328846D01*
X101480261Y-130483489D01*
X101480264Y-130483501D01*
X101540602Y-130629172D01*
X101540609Y-130629185D01*
X101628210Y-130760288D01*
X101628213Y-130760292D01*
X101739707Y-130871786D01*
X101739711Y-130871789D01*
X101870814Y-130959390D01*
X101870827Y-130959397D01*
X101998261Y-131012181D01*
X102016503Y-131019737D01*
X102142176Y-131044735D01*
X102171153Y-131050499D01*
X102171156Y-131050500D01*
X102171158Y-131050500D01*
X102328844Y-131050500D01*
X102328845Y-131050499D01*
X102483497Y-131019737D01*
X102629179Y-130959394D01*
X102629193Y-130959384D01*
X102629852Y-130959033D01*
X102630254Y-130958949D01*
X102634808Y-130957063D01*
X102635165Y-130957925D01*
X102698253Y-130944780D01*
X102757214Y-130965280D01*
X102785814Y-130984390D01*
X102785827Y-130984397D01*
X102931498Y-131044735D01*
X102931503Y-131044737D01*
X103086153Y-131075499D01*
X103086156Y-131075500D01*
X103086158Y-131075500D01*
X103243844Y-131075500D01*
X103243845Y-131075499D01*
X103398497Y-131044737D01*
X103544179Y-130984394D01*
X103675289Y-130896789D01*
X103700292Y-130871786D01*
X103727319Y-130844760D01*
X103788642Y-130811275D01*
X103858334Y-130816259D01*
X103902681Y-130844760D01*
X103954707Y-130896786D01*
X103954711Y-130896789D01*
X104085814Y-130984390D01*
X104085827Y-130984397D01*
X104231498Y-131044735D01*
X104231503Y-131044737D01*
X104386153Y-131075499D01*
X104386156Y-131075500D01*
X104386158Y-131075500D01*
X104543844Y-131075500D01*
X104543845Y-131075499D01*
X104698497Y-131044737D01*
X104844179Y-130984394D01*
X104975289Y-130896789D01*
X105000292Y-130871786D01*
X105027319Y-130844760D01*
X105088642Y-130811275D01*
X105158334Y-130816259D01*
X105202681Y-130844760D01*
X105254707Y-130896786D01*
X105254711Y-130896789D01*
X105385814Y-130984390D01*
X105385827Y-130984397D01*
X105531498Y-131044735D01*
X105531503Y-131044737D01*
X105686153Y-131075499D01*
X105686156Y-131075500D01*
X105686158Y-131075500D01*
X105843844Y-131075500D01*
X105843845Y-131075499D01*
X105998497Y-131044737D01*
X106144179Y-130984394D01*
X106275289Y-130896789D01*
X106300292Y-130871786D01*
X106327319Y-130844760D01*
X106388642Y-130811275D01*
X106458334Y-130816259D01*
X106502681Y-130844760D01*
X106554707Y-130896786D01*
X106554711Y-130896789D01*
X106685814Y-130984390D01*
X106685827Y-130984397D01*
X106831498Y-131044735D01*
X106831503Y-131044737D01*
X106986153Y-131075499D01*
X106986156Y-131075500D01*
X106986158Y-131075500D01*
X107143844Y-131075500D01*
X107143845Y-131075499D01*
X107298497Y-131044737D01*
X107444179Y-130984394D01*
X107575289Y-130896789D01*
X107686789Y-130785289D01*
X107774394Y-130654179D01*
X107834737Y-130508497D01*
X107865500Y-130353842D01*
X107865500Y-130196158D01*
X107865500Y-130196155D01*
X107865499Y-130196153D01*
X107852177Y-130129179D01*
X107834737Y-130041503D01*
X107810712Y-129983501D01*
X107774397Y-129895827D01*
X107774390Y-129895814D01*
X107686789Y-129764711D01*
X107686786Y-129764707D01*
X107634760Y-129712681D01*
X107601275Y-129651358D01*
X107606259Y-129581666D01*
X107634760Y-129537319D01*
X107686786Y-129485292D01*
X107686789Y-129485289D01*
X107774394Y-129354179D01*
X107776688Y-129348642D01*
X107813284Y-129260289D01*
X107834737Y-129208497D01*
X107865500Y-129053842D01*
X107865500Y-128896158D01*
X107865500Y-128896155D01*
X107865499Y-128896153D01*
X107834738Y-128741510D01*
X107834737Y-128741503D01*
X107834735Y-128741498D01*
X107774397Y-128595827D01*
X107774390Y-128595814D01*
X107686789Y-128464711D01*
X107686786Y-128464707D01*
X107575292Y-128353213D01*
X107575288Y-128353210D01*
X107444185Y-128265609D01*
X107444172Y-128265602D01*
X107298501Y-128205264D01*
X107298489Y-128205261D01*
X107143845Y-128174500D01*
X107143842Y-128174500D01*
X106986158Y-128174500D01*
X106986155Y-128174500D01*
X106831510Y-128205261D01*
X106831498Y-128205264D01*
X106685827Y-128265602D01*
X106685814Y-128265609D01*
X106554711Y-128353210D01*
X106554707Y-128353213D01*
X106502681Y-128405240D01*
X106441358Y-128438725D01*
X106371666Y-128433741D01*
X106327319Y-128405240D01*
X106275292Y-128353213D01*
X106275288Y-128353210D01*
X106144185Y-128265609D01*
X106144172Y-128265602D01*
X105998501Y-128205264D01*
X105998489Y-128205261D01*
X105843845Y-128174500D01*
X105843842Y-128174500D01*
X105686158Y-128174500D01*
X105686155Y-128174500D01*
X105531510Y-128205261D01*
X105531498Y-128205264D01*
X105385827Y-128265602D01*
X105385814Y-128265609D01*
X105254711Y-128353210D01*
X105254707Y-128353213D01*
X105202681Y-128405240D01*
X105141358Y-128438725D01*
X105071666Y-128433741D01*
X105027319Y-128405240D01*
X104975292Y-128353213D01*
X104975288Y-128353210D01*
X104844185Y-128265609D01*
X104844172Y-128265602D01*
X104698501Y-128205264D01*
X104698489Y-128205261D01*
X104543845Y-128174500D01*
X104543842Y-128174500D01*
X104386158Y-128174500D01*
X104386155Y-128174500D01*
X104231510Y-128205261D01*
X104231498Y-128205264D01*
X104085827Y-128265602D01*
X104085814Y-128265609D01*
X103954711Y-128353210D01*
X103954707Y-128353213D01*
X103902681Y-128405240D01*
X103841358Y-128438725D01*
X103771666Y-128433741D01*
X103727319Y-128405240D01*
X103675292Y-128353213D01*
X103675288Y-128353210D01*
X103544185Y-128265609D01*
X103544172Y-128265602D01*
X103398501Y-128205264D01*
X103398489Y-128205261D01*
X103243845Y-128174500D01*
X103243842Y-128174500D01*
X103086158Y-128174500D01*
X103086155Y-128174500D01*
X102931510Y-128205261D01*
X102931498Y-128205264D01*
X102785828Y-128265602D01*
X102780447Y-128268479D01*
X102779703Y-128267087D01*
X102720357Y-128285661D01*
X102652980Y-128267166D01*
X102626290Y-128243824D01*
X102626097Y-128244018D01*
X102623201Y-128241122D01*
X102622301Y-128240335D01*
X102621784Y-128239705D01*
X102510292Y-128128213D01*
X102510288Y-128128210D01*
X102379185Y-128040609D01*
X102379172Y-128040602D01*
X102233501Y-127980264D01*
X102233489Y-127980261D01*
X102078845Y-127949500D01*
X102078842Y-127949500D01*
X101921158Y-127949500D01*
X101921155Y-127949500D01*
X101766510Y-127980261D01*
X101766498Y-127980264D01*
X101620827Y-128040602D01*
X101620814Y-128040609D01*
X101489711Y-128128210D01*
X101489707Y-128128213D01*
X101378213Y-128239707D01*
X101378210Y-128239711D01*
X101290609Y-128370814D01*
X101290602Y-128370827D01*
X101230264Y-128516498D01*
X101230261Y-128516510D01*
X101199500Y-128671153D01*
X98534060Y-128671153D01*
X98548689Y-128651046D01*
X98560820Y-128627855D01*
X98568917Y-128623244D01*
X98574398Y-128615711D01*
X98598792Y-128606232D01*
X98621536Y-128593281D01*
X98630839Y-128593779D01*
X98639524Y-128590405D01*
X98665170Y-128595619D01*
X98691306Y-128597020D01*
X98697477Y-128599385D01*
X98737334Y-128615894D01*
X98737337Y-128615894D01*
X98737341Y-128615896D01*
X98911304Y-128650499D01*
X98911307Y-128650500D01*
X98911309Y-128650500D01*
X99088693Y-128650500D01*
X99088694Y-128650499D01*
X99146682Y-128638964D01*
X99262658Y-128615896D01*
X99262661Y-128615894D01*
X99262666Y-128615894D01*
X99352114Y-128578844D01*
X99420532Y-128550505D01*
X99426540Y-128548016D01*
X99426540Y-128548015D01*
X99426547Y-128548013D01*
X99574035Y-128449464D01*
X99699464Y-128324035D01*
X99798013Y-128176547D01*
X99865894Y-128012666D01*
X99872340Y-127980263D01*
X99888964Y-127896682D01*
X99900500Y-127838691D01*
X99900500Y-127661309D01*
X99900500Y-127661306D01*
X99900499Y-127661304D01*
X99865896Y-127487341D01*
X99865893Y-127487332D01*
X99798016Y-127323459D01*
X99798009Y-127323446D01*
X99699464Y-127175965D01*
X99699461Y-127175961D01*
X99574038Y-127050538D01*
X99574034Y-127050535D01*
X99426553Y-126951990D01*
X99426540Y-126951983D01*
X99262667Y-126884106D01*
X99262658Y-126884103D01*
X99088694Y-126849500D01*
X99088691Y-126849500D01*
X98911309Y-126849500D01*
X98911306Y-126849500D01*
X98737341Y-126884103D01*
X98737332Y-126884106D01*
X98573459Y-126951983D01*
X98573446Y-126951990D01*
X98425965Y-127050535D01*
X98425961Y-127050538D01*
X98300538Y-127175961D01*
X98300535Y-127175965D01*
X98201990Y-127323446D01*
X98201983Y-127323459D01*
X98134106Y-127487332D01*
X98134104Y-127487340D01*
X98106081Y-127628218D01*
X98073696Y-127690129D01*
X98012980Y-127724703D01*
X97960272Y-127725643D01*
X97828844Y-127699500D01*
X97828842Y-127699500D01*
X97671158Y-127699500D01*
X97671155Y-127699500D01*
X97516510Y-127730261D01*
X97516498Y-127730264D01*
X97370827Y-127790602D01*
X97370814Y-127790609D01*
X97239711Y-127878210D01*
X97239707Y-127878213D01*
X97128213Y-127989707D01*
X97128210Y-127989711D01*
X97040609Y-128120814D01*
X97040602Y-128120827D01*
X96980264Y-128266498D01*
X96980261Y-128266510D01*
X96949500Y-128421153D01*
X95800499Y-128421153D01*
X95783041Y-128333386D01*
X95769737Y-128266503D01*
X95769367Y-128265609D01*
X95709397Y-128120827D01*
X95709390Y-128120814D01*
X95621789Y-127989711D01*
X95621786Y-127989707D01*
X95510292Y-127878213D01*
X95510288Y-127878210D01*
X95379185Y-127790609D01*
X95379172Y-127790602D01*
X95233501Y-127730264D01*
X95233489Y-127730261D01*
X95078845Y-127699500D01*
X95078842Y-127699500D01*
X94921158Y-127699500D01*
X94921155Y-127699500D01*
X94766510Y-127730261D01*
X94766498Y-127730264D01*
X94620827Y-127790602D01*
X94620814Y-127790609D01*
X94489711Y-127878210D01*
X94489707Y-127878213D01*
X94378213Y-127989707D01*
X94378210Y-127989711D01*
X94290609Y-128120814D01*
X94290602Y-128120827D01*
X94230264Y-128266498D01*
X94230261Y-128266510D01*
X94199500Y-128421153D01*
X94199500Y-128578846D01*
X94230261Y-128733489D01*
X94230264Y-128733501D01*
X94290190Y-128878177D01*
X94297659Y-128947646D01*
X94266383Y-129010125D01*
X94206294Y-129045777D01*
X94136469Y-129043283D01*
X94128177Y-129040190D01*
X93983501Y-128980264D01*
X93983489Y-128980261D01*
X93828845Y-128949500D01*
X93828842Y-128949500D01*
X93671158Y-128949500D01*
X93671155Y-128949500D01*
X93516510Y-128980261D01*
X93516498Y-128980264D01*
X93370827Y-129040602D01*
X93370814Y-129040609D01*
X93239711Y-129128210D01*
X93239707Y-129128213D01*
X93128213Y-129239707D01*
X93128210Y-129239711D01*
X93040609Y-129370814D01*
X93040602Y-129370827D01*
X92980264Y-129516498D01*
X92980261Y-129516510D01*
X92949500Y-129671153D01*
X72875500Y-129671153D01*
X72875500Y-123374000D01*
X72878050Y-123365314D01*
X72876762Y-123356353D01*
X72887740Y-123332312D01*
X72895185Y-123306961D01*
X72902025Y-123301033D01*
X72905787Y-123292797D01*
X72928021Y-123278507D01*
X72947989Y-123261206D01*
X72958503Y-123258918D01*
X72964565Y-123255023D01*
X72999500Y-123250000D01*
X73124067Y-123250000D01*
X73191106Y-123269685D01*
G37*
%TD.AperFunction*%
%TD*%
%TA.AperFunction,Conductor*%
%TO.N,+5V*%
G36*
X114317539Y-76520185D02*
G01*
X114363294Y-76572989D01*
X114374500Y-76624500D01*
X114374500Y-122620500D01*
X114354815Y-122687539D01*
X114302011Y-122733294D01*
X114250500Y-122744500D01*
X102402127Y-122744500D01*
X102290272Y-122757030D01*
X102290268Y-122757031D01*
X102236761Y-122769172D01*
X102130449Y-122806145D01*
X102010815Y-122886081D01*
X101958837Y-122932770D01*
X101958837Y-122932771D01*
X101868104Y-123041336D01*
X101810009Y-123080153D01*
X101748768Y-123083436D01*
X101722369Y-123078185D01*
X101703842Y-123074500D01*
X101546158Y-123074500D01*
X101495915Y-123084493D01*
X101426324Y-123078264D01*
X101371147Y-123035400D01*
X101367411Y-123029916D01*
X101342691Y-122991451D01*
X101342689Y-122991450D01*
X101296946Y-122938659D01*
X101296942Y-122938656D01*
X101296940Y-122938653D01*
X101188206Y-122844433D01*
X101188203Y-122844431D01*
X101188201Y-122844430D01*
X101057335Y-122784664D01*
X101057330Y-122784662D01*
X101057329Y-122784662D01*
X101004583Y-122769174D01*
X100990287Y-122764976D01*
X100918591Y-122754668D01*
X100847870Y-122744500D01*
X100847868Y-122744500D01*
X89181806Y-122744500D01*
X89114767Y-122724815D01*
X89078704Y-122689391D01*
X89027139Y-122612218D01*
X89027137Y-122612215D01*
X88887785Y-122472863D01*
X88887781Y-122472860D01*
X88723920Y-122363371D01*
X88723907Y-122363364D01*
X88541839Y-122287950D01*
X88541829Y-122287947D01*
X88348543Y-122249500D01*
X88348541Y-122249500D01*
X88151459Y-122249500D01*
X88151457Y-122249500D01*
X87958170Y-122287947D01*
X87958160Y-122287950D01*
X87776092Y-122363364D01*
X87776079Y-122363371D01*
X87612218Y-122472860D01*
X87612214Y-122472863D01*
X87472862Y-122612215D01*
X87458765Y-122633314D01*
X87421295Y-122689391D01*
X87367685Y-122734196D01*
X87318194Y-122744500D01*
X86181806Y-122744500D01*
X86114767Y-122724815D01*
X86078704Y-122689391D01*
X86027139Y-122612218D01*
X86027137Y-122612215D01*
X85887785Y-122472863D01*
X85887781Y-122472860D01*
X85723920Y-122363371D01*
X85723907Y-122363364D01*
X85541839Y-122287950D01*
X85541829Y-122287947D01*
X85348543Y-122249500D01*
X85348541Y-122249500D01*
X85151459Y-122249500D01*
X85151457Y-122249500D01*
X84958170Y-122287947D01*
X84958160Y-122287950D01*
X84776092Y-122363364D01*
X84776079Y-122363371D01*
X84612218Y-122472860D01*
X84612214Y-122472863D01*
X84472862Y-122612215D01*
X84458765Y-122633314D01*
X84421295Y-122689391D01*
X84367685Y-122734196D01*
X84318194Y-122744500D01*
X82325922Y-122744500D01*
X82316891Y-122744580D01*
X82315561Y-122744604D01*
X82248182Y-122726118D01*
X82201493Y-122674138D01*
X82198789Y-122668075D01*
X82184394Y-122633321D01*
X82184390Y-122633314D01*
X82096789Y-122502211D01*
X82096786Y-122502207D01*
X81985292Y-122390713D01*
X81985284Y-122390707D01*
X81938358Y-122359352D01*
X81893552Y-122305740D01*
X81884845Y-122236415D01*
X81914999Y-122173388D01*
X81938358Y-122153148D01*
X81969506Y-122132334D01*
X81985289Y-122121789D01*
X82096789Y-122010289D01*
X82184394Y-121879179D01*
X82244737Y-121733497D01*
X82275500Y-121578842D01*
X82275500Y-121421158D01*
X82275500Y-121421155D01*
X82275499Y-121421153D01*
X82244738Y-121266510D01*
X82244737Y-121266503D01*
X82244735Y-121266498D01*
X82184397Y-121120827D01*
X82184390Y-121120814D01*
X82096789Y-120989711D01*
X82096786Y-120989707D01*
X81985292Y-120878213D01*
X81985288Y-120878210D01*
X81854185Y-120790609D01*
X81854172Y-120790602D01*
X81730945Y-120739561D01*
X81676541Y-120695721D01*
X81654476Y-120629427D01*
X81671755Y-120561727D01*
X81722892Y-120514116D01*
X81730945Y-120510439D01*
X81854172Y-120459397D01*
X81854172Y-120459396D01*
X81854179Y-120459394D01*
X81985289Y-120371789D01*
X82096789Y-120260289D01*
X82184394Y-120129179D01*
X82244737Y-119983497D01*
X82275500Y-119828842D01*
X82275500Y-119671158D01*
X82275500Y-119671155D01*
X82275499Y-119671153D01*
X82244737Y-119516503D01*
X82244735Y-119516498D01*
X82184397Y-119370827D01*
X82184390Y-119370814D01*
X82096789Y-119239711D01*
X82096786Y-119239707D01*
X81985292Y-119128213D01*
X81985288Y-119128210D01*
X81854185Y-119040609D01*
X81854172Y-119040602D01*
X81708501Y-118980264D01*
X81708489Y-118980261D01*
X81553845Y-118949500D01*
X81553842Y-118949500D01*
X81396158Y-118949500D01*
X81396155Y-118949500D01*
X81241510Y-118980261D01*
X81241498Y-118980264D01*
X81095827Y-119040602D01*
X81095814Y-119040609D01*
X80964711Y-119128210D01*
X80964707Y-119128213D01*
X80853213Y-119239707D01*
X80853210Y-119239711D01*
X80765609Y-119370814D01*
X80765602Y-119370827D01*
X80705264Y-119516498D01*
X80705261Y-119516510D01*
X80674500Y-119671153D01*
X80674500Y-119828846D01*
X80705261Y-119983489D01*
X80705264Y-119983501D01*
X80765602Y-120129172D01*
X80765609Y-120129185D01*
X80853210Y-120260288D01*
X80853213Y-120260292D01*
X80964707Y-120371786D01*
X80964711Y-120371789D01*
X81095814Y-120459390D01*
X81095827Y-120459397D01*
X81219054Y-120510439D01*
X81273458Y-120554280D01*
X81295523Y-120620574D01*
X81278244Y-120688273D01*
X81227107Y-120735884D01*
X81219054Y-120739561D01*
X81095827Y-120790602D01*
X81095814Y-120790609D01*
X80964711Y-120878210D01*
X80964707Y-120878213D01*
X80853213Y-120989707D01*
X80853210Y-120989711D01*
X80765609Y-121120814D01*
X80765602Y-121120827D01*
X80705264Y-121266498D01*
X80705261Y-121266510D01*
X80674500Y-121421153D01*
X80674500Y-121578846D01*
X80705261Y-121733489D01*
X80705264Y-121733501D01*
X80765602Y-121879172D01*
X80765609Y-121879185D01*
X80853210Y-122010288D01*
X80853213Y-122010292D01*
X80964707Y-122121786D01*
X80964711Y-122121789D01*
X81011642Y-122153148D01*
X81056447Y-122206761D01*
X81065154Y-122276086D01*
X81034999Y-122339113D01*
X81011642Y-122359352D01*
X80964711Y-122390710D01*
X80964707Y-122390713D01*
X80853213Y-122502207D01*
X80853210Y-122502211D01*
X80765609Y-122633314D01*
X80765601Y-122633329D01*
X80751023Y-122668524D01*
X80707182Y-122722927D01*
X80640887Y-122744991D01*
X80627614Y-122744754D01*
X80624069Y-122744500D01*
X80624067Y-122744500D01*
X79825933Y-122744500D01*
X79825922Y-122744500D01*
X79816891Y-122744580D01*
X79815561Y-122744604D01*
X79748182Y-122726118D01*
X79701493Y-122674138D01*
X79698789Y-122668075D01*
X79684394Y-122633321D01*
X79684390Y-122633314D01*
X79596789Y-122502211D01*
X79596786Y-122502207D01*
X79485292Y-122390713D01*
X79485284Y-122390707D01*
X79438358Y-122359352D01*
X79393552Y-122305740D01*
X79384845Y-122236415D01*
X79414999Y-122173388D01*
X79438358Y-122153148D01*
X79469506Y-122132334D01*
X79485289Y-122121789D01*
X79596789Y-122010289D01*
X79684394Y-121879179D01*
X79744737Y-121733497D01*
X79775500Y-121578842D01*
X79775500Y-121421158D01*
X79775500Y-121421155D01*
X79775499Y-121421153D01*
X79744738Y-121266510D01*
X79744737Y-121266503D01*
X79744735Y-121266498D01*
X79684397Y-121120827D01*
X79684390Y-121120814D01*
X79596789Y-120989711D01*
X79596786Y-120989707D01*
X79485292Y-120878213D01*
X79485288Y-120878210D01*
X79354185Y-120790609D01*
X79354172Y-120790602D01*
X79230945Y-120739561D01*
X79176541Y-120695721D01*
X79154476Y-120629427D01*
X79171755Y-120561727D01*
X79222892Y-120514116D01*
X79230945Y-120510439D01*
X79354172Y-120459397D01*
X79354172Y-120459396D01*
X79354179Y-120459394D01*
X79485289Y-120371789D01*
X79596789Y-120260289D01*
X79684394Y-120129179D01*
X79744737Y-119983497D01*
X79775500Y-119828842D01*
X79775500Y-119671158D01*
X79775500Y-119671155D01*
X79775499Y-119671153D01*
X79744737Y-119516503D01*
X79744735Y-119516498D01*
X79684397Y-119370827D01*
X79684390Y-119370814D01*
X79596789Y-119239711D01*
X79596786Y-119239707D01*
X79485292Y-119128213D01*
X79485288Y-119128210D01*
X79354185Y-119040609D01*
X79354172Y-119040602D01*
X79208501Y-118980264D01*
X79208489Y-118980261D01*
X79053845Y-118949500D01*
X79053842Y-118949500D01*
X78896158Y-118949500D01*
X78896155Y-118949500D01*
X78741510Y-118980261D01*
X78741498Y-118980264D01*
X78595827Y-119040602D01*
X78595814Y-119040609D01*
X78464711Y-119128210D01*
X78464707Y-119128213D01*
X78353213Y-119239707D01*
X78353210Y-119239711D01*
X78265609Y-119370814D01*
X78265602Y-119370827D01*
X78205264Y-119516498D01*
X78205261Y-119516510D01*
X78174500Y-119671153D01*
X78174500Y-119828846D01*
X78205261Y-119983489D01*
X78205264Y-119983501D01*
X78265602Y-120129172D01*
X78265609Y-120129185D01*
X78353210Y-120260288D01*
X78353213Y-120260292D01*
X78464707Y-120371786D01*
X78464711Y-120371789D01*
X78595814Y-120459390D01*
X78595827Y-120459397D01*
X78719054Y-120510439D01*
X78773458Y-120554280D01*
X78795523Y-120620574D01*
X78778244Y-120688273D01*
X78727107Y-120735884D01*
X78719054Y-120739561D01*
X78595827Y-120790602D01*
X78595814Y-120790609D01*
X78464711Y-120878210D01*
X78464707Y-120878213D01*
X78353213Y-120989707D01*
X78353210Y-120989711D01*
X78265609Y-121120814D01*
X78265602Y-121120827D01*
X78205264Y-121266498D01*
X78205261Y-121266510D01*
X78174500Y-121421153D01*
X78174500Y-121578846D01*
X78205261Y-121733489D01*
X78205264Y-121733501D01*
X78265602Y-121879172D01*
X78265609Y-121879185D01*
X78353210Y-122010288D01*
X78353213Y-122010292D01*
X78464707Y-122121786D01*
X78464711Y-122121789D01*
X78511642Y-122153148D01*
X78556447Y-122206761D01*
X78565154Y-122276086D01*
X78534999Y-122339113D01*
X78511642Y-122359352D01*
X78464711Y-122390710D01*
X78464707Y-122390713D01*
X78353213Y-122502207D01*
X78353210Y-122502211D01*
X78265609Y-122633314D01*
X78265601Y-122633329D01*
X78251023Y-122668524D01*
X78207182Y-122722927D01*
X78140887Y-122744991D01*
X78127614Y-122744754D01*
X78124069Y-122744500D01*
X78124067Y-122744500D01*
X77325933Y-122744500D01*
X77325922Y-122744500D01*
X77316891Y-122744580D01*
X77315561Y-122744604D01*
X77248182Y-122726118D01*
X77201493Y-122674138D01*
X77198789Y-122668075D01*
X77184394Y-122633321D01*
X77184390Y-122633314D01*
X77096789Y-122502211D01*
X77096786Y-122502207D01*
X76985292Y-122390713D01*
X76985284Y-122390707D01*
X76938358Y-122359352D01*
X76893552Y-122305740D01*
X76884845Y-122236415D01*
X76914999Y-122173388D01*
X76938358Y-122153148D01*
X76969506Y-122132334D01*
X76985289Y-122121789D01*
X77096789Y-122010289D01*
X77184394Y-121879179D01*
X77244737Y-121733497D01*
X77275500Y-121578842D01*
X77275500Y-121421158D01*
X77275500Y-121421155D01*
X77275499Y-121421153D01*
X77244738Y-121266510D01*
X77244737Y-121266503D01*
X77244735Y-121266498D01*
X77184397Y-121120827D01*
X77184390Y-121120814D01*
X77096789Y-120989711D01*
X77096786Y-120989707D01*
X76985292Y-120878213D01*
X76985288Y-120878210D01*
X76854185Y-120790609D01*
X76854172Y-120790602D01*
X76730945Y-120739561D01*
X76676541Y-120695721D01*
X76654476Y-120629427D01*
X76671755Y-120561727D01*
X76722892Y-120514116D01*
X76730945Y-120510439D01*
X76854172Y-120459397D01*
X76854172Y-120459396D01*
X76854179Y-120459394D01*
X76985289Y-120371789D01*
X77096789Y-120260289D01*
X77184394Y-120129179D01*
X77244737Y-119983497D01*
X77275500Y-119828842D01*
X77275500Y-119671158D01*
X77275500Y-119671155D01*
X77275499Y-119671153D01*
X77244737Y-119516503D01*
X77244735Y-119516498D01*
X77184397Y-119370827D01*
X77184390Y-119370814D01*
X77096789Y-119239711D01*
X77096786Y-119239707D01*
X76985292Y-119128213D01*
X76985288Y-119128210D01*
X76854185Y-119040609D01*
X76854172Y-119040602D01*
X76708501Y-118980264D01*
X76708489Y-118980261D01*
X76553845Y-118949500D01*
X76553842Y-118949500D01*
X76396158Y-118949500D01*
X76396155Y-118949500D01*
X76241510Y-118980261D01*
X76241498Y-118980264D01*
X76095827Y-119040602D01*
X76095814Y-119040609D01*
X75964711Y-119128210D01*
X75964707Y-119128213D01*
X75853213Y-119239707D01*
X75853210Y-119239711D01*
X75765609Y-119370814D01*
X75765602Y-119370827D01*
X75705264Y-119516498D01*
X75705261Y-119516510D01*
X75674500Y-119671153D01*
X75674500Y-119828846D01*
X75705261Y-119983489D01*
X75705264Y-119983501D01*
X75765602Y-120129172D01*
X75765609Y-120129185D01*
X75853210Y-120260288D01*
X75853213Y-120260292D01*
X75964707Y-120371786D01*
X75964711Y-120371789D01*
X76095814Y-120459390D01*
X76095827Y-120459397D01*
X76219054Y-120510439D01*
X76273458Y-120554280D01*
X76295523Y-120620574D01*
X76278244Y-120688273D01*
X76227107Y-120735884D01*
X76219054Y-120739561D01*
X76095827Y-120790602D01*
X76095814Y-120790609D01*
X75964711Y-120878210D01*
X75964707Y-120878213D01*
X75853213Y-120989707D01*
X75853210Y-120989711D01*
X75765609Y-121120814D01*
X75765602Y-121120827D01*
X75705264Y-121266498D01*
X75705261Y-121266510D01*
X75674500Y-121421153D01*
X75674500Y-121578846D01*
X75705261Y-121733489D01*
X75705264Y-121733501D01*
X75765602Y-121879172D01*
X75765609Y-121879185D01*
X75853210Y-122010288D01*
X75853213Y-122010292D01*
X75964707Y-122121786D01*
X75964711Y-122121789D01*
X76011642Y-122153148D01*
X76056447Y-122206761D01*
X76065154Y-122276086D01*
X76034999Y-122339113D01*
X76011642Y-122359352D01*
X75964711Y-122390710D01*
X75964707Y-122390713D01*
X75853213Y-122502207D01*
X75853210Y-122502211D01*
X75765609Y-122633314D01*
X75765601Y-122633329D01*
X75751023Y-122668524D01*
X75707182Y-122722927D01*
X75640887Y-122744991D01*
X75627614Y-122744754D01*
X75624069Y-122744500D01*
X75624067Y-122744500D01*
X74825933Y-122744500D01*
X74825922Y-122744500D01*
X74816891Y-122744580D01*
X74815561Y-122744604D01*
X74748182Y-122726118D01*
X74701493Y-122674138D01*
X74698789Y-122668075D01*
X74684394Y-122633321D01*
X74684390Y-122633314D01*
X74596789Y-122502211D01*
X74596786Y-122502207D01*
X74485292Y-122390713D01*
X74485284Y-122390707D01*
X74438358Y-122359352D01*
X74393552Y-122305740D01*
X74384845Y-122236415D01*
X74414999Y-122173388D01*
X74438358Y-122153148D01*
X74469506Y-122132334D01*
X74485289Y-122121789D01*
X74596789Y-122010289D01*
X74684394Y-121879179D01*
X74744737Y-121733497D01*
X74775500Y-121578842D01*
X74775500Y-121421158D01*
X74775500Y-121421155D01*
X74775499Y-121421153D01*
X74744738Y-121266510D01*
X74744737Y-121266503D01*
X74744735Y-121266498D01*
X74684397Y-121120827D01*
X74684390Y-121120814D01*
X74596789Y-120989711D01*
X74596786Y-120989707D01*
X74485292Y-120878213D01*
X74485288Y-120878210D01*
X74354185Y-120790609D01*
X74354172Y-120790602D01*
X74230945Y-120739561D01*
X74176541Y-120695721D01*
X74154476Y-120629427D01*
X74171755Y-120561727D01*
X74222892Y-120514116D01*
X74230945Y-120510439D01*
X74354172Y-120459397D01*
X74354172Y-120459396D01*
X74354179Y-120459394D01*
X74485289Y-120371789D01*
X74596789Y-120260289D01*
X74684394Y-120129179D01*
X74744737Y-119983497D01*
X74775500Y-119828842D01*
X74775500Y-119671158D01*
X74775500Y-119671155D01*
X74775499Y-119671153D01*
X74744737Y-119516503D01*
X74744735Y-119516498D01*
X74684397Y-119370827D01*
X74684390Y-119370814D01*
X74596789Y-119239711D01*
X74596786Y-119239707D01*
X74485292Y-119128213D01*
X74485288Y-119128210D01*
X74354185Y-119040609D01*
X74354172Y-119040602D01*
X74208501Y-118980264D01*
X74208489Y-118980261D01*
X74053845Y-118949500D01*
X74053842Y-118949500D01*
X73896158Y-118949500D01*
X73896155Y-118949500D01*
X73741510Y-118980261D01*
X73741498Y-118980264D01*
X73595827Y-119040602D01*
X73595814Y-119040609D01*
X73464711Y-119128210D01*
X73464707Y-119128213D01*
X73353213Y-119239707D01*
X73353210Y-119239711D01*
X73265609Y-119370814D01*
X73265602Y-119370827D01*
X73205264Y-119516498D01*
X73205261Y-119516510D01*
X73174500Y-119671153D01*
X73174500Y-119828846D01*
X73205261Y-119983489D01*
X73205264Y-119983501D01*
X73265602Y-120129172D01*
X73265609Y-120129185D01*
X73353210Y-120260288D01*
X73353213Y-120260292D01*
X73464707Y-120371786D01*
X73464711Y-120371789D01*
X73595814Y-120459390D01*
X73595827Y-120459397D01*
X73719054Y-120510439D01*
X73773458Y-120554280D01*
X73795523Y-120620574D01*
X73778244Y-120688273D01*
X73727107Y-120735884D01*
X73719054Y-120739561D01*
X73595827Y-120790602D01*
X73595814Y-120790609D01*
X73464711Y-120878210D01*
X73464707Y-120878213D01*
X73353213Y-120989707D01*
X73353210Y-120989711D01*
X73265609Y-121120814D01*
X73265602Y-121120827D01*
X73205264Y-121266498D01*
X73205261Y-121266510D01*
X73174500Y-121421153D01*
X73174500Y-121578846D01*
X73205261Y-121733489D01*
X73205264Y-121733501D01*
X73265602Y-121879172D01*
X73265609Y-121879185D01*
X73353210Y-122010288D01*
X73353213Y-122010292D01*
X73464707Y-122121786D01*
X73464711Y-122121789D01*
X73511642Y-122153148D01*
X73556447Y-122206761D01*
X73565154Y-122276086D01*
X73534999Y-122339113D01*
X73511642Y-122359352D01*
X73464711Y-122390710D01*
X73464707Y-122390713D01*
X73353213Y-122502207D01*
X73353210Y-122502211D01*
X73265609Y-122633314D01*
X73265601Y-122633329D01*
X73251023Y-122668524D01*
X73207182Y-122722927D01*
X73140887Y-122744991D01*
X73127614Y-122744754D01*
X73124069Y-122744500D01*
X73124067Y-122744500D01*
X72999500Y-122744500D01*
X72932461Y-122724815D01*
X72886706Y-122672011D01*
X72875500Y-122620500D01*
X72875500Y-116021153D01*
X73174500Y-116021153D01*
X73174500Y-116178846D01*
X73205261Y-116333489D01*
X73205264Y-116333501D01*
X73265602Y-116479172D01*
X73265609Y-116479185D01*
X73353210Y-116610288D01*
X73353213Y-116610292D01*
X73464707Y-116721786D01*
X73464711Y-116721789D01*
X73595814Y-116809390D01*
X73595827Y-116809397D01*
X73719054Y-116860439D01*
X73773458Y-116904280D01*
X73795523Y-116970574D01*
X73778244Y-117038273D01*
X73727107Y-117085884D01*
X73719054Y-117089561D01*
X73595827Y-117140602D01*
X73595814Y-117140609D01*
X73464711Y-117228210D01*
X73464707Y-117228213D01*
X73353213Y-117339707D01*
X73353210Y-117339711D01*
X73265609Y-117470814D01*
X73265602Y-117470827D01*
X73205264Y-117616498D01*
X73205261Y-117616510D01*
X73174500Y-117771153D01*
X73174500Y-117928846D01*
X73205261Y-118083489D01*
X73205264Y-118083501D01*
X73265602Y-118229172D01*
X73265609Y-118229185D01*
X73353210Y-118360288D01*
X73353213Y-118360292D01*
X73464707Y-118471786D01*
X73464711Y-118471789D01*
X73595814Y-118559390D01*
X73595827Y-118559397D01*
X73734673Y-118616908D01*
X73741503Y-118619737D01*
X73896153Y-118650499D01*
X73896156Y-118650500D01*
X73896158Y-118650500D01*
X74053844Y-118650500D01*
X74053845Y-118650499D01*
X74208497Y-118619737D01*
X74354179Y-118559394D01*
X74485289Y-118471789D01*
X74596789Y-118360289D01*
X74684394Y-118229179D01*
X74744737Y-118083497D01*
X74775500Y-117928842D01*
X74775500Y-117771158D01*
X74775500Y-117771155D01*
X74775499Y-117771153D01*
X74744738Y-117616510D01*
X74744737Y-117616503D01*
X74733959Y-117590483D01*
X74684397Y-117470827D01*
X74684390Y-117470814D01*
X74596789Y-117339711D01*
X74596786Y-117339707D01*
X74485292Y-117228213D01*
X74485288Y-117228210D01*
X74354185Y-117140609D01*
X74354172Y-117140602D01*
X74230945Y-117089561D01*
X74176541Y-117045721D01*
X74154476Y-116979427D01*
X74171755Y-116911727D01*
X74222892Y-116864116D01*
X74230945Y-116860439D01*
X74354172Y-116809397D01*
X74354172Y-116809396D01*
X74354179Y-116809394D01*
X74485289Y-116721789D01*
X74596789Y-116610289D01*
X74684394Y-116479179D01*
X74744737Y-116333497D01*
X74775500Y-116178842D01*
X74775500Y-116021158D01*
X74775500Y-116021155D01*
X74775499Y-116021153D01*
X75674500Y-116021153D01*
X75674500Y-116178846D01*
X75705261Y-116333489D01*
X75705264Y-116333501D01*
X75765602Y-116479172D01*
X75765609Y-116479185D01*
X75853210Y-116610288D01*
X75853213Y-116610292D01*
X75964707Y-116721786D01*
X75964711Y-116721789D01*
X76095814Y-116809390D01*
X76095827Y-116809397D01*
X76219054Y-116860439D01*
X76273458Y-116904280D01*
X76295523Y-116970574D01*
X76278244Y-117038273D01*
X76227107Y-117085884D01*
X76219054Y-117089561D01*
X76095827Y-117140602D01*
X76095814Y-117140609D01*
X75964711Y-117228210D01*
X75964707Y-117228213D01*
X75853213Y-117339707D01*
X75853210Y-117339711D01*
X75765609Y-117470814D01*
X75765602Y-117470827D01*
X75705264Y-117616498D01*
X75705261Y-117616510D01*
X75674500Y-117771153D01*
X75674500Y-117928846D01*
X75705261Y-118083489D01*
X75705264Y-118083501D01*
X75765602Y-118229172D01*
X75765609Y-118229185D01*
X75853210Y-118360288D01*
X75853213Y-118360292D01*
X75964707Y-118471786D01*
X75964711Y-118471789D01*
X76095814Y-118559390D01*
X76095827Y-118559397D01*
X76234673Y-118616908D01*
X76241503Y-118619737D01*
X76396153Y-118650499D01*
X76396156Y-118650500D01*
X76396158Y-118650500D01*
X76553844Y-118650500D01*
X76553845Y-118650499D01*
X76708497Y-118619737D01*
X76854179Y-118559394D01*
X76985289Y-118471789D01*
X77096789Y-118360289D01*
X77184394Y-118229179D01*
X77244737Y-118083497D01*
X77275500Y-117928842D01*
X77275500Y-117771158D01*
X77275500Y-117771155D01*
X77275499Y-117771153D01*
X77244738Y-117616510D01*
X77244737Y-117616503D01*
X77233959Y-117590483D01*
X77184397Y-117470827D01*
X77184390Y-117470814D01*
X77096789Y-117339711D01*
X77096786Y-117339707D01*
X76985292Y-117228213D01*
X76985288Y-117228210D01*
X76854185Y-117140609D01*
X76854172Y-117140602D01*
X76730945Y-117089561D01*
X76676541Y-117045721D01*
X76654476Y-116979427D01*
X76671755Y-116911727D01*
X76722892Y-116864116D01*
X76730945Y-116860439D01*
X76854172Y-116809397D01*
X76854172Y-116809396D01*
X76854179Y-116809394D01*
X76985289Y-116721789D01*
X77096789Y-116610289D01*
X77184394Y-116479179D01*
X77244737Y-116333497D01*
X77275500Y-116178842D01*
X77275500Y-116021158D01*
X77275500Y-116021155D01*
X77275499Y-116021153D01*
X78174500Y-116021153D01*
X78174500Y-116178846D01*
X78205261Y-116333489D01*
X78205264Y-116333501D01*
X78265602Y-116479172D01*
X78265609Y-116479185D01*
X78353210Y-116610288D01*
X78353213Y-116610292D01*
X78464707Y-116721786D01*
X78464711Y-116721789D01*
X78595814Y-116809390D01*
X78595827Y-116809397D01*
X78719054Y-116860439D01*
X78773458Y-116904280D01*
X78795523Y-116970574D01*
X78778244Y-117038273D01*
X78727107Y-117085884D01*
X78719054Y-117089561D01*
X78595827Y-117140602D01*
X78595814Y-117140609D01*
X78464711Y-117228210D01*
X78464707Y-117228213D01*
X78353213Y-117339707D01*
X78353210Y-117339711D01*
X78265609Y-117470814D01*
X78265602Y-117470827D01*
X78205264Y-117616498D01*
X78205261Y-117616510D01*
X78174500Y-117771153D01*
X78174500Y-117928846D01*
X78205261Y-118083489D01*
X78205264Y-118083501D01*
X78265602Y-118229172D01*
X78265609Y-118229185D01*
X78353210Y-118360288D01*
X78353213Y-118360292D01*
X78464707Y-118471786D01*
X78464711Y-118471789D01*
X78595814Y-118559390D01*
X78595827Y-118559397D01*
X78734673Y-118616908D01*
X78741503Y-118619737D01*
X78896153Y-118650499D01*
X78896156Y-118650500D01*
X78896158Y-118650500D01*
X79053844Y-118650500D01*
X79053845Y-118650499D01*
X79208497Y-118619737D01*
X79354179Y-118559394D01*
X79485289Y-118471789D01*
X79596789Y-118360289D01*
X79684394Y-118229179D01*
X79744737Y-118083497D01*
X79775500Y-117928842D01*
X79775500Y-117771158D01*
X79775500Y-117771155D01*
X79775499Y-117771153D01*
X79744738Y-117616510D01*
X79744737Y-117616503D01*
X79733959Y-117590483D01*
X79684397Y-117470827D01*
X79684390Y-117470814D01*
X79596789Y-117339711D01*
X79596786Y-117339707D01*
X79485292Y-117228213D01*
X79485288Y-117228210D01*
X79354185Y-117140609D01*
X79354172Y-117140602D01*
X79230945Y-117089561D01*
X79176541Y-117045721D01*
X79154476Y-116979427D01*
X79171755Y-116911727D01*
X79222892Y-116864116D01*
X79230945Y-116860439D01*
X79354172Y-116809397D01*
X79354172Y-116809396D01*
X79354179Y-116809394D01*
X79485289Y-116721789D01*
X79596789Y-116610289D01*
X79684394Y-116479179D01*
X79744737Y-116333497D01*
X79775500Y-116178842D01*
X79775500Y-116021158D01*
X79775500Y-116021155D01*
X79775499Y-116021153D01*
X80674500Y-116021153D01*
X80674500Y-116178846D01*
X80705261Y-116333489D01*
X80705264Y-116333501D01*
X80765602Y-116479172D01*
X80765609Y-116479185D01*
X80853210Y-116610288D01*
X80853213Y-116610292D01*
X80964707Y-116721786D01*
X80964711Y-116721789D01*
X81095814Y-116809390D01*
X81095827Y-116809397D01*
X81219054Y-116860439D01*
X81273458Y-116904280D01*
X81295523Y-116970574D01*
X81278244Y-117038273D01*
X81227107Y-117085884D01*
X81219054Y-117089561D01*
X81095827Y-117140602D01*
X81095814Y-117140609D01*
X80964711Y-117228210D01*
X80964707Y-117228213D01*
X80853213Y-117339707D01*
X80853210Y-117339711D01*
X80765609Y-117470814D01*
X80765602Y-117470827D01*
X80705264Y-117616498D01*
X80705261Y-117616510D01*
X80674500Y-117771153D01*
X80674500Y-117928846D01*
X80705261Y-118083489D01*
X80705264Y-118083501D01*
X80765602Y-118229172D01*
X80765609Y-118229185D01*
X80853210Y-118360288D01*
X80853213Y-118360292D01*
X80964707Y-118471786D01*
X80964711Y-118471789D01*
X81095814Y-118559390D01*
X81095827Y-118559397D01*
X81234673Y-118616908D01*
X81241503Y-118619737D01*
X81396153Y-118650499D01*
X81396156Y-118650500D01*
X81396158Y-118650500D01*
X81553844Y-118650500D01*
X81553845Y-118650499D01*
X81708497Y-118619737D01*
X81715341Y-118616902D01*
X109269500Y-118616902D01*
X109269500Y-118853097D01*
X109306446Y-119086368D01*
X109379433Y-119310996D01*
X109409916Y-119370821D01*
X109486657Y-119521433D01*
X109625483Y-119712510D01*
X109792490Y-119879517D01*
X109983567Y-120018343D01*
X110082991Y-120069002D01*
X110194003Y-120125566D01*
X110194005Y-120125566D01*
X110194008Y-120125568D01*
X110314412Y-120164689D01*
X110418631Y-120198553D01*
X110651903Y-120235500D01*
X110651908Y-120235500D01*
X110888097Y-120235500D01*
X111121368Y-120198553D01*
X111345992Y-120125568D01*
X111556433Y-120018343D01*
X111747510Y-119879517D01*
X111914517Y-119712510D01*
X112053343Y-119521433D01*
X112160568Y-119310992D01*
X112233553Y-119086368D01*
X112270500Y-118853097D01*
X112270500Y-118616902D01*
X112233553Y-118383631D01*
X112160566Y-118159003D01*
X112053342Y-117948566D01*
X111914517Y-117757490D01*
X111747510Y-117590483D01*
X111556433Y-117451657D01*
X111345996Y-117344433D01*
X111121368Y-117271446D01*
X110888097Y-117234500D01*
X110888092Y-117234500D01*
X110651908Y-117234500D01*
X110651903Y-117234500D01*
X110418631Y-117271446D01*
X110194003Y-117344433D01*
X109983566Y-117451657D01*
X109874550Y-117530862D01*
X109792490Y-117590483D01*
X109792488Y-117590485D01*
X109792487Y-117590485D01*
X109625485Y-117757487D01*
X109625485Y-117757488D01*
X109625483Y-117757490D01*
X109615555Y-117771155D01*
X109486657Y-117948566D01*
X109379433Y-118159003D01*
X109306446Y-118383631D01*
X109269500Y-118616902D01*
X81715341Y-118616902D01*
X81854179Y-118559394D01*
X81985289Y-118471789D01*
X82096789Y-118360289D01*
X82184394Y-118229179D01*
X82244737Y-118083497D01*
X82275500Y-117928842D01*
X82275500Y-117771158D01*
X82275500Y-117771155D01*
X82275499Y-117771153D01*
X82244738Y-117616510D01*
X82244737Y-117616503D01*
X82233959Y-117590483D01*
X82184397Y-117470827D01*
X82184390Y-117470814D01*
X82096789Y-117339711D01*
X82096786Y-117339707D01*
X81985292Y-117228213D01*
X81985288Y-117228210D01*
X81854185Y-117140609D01*
X81854172Y-117140602D01*
X81730945Y-117089561D01*
X81676541Y-117045721D01*
X81654476Y-116979427D01*
X81671755Y-116911727D01*
X81722892Y-116864116D01*
X81730945Y-116860439D01*
X81854172Y-116809397D01*
X81854172Y-116809396D01*
X81854179Y-116809394D01*
X81985289Y-116721789D01*
X82096789Y-116610289D01*
X82184394Y-116479179D01*
X82244737Y-116333497D01*
X82275500Y-116178842D01*
X82275500Y-116021158D01*
X82275500Y-116021155D01*
X82275499Y-116021153D01*
X82244738Y-115866510D01*
X82244737Y-115866503D01*
X82244735Y-115866498D01*
X82184397Y-115720827D01*
X82184390Y-115720814D01*
X82096789Y-115589711D01*
X82096786Y-115589707D01*
X81985292Y-115478213D01*
X81985288Y-115478210D01*
X81854185Y-115390609D01*
X81854172Y-115390602D01*
X81708501Y-115330264D01*
X81708489Y-115330261D01*
X81553845Y-115299500D01*
X81553842Y-115299500D01*
X81396158Y-115299500D01*
X81396155Y-115299500D01*
X81241510Y-115330261D01*
X81241498Y-115330264D01*
X81095827Y-115390602D01*
X81095814Y-115390609D01*
X80964711Y-115478210D01*
X80964707Y-115478213D01*
X80853213Y-115589707D01*
X80853210Y-115589711D01*
X80765609Y-115720814D01*
X80765602Y-115720827D01*
X80705264Y-115866498D01*
X80705261Y-115866510D01*
X80674500Y-116021153D01*
X79775499Y-116021153D01*
X79744738Y-115866510D01*
X79744737Y-115866503D01*
X79744735Y-115866498D01*
X79684397Y-115720827D01*
X79684390Y-115720814D01*
X79596789Y-115589711D01*
X79596786Y-115589707D01*
X79485292Y-115478213D01*
X79485288Y-115478210D01*
X79354185Y-115390609D01*
X79354172Y-115390602D01*
X79208501Y-115330264D01*
X79208489Y-115330261D01*
X79053845Y-115299500D01*
X79053842Y-115299500D01*
X78896158Y-115299500D01*
X78896155Y-115299500D01*
X78741510Y-115330261D01*
X78741498Y-115330264D01*
X78595827Y-115390602D01*
X78595814Y-115390609D01*
X78464711Y-115478210D01*
X78464707Y-115478213D01*
X78353213Y-115589707D01*
X78353210Y-115589711D01*
X78265609Y-115720814D01*
X78265602Y-115720827D01*
X78205264Y-115866498D01*
X78205261Y-115866510D01*
X78174500Y-116021153D01*
X77275499Y-116021153D01*
X77244738Y-115866510D01*
X77244737Y-115866503D01*
X77244735Y-115866498D01*
X77184397Y-115720827D01*
X77184390Y-115720814D01*
X77096789Y-115589711D01*
X77096786Y-115589707D01*
X76985292Y-115478213D01*
X76985288Y-115478210D01*
X76854185Y-115390609D01*
X76854172Y-115390602D01*
X76708501Y-115330264D01*
X76708489Y-115330261D01*
X76553845Y-115299500D01*
X76553842Y-115299500D01*
X76396158Y-115299500D01*
X76396155Y-115299500D01*
X76241510Y-115330261D01*
X76241498Y-115330264D01*
X76095827Y-115390602D01*
X76095814Y-115390609D01*
X75964711Y-115478210D01*
X75964707Y-115478213D01*
X75853213Y-115589707D01*
X75853210Y-115589711D01*
X75765609Y-115720814D01*
X75765602Y-115720827D01*
X75705264Y-115866498D01*
X75705261Y-115866510D01*
X75674500Y-116021153D01*
X74775499Y-116021153D01*
X74744738Y-115866510D01*
X74744737Y-115866503D01*
X74744735Y-115866498D01*
X74684397Y-115720827D01*
X74684390Y-115720814D01*
X74596789Y-115589711D01*
X74596786Y-115589707D01*
X74485292Y-115478213D01*
X74485288Y-115478210D01*
X74354185Y-115390609D01*
X74354172Y-115390602D01*
X74208501Y-115330264D01*
X74208489Y-115330261D01*
X74053845Y-115299500D01*
X74053842Y-115299500D01*
X73896158Y-115299500D01*
X73896155Y-115299500D01*
X73741510Y-115330261D01*
X73741498Y-115330264D01*
X73595827Y-115390602D01*
X73595814Y-115390609D01*
X73464711Y-115478210D01*
X73464707Y-115478213D01*
X73353213Y-115589707D01*
X73353210Y-115589711D01*
X73265609Y-115720814D01*
X73265602Y-115720827D01*
X73205264Y-115866498D01*
X73205261Y-115866510D01*
X73174500Y-116021153D01*
X72875500Y-116021153D01*
X72875500Y-114171153D01*
X73174500Y-114171153D01*
X73174500Y-114328846D01*
X73205261Y-114483489D01*
X73205264Y-114483501D01*
X73265602Y-114629172D01*
X73265609Y-114629185D01*
X73353210Y-114760288D01*
X73353213Y-114760292D01*
X73464707Y-114871786D01*
X73464711Y-114871789D01*
X73595814Y-114959390D01*
X73595827Y-114959397D01*
X73695060Y-115000500D01*
X73741503Y-115019737D01*
X73896153Y-115050499D01*
X73896156Y-115050500D01*
X73896158Y-115050500D01*
X74053844Y-115050500D01*
X74053845Y-115050499D01*
X74208497Y-115019737D01*
X74347762Y-114962052D01*
X74354172Y-114959397D01*
X74354172Y-114959396D01*
X74354179Y-114959394D01*
X74485289Y-114871789D01*
X74596789Y-114760289D01*
X74684394Y-114629179D01*
X74744737Y-114483497D01*
X74775500Y-114328842D01*
X74775500Y-114171158D01*
X74775500Y-114171155D01*
X74775499Y-114171153D01*
X75674500Y-114171153D01*
X75674500Y-114328846D01*
X75705261Y-114483489D01*
X75705264Y-114483501D01*
X75765602Y-114629172D01*
X75765609Y-114629185D01*
X75853210Y-114760288D01*
X75853213Y-114760292D01*
X75964707Y-114871786D01*
X75964711Y-114871789D01*
X76095814Y-114959390D01*
X76095827Y-114959397D01*
X76195060Y-115000500D01*
X76241503Y-115019737D01*
X76396153Y-115050499D01*
X76396156Y-115050500D01*
X76396158Y-115050500D01*
X76553844Y-115050500D01*
X76553845Y-115050499D01*
X76708497Y-115019737D01*
X76847762Y-114962052D01*
X76854172Y-114959397D01*
X76854172Y-114959396D01*
X76854179Y-114959394D01*
X76985289Y-114871789D01*
X77096789Y-114760289D01*
X77184394Y-114629179D01*
X77244737Y-114483497D01*
X77275500Y-114328842D01*
X77275500Y-114171158D01*
X77275500Y-114171155D01*
X77275499Y-114171153D01*
X78174500Y-114171153D01*
X78174500Y-114328846D01*
X78205261Y-114483489D01*
X78205264Y-114483501D01*
X78265602Y-114629172D01*
X78265609Y-114629185D01*
X78353210Y-114760288D01*
X78353213Y-114760292D01*
X78464707Y-114871786D01*
X78464711Y-114871789D01*
X78595814Y-114959390D01*
X78595827Y-114959397D01*
X78695060Y-115000500D01*
X78741503Y-115019737D01*
X78896153Y-115050499D01*
X78896156Y-115050500D01*
X78896158Y-115050500D01*
X79053844Y-115050500D01*
X79053845Y-115050499D01*
X79208497Y-115019737D01*
X79347762Y-114962052D01*
X79354172Y-114959397D01*
X79354172Y-114959396D01*
X79354179Y-114959394D01*
X79485289Y-114871789D01*
X79596789Y-114760289D01*
X79684394Y-114629179D01*
X79744737Y-114483497D01*
X79775500Y-114328842D01*
X79775500Y-114171158D01*
X79775500Y-114171155D01*
X79775499Y-114171153D01*
X80674500Y-114171153D01*
X80674500Y-114328846D01*
X80705261Y-114483489D01*
X80705264Y-114483501D01*
X80765602Y-114629172D01*
X80765609Y-114629185D01*
X80853210Y-114760288D01*
X80853213Y-114760292D01*
X80964707Y-114871786D01*
X80964711Y-114871789D01*
X81095814Y-114959390D01*
X81095827Y-114959397D01*
X81195060Y-115000500D01*
X81241503Y-115019737D01*
X81396153Y-115050499D01*
X81396156Y-115050500D01*
X81396158Y-115050500D01*
X81553844Y-115050500D01*
X81553845Y-115050499D01*
X81708497Y-115019737D01*
X81847762Y-114962052D01*
X81854172Y-114959397D01*
X81854172Y-114959396D01*
X81854179Y-114959394D01*
X81985289Y-114871789D01*
X82096789Y-114760289D01*
X82184394Y-114629179D01*
X82244737Y-114483497D01*
X82275500Y-114328842D01*
X82275500Y-114171158D01*
X82275500Y-114171155D01*
X82275499Y-114171153D01*
X82261056Y-114098543D01*
X84249499Y-114098543D01*
X84287947Y-114291829D01*
X84287950Y-114291839D01*
X84363364Y-114473907D01*
X84363371Y-114473920D01*
X84472860Y-114637781D01*
X84472863Y-114637785D01*
X84612214Y-114777136D01*
X84612218Y-114777139D01*
X84776079Y-114886628D01*
X84776092Y-114886635D01*
X84958160Y-114962049D01*
X84958165Y-114962051D01*
X84958169Y-114962051D01*
X84958170Y-114962052D01*
X85151456Y-115000500D01*
X85151459Y-115000500D01*
X85348543Y-115000500D01*
X85478582Y-114974632D01*
X85541835Y-114962051D01*
X85723914Y-114886632D01*
X85887782Y-114777139D01*
X86027139Y-114637782D01*
X86136632Y-114473914D01*
X86212051Y-114291835D01*
X86224632Y-114228582D01*
X86250500Y-114098543D01*
X87499499Y-114098543D01*
X87537947Y-114291829D01*
X87537950Y-114291839D01*
X87613364Y-114473907D01*
X87613371Y-114473920D01*
X87722860Y-114637781D01*
X87722863Y-114637785D01*
X87862214Y-114777136D01*
X87862218Y-114777139D01*
X88026079Y-114886628D01*
X88026092Y-114886635D01*
X88208160Y-114962049D01*
X88208165Y-114962051D01*
X88208169Y-114962051D01*
X88208170Y-114962052D01*
X88401456Y-115000500D01*
X88401459Y-115000500D01*
X88598543Y-115000500D01*
X88728582Y-114974632D01*
X88791835Y-114962051D01*
X88973914Y-114886632D01*
X89137782Y-114777139D01*
X89277139Y-114637782D01*
X89386632Y-114473914D01*
X89462051Y-114291835D01*
X89474632Y-114228582D01*
X89500500Y-114098543D01*
X89500500Y-113901456D01*
X89462052Y-113708170D01*
X89462051Y-113708169D01*
X89462051Y-113708165D01*
X89392648Y-113540609D01*
X89386635Y-113526092D01*
X89386628Y-113526079D01*
X89277139Y-113362218D01*
X89277136Y-113362214D01*
X89137785Y-113222863D01*
X89137781Y-113222860D01*
X88973920Y-113113371D01*
X88973907Y-113113364D01*
X88791839Y-113037950D01*
X88791829Y-113037947D01*
X88598543Y-112999500D01*
X88598541Y-112999500D01*
X88401459Y-112999500D01*
X88401457Y-112999500D01*
X88208170Y-113037947D01*
X88208160Y-113037950D01*
X88026092Y-113113364D01*
X88026079Y-113113371D01*
X87862218Y-113222860D01*
X87862214Y-113222863D01*
X87722863Y-113362214D01*
X87722860Y-113362218D01*
X87613371Y-113526079D01*
X87613364Y-113526092D01*
X87537950Y-113708160D01*
X87537947Y-113708170D01*
X87499500Y-113901456D01*
X87499500Y-113901459D01*
X87499500Y-114098541D01*
X87499500Y-114098543D01*
X87499499Y-114098543D01*
X86250500Y-114098543D01*
X86250500Y-113901456D01*
X86212052Y-113708170D01*
X86212051Y-113708169D01*
X86212051Y-113708165D01*
X86142648Y-113540609D01*
X86136635Y-113526092D01*
X86136628Y-113526079D01*
X86027139Y-113362218D01*
X86027136Y-113362214D01*
X85887785Y-113222863D01*
X85887781Y-113222860D01*
X85723920Y-113113371D01*
X85723907Y-113113364D01*
X85541839Y-113037950D01*
X85541829Y-113037947D01*
X85348543Y-112999500D01*
X85348541Y-112999500D01*
X85151459Y-112999500D01*
X85151457Y-112999500D01*
X84958170Y-113037947D01*
X84958160Y-113037950D01*
X84776092Y-113113364D01*
X84776079Y-113113371D01*
X84612218Y-113222860D01*
X84612214Y-113222863D01*
X84472863Y-113362214D01*
X84472860Y-113362218D01*
X84363371Y-113526079D01*
X84363364Y-113526092D01*
X84287950Y-113708160D01*
X84287947Y-113708170D01*
X84249500Y-113901456D01*
X84249500Y-113901459D01*
X84249500Y-114098541D01*
X84249500Y-114098543D01*
X84249499Y-114098543D01*
X82261056Y-114098543D01*
X82244738Y-114016510D01*
X82244737Y-114016503D01*
X82244735Y-114016498D01*
X82214217Y-113942819D01*
X82184395Y-113870823D01*
X82184390Y-113870814D01*
X82096789Y-113739711D01*
X82096786Y-113739707D01*
X81985292Y-113628213D01*
X81985288Y-113628210D01*
X81854185Y-113540609D01*
X81854172Y-113540602D01*
X81708501Y-113480264D01*
X81708489Y-113480261D01*
X81553845Y-113449500D01*
X81553842Y-113449500D01*
X81396158Y-113449500D01*
X81396155Y-113449500D01*
X81241510Y-113480261D01*
X81241498Y-113480264D01*
X81095827Y-113540602D01*
X81095814Y-113540609D01*
X80964711Y-113628210D01*
X80964707Y-113628213D01*
X80853213Y-113739707D01*
X80853210Y-113739711D01*
X80765609Y-113870814D01*
X80765602Y-113870827D01*
X80705264Y-114016498D01*
X80705261Y-114016510D01*
X80674500Y-114171153D01*
X79775499Y-114171153D01*
X79744738Y-114016510D01*
X79744737Y-114016503D01*
X79744735Y-114016498D01*
X79684397Y-113870827D01*
X79684390Y-113870814D01*
X79596789Y-113739711D01*
X79596786Y-113739707D01*
X79485292Y-113628213D01*
X79485288Y-113628210D01*
X79354185Y-113540609D01*
X79354172Y-113540602D01*
X79208501Y-113480264D01*
X79208489Y-113480261D01*
X79053845Y-113449500D01*
X79053842Y-113449500D01*
X78896158Y-113449500D01*
X78896155Y-113449500D01*
X78741510Y-113480261D01*
X78741498Y-113480264D01*
X78595827Y-113540602D01*
X78595814Y-113540609D01*
X78464711Y-113628210D01*
X78464707Y-113628213D01*
X78353213Y-113739707D01*
X78353210Y-113739711D01*
X78265609Y-113870814D01*
X78265602Y-113870827D01*
X78205264Y-114016498D01*
X78205261Y-114016510D01*
X78174500Y-114171153D01*
X77275499Y-114171153D01*
X77244738Y-114016510D01*
X77244737Y-114016503D01*
X77244735Y-114016498D01*
X77184397Y-113870827D01*
X77184390Y-113870814D01*
X77096789Y-113739711D01*
X77096786Y-113739707D01*
X76985292Y-113628213D01*
X76985288Y-113628210D01*
X76854185Y-113540609D01*
X76854172Y-113540602D01*
X76708501Y-113480264D01*
X76708489Y-113480261D01*
X76553845Y-113449500D01*
X76553842Y-113449500D01*
X76396158Y-113449500D01*
X76396155Y-113449500D01*
X76241510Y-113480261D01*
X76241498Y-113480264D01*
X76095827Y-113540602D01*
X76095814Y-113540609D01*
X75964711Y-113628210D01*
X75964707Y-113628213D01*
X75853213Y-113739707D01*
X75853210Y-113739711D01*
X75765609Y-113870814D01*
X75765602Y-113870827D01*
X75705264Y-114016498D01*
X75705261Y-114016510D01*
X75674500Y-114171153D01*
X74775499Y-114171153D01*
X74744738Y-114016510D01*
X74744737Y-114016503D01*
X74744735Y-114016498D01*
X74684397Y-113870827D01*
X74684390Y-113870814D01*
X74596789Y-113739711D01*
X74596786Y-113739707D01*
X74485292Y-113628213D01*
X74485288Y-113628210D01*
X74354185Y-113540609D01*
X74354172Y-113540602D01*
X74208501Y-113480264D01*
X74208489Y-113480261D01*
X74053845Y-113449500D01*
X74053842Y-113449500D01*
X73896158Y-113449500D01*
X73896155Y-113449500D01*
X73741510Y-113480261D01*
X73741498Y-113480264D01*
X73595827Y-113540602D01*
X73595814Y-113540609D01*
X73464711Y-113628210D01*
X73464707Y-113628213D01*
X73353213Y-113739707D01*
X73353210Y-113739711D01*
X73265609Y-113870814D01*
X73265602Y-113870827D01*
X73205264Y-114016498D01*
X73205261Y-114016510D01*
X73174500Y-114171153D01*
X72875500Y-114171153D01*
X72875500Y-111881902D01*
X109269500Y-111881902D01*
X109269500Y-112118097D01*
X109306446Y-112351368D01*
X109379433Y-112575996D01*
X109486657Y-112786433D01*
X109625483Y-112977510D01*
X109792490Y-113144517D01*
X109983567Y-113283343D01*
X110082991Y-113334002D01*
X110194003Y-113390566D01*
X110194005Y-113390566D01*
X110194008Y-113390568D01*
X110314412Y-113429689D01*
X110418631Y-113463553D01*
X110651903Y-113500500D01*
X110651908Y-113500500D01*
X110888097Y-113500500D01*
X111121368Y-113463553D01*
X111345992Y-113390568D01*
X111556433Y-113283343D01*
X111747510Y-113144517D01*
X111914517Y-112977510D01*
X112053343Y-112786433D01*
X112160568Y-112575992D01*
X112233553Y-112351368D01*
X112270500Y-112118097D01*
X112270500Y-111881902D01*
X112233553Y-111648631D01*
X112160566Y-111424003D01*
X112053342Y-111213566D01*
X111914517Y-111022490D01*
X111747510Y-110855483D01*
X111556433Y-110716657D01*
X111345996Y-110609433D01*
X111121368Y-110536446D01*
X110888097Y-110499500D01*
X110888092Y-110499500D01*
X110651908Y-110499500D01*
X110651903Y-110499500D01*
X110418631Y-110536446D01*
X110194003Y-110609433D01*
X109983566Y-110716657D01*
X109874550Y-110795862D01*
X109792490Y-110855483D01*
X109792488Y-110855485D01*
X109792487Y-110855485D01*
X109625485Y-111022487D01*
X109625485Y-111022488D01*
X109625483Y-111022490D01*
X109565862Y-111104550D01*
X109486657Y-111213566D01*
X109379433Y-111424003D01*
X109306446Y-111648631D01*
X109269500Y-111881902D01*
X72875500Y-111881902D01*
X72875500Y-109214829D01*
X72895185Y-109147790D01*
X72947989Y-109102035D01*
X73014270Y-109091712D01*
X78500000Y-109750000D01*
X85500000Y-109750000D01*
X92143747Y-109387613D01*
X92235409Y-105171153D01*
X93699500Y-105171153D01*
X93699500Y-105328846D01*
X93730261Y-105483489D01*
X93730264Y-105483501D01*
X93790602Y-105629172D01*
X93790609Y-105629185D01*
X93878210Y-105760288D01*
X93878213Y-105760292D01*
X93989707Y-105871786D01*
X93989711Y-105871789D01*
X94120814Y-105959390D01*
X94120827Y-105959397D01*
X94266498Y-106019735D01*
X94266503Y-106019737D01*
X94421153Y-106050499D01*
X94421156Y-106050500D01*
X94421158Y-106050500D01*
X94578844Y-106050500D01*
X94578845Y-106050499D01*
X94733497Y-106019737D01*
X94879179Y-105959394D01*
X95010289Y-105871789D01*
X95010292Y-105871786D01*
X95037319Y-105844760D01*
X95098642Y-105811275D01*
X95168334Y-105816259D01*
X95212681Y-105844760D01*
X95239707Y-105871786D01*
X95239711Y-105871789D01*
X95370814Y-105959390D01*
X95370827Y-105959397D01*
X95516498Y-106019735D01*
X95516503Y-106019737D01*
X95671153Y-106050499D01*
X95671156Y-106050500D01*
X95671158Y-106050500D01*
X95828844Y-106050500D01*
X95828845Y-106050499D01*
X95983497Y-106019737D01*
X96129179Y-105959394D01*
X96260289Y-105871789D01*
X96348908Y-105783169D01*
X96410229Y-105749685D01*
X96479920Y-105754669D01*
X96484042Y-105756291D01*
X96516497Y-105769735D01*
X96516499Y-105769735D01*
X96516503Y-105769737D01*
X96671153Y-105800499D01*
X96671156Y-105800500D01*
X96671158Y-105800500D01*
X96828844Y-105800500D01*
X96828845Y-105800499D01*
X96983497Y-105769737D01*
X97129179Y-105709394D01*
X97260289Y-105621789D01*
X97371789Y-105510289D01*
X97459394Y-105379179D01*
X97519737Y-105233497D01*
X97547902Y-105091902D01*
X109269500Y-105091902D01*
X109269500Y-105328097D01*
X109306446Y-105561368D01*
X109379433Y-105785996D01*
X109467785Y-105959394D01*
X109486657Y-105996433D01*
X109625483Y-106187510D01*
X109792490Y-106354517D01*
X109983567Y-106493343D01*
X110078738Y-106541835D01*
X110194003Y-106600566D01*
X110194005Y-106600566D01*
X110194008Y-106600568D01*
X110314412Y-106639689D01*
X110418631Y-106673553D01*
X110651903Y-106710500D01*
X110651908Y-106710500D01*
X110888097Y-106710500D01*
X111121368Y-106673553D01*
X111345992Y-106600568D01*
X111556433Y-106493343D01*
X111747510Y-106354517D01*
X111914517Y-106187510D01*
X112053343Y-105996433D01*
X112160568Y-105785992D01*
X112233553Y-105561368D01*
X112245886Y-105483501D01*
X112270500Y-105328097D01*
X112270500Y-105091902D01*
X112233553Y-104858631D01*
X112185926Y-104712051D01*
X112160568Y-104634008D01*
X112160566Y-104634005D01*
X112160566Y-104634003D01*
X112104002Y-104522991D01*
X112053343Y-104423567D01*
X111914517Y-104232490D01*
X111747510Y-104065483D01*
X111556433Y-103926657D01*
X111345996Y-103819433D01*
X111121368Y-103746446D01*
X110888097Y-103709500D01*
X110888092Y-103709500D01*
X110651908Y-103709500D01*
X110651903Y-103709500D01*
X110418631Y-103746446D01*
X110194003Y-103819433D01*
X109983566Y-103926657D01*
X109874550Y-104005862D01*
X109792490Y-104065483D01*
X109792488Y-104065485D01*
X109792487Y-104065485D01*
X109625485Y-104232487D01*
X109625485Y-104232488D01*
X109625483Y-104232490D01*
X109583262Y-104290602D01*
X109486657Y-104423566D01*
X109379433Y-104634003D01*
X109306446Y-104858631D01*
X109269500Y-105091902D01*
X97547902Y-105091902D01*
X97550500Y-105078842D01*
X97550500Y-104921158D01*
X97550500Y-104921155D01*
X97550499Y-104921153D01*
X97538063Y-104858632D01*
X97519737Y-104766503D01*
X97519735Y-104766498D01*
X97459397Y-104620827D01*
X97459390Y-104620814D01*
X97371789Y-104489711D01*
X97371786Y-104489707D01*
X97260292Y-104378213D01*
X97260288Y-104378210D01*
X97129185Y-104290609D01*
X97129172Y-104290602D01*
X96983501Y-104230264D01*
X96983489Y-104230261D01*
X96828845Y-104199500D01*
X96828842Y-104199500D01*
X96671158Y-104199500D01*
X96671155Y-104199500D01*
X96516510Y-104230261D01*
X96516498Y-104230264D01*
X96370827Y-104290602D01*
X96370814Y-104290609D01*
X96239711Y-104378210D01*
X96239707Y-104378213D01*
X96151092Y-104466829D01*
X96089769Y-104500314D01*
X96020077Y-104495330D01*
X96015959Y-104493709D01*
X95983498Y-104480263D01*
X95983488Y-104480260D01*
X95828845Y-104449500D01*
X95828842Y-104449500D01*
X95671158Y-104449500D01*
X95671155Y-104449500D01*
X95516510Y-104480261D01*
X95516498Y-104480264D01*
X95370827Y-104540602D01*
X95370814Y-104540609D01*
X95239711Y-104628210D01*
X95239707Y-104628213D01*
X95212681Y-104655240D01*
X95151358Y-104688725D01*
X95081666Y-104683741D01*
X95037319Y-104655240D01*
X95010292Y-104628213D01*
X95010288Y-104628210D01*
X94879185Y-104540609D01*
X94879172Y-104540602D01*
X94733501Y-104480264D01*
X94733489Y-104480261D01*
X94578845Y-104449500D01*
X94578842Y-104449500D01*
X94421158Y-104449500D01*
X94421155Y-104449500D01*
X94266510Y-104480261D01*
X94266498Y-104480264D01*
X94120827Y-104540602D01*
X94120814Y-104540609D01*
X93989711Y-104628210D01*
X93989707Y-104628213D01*
X93878213Y-104739707D01*
X93878210Y-104739711D01*
X93790609Y-104870814D01*
X93790602Y-104870827D01*
X93730264Y-105016498D01*
X93730261Y-105016510D01*
X93699500Y-105171153D01*
X92235409Y-105171153D01*
X92300627Y-102171153D01*
X97199500Y-102171153D01*
X97199500Y-102328846D01*
X97230261Y-102483489D01*
X97230264Y-102483501D01*
X97290602Y-102629172D01*
X97290609Y-102629185D01*
X97378210Y-102760288D01*
X97378213Y-102760292D01*
X97489707Y-102871786D01*
X97489711Y-102871789D01*
X97620814Y-102959390D01*
X97620827Y-102959397D01*
X97766498Y-103019735D01*
X97766503Y-103019737D01*
X97921153Y-103050499D01*
X97921156Y-103050500D01*
X97921158Y-103050500D01*
X98078844Y-103050500D01*
X98078845Y-103050499D01*
X98233497Y-103019737D01*
X98379179Y-102959394D01*
X98510289Y-102871789D01*
X98621789Y-102760289D01*
X98709394Y-102629179D01*
X98745610Y-102541743D01*
X98789449Y-102487344D01*
X98855743Y-102465278D01*
X98907622Y-102474638D01*
X99016498Y-102519735D01*
X99016503Y-102519737D01*
X99171153Y-102550499D01*
X99171156Y-102550500D01*
X99171158Y-102550500D01*
X99328844Y-102550500D01*
X99328845Y-102550499D01*
X99483497Y-102519737D01*
X99629179Y-102459394D01*
X99760289Y-102371789D01*
X99871789Y-102260289D01*
X99959394Y-102129179D01*
X100019737Y-101983497D01*
X100048327Y-101839765D01*
X100080711Y-101777855D01*
X100141427Y-101743281D01*
X100211197Y-101747020D01*
X100217359Y-101749381D01*
X100266503Y-101769737D01*
X100421153Y-101800499D01*
X100421156Y-101800500D01*
X100421158Y-101800500D01*
X100578844Y-101800500D01*
X100578845Y-101800499D01*
X100733497Y-101769737D01*
X100879179Y-101709394D01*
X101010289Y-101621789D01*
X101121789Y-101510289D01*
X101209394Y-101379179D01*
X101269737Y-101233497D01*
X101298327Y-101089765D01*
X101330711Y-101027855D01*
X101391427Y-100993281D01*
X101461197Y-100997020D01*
X101467359Y-100999381D01*
X101516503Y-101019737D01*
X101671153Y-101050499D01*
X101671156Y-101050500D01*
X101671158Y-101050500D01*
X101828844Y-101050500D01*
X101828845Y-101050499D01*
X101983497Y-101019737D01*
X102129179Y-100959394D01*
X102260289Y-100871789D01*
X102371789Y-100760289D01*
X102459394Y-100629179D01*
X102462854Y-100620827D01*
X102508640Y-100510288D01*
X102519737Y-100483497D01*
X102550500Y-100328842D01*
X102550500Y-100171158D01*
X102550500Y-100171155D01*
X102550499Y-100171153D01*
X102532137Y-100078842D01*
X102519737Y-100016503D01*
X102506895Y-99985500D01*
X102459397Y-99870827D01*
X102459390Y-99870814D01*
X102371789Y-99739711D01*
X102371786Y-99739707D01*
X102260292Y-99628213D01*
X102260288Y-99628210D01*
X102129185Y-99540609D01*
X102129172Y-99540602D01*
X101983501Y-99480264D01*
X101983489Y-99480261D01*
X101828845Y-99449500D01*
X101828842Y-99449500D01*
X101671158Y-99449500D01*
X101671155Y-99449500D01*
X101516510Y-99480261D01*
X101516498Y-99480264D01*
X101370827Y-99540602D01*
X101370814Y-99540609D01*
X101239711Y-99628210D01*
X101239707Y-99628213D01*
X101128213Y-99739707D01*
X101128210Y-99739711D01*
X101040609Y-99870814D01*
X101040602Y-99870827D01*
X100980264Y-100016498D01*
X100980261Y-100016508D01*
X100951672Y-100160234D01*
X100919287Y-100222145D01*
X100858571Y-100256719D01*
X100788801Y-100252979D01*
X100782603Y-100250603D01*
X100733501Y-100230264D01*
X100733489Y-100230261D01*
X100578845Y-100199500D01*
X100578842Y-100199500D01*
X100421158Y-100199500D01*
X100421155Y-100199500D01*
X100266510Y-100230261D01*
X100266498Y-100230264D01*
X100120827Y-100290602D01*
X100120814Y-100290609D01*
X99989711Y-100378210D01*
X99989707Y-100378213D01*
X99878213Y-100489707D01*
X99878210Y-100489711D01*
X99790609Y-100620814D01*
X99790602Y-100620827D01*
X99730264Y-100766498D01*
X99730261Y-100766508D01*
X99701672Y-100910234D01*
X99669287Y-100972145D01*
X99608571Y-101006719D01*
X99538801Y-101002979D01*
X99532603Y-101000603D01*
X99483501Y-100980264D01*
X99483489Y-100980261D01*
X99328845Y-100949500D01*
X99328842Y-100949500D01*
X99171158Y-100949500D01*
X99171155Y-100949500D01*
X99016510Y-100980261D01*
X99016498Y-100980264D01*
X98870827Y-101040602D01*
X98870814Y-101040609D01*
X98739711Y-101128210D01*
X98739707Y-101128213D01*
X98628213Y-101239707D01*
X98628210Y-101239711D01*
X98540609Y-101370814D01*
X98540604Y-101370823D01*
X98504390Y-101458254D01*
X98460549Y-101512657D01*
X98394255Y-101534722D01*
X98342377Y-101525362D01*
X98233501Y-101480264D01*
X98233489Y-101480261D01*
X98078845Y-101449500D01*
X98078842Y-101449500D01*
X97921158Y-101449500D01*
X97921155Y-101449500D01*
X97766510Y-101480261D01*
X97766498Y-101480264D01*
X97620827Y-101540602D01*
X97620814Y-101540609D01*
X97489711Y-101628210D01*
X97489707Y-101628213D01*
X97378213Y-101739707D01*
X97378210Y-101739711D01*
X97290609Y-101870814D01*
X97290602Y-101870827D01*
X97230264Y-102016498D01*
X97230261Y-102016510D01*
X97199500Y-102171153D01*
X92300627Y-102171153D01*
X92349540Y-99921153D01*
X92699500Y-99921153D01*
X92699500Y-100078846D01*
X92730261Y-100233489D01*
X92730264Y-100233501D01*
X92790602Y-100379172D01*
X92790609Y-100379185D01*
X92878210Y-100510288D01*
X92878213Y-100510292D01*
X92989707Y-100621786D01*
X92989711Y-100621789D01*
X93120814Y-100709390D01*
X93120827Y-100709397D01*
X93258683Y-100766498D01*
X93266503Y-100769737D01*
X93421153Y-100800499D01*
X93421156Y-100800500D01*
X93421158Y-100800500D01*
X93578844Y-100800500D01*
X93578845Y-100800499D01*
X93733497Y-100769737D01*
X93879179Y-100709394D01*
X94010289Y-100621789D01*
X94121789Y-100510289D01*
X94209394Y-100379179D01*
X94269737Y-100233497D01*
X94300500Y-100078842D01*
X94300500Y-99921158D01*
X94300500Y-99921155D01*
X94300499Y-99921153D01*
X94294090Y-99888933D01*
X94269737Y-99766503D01*
X94269735Y-99766498D01*
X94209397Y-99620827D01*
X94209390Y-99620814D01*
X94121789Y-99489711D01*
X94121786Y-99489707D01*
X94010292Y-99378213D01*
X94010288Y-99378210D01*
X93879185Y-99290609D01*
X93879172Y-99290602D01*
X93733501Y-99230264D01*
X93733489Y-99230261D01*
X93578845Y-99199500D01*
X93578842Y-99199500D01*
X93421158Y-99199500D01*
X93421155Y-99199500D01*
X93266510Y-99230261D01*
X93266498Y-99230264D01*
X93120827Y-99290602D01*
X93120814Y-99290609D01*
X92989711Y-99378210D01*
X92989707Y-99378213D01*
X92878213Y-99489707D01*
X92878210Y-99489711D01*
X92790609Y-99620814D01*
X92790602Y-99620827D01*
X92730264Y-99766498D01*
X92730261Y-99766510D01*
X92699500Y-99921153D01*
X92349540Y-99921153D01*
X92378193Y-98603097D01*
X92383328Y-98366902D01*
X109269500Y-98366902D01*
X109269500Y-98603097D01*
X109306446Y-98836368D01*
X109379433Y-99060996D01*
X109486657Y-99271433D01*
X109625483Y-99462510D01*
X109792490Y-99629517D01*
X109983567Y-99768343D01*
X110046679Y-99800500D01*
X110194003Y-99875566D01*
X110194005Y-99875566D01*
X110194008Y-99875568D01*
X110314412Y-99914689D01*
X110418631Y-99948553D01*
X110651903Y-99985500D01*
X110651908Y-99985500D01*
X110888097Y-99985500D01*
X111121368Y-99948553D01*
X111345992Y-99875568D01*
X111556433Y-99768343D01*
X111747510Y-99629517D01*
X111914517Y-99462510D01*
X112053343Y-99271433D01*
X112160568Y-99060992D01*
X112233553Y-98836368D01*
X112237474Y-98811611D01*
X112270500Y-98603097D01*
X112270500Y-98366902D01*
X112233553Y-98133631D01*
X112196546Y-98019737D01*
X112160568Y-97909008D01*
X112160566Y-97909005D01*
X112160566Y-97909003D01*
X112053342Y-97698566D01*
X112004858Y-97631834D01*
X111914517Y-97507490D01*
X111747510Y-97340483D01*
X111556433Y-97201657D01*
X111345996Y-97094433D01*
X111121368Y-97021446D01*
X110888097Y-96984500D01*
X110888092Y-96984500D01*
X110651908Y-96984500D01*
X110651903Y-96984500D01*
X110418631Y-97021446D01*
X110194003Y-97094433D01*
X109983566Y-97201657D01*
X109932104Y-97239047D01*
X109792490Y-97340483D01*
X109792488Y-97340485D01*
X109792487Y-97340485D01*
X109625485Y-97507487D01*
X109625485Y-97507488D01*
X109625483Y-97507490D01*
X109565862Y-97589550D01*
X109486657Y-97698566D01*
X109379433Y-97909003D01*
X109306446Y-98133631D01*
X109269500Y-98366902D01*
X92383328Y-98366902D01*
X92383492Y-98359341D01*
X92399536Y-97621305D01*
X92420673Y-97554709D01*
X92474459Y-97510113D01*
X92523507Y-97500000D01*
X106750000Y-97500000D01*
X106750000Y-91631902D01*
X109269500Y-91631902D01*
X109269500Y-91868097D01*
X109306446Y-92101368D01*
X109379433Y-92325996D01*
X109454265Y-92472861D01*
X109486657Y-92536433D01*
X109625483Y-92727510D01*
X109792490Y-92894517D01*
X109983567Y-93033343D01*
X110034974Y-93059536D01*
X110194003Y-93140566D01*
X110194005Y-93140566D01*
X110194008Y-93140568D01*
X110314412Y-93179689D01*
X110418631Y-93213553D01*
X110651903Y-93250500D01*
X110651908Y-93250500D01*
X110888097Y-93250500D01*
X111121368Y-93213553D01*
X111345992Y-93140568D01*
X111556433Y-93033343D01*
X111747510Y-92894517D01*
X111914517Y-92727510D01*
X112053343Y-92536433D01*
X112160568Y-92325992D01*
X112233553Y-92101368D01*
X112270500Y-91868097D01*
X112270500Y-91631902D01*
X112233553Y-91398631D01*
X112160566Y-91174003D01*
X112053342Y-90963566D01*
X111914517Y-90772490D01*
X111747510Y-90605483D01*
X111556433Y-90466657D01*
X111345996Y-90359433D01*
X111121368Y-90286446D01*
X110888097Y-90249500D01*
X110888092Y-90249500D01*
X110651908Y-90249500D01*
X110651903Y-90249500D01*
X110418631Y-90286446D01*
X110194003Y-90359433D01*
X109983566Y-90466657D01*
X109874550Y-90545862D01*
X109792490Y-90605483D01*
X109792488Y-90605485D01*
X109792487Y-90605485D01*
X109625485Y-90772487D01*
X109625485Y-90772488D01*
X109625483Y-90772490D01*
X109576585Y-90839792D01*
X109486657Y-90963566D01*
X109379433Y-91174003D01*
X109306446Y-91398631D01*
X109269500Y-91631902D01*
X106750000Y-91631902D01*
X106750000Y-84881902D01*
X109237000Y-84881902D01*
X109237000Y-85118097D01*
X109273946Y-85351368D01*
X109346933Y-85575996D01*
X109440583Y-85759792D01*
X109454157Y-85786433D01*
X109592983Y-85977510D01*
X109759990Y-86144517D01*
X109951067Y-86283343D01*
X110050491Y-86334002D01*
X110161503Y-86390566D01*
X110161505Y-86390566D01*
X110161508Y-86390568D01*
X110281912Y-86429689D01*
X110386131Y-86463553D01*
X110619403Y-86500500D01*
X110619408Y-86500500D01*
X110855597Y-86500500D01*
X111088868Y-86463553D01*
X111313492Y-86390568D01*
X111523933Y-86283343D01*
X111715010Y-86144517D01*
X111882017Y-85977510D01*
X112020843Y-85786433D01*
X112128068Y-85575992D01*
X112201053Y-85351368D01*
X112238000Y-85118097D01*
X112238000Y-84881902D01*
X112201053Y-84648631D01*
X112128066Y-84424003D01*
X112064749Y-84299737D01*
X112020843Y-84213567D01*
X111882017Y-84022490D01*
X111715010Y-83855483D01*
X111523933Y-83716657D01*
X111313496Y-83609433D01*
X111088868Y-83536446D01*
X110855597Y-83499500D01*
X110855592Y-83499500D01*
X110619408Y-83499500D01*
X110619403Y-83499500D01*
X110386131Y-83536446D01*
X110161503Y-83609433D01*
X109951066Y-83716657D01*
X109886597Y-83763497D01*
X109759990Y-83855483D01*
X109759988Y-83855485D01*
X109759987Y-83855485D01*
X109592985Y-84022487D01*
X109592985Y-84022488D01*
X109592983Y-84022490D01*
X109533362Y-84104550D01*
X109454157Y-84213566D01*
X109346933Y-84424003D01*
X109273946Y-84648631D01*
X109237000Y-84881902D01*
X106750000Y-84881902D01*
X106750000Y-78131902D01*
X109269500Y-78131902D01*
X109269500Y-78368097D01*
X109306446Y-78601368D01*
X109379433Y-78825996D01*
X109445322Y-78955309D01*
X109486657Y-79036433D01*
X109625483Y-79227510D01*
X109792490Y-79394517D01*
X109983567Y-79533343D01*
X110082991Y-79584002D01*
X110194003Y-79640566D01*
X110194005Y-79640566D01*
X110194008Y-79640568D01*
X110314412Y-79679689D01*
X110418631Y-79713553D01*
X110651903Y-79750500D01*
X110651908Y-79750500D01*
X110888097Y-79750500D01*
X111121368Y-79713553D01*
X111345992Y-79640568D01*
X111556433Y-79533343D01*
X111747510Y-79394517D01*
X111914517Y-79227510D01*
X112053343Y-79036433D01*
X112160568Y-78825992D01*
X112233553Y-78601368D01*
X112252869Y-78479412D01*
X112270500Y-78368097D01*
X112270500Y-78131902D01*
X112233553Y-77898631D01*
X112160566Y-77674003D01*
X112090515Y-77536521D01*
X112053343Y-77463567D01*
X111914517Y-77272490D01*
X111747510Y-77105483D01*
X111556433Y-76966657D01*
X111345996Y-76859433D01*
X111121368Y-76786446D01*
X110888097Y-76749500D01*
X110888092Y-76749500D01*
X110651908Y-76749500D01*
X110651903Y-76749500D01*
X110418631Y-76786446D01*
X110194003Y-76859433D01*
X109983566Y-76966657D01*
X109874550Y-77045862D01*
X109792490Y-77105483D01*
X109792488Y-77105485D01*
X109792487Y-77105485D01*
X109625485Y-77272487D01*
X109625485Y-77272488D01*
X109625483Y-77272490D01*
X109565862Y-77354550D01*
X109486657Y-77463566D01*
X109379433Y-77674003D01*
X109306446Y-77898631D01*
X109269500Y-78131902D01*
X106750000Y-78131902D01*
X106750000Y-76624500D01*
X106769685Y-76557461D01*
X106822489Y-76511706D01*
X106874000Y-76500500D01*
X114250500Y-76500500D01*
X114317539Y-76520185D01*
G37*
%TD.AperFunction*%
%TD*%
M02*
