M48
; DRILL file {KiCad 9.0.3-9.0.3-0~ubuntu24.04.1} date 2026-04-21T10:17:22+0300
; FORMAT={-:-/ absolute / inch / decimal}
; #@! TF.CreationDate,2026-04-21T10:17:22+03:00
; #@! TF.GenerationSoftware,Kicad,Pcbnew,9.0.3-9.0.3-0~ubuntu24.04.1
; #@! TF.FileFunction,Plated,1,4,PTH
FMAT,2
INCH
; #@! TA.AperFunction,Plated,PTH,ComponentDrill
T1C0.0079
; #@! TA.AperFunction,Plated,PTH,ViaDrill
T2C0.0118
; #@! TA.AperFunction,Plated,PTH,ComponentDrill
T3C0.0118
; #@! TA.AperFunction,Plated,PTH,ViaDrill
T4C0.0197
; #@! TA.AperFunction,Plated,PTH,ComponentDrill
T5C0.0197
; #@! TA.AperFunction,Plated,PTH,ViaDrill
T6C0.0236
; #@! TA.AperFunction,Plated,PTH,ComponentDrill
T7C0.0394
; #@! TA.AperFunction,Plated,PTH,ComponentDrill
T8C0.0472
%
G90
G05
T1
X3.6669Y-3.2295
X3.6669Y-3.2886
X3.6965Y-3.2
X3.6965Y-3.2591
X3.6965Y-3.3181
X3.726Y-3.2295
X3.726Y-3.2886
X3.7555Y-3.2
X3.7555Y-3.2591
X3.7555Y-3.3181
X3.785Y-3.2295
X3.785Y-3.2886
T2
X2.9124Y-4.498
X2.9124Y-4.5709
X2.9124Y-4.6398
X2.9124Y-4.7146
X2.9124Y-4.7835
X2.9124Y-4.843
X3.0108Y-4.498
X3.0108Y-4.5709
X3.0108Y-4.6398
X3.0108Y-4.7146
X3.0108Y-4.7835
X3.0108Y-4.843
X3.1093Y-4.498
X3.1093Y-4.5709
X3.1093Y-4.6398
X3.1093Y-4.7146
X3.1093Y-4.7835
X3.1093Y-4.843
X3.2077Y-4.498
X3.2077Y-4.5709
X3.2077Y-4.6398
X3.2077Y-4.7146
X3.2077Y-4.7835
X3.2077Y-4.843
X3.2279Y-3.9867
X3.2283Y-3.8976
X3.2874Y-3.9764
X3.2972Y-3.9469
X3.3268Y-3.75
X3.3329Y-3.867
X3.3858Y-3.1004
X3.5039Y-3.7992
X3.5039Y-3.8287
X3.5089Y-3.2333
X3.5236Y-3.1594
X3.5531Y-3.1314
X3.563Y-3.6953
X3.5924Y-3.0805
X3.6122Y-3.1024
X3.6811Y-3.937
X3.6909Y-5.1083
X3.7205Y-4.1437
X3.7402Y-5.0591
X3.7402Y-5.1083
X3.7697Y-4.1437
X3.8091Y-4.1339
X3.8484Y-5.0591
X3.8484Y-5.1083
X3.8583Y-4.0256
X3.8976Y-5.1083
X3.9075Y-4.0059
X3.9567Y-3.9764
X3.9764Y-4.9016
X4.001Y-4.877
X4.0059Y-3.9469
X4.0157Y-5.0689
X4.0256Y-5.128
X4.0945Y-4.9311
X4.1732Y-5.2657
X4.2224Y-5.2657
X4.2618Y-5.2657
X4.2913Y-5.0689
X4.2913Y-5.1181
X4.3602Y-5.0689
X4.3602Y-5.1181
T3
X4.0616Y-5.0778
X4.0616Y-5.1289
X4.1128Y-5.0778
X4.1128Y-5.1289
X4.164Y-5.0778
X4.164Y-5.1289
X4.2152Y-5.0778
X4.2152Y-5.1289
T4
X3.1693Y-3.8115
X3.248Y-5.0
X3.248Y-5.2067
X3.4843Y-3.1004
X3.8484Y-5.187
X3.8976Y-5.0295
X4.0157Y-5.2953
T5
X3.4449Y-3.8287
X3.4449Y-3.8681
X3.4449Y-3.9075
T6
X2.9134Y-4.3307
X2.9921Y-4.0846
X3.0709Y-4.3307
X3.1299Y-4.1831
X3.1988Y-4.4291
X3.2776Y-4.1831
X3.2874Y-4.4291
X3.3366Y-3.6713
X3.3563Y-4.4882
X3.3563Y-4.8524
X3.4744Y-4.8524
X3.4843Y-4.4882
X3.5433Y-4.6063
T7
X3.2283Y-3.2417
X3.2283Y-3.3417
X3.2283Y-3.4417
X3.2283Y-3.5417
X3.2283Y-3.6417
T8
X3.002Y-3.8017
X3.002Y-3.9017
X3.4709Y-5.1774
X3.5709Y-5.1774
X4.339Y-5.1969
X4.3597Y-3.3465
X4.3597Y-3.4465
X4.361Y-3.0807
X4.361Y-3.1807
X4.361Y-3.6122
X4.361Y-3.7122
X4.361Y-3.8774
X4.361Y-3.9774
X4.361Y-4.1421
X4.361Y-4.2421
X4.361Y-4.4094
X4.361Y-4.5094
X4.361Y-4.6746
X4.361Y-4.7746
X4.439Y-5.1969
M30
