%TF.GenerationSoftware,KiCad,Pcbnew,9.0.3-9.0.3-0~ubuntu24.04.1*%
%TF.CreationDate,2026-04-16T08:19:38+03:00*%
%TF.ProjectId,sounddecoder-esp32-s3-wroom-1,736f756e-6464-4656-936f-6465722d6573,rev?*%
%TF.SameCoordinates,Original*%
%TF.FileFunction,Copper,L4,Bot*%
%TF.FilePolarity,Positive*%
%FSLAX46Y46*%
G04 Gerber Fmt 4.6, Leading zero omitted, Abs format (unit mm)*
G04 Created by KiCad (PCBNEW 9.0.3-9.0.3-0~ubuntu24.04.1) date 2026-04-16 08:19:38*
%MOMM*%
%LPD*%
G01*
G04 APERTURE LIST*
G04 Aperture macros list*
%AMRoundRect*
0 Rectangle with rounded corners*
0 $1 Rounding radius*
0 $2 $3 $4 $5 $6 $7 $8 $9 X,Y pos of 4 corners*
0 Add a 4 corners polygon primitive as box body*
4,1,4,$2,$3,$4,$5,$6,$7,$8,$9,$2,$3,0*
0 Add four circle primitives for the rounded corners*
1,1,$1+$1,$2,$3*
1,1,$1+$1,$4,$5*
1,1,$1+$1,$6,$7*
1,1,$1+$1,$8,$9*
0 Add four rect primitives between the rounded corners*
20,1,$1+$1,$2,$3,$4,$5,0*
20,1,$1+$1,$4,$5,$6,$7,0*
20,1,$1+$1,$6,$7,$8,$9,0*
20,1,$1+$1,$8,$9,$2,$3,0*%
G04 Aperture macros list end*
%TA.AperFunction,ComponentPad*%
%ADD10R,1.700000X1.700000*%
%TD*%
%TA.AperFunction,ComponentPad*%
%ADD11C,1.700000*%
%TD*%
%TA.AperFunction,ComponentPad*%
%ADD12RoundRect,0.250000X0.750000X-0.750000X0.750000X0.750000X-0.750000X0.750000X-0.750000X-0.750000X0*%
%TD*%
%TA.AperFunction,ComponentPad*%
%ADD13C,2.000000*%
%TD*%
%TA.AperFunction,ComponentPad*%
%ADD14RoundRect,0.250000X-0.750000X0.750000X-0.750000X-0.750000X0.750000X-0.750000X0.750000X0.750000X0*%
%TD*%
%TA.AperFunction,HeatsinkPad*%
%ADD15C,0.600000*%
%TD*%
%TA.AperFunction,ComponentPad*%
%ADD16RoundRect,0.250000X0.750000X0.750000X-0.750000X0.750000X-0.750000X-0.750000X0.750000X-0.750000X0*%
%TD*%
%TA.AperFunction,ComponentPad*%
%ADD17R,0.850000X0.850000*%
%TD*%
%TA.AperFunction,ComponentPad*%
%ADD18C,0.850000*%
%TD*%
%TA.AperFunction,ComponentPad*%
%ADD19RoundRect,0.250000X-0.750000X-0.750000X0.750000X-0.750000X0.750000X0.750000X-0.750000X0.750000X0*%
%TD*%
%TA.AperFunction,ComponentPad*%
%ADD20C,0.630000*%
%TD*%
%TA.AperFunction,SMDPad,CuDef*%
%ADD21R,3.300000X2.600000*%
%TD*%
%TA.AperFunction,ViaPad*%
%ADD22C,0.600000*%
%TD*%
%TA.AperFunction,ViaPad*%
%ADD23C,0.800000*%
%TD*%
%TA.AperFunction,Conductor*%
%ADD24C,0.203200*%
%TD*%
G04 APERTURE END LIST*
D10*
%TO.P,J5,1,Pin_1*%
%TO.N,+3.3V*%
X82000000Y-86960000D03*
D11*
%TO.P,J5,2,Pin_2*%
%TO.N,/UART-TX*%
X82000000Y-89500000D03*
%TO.P,J5,3,Pin_3*%
%TO.N,/UART-RX*%
X82000000Y-92040000D03*
%TO.P,J5,4,Pin_4*%
%TO.N,GND*%
X82000000Y-94580000D03*
%TD*%
D12*
%TO.P,J10,1,Pin_1*%
%TO.N,+5V*%
X113000000Y-101025000D03*
D13*
%TO.P,J10,2,Pin_2*%
%TO.N,Net-(J10-Pin_2)*%
X113000000Y-98485000D03*
%TD*%
D14*
%TO.P,J4,1,Pin_1*%
%TO.N,/Sound1*%
X76282500Y-98475000D03*
D13*
%TO.P,J4,2,Pin_2*%
%TO.N,/Sound2*%
X76282500Y-101015000D03*
%TD*%
D15*
%TO.P,U7,41,GND*%
%TO.N,GND*%
X93100000Y-84450000D03*
X93100000Y-85850000D03*
X93800000Y-83750000D03*
X93800000Y-85150000D03*
X93800000Y-86550000D03*
X94500000Y-84450000D03*
X94500000Y-85850000D03*
X95200000Y-83750000D03*
X95200000Y-85150000D03*
X95200000Y-86550000D03*
X95900000Y-84450000D03*
X95900000Y-85850000D03*
%TD*%
D12*
%TO.P,J11,1,Pin_1*%
%TO.N,+5V*%
X113000000Y-107750000D03*
D13*
%TO.P,J11,2,Pin_2*%
%TO.N,Net-(J11-Pin_2)*%
X113000000Y-105210000D03*
%TD*%
D16*
%TO.P,J3,1,Pin_1*%
%TO.N,/MOTOR1*%
X112500000Y-132000000D03*
D13*
%TO.P,J3,2,Pin_2*%
%TO.N,/MOTOR2*%
X109960000Y-132000000D03*
%TD*%
D12*
%TO.P,J8,1,Pin_1*%
%TO.N,+5V*%
X112967500Y-87540000D03*
D13*
%TO.P,J8,2,Pin_2*%
%TO.N,/FwdLED*%
X112967500Y-85000000D03*
%TD*%
D17*
%TO.P,J6,1,Pin_1*%
%TO.N,GND*%
X86000000Y-103500000D03*
D18*
%TO.P,J6,2,Pin_2*%
%TO.N,/SND_GAIN*%
X86000000Y-102500000D03*
%TO.P,J6,3,Pin_3*%
%TO.N,+3.3V*%
X86000000Y-101500000D03*
%TD*%
D12*
%TO.P,J13,1,Pin_1*%
%TO.N,+5V*%
X113000000Y-121275000D03*
D13*
%TO.P,J13,2,Pin_2*%
%TO.N,Net-(J13-Pin_2)*%
X113000000Y-118735000D03*
%TD*%
D19*
%TO.P,J1,1,Pin_1*%
%TO.N,VCC*%
X88160000Y-131505000D03*
D13*
%TO.P,J1,2,Pin_2*%
%TO.N,GND*%
X90700000Y-131505000D03*
%TD*%
D12*
%TO.P,J9,1,Pin_1*%
%TO.N,+5V*%
X113000000Y-94290000D03*
D13*
%TO.P,J9,2,Pin_2*%
%TO.N,/BackLED*%
X113000000Y-91750000D03*
%TD*%
D20*
%TO.P,U4,9,GND*%
%TO.N,GND*%
X106415000Y-128975000D03*
X105115000Y-128975000D03*
X103815000Y-128975000D03*
D21*
X105115000Y-129625000D03*
D20*
X106415000Y-130275000D03*
X105115000Y-130275000D03*
X103815000Y-130275000D03*
%TD*%
D17*
%TO.P,J2,1,Pin_1*%
%TO.N,+3.3V*%
X84250000Y-110250000D03*
D18*
%TO.P,J2,2,Pin_2*%
%TO.N,Net-(J2-Pin_2)*%
X85250000Y-110250000D03*
%TO.P,J2,3,Pin_3*%
%TO.N,GND*%
X86250000Y-110250000D03*
%TD*%
D12*
%TO.P,J7,1,Pin_1*%
%TO.N,+5V*%
X113000000Y-80750000D03*
D13*
%TO.P,J7,2,Pin_2*%
%TO.N,/Smoke*%
X113000000Y-78210000D03*
%TD*%
D12*
%TO.P,J12,1,Pin_1*%
%TO.N,+5V*%
X113000000Y-114540000D03*
D13*
%TO.P,J12,2,Pin_2*%
%TO.N,Net-(J12-Pin_2)*%
X113000000Y-112000000D03*
%TD*%
D22*
%TO.N,GND*%
X78975000Y-117850000D03*
X78975000Y-123012500D03*
D23*
X99000000Y-127750000D03*
D22*
X73975000Y-116100000D03*
X76475000Y-121500000D03*
X81475000Y-121500000D03*
X81475000Y-123012500D03*
X78975000Y-121500000D03*
X76475000Y-123012500D03*
X81475000Y-116100000D03*
X76475000Y-114250000D03*
X73975000Y-117850000D03*
X76475000Y-119750000D03*
X76475000Y-117850000D03*
X78975000Y-114250000D03*
X81475000Y-119750000D03*
X78975000Y-119750000D03*
X75825000Y-80750000D03*
X73975000Y-114250000D03*
D23*
X99250000Y-108500000D03*
D22*
X74500000Y-80500000D03*
X73975000Y-121500000D03*
X81475000Y-117850000D03*
X73975000Y-119750000D03*
X76475000Y-116100000D03*
X73975000Y-123012500D03*
X81475000Y-114250000D03*
X82560000Y-100690000D03*
X78975000Y-116100000D03*
D23*
%TO.N,VCC*%
X97750000Y-131750000D03*
X102000000Y-134500000D03*
X82500000Y-132250000D03*
X82500000Y-127000000D03*
%TO.N,+5V*%
X96000000Y-116000000D03*
X99250000Y-116000000D03*
D22*
X102750000Y-107500000D03*
D23*
X92500000Y-116000000D03*
X74250000Y-104250000D03*
%TO.N,+3.3V*%
X97200000Y-107800000D03*
X80000000Y-97500000D03*
X88500000Y-78750000D03*
X97200000Y-106550000D03*
X97200000Y-105300000D03*
X96250000Y-100500000D03*
D22*
X86000000Y-78750000D03*
%TO.N,Net-(U3-DIN)*%
X93500000Y-96500000D03*
X84250000Y-102500000D03*
%TO.N,Net-(U3-BCLK)*%
X83500000Y-103750000D03*
X94750000Y-96500000D03*
%TO.N,Net-(U3-LRCLK)*%
X96000000Y-96500000D03*
X82500000Y-103750000D03*
%TO.N,Net-(U4-IN1)*%
X104000000Y-125250000D03*
X102750000Y-80000000D03*
%TO.N,Net-(U4-IN2)*%
X101000000Y-124500000D03*
X96250000Y-90000000D03*
%TO.N,Net-(U7-IO38)*%
X101005800Y-88750000D03*
X102750000Y-104750000D03*
%TO.N,Net-(U7-IO40)*%
X100005800Y-86250000D03*
X101500000Y-103000000D03*
%TO.N,Net-(U7-IO42)*%
X100500000Y-101000000D03*
X99000000Y-84250000D03*
%TO.N,Net-(U7-IO39)*%
X102000000Y-104000000D03*
X100601600Y-87500000D03*
%TO.N,Net-(U7-IO41)*%
X101250000Y-101500000D03*
X99601600Y-85000000D03*
%TO.N,Net-(J2-Pin_2)*%
X97000000Y-93989998D03*
%TO.N,/MEM_IO2*%
X85750000Y-87250000D03*
X75750000Y-77449998D03*
%TO.N,/MEM_IO1*%
X86015955Y-85984045D03*
X77006507Y-76990180D03*
%TO.N,/MEM_IO0*%
X74000000Y-85500000D03*
X86000000Y-91250000D03*
%TO.N,/UART-TX*%
X97750000Y-82750000D03*
%TO.N,/UART-RX*%
X98351600Y-83750000D03*
%TO.N,/MEM_CE*%
X79500000Y-77000000D03*
X88500000Y-84000000D03*
%TO.N,/MEM_SCK*%
X75750000Y-85500000D03*
X85750000Y-89750000D03*
%TO.N,/MEM_IO3*%
X76750000Y-83750000D03*
X85675041Y-88074959D03*
%TD*%
D24*
%TO.N,Net-(U3-DIN)*%
X86456572Y-105041600D02*
X85791600Y-105041600D01*
X85791600Y-105041600D02*
X84250000Y-103500000D01*
X93500000Y-96500000D02*
X93500000Y-97998172D01*
X93500000Y-97998172D02*
X86456572Y-105041600D01*
X84250000Y-103500000D02*
X84250000Y-102500000D01*
%TO.N,Net-(U3-BCLK)*%
X94750000Y-97249086D02*
X86603286Y-105395800D01*
X94750000Y-96500000D02*
X94750000Y-97249086D01*
X86603286Y-105395800D02*
X85145800Y-105395800D01*
X85145800Y-105395800D02*
X83500000Y-103750000D01*
%TO.N,Net-(U3-LRCLK)*%
X85000000Y-105750000D02*
X84500000Y-105750000D01*
X96000000Y-96500000D02*
X86750000Y-105750000D01*
X84500000Y-105750000D02*
X82500000Y-103750000D01*
X86750000Y-105750000D02*
X85000000Y-105750000D01*
%TO.N,Net-(U4-IN1)*%
X103756800Y-104332968D02*
X103558400Y-104134568D01*
X101904200Y-88224568D02*
X101904200Y-81064432D01*
X103558400Y-104134568D02*
X103558400Y-102736399D01*
X102012600Y-89167031D02*
X102012600Y-88332968D01*
X103756800Y-105167031D02*
X103756800Y-104332968D01*
X101904200Y-81064432D02*
X102551600Y-80417031D01*
X103123599Y-100234893D02*
X103123600Y-99913270D01*
X103469400Y-102647399D02*
X103469400Y-100580695D01*
X102012600Y-88332968D02*
X101904200Y-88224568D01*
X103123600Y-99913270D02*
X101904200Y-98693868D01*
X102551600Y-80417031D02*
X102551600Y-80198400D01*
X103558400Y-102736399D02*
X103469400Y-102647399D01*
X101904200Y-98693868D02*
X101904200Y-89275431D01*
X103469400Y-100580695D02*
X103123599Y-100234893D01*
X101904200Y-89275431D02*
X102012600Y-89167031D01*
X101904200Y-107019631D02*
X101904200Y-123154200D01*
X101904200Y-107019631D02*
X103756800Y-105167031D01*
X101904200Y-123154200D02*
X104000000Y-125250000D01*
X102551600Y-80198400D02*
X102750000Y-80000000D01*
%TO.N,Net-(U4-IN2)*%
X101000000Y-106500000D02*
X97750000Y-103250000D01*
X97750000Y-91500000D02*
X96250000Y-90000000D01*
X101000000Y-124500000D02*
X101000000Y-106500000D01*
X97750000Y-103250000D02*
X97750000Y-91500000D01*
%TO.N,Net-(U7-IO38)*%
X101005800Y-88750000D02*
X101000000Y-88755800D01*
X102661000Y-100915545D02*
X102661000Y-102982251D01*
X102750000Y-103071251D02*
X102661000Y-102982251D01*
X101000000Y-99184801D02*
X101251884Y-99184802D01*
X101251884Y-99184802D02*
X102315200Y-100248120D01*
X101000000Y-88755800D02*
X101000000Y-99184801D01*
X102315199Y-100569742D02*
X102661000Y-100915545D01*
X102750000Y-104750000D02*
X102750000Y-103071251D01*
X102315200Y-100248120D02*
X102315199Y-100569742D01*
%TO.N,Net-(U7-IO40)*%
X100917032Y-99993200D02*
X101506800Y-100582969D01*
X100005800Y-86250000D02*
X100000000Y-86255800D01*
X101852600Y-102647400D02*
X101500000Y-103000000D01*
X101852600Y-101250394D02*
X101852600Y-102647400D01*
X100000000Y-99356748D02*
X100636452Y-99993200D01*
X100636452Y-99993200D02*
X100917032Y-99993200D01*
X100000000Y-86255800D02*
X100000000Y-99356748D01*
X101506800Y-100582969D02*
X101506800Y-100904594D01*
X101506800Y-100904594D02*
X101852600Y-101250394D01*
%TO.N,Net-(U7-IO42)*%
X99000000Y-99500000D02*
X99000000Y-84250000D01*
X100500000Y-101000000D02*
X99000000Y-99500000D01*
%TO.N,Net-(U7-IO39)*%
X102102600Y-102969026D02*
X102102600Y-103249606D01*
X101084458Y-99589001D02*
X101911000Y-100415544D01*
X102256800Y-101082969D02*
X102256800Y-102814826D01*
X100803878Y-99589000D02*
X101084458Y-99589001D01*
X102256800Y-102814826D02*
X102102600Y-102969026D01*
X102000000Y-103352206D02*
X102102600Y-103249606D01*
X102000000Y-104000000D02*
X102000000Y-103352206D01*
X100404200Y-99189322D02*
X100803878Y-99589000D01*
X101911000Y-100415544D02*
X101910999Y-100737167D01*
X101910999Y-100737167D02*
X102256800Y-101082969D01*
X100404200Y-87697400D02*
X100404200Y-99189322D01*
X100601600Y-87500000D02*
X100404200Y-87697400D01*
%TO.N,Net-(U7-IO41)*%
X100469026Y-100397400D02*
X99404200Y-99332574D01*
X101102600Y-101249606D02*
X101102600Y-100750394D01*
X100749606Y-100397400D02*
X100469026Y-100397400D01*
X99404200Y-99332574D02*
X99404200Y-85197400D01*
X101102600Y-100750394D02*
X100749606Y-100397400D01*
X99404200Y-85197400D02*
X99601600Y-85000000D01*
%TO.N,Net-(J2-Pin_2)*%
X97000000Y-93989998D02*
X97000000Y-96281495D01*
X85250000Y-108000000D02*
X85250000Y-110250000D01*
X86750000Y-106500000D02*
X85250000Y-108000000D01*
X86781495Y-106500000D02*
X86750000Y-106500000D01*
X97000000Y-96281495D02*
X86781495Y-106500000D01*
%TO.N,/MEM_IO2*%
X85750000Y-86498172D02*
X85750000Y-87250000D01*
X75750000Y-77449998D02*
X76701826Y-77449998D01*
X76701826Y-77449998D02*
X85750000Y-86498172D01*
%TO.N,/MEM_IO1*%
X86015955Y-85984045D02*
X86015955Y-85015955D01*
X77990180Y-76990180D02*
X77006507Y-76990180D01*
X86015955Y-85015955D02*
X77990180Y-76990180D01*
%TO.N,/MEM_IO0*%
X83147400Y-88397400D02*
X76897400Y-88397400D01*
X86000000Y-91250000D02*
X83147400Y-88397400D01*
X76897400Y-88397400D02*
X74000000Y-85500000D01*
%TO.N,/UART-TX*%
X97750000Y-86000000D02*
X90604200Y-93145800D01*
X90604200Y-93145800D02*
X85645800Y-93145800D01*
X97750000Y-82750000D02*
X97750000Y-86000000D01*
X85645800Y-93145800D02*
X82000000Y-89500000D01*
%TO.N,/UART-RX*%
X98250000Y-87000000D02*
X91750000Y-93500000D01*
X83460000Y-93500000D02*
X82000000Y-92040000D01*
X98351600Y-83750000D02*
X98250000Y-83851600D01*
X91750000Y-93500000D02*
X83460000Y-93500000D01*
X98250000Y-83851600D02*
X98250000Y-87000000D01*
%TO.N,/MEM_CE*%
X81780996Y-77030996D02*
X79469004Y-77030996D01*
X88500000Y-84000000D02*
X85750000Y-81250000D01*
X85750000Y-81000000D02*
X81780996Y-77030996D01*
X85750000Y-81250000D02*
X85750000Y-81000000D01*
X79469004Y-77030996D02*
X79500000Y-77000000D01*
%TO.N,/MEM_SCK*%
X83102600Y-87102600D02*
X83102600Y-85857400D01*
X83102600Y-85857400D02*
X82745200Y-85500000D01*
X85750000Y-89750000D02*
X83102600Y-87102600D01*
X82745200Y-85500000D02*
X75750000Y-85500000D01*
%TO.N,/MEM_IO3*%
X82250914Y-83500000D02*
X77000000Y-83500000D01*
X77000000Y-83500000D02*
X76750000Y-83750000D01*
X85000000Y-86249086D02*
X82250914Y-83500000D01*
X85000000Y-87399918D02*
X85000000Y-86249086D01*
X85675041Y-88074959D02*
X85000000Y-87399918D01*
%TD*%
%TA.AperFunction,Conductor*%
%TO.N,GND*%
G36*
X76448091Y-76520185D02*
G01*
X76493846Y-76572989D01*
X76503790Y-76642147D01*
X76488439Y-76686500D01*
X76446931Y-76758393D01*
X76446930Y-76758396D01*
X76406007Y-76911123D01*
X76406007Y-76923898D01*
X76403456Y-76932583D01*
X76404745Y-76941545D01*
X76393766Y-76965585D01*
X76386322Y-76990937D01*
X76379481Y-76996864D01*
X76375720Y-77005101D01*
X76353485Y-77019390D01*
X76333518Y-77036692D01*
X76323003Y-77038979D01*
X76316942Y-77042875D01*
X76282007Y-77047898D01*
X76248498Y-77047898D01*
X76181459Y-77028213D01*
X76160817Y-77011579D01*
X76118717Y-76969479D01*
X76118709Y-76969473D01*
X75981790Y-76890424D01*
X75981786Y-76890422D01*
X75981784Y-76890421D01*
X75829057Y-76849498D01*
X75670943Y-76849498D01*
X75518216Y-76890421D01*
X75518209Y-76890424D01*
X75381290Y-76969473D01*
X75381282Y-76969479D01*
X75269481Y-77081280D01*
X75269475Y-77081288D01*
X75190426Y-77218207D01*
X75190423Y-77218214D01*
X75149500Y-77370941D01*
X75149500Y-77529055D01*
X75168729Y-77600816D01*
X75190423Y-77681781D01*
X75190426Y-77681788D01*
X75269475Y-77818707D01*
X75269479Y-77818712D01*
X75269480Y-77818714D01*
X75381284Y-77930518D01*
X75381286Y-77930519D01*
X75381290Y-77930522D01*
X75518209Y-78009571D01*
X75518216Y-78009575D01*
X75670943Y-78050498D01*
X75670945Y-78050498D01*
X75829055Y-78050498D01*
X75829057Y-78050498D01*
X75981784Y-78009575D01*
X76118716Y-77930518D01*
X76160817Y-77888417D01*
X76187744Y-77873713D01*
X76213563Y-77857121D01*
X76219763Y-77856229D01*
X76222140Y-77854932D01*
X76248498Y-77852098D01*
X76483909Y-77852098D01*
X76550948Y-77871783D01*
X76571590Y-77888417D01*
X81569392Y-82886219D01*
X81602877Y-82947542D01*
X81597893Y-83017234D01*
X81556021Y-83073167D01*
X81490557Y-83097584D01*
X81481711Y-83097900D01*
X76947062Y-83097900D01*
X76844792Y-83125302D01*
X76831659Y-83132886D01*
X76769657Y-83149500D01*
X76670943Y-83149500D01*
X76518216Y-83190423D01*
X76518209Y-83190426D01*
X76381290Y-83269475D01*
X76381282Y-83269481D01*
X76269481Y-83381282D01*
X76269475Y-83381290D01*
X76190426Y-83518209D01*
X76190424Y-83518214D01*
X76190423Y-83518216D01*
X76149500Y-83670943D01*
X76149500Y-83829057D01*
X76189584Y-83978650D01*
X76190423Y-83981783D01*
X76190426Y-83981790D01*
X76269475Y-84118709D01*
X76269479Y-84118714D01*
X76269480Y-84118716D01*
X76381284Y-84230520D01*
X76381286Y-84230521D01*
X76381290Y-84230524D01*
X76471963Y-84282873D01*
X76518216Y-84309577D01*
X76670943Y-84350500D01*
X76670945Y-84350500D01*
X76829055Y-84350500D01*
X76829057Y-84350500D01*
X76981784Y-84309577D01*
X77118716Y-84230520D01*
X77230520Y-84118716D01*
X77309577Y-83981784D01*
X77309577Y-83981781D01*
X77310875Y-83978650D01*
X77312680Y-83976408D01*
X77313641Y-83974746D01*
X77313900Y-83974895D01*
X77354715Y-83924246D01*
X77421008Y-83902179D01*
X77425437Y-83902100D01*
X82032997Y-83902100D01*
X82100036Y-83921785D01*
X82120678Y-83938419D01*
X84561581Y-86379322D01*
X84595066Y-86440645D01*
X84597900Y-86467003D01*
X84597900Y-87346980D01*
X84597900Y-87452856D01*
X84625302Y-87555123D01*
X84678240Y-87646813D01*
X84678242Y-87646815D01*
X85038222Y-88006795D01*
X85049911Y-88028203D01*
X85065187Y-88047228D01*
X85067966Y-88061267D01*
X85071707Y-88068118D01*
X85073854Y-88081441D01*
X85074541Y-88087940D01*
X85074541Y-88154016D01*
X85086076Y-88197065D01*
X85087098Y-88206733D01*
X85082506Y-88231925D01*
X85081897Y-88257525D01*
X85076345Y-88265726D01*
X85074570Y-88275470D01*
X85057086Y-88294181D01*
X85042734Y-88315387D01*
X85033630Y-88319285D01*
X85026868Y-88326523D01*
X85002041Y-88332812D01*
X84978505Y-88342891D01*
X84968739Y-88341248D01*
X84959138Y-88343681D01*
X84934853Y-88335550D01*
X84909603Y-88331304D01*
X84898450Y-88323361D01*
X84892883Y-88321498D01*
X84888944Y-88316593D01*
X84876104Y-88307449D01*
X83541019Y-86972364D01*
X83507534Y-86911041D01*
X83504700Y-86884683D01*
X83504700Y-85804464D01*
X83504700Y-85804462D01*
X83477298Y-85702195D01*
X83465413Y-85681610D01*
X83424361Y-85610505D01*
X82992095Y-85178240D01*
X82900405Y-85125302D01*
X82798138Y-85097900D01*
X82798137Y-85097900D01*
X76248498Y-85097900D01*
X76181459Y-85078215D01*
X76160817Y-85061581D01*
X76118717Y-85019481D01*
X76118709Y-85019475D01*
X75981790Y-84940426D01*
X75981786Y-84940424D01*
X75981784Y-84940423D01*
X75829057Y-84899500D01*
X75670943Y-84899500D01*
X75518216Y-84940423D01*
X75518209Y-84940426D01*
X75381290Y-85019475D01*
X75381282Y-85019481D01*
X75269481Y-85131282D01*
X75269475Y-85131290D01*
X75190426Y-85268209D01*
X75190423Y-85268216D01*
X75149500Y-85420943D01*
X75149500Y-85579057D01*
X75190423Y-85731784D01*
X75249116Y-85833445D01*
X75252214Y-85838810D01*
X75268686Y-85906710D01*
X75245833Y-85972737D01*
X75190911Y-86015927D01*
X75121358Y-86022568D01*
X75059256Y-85990552D01*
X75057145Y-85988490D01*
X74636819Y-85568164D01*
X74603334Y-85506841D01*
X74600500Y-85480483D01*
X74600500Y-85420945D01*
X74600500Y-85420943D01*
X74559577Y-85268216D01*
X74507630Y-85178240D01*
X74480524Y-85131290D01*
X74480518Y-85131282D01*
X74368717Y-85019481D01*
X74368709Y-85019475D01*
X74231790Y-84940426D01*
X74231786Y-84940424D01*
X74231784Y-84940423D01*
X74079057Y-84899500D01*
X73920943Y-84899500D01*
X73768216Y-84940423D01*
X73768209Y-84940426D01*
X73631290Y-85019475D01*
X73631282Y-85019481D01*
X73519481Y-85131282D01*
X73519475Y-85131290D01*
X73440426Y-85268209D01*
X73440423Y-85268216D01*
X73399500Y-85420943D01*
X73399500Y-85579057D01*
X73429341Y-85690423D01*
X73440423Y-85731783D01*
X73440426Y-85731790D01*
X73519475Y-85868709D01*
X73519479Y-85868714D01*
X73519480Y-85868716D01*
X73631284Y-85980520D01*
X73631286Y-85980521D01*
X73631290Y-85980524D01*
X73721720Y-86032733D01*
X73768216Y-86059577D01*
X73920943Y-86100500D01*
X73980483Y-86100500D01*
X74047522Y-86120185D01*
X74068164Y-86136819D01*
X76650505Y-88719160D01*
X76742195Y-88772098D01*
X76844462Y-88799500D01*
X76950337Y-88799500D01*
X80863336Y-88799500D01*
X80930375Y-88819185D01*
X80976130Y-88871989D01*
X80986074Y-88941147D01*
X80973820Y-88979796D01*
X80933790Y-89058355D01*
X80933787Y-89058363D01*
X80877829Y-89230589D01*
X80849500Y-89409448D01*
X80849500Y-89590551D01*
X80877829Y-89769410D01*
X80933787Y-89941636D01*
X80933788Y-89941639D01*
X81016006Y-90102997D01*
X81122441Y-90249494D01*
X81122445Y-90249499D01*
X81250500Y-90377554D01*
X81250505Y-90377558D01*
X81349526Y-90449500D01*
X81397006Y-90483996D01*
X81499381Y-90536159D01*
X81558360Y-90566211D01*
X81558363Y-90566212D01*
X81588424Y-90575979D01*
X81730591Y-90622171D01*
X81803639Y-90633740D01*
X81890678Y-90647527D01*
X81953813Y-90677456D01*
X81990744Y-90736768D01*
X81989746Y-90806631D01*
X81951136Y-90864863D01*
X81890678Y-90892473D01*
X81730589Y-90917829D01*
X81558363Y-90973787D01*
X81558360Y-90973788D01*
X81397002Y-91056006D01*
X81250505Y-91162441D01*
X81250500Y-91162445D01*
X81122445Y-91290500D01*
X81122441Y-91290505D01*
X81016006Y-91437002D01*
X80933788Y-91598360D01*
X80933787Y-91598363D01*
X80877829Y-91770589D01*
X80849500Y-91949448D01*
X80849500Y-92130551D01*
X80877829Y-92309410D01*
X80933787Y-92481636D01*
X80933788Y-92481639D01*
X81016006Y-92642997D01*
X81122441Y-92789494D01*
X81122445Y-92789499D01*
X81250500Y-92917554D01*
X81250505Y-92917558D01*
X81302343Y-92955220D01*
X81397006Y-93023996D01*
X81493509Y-93073167D01*
X81558360Y-93106211D01*
X81558363Y-93106212D01*
X81588424Y-93115979D01*
X81730591Y-93162171D01*
X81813429Y-93175291D01*
X81909449Y-93190500D01*
X81909454Y-93190500D01*
X82090551Y-93190500D01*
X82269409Y-93162171D01*
X82318474Y-93146229D01*
X82411575Y-93115978D01*
X82481415Y-93113984D01*
X82537573Y-93146229D01*
X82888242Y-93496898D01*
X83213105Y-93821761D01*
X83213107Y-93821762D01*
X83213111Y-93821765D01*
X83285317Y-93863453D01*
X83285318Y-93863453D01*
X83304795Y-93874698D01*
X83407062Y-93902100D01*
X83407063Y-93902100D01*
X83407064Y-93902100D01*
X91802936Y-93902100D01*
X91802938Y-93902100D01*
X91905205Y-93874698D01*
X91996895Y-93821760D01*
X95538253Y-90280400D01*
X95599574Y-90246917D01*
X95669266Y-90251901D01*
X95725199Y-90293773D01*
X95733317Y-90306080D01*
X95769480Y-90368716D01*
X95881284Y-90480520D01*
X95881286Y-90480521D01*
X95881290Y-90480524D01*
X95992588Y-90544781D01*
X96018216Y-90559577D01*
X96170943Y-90600500D01*
X96230483Y-90600500D01*
X96297522Y-90620185D01*
X96318164Y-90636819D01*
X97311581Y-91630236D01*
X97345066Y-91691559D01*
X97347900Y-91717917D01*
X97347900Y-93299934D01*
X97328215Y-93366973D01*
X97275411Y-93412728D01*
X97206253Y-93422672D01*
X97191807Y-93419709D01*
X97141598Y-93406255D01*
X97079057Y-93389498D01*
X96920943Y-93389498D01*
X96768216Y-93430421D01*
X96768209Y-93430424D01*
X96631290Y-93509473D01*
X96631282Y-93509479D01*
X96519481Y-93621280D01*
X96519475Y-93621288D01*
X96440426Y-93758207D01*
X96440423Y-93758214D01*
X96399500Y-93910941D01*
X96399500Y-94069054D01*
X96440423Y-94221781D01*
X96440426Y-94221788D01*
X96519475Y-94358707D01*
X96519481Y-94358715D01*
X96561581Y-94400815D01*
X96595066Y-94462138D01*
X96597900Y-94488496D01*
X96597900Y-95949302D01*
X96578215Y-96016341D01*
X96525411Y-96062096D01*
X96456253Y-96072040D01*
X96392697Y-96043015D01*
X96386219Y-96036983D01*
X96368717Y-96019481D01*
X96368709Y-96019475D01*
X96231790Y-95940426D01*
X96231786Y-95940424D01*
X96231784Y-95940423D01*
X96079057Y-95899500D01*
X95920943Y-95899500D01*
X95768216Y-95940423D01*
X95768209Y-95940426D01*
X95631290Y-96019475D01*
X95631282Y-96019481D01*
X95519481Y-96131282D01*
X95519477Y-96131287D01*
X95482387Y-96195531D01*
X95431821Y-96243746D01*
X95363214Y-96256970D01*
X95298349Y-96231002D01*
X95267613Y-96195531D01*
X95230522Y-96131287D01*
X95230518Y-96131282D01*
X95118717Y-96019481D01*
X95118709Y-96019475D01*
X94981790Y-95940426D01*
X94981786Y-95940424D01*
X94981784Y-95940423D01*
X94829057Y-95899500D01*
X94670943Y-95899500D01*
X94518216Y-95940423D01*
X94518209Y-95940426D01*
X94381290Y-96019475D01*
X94381282Y-96019481D01*
X94269481Y-96131282D01*
X94269477Y-96131287D01*
X94232387Y-96195531D01*
X94181821Y-96243746D01*
X94113214Y-96256970D01*
X94048349Y-96231002D01*
X94017613Y-96195531D01*
X93980522Y-96131287D01*
X93980518Y-96131282D01*
X93868717Y-96019481D01*
X93868709Y-96019475D01*
X93731790Y-95940426D01*
X93731786Y-95940424D01*
X93731784Y-95940423D01*
X93579057Y-95899500D01*
X93420943Y-95899500D01*
X93268216Y-95940423D01*
X93268209Y-95940426D01*
X93131290Y-96019475D01*
X93131282Y-96019481D01*
X93019481Y-96131282D01*
X93019475Y-96131290D01*
X92940426Y-96268209D01*
X92940423Y-96268216D01*
X92899500Y-96420943D01*
X92899500Y-96579057D01*
X92935640Y-96713931D01*
X92940423Y-96731783D01*
X92940426Y-96731790D01*
X93019475Y-96868709D01*
X93019481Y-96868717D01*
X93061581Y-96910817D01*
X93095066Y-96972140D01*
X93097900Y-96998498D01*
X93097900Y-97780255D01*
X93078215Y-97847294D01*
X93061581Y-97867936D01*
X86326336Y-104603181D01*
X86299408Y-104617884D01*
X86273590Y-104634477D01*
X86267389Y-104635368D01*
X86265013Y-104636666D01*
X86238655Y-104639500D01*
X86009518Y-104639500D01*
X85942479Y-104619815D01*
X85921837Y-104603181D01*
X84688419Y-103369763D01*
X84654934Y-103308440D01*
X84652100Y-103282082D01*
X84652100Y-102998498D01*
X84671785Y-102931459D01*
X84688419Y-102910817D01*
X84704942Y-102894294D01*
X84730520Y-102868716D01*
X84809577Y-102731784D01*
X84850500Y-102579057D01*
X84850500Y-102420943D01*
X84809577Y-102268216D01*
X84781866Y-102220218D01*
X84730524Y-102131290D01*
X84730518Y-102131282D01*
X84618717Y-102019481D01*
X84618709Y-102019475D01*
X84481790Y-101940426D01*
X84481786Y-101940424D01*
X84481784Y-101940423D01*
X84329057Y-101899500D01*
X84170943Y-101899500D01*
X84018216Y-101940423D01*
X84018209Y-101940426D01*
X83881290Y-102019475D01*
X83881282Y-102019481D01*
X83769481Y-102131282D01*
X83769475Y-102131290D01*
X83690426Y-102268209D01*
X83690423Y-102268216D01*
X83649500Y-102420943D01*
X83649500Y-102579057D01*
X83685019Y-102711614D01*
X83690423Y-102731783D01*
X83690426Y-102731790D01*
X83769475Y-102868709D01*
X83769481Y-102868717D01*
X83811581Y-102910817D01*
X83826284Y-102937744D01*
X83842877Y-102963563D01*
X83843768Y-102969763D01*
X83845066Y-102972140D01*
X83847900Y-102998498D01*
X83847900Y-103059936D01*
X83828215Y-103126975D01*
X83775411Y-103172730D01*
X83706253Y-103182674D01*
X83691807Y-103179711D01*
X83641598Y-103166257D01*
X83579057Y-103149500D01*
X83420943Y-103149500D01*
X83268216Y-103190423D01*
X83268209Y-103190426D01*
X83131290Y-103269475D01*
X83131282Y-103269481D01*
X83087681Y-103313083D01*
X83026358Y-103346568D01*
X82956666Y-103341584D01*
X82912319Y-103313083D01*
X82868717Y-103269481D01*
X82868709Y-103269475D01*
X82731790Y-103190426D01*
X82731786Y-103190424D01*
X82731784Y-103190423D01*
X82579057Y-103149500D01*
X82420943Y-103149500D01*
X82268216Y-103190423D01*
X82268209Y-103190426D01*
X82131290Y-103269475D01*
X82131282Y-103269481D01*
X82019481Y-103381282D01*
X82019475Y-103381290D01*
X81940426Y-103518209D01*
X81940423Y-103518216D01*
X81899500Y-103670943D01*
X81899500Y-103829057D01*
X81930034Y-103943009D01*
X81940423Y-103981783D01*
X81940426Y-103981790D01*
X82019475Y-104118709D01*
X82019479Y-104118714D01*
X82019480Y-104118716D01*
X82131284Y-104230520D01*
X82131286Y-104230521D01*
X82131290Y-104230524D01*
X82268209Y-104309573D01*
X82268216Y-104309577D01*
X82420943Y-104350500D01*
X82480483Y-104350500D01*
X82547522Y-104370185D01*
X82568164Y-104386819D01*
X84253105Y-106071760D01*
X84344795Y-106124698D01*
X84447062Y-106152100D01*
X84552937Y-106152100D01*
X84947062Y-106152100D01*
X86229883Y-106152100D01*
X86296922Y-106171785D01*
X86342677Y-106224589D01*
X86352621Y-106293747D01*
X86323596Y-106357303D01*
X86317564Y-106363781D01*
X84928242Y-107753102D01*
X84928240Y-107753105D01*
X84875302Y-107844794D01*
X84847900Y-107947062D01*
X84847900Y-109400526D01*
X84828215Y-109467565D01*
X84775411Y-109513320D01*
X84723446Y-109523077D01*
X84723446Y-109524500D01*
X83780143Y-109524500D01*
X83780117Y-109524502D01*
X83755012Y-109527413D01*
X83755008Y-109527415D01*
X83652235Y-109572793D01*
X83572794Y-109652234D01*
X83527415Y-109755006D01*
X83527415Y-109755008D01*
X83524500Y-109780131D01*
X83524500Y-110719856D01*
X83524502Y-110719882D01*
X83527413Y-110744987D01*
X83527415Y-110744991D01*
X83572793Y-110847764D01*
X83572794Y-110847765D01*
X83652235Y-110927206D01*
X83755009Y-110972585D01*
X83780135Y-110975500D01*
X84719864Y-110975499D01*
X84719879Y-110975497D01*
X84719882Y-110975497D01*
X84744986Y-110972586D01*
X84744987Y-110972585D01*
X84744991Y-110972585D01*
X84847765Y-110927206D01*
X84847766Y-110927204D01*
X84858277Y-110922564D01*
X84859050Y-110924315D01*
X84911995Y-110907055D01*
X84963104Y-110916438D01*
X85038380Y-110947619D01*
X85038384Y-110947619D01*
X85038385Y-110947620D01*
X85178542Y-110975500D01*
X85178545Y-110975500D01*
X85321457Y-110975500D01*
X85415751Y-110956742D01*
X85461620Y-110947619D01*
X85593653Y-110892929D01*
X85712479Y-110813532D01*
X85813532Y-110712479D01*
X85892929Y-110593653D01*
X85947619Y-110461620D01*
X85975500Y-110321455D01*
X85975500Y-110178545D01*
X85975500Y-110178542D01*
X85947620Y-110038385D01*
X85947619Y-110038384D01*
X85947619Y-110038380D01*
X85892929Y-109906347D01*
X85892928Y-109906346D01*
X85892925Y-109906340D01*
X85813532Y-109787521D01*
X85813529Y-109787517D01*
X85712482Y-109686470D01*
X85712479Y-109686468D01*
X85707207Y-109682945D01*
X85662403Y-109629331D01*
X85652100Y-109579844D01*
X85652100Y-108217916D01*
X85671785Y-108150877D01*
X85688414Y-108130240D01*
X86942329Y-106876324D01*
X86968001Y-106856625D01*
X87028390Y-106821760D01*
X88481155Y-105368995D01*
X96499499Y-105368995D01*
X96526418Y-105504322D01*
X96526421Y-105504332D01*
X96579221Y-105631804D01*
X96579228Y-105631817D01*
X96655885Y-105746541D01*
X96655888Y-105746545D01*
X96746662Y-105837319D01*
X96780147Y-105898642D01*
X96775163Y-105968334D01*
X96746662Y-106012681D01*
X96655888Y-106103454D01*
X96655885Y-106103458D01*
X96579228Y-106218182D01*
X96579221Y-106218195D01*
X96526421Y-106345667D01*
X96526418Y-106345677D01*
X96499500Y-106481004D01*
X96499500Y-106481007D01*
X96499500Y-106618993D01*
X96499500Y-106618995D01*
X96499499Y-106618995D01*
X96526418Y-106754322D01*
X96526421Y-106754332D01*
X96579221Y-106881804D01*
X96579228Y-106881817D01*
X96655885Y-106996541D01*
X96655888Y-106996545D01*
X96746662Y-107087319D01*
X96780147Y-107148642D01*
X96775163Y-107218334D01*
X96746662Y-107262681D01*
X96655888Y-107353454D01*
X96655885Y-107353458D01*
X96579228Y-107468182D01*
X96579221Y-107468195D01*
X96526421Y-107595667D01*
X96526418Y-107595677D01*
X96499500Y-107731004D01*
X96499500Y-107731007D01*
X96499500Y-107868993D01*
X96499500Y-107868995D01*
X96499499Y-107868995D01*
X96526418Y-108004322D01*
X96526421Y-108004332D01*
X96579221Y-108131804D01*
X96579228Y-108131817D01*
X96655885Y-108246541D01*
X96655888Y-108246545D01*
X96753454Y-108344111D01*
X96753458Y-108344114D01*
X96868182Y-108420771D01*
X96868195Y-108420778D01*
X96995667Y-108473578D01*
X96995672Y-108473580D01*
X96995676Y-108473580D01*
X96995677Y-108473581D01*
X97131004Y-108500500D01*
X97131007Y-108500500D01*
X97268995Y-108500500D01*
X97360041Y-108482389D01*
X97404328Y-108473580D01*
X97531811Y-108420775D01*
X97646542Y-108344114D01*
X97744114Y-108246542D01*
X97820775Y-108131811D01*
X97873580Y-108004328D01*
X97900500Y-107868993D01*
X97900500Y-107731007D01*
X97900500Y-107731004D01*
X97873581Y-107595677D01*
X97873580Y-107595676D01*
X97873580Y-107595672D01*
X97866698Y-107579057D01*
X97820778Y-107468195D01*
X97820771Y-107468182D01*
X97744114Y-107353458D01*
X97744111Y-107353454D01*
X97653338Y-107262681D01*
X97619853Y-107201358D01*
X97624837Y-107131666D01*
X97653338Y-107087319D01*
X97744111Y-106996545D01*
X97744114Y-106996542D01*
X97820775Y-106881811D01*
X97873580Y-106754328D01*
X97900500Y-106618993D01*
X97900500Y-106481007D01*
X97900500Y-106481004D01*
X97873581Y-106345677D01*
X97873580Y-106345676D01*
X97873580Y-106345672D01*
X97835238Y-106253105D01*
X97820778Y-106218195D01*
X97820771Y-106218182D01*
X97744114Y-106103458D01*
X97744111Y-106103454D01*
X97653338Y-106012681D01*
X97619853Y-105951358D01*
X97624837Y-105881666D01*
X97653338Y-105837319D01*
X97744111Y-105746545D01*
X97744114Y-105746542D01*
X97820775Y-105631811D01*
X97873580Y-105504328D01*
X97882389Y-105460041D01*
X97900500Y-105368995D01*
X97900500Y-105231004D01*
X97873581Y-105095677D01*
X97873580Y-105095676D01*
X97873580Y-105095672D01*
X97826409Y-104981790D01*
X97820778Y-104968195D01*
X97820771Y-104968182D01*
X97744114Y-104853458D01*
X97744111Y-104853454D01*
X97646545Y-104755888D01*
X97646541Y-104755885D01*
X97531817Y-104679228D01*
X97531804Y-104679221D01*
X97404332Y-104626421D01*
X97404322Y-104626418D01*
X97268995Y-104599500D01*
X97268993Y-104599500D01*
X97131007Y-104599500D01*
X97131005Y-104599500D01*
X96995677Y-104626418D01*
X96995667Y-104626421D01*
X96868195Y-104679221D01*
X96868182Y-104679228D01*
X96753458Y-104755885D01*
X96753454Y-104755888D01*
X96655888Y-104853454D01*
X96655885Y-104853458D01*
X96579228Y-104968182D01*
X96579221Y-104968195D01*
X96526421Y-105095667D01*
X96526418Y-105095677D01*
X96499500Y-105231004D01*
X96499500Y-105231007D01*
X96499500Y-105368993D01*
X96499500Y-105368995D01*
X96499499Y-105368995D01*
X88481155Y-105368995D01*
X93281155Y-100568995D01*
X95549499Y-100568995D01*
X95576418Y-100704322D01*
X95576421Y-100704332D01*
X95629221Y-100831804D01*
X95629228Y-100831817D01*
X95705885Y-100946541D01*
X95705888Y-100946545D01*
X95803454Y-101044111D01*
X95803458Y-101044114D01*
X95918182Y-101120771D01*
X95918195Y-101120778D01*
X96045667Y-101173578D01*
X96045672Y-101173580D01*
X96045676Y-101173580D01*
X96045677Y-101173581D01*
X96181004Y-101200500D01*
X96181007Y-101200500D01*
X96318995Y-101200500D01*
X96410041Y-101182389D01*
X96454328Y-101173580D01*
X96581811Y-101120775D01*
X96696542Y-101044114D01*
X96794114Y-100946542D01*
X96870775Y-100831811D01*
X96923580Y-100704328D01*
X96950500Y-100568993D01*
X96950500Y-100431007D01*
X96950500Y-100431004D01*
X96923581Y-100295677D01*
X96923580Y-100295676D01*
X96923580Y-100295672D01*
X96897164Y-100231898D01*
X96870778Y-100168195D01*
X96870771Y-100168182D01*
X96794114Y-100053458D01*
X96794111Y-100053454D01*
X96696545Y-99955888D01*
X96696541Y-99955885D01*
X96581817Y-99879228D01*
X96581804Y-99879221D01*
X96454332Y-99826421D01*
X96454322Y-99826418D01*
X96318995Y-99799500D01*
X96318993Y-99799500D01*
X96181007Y-99799500D01*
X96181005Y-99799500D01*
X96045677Y-99826418D01*
X96045667Y-99826421D01*
X95918195Y-99879221D01*
X95918182Y-99879228D01*
X95803458Y-99955885D01*
X95803454Y-99955888D01*
X95705888Y-100053454D01*
X95705885Y-100053458D01*
X95629228Y-100168182D01*
X95629221Y-100168195D01*
X95576421Y-100295667D01*
X95576418Y-100295677D01*
X95549500Y-100431004D01*
X95549500Y-100431007D01*
X95549500Y-100568993D01*
X95549500Y-100568995D01*
X95549499Y-100568995D01*
X93281155Y-100568995D01*
X97136219Y-96713931D01*
X97197542Y-96680446D01*
X97267234Y-96685430D01*
X97323167Y-96727302D01*
X97347584Y-96792766D01*
X97347900Y-96801612D01*
X97347900Y-103197062D01*
X97347900Y-103302938D01*
X97375302Y-103405205D01*
X97428240Y-103496895D01*
X97428242Y-103496897D01*
X100561581Y-106630236D01*
X100595066Y-106691559D01*
X100597900Y-106717917D01*
X100597900Y-124001502D01*
X100578215Y-124068541D01*
X100561581Y-124089183D01*
X100519481Y-124131282D01*
X100519475Y-124131290D01*
X100440426Y-124268209D01*
X100440423Y-124268216D01*
X100399500Y-124420943D01*
X100399500Y-124579057D01*
X100429341Y-124690423D01*
X100440423Y-124731783D01*
X100440426Y-124731790D01*
X100519475Y-124868709D01*
X100519479Y-124868714D01*
X100519480Y-124868716D01*
X100631284Y-124980520D01*
X100631286Y-124980521D01*
X100631290Y-124980524D01*
X100768209Y-125059573D01*
X100768216Y-125059577D01*
X100920943Y-125100500D01*
X100920945Y-125100500D01*
X101079055Y-125100500D01*
X101079057Y-125100500D01*
X101231784Y-125059577D01*
X101368716Y-124980520D01*
X101480520Y-124868716D01*
X101559577Y-124731784D01*
X101600500Y-124579057D01*
X101600500Y-124420943D01*
X101559577Y-124268216D01*
X101559573Y-124268209D01*
X101480524Y-124131290D01*
X101480518Y-124131282D01*
X101438419Y-124089183D01*
X101404934Y-124027860D01*
X101402100Y-124001502D01*
X101402100Y-123520117D01*
X101421785Y-123453078D01*
X101474589Y-123407323D01*
X101543747Y-123397379D01*
X101607303Y-123426404D01*
X101613781Y-123432436D01*
X103363181Y-125181836D01*
X103396666Y-125243159D01*
X103399500Y-125269517D01*
X103399500Y-125329056D01*
X103440423Y-125481783D01*
X103440426Y-125481790D01*
X103519475Y-125618709D01*
X103519479Y-125618714D01*
X103519480Y-125618716D01*
X103631284Y-125730520D01*
X103631286Y-125730521D01*
X103631290Y-125730524D01*
X103768209Y-125809573D01*
X103768216Y-125809577D01*
X103920943Y-125850500D01*
X103920945Y-125850500D01*
X104079055Y-125850500D01*
X104079057Y-125850500D01*
X104231784Y-125809577D01*
X104368716Y-125730520D01*
X104480520Y-125618716D01*
X104559577Y-125481784D01*
X104600500Y-125329057D01*
X104600500Y-125170943D01*
X104559577Y-125018216D01*
X104537816Y-124980524D01*
X104480524Y-124881290D01*
X104480518Y-124881282D01*
X104368717Y-124769481D01*
X104368709Y-124769475D01*
X104231790Y-124690426D01*
X104231786Y-124690424D01*
X104231784Y-124690423D01*
X104079057Y-124649500D01*
X104079056Y-124649500D01*
X104019518Y-124649500D01*
X103952479Y-124629815D01*
X103931837Y-124613181D01*
X102342619Y-123023963D01*
X102309134Y-122962640D01*
X102306300Y-122936282D01*
X102306300Y-118632648D01*
X111699500Y-118632648D01*
X111699500Y-118837351D01*
X111731522Y-119039534D01*
X111794781Y-119234223D01*
X111887715Y-119416613D01*
X112008028Y-119582213D01*
X112008034Y-119582219D01*
X112152781Y-119726966D01*
X112197163Y-119759211D01*
X112239829Y-119814541D01*
X112245808Y-119884154D01*
X112213203Y-119945950D01*
X112152364Y-119980307D01*
X112139063Y-119982645D01*
X112118441Y-119985121D01*
X111977656Y-120040639D01*
X111857077Y-120132077D01*
X111765639Y-120252656D01*
X111710122Y-120393438D01*
X111704188Y-120442853D01*
X111699500Y-120481898D01*
X111699500Y-122068102D01*
X111705126Y-122114954D01*
X111710122Y-122156561D01*
X111765639Y-122297343D01*
X111857077Y-122417922D01*
X111977656Y-122509360D01*
X111977657Y-122509360D01*
X111977658Y-122509361D01*
X112118436Y-122564877D01*
X112206898Y-122575500D01*
X112206903Y-122575500D01*
X113793097Y-122575500D01*
X113793102Y-122575500D01*
X113881564Y-122564877D01*
X114022342Y-122509361D01*
X114142922Y-122417922D01*
X114234361Y-122297342D01*
X114289877Y-122156564D01*
X114300500Y-122068102D01*
X114300500Y-120481898D01*
X114289877Y-120393436D01*
X114234361Y-120252658D01*
X114234360Y-120252657D01*
X114234360Y-120252656D01*
X114142922Y-120132077D01*
X114022343Y-120040639D01*
X113949336Y-120011849D01*
X113881564Y-119985123D01*
X113881562Y-119985122D01*
X113881558Y-119985121D01*
X113860936Y-119982645D01*
X113796722Y-119955108D01*
X113757590Y-119897226D01*
X113755963Y-119827375D01*
X113792358Y-119767733D01*
X113802837Y-119759211D01*
X113847215Y-119726969D01*
X113847215Y-119726968D01*
X113847219Y-119726966D01*
X113991966Y-119582219D01*
X113991968Y-119582215D01*
X113991971Y-119582213D01*
X114044732Y-119509590D01*
X114112287Y-119416610D01*
X114205220Y-119234219D01*
X114268477Y-119039534D01*
X114300500Y-118837352D01*
X114300500Y-118632648D01*
X114268477Y-118430466D01*
X114205220Y-118235781D01*
X114205218Y-118235778D01*
X114205218Y-118235776D01*
X114171503Y-118169607D01*
X114112287Y-118053390D01*
X114104556Y-118042749D01*
X113991971Y-117887786D01*
X113847213Y-117743028D01*
X113681613Y-117622715D01*
X113681612Y-117622714D01*
X113681610Y-117622713D01*
X113624653Y-117593691D01*
X113499223Y-117529781D01*
X113304534Y-117466522D01*
X113129995Y-117438878D01*
X113102352Y-117434500D01*
X112897648Y-117434500D01*
X112873329Y-117438351D01*
X112695465Y-117466522D01*
X112500776Y-117529781D01*
X112318386Y-117622715D01*
X112152786Y-117743028D01*
X112008028Y-117887786D01*
X111887715Y-118053386D01*
X111794781Y-118235776D01*
X111731522Y-118430465D01*
X111699500Y-118632648D01*
X102306300Y-118632648D01*
X102306300Y-111897648D01*
X111699500Y-111897648D01*
X111699500Y-112102351D01*
X111731522Y-112304534D01*
X111794781Y-112499223D01*
X111887715Y-112681613D01*
X112008028Y-112847213D01*
X112008034Y-112847219D01*
X112152781Y-112991966D01*
X112197163Y-113024211D01*
X112239829Y-113079541D01*
X112245808Y-113149154D01*
X112213203Y-113210950D01*
X112152364Y-113245307D01*
X112139063Y-113247645D01*
X112118441Y-113250121D01*
X111977656Y-113305639D01*
X111857077Y-113397077D01*
X111765639Y-113517656D01*
X111710122Y-113658438D01*
X111704188Y-113707853D01*
X111699500Y-113746898D01*
X111699500Y-115333102D01*
X111705038Y-115379221D01*
X111710122Y-115421561D01*
X111765639Y-115562343D01*
X111857077Y-115682922D01*
X111977656Y-115774360D01*
X111977657Y-115774360D01*
X111977658Y-115774361D01*
X112118436Y-115829877D01*
X112206898Y-115840500D01*
X112206903Y-115840500D01*
X113793097Y-115840500D01*
X113793102Y-115840500D01*
X113881564Y-115829877D01*
X114022342Y-115774361D01*
X114142922Y-115682922D01*
X114234361Y-115562342D01*
X114289877Y-115421564D01*
X114300500Y-115333102D01*
X114300500Y-113746898D01*
X114289877Y-113658436D01*
X114234361Y-113517658D01*
X114234360Y-113517657D01*
X114234360Y-113517656D01*
X114142922Y-113397077D01*
X114022343Y-113305639D01*
X113949336Y-113276849D01*
X113881564Y-113250123D01*
X113881562Y-113250122D01*
X113881558Y-113250121D01*
X113860936Y-113247645D01*
X113796722Y-113220108D01*
X113757590Y-113162226D01*
X113755963Y-113092375D01*
X113792358Y-113032733D01*
X113802837Y-113024211D01*
X113847215Y-112991969D01*
X113847215Y-112991968D01*
X113847219Y-112991966D01*
X113991966Y-112847219D01*
X113991968Y-112847215D01*
X113991971Y-112847213D01*
X114044732Y-112774590D01*
X114112287Y-112681610D01*
X114205220Y-112499219D01*
X114268477Y-112304534D01*
X114300500Y-112102352D01*
X114300500Y-111897648D01*
X114268477Y-111695466D01*
X114205220Y-111500781D01*
X114205218Y-111500778D01*
X114205218Y-111500776D01*
X114171503Y-111434607D01*
X114112287Y-111318390D01*
X114104556Y-111307749D01*
X113991971Y-111152786D01*
X113847213Y-111008028D01*
X113681613Y-110887715D01*
X113681612Y-110887714D01*
X113681610Y-110887713D01*
X113603206Y-110847764D01*
X113499223Y-110794781D01*
X113304534Y-110731522D01*
X113129995Y-110703878D01*
X113102352Y-110699500D01*
X112897648Y-110699500D01*
X112873329Y-110703351D01*
X112695465Y-110731522D01*
X112500776Y-110794781D01*
X112318386Y-110887715D01*
X112152786Y-111008028D01*
X112008028Y-111152786D01*
X111887715Y-111318386D01*
X111794781Y-111500776D01*
X111731522Y-111695465D01*
X111699500Y-111897648D01*
X102306300Y-111897648D01*
X102306300Y-108152001D01*
X102325985Y-108084962D01*
X102378789Y-108039207D01*
X102447947Y-108029263D01*
X102492296Y-108044612D01*
X102518216Y-108059577D01*
X102670943Y-108100500D01*
X102670945Y-108100500D01*
X102829055Y-108100500D01*
X102829057Y-108100500D01*
X102981784Y-108059577D01*
X103118716Y-107980520D01*
X103230520Y-107868716D01*
X103309577Y-107731784D01*
X103350500Y-107579057D01*
X103350500Y-107420943D01*
X103309577Y-107268216D01*
X103270977Y-107201358D01*
X103230524Y-107131290D01*
X103230518Y-107131282D01*
X103118717Y-107019481D01*
X103118709Y-107019475D01*
X102981790Y-106940426D01*
X102981786Y-106940424D01*
X102981784Y-106940423D01*
X102850326Y-106905199D01*
X102790667Y-106868835D01*
X102760138Y-106805988D01*
X102768433Y-106736613D01*
X102794737Y-106697747D01*
X104078560Y-105413926D01*
X104131498Y-105322236D01*
X104158900Y-105219969D01*
X104158900Y-105114093D01*
X104158900Y-105107648D01*
X111699500Y-105107648D01*
X111699500Y-105312352D01*
X111703878Y-105339995D01*
X111731522Y-105514534D01*
X111794781Y-105709223D01*
X111858691Y-105834653D01*
X111882646Y-105881666D01*
X111887715Y-105891613D01*
X112008028Y-106057213D01*
X112008034Y-106057219D01*
X112152781Y-106201966D01*
X112183919Y-106224589D01*
X112197163Y-106234211D01*
X112239829Y-106289541D01*
X112245808Y-106359154D01*
X112213203Y-106420950D01*
X112152364Y-106455307D01*
X112139063Y-106457645D01*
X112118441Y-106460121D01*
X111977656Y-106515639D01*
X111857077Y-106607077D01*
X111765639Y-106727656D01*
X111710122Y-106868438D01*
X111705708Y-106905200D01*
X111699500Y-106956898D01*
X111699500Y-108543102D01*
X111705126Y-108589954D01*
X111710122Y-108631561D01*
X111765639Y-108772343D01*
X111857077Y-108892922D01*
X111977656Y-108984360D01*
X111977657Y-108984360D01*
X111977658Y-108984361D01*
X112118436Y-109039877D01*
X112206898Y-109050500D01*
X112206903Y-109050500D01*
X113793097Y-109050500D01*
X113793102Y-109050500D01*
X113881564Y-109039877D01*
X114022342Y-108984361D01*
X114142922Y-108892922D01*
X114234361Y-108772342D01*
X114289877Y-108631564D01*
X114300500Y-108543102D01*
X114300500Y-106956898D01*
X114289877Y-106868436D01*
X114234361Y-106727658D01*
X114234360Y-106727657D01*
X114234360Y-106727656D01*
X114142922Y-106607077D01*
X114022343Y-106515639D01*
X113934514Y-106481004D01*
X113881564Y-106460123D01*
X113881562Y-106460122D01*
X113881558Y-106460121D01*
X113860936Y-106457645D01*
X113796722Y-106430108D01*
X113757590Y-106372226D01*
X113755963Y-106302375D01*
X113792358Y-106242733D01*
X113802837Y-106234211D01*
X113824882Y-106218195D01*
X113847219Y-106201966D01*
X113991966Y-106057219D01*
X113991968Y-106057215D01*
X113991971Y-106057213D01*
X114084958Y-105929225D01*
X114112287Y-105891610D01*
X114205220Y-105709219D01*
X114268477Y-105514534D01*
X114300500Y-105312352D01*
X114300500Y-105107648D01*
X114280565Y-104981783D01*
X114268477Y-104905465D01*
X114239127Y-104815137D01*
X114205220Y-104710781D01*
X114205218Y-104710778D01*
X114205218Y-104710776D01*
X114158870Y-104619815D01*
X114112287Y-104528390D01*
X114077508Y-104480520D01*
X113991971Y-104362786D01*
X113847213Y-104218028D01*
X113681613Y-104097715D01*
X113681612Y-104097714D01*
X113681610Y-104097713D01*
X113579484Y-104045677D01*
X113499223Y-104004781D01*
X113304534Y-103941522D01*
X113129995Y-103913878D01*
X113102352Y-103909500D01*
X112897648Y-103909500D01*
X112873329Y-103913351D01*
X112695465Y-103941522D01*
X112500776Y-104004781D01*
X112318386Y-104097715D01*
X112152786Y-104218028D01*
X112008028Y-104362786D01*
X111887715Y-104528386D01*
X111794781Y-104710776D01*
X111731522Y-104905465D01*
X111701398Y-105095667D01*
X111699500Y-105107648D01*
X104158900Y-105107648D01*
X104158900Y-104280030D01*
X104131498Y-104177763D01*
X104078560Y-104086073D01*
X104003695Y-104011208D01*
X103996819Y-104004332D01*
X103963334Y-103943009D01*
X103960500Y-103916651D01*
X103960500Y-102683463D01*
X103960500Y-102683461D01*
X103933098Y-102581194D01*
X103888112Y-102503278D01*
X103871500Y-102441278D01*
X103871500Y-100527759D01*
X103871500Y-100527757D01*
X103844098Y-100425490D01*
X103791161Y-100333801D01*
X103562018Y-100104657D01*
X103528533Y-100043334D01*
X103525699Y-100016975D01*
X103525700Y-99955888D01*
X103525700Y-99860333D01*
X103525700Y-99860331D01*
X103498298Y-99758065D01*
X103452365Y-99678508D01*
X103445361Y-99666376D01*
X103370496Y-99591511D01*
X103135546Y-99356561D01*
X102342619Y-98563632D01*
X102309134Y-98502309D01*
X102306300Y-98475951D01*
X102306300Y-98382648D01*
X111699500Y-98382648D01*
X111699500Y-98587351D01*
X111731522Y-98789534D01*
X111794781Y-98984223D01*
X111887715Y-99166613D01*
X112008028Y-99332213D01*
X112008034Y-99332219D01*
X112152781Y-99476966D01*
X112180828Y-99497343D01*
X112197163Y-99509211D01*
X112239829Y-99564541D01*
X112245808Y-99634154D01*
X112213203Y-99695950D01*
X112152364Y-99730307D01*
X112139063Y-99732645D01*
X112118441Y-99735121D01*
X111977656Y-99790639D01*
X111857077Y-99882077D01*
X111765639Y-100002656D01*
X111710122Y-100143438D01*
X111705497Y-100181955D01*
X111699500Y-100231898D01*
X111699500Y-101818102D01*
X111702569Y-101843657D01*
X111710122Y-101906561D01*
X111765639Y-102047343D01*
X111857077Y-102167922D01*
X111977656Y-102259360D01*
X111977657Y-102259360D01*
X111977658Y-102259361D01*
X112118436Y-102314877D01*
X112206898Y-102325500D01*
X112206903Y-102325500D01*
X113793097Y-102325500D01*
X113793102Y-102325500D01*
X113881564Y-102314877D01*
X114022342Y-102259361D01*
X114142922Y-102167922D01*
X114234361Y-102047342D01*
X114289877Y-101906564D01*
X114300500Y-101818102D01*
X114300500Y-100231898D01*
X114289877Y-100143436D01*
X114234361Y-100002658D01*
X114234360Y-100002657D01*
X114234360Y-100002656D01*
X114142922Y-99882077D01*
X114022343Y-99790639D01*
X113949336Y-99761849D01*
X113881564Y-99735123D01*
X113881562Y-99735122D01*
X113881558Y-99735121D01*
X113860936Y-99732645D01*
X113796722Y-99705108D01*
X113757590Y-99647226D01*
X113755963Y-99577375D01*
X113792358Y-99517733D01*
X113802837Y-99509211D01*
X113847215Y-99476969D01*
X113847215Y-99476968D01*
X113847219Y-99476966D01*
X113991966Y-99332219D01*
X113991968Y-99332215D01*
X113991971Y-99332213D01*
X114044732Y-99259590D01*
X114112287Y-99166610D01*
X114205220Y-98984219D01*
X114268477Y-98789534D01*
X114300500Y-98587352D01*
X114300500Y-98382648D01*
X114268477Y-98180466D01*
X114205220Y-97985781D01*
X114205218Y-97985778D01*
X114205218Y-97985776D01*
X114171503Y-97919607D01*
X114112287Y-97803390D01*
X114095479Y-97780255D01*
X113991971Y-97637786D01*
X113847213Y-97493028D01*
X113681613Y-97372715D01*
X113681612Y-97372714D01*
X113681610Y-97372713D01*
X113624653Y-97343691D01*
X113499223Y-97279781D01*
X113304534Y-97216522D01*
X113106285Y-97185123D01*
X113102352Y-97184500D01*
X112897648Y-97184500D01*
X112893715Y-97185123D01*
X112695465Y-97216522D01*
X112500776Y-97279781D01*
X112318386Y-97372715D01*
X112152786Y-97493028D01*
X112008028Y-97637786D01*
X111887715Y-97803386D01*
X111794781Y-97985776D01*
X111731522Y-98180465D01*
X111699500Y-98382648D01*
X102306300Y-98382648D01*
X102306300Y-91647648D01*
X111699500Y-91647648D01*
X111699500Y-91852351D01*
X111731522Y-92054534D01*
X111794781Y-92249223D01*
X111887715Y-92431613D01*
X112008028Y-92597213D01*
X112008034Y-92597219D01*
X112152781Y-92741966D01*
X112155168Y-92743700D01*
X112197163Y-92774211D01*
X112239829Y-92829541D01*
X112245808Y-92899154D01*
X112213203Y-92960950D01*
X112152364Y-92995307D01*
X112139063Y-92997645D01*
X112118441Y-93000121D01*
X111977656Y-93055639D01*
X111857077Y-93147077D01*
X111765639Y-93267656D01*
X111710122Y-93408438D01*
X111704188Y-93457853D01*
X111699500Y-93496898D01*
X111699500Y-95083102D01*
X111705126Y-95129954D01*
X111710122Y-95171561D01*
X111765639Y-95312343D01*
X111857077Y-95432922D01*
X111977656Y-95524360D01*
X111977657Y-95524360D01*
X111977658Y-95524361D01*
X112118436Y-95579877D01*
X112206898Y-95590500D01*
X112206903Y-95590500D01*
X113793097Y-95590500D01*
X113793102Y-95590500D01*
X113881564Y-95579877D01*
X114022342Y-95524361D01*
X114142922Y-95432922D01*
X114234361Y-95312342D01*
X114289877Y-95171564D01*
X114300500Y-95083102D01*
X114300500Y-93496898D01*
X114289877Y-93408436D01*
X114234361Y-93267658D01*
X114234360Y-93267657D01*
X114234360Y-93267656D01*
X114142922Y-93147077D01*
X114022343Y-93055639D01*
X113924954Y-93017234D01*
X113881564Y-93000123D01*
X113881562Y-93000122D01*
X113881558Y-93000121D01*
X113860936Y-92997645D01*
X113796722Y-92970108D01*
X113757590Y-92912226D01*
X113755963Y-92842375D01*
X113792358Y-92782733D01*
X113802837Y-92774211D01*
X113847215Y-92741969D01*
X113847215Y-92741968D01*
X113847219Y-92741966D01*
X113991966Y-92597219D01*
X113991968Y-92597215D01*
X113991971Y-92597213D01*
X114097782Y-92451574D01*
X114112287Y-92431610D01*
X114205220Y-92249219D01*
X114268477Y-92054534D01*
X114300500Y-91852352D01*
X114300500Y-91647648D01*
X114268477Y-91445466D01*
X114205220Y-91250781D01*
X114205218Y-91250778D01*
X114205218Y-91250776D01*
X114164540Y-91170943D01*
X114112287Y-91068390D01*
X114075829Y-91018209D01*
X113991971Y-90902786D01*
X113847213Y-90758028D01*
X113681613Y-90637715D01*
X113681612Y-90637714D01*
X113681610Y-90637713D01*
X113619819Y-90606229D01*
X113499223Y-90544781D01*
X113304534Y-90481522D01*
X113129995Y-90453878D01*
X113102352Y-90449500D01*
X112897648Y-90449500D01*
X112873329Y-90453351D01*
X112695465Y-90481522D01*
X112500776Y-90544781D01*
X112318386Y-90637715D01*
X112152786Y-90758028D01*
X112008028Y-90902786D01*
X111887715Y-91068386D01*
X111794781Y-91250776D01*
X111731522Y-91445465D01*
X111699500Y-91647648D01*
X102306300Y-91647648D01*
X102306300Y-89492588D01*
X102325985Y-89425549D01*
X102331924Y-89417102D01*
X102334356Y-89413930D01*
X102334361Y-89413926D01*
X102387298Y-89322236D01*
X102411873Y-89230520D01*
X102414700Y-89219969D01*
X102414700Y-88280030D01*
X102387298Y-88177763D01*
X102383757Y-88171630D01*
X102334361Y-88086073D01*
X102330548Y-88082260D01*
X102323747Y-88070834D01*
X102316802Y-88043782D01*
X102306730Y-88017730D01*
X102306300Y-88007411D01*
X102306300Y-84897648D01*
X111667000Y-84897648D01*
X111667000Y-85102351D01*
X111699022Y-85304534D01*
X111762281Y-85499223D01*
X111855215Y-85681613D01*
X111975528Y-85847213D01*
X111975534Y-85847219D01*
X112120281Y-85991966D01*
X112164663Y-86024211D01*
X112207329Y-86079541D01*
X112213308Y-86149154D01*
X112180703Y-86210950D01*
X112119864Y-86245307D01*
X112106563Y-86247645D01*
X112085941Y-86250121D01*
X111945156Y-86305639D01*
X111824577Y-86397077D01*
X111733139Y-86517656D01*
X111677622Y-86658438D01*
X111673135Y-86695807D01*
X111667000Y-86746898D01*
X111667000Y-88333102D01*
X111672605Y-88379773D01*
X111677622Y-88421561D01*
X111733139Y-88562343D01*
X111824577Y-88682922D01*
X111945156Y-88774360D01*
X111945157Y-88774360D01*
X111945158Y-88774361D01*
X112085936Y-88829877D01*
X112174398Y-88840500D01*
X112174403Y-88840500D01*
X113760597Y-88840500D01*
X113760602Y-88840500D01*
X113849064Y-88829877D01*
X113989842Y-88774361D01*
X114110422Y-88682922D01*
X114201861Y-88562342D01*
X114257377Y-88421564D01*
X114268000Y-88333102D01*
X114268000Y-86746898D01*
X114257377Y-86658436D01*
X114201861Y-86517658D01*
X114201860Y-86517657D01*
X114201860Y-86517656D01*
X114110422Y-86397077D01*
X113989843Y-86305639D01*
X113916836Y-86276849D01*
X113849064Y-86250123D01*
X113849062Y-86250122D01*
X113849058Y-86250121D01*
X113828436Y-86247645D01*
X113764222Y-86220108D01*
X113725090Y-86162226D01*
X113723463Y-86092375D01*
X113759858Y-86032733D01*
X113770337Y-86024211D01*
X113772599Y-86022568D01*
X113814719Y-85991966D01*
X113959466Y-85847219D01*
X113959468Y-85847215D01*
X113959471Y-85847213D01*
X114012232Y-85774590D01*
X114079787Y-85681610D01*
X114172720Y-85499219D01*
X114235977Y-85304534D01*
X114268000Y-85102352D01*
X114268000Y-84897648D01*
X114235977Y-84695466D01*
X114172720Y-84500781D01*
X114172718Y-84500778D01*
X114172718Y-84500776D01*
X114139003Y-84434607D01*
X114079787Y-84318390D01*
X114053983Y-84282873D01*
X113959471Y-84152786D01*
X113814713Y-84008028D01*
X113649113Y-83887715D01*
X113649112Y-83887714D01*
X113649110Y-83887713D01*
X113592153Y-83858691D01*
X113466723Y-83794781D01*
X113272034Y-83731522D01*
X113097495Y-83703878D01*
X113069852Y-83699500D01*
X112865148Y-83699500D01*
X112840829Y-83703351D01*
X112662965Y-83731522D01*
X112468276Y-83794781D01*
X112285886Y-83887715D01*
X112120286Y-84008028D01*
X111975528Y-84152786D01*
X111855215Y-84318386D01*
X111762281Y-84500776D01*
X111699022Y-84695465D01*
X111667000Y-84897648D01*
X102306300Y-84897648D01*
X102306300Y-81282348D01*
X102325985Y-81215309D01*
X102342619Y-81194667D01*
X102590224Y-80947062D01*
X102873361Y-80663925D01*
X102895734Y-80625173D01*
X102899114Y-80619317D01*
X102949684Y-80571109D01*
X102974405Y-80561554D01*
X102981784Y-80559577D01*
X103118716Y-80480520D01*
X103230520Y-80368716D01*
X103309577Y-80231784D01*
X103350500Y-80079057D01*
X103350500Y-79920943D01*
X103309577Y-79768216D01*
X103286160Y-79727656D01*
X103230524Y-79631290D01*
X103230518Y-79631282D01*
X103118717Y-79519481D01*
X103118709Y-79519475D01*
X102981790Y-79440426D01*
X102981786Y-79440424D01*
X102981784Y-79440423D01*
X102829057Y-79399500D01*
X102670943Y-79399500D01*
X102518216Y-79440423D01*
X102518209Y-79440426D01*
X102381290Y-79519475D01*
X102381282Y-79519481D01*
X102269481Y-79631282D01*
X102269475Y-79631290D01*
X102190426Y-79768209D01*
X102190423Y-79768216D01*
X102149500Y-79920943D01*
X102149500Y-80079060D01*
X102149796Y-80080163D01*
X102150397Y-80085874D01*
X102150561Y-80087118D01*
X102150528Y-80087122D01*
X102153854Y-80118706D01*
X102153175Y-80131745D01*
X102149500Y-80145462D01*
X102149500Y-80202333D01*
X102149332Y-80205560D01*
X102138783Y-80235608D01*
X102129815Y-80266152D01*
X102126707Y-80270007D01*
X102126189Y-80271486D01*
X102124381Y-80272894D01*
X102113181Y-80286794D01*
X101582440Y-80817535D01*
X101582434Y-80817543D01*
X101549089Y-80875300D01*
X101549089Y-80875302D01*
X101529502Y-80909225D01*
X101502100Y-81011494D01*
X101502100Y-88128366D01*
X101482415Y-88195405D01*
X101429611Y-88241160D01*
X101360453Y-88251104D01*
X101316101Y-88235754D01*
X101237584Y-88190423D01*
X101084851Y-88149498D01*
X101083607Y-88149335D01*
X101082635Y-88148905D01*
X101077007Y-88147397D01*
X101077242Y-88146518D01*
X101019712Y-88121064D01*
X100981245Y-88062737D01*
X100980418Y-87992872D01*
X101012116Y-87938719D01*
X101082120Y-87868716D01*
X101161177Y-87731784D01*
X101202100Y-87579057D01*
X101202100Y-87420943D01*
X101161177Y-87268216D01*
X101161173Y-87268209D01*
X101082124Y-87131290D01*
X101082118Y-87131282D01*
X100970317Y-87019481D01*
X100970309Y-87019475D01*
X100833390Y-86940426D01*
X100833386Y-86940424D01*
X100833384Y-86940423D01*
X100680657Y-86899500D01*
X100526100Y-86899500D01*
X100517414Y-86896949D01*
X100508453Y-86898238D01*
X100484412Y-86887259D01*
X100459061Y-86879815D01*
X100453133Y-86872974D01*
X100444897Y-86869213D01*
X100430607Y-86846978D01*
X100413306Y-86827011D01*
X100411018Y-86816496D01*
X100407123Y-86810435D01*
X100402100Y-86775500D01*
X100402100Y-86754298D01*
X100421785Y-86687259D01*
X100438419Y-86666617D01*
X100456085Y-86648951D01*
X100486320Y-86618716D01*
X100565377Y-86481784D01*
X100606300Y-86329057D01*
X100606300Y-86170943D01*
X100565377Y-86018216D01*
X100565373Y-86018209D01*
X100486324Y-85881290D01*
X100486318Y-85881282D01*
X100374517Y-85769481D01*
X100374509Y-85769475D01*
X100237590Y-85690426D01*
X100237586Y-85690424D01*
X100237584Y-85690423D01*
X100175600Y-85673814D01*
X100084851Y-85649498D01*
X100083607Y-85649335D01*
X100082635Y-85648905D01*
X100077007Y-85647397D01*
X100077242Y-85646518D01*
X100019712Y-85621064D01*
X99981245Y-85562737D01*
X99980418Y-85492872D01*
X100012116Y-85438719D01*
X100082120Y-85368716D01*
X100161177Y-85231784D01*
X100202100Y-85079057D01*
X100202100Y-84920943D01*
X100161177Y-84768216D01*
X100119175Y-84695465D01*
X100082124Y-84631290D01*
X100082118Y-84631282D01*
X99970317Y-84519481D01*
X99970309Y-84519475D01*
X99833390Y-84440426D01*
X99833385Y-84440423D01*
X99692406Y-84402648D01*
X99632746Y-84366283D01*
X99602217Y-84303435D01*
X99600500Y-84282873D01*
X99600500Y-84170945D01*
X99600500Y-84170943D01*
X99559577Y-84018216D01*
X99559573Y-84018209D01*
X99480524Y-83881290D01*
X99480518Y-83881282D01*
X99368717Y-83769481D01*
X99368709Y-83769475D01*
X99231790Y-83690426D01*
X99231786Y-83690424D01*
X99231784Y-83690423D01*
X99079057Y-83649500D01*
X99079056Y-83649500D01*
X99041503Y-83649500D01*
X98974464Y-83629815D01*
X98928709Y-83577011D01*
X98921728Y-83557594D01*
X98911177Y-83518216D01*
X98911173Y-83518209D01*
X98832124Y-83381290D01*
X98832118Y-83381282D01*
X98720317Y-83269481D01*
X98720309Y-83269475D01*
X98583390Y-83190426D01*
X98583386Y-83190424D01*
X98583384Y-83190423D01*
X98430657Y-83149500D01*
X98425686Y-83149500D01*
X98358647Y-83129815D01*
X98312892Y-83077011D01*
X98302948Y-83007853D01*
X98307912Y-82989752D01*
X98307473Y-82989635D01*
X98318752Y-82947542D01*
X98350500Y-82829057D01*
X98350500Y-82670943D01*
X98309577Y-82518216D01*
X98309573Y-82518209D01*
X98230524Y-82381290D01*
X98230518Y-82381282D01*
X98118717Y-82269481D01*
X98118709Y-82269475D01*
X97981790Y-82190426D01*
X97981786Y-82190424D01*
X97981784Y-82190423D01*
X97829057Y-82149500D01*
X97670943Y-82149500D01*
X97518216Y-82190423D01*
X97518209Y-82190426D01*
X97381290Y-82269475D01*
X97381282Y-82269481D01*
X97269481Y-82381282D01*
X97269475Y-82381290D01*
X97190426Y-82518209D01*
X97190423Y-82518216D01*
X97149500Y-82670943D01*
X97149500Y-82829057D01*
X97164817Y-82886219D01*
X97190423Y-82981783D01*
X97190426Y-82981790D01*
X97269475Y-83118709D01*
X97269481Y-83118717D01*
X97311581Y-83160817D01*
X97345066Y-83222140D01*
X97347900Y-83248498D01*
X97347900Y-85782083D01*
X97328215Y-85849122D01*
X97311581Y-85869764D01*
X90473964Y-92707381D01*
X90412641Y-92740866D01*
X90386283Y-92743700D01*
X85863718Y-92743700D01*
X85796679Y-92724015D01*
X85776037Y-92707381D01*
X83106229Y-90037573D01*
X83072744Y-89976250D01*
X83075978Y-89911576D01*
X83122171Y-89769409D01*
X83130289Y-89718155D01*
X83150500Y-89590551D01*
X83150500Y-89409449D01*
X83131303Y-89288251D01*
X83127340Y-89263227D01*
X83136294Y-89193935D01*
X83181290Y-89140483D01*
X83248042Y-89119843D01*
X83315355Y-89138568D01*
X83337494Y-89156149D01*
X85363181Y-91181836D01*
X85396666Y-91243159D01*
X85399500Y-91269517D01*
X85399500Y-91329057D01*
X85431120Y-91447062D01*
X85440423Y-91481783D01*
X85440426Y-91481790D01*
X85519475Y-91618709D01*
X85519479Y-91618714D01*
X85519480Y-91618716D01*
X85631284Y-91730520D01*
X85631286Y-91730521D01*
X85631290Y-91730524D01*
X85768209Y-91809573D01*
X85768216Y-91809577D01*
X85920943Y-91850500D01*
X85920945Y-91850500D01*
X86079055Y-91850500D01*
X86079057Y-91850500D01*
X86231784Y-91809577D01*
X86368716Y-91730520D01*
X86480520Y-91618716D01*
X86559577Y-91481784D01*
X86600500Y-91329057D01*
X86600500Y-91170943D01*
X86559577Y-91018216D01*
X86501619Y-90917829D01*
X86480524Y-90881290D01*
X86480518Y-90881282D01*
X86368717Y-90769481D01*
X86368709Y-90769475D01*
X86231790Y-90690426D01*
X86231786Y-90690424D01*
X86231784Y-90690423D01*
X86079057Y-90649500D01*
X86079056Y-90649500D01*
X86019518Y-90649500D01*
X85990077Y-90640855D01*
X85960091Y-90634332D01*
X85955075Y-90630577D01*
X85952479Y-90629815D01*
X85931837Y-90613181D01*
X85854815Y-90536159D01*
X85821330Y-90474836D01*
X85826314Y-90405144D01*
X85868186Y-90349211D01*
X85910400Y-90328703D01*
X85981784Y-90309577D01*
X86118716Y-90230520D01*
X86230520Y-90118716D01*
X86309577Y-89981784D01*
X86350500Y-89829057D01*
X86350500Y-89670943D01*
X86309577Y-89518216D01*
X86264664Y-89440423D01*
X86230524Y-89381290D01*
X86230518Y-89381282D01*
X86118717Y-89269481D01*
X86118709Y-89269475D01*
X85981790Y-89190426D01*
X85981786Y-89190424D01*
X85981784Y-89190423D01*
X85829057Y-89149500D01*
X85829056Y-89149500D01*
X85769517Y-89149500D01*
X85702478Y-89129815D01*
X85681836Y-89113181D01*
X85442550Y-88873895D01*
X85409065Y-88812572D01*
X85414049Y-88742880D01*
X85455921Y-88686947D01*
X85521385Y-88662530D01*
X85562323Y-88666439D01*
X85595984Y-88675459D01*
X85595986Y-88675459D01*
X85754096Y-88675459D01*
X85754098Y-88675459D01*
X85906825Y-88634536D01*
X86043757Y-88555479D01*
X86155561Y-88443675D01*
X86234618Y-88306743D01*
X86275541Y-88154016D01*
X86275541Y-87995902D01*
X86234618Y-87843175D01*
X86198533Y-87780674D01*
X86182061Y-87712776D01*
X86204913Y-87646749D01*
X86218231Y-87631004D01*
X86230520Y-87618716D01*
X86309577Y-87481784D01*
X86350500Y-87329057D01*
X86350500Y-87170943D01*
X86309577Y-87018216D01*
X86283105Y-86972364D01*
X86230524Y-86881290D01*
X86230518Y-86881282D01*
X86188419Y-86839183D01*
X86173715Y-86812255D01*
X86157123Y-86786437D01*
X86156231Y-86780236D01*
X86154934Y-86777860D01*
X86152100Y-86751502D01*
X86152100Y-86664396D01*
X86171785Y-86597357D01*
X86224589Y-86551602D01*
X86244009Y-86544621D01*
X86247739Y-86543622D01*
X86384671Y-86464565D01*
X86496475Y-86352761D01*
X86575532Y-86215829D01*
X86616455Y-86063102D01*
X86616455Y-85904988D01*
X86575532Y-85752261D01*
X86546627Y-85702195D01*
X86496479Y-85615335D01*
X86496473Y-85615327D01*
X86454374Y-85573228D01*
X86420889Y-85511905D01*
X86418055Y-85485547D01*
X86418055Y-84963019D01*
X86418055Y-84963017D01*
X86390653Y-84860750D01*
X86361108Y-84809577D01*
X86337716Y-84769060D01*
X79380835Y-77812180D01*
X79347351Y-77750858D01*
X79352335Y-77681166D01*
X79394207Y-77625233D01*
X79459671Y-77600816D01*
X79468517Y-77600500D01*
X79579055Y-77600500D01*
X79579057Y-77600500D01*
X79731784Y-77559577D01*
X79868716Y-77480520D01*
X79879821Y-77469415D01*
X79941144Y-77435930D01*
X79967502Y-77433096D01*
X81563079Y-77433096D01*
X81630118Y-77452781D01*
X81650760Y-77469415D01*
X85311581Y-81130236D01*
X85345066Y-81191559D01*
X85347900Y-81217917D01*
X85347900Y-81302938D01*
X85375302Y-81405205D01*
X85428240Y-81496895D01*
X85428242Y-81496897D01*
X87863181Y-83931836D01*
X87896666Y-83993159D01*
X87899500Y-84019517D01*
X87899500Y-84079057D01*
X87940086Y-84230524D01*
X87940423Y-84231783D01*
X87940426Y-84231790D01*
X88019475Y-84368709D01*
X88019479Y-84368714D01*
X88019480Y-84368716D01*
X88131284Y-84480520D01*
X88131286Y-84480521D01*
X88131290Y-84480524D01*
X88198765Y-84519480D01*
X88268216Y-84559577D01*
X88420943Y-84600500D01*
X88420945Y-84600500D01*
X88579055Y-84600500D01*
X88579057Y-84600500D01*
X88731784Y-84559577D01*
X88868716Y-84480520D01*
X88980520Y-84368716D01*
X89059577Y-84231784D01*
X89100500Y-84079057D01*
X89100500Y-83920943D01*
X89059577Y-83768216D01*
X89059573Y-83768209D01*
X88980524Y-83631290D01*
X88980518Y-83631282D01*
X88868717Y-83519481D01*
X88868709Y-83519475D01*
X88731790Y-83440426D01*
X88731786Y-83440424D01*
X88731784Y-83440423D01*
X88579057Y-83399500D01*
X88579056Y-83399500D01*
X88519517Y-83399500D01*
X88452478Y-83379815D01*
X88431836Y-83363181D01*
X86188419Y-81119764D01*
X86154934Y-81058441D01*
X86152100Y-81032083D01*
X86152100Y-80947064D01*
X86152100Y-80947062D01*
X86124698Y-80844795D01*
X86071760Y-80753105D01*
X85996895Y-80678240D01*
X83989598Y-78670943D01*
X85399500Y-78670943D01*
X85399500Y-78829057D01*
X85433068Y-78954332D01*
X85440423Y-78981783D01*
X85440426Y-78981790D01*
X85519475Y-79118709D01*
X85519479Y-79118714D01*
X85519480Y-79118716D01*
X85631284Y-79230520D01*
X85631286Y-79230521D01*
X85631290Y-79230524D01*
X85733512Y-79289541D01*
X85768216Y-79309577D01*
X85920943Y-79350500D01*
X85920945Y-79350500D01*
X86079055Y-79350500D01*
X86079057Y-79350500D01*
X86231784Y-79309577D01*
X86368716Y-79230520D01*
X86480520Y-79118716D01*
X86559577Y-78981784D01*
X86600500Y-78829057D01*
X86600500Y-78818995D01*
X87799499Y-78818995D01*
X87826418Y-78954322D01*
X87826421Y-78954332D01*
X87879221Y-79081804D01*
X87879228Y-79081817D01*
X87955885Y-79196541D01*
X87955888Y-79196545D01*
X88053454Y-79294111D01*
X88053458Y-79294114D01*
X88168182Y-79370771D01*
X88168195Y-79370778D01*
X88295667Y-79423578D01*
X88295672Y-79423580D01*
X88295676Y-79423580D01*
X88295677Y-79423581D01*
X88431004Y-79450500D01*
X88431007Y-79450500D01*
X88568995Y-79450500D01*
X88671510Y-79430108D01*
X88704328Y-79423580D01*
X88831811Y-79370775D01*
X88946542Y-79294114D01*
X89044114Y-79196542D01*
X89120775Y-79081811D01*
X89173580Y-78954328D01*
X89186055Y-78891613D01*
X89200500Y-78818995D01*
X89200500Y-78681004D01*
X89173581Y-78545677D01*
X89173580Y-78545676D01*
X89173580Y-78545672D01*
X89173578Y-78545667D01*
X89120778Y-78418195D01*
X89120771Y-78418182D01*
X89044114Y-78303458D01*
X89044111Y-78303454D01*
X88946545Y-78205888D01*
X88946537Y-78205882D01*
X88946527Y-78205875D01*
X88831817Y-78129228D01*
X88831804Y-78129221D01*
X88779722Y-78107648D01*
X111699500Y-78107648D01*
X111699500Y-78312351D01*
X111731522Y-78514534D01*
X111794781Y-78709223D01*
X111887715Y-78891613D01*
X112008028Y-79057213D01*
X112008034Y-79057219D01*
X112152781Y-79201966D01*
X112192080Y-79230518D01*
X112197163Y-79234211D01*
X112239829Y-79289541D01*
X112245808Y-79359154D01*
X112213203Y-79420950D01*
X112152364Y-79455307D01*
X112139063Y-79457645D01*
X112118441Y-79460121D01*
X111977656Y-79515639D01*
X111857077Y-79607077D01*
X111765639Y-79727656D01*
X111710122Y-79868438D01*
X111704188Y-79917853D01*
X111699500Y-79956898D01*
X111699500Y-81543102D01*
X111705126Y-81589954D01*
X111710122Y-81631561D01*
X111765639Y-81772343D01*
X111857077Y-81892922D01*
X111977656Y-81984360D01*
X111977657Y-81984360D01*
X111977658Y-81984361D01*
X112118436Y-82039877D01*
X112206898Y-82050500D01*
X112206903Y-82050500D01*
X113793097Y-82050500D01*
X113793102Y-82050500D01*
X113881564Y-82039877D01*
X114022342Y-81984361D01*
X114142922Y-81892922D01*
X114234361Y-81772342D01*
X114289877Y-81631564D01*
X114300500Y-81543102D01*
X114300500Y-79956898D01*
X114289877Y-79868436D01*
X114234361Y-79727658D01*
X114234360Y-79727657D01*
X114234360Y-79727656D01*
X114142922Y-79607077D01*
X114022343Y-79515639D01*
X113949336Y-79486849D01*
X113881564Y-79460123D01*
X113881562Y-79460122D01*
X113881558Y-79460121D01*
X113860936Y-79457645D01*
X113796722Y-79430108D01*
X113757590Y-79372226D01*
X113755963Y-79302375D01*
X113792358Y-79242733D01*
X113802837Y-79234211D01*
X113847215Y-79201969D01*
X113847215Y-79201968D01*
X113847219Y-79201966D01*
X113991966Y-79057219D01*
X113991968Y-79057215D01*
X113991971Y-79057213D01*
X114066724Y-78954322D01*
X114112287Y-78891610D01*
X114205220Y-78709219D01*
X114268477Y-78514534D01*
X114300500Y-78312352D01*
X114300500Y-78107648D01*
X114268477Y-77905466D01*
X114262937Y-77888417D01*
X114205218Y-77710776D01*
X114149028Y-77600499D01*
X114112287Y-77528390D01*
X114104556Y-77517749D01*
X113991971Y-77362786D01*
X113847213Y-77218028D01*
X113681613Y-77097715D01*
X113681612Y-77097714D01*
X113681610Y-77097713D01*
X113573985Y-77042875D01*
X113499223Y-77004781D01*
X113304534Y-76941522D01*
X113129995Y-76913878D01*
X113102352Y-76909500D01*
X112897648Y-76909500D01*
X112873329Y-76913351D01*
X112695465Y-76941522D01*
X112500776Y-77004781D01*
X112318386Y-77097715D01*
X112152786Y-77218028D01*
X112008028Y-77362786D01*
X111887715Y-77528386D01*
X111794781Y-77710776D01*
X111731522Y-77905465D01*
X111699500Y-78107648D01*
X88779722Y-78107648D01*
X88704332Y-78076421D01*
X88704322Y-78076418D01*
X88568995Y-78049500D01*
X88568993Y-78049500D01*
X88431007Y-78049500D01*
X88431005Y-78049500D01*
X88295677Y-78076418D01*
X88295667Y-78076421D01*
X88168195Y-78129221D01*
X88168182Y-78129228D01*
X88053458Y-78205885D01*
X88053454Y-78205888D01*
X87955888Y-78303454D01*
X87955885Y-78303458D01*
X87879228Y-78418182D01*
X87879221Y-78418195D01*
X87826421Y-78545667D01*
X87826418Y-78545677D01*
X87799500Y-78681004D01*
X87799500Y-78681007D01*
X87799500Y-78818993D01*
X87799500Y-78818995D01*
X87799499Y-78818995D01*
X86600500Y-78818995D01*
X86600500Y-78670943D01*
X86559577Y-78518216D01*
X86557451Y-78514534D01*
X86480524Y-78381290D01*
X86480518Y-78381282D01*
X86368717Y-78269481D01*
X86368709Y-78269475D01*
X86231790Y-78190426D01*
X86231786Y-78190424D01*
X86231784Y-78190423D01*
X86079057Y-78149500D01*
X85920943Y-78149500D01*
X85768216Y-78190423D01*
X85768209Y-78190426D01*
X85631290Y-78269475D01*
X85631282Y-78269481D01*
X85519481Y-78381282D01*
X85519475Y-78381290D01*
X85440426Y-78518209D01*
X85440423Y-78518216D01*
X85399500Y-78670943D01*
X83989598Y-78670943D01*
X82030836Y-76712181D01*
X81997351Y-76650858D01*
X82002335Y-76581166D01*
X82044207Y-76525233D01*
X82109671Y-76500816D01*
X82118517Y-76500500D01*
X116250500Y-76500500D01*
X116317539Y-76520185D01*
X116363294Y-76572989D01*
X116374500Y-76624500D01*
X116374500Y-135125500D01*
X116354815Y-135192539D01*
X116302011Y-135238294D01*
X116250500Y-135249500D01*
X102540519Y-135249500D01*
X102473480Y-135229815D01*
X102427725Y-135177011D01*
X102417781Y-135107853D01*
X102446806Y-135044297D01*
X102452838Y-135037819D01*
X102544111Y-134946545D01*
X102544114Y-134946542D01*
X102620775Y-134831811D01*
X102673580Y-134704328D01*
X102700500Y-134568993D01*
X102700500Y-134431007D01*
X102700500Y-134431004D01*
X102673581Y-134295677D01*
X102673580Y-134295676D01*
X102673580Y-134295672D01*
X102673578Y-134295667D01*
X102620778Y-134168195D01*
X102620771Y-134168182D01*
X102544114Y-134053458D01*
X102544111Y-134053454D01*
X102446545Y-133955888D01*
X102446541Y-133955885D01*
X102331817Y-133879228D01*
X102331804Y-133879221D01*
X102204332Y-133826421D01*
X102204322Y-133826418D01*
X102068995Y-133799500D01*
X102068993Y-133799500D01*
X101931007Y-133799500D01*
X101931005Y-133799500D01*
X101795677Y-133826418D01*
X101795667Y-133826421D01*
X101668195Y-133879221D01*
X101668182Y-133879228D01*
X101553458Y-133955885D01*
X101553454Y-133955888D01*
X101455888Y-134053454D01*
X101455885Y-134053458D01*
X101379228Y-134168182D01*
X101379221Y-134168195D01*
X101326421Y-134295667D01*
X101326418Y-134295677D01*
X101299500Y-134431004D01*
X101299500Y-134431007D01*
X101299500Y-134568993D01*
X101299500Y-134568995D01*
X101299499Y-134568995D01*
X101326418Y-134704322D01*
X101326421Y-134704332D01*
X101379221Y-134831804D01*
X101379228Y-134831817D01*
X101455885Y-134946541D01*
X101455888Y-134946545D01*
X101547162Y-135037819D01*
X101580647Y-135099142D01*
X101575663Y-135168834D01*
X101533791Y-135224767D01*
X101468327Y-135249184D01*
X101459481Y-135249500D01*
X72999500Y-135249500D01*
X72932461Y-135229815D01*
X72886706Y-135177011D01*
X72875500Y-135125500D01*
X72875500Y-132318995D01*
X81799499Y-132318995D01*
X81826418Y-132454322D01*
X81826421Y-132454332D01*
X81879221Y-132581804D01*
X81879228Y-132581817D01*
X81955885Y-132696541D01*
X81955888Y-132696545D01*
X82053454Y-132794111D01*
X82053458Y-132794114D01*
X82168182Y-132870771D01*
X82168195Y-132870778D01*
X82295667Y-132923578D01*
X82295672Y-132923580D01*
X82295676Y-132923580D01*
X82295677Y-132923581D01*
X82431004Y-132950500D01*
X82431007Y-132950500D01*
X82568995Y-132950500D01*
X82660041Y-132932389D01*
X82704328Y-132923580D01*
X82831811Y-132870775D01*
X82946542Y-132794114D01*
X83044114Y-132696542D01*
X83120775Y-132581811D01*
X83173580Y-132454328D01*
X83200500Y-132318993D01*
X83200500Y-132181007D01*
X83200500Y-132181004D01*
X83173581Y-132045677D01*
X83173580Y-132045676D01*
X83173580Y-132045672D01*
X83135746Y-131954332D01*
X83120778Y-131918195D01*
X83120771Y-131918182D01*
X83044114Y-131803458D01*
X83044111Y-131803454D01*
X82946545Y-131705888D01*
X82946541Y-131705885D01*
X82831817Y-131629228D01*
X82831804Y-131629221D01*
X82704332Y-131576421D01*
X82704322Y-131576418D01*
X82568995Y-131549500D01*
X82568993Y-131549500D01*
X82431007Y-131549500D01*
X82431005Y-131549500D01*
X82295677Y-131576418D01*
X82295667Y-131576421D01*
X82168195Y-131629221D01*
X82168182Y-131629228D01*
X82053458Y-131705885D01*
X82053454Y-131705888D01*
X81955888Y-131803454D01*
X81955885Y-131803458D01*
X81879228Y-131918182D01*
X81879221Y-131918195D01*
X81826421Y-132045667D01*
X81826418Y-132045677D01*
X81799500Y-132181004D01*
X81799500Y-132181007D01*
X81799500Y-132318993D01*
X81799500Y-132318995D01*
X81799499Y-132318995D01*
X72875500Y-132318995D01*
X72875500Y-130711898D01*
X86859500Y-130711898D01*
X86859500Y-132298102D01*
X86862009Y-132318993D01*
X86870122Y-132386561D01*
X86870122Y-132386563D01*
X86870123Y-132386564D01*
X86884720Y-132423578D01*
X86925639Y-132527343D01*
X87017077Y-132647922D01*
X87137656Y-132739360D01*
X87137657Y-132739360D01*
X87137658Y-132739361D01*
X87278436Y-132794877D01*
X87366898Y-132805500D01*
X87366903Y-132805500D01*
X88953097Y-132805500D01*
X88953102Y-132805500D01*
X89041564Y-132794877D01*
X89182342Y-132739361D01*
X89302922Y-132647922D01*
X89394361Y-132527342D01*
X89449877Y-132386564D01*
X89460500Y-132298102D01*
X89460500Y-131818995D01*
X97049499Y-131818995D01*
X97076418Y-131954322D01*
X97076421Y-131954332D01*
X97129221Y-132081804D01*
X97129228Y-132081817D01*
X97205885Y-132196541D01*
X97205888Y-132196545D01*
X97303454Y-132294111D01*
X97303458Y-132294114D01*
X97418182Y-132370771D01*
X97418195Y-132370778D01*
X97545667Y-132423578D01*
X97545672Y-132423580D01*
X97545676Y-132423580D01*
X97545677Y-132423581D01*
X97681004Y-132450500D01*
X97681007Y-132450500D01*
X97818995Y-132450500D01*
X97910041Y-132432389D01*
X97954328Y-132423580D01*
X98081811Y-132370775D01*
X98196542Y-132294114D01*
X98294114Y-132196542D01*
X98370775Y-132081811D01*
X98423580Y-131954328D01*
X98432546Y-131909248D01*
X98434854Y-131897648D01*
X108659500Y-131897648D01*
X108659500Y-132102351D01*
X108691522Y-132304534D01*
X108754781Y-132499223D01*
X108847715Y-132681613D01*
X108968028Y-132847213D01*
X109112786Y-132991971D01*
X109267749Y-133104556D01*
X109278390Y-133112287D01*
X109394607Y-133171503D01*
X109460776Y-133205218D01*
X109460778Y-133205218D01*
X109460781Y-133205220D01*
X109550465Y-133234360D01*
X109655465Y-133268477D01*
X109756557Y-133284488D01*
X109857648Y-133300500D01*
X109857649Y-133300500D01*
X110062351Y-133300500D01*
X110062352Y-133300500D01*
X110264534Y-133268477D01*
X110459219Y-133205220D01*
X110641610Y-133112287D01*
X110734590Y-133044732D01*
X110807213Y-132991971D01*
X110807215Y-132991968D01*
X110807219Y-132991966D01*
X110951966Y-132847219D01*
X110984211Y-132802836D01*
X111039540Y-132760171D01*
X111109153Y-132754190D01*
X111170949Y-132786795D01*
X111205307Y-132847633D01*
X111207645Y-132860936D01*
X111210121Y-132881558D01*
X111210122Y-132881562D01*
X111210123Y-132881564D01*
X111236849Y-132949336D01*
X111265639Y-133022343D01*
X111357077Y-133142922D01*
X111477656Y-133234360D01*
X111477657Y-133234360D01*
X111477658Y-133234361D01*
X111618436Y-133289877D01*
X111706898Y-133300500D01*
X111706903Y-133300500D01*
X113293097Y-133300500D01*
X113293102Y-133300500D01*
X113381564Y-133289877D01*
X113522342Y-133234361D01*
X113642922Y-133142922D01*
X113734361Y-133022342D01*
X113789877Y-132881564D01*
X113800500Y-132793102D01*
X113800500Y-131206898D01*
X113789877Y-131118436D01*
X113734361Y-130977658D01*
X113734360Y-130977657D01*
X113734360Y-130977656D01*
X113642922Y-130857077D01*
X113522343Y-130765639D01*
X113426192Y-130727722D01*
X113381564Y-130710123D01*
X113381563Y-130710122D01*
X113381561Y-130710122D01*
X113335926Y-130704642D01*
X113293102Y-130699500D01*
X111706898Y-130699500D01*
X111667853Y-130704188D01*
X111618438Y-130710122D01*
X111477656Y-130765639D01*
X111357077Y-130857077D01*
X111265639Y-130977656D01*
X111210121Y-131118441D01*
X111207645Y-131139063D01*
X111180108Y-131203277D01*
X111122225Y-131242410D01*
X111052374Y-131244036D01*
X110992733Y-131207640D01*
X110984211Y-131197163D01*
X110951966Y-131152781D01*
X110807219Y-131008034D01*
X110807213Y-131008028D01*
X110641613Y-130887715D01*
X110641612Y-130887714D01*
X110641610Y-130887713D01*
X110581484Y-130857077D01*
X110459223Y-130794781D01*
X110264534Y-130731522D01*
X110089995Y-130703878D01*
X110062352Y-130699500D01*
X109857648Y-130699500D01*
X109833329Y-130703351D01*
X109655465Y-130731522D01*
X109460776Y-130794781D01*
X109278386Y-130887715D01*
X109112786Y-131008028D01*
X108968028Y-131152786D01*
X108847715Y-131318386D01*
X108754781Y-131500776D01*
X108691522Y-131695465D01*
X108659500Y-131897648D01*
X98434854Y-131897648D01*
X98440636Y-131868585D01*
X98440636Y-131868584D01*
X98450500Y-131818995D01*
X98450500Y-131681004D01*
X98423581Y-131545677D01*
X98423580Y-131545676D01*
X98423580Y-131545672D01*
X98404984Y-131500776D01*
X98370778Y-131418195D01*
X98370771Y-131418182D01*
X98294114Y-131303458D01*
X98294111Y-131303454D01*
X98196545Y-131205888D01*
X98196541Y-131205885D01*
X98081817Y-131129228D01*
X98081804Y-131129221D01*
X97954332Y-131076421D01*
X97954322Y-131076418D01*
X97818995Y-131049500D01*
X97818993Y-131049500D01*
X97681007Y-131049500D01*
X97681005Y-131049500D01*
X97545677Y-131076418D01*
X97545667Y-131076421D01*
X97418195Y-131129221D01*
X97418182Y-131129228D01*
X97303458Y-131205885D01*
X97303454Y-131205888D01*
X97205888Y-131303454D01*
X97205885Y-131303458D01*
X97129228Y-131418182D01*
X97129221Y-131418195D01*
X97076421Y-131545667D01*
X97076418Y-131545677D01*
X97049500Y-131681004D01*
X97049500Y-131681007D01*
X97049500Y-131818993D01*
X97049500Y-131818995D01*
X97049499Y-131818995D01*
X89460500Y-131818995D01*
X89460500Y-130711898D01*
X89449877Y-130623436D01*
X89394361Y-130482658D01*
X89394360Y-130482657D01*
X89394360Y-130482656D01*
X89302922Y-130362077D01*
X89182343Y-130270639D01*
X89041561Y-130215122D01*
X88995926Y-130209642D01*
X88953102Y-130204500D01*
X87366898Y-130204500D01*
X87327853Y-130209188D01*
X87278438Y-130215122D01*
X87137656Y-130270639D01*
X87017077Y-130362077D01*
X86925639Y-130482656D01*
X86870122Y-130623438D01*
X86864188Y-130672853D01*
X86859500Y-130711898D01*
X72875500Y-130711898D01*
X72875500Y-127068995D01*
X81799499Y-127068995D01*
X81826418Y-127204322D01*
X81826421Y-127204332D01*
X81879221Y-127331804D01*
X81879228Y-127331817D01*
X81955885Y-127446541D01*
X81955888Y-127446545D01*
X82053454Y-127544111D01*
X82053458Y-127544114D01*
X82168182Y-127620771D01*
X82168195Y-127620778D01*
X82295667Y-127673578D01*
X82295672Y-127673580D01*
X82295676Y-127673580D01*
X82295677Y-127673581D01*
X82431004Y-127700500D01*
X82431007Y-127700500D01*
X82568995Y-127700500D01*
X82660041Y-127682389D01*
X82704328Y-127673580D01*
X82831811Y-127620775D01*
X82946542Y-127544114D01*
X83044114Y-127446542D01*
X83120775Y-127331811D01*
X83173580Y-127204328D01*
X83200500Y-127068993D01*
X83200500Y-126931007D01*
X83200500Y-126931004D01*
X83173581Y-126795677D01*
X83173580Y-126795676D01*
X83173580Y-126795672D01*
X83173578Y-126795667D01*
X83120778Y-126668195D01*
X83120771Y-126668182D01*
X83044114Y-126553458D01*
X83044111Y-126553454D01*
X82946545Y-126455888D01*
X82946541Y-126455885D01*
X82831817Y-126379228D01*
X82831804Y-126379221D01*
X82704332Y-126326421D01*
X82704322Y-126326418D01*
X82568995Y-126299500D01*
X82568993Y-126299500D01*
X82431007Y-126299500D01*
X82431005Y-126299500D01*
X82295677Y-126326418D01*
X82295667Y-126326421D01*
X82168195Y-126379221D01*
X82168182Y-126379228D01*
X82053458Y-126455885D01*
X82053454Y-126455888D01*
X81955888Y-126553454D01*
X81955885Y-126553458D01*
X81879228Y-126668182D01*
X81879221Y-126668195D01*
X81826421Y-126795667D01*
X81826418Y-126795677D01*
X81799500Y-126931004D01*
X81799500Y-126931007D01*
X81799500Y-127068993D01*
X81799500Y-127068995D01*
X81799499Y-127068995D01*
X72875500Y-127068995D01*
X72875500Y-116068995D01*
X91799499Y-116068995D01*
X91826418Y-116204322D01*
X91826421Y-116204332D01*
X91879221Y-116331804D01*
X91879228Y-116331817D01*
X91955885Y-116446541D01*
X91955888Y-116446545D01*
X92053454Y-116544111D01*
X92053458Y-116544114D01*
X92168182Y-116620771D01*
X92168195Y-116620778D01*
X92295667Y-116673578D01*
X92295672Y-116673580D01*
X92295676Y-116673580D01*
X92295677Y-116673581D01*
X92431004Y-116700500D01*
X92431007Y-116700500D01*
X92568995Y-116700500D01*
X92660041Y-116682389D01*
X92704328Y-116673580D01*
X92831811Y-116620775D01*
X92946542Y-116544114D01*
X93044114Y-116446542D01*
X93120775Y-116331811D01*
X93173580Y-116204328D01*
X93200500Y-116068995D01*
X95299499Y-116068995D01*
X95326418Y-116204322D01*
X95326421Y-116204332D01*
X95379221Y-116331804D01*
X95379228Y-116331817D01*
X95455885Y-116446541D01*
X95455888Y-116446545D01*
X95553454Y-116544111D01*
X95553458Y-116544114D01*
X95668182Y-116620771D01*
X95668195Y-116620778D01*
X95795667Y-116673578D01*
X95795672Y-116673580D01*
X95795676Y-116673580D01*
X95795677Y-116673581D01*
X95931004Y-116700500D01*
X95931007Y-116700500D01*
X96068995Y-116700500D01*
X96160041Y-116682389D01*
X96204328Y-116673580D01*
X96331811Y-116620775D01*
X96446542Y-116544114D01*
X96544114Y-116446542D01*
X96620775Y-116331811D01*
X96673580Y-116204328D01*
X96700500Y-116068995D01*
X98549499Y-116068995D01*
X98576418Y-116204322D01*
X98576421Y-116204332D01*
X98629221Y-116331804D01*
X98629228Y-116331817D01*
X98705885Y-116446541D01*
X98705888Y-116446545D01*
X98803454Y-116544111D01*
X98803458Y-116544114D01*
X98918182Y-116620771D01*
X98918195Y-116620778D01*
X99045667Y-116673578D01*
X99045672Y-116673580D01*
X99045676Y-116673580D01*
X99045677Y-116673581D01*
X99181004Y-116700500D01*
X99181007Y-116700500D01*
X99318995Y-116700500D01*
X99410041Y-116682389D01*
X99454328Y-116673580D01*
X99581811Y-116620775D01*
X99696542Y-116544114D01*
X99794114Y-116446542D01*
X99870775Y-116331811D01*
X99923580Y-116204328D01*
X99950500Y-116068993D01*
X99950500Y-115931007D01*
X99950500Y-115931004D01*
X99923581Y-115795677D01*
X99923580Y-115795676D01*
X99923580Y-115795672D01*
X99876878Y-115682922D01*
X99870778Y-115668195D01*
X99870771Y-115668182D01*
X99794114Y-115553458D01*
X99794111Y-115553454D01*
X99696545Y-115455888D01*
X99696541Y-115455885D01*
X99581817Y-115379228D01*
X99581804Y-115379221D01*
X99454332Y-115326421D01*
X99454322Y-115326418D01*
X99318995Y-115299500D01*
X99318993Y-115299500D01*
X99181007Y-115299500D01*
X99181005Y-115299500D01*
X99045677Y-115326418D01*
X99045667Y-115326421D01*
X98918195Y-115379221D01*
X98918182Y-115379228D01*
X98803458Y-115455885D01*
X98803454Y-115455888D01*
X98705888Y-115553454D01*
X98705885Y-115553458D01*
X98629228Y-115668182D01*
X98629221Y-115668195D01*
X98576421Y-115795667D01*
X98576418Y-115795677D01*
X98549500Y-115931004D01*
X98549500Y-115931007D01*
X98549500Y-116068993D01*
X98549500Y-116068995D01*
X98549499Y-116068995D01*
X96700500Y-116068995D01*
X96700500Y-116068993D01*
X96700500Y-115931007D01*
X96700500Y-115931004D01*
X96673581Y-115795677D01*
X96673580Y-115795676D01*
X96673580Y-115795672D01*
X96626878Y-115682922D01*
X96620778Y-115668195D01*
X96620771Y-115668182D01*
X96544114Y-115553458D01*
X96544111Y-115553454D01*
X96446545Y-115455888D01*
X96446541Y-115455885D01*
X96331817Y-115379228D01*
X96331804Y-115379221D01*
X96204332Y-115326421D01*
X96204322Y-115326418D01*
X96068995Y-115299500D01*
X96068993Y-115299500D01*
X95931007Y-115299500D01*
X95931005Y-115299500D01*
X95795677Y-115326418D01*
X95795667Y-115326421D01*
X95668195Y-115379221D01*
X95668182Y-115379228D01*
X95553458Y-115455885D01*
X95553454Y-115455888D01*
X95455888Y-115553454D01*
X95455885Y-115553458D01*
X95379228Y-115668182D01*
X95379221Y-115668195D01*
X95326421Y-115795667D01*
X95326418Y-115795677D01*
X95299500Y-115931004D01*
X95299500Y-115931007D01*
X95299500Y-116068993D01*
X95299500Y-116068995D01*
X95299499Y-116068995D01*
X93200500Y-116068995D01*
X93200500Y-116068993D01*
X93200500Y-115931007D01*
X93200500Y-115931004D01*
X93173581Y-115795677D01*
X93173580Y-115795676D01*
X93173580Y-115795672D01*
X93126878Y-115682922D01*
X93120778Y-115668195D01*
X93120771Y-115668182D01*
X93044114Y-115553458D01*
X93044111Y-115553454D01*
X92946545Y-115455888D01*
X92946541Y-115455885D01*
X92831817Y-115379228D01*
X92831804Y-115379221D01*
X92704332Y-115326421D01*
X92704322Y-115326418D01*
X92568995Y-115299500D01*
X92568993Y-115299500D01*
X92431007Y-115299500D01*
X92431005Y-115299500D01*
X92295677Y-115326418D01*
X92295667Y-115326421D01*
X92168195Y-115379221D01*
X92168182Y-115379228D01*
X92053458Y-115455885D01*
X92053454Y-115455888D01*
X91955888Y-115553454D01*
X91955885Y-115553458D01*
X91879228Y-115668182D01*
X91879221Y-115668195D01*
X91826421Y-115795667D01*
X91826418Y-115795677D01*
X91799500Y-115931004D01*
X91799500Y-115931007D01*
X91799500Y-116068993D01*
X91799500Y-116068995D01*
X91799499Y-116068995D01*
X72875500Y-116068995D01*
X72875500Y-104318995D01*
X73549499Y-104318995D01*
X73576418Y-104454322D01*
X73576421Y-104454332D01*
X73629221Y-104581804D01*
X73629228Y-104581817D01*
X73705885Y-104696541D01*
X73705888Y-104696545D01*
X73803454Y-104794111D01*
X73803458Y-104794114D01*
X73918182Y-104870771D01*
X73918195Y-104870778D01*
X74045667Y-104923578D01*
X74045672Y-104923580D01*
X74045676Y-104923580D01*
X74045677Y-104923581D01*
X74181004Y-104950500D01*
X74181007Y-104950500D01*
X74318995Y-104950500D01*
X74410041Y-104932389D01*
X74454328Y-104923580D01*
X74581811Y-104870775D01*
X74696542Y-104794114D01*
X74794114Y-104696542D01*
X74870775Y-104581811D01*
X74923580Y-104454328D01*
X74932389Y-104410041D01*
X74950500Y-104318995D01*
X74950500Y-104181004D01*
X74923581Y-104045677D01*
X74923580Y-104045676D01*
X74923580Y-104045672D01*
X74909305Y-104011208D01*
X74870778Y-103918195D01*
X74870771Y-103918182D01*
X74794114Y-103803458D01*
X74794111Y-103803454D01*
X74696545Y-103705888D01*
X74696541Y-103705885D01*
X74581817Y-103629228D01*
X74581804Y-103629221D01*
X74454332Y-103576421D01*
X74454322Y-103576418D01*
X74318995Y-103549500D01*
X74318993Y-103549500D01*
X74181007Y-103549500D01*
X74181005Y-103549500D01*
X74045677Y-103576418D01*
X74045667Y-103576421D01*
X73918195Y-103629221D01*
X73918182Y-103629228D01*
X73803458Y-103705885D01*
X73803454Y-103705888D01*
X73705888Y-103803454D01*
X73705885Y-103803458D01*
X73629228Y-103918182D01*
X73629221Y-103918195D01*
X73576421Y-104045667D01*
X73576418Y-104045677D01*
X73549500Y-104181004D01*
X73549500Y-104181007D01*
X73549500Y-104318993D01*
X73549500Y-104318995D01*
X73549499Y-104318995D01*
X72875500Y-104318995D01*
X72875500Y-97681898D01*
X74982000Y-97681898D01*
X74982000Y-99268102D01*
X74987626Y-99314954D01*
X74992622Y-99356561D01*
X75048139Y-99497343D01*
X75139577Y-99617922D01*
X75260156Y-99709360D01*
X75260157Y-99709360D01*
X75260158Y-99709361D01*
X75400936Y-99764877D01*
X75421560Y-99767353D01*
X75485774Y-99794888D01*
X75524908Y-99852770D01*
X75526537Y-99922621D01*
X75490143Y-99982263D01*
X75479664Y-99990787D01*
X75435282Y-100023032D01*
X75290528Y-100167786D01*
X75170215Y-100333386D01*
X75077281Y-100515776D01*
X75014022Y-100710465D01*
X74982000Y-100912648D01*
X74982000Y-101117351D01*
X75014022Y-101319534D01*
X75077281Y-101514223D01*
X75121242Y-101600499D01*
X75158177Y-101672989D01*
X75170215Y-101696613D01*
X75290528Y-101862213D01*
X75435286Y-102006971D01*
X75590249Y-102119556D01*
X75600890Y-102127287D01*
X75711220Y-102183503D01*
X75783276Y-102220218D01*
X75783278Y-102220218D01*
X75783281Y-102220220D01*
X75887637Y-102254127D01*
X75977965Y-102283477D01*
X76008953Y-102288385D01*
X76180148Y-102315500D01*
X76180149Y-102315500D01*
X76384851Y-102315500D01*
X76384852Y-102315500D01*
X76587034Y-102283477D01*
X76781719Y-102220220D01*
X76964110Y-102127287D01*
X77057311Y-102059573D01*
X77129713Y-102006971D01*
X77129715Y-102006968D01*
X77129719Y-102006966D01*
X77274466Y-101862219D01*
X77274468Y-101862215D01*
X77274471Y-101862213D01*
X77369231Y-101731785D01*
X77394787Y-101696610D01*
X77458556Y-101571457D01*
X85274499Y-101571457D01*
X85302379Y-101711614D01*
X85302381Y-101711620D01*
X85357069Y-101843650D01*
X85357073Y-101843657D01*
X85415507Y-101931110D01*
X85436384Y-101997787D01*
X85417899Y-102065167D01*
X85415507Y-102068890D01*
X85357073Y-102156342D01*
X85357069Y-102156349D01*
X85302381Y-102288379D01*
X85302379Y-102288385D01*
X85274500Y-102428542D01*
X85274500Y-102428545D01*
X85274500Y-102571455D01*
X85274500Y-102571457D01*
X85274499Y-102571457D01*
X85302379Y-102711614D01*
X85302381Y-102711620D01*
X85357069Y-102843650D01*
X85357074Y-102843659D01*
X85436467Y-102962478D01*
X85436470Y-102962482D01*
X85537517Y-103063529D01*
X85537521Y-103063532D01*
X85656340Y-103142925D01*
X85656346Y-103142928D01*
X85656347Y-103142929D01*
X85788380Y-103197619D01*
X85788384Y-103197619D01*
X85788385Y-103197620D01*
X85928542Y-103225500D01*
X85928545Y-103225500D01*
X86071457Y-103225500D01*
X86165751Y-103206742D01*
X86211620Y-103197619D01*
X86343653Y-103142929D01*
X86462479Y-103063532D01*
X86563532Y-102962479D01*
X86642929Y-102843653D01*
X86697619Y-102711620D01*
X86713599Y-102631284D01*
X86725500Y-102571457D01*
X86725500Y-102428542D01*
X86697620Y-102288385D01*
X86697619Y-102288384D01*
X86697619Y-102288380D01*
X86642929Y-102156347D01*
X86642926Y-102156342D01*
X86642925Y-102156340D01*
X86584493Y-102068891D01*
X86563615Y-102002214D01*
X86582099Y-101934833D01*
X86584493Y-101931109D01*
X86642925Y-101843659D01*
X86642926Y-101843657D01*
X86642929Y-101843653D01*
X86697619Y-101711620D01*
X86715807Y-101620185D01*
X86725500Y-101571457D01*
X86725500Y-101428542D01*
X86697620Y-101288385D01*
X86697619Y-101288384D01*
X86697619Y-101288380D01*
X86642929Y-101156347D01*
X86642928Y-101156346D01*
X86642925Y-101156340D01*
X86563532Y-101037521D01*
X86563529Y-101037517D01*
X86462482Y-100936470D01*
X86462478Y-100936467D01*
X86343659Y-100857074D01*
X86343650Y-100857069D01*
X86211620Y-100802381D01*
X86211614Y-100802379D01*
X86071457Y-100774500D01*
X86071455Y-100774500D01*
X85928545Y-100774500D01*
X85928543Y-100774500D01*
X85788385Y-100802379D01*
X85788379Y-100802381D01*
X85656349Y-100857069D01*
X85656340Y-100857074D01*
X85537521Y-100936467D01*
X85537517Y-100936470D01*
X85436470Y-101037517D01*
X85436467Y-101037521D01*
X85357074Y-101156340D01*
X85357069Y-101156349D01*
X85302381Y-101288379D01*
X85302379Y-101288385D01*
X85274500Y-101428542D01*
X85274500Y-101428545D01*
X85274500Y-101571455D01*
X85274500Y-101571457D01*
X85274499Y-101571457D01*
X77458556Y-101571457D01*
X77487720Y-101514219D01*
X77550977Y-101319534D01*
X77583000Y-101117352D01*
X77583000Y-100912648D01*
X77570197Y-100831817D01*
X77550977Y-100710465D01*
X77505010Y-100568995D01*
X77487720Y-100515781D01*
X77487718Y-100515778D01*
X77487718Y-100515776D01*
X77430350Y-100403187D01*
X77394787Y-100333390D01*
X77367387Y-100295677D01*
X77274471Y-100167786D01*
X77129717Y-100023032D01*
X77129712Y-100023028D01*
X77085336Y-99990787D01*
X77042670Y-99935457D01*
X77036691Y-99865844D01*
X77069296Y-99804049D01*
X77130135Y-99769692D01*
X77143431Y-99767354D01*
X77164064Y-99764877D01*
X77304842Y-99709361D01*
X77425422Y-99617922D01*
X77516861Y-99497342D01*
X77572377Y-99356564D01*
X77583000Y-99268102D01*
X77583000Y-97681898D01*
X77572377Y-97593436D01*
X77562739Y-97568995D01*
X79299499Y-97568995D01*
X79326418Y-97704322D01*
X79326421Y-97704332D01*
X79379221Y-97831804D01*
X79379228Y-97831817D01*
X79455885Y-97946541D01*
X79455888Y-97946545D01*
X79553454Y-98044111D01*
X79553458Y-98044114D01*
X79668182Y-98120771D01*
X79668195Y-98120778D01*
X79795667Y-98173578D01*
X79795672Y-98173580D01*
X79795676Y-98173580D01*
X79795677Y-98173581D01*
X79931004Y-98200500D01*
X79931007Y-98200500D01*
X80068995Y-98200500D01*
X80169715Y-98180465D01*
X80204328Y-98173580D01*
X80331811Y-98120775D01*
X80446542Y-98044114D01*
X80544114Y-97946542D01*
X80620775Y-97831811D01*
X80673580Y-97704328D01*
X80695638Y-97593436D01*
X80700500Y-97568995D01*
X80700500Y-97431004D01*
X80673581Y-97295677D01*
X80673580Y-97295676D01*
X80673580Y-97295672D01*
X80640795Y-97216522D01*
X80620778Y-97168195D01*
X80620771Y-97168182D01*
X80544114Y-97053458D01*
X80544111Y-97053454D01*
X80446545Y-96955888D01*
X80446541Y-96955885D01*
X80331817Y-96879228D01*
X80331804Y-96879221D01*
X80204332Y-96826421D01*
X80204322Y-96826418D01*
X80068995Y-96799500D01*
X80068993Y-96799500D01*
X79931007Y-96799500D01*
X79931005Y-96799500D01*
X79795677Y-96826418D01*
X79795667Y-96826421D01*
X79668195Y-96879221D01*
X79668182Y-96879228D01*
X79553458Y-96955885D01*
X79553454Y-96955888D01*
X79455888Y-97053454D01*
X79455885Y-97053458D01*
X79379228Y-97168182D01*
X79379221Y-97168195D01*
X79326421Y-97295667D01*
X79326418Y-97295677D01*
X79299500Y-97431004D01*
X79299500Y-97431007D01*
X79299500Y-97568993D01*
X79299500Y-97568995D01*
X79299499Y-97568995D01*
X77562739Y-97568995D01*
X77546703Y-97528331D01*
X77523867Y-97470423D01*
X77523859Y-97470404D01*
X77516861Y-97452658D01*
X77494761Y-97423516D01*
X77425422Y-97332077D01*
X77304843Y-97240639D01*
X77164061Y-97185122D01*
X77118426Y-97179642D01*
X77075602Y-97174500D01*
X75489398Y-97174500D01*
X75450353Y-97179188D01*
X75400938Y-97185122D01*
X75260156Y-97240639D01*
X75139577Y-97332077D01*
X75048139Y-97452656D01*
X74992622Y-97593438D01*
X74987298Y-97637781D01*
X74982000Y-97681898D01*
X72875500Y-97681898D01*
X72875500Y-76624500D01*
X72895185Y-76557461D01*
X72947989Y-76511706D01*
X72999500Y-76500500D01*
X76381052Y-76500500D01*
X76448091Y-76520185D01*
G37*
%TD.AperFunction*%
%TD*%
M02*
