M48
; DRILL file {KiCad 9.0.3-9.0.3-0~ubuntu24.04.1} date 2026-03-23T12:30:57+0300
; FORMAT={-:-/ absolute / inch / decimal}
; #@! TF.CreationDate,2026-03-23T12:30:57+03:00
; #@! TF.GenerationSoftware,Kicad,Pcbnew,9.0.3-9.0.3-0~ubuntu24.04.1
; #@! TF.FileFunction,Plated,1,4,PTH
FMAT,2
INCH
; #@! TA.AperFunction,Plated,PTH,ComponentDrill
T1C0.0079
; #@! TA.AperFunction,Plated,PTH,ViaDrill
T2C0.0118
; #@! TA.AperFunction,Plated,PTH,ComponentDrill
T3C0.0130
; #@! TA.AperFunction,Plated,PTH,ViaDrill
T4C0.0197
; #@! TA.AperFunction,Plated,PTH,ComponentDrill
T5C0.0197
; #@! TA.AperFunction,Plated,PTH,ComponentDrill
T6C0.0394
; #@! TA.AperFunction,Plated,PTH,ComponentDrill
T7C0.0472
%
G90
G05
T1
X3.6654Y-3.3248
X3.6654Y-3.3799
X3.6929Y-3.2972
X3.6929Y-3.3524
X3.6929Y-3.4075
X3.7205Y-3.3248
X3.7205Y-3.3799
X3.748Y-3.2972
X3.748Y-3.3524
X3.748Y-3.4075
X3.7756Y-3.3248
X3.7756Y-3.3799
T2
X2.9124Y-4.498
X2.9124Y-4.5709
X2.9124Y-4.6398
X2.9124Y-4.7146
X2.9124Y-4.7835
X2.9124Y-4.843
X2.9331Y-3.1693
X2.9823Y-3.0492
X3.0108Y-4.498
X3.0108Y-4.5709
X3.0108Y-4.6398
X3.0108Y-4.7146
X3.0108Y-4.7835
X3.0108Y-4.843
X3.0118Y-3.3366
X3.0217Y-3.2874
X3.0315Y-3.1004
X3.0318Y-3.0311
X3.0709Y-3.435
X3.1093Y-4.498
X3.1093Y-4.5709
X3.1093Y-4.6398
X3.1093Y-4.7146
X3.1093Y-4.7835
X3.1093Y-4.843
X3.1299Y-3.0315
X3.2077Y-4.498
X3.2077Y-4.5709
X3.2077Y-4.6398
X3.2077Y-4.7146
X3.2077Y-4.7835
X3.2077Y-4.843
X3.248Y-4.0846
X3.2504Y-3.9642
X3.2874Y-3.1791
X3.2874Y-4.0846
X3.3169Y-4.0354
X3.3465Y-3.4449
X3.376Y-3.2972
X3.376Y-3.4252
X3.376Y-3.5236
X3.376Y-3.5925
X3.3766Y-3.3754
X3.3858Y-3.1004
X3.6811Y-3.7992
X3.7303Y-3.7992
X3.7795Y-3.7992
X3.7894Y-3.5433
X3.8484Y-3.2579
X3.8721Y-3.2972
X3.8976Y-3.3169
X3.9213Y-3.3465
X3.9372Y-3.3957
X3.9567Y-3.9764
X3.9607Y-3.4449
X3.9764Y-4.9016
X3.9766Y-3.4941
X3.9862Y-3.9961
X3.9961Y-4.0551
X4.0157Y-4.0945
X4.0453Y-3.1004
X4.0453Y-3.1496
X4.0453Y-4.124
X4.0453Y-4.2323
X4.0453Y-4.9311
X4.0945Y-4.9311
T3
X4.0872Y-5.0778
X4.0872Y-5.1289
X4.1384Y-5.0778
X4.1384Y-5.1289
X4.1896Y-5.0778
X4.1896Y-5.1289
T4
X2.9232Y-4.1043
X3.1496Y-3.8386
X3.248Y-5.0
X3.248Y-5.2067
X3.4843Y-3.1004
X3.6417Y-4.5669
X3.7795Y-4.5669
X3.7894Y-3.9567
X3.8268Y-4.1457
X3.8268Y-4.1949
X3.8268Y-4.2441
X3.8484Y-5.187
X3.8976Y-5.0295
X3.9075Y-4.2717
X3.9075Y-4.5669
X4.0157Y-5.2953
T5
X3.3858Y-3.9961
X3.3858Y-4.0354
X3.3858Y-4.0748
T6
X3.2283Y-3.3858
X3.2283Y-3.4858
X3.2283Y-3.5858
X3.2283Y-3.6858
T7
X3.0032Y-3.877
X3.0032Y-3.977
X3.4709Y-5.1774
X3.5709Y-5.1774
X4.3291Y-5.1969
X4.3491Y-3.8774
X4.3491Y-3.9774
X4.3491Y-4.6746
X4.3491Y-4.7746
X4.3504Y-3.0791
X4.3504Y-3.1791
X4.3504Y-3.3465
X4.3504Y-3.4465
X4.3504Y-3.6122
X4.3504Y-3.7122
X4.3504Y-4.1421
X4.3504Y-4.2421
X4.3504Y-4.4094
X4.3504Y-4.5094
X4.4291Y-5.1969
M30
