%TF.GenerationSoftware,KiCad,Pcbnew,9.0.3-9.0.3-0~ubuntu24.04.1*%
%TF.CreationDate,2026-03-23T12:30:48+03:00*%
%TF.ProjectId,sounddecoder-esp32-s3-wroom-1,736f756e-6464-4656-936f-6465722d6573,rev?*%
%TF.SameCoordinates,Original*%
%TF.FileFunction,Copper,L3,Inr*%
%TF.FilePolarity,Positive*%
%FSLAX46Y46*%
G04 Gerber Fmt 4.6, Leading zero omitted, Abs format (unit mm)*
G04 Created by KiCad (PCBNEW 9.0.3-9.0.3-0~ubuntu24.04.1) date 2026-03-23 12:30:48*
%MOMM*%
%LPD*%
G01*
G04 APERTURE LIST*
G04 Aperture macros list*
%AMRoundRect*
0 Rectangle with rounded corners*
0 $1 Rounding radius*
0 $2 $3 $4 $5 $6 $7 $8 $9 X,Y pos of 4 corners*
0 Add a 4 corners polygon primitive as box body*
4,1,4,$2,$3,$4,$5,$6,$7,$8,$9,$2,$3,0*
0 Add four circle primitives for the rounded corners*
1,1,$1+$1,$2,$3*
1,1,$1+$1,$4,$5*
1,1,$1+$1,$6,$7*
1,1,$1+$1,$8,$9*
0 Add four rect primitives between the rounded corners*
20,1,$1+$1,$2,$3,$4,$5,0*
20,1,$1+$1,$4,$5,$6,$7,0*
20,1,$1+$1,$6,$7,$8,$9,0*
20,1,$1+$1,$8,$9,$2,$3,0*%
G04 Aperture macros list end*
%TA.AperFunction,ComponentPad*%
%ADD10RoundRect,0.250000X0.750000X-0.750000X0.750000X0.750000X-0.750000X0.750000X-0.750000X-0.750000X0*%
%TD*%
%TA.AperFunction,ComponentPad*%
%ADD11C,2.000000*%
%TD*%
%TA.AperFunction,ComponentPad*%
%ADD12C,0.850000*%
%TD*%
%TA.AperFunction,ComponentPad*%
%ADD13R,0.850000X0.850000*%
%TD*%
%TA.AperFunction,ComponentPad*%
%ADD14R,1.700000X1.700000*%
%TD*%
%TA.AperFunction,ComponentPad*%
%ADD15C,1.700000*%
%TD*%
%TA.AperFunction,ComponentPad*%
%ADD16RoundRect,0.250000X-0.750000X0.750000X-0.750000X-0.750000X0.750000X-0.750000X0.750000X0.750000X0*%
%TD*%
%TA.AperFunction,HeatsinkPad*%
%ADD17C,0.600000*%
%TD*%
%TA.AperFunction,ComponentPad*%
%ADD18RoundRect,0.250000X0.750000X0.750000X-0.750000X0.750000X-0.750000X-0.750000X0.750000X-0.750000X0*%
%TD*%
%TA.AperFunction,ComponentPad*%
%ADD19RoundRect,0.250000X-0.750000X-0.750000X0.750000X-0.750000X0.750000X0.750000X-0.750000X0.750000X0*%
%TD*%
%TA.AperFunction,ComponentPad*%
%ADD20C,0.630000*%
%TD*%
%TA.AperFunction,ViaPad*%
%ADD21C,0.600000*%
%TD*%
%TA.AperFunction,ViaPad*%
%ADD22C,0.800000*%
%TD*%
G04 APERTURE END LIST*
D10*
%TO.N,+5V*%
%TO.C,J7*%
X110500000Y-80750000D03*
D11*
%TO.N,/Smoke*%
X110500000Y-78210000D03*
%TD*%
D12*
%TO.N,+3.3V*%
%TO.C,J6*%
X86000000Y-101500000D03*
%TO.N,/SND_GAIN*%
X86000000Y-102500000D03*
D13*
%TO.N,GND*%
X86000000Y-103500000D03*
%TD*%
D10*
%TO.N,+5V*%
%TO.C,J13*%
X110467500Y-121275000D03*
D11*
%TO.N,Net-(J13-Pin_2)*%
X110467500Y-118735000D03*
%TD*%
D10*
%TO.N,+5V*%
%TO.C,J12*%
X110500000Y-114540000D03*
D11*
%TO.N,Net-(J12-Pin_2)*%
X110500000Y-112000000D03*
%TD*%
%TO.N,Net-(J11-Pin_2)*%
%TO.C,J11*%
X110500000Y-105210000D03*
D10*
%TO.N,+5V*%
X110500000Y-107750000D03*
%TD*%
D11*
%TO.N,Net-(J10-Pin_2)*%
%TO.C,J10*%
X110467500Y-98485000D03*
D10*
%TO.N,+5V*%
X110467500Y-101025000D03*
%TD*%
D11*
%TO.N,/BackLED*%
%TO.C,J9*%
X110500000Y-91750000D03*
D10*
%TO.N,+5V*%
X110500000Y-94290000D03*
%TD*%
%TO.N,+5V*%
%TO.C,J8*%
X110500000Y-87540000D03*
D11*
%TO.N,/FwdLED*%
X110500000Y-85000000D03*
%TD*%
D14*
%TO.N,+3.3V*%
%TO.C,J5*%
X82000000Y-86000000D03*
D15*
%TO.N,/UART-TX*%
X82000000Y-88540000D03*
%TO.N,/UART-RX*%
X82000000Y-91080000D03*
%TO.N,GND*%
X82000000Y-93620000D03*
%TD*%
D16*
%TO.N,/Sound1*%
%TO.C,J4*%
X76282500Y-98475000D03*
D11*
%TO.N,/Sound2*%
X76282500Y-101015000D03*
%TD*%
D17*
%TO.N,GND*%
%TO.C,U7*%
X93100000Y-84450000D03*
X93100000Y-85850000D03*
X93800000Y-83750000D03*
X93800000Y-85150000D03*
X93800000Y-86550000D03*
X94500000Y-84450000D03*
X94500000Y-85850000D03*
X95200000Y-83750000D03*
X95200000Y-85150000D03*
X95200000Y-86550000D03*
X95900000Y-84450000D03*
X95900000Y-85850000D03*
%TD*%
D18*
%TO.N,/MOTOR1*%
%TO.C,J3*%
X112500000Y-132000000D03*
D11*
%TO.N,/MOTOR2*%
X109960000Y-132000000D03*
%TD*%
%TO.N,GND*%
%TO.C,J1*%
X90700000Y-131505000D03*
D19*
%TO.N,VCC*%
X88160000Y-131505000D03*
%TD*%
D20*
%TO.N,GND*%
%TO.C,U4*%
X106415000Y-128975000D03*
X105115000Y-128975000D03*
X103815000Y-128975000D03*
X106415000Y-130275000D03*
X105115000Y-130275000D03*
X103815000Y-130275000D03*
%TD*%
D21*
%TO.N,/MEM_CE*%
X85750000Y-83750000D03*
X79500000Y-77000000D03*
%TO.N,/MEM_IO1*%
X85765955Y-85734045D03*
X77006507Y-76990180D03*
%TO.N,/MEM_IO2*%
X85750000Y-87000000D03*
X75750000Y-77449998D03*
%TO.N,/MEM_IO3*%
X85000000Y-87500000D03*
X76750000Y-83500000D03*
%TO.N,/MEM_SCK*%
X85750000Y-89500000D03*
X76500000Y-84750000D03*
%TO.N,/MEM_IO0*%
X85750000Y-91250000D03*
X78000000Y-87250000D03*
D22*
%TO.N,GND*%
X99250000Y-108500000D03*
D21*
%TO.N,Net-(U4-IN2)*%
X101000000Y-124500000D03*
%TO.N,/MOTOR_SENSE*%
X102750000Y-125250000D03*
%TO.N,Net-(U4-IN1)*%
X104000000Y-125250000D03*
%TO.N,Net-(U3-DIN)*%
X84250000Y-102500000D03*
X93500000Y-96500000D03*
%TO.N,Net-(U3-BCLK)*%
X83500000Y-103750000D03*
X94750000Y-96500000D03*
%TO.N,Net-(U3-LRCLK)*%
X82500000Y-103750000D03*
D22*
%TO.N,GND*%
X99000000Y-127750000D03*
%TO.N,VCC*%
X102000000Y-134500000D03*
X97750000Y-131750000D03*
X82500000Y-132250000D03*
X82500000Y-127000000D03*
%TO.N,+5V*%
X74250000Y-104250000D03*
X99250000Y-116000000D03*
X96000000Y-116000000D03*
X92500000Y-116000000D03*
D21*
%TO.N,GND*%
X82560000Y-100690000D03*
X74500000Y-80500000D03*
X77000000Y-78750000D03*
D22*
%TO.N,+3.3V*%
X88500000Y-78750000D03*
X80000000Y-97500000D03*
X96250000Y-100500000D03*
D21*
%TO.N,GND*%
X78975000Y-117850000D03*
X78975000Y-123012500D03*
X73975000Y-116100000D03*
X76475000Y-121500000D03*
X81475000Y-121500000D03*
X81475000Y-123012500D03*
X78975000Y-121500000D03*
X76475000Y-123012500D03*
X81475000Y-116100000D03*
X76475000Y-114250000D03*
X73975000Y-117850000D03*
X76475000Y-119750000D03*
X76475000Y-117850000D03*
X78975000Y-114250000D03*
X81475000Y-119750000D03*
X78975000Y-119750000D03*
X73975000Y-114250000D03*
X73975000Y-121500000D03*
X81475000Y-117850000D03*
X73975000Y-119750000D03*
X76475000Y-116100000D03*
X73975000Y-123012500D03*
X81475000Y-114250000D03*
X78975000Y-116100000D03*
%TO.N,+5V*%
X102750000Y-107500000D03*
%TO.N,+3.3V*%
X83500000Y-80750000D03*
D22*
X97200000Y-107800000D03*
X97200000Y-106550000D03*
X97200000Y-105300000D03*
D21*
X86000000Y-78750000D03*
%TO.N,Net-(U4-IN1)*%
X102750000Y-80000000D03*
%TO.N,/MOTOR_SENSE*%
X102750000Y-78750000D03*
%TO.N,Net-(U4-IN2)*%
X96250000Y-90000000D03*
%TO.N,Net-(U7-IO38)*%
X101005800Y-88750000D03*
X102750000Y-104750000D03*
%TO.N,Net-(U7-IO40)*%
X100005800Y-86250000D03*
X101500000Y-103000000D03*
%TO.N,Net-(U7-IO42)*%
X100500000Y-101000000D03*
X99000000Y-84250000D03*
%TO.N,Net-(U7-IO39)*%
X102000000Y-104000000D03*
X100601600Y-87500000D03*
%TO.N,Net-(U7-IO41)*%
X101250000Y-101500000D03*
X99601600Y-85000000D03*
%TO.N,/UART-TX*%
X97750000Y-82750000D03*
%TO.N,/UART-RX*%
X98351600Y-83750000D03*
%TO.N,Net-(U3-LRCLK)*%
X96000000Y-96500000D03*
%TD*%
%TA.AperFunction,Conductor*%
%TO.N,+3.3V*%
G36*
X75394132Y-76520185D02*
G01*
X75439887Y-76572989D01*
X75449831Y-76642147D01*
X75420806Y-76705703D01*
X75374544Y-76739062D01*
X75370821Y-76740603D01*
X75370814Y-76740607D01*
X75239711Y-76828208D01*
X75239707Y-76828211D01*
X75128213Y-76939705D01*
X75128210Y-76939709D01*
X75040609Y-77070812D01*
X75040602Y-77070825D01*
X74980264Y-77216496D01*
X74980261Y-77216508D01*
X74949500Y-77371151D01*
X74949500Y-77528844D01*
X74980261Y-77683487D01*
X74980264Y-77683499D01*
X75040602Y-77829170D01*
X75040609Y-77829183D01*
X75128210Y-77960286D01*
X75128213Y-77960290D01*
X75239707Y-78071784D01*
X75239711Y-78071787D01*
X75370814Y-78159388D01*
X75370827Y-78159395D01*
X75516498Y-78219733D01*
X75516503Y-78219735D01*
X75671153Y-78250497D01*
X75671156Y-78250498D01*
X75671158Y-78250498D01*
X75828844Y-78250498D01*
X75828845Y-78250497D01*
X75983497Y-78219735D01*
X76129179Y-78159392D01*
X76157691Y-78140340D01*
X76224367Y-78119462D01*
X76291748Y-78137945D01*
X76338439Y-78189923D01*
X76349617Y-78258893D01*
X76329686Y-78312332D01*
X76290608Y-78370816D01*
X76290602Y-78370827D01*
X76230264Y-78516498D01*
X76230261Y-78516510D01*
X76199500Y-78671153D01*
X76199500Y-78828846D01*
X76230261Y-78983489D01*
X76230264Y-78983501D01*
X76290602Y-79129172D01*
X76290609Y-79129185D01*
X76378210Y-79260288D01*
X76378213Y-79260292D01*
X76489707Y-79371786D01*
X76489711Y-79371789D01*
X76620814Y-79459390D01*
X76620827Y-79459397D01*
X76694013Y-79489711D01*
X76766503Y-79519737D01*
X76921153Y-79550499D01*
X76921156Y-79550500D01*
X76921158Y-79550500D01*
X77078844Y-79550500D01*
X77078845Y-79550499D01*
X77233497Y-79519737D01*
X77346166Y-79473067D01*
X77379172Y-79459397D01*
X77379172Y-79459396D01*
X77379179Y-79459394D01*
X77510289Y-79371789D01*
X77621789Y-79260289D01*
X77709394Y-79129179D01*
X77769737Y-78983497D01*
X77800500Y-78828842D01*
X77800500Y-78671158D01*
X77800500Y-78671155D01*
X77800499Y-78671153D01*
X101949500Y-78671153D01*
X101949500Y-78828846D01*
X101980261Y-78983489D01*
X101980264Y-78983501D01*
X102040602Y-79129172D01*
X102040609Y-79129185D01*
X102128210Y-79260288D01*
X102128213Y-79260292D01*
X102155240Y-79287319D01*
X102188725Y-79348642D01*
X102183741Y-79418334D01*
X102155240Y-79462681D01*
X102128213Y-79489707D01*
X102128210Y-79489711D01*
X102040609Y-79620814D01*
X102040602Y-79620827D01*
X101980264Y-79766498D01*
X101980261Y-79766510D01*
X101949500Y-79921153D01*
X101949500Y-80078846D01*
X101980261Y-80233489D01*
X101980264Y-80233501D01*
X102040602Y-80379172D01*
X102040609Y-80379185D01*
X102128210Y-80510288D01*
X102128213Y-80510292D01*
X102239707Y-80621786D01*
X102239711Y-80621789D01*
X102370814Y-80709390D01*
X102370827Y-80709397D01*
X102516498Y-80769735D01*
X102516503Y-80769737D01*
X102671153Y-80800499D01*
X102671156Y-80800500D01*
X102671158Y-80800500D01*
X102828844Y-80800500D01*
X102828845Y-80800499D01*
X102983497Y-80769737D01*
X103129179Y-80709394D01*
X103260289Y-80621789D01*
X103371789Y-80510289D01*
X103459394Y-80379179D01*
X103519737Y-80233497D01*
X103550500Y-80078842D01*
X103550500Y-79921158D01*
X103550500Y-79921155D01*
X103550499Y-79921153D01*
X103524531Y-79790606D01*
X103519737Y-79766503D01*
X103519735Y-79766498D01*
X103459397Y-79620827D01*
X103459390Y-79620814D01*
X103371789Y-79489711D01*
X103371786Y-79489707D01*
X103344760Y-79462681D01*
X103311275Y-79401358D01*
X103316259Y-79331666D01*
X103344760Y-79287319D01*
X103371786Y-79260292D01*
X103371789Y-79260289D01*
X103459394Y-79129179D01*
X103519737Y-78983497D01*
X103550500Y-78828842D01*
X103550500Y-78671158D01*
X103550500Y-78671155D01*
X103550499Y-78671153D01*
X103534744Y-78591947D01*
X103519737Y-78516503D01*
X103489288Y-78442992D01*
X103459397Y-78370827D01*
X103459390Y-78370814D01*
X103371789Y-78239711D01*
X103371786Y-78239707D01*
X103260292Y-78128213D01*
X103260288Y-78128210D01*
X103129185Y-78040609D01*
X103129172Y-78040602D01*
X102983501Y-77980264D01*
X102983489Y-77980261D01*
X102828845Y-77949500D01*
X102828842Y-77949500D01*
X102671158Y-77949500D01*
X102671155Y-77949500D01*
X102516510Y-77980261D01*
X102516498Y-77980264D01*
X102370827Y-78040602D01*
X102370814Y-78040609D01*
X102239711Y-78128210D01*
X102239707Y-78128213D01*
X102128213Y-78239707D01*
X102128210Y-78239711D01*
X102040609Y-78370814D01*
X102040602Y-78370827D01*
X101980264Y-78516498D01*
X101980261Y-78516510D01*
X101949500Y-78671153D01*
X77800499Y-78671153D01*
X77784744Y-78591947D01*
X77769737Y-78516503D01*
X77739288Y-78442992D01*
X77709397Y-78370827D01*
X77709390Y-78370814D01*
X77621789Y-78239711D01*
X77621786Y-78239707D01*
X77510292Y-78128213D01*
X77510288Y-78128210D01*
X77379185Y-78040609D01*
X77379172Y-78040602D01*
X77247344Y-77985998D01*
X77192940Y-77942157D01*
X77170875Y-77875863D01*
X77188154Y-77808164D01*
X77239291Y-77760553D01*
X77247304Y-77756893D01*
X77385686Y-77699574D01*
X77516796Y-77611969D01*
X77628296Y-77500469D01*
X77715901Y-77369359D01*
X77776244Y-77223677D01*
X77807007Y-77069022D01*
X77807007Y-76911338D01*
X77807007Y-76911335D01*
X77807006Y-76911333D01*
X77790472Y-76828211D01*
X77776244Y-76756683D01*
X77769584Y-76740604D01*
X77741148Y-76671952D01*
X77733679Y-76602483D01*
X77764954Y-76540004D01*
X77825044Y-76504352D01*
X77855709Y-76500500D01*
X78654866Y-76500500D01*
X78721905Y-76520185D01*
X78767660Y-76572989D01*
X78777604Y-76642147D01*
X78769427Y-76671950D01*
X78755447Y-76705703D01*
X78730263Y-76766502D01*
X78730261Y-76766510D01*
X78699500Y-76921153D01*
X78699500Y-77078846D01*
X78730261Y-77233489D01*
X78730264Y-77233501D01*
X78790602Y-77379172D01*
X78790609Y-77379185D01*
X78878210Y-77510288D01*
X78878213Y-77510292D01*
X78989707Y-77621786D01*
X78989711Y-77621789D01*
X79120814Y-77709390D01*
X79120827Y-77709397D01*
X79266498Y-77769735D01*
X79266503Y-77769737D01*
X79421153Y-77800499D01*
X79421156Y-77800500D01*
X79421158Y-77800500D01*
X79578844Y-77800500D01*
X79578845Y-77800499D01*
X79733497Y-77769737D01*
X79879179Y-77709394D01*
X80010289Y-77621789D01*
X80121789Y-77510289D01*
X80209394Y-77379179D01*
X80213465Y-77369352D01*
X80269735Y-77233501D01*
X80269737Y-77233497D01*
X80300500Y-77078842D01*
X80300500Y-76921158D01*
X80300500Y-76921155D01*
X80300499Y-76921153D01*
X80298546Y-76911333D01*
X80269737Y-76766503D01*
X80230572Y-76671951D01*
X80223104Y-76602483D01*
X80254379Y-76540004D01*
X80314468Y-76504352D01*
X80345134Y-76500500D01*
X106120500Y-76500500D01*
X106187539Y-76520185D01*
X106233294Y-76572989D01*
X106244500Y-76624500D01*
X106244500Y-96870500D01*
X106224815Y-96937539D01*
X106172011Y-96983294D01*
X106120500Y-96994500D01*
X99621333Y-96994500D01*
X99519248Y-97004914D01*
X99470212Y-97015024D01*
X99372336Y-97045839D01*
X99249638Y-97120974D01*
X99195850Y-97165571D01*
X99195847Y-97165574D01*
X99099287Y-97272237D01*
X99036686Y-97401784D01*
X99015540Y-97468408D01*
X99015429Y-97469100D01*
X98991983Y-97610303D01*
X98991982Y-97610315D01*
X98991982Y-97610319D01*
X98975774Y-98355915D01*
X98974670Y-98406687D01*
X98920246Y-100910166D01*
X98918925Y-100970941D01*
X98875447Y-102970941D01*
X98828474Y-105131687D01*
X98787976Y-106994598D01*
X98777576Y-107472977D01*
X98780249Y-107537008D01*
X98780250Y-107537017D01*
X98783544Y-107568223D01*
X98783545Y-107568231D01*
X98783546Y-107568237D01*
X98794573Y-107633023D01*
X98786416Y-107702415D01*
X98742038Y-107756381D01*
X98741224Y-107756930D01*
X98675961Y-107800539D01*
X98675958Y-107800542D01*
X98550538Y-107925961D01*
X98550535Y-107925965D01*
X98451990Y-108073446D01*
X98451983Y-108073459D01*
X98384106Y-108237332D01*
X98384104Y-108237339D01*
X98375170Y-108282253D01*
X98342784Y-108344164D01*
X98282067Y-108378737D01*
X98240106Y-108381329D01*
X85702227Y-107013561D01*
X85648620Y-106994598D01*
X82116289Y-104723813D01*
X82070541Y-104671003D01*
X82060608Y-104601843D01*
X82089641Y-104538291D01*
X82148425Y-104500525D01*
X82218294Y-104500535D01*
X82230777Y-104504939D01*
X82266503Y-104519737D01*
X82359780Y-104538291D01*
X82421153Y-104550499D01*
X82421156Y-104550500D01*
X82421158Y-104550500D01*
X82578844Y-104550500D01*
X82578845Y-104550499D01*
X82733497Y-104519737D01*
X82879179Y-104459394D01*
X82931110Y-104424694D01*
X82997785Y-104403816D01*
X83065165Y-104422300D01*
X83068863Y-104424676D01*
X83120821Y-104459394D01*
X83120823Y-104459395D01*
X83120825Y-104459396D01*
X83220145Y-104500535D01*
X83266503Y-104519737D01*
X83359780Y-104538291D01*
X83421153Y-104550499D01*
X83421156Y-104550500D01*
X83421158Y-104550500D01*
X83578844Y-104550500D01*
X83578845Y-104550499D01*
X83733497Y-104519737D01*
X83879179Y-104459394D01*
X84010289Y-104371789D01*
X84121789Y-104260289D01*
X84209394Y-104129179D01*
X84269737Y-103983497D01*
X84300500Y-103828842D01*
X84300500Y-103671158D01*
X84300500Y-103671155D01*
X84300499Y-103671153D01*
X84269738Y-103516510D01*
X84269737Y-103516503D01*
X84249395Y-103467394D01*
X84241927Y-103397928D01*
X84273202Y-103335449D01*
X84333290Y-103299796D01*
X84339766Y-103298327D01*
X84483497Y-103269737D01*
X84629179Y-103209394D01*
X84760289Y-103121789D01*
X84862820Y-103019257D01*
X84924141Y-102985774D01*
X84993833Y-102990758D01*
X85049767Y-103032629D01*
X85074184Y-103098093D01*
X85074500Y-103106940D01*
X85074500Y-103972870D01*
X85074501Y-103972876D01*
X85080908Y-104032483D01*
X85131202Y-104167328D01*
X85131206Y-104167335D01*
X85217452Y-104282544D01*
X85217455Y-104282547D01*
X85332664Y-104368793D01*
X85332671Y-104368797D01*
X85467517Y-104419091D01*
X85467516Y-104419091D01*
X85474444Y-104419835D01*
X85527127Y-104425500D01*
X86472872Y-104425499D01*
X86532483Y-104419091D01*
X86667331Y-104368796D01*
X86782546Y-104282546D01*
X86868796Y-104167331D01*
X86919091Y-104032483D01*
X86925500Y-103972873D01*
X86925499Y-103027128D01*
X86919091Y-102967517D01*
X86883551Y-102872231D01*
X86878568Y-102802542D01*
X86885173Y-102781447D01*
X86889933Y-102769958D01*
X86925500Y-102591154D01*
X86925500Y-102408846D01*
X86925500Y-102408843D01*
X86889934Y-102230047D01*
X86889933Y-102230046D01*
X86889933Y-102230042D01*
X86882751Y-102212702D01*
X86820168Y-102061612D01*
X86820166Y-102061608D01*
X86718886Y-101910032D01*
X86718880Y-101910024D01*
X86589975Y-101781119D01*
X86589967Y-101781113D01*
X86438391Y-101679833D01*
X86438387Y-101679831D01*
X86269962Y-101610068D01*
X86269952Y-101610065D01*
X86091156Y-101574500D01*
X86091154Y-101574500D01*
X85908846Y-101574500D01*
X85908844Y-101574500D01*
X85730047Y-101610065D01*
X85730037Y-101610068D01*
X85561612Y-101679831D01*
X85561608Y-101679833D01*
X85410032Y-101781113D01*
X85410024Y-101781119D01*
X85281119Y-101910024D01*
X85281113Y-101910032D01*
X85179833Y-102061608D01*
X85179830Y-102061614D01*
X85169111Y-102087493D01*
X85125270Y-102141896D01*
X85058975Y-102163960D01*
X84991276Y-102146680D01*
X84951449Y-102108930D01*
X84871789Y-101989711D01*
X84871786Y-101989707D01*
X84760292Y-101878213D01*
X84760288Y-101878210D01*
X84629185Y-101790609D01*
X84629172Y-101790602D01*
X84483501Y-101730264D01*
X84483489Y-101730261D01*
X84328845Y-101699500D01*
X84328842Y-101699500D01*
X84171158Y-101699500D01*
X84171155Y-101699500D01*
X84016510Y-101730261D01*
X84016498Y-101730264D01*
X83870827Y-101790602D01*
X83870814Y-101790609D01*
X83739711Y-101878210D01*
X83739707Y-101878213D01*
X83628213Y-101989707D01*
X83628210Y-101989711D01*
X83540609Y-102120814D01*
X83540602Y-102120827D01*
X83480264Y-102266498D01*
X83480261Y-102266510D01*
X83449500Y-102421153D01*
X83449500Y-102578846D01*
X83480261Y-102733489D01*
X83480264Y-102733501D01*
X83500603Y-102782603D01*
X83508072Y-102852072D01*
X83476797Y-102914551D01*
X83416708Y-102950203D01*
X83410234Y-102951672D01*
X83266508Y-102980261D01*
X83266498Y-102980264D01*
X83120827Y-103040602D01*
X83120814Y-103040609D01*
X83068891Y-103075304D01*
X83002214Y-103096182D01*
X82934833Y-103077698D01*
X82931109Y-103075304D01*
X82879185Y-103040609D01*
X82879172Y-103040602D01*
X82733501Y-102980264D01*
X82733489Y-102980261D01*
X82578845Y-102949500D01*
X82578842Y-102949500D01*
X82421158Y-102949500D01*
X82421155Y-102949500D01*
X82266510Y-102980261D01*
X82266498Y-102980264D01*
X82120827Y-103040602D01*
X82120814Y-103040609D01*
X81989711Y-103128210D01*
X81989707Y-103128213D01*
X81878213Y-103239707D01*
X81878210Y-103239711D01*
X81790609Y-103370814D01*
X81790602Y-103370827D01*
X81730264Y-103516498D01*
X81730261Y-103516510D01*
X81699500Y-103671153D01*
X81699500Y-103828846D01*
X81730261Y-103983489D01*
X81730264Y-103983501D01*
X81790602Y-104129172D01*
X81790609Y-104129185D01*
X81878210Y-104260288D01*
X81878213Y-104260292D01*
X81931450Y-104313529D01*
X81964935Y-104374852D01*
X81959951Y-104444544D01*
X81918079Y-104500477D01*
X81852615Y-104524894D01*
X81784342Y-104510042D01*
X81776715Y-104505516D01*
X78801739Y-102593031D01*
X78797736Y-102591154D01*
X78680496Y-102536175D01*
X78618400Y-102516581D01*
X78618394Y-102516579D01*
X78618391Y-102516579D01*
X78618389Y-102516578D01*
X78486491Y-102493555D01*
X77245130Y-102443900D01*
X77178931Y-102421552D01*
X77135323Y-102366961D01*
X77128152Y-102297460D01*
X77159694Y-102235116D01*
X77177198Y-102219683D01*
X77260010Y-102159517D01*
X77427017Y-101992510D01*
X77565843Y-101801433D01*
X77673068Y-101590992D01*
X77746053Y-101366368D01*
X77783000Y-101133097D01*
X77783000Y-100896902D01*
X77761505Y-100761197D01*
X77746053Y-100663632D01*
X77746051Y-100663628D01*
X77746051Y-100663623D01*
X77739478Y-100643395D01*
X77739475Y-100643385D01*
X77729002Y-100611153D01*
X81759500Y-100611153D01*
X81759500Y-100768846D01*
X81790261Y-100923489D01*
X81790264Y-100923501D01*
X81850602Y-101069172D01*
X81850609Y-101069185D01*
X81938210Y-101200288D01*
X81938213Y-101200292D01*
X82049707Y-101311786D01*
X82049711Y-101311789D01*
X82180814Y-101399390D01*
X82180827Y-101399397D01*
X82326498Y-101459735D01*
X82326503Y-101459737D01*
X82481153Y-101490499D01*
X82481156Y-101490500D01*
X82481158Y-101490500D01*
X82638844Y-101490500D01*
X82638845Y-101490499D01*
X82793497Y-101459737D01*
X82939179Y-101399394D01*
X83070289Y-101311789D01*
X83181789Y-101200289D01*
X83269394Y-101069179D01*
X83329737Y-100923497D01*
X83360500Y-100768842D01*
X83360500Y-100611158D01*
X83360500Y-100611155D01*
X83360499Y-100611153D01*
X83329738Y-100456510D01*
X83329737Y-100456503D01*
X83329735Y-100456498D01*
X83269397Y-100310827D01*
X83269390Y-100310814D01*
X83181789Y-100179711D01*
X83181786Y-100179707D01*
X83070292Y-100068213D01*
X83070288Y-100068210D01*
X82939185Y-99980609D01*
X82939172Y-99980602D01*
X82793501Y-99920264D01*
X82793489Y-99920261D01*
X82638845Y-99889500D01*
X82638842Y-99889500D01*
X82481158Y-99889500D01*
X82481155Y-99889500D01*
X82326510Y-99920261D01*
X82326498Y-99920264D01*
X82180827Y-99980602D01*
X82180814Y-99980609D01*
X82049711Y-100068210D01*
X82049707Y-100068213D01*
X81938213Y-100179707D01*
X81938210Y-100179711D01*
X81850609Y-100310814D01*
X81850602Y-100310827D01*
X81790264Y-100456498D01*
X81790261Y-100456510D01*
X81759500Y-100611153D01*
X77729002Y-100611153D01*
X77696900Y-100512356D01*
X77673068Y-100439008D01*
X77673066Y-100439005D01*
X77673066Y-100439003D01*
X77616502Y-100327991D01*
X77565843Y-100228567D01*
X77427017Y-100037490D01*
X77427008Y-100037481D01*
X77423853Y-100033786D01*
X77425634Y-100032264D01*
X77396773Y-99979408D01*
X77401757Y-99909716D01*
X77443629Y-99853783D01*
X77452834Y-99847516D01*
X77501156Y-99817712D01*
X77625212Y-99693656D01*
X77717314Y-99544334D01*
X77772499Y-99377797D01*
X77783000Y-99275009D01*
X77782999Y-97674992D01*
X77772499Y-97572203D01*
X77717314Y-97405666D01*
X77625212Y-97256344D01*
X77501156Y-97132288D01*
X77360999Y-97045839D01*
X77351836Y-97040187D01*
X77351831Y-97040185D01*
X77350362Y-97039698D01*
X77185297Y-96985001D01*
X77185295Y-96985000D01*
X77082510Y-96974500D01*
X75482498Y-96974500D01*
X75482481Y-96974501D01*
X75379703Y-96985000D01*
X75379700Y-96985001D01*
X75213168Y-97040185D01*
X75213163Y-97040187D01*
X75063842Y-97132289D01*
X74939789Y-97256342D01*
X74847687Y-97405663D01*
X74847686Y-97405666D01*
X74792501Y-97572203D01*
X74792501Y-97572204D01*
X74792500Y-97572204D01*
X74782000Y-97674983D01*
X74782000Y-99275001D01*
X74782001Y-99275018D01*
X74792500Y-99377796D01*
X74792501Y-99377799D01*
X74826368Y-99480000D01*
X74847686Y-99544334D01*
X74939788Y-99693656D01*
X75063844Y-99817712D01*
X75105602Y-99843468D01*
X75112156Y-99847511D01*
X75158881Y-99899459D01*
X75170104Y-99968421D01*
X75142260Y-100032504D01*
X75141115Y-100033759D01*
X75141147Y-100033786D01*
X75137985Y-100037487D01*
X75137983Y-100037490D01*
X75078362Y-100119550D01*
X74999157Y-100228566D01*
X74891933Y-100439003D01*
X74818946Y-100663631D01*
X74782000Y-100896902D01*
X74782000Y-101133097D01*
X74818946Y-101366368D01*
X74891933Y-101590996D01*
X74993638Y-101790602D01*
X74999157Y-101801433D01*
X75137983Y-101992510D01*
X75137985Y-101992512D01*
X75296125Y-102150652D01*
X75329610Y-102211975D01*
X75324626Y-102281667D01*
X75282754Y-102337600D01*
X75217290Y-102362017D01*
X75203488Y-102362234D01*
X73024665Y-102275082D01*
X73024654Y-102275082D01*
X73009050Y-102276288D01*
X72940694Y-102261825D01*
X72891008Y-102212702D01*
X72875500Y-102152656D01*
X72875500Y-96421153D01*
X92699500Y-96421153D01*
X92699500Y-96578846D01*
X92730261Y-96733489D01*
X92730264Y-96733501D01*
X92790602Y-96879172D01*
X92790609Y-96879185D01*
X92878210Y-97010288D01*
X92878213Y-97010292D01*
X92989707Y-97121786D01*
X92989711Y-97121789D01*
X93120814Y-97209390D01*
X93120827Y-97209397D01*
X93234164Y-97256342D01*
X93266503Y-97269737D01*
X93421153Y-97300499D01*
X93421156Y-97300500D01*
X93421158Y-97300500D01*
X93578844Y-97300500D01*
X93578845Y-97300499D01*
X93733497Y-97269737D01*
X93879179Y-97209394D01*
X94010289Y-97121789D01*
X94011104Y-97120974D01*
X94037319Y-97094760D01*
X94098642Y-97061275D01*
X94168334Y-97066259D01*
X94212681Y-97094760D01*
X94239707Y-97121786D01*
X94239711Y-97121789D01*
X94370814Y-97209390D01*
X94370827Y-97209397D01*
X94484164Y-97256342D01*
X94516503Y-97269737D01*
X94671153Y-97300499D01*
X94671156Y-97300500D01*
X94671158Y-97300500D01*
X94828844Y-97300500D01*
X94828845Y-97300499D01*
X94983497Y-97269737D01*
X95129179Y-97209394D01*
X95260289Y-97121789D01*
X95261104Y-97120974D01*
X95287319Y-97094760D01*
X95348642Y-97061275D01*
X95418334Y-97066259D01*
X95462681Y-97094760D01*
X95489707Y-97121786D01*
X95489711Y-97121789D01*
X95620814Y-97209390D01*
X95620827Y-97209397D01*
X95734164Y-97256342D01*
X95766503Y-97269737D01*
X95921153Y-97300499D01*
X95921156Y-97300500D01*
X95921158Y-97300500D01*
X96078844Y-97300500D01*
X96078845Y-97300499D01*
X96233497Y-97269737D01*
X96379179Y-97209394D01*
X96510289Y-97121789D01*
X96621789Y-97010289D01*
X96709394Y-96879179D01*
X96769737Y-96733497D01*
X96800500Y-96578842D01*
X96800500Y-96421158D01*
X96800500Y-96421155D01*
X96800499Y-96421153D01*
X96769738Y-96266510D01*
X96769737Y-96266503D01*
X96769735Y-96266498D01*
X96709397Y-96120827D01*
X96709390Y-96120814D01*
X96621789Y-95989711D01*
X96621786Y-95989707D01*
X96510292Y-95878213D01*
X96510288Y-95878210D01*
X96379185Y-95790609D01*
X96379172Y-95790602D01*
X96233501Y-95730264D01*
X96233489Y-95730261D01*
X96078845Y-95699500D01*
X96078842Y-95699500D01*
X95921158Y-95699500D01*
X95921155Y-95699500D01*
X95766510Y-95730261D01*
X95766498Y-95730264D01*
X95620827Y-95790602D01*
X95620814Y-95790609D01*
X95489711Y-95878210D01*
X95489707Y-95878213D01*
X95462681Y-95905240D01*
X95401358Y-95938725D01*
X95331666Y-95933741D01*
X95287319Y-95905240D01*
X95260292Y-95878213D01*
X95260288Y-95878210D01*
X95129185Y-95790609D01*
X95129172Y-95790602D01*
X94983501Y-95730264D01*
X94983489Y-95730261D01*
X94828845Y-95699500D01*
X94828842Y-95699500D01*
X94671158Y-95699500D01*
X94671155Y-95699500D01*
X94516510Y-95730261D01*
X94516498Y-95730264D01*
X94370827Y-95790602D01*
X94370814Y-95790609D01*
X94239711Y-95878210D01*
X94239707Y-95878213D01*
X94212681Y-95905240D01*
X94151358Y-95938725D01*
X94081666Y-95933741D01*
X94037319Y-95905240D01*
X94010292Y-95878213D01*
X94010288Y-95878210D01*
X93879185Y-95790609D01*
X93879172Y-95790602D01*
X93733501Y-95730264D01*
X93733489Y-95730261D01*
X93578845Y-95699500D01*
X93578842Y-95699500D01*
X93421158Y-95699500D01*
X93421155Y-95699500D01*
X93266510Y-95730261D01*
X93266498Y-95730264D01*
X93120827Y-95790602D01*
X93120814Y-95790609D01*
X92989711Y-95878210D01*
X92989707Y-95878213D01*
X92878213Y-95989707D01*
X92878210Y-95989711D01*
X92790609Y-96120814D01*
X92790602Y-96120827D01*
X92730264Y-96266498D01*
X92730261Y-96266510D01*
X92699500Y-96421153D01*
X72875500Y-96421153D01*
X72875500Y-88433713D01*
X80649500Y-88433713D01*
X80649500Y-88646287D01*
X80653439Y-88671155D01*
X80678414Y-88828846D01*
X80682754Y-88856243D01*
X80726119Y-88989707D01*
X80748444Y-89058414D01*
X80844951Y-89247820D01*
X80969890Y-89419786D01*
X81120213Y-89570109D01*
X81292182Y-89695050D01*
X81300946Y-89699516D01*
X81351742Y-89747491D01*
X81368536Y-89815312D01*
X81345998Y-89881447D01*
X81300946Y-89920484D01*
X81292182Y-89924949D01*
X81120213Y-90049890D01*
X80969890Y-90200213D01*
X80844951Y-90372179D01*
X80748444Y-90561585D01*
X80682753Y-90763760D01*
X80649500Y-90973713D01*
X80649500Y-91186286D01*
X80682753Y-91396239D01*
X80748444Y-91598414D01*
X80844951Y-91787820D01*
X80969890Y-91959786D01*
X81120213Y-92110109D01*
X81292182Y-92235050D01*
X81300946Y-92239516D01*
X81351742Y-92287491D01*
X81368536Y-92355312D01*
X81345998Y-92421447D01*
X81300946Y-92460484D01*
X81292182Y-92464949D01*
X81120213Y-92589890D01*
X80969890Y-92740213D01*
X80844951Y-92912179D01*
X80748444Y-93101585D01*
X80682753Y-93303760D01*
X80649500Y-93513713D01*
X80649500Y-93726286D01*
X80682753Y-93936239D01*
X80748444Y-94138414D01*
X80844951Y-94327820D01*
X80969890Y-94499786D01*
X81120213Y-94650109D01*
X81292179Y-94775048D01*
X81292181Y-94775049D01*
X81292184Y-94775051D01*
X81481588Y-94871557D01*
X81683757Y-94937246D01*
X81893713Y-94970500D01*
X81893714Y-94970500D01*
X82106286Y-94970500D01*
X82106287Y-94970500D01*
X82316243Y-94937246D01*
X82518412Y-94871557D01*
X82707816Y-94775051D01*
X82729789Y-94759086D01*
X82879786Y-94650109D01*
X82879788Y-94650106D01*
X82879792Y-94650104D01*
X83030104Y-94499792D01*
X83030106Y-94499788D01*
X83030109Y-94499786D01*
X83155048Y-94327820D01*
X83155047Y-94327820D01*
X83155051Y-94327816D01*
X83251557Y-94138412D01*
X83317246Y-93936243D01*
X83350500Y-93726287D01*
X83350500Y-93513713D01*
X83317246Y-93303757D01*
X83251557Y-93101588D01*
X83155051Y-92912184D01*
X83155049Y-92912181D01*
X83155048Y-92912179D01*
X83030109Y-92740213D01*
X82879786Y-92589890D01*
X82707820Y-92464951D01*
X82707115Y-92464591D01*
X82699054Y-92460485D01*
X82648259Y-92412512D01*
X82631463Y-92344692D01*
X82653999Y-92278556D01*
X82699054Y-92239515D01*
X82707816Y-92235051D01*
X82729789Y-92219086D01*
X82879786Y-92110109D01*
X82879788Y-92110106D01*
X82879792Y-92110104D01*
X83030104Y-91959792D01*
X83030106Y-91959788D01*
X83030109Y-91959786D01*
X83155048Y-91787820D01*
X83155047Y-91787820D01*
X83155051Y-91787816D01*
X83251557Y-91598412D01*
X83317246Y-91396243D01*
X83350500Y-91186287D01*
X83350500Y-90973713D01*
X83317246Y-90763757D01*
X83251557Y-90561588D01*
X83155051Y-90372184D01*
X83155049Y-90372181D01*
X83155048Y-90372179D01*
X83030109Y-90200213D01*
X82879786Y-90049890D01*
X82707820Y-89924951D01*
X82707115Y-89924591D01*
X82699054Y-89920485D01*
X82648259Y-89872512D01*
X82631463Y-89804692D01*
X82653999Y-89738556D01*
X82699054Y-89699515D01*
X82707816Y-89695051D01*
X82729789Y-89679086D01*
X82879786Y-89570109D01*
X82879788Y-89570106D01*
X82879792Y-89570104D01*
X83028743Y-89421153D01*
X84949500Y-89421153D01*
X84949500Y-89578846D01*
X84980261Y-89733489D01*
X84980264Y-89733501D01*
X85040602Y-89879172D01*
X85040609Y-89879185D01*
X85128210Y-90010288D01*
X85128213Y-90010292D01*
X85239707Y-90121786D01*
X85239711Y-90121789D01*
X85370814Y-90209390D01*
X85370827Y-90209397D01*
X85494054Y-90260439D01*
X85548458Y-90304280D01*
X85570523Y-90370574D01*
X85553244Y-90438273D01*
X85502107Y-90485884D01*
X85494054Y-90489561D01*
X85370827Y-90540602D01*
X85370814Y-90540609D01*
X85239711Y-90628210D01*
X85239707Y-90628213D01*
X85128213Y-90739707D01*
X85128210Y-90739711D01*
X85040609Y-90870814D01*
X85040602Y-90870827D01*
X84980264Y-91016498D01*
X84980261Y-91016510D01*
X84949500Y-91171153D01*
X84949500Y-91328846D01*
X84980261Y-91483489D01*
X84980264Y-91483501D01*
X85040602Y-91629172D01*
X85040609Y-91629185D01*
X85128210Y-91760288D01*
X85128213Y-91760292D01*
X85239707Y-91871786D01*
X85239711Y-91871789D01*
X85370814Y-91959390D01*
X85370827Y-91959397D01*
X85516498Y-92019735D01*
X85516503Y-92019737D01*
X85671153Y-92050499D01*
X85671156Y-92050500D01*
X85671158Y-92050500D01*
X85828844Y-92050500D01*
X85828845Y-92050499D01*
X85983497Y-92019737D01*
X86129179Y-91959394D01*
X86260289Y-91871789D01*
X86371789Y-91760289D01*
X86459394Y-91629179D01*
X86519737Y-91483497D01*
X86550500Y-91328842D01*
X86550500Y-91171158D01*
X86550500Y-91171155D01*
X86550499Y-91171153D01*
X86519738Y-91016510D01*
X86519737Y-91016503D01*
X86502013Y-90973713D01*
X86459397Y-90870827D01*
X86459390Y-90870814D01*
X86371789Y-90739711D01*
X86371786Y-90739707D01*
X86260292Y-90628213D01*
X86260288Y-90628210D01*
X86129185Y-90540609D01*
X86129172Y-90540602D01*
X86005945Y-90489561D01*
X85951541Y-90445721D01*
X85929476Y-90379427D01*
X85946755Y-90311727D01*
X85997892Y-90264116D01*
X86005945Y-90260439D01*
X86129172Y-90209397D01*
X86129172Y-90209396D01*
X86129179Y-90209394D01*
X86260289Y-90121789D01*
X86371789Y-90010289D01*
X86431348Y-89921153D01*
X95449500Y-89921153D01*
X95449500Y-90078846D01*
X95480261Y-90233489D01*
X95480264Y-90233501D01*
X95540602Y-90379172D01*
X95540609Y-90379185D01*
X95628210Y-90510288D01*
X95628213Y-90510292D01*
X95739707Y-90621786D01*
X95739711Y-90621789D01*
X95870814Y-90709390D01*
X95870827Y-90709397D01*
X95944013Y-90739711D01*
X96016503Y-90769737D01*
X96171153Y-90800499D01*
X96171156Y-90800500D01*
X96171158Y-90800500D01*
X96328844Y-90800500D01*
X96328845Y-90800499D01*
X96483497Y-90769737D01*
X96629179Y-90709394D01*
X96760289Y-90621789D01*
X96871789Y-90510289D01*
X96959394Y-90379179D01*
X96962294Y-90372179D01*
X97019735Y-90233501D01*
X97019737Y-90233497D01*
X97050500Y-90078842D01*
X97050500Y-89921158D01*
X97050500Y-89921155D01*
X97050499Y-89921153D01*
X97039849Y-89867611D01*
X97019737Y-89766503D01*
X97006062Y-89733489D01*
X96959397Y-89620827D01*
X96959390Y-89620814D01*
X96871789Y-89489711D01*
X96871786Y-89489707D01*
X96760292Y-89378213D01*
X96760288Y-89378210D01*
X96629185Y-89290609D01*
X96629172Y-89290602D01*
X96483501Y-89230264D01*
X96483489Y-89230261D01*
X96328845Y-89199500D01*
X96328842Y-89199500D01*
X96171158Y-89199500D01*
X96171155Y-89199500D01*
X96016510Y-89230261D01*
X96016498Y-89230264D01*
X95870827Y-89290602D01*
X95870814Y-89290609D01*
X95739711Y-89378210D01*
X95739707Y-89378213D01*
X95628213Y-89489707D01*
X95628210Y-89489711D01*
X95540609Y-89620814D01*
X95540602Y-89620827D01*
X95480264Y-89766498D01*
X95480261Y-89766510D01*
X95449500Y-89921153D01*
X86431348Y-89921153D01*
X86459394Y-89879179D01*
X86519737Y-89733497D01*
X86550500Y-89578842D01*
X86550500Y-89421158D01*
X86550500Y-89421155D01*
X86550499Y-89421153D01*
X86524531Y-89290606D01*
X86519737Y-89266503D01*
X86511997Y-89247816D01*
X86459397Y-89120827D01*
X86459390Y-89120814D01*
X86371789Y-88989711D01*
X86371786Y-88989707D01*
X86260292Y-88878213D01*
X86260288Y-88878210D01*
X86129185Y-88790609D01*
X86129172Y-88790602D01*
X85983501Y-88730264D01*
X85983489Y-88730261D01*
X85828845Y-88699500D01*
X85828842Y-88699500D01*
X85671158Y-88699500D01*
X85671155Y-88699500D01*
X85516510Y-88730261D01*
X85516498Y-88730264D01*
X85370827Y-88790602D01*
X85370814Y-88790609D01*
X85239711Y-88878210D01*
X85239707Y-88878213D01*
X85128213Y-88989707D01*
X85128210Y-88989711D01*
X85040609Y-89120814D01*
X85040602Y-89120827D01*
X84980264Y-89266498D01*
X84980261Y-89266510D01*
X84949500Y-89421153D01*
X83028743Y-89421153D01*
X83030104Y-89419792D01*
X83155051Y-89247816D01*
X83251557Y-89058412D01*
X83317246Y-88856243D01*
X83350500Y-88646287D01*
X83350500Y-88433713D01*
X83317246Y-88223757D01*
X83251557Y-88021588D01*
X83155051Y-87832184D01*
X83155049Y-87832181D01*
X83155048Y-87832179D01*
X83030109Y-87660213D01*
X82879786Y-87509890D01*
X82757648Y-87421153D01*
X84199500Y-87421153D01*
X84199500Y-87578846D01*
X84230261Y-87733489D01*
X84230264Y-87733501D01*
X84290602Y-87879172D01*
X84290609Y-87879185D01*
X84378210Y-88010288D01*
X84378213Y-88010292D01*
X84489707Y-88121786D01*
X84489711Y-88121789D01*
X84620814Y-88209390D01*
X84620827Y-88209397D01*
X84766498Y-88269735D01*
X84766503Y-88269737D01*
X84921153Y-88300499D01*
X84921156Y-88300500D01*
X84921158Y-88300500D01*
X85078844Y-88300500D01*
X85078845Y-88300499D01*
X85233497Y-88269737D01*
X85346166Y-88223067D01*
X85379172Y-88209397D01*
X85379172Y-88209396D01*
X85379179Y-88209394D01*
X85510289Y-88121789D01*
X85621789Y-88010289D01*
X85709394Y-87879179D01*
X85710275Y-87877049D01*
X85711035Y-87876106D01*
X85712264Y-87873809D01*
X85712699Y-87874041D01*
X85754115Y-87822646D01*
X85820408Y-87800579D01*
X85824838Y-87800500D01*
X85828844Y-87800500D01*
X85828845Y-87800499D01*
X85983497Y-87769737D01*
X86129179Y-87709394D01*
X86260289Y-87621789D01*
X86371789Y-87510289D01*
X86459394Y-87379179D01*
X86519737Y-87233497D01*
X86550500Y-87078842D01*
X86550500Y-86921158D01*
X86550500Y-86921155D01*
X86550499Y-86921153D01*
X86524531Y-86790606D01*
X86519737Y-86766503D01*
X86517163Y-86760288D01*
X86459397Y-86620827D01*
X86459390Y-86620814D01*
X86371790Y-86489712D01*
X86362339Y-86480261D01*
X86344758Y-86462680D01*
X86311274Y-86401360D01*
X86316258Y-86331668D01*
X86344760Y-86287318D01*
X86387741Y-86244337D01*
X86387744Y-86244334D01*
X86475349Y-86113224D01*
X86535692Y-85967542D01*
X86566455Y-85812887D01*
X86566455Y-85655203D01*
X86566455Y-85655200D01*
X86566454Y-85655198D01*
X86545628Y-85550499D01*
X86535692Y-85500548D01*
X86518644Y-85459390D01*
X86475352Y-85354872D01*
X86475345Y-85354859D01*
X86387744Y-85223756D01*
X86387741Y-85223752D01*
X86276247Y-85112258D01*
X86276243Y-85112255D01*
X86145140Y-85024654D01*
X86145127Y-85024647D01*
X85999456Y-84964309D01*
X85999444Y-84964306D01*
X85844800Y-84933545D01*
X85844797Y-84933545D01*
X85687113Y-84933545D01*
X85687110Y-84933545D01*
X85532465Y-84964306D01*
X85532453Y-84964309D01*
X85386782Y-85024647D01*
X85386769Y-85024654D01*
X85255666Y-85112255D01*
X85255662Y-85112258D01*
X85144168Y-85223752D01*
X85144165Y-85223756D01*
X85056564Y-85354859D01*
X85056557Y-85354872D01*
X84996219Y-85500543D01*
X84996216Y-85500555D01*
X84965455Y-85655198D01*
X84965455Y-85812891D01*
X84996216Y-85967534D01*
X84996219Y-85967546D01*
X85056557Y-86113217D01*
X85056564Y-86113230D01*
X85144165Y-86244333D01*
X85144168Y-86244337D01*
X85171195Y-86271364D01*
X85204680Y-86332687D01*
X85199696Y-86402379D01*
X85171195Y-86446726D01*
X85128213Y-86489707D01*
X85128210Y-86489711D01*
X85040609Y-86620814D01*
X85040607Y-86620819D01*
X85039725Y-86622949D01*
X85038964Y-86623893D01*
X85037736Y-86626191D01*
X85037300Y-86625958D01*
X84995885Y-86677354D01*
X84929592Y-86699421D01*
X84925162Y-86699500D01*
X84921155Y-86699500D01*
X84766510Y-86730261D01*
X84766498Y-86730264D01*
X84620827Y-86790602D01*
X84620814Y-86790609D01*
X84489711Y-86878210D01*
X84489707Y-86878213D01*
X84378213Y-86989707D01*
X84378210Y-86989711D01*
X84290609Y-87120814D01*
X84290602Y-87120827D01*
X84230264Y-87266498D01*
X84230261Y-87266510D01*
X84199500Y-87421153D01*
X82757648Y-87421153D01*
X82707820Y-87384951D01*
X82518414Y-87288444D01*
X82518413Y-87288443D01*
X82518412Y-87288443D01*
X82316243Y-87222754D01*
X82316241Y-87222753D01*
X82316240Y-87222753D01*
X82154957Y-87197208D01*
X82106287Y-87189500D01*
X81893713Y-87189500D01*
X81845042Y-87197208D01*
X81683760Y-87222753D01*
X81481585Y-87288444D01*
X81292179Y-87384951D01*
X81120213Y-87509890D01*
X80969890Y-87660213D01*
X80844951Y-87832179D01*
X80748444Y-88021585D01*
X80682753Y-88223760D01*
X80675471Y-88269737D01*
X80649500Y-88433713D01*
X72875500Y-88433713D01*
X72875500Y-87171153D01*
X77199500Y-87171153D01*
X77199500Y-87328846D01*
X77230261Y-87483489D01*
X77230264Y-87483501D01*
X77290602Y-87629172D01*
X77290609Y-87629185D01*
X77378210Y-87760288D01*
X77378213Y-87760292D01*
X77489707Y-87871786D01*
X77489711Y-87871789D01*
X77620814Y-87959390D01*
X77620827Y-87959397D01*
X77766498Y-88019735D01*
X77766503Y-88019737D01*
X77921153Y-88050499D01*
X77921156Y-88050500D01*
X77921158Y-88050500D01*
X78078844Y-88050500D01*
X78078845Y-88050499D01*
X78233497Y-88019737D01*
X78379179Y-87959394D01*
X78510289Y-87871789D01*
X78621789Y-87760289D01*
X78709394Y-87629179D01*
X78769737Y-87483497D01*
X78800500Y-87328842D01*
X78800500Y-87171158D01*
X78800500Y-87171155D01*
X78800499Y-87171153D01*
X78782137Y-87078842D01*
X78769737Y-87016503D01*
X78769735Y-87016498D01*
X78709397Y-86870827D01*
X78709390Y-86870814D01*
X78621789Y-86739711D01*
X78621786Y-86739707D01*
X78510292Y-86628213D01*
X78510288Y-86628210D01*
X78379185Y-86540609D01*
X78379172Y-86540602D01*
X78233501Y-86480264D01*
X78233489Y-86480261D01*
X78078845Y-86449500D01*
X78078842Y-86449500D01*
X77921158Y-86449500D01*
X77921155Y-86449500D01*
X77766510Y-86480261D01*
X77766498Y-86480264D01*
X77620827Y-86540602D01*
X77620814Y-86540609D01*
X77489711Y-86628210D01*
X77489707Y-86628213D01*
X77378213Y-86739707D01*
X77378210Y-86739711D01*
X77290609Y-86870814D01*
X77290602Y-86870827D01*
X77230264Y-87016498D01*
X77230261Y-87016510D01*
X77199500Y-87171153D01*
X72875500Y-87171153D01*
X72875500Y-84671153D01*
X75699500Y-84671153D01*
X75699500Y-84828846D01*
X75730261Y-84983489D01*
X75730264Y-84983501D01*
X75790602Y-85129172D01*
X75790609Y-85129185D01*
X75878210Y-85260288D01*
X75878213Y-85260292D01*
X75989707Y-85371786D01*
X75989711Y-85371789D01*
X76120814Y-85459390D01*
X76120827Y-85459397D01*
X76266498Y-85519735D01*
X76266503Y-85519737D01*
X76421153Y-85550499D01*
X76421156Y-85550500D01*
X76421158Y-85550500D01*
X76578844Y-85550500D01*
X76578845Y-85550499D01*
X76733497Y-85519737D01*
X76851592Y-85470821D01*
X76879172Y-85459397D01*
X76879172Y-85459396D01*
X76879179Y-85459394D01*
X77010289Y-85371789D01*
X77121789Y-85260289D01*
X77209394Y-85129179D01*
X77211688Y-85123642D01*
X77230464Y-85078311D01*
X77269737Y-84983497D01*
X77300500Y-84828842D01*
X77300500Y-84671158D01*
X77300500Y-84671155D01*
X77300499Y-84671153D01*
X77292150Y-84629179D01*
X77269737Y-84516503D01*
X77269735Y-84516498D01*
X77209397Y-84370827D01*
X77209395Y-84370823D01*
X77209394Y-84370821D01*
X77178956Y-84325267D01*
X77158078Y-84258590D01*
X77176562Y-84191210D01*
X77213167Y-84153274D01*
X77260289Y-84121789D01*
X77371789Y-84010289D01*
X77459394Y-83879179D01*
X77462854Y-83870827D01*
X77517163Y-83739711D01*
X77519737Y-83733497D01*
X77532138Y-83671153D01*
X84949500Y-83671153D01*
X84949500Y-83828846D01*
X84980261Y-83983489D01*
X84980264Y-83983501D01*
X85040602Y-84129172D01*
X85040609Y-84129185D01*
X85128210Y-84260288D01*
X85128213Y-84260292D01*
X85239707Y-84371786D01*
X85239711Y-84371789D01*
X85370814Y-84459390D01*
X85370827Y-84459397D01*
X85444013Y-84489711D01*
X85516503Y-84519737D01*
X85655091Y-84547304D01*
X85671153Y-84550499D01*
X85671156Y-84550500D01*
X85671158Y-84550500D01*
X85828844Y-84550500D01*
X85828845Y-84550499D01*
X85983497Y-84519737D01*
X86129179Y-84459394D01*
X86260289Y-84371789D01*
X86260925Y-84371153D01*
X92299500Y-84371153D01*
X92299500Y-84528846D01*
X92330261Y-84683489D01*
X92330264Y-84683501D01*
X92390602Y-84829172D01*
X92390609Y-84829185D01*
X92478210Y-84960288D01*
X92478213Y-84960292D01*
X92580240Y-85062319D01*
X92613725Y-85123642D01*
X92608741Y-85193334D01*
X92580240Y-85237681D01*
X92478213Y-85339707D01*
X92478210Y-85339711D01*
X92390609Y-85470814D01*
X92390602Y-85470827D01*
X92330264Y-85616498D01*
X92330261Y-85616510D01*
X92299500Y-85771153D01*
X92299500Y-85928846D01*
X92330261Y-86083489D01*
X92330264Y-86083501D01*
X92390602Y-86229172D01*
X92390609Y-86229185D01*
X92478210Y-86360288D01*
X92478213Y-86360292D01*
X92589707Y-86471786D01*
X92589711Y-86471789D01*
X92720814Y-86559390D01*
X92720827Y-86559397D01*
X92830082Y-86604651D01*
X92866503Y-86619737D01*
X92921831Y-86630742D01*
X92983740Y-86663126D01*
X93018315Y-86723841D01*
X93019256Y-86728166D01*
X93030261Y-86783492D01*
X93030264Y-86783501D01*
X93090602Y-86929172D01*
X93090609Y-86929185D01*
X93178210Y-87060288D01*
X93178213Y-87060292D01*
X93289707Y-87171786D01*
X93289711Y-87171789D01*
X93420814Y-87259390D01*
X93420827Y-87259397D01*
X93490954Y-87288444D01*
X93566503Y-87319737D01*
X93721153Y-87350499D01*
X93721156Y-87350500D01*
X93721158Y-87350500D01*
X93878844Y-87350500D01*
X93878845Y-87350499D01*
X94033497Y-87319737D01*
X94179179Y-87259394D01*
X94310289Y-87171789D01*
X94361264Y-87120814D01*
X94412319Y-87069760D01*
X94473642Y-87036275D01*
X94543334Y-87041259D01*
X94587681Y-87069760D01*
X94689707Y-87171786D01*
X94689711Y-87171789D01*
X94820814Y-87259390D01*
X94820827Y-87259397D01*
X94890954Y-87288444D01*
X94966503Y-87319737D01*
X95121153Y-87350499D01*
X95121156Y-87350500D01*
X95121158Y-87350500D01*
X95278844Y-87350500D01*
X95278845Y-87350499D01*
X95433497Y-87319737D01*
X95579179Y-87259394D01*
X95710289Y-87171789D01*
X95821789Y-87060289D01*
X95909394Y-86929179D01*
X95912719Y-86921153D01*
X95916467Y-86912102D01*
X95969737Y-86783497D01*
X95980743Y-86728166D01*
X96013125Y-86666258D01*
X96073841Y-86631683D01*
X96078118Y-86630752D01*
X96133497Y-86619737D01*
X96279179Y-86559394D01*
X96410289Y-86471789D01*
X96521789Y-86360289D01*
X96609394Y-86229179D01*
X96669737Y-86083497D01*
X96700500Y-85928842D01*
X96700500Y-85771158D01*
X96700500Y-85771155D01*
X96700499Y-85771153D01*
X96698069Y-85758939D01*
X96669737Y-85616503D01*
X96642398Y-85550500D01*
X96609397Y-85470827D01*
X96609390Y-85470814D01*
X96521789Y-85339711D01*
X96521786Y-85339707D01*
X96419760Y-85237681D01*
X96386275Y-85176358D01*
X96391259Y-85106666D01*
X96419760Y-85062319D01*
X96521786Y-84960292D01*
X96521789Y-84960289D01*
X96609394Y-84829179D01*
X96669737Y-84683497D01*
X96700500Y-84528842D01*
X96700500Y-84371158D01*
X96700500Y-84371155D01*
X96700499Y-84371153D01*
X96691372Y-84325267D01*
X96669737Y-84216503D01*
X96663512Y-84201475D01*
X96609397Y-84070827D01*
X96609390Y-84070814D01*
X96521789Y-83939711D01*
X96521786Y-83939707D01*
X96410292Y-83828213D01*
X96410288Y-83828210D01*
X96279185Y-83740609D01*
X96279172Y-83740602D01*
X96133501Y-83680264D01*
X96133492Y-83680261D01*
X96078166Y-83669256D01*
X96016256Y-83636870D01*
X95981682Y-83576154D01*
X95980750Y-83571874D01*
X95969737Y-83516503D01*
X95930242Y-83421153D01*
X95909397Y-83370827D01*
X95909390Y-83370814D01*
X95821789Y-83239711D01*
X95821786Y-83239707D01*
X95710292Y-83128213D01*
X95710288Y-83128210D01*
X95579185Y-83040609D01*
X95579172Y-83040602D01*
X95433501Y-82980264D01*
X95433489Y-82980261D01*
X95278845Y-82949500D01*
X95278842Y-82949500D01*
X95121158Y-82949500D01*
X95121155Y-82949500D01*
X94966510Y-82980261D01*
X94966498Y-82980264D01*
X94820827Y-83040602D01*
X94820814Y-83040609D01*
X94689711Y-83128210D01*
X94689707Y-83128213D01*
X94587681Y-83230240D01*
X94526358Y-83263725D01*
X94456666Y-83258741D01*
X94412319Y-83230240D01*
X94310292Y-83128213D01*
X94310288Y-83128210D01*
X94179185Y-83040609D01*
X94179172Y-83040602D01*
X94033501Y-82980264D01*
X94033489Y-82980261D01*
X93878845Y-82949500D01*
X93878842Y-82949500D01*
X93721158Y-82949500D01*
X93721155Y-82949500D01*
X93566510Y-82980261D01*
X93566498Y-82980264D01*
X93420827Y-83040602D01*
X93420814Y-83040609D01*
X93289711Y-83128210D01*
X93289707Y-83128213D01*
X93178213Y-83239707D01*
X93178210Y-83239711D01*
X93090609Y-83370814D01*
X93090602Y-83370827D01*
X93030264Y-83516498D01*
X93030262Y-83516505D01*
X93019256Y-83571833D01*
X92986870Y-83633743D01*
X92926153Y-83668316D01*
X92921833Y-83669256D01*
X92866505Y-83680262D01*
X92866498Y-83680264D01*
X92720827Y-83740602D01*
X92720814Y-83740609D01*
X92589711Y-83828210D01*
X92589707Y-83828213D01*
X92478213Y-83939707D01*
X92478210Y-83939711D01*
X92390609Y-84070814D01*
X92390602Y-84070827D01*
X92330264Y-84216498D01*
X92330261Y-84216510D01*
X92299500Y-84371153D01*
X86260925Y-84371153D01*
X86306811Y-84325267D01*
X86354694Y-84277385D01*
X86371786Y-84260292D01*
X86371789Y-84260289D01*
X86459394Y-84129179D01*
X86519737Y-83983497D01*
X86550500Y-83828842D01*
X86550500Y-83671158D01*
X86550500Y-83671157D01*
X86550500Y-83671155D01*
X86550499Y-83671153D01*
X86524531Y-83540606D01*
X86519737Y-83516503D01*
X86515204Y-83505559D01*
X86459397Y-83370827D01*
X86459390Y-83370814D01*
X86371789Y-83239711D01*
X86371786Y-83239707D01*
X86260292Y-83128213D01*
X86260288Y-83128210D01*
X86129185Y-83040609D01*
X86129172Y-83040602D01*
X85983501Y-82980264D01*
X85983489Y-82980261D01*
X85828845Y-82949500D01*
X85828842Y-82949500D01*
X85671158Y-82949500D01*
X85671155Y-82949500D01*
X85516510Y-82980261D01*
X85516498Y-82980264D01*
X85370827Y-83040602D01*
X85370814Y-83040609D01*
X85239711Y-83128210D01*
X85239707Y-83128213D01*
X85128213Y-83239707D01*
X85128210Y-83239711D01*
X85040609Y-83370814D01*
X85040602Y-83370827D01*
X84980264Y-83516498D01*
X84980261Y-83516510D01*
X84949500Y-83671153D01*
X77532138Y-83671153D01*
X77533261Y-83665506D01*
X77538161Y-83640875D01*
X77538161Y-83640874D01*
X77550500Y-83578844D01*
X77550500Y-83421155D01*
X77550499Y-83421153D01*
X77540486Y-83370814D01*
X77519737Y-83266503D01*
X77516522Y-83258741D01*
X77459397Y-83120827D01*
X77459390Y-83120814D01*
X77371789Y-82989711D01*
X77371786Y-82989707D01*
X77260292Y-82878213D01*
X77260288Y-82878210D01*
X77129185Y-82790609D01*
X77129173Y-82790602D01*
X77102674Y-82779627D01*
X76983501Y-82730264D01*
X76983489Y-82730261D01*
X76828845Y-82699500D01*
X76828842Y-82699500D01*
X76671158Y-82699500D01*
X76671155Y-82699500D01*
X76516510Y-82730261D01*
X76516498Y-82730264D01*
X76370827Y-82790602D01*
X76370814Y-82790609D01*
X76239711Y-82878210D01*
X76239707Y-82878213D01*
X76128213Y-82989707D01*
X76128210Y-82989711D01*
X76040609Y-83120814D01*
X76040602Y-83120827D01*
X75980264Y-83266498D01*
X75980261Y-83266510D01*
X75949500Y-83421153D01*
X75949500Y-83578846D01*
X75980261Y-83733489D01*
X75980264Y-83733501D01*
X76040602Y-83879172D01*
X76040609Y-83879185D01*
X76071043Y-83924732D01*
X76091921Y-83991409D01*
X76073437Y-84058790D01*
X76036832Y-84096725D01*
X75989711Y-84128210D01*
X75989707Y-84128213D01*
X75878213Y-84239707D01*
X75878210Y-84239711D01*
X75790609Y-84370814D01*
X75790602Y-84370827D01*
X75730264Y-84516498D01*
X75730261Y-84516510D01*
X75699500Y-84671153D01*
X72875500Y-84671153D01*
X72875500Y-82671153D01*
X96949500Y-82671153D01*
X96949500Y-82828846D01*
X96980261Y-82983489D01*
X96980264Y-82983501D01*
X97040602Y-83129172D01*
X97040609Y-83129185D01*
X97128210Y-83260288D01*
X97128213Y-83260292D01*
X97239707Y-83371786D01*
X97239711Y-83371789D01*
X97370814Y-83459390D01*
X97370827Y-83459397D01*
X97482274Y-83505559D01*
X97536678Y-83549399D01*
X97558743Y-83615693D01*
X97556440Y-83644309D01*
X97551100Y-83671157D01*
X97551100Y-83828846D01*
X97581861Y-83983489D01*
X97581864Y-83983501D01*
X97642202Y-84129172D01*
X97642209Y-84129185D01*
X97729810Y-84260288D01*
X97729813Y-84260292D01*
X97841307Y-84371786D01*
X97841311Y-84371789D01*
X97972414Y-84459390D01*
X97972427Y-84459397D01*
X98045613Y-84489711D01*
X98118103Y-84519737D01*
X98191687Y-84534373D01*
X98253595Y-84566757D01*
X98282054Y-84608535D01*
X98290603Y-84629173D01*
X98290609Y-84629185D01*
X98378210Y-84760288D01*
X98378213Y-84760292D01*
X98489707Y-84871786D01*
X98489711Y-84871789D01*
X98620814Y-84959390D01*
X98620827Y-84959397D01*
X98730159Y-85004683D01*
X98784563Y-85048523D01*
X98804324Y-85095053D01*
X98831861Y-85233489D01*
X98831864Y-85233501D01*
X98892202Y-85379172D01*
X98892209Y-85379185D01*
X98979810Y-85510288D01*
X98979813Y-85510292D01*
X99091307Y-85621786D01*
X99091311Y-85621789D01*
X99222414Y-85709390D01*
X99222416Y-85709391D01*
X99222421Y-85709394D01*
X99228080Y-85711738D01*
X99282484Y-85755576D01*
X99304551Y-85821870D01*
X99295191Y-85873752D01*
X99236064Y-86016498D01*
X99236061Y-86016510D01*
X99205300Y-86171153D01*
X99205300Y-86328846D01*
X99236061Y-86483489D01*
X99236064Y-86483501D01*
X99296402Y-86629172D01*
X99296409Y-86629185D01*
X99384010Y-86760288D01*
X99384013Y-86760292D01*
X99495507Y-86871786D01*
X99495511Y-86871789D01*
X99626614Y-86959390D01*
X99626627Y-86959397D01*
X99699813Y-86989711D01*
X99772303Y-87019737D01*
X99773563Y-87019987D01*
X99774161Y-87020300D01*
X99778135Y-87021506D01*
X99777906Y-87022259D01*
X99835475Y-87052368D01*
X99870053Y-87113081D01*
X99866319Y-87182851D01*
X99863941Y-87189057D01*
X99831863Y-87266503D01*
X99831861Y-87266510D01*
X99801100Y-87421153D01*
X99801100Y-87578846D01*
X99831861Y-87733489D01*
X99831864Y-87733501D01*
X99892202Y-87879172D01*
X99892209Y-87879185D01*
X99979810Y-88010288D01*
X99979813Y-88010292D01*
X100091307Y-88121786D01*
X100091311Y-88121789D01*
X100222414Y-88209390D01*
X100222416Y-88209391D01*
X100222421Y-88209394D01*
X100228080Y-88211738D01*
X100282484Y-88255576D01*
X100304551Y-88321870D01*
X100295191Y-88373752D01*
X100236064Y-88516498D01*
X100236061Y-88516510D01*
X100205300Y-88671153D01*
X100205300Y-88828846D01*
X100236061Y-88983489D01*
X100236064Y-88983501D01*
X100296402Y-89129172D01*
X100296409Y-89129185D01*
X100384010Y-89260288D01*
X100384013Y-89260292D01*
X100495507Y-89371786D01*
X100495511Y-89371789D01*
X100626614Y-89459390D01*
X100626627Y-89459397D01*
X100699813Y-89489711D01*
X100772303Y-89519737D01*
X100926953Y-89550499D01*
X100926956Y-89550500D01*
X100926958Y-89550500D01*
X101084644Y-89550500D01*
X101084645Y-89550499D01*
X101239297Y-89519737D01*
X101384979Y-89459394D01*
X101516089Y-89371789D01*
X101627589Y-89260289D01*
X101715194Y-89129179D01*
X101718654Y-89120827D01*
X101728867Y-89096166D01*
X101775537Y-88983497D01*
X101806300Y-88828842D01*
X101806300Y-88671158D01*
X101806300Y-88671155D01*
X101806299Y-88671153D01*
X101775538Y-88516510D01*
X101775537Y-88516503D01*
X101741245Y-88433713D01*
X101715197Y-88370827D01*
X101715190Y-88370814D01*
X101627589Y-88239711D01*
X101627586Y-88239707D01*
X101516092Y-88128213D01*
X101516088Y-88128210D01*
X101384985Y-88040609D01*
X101384980Y-88040607D01*
X101384979Y-88040606D01*
X101379314Y-88038259D01*
X101324912Y-87994418D01*
X101302848Y-87928124D01*
X101312207Y-87876249D01*
X101371337Y-87733497D01*
X101402100Y-87578842D01*
X101402100Y-87421158D01*
X101402100Y-87421155D01*
X101402099Y-87421153D01*
X101394898Y-87384951D01*
X101371337Y-87266503D01*
X101339258Y-87189057D01*
X101310997Y-87120827D01*
X101310990Y-87120814D01*
X101223389Y-86989711D01*
X101223386Y-86989707D01*
X101111892Y-86878213D01*
X101111888Y-86878210D01*
X100980785Y-86790609D01*
X100980772Y-86790602D01*
X100835101Y-86730264D01*
X100835087Y-86730260D01*
X100833824Y-86730009D01*
X100833223Y-86729694D01*
X100829265Y-86728494D01*
X100829492Y-86727743D01*
X100771914Y-86697622D01*
X100737343Y-86636905D01*
X100741085Y-86567136D01*
X100743459Y-86560940D01*
X100744098Y-86559397D01*
X100775537Y-86483497D01*
X100806300Y-86328842D01*
X100806300Y-86171158D01*
X100806300Y-86171155D01*
X100806299Y-86171153D01*
X100775538Y-86016510D01*
X100775537Y-86016503D01*
X100755254Y-85967534D01*
X100715197Y-85870827D01*
X100715190Y-85870814D01*
X100627589Y-85739711D01*
X100627586Y-85739707D01*
X100516092Y-85628213D01*
X100516088Y-85628210D01*
X100384985Y-85540609D01*
X100384980Y-85540607D01*
X100384979Y-85540606D01*
X100379314Y-85538259D01*
X100324912Y-85494418D01*
X100302848Y-85428124D01*
X100312207Y-85376249D01*
X100371337Y-85233497D01*
X100402100Y-85078842D01*
X100402100Y-84921158D01*
X100402100Y-84921155D01*
X100402099Y-84921153D01*
X100383804Y-84829179D01*
X100371337Y-84766503D01*
X100331842Y-84671153D01*
X100310997Y-84620827D01*
X100310990Y-84620814D01*
X100223389Y-84489711D01*
X100223386Y-84489707D01*
X100111892Y-84378213D01*
X100111888Y-84378210D01*
X99980785Y-84290609D01*
X99980775Y-84290604D01*
X99871440Y-84245316D01*
X99817037Y-84201475D01*
X99797276Y-84154947D01*
X99769738Y-84016508D01*
X99769737Y-84016507D01*
X99769737Y-84016503D01*
X99737929Y-83939711D01*
X99709397Y-83870827D01*
X99709390Y-83870814D01*
X99621789Y-83739711D01*
X99621786Y-83739707D01*
X99510292Y-83628213D01*
X99510288Y-83628210D01*
X99379185Y-83540609D01*
X99379172Y-83540602D01*
X99233501Y-83480264D01*
X99233491Y-83480261D01*
X99159912Y-83465625D01*
X99098001Y-83433240D01*
X99069542Y-83391459D01*
X99060994Y-83370821D01*
X99060990Y-83370814D01*
X98973389Y-83239711D01*
X98973386Y-83239707D01*
X98861892Y-83128213D01*
X98861888Y-83128210D01*
X98730785Y-83040609D01*
X98730772Y-83040602D01*
X98619325Y-82994440D01*
X98564921Y-82950599D01*
X98542856Y-82884305D01*
X98545160Y-82855685D01*
X98550500Y-82828841D01*
X98550500Y-82671155D01*
X98550499Y-82671153D01*
X98519738Y-82516510D01*
X98519737Y-82516503D01*
X98519735Y-82516498D01*
X98459397Y-82370827D01*
X98459390Y-82370814D01*
X98371789Y-82239711D01*
X98371786Y-82239707D01*
X98260292Y-82128213D01*
X98260288Y-82128210D01*
X98129185Y-82040609D01*
X98129172Y-82040602D01*
X97983501Y-81980264D01*
X97983489Y-81980261D01*
X97828845Y-81949500D01*
X97828842Y-81949500D01*
X97671158Y-81949500D01*
X97671155Y-81949500D01*
X97516510Y-81980261D01*
X97516498Y-81980264D01*
X97370827Y-82040602D01*
X97370814Y-82040609D01*
X97239711Y-82128210D01*
X97239707Y-82128213D01*
X97128213Y-82239707D01*
X97128210Y-82239711D01*
X97040609Y-82370814D01*
X97040602Y-82370827D01*
X96980264Y-82516498D01*
X96980261Y-82516510D01*
X96949500Y-82671153D01*
X72875500Y-82671153D01*
X72875500Y-80421153D01*
X73699500Y-80421153D01*
X73699500Y-80578846D01*
X73730261Y-80733489D01*
X73730264Y-80733501D01*
X73790602Y-80879172D01*
X73790609Y-80879185D01*
X73878210Y-81010288D01*
X73878213Y-81010292D01*
X73989707Y-81121786D01*
X73989711Y-81121789D01*
X74120814Y-81209390D01*
X74120827Y-81209397D01*
X74266498Y-81269735D01*
X74266503Y-81269737D01*
X74421153Y-81300499D01*
X74421156Y-81300500D01*
X74421158Y-81300500D01*
X74578844Y-81300500D01*
X74578845Y-81300499D01*
X74733497Y-81269737D01*
X74879179Y-81209394D01*
X75010289Y-81121789D01*
X75121789Y-81010289D01*
X75209394Y-80879179D01*
X75269737Y-80733497D01*
X75300500Y-80578842D01*
X75300500Y-80421158D01*
X75300500Y-80421155D01*
X75300499Y-80421153D01*
X75269738Y-80266510D01*
X75269737Y-80266503D01*
X75256062Y-80233489D01*
X75209397Y-80120827D01*
X75209390Y-80120814D01*
X75121789Y-79989711D01*
X75121786Y-79989707D01*
X75010292Y-79878213D01*
X75010288Y-79878210D01*
X74879185Y-79790609D01*
X74879172Y-79790602D01*
X74733501Y-79730264D01*
X74733489Y-79730261D01*
X74578845Y-79699500D01*
X74578842Y-79699500D01*
X74421158Y-79699500D01*
X74421155Y-79699500D01*
X74266510Y-79730261D01*
X74266498Y-79730264D01*
X74120827Y-79790602D01*
X74120814Y-79790609D01*
X73989711Y-79878210D01*
X73989707Y-79878213D01*
X73878213Y-79989707D01*
X73878210Y-79989711D01*
X73790609Y-80120814D01*
X73790602Y-80120827D01*
X73730264Y-80266498D01*
X73730261Y-80266510D01*
X73699500Y-80421153D01*
X72875500Y-80421153D01*
X72875500Y-76624500D01*
X72895185Y-76557461D01*
X72947989Y-76511706D01*
X72999500Y-76500500D01*
X75327093Y-76500500D01*
X75394132Y-76520185D01*
G37*
%TD.AperFunction*%
%TD*%
%TA.AperFunction,Conductor*%
%TO.N,+5V*%
G36*
X110192951Y-76520185D02*
G01*
X110238706Y-76572989D01*
X110248650Y-76642147D01*
X110219625Y-76705703D01*
X110160847Y-76743477D01*
X110153325Y-76745169D01*
X110153360Y-76745312D01*
X110148631Y-76746446D01*
X109924003Y-76819433D01*
X109713566Y-76926657D01*
X109604550Y-77005862D01*
X109522490Y-77065483D01*
X109522488Y-77065485D01*
X109522487Y-77065485D01*
X109355485Y-77232487D01*
X109355485Y-77232488D01*
X109355483Y-77232490D01*
X109295862Y-77314550D01*
X109216657Y-77423566D01*
X109109433Y-77634003D01*
X109036446Y-77858631D01*
X108999500Y-78091902D01*
X108999500Y-78328097D01*
X109036446Y-78561368D01*
X109109433Y-78785996D01*
X109136283Y-78838691D01*
X109216657Y-78996433D01*
X109355483Y-79187510D01*
X109522490Y-79354517D01*
X109713567Y-79493343D01*
X109812991Y-79544002D01*
X109924003Y-79600566D01*
X109924005Y-79600566D01*
X109924008Y-79600568D01*
X110044412Y-79639689D01*
X110148631Y-79673553D01*
X110381903Y-79710500D01*
X110381908Y-79710500D01*
X110618097Y-79710500D01*
X110851368Y-79673553D01*
X111075992Y-79600568D01*
X111286433Y-79493343D01*
X111477510Y-79354517D01*
X111644517Y-79187510D01*
X111783343Y-78996433D01*
X111890568Y-78785992D01*
X111963553Y-78561368D01*
X111975279Y-78487334D01*
X112000500Y-78328097D01*
X112000500Y-78091902D01*
X111963553Y-77858631D01*
X111890566Y-77634003D01*
X111827530Y-77510289D01*
X111783343Y-77423567D01*
X111644517Y-77232490D01*
X111477510Y-77065483D01*
X111286433Y-76926657D01*
X111256368Y-76911338D01*
X111075996Y-76819433D01*
X110851368Y-76746446D01*
X110846640Y-76745312D01*
X110847104Y-76743376D01*
X110791555Y-76717043D01*
X110754624Y-76657732D01*
X110755622Y-76587869D01*
X110794232Y-76529637D01*
X110858196Y-76501523D01*
X110874088Y-76500500D01*
X114000500Y-76500500D01*
X114067539Y-76520185D01*
X114113294Y-76572989D01*
X114124500Y-76624500D01*
X114124500Y-122620500D01*
X114104815Y-122687539D01*
X114052011Y-122733294D01*
X114000500Y-122744500D01*
X82325922Y-122744500D01*
X82316891Y-122744580D01*
X82315561Y-122744604D01*
X82248182Y-122726118D01*
X82201493Y-122674138D01*
X82198789Y-122668075D01*
X82184394Y-122633321D01*
X82184390Y-122633314D01*
X82096789Y-122502211D01*
X82096786Y-122502207D01*
X81985292Y-122390713D01*
X81985284Y-122390707D01*
X81938358Y-122359352D01*
X81893552Y-122305740D01*
X81884845Y-122236415D01*
X81914999Y-122173388D01*
X81938358Y-122153148D01*
X81969506Y-122132334D01*
X81985289Y-122121789D01*
X82096789Y-122010289D01*
X82184394Y-121879179D01*
X82244737Y-121733497D01*
X82275500Y-121578842D01*
X82275500Y-121421158D01*
X82275500Y-121421155D01*
X82275499Y-121421153D01*
X82244738Y-121266510D01*
X82244737Y-121266503D01*
X82244735Y-121266498D01*
X82184397Y-121120827D01*
X82184390Y-121120814D01*
X82096789Y-120989711D01*
X82096786Y-120989707D01*
X81985292Y-120878213D01*
X81985288Y-120878210D01*
X81854185Y-120790609D01*
X81854172Y-120790602D01*
X81730945Y-120739561D01*
X81676541Y-120695721D01*
X81654476Y-120629427D01*
X81671755Y-120561727D01*
X81722892Y-120514116D01*
X81730945Y-120510439D01*
X81854172Y-120459397D01*
X81854172Y-120459396D01*
X81854179Y-120459394D01*
X81985289Y-120371789D01*
X82096789Y-120260289D01*
X82184394Y-120129179D01*
X82244737Y-119983497D01*
X82275500Y-119828842D01*
X82275500Y-119671158D01*
X82275500Y-119671155D01*
X82275499Y-119671153D01*
X82244737Y-119516503D01*
X82244735Y-119516498D01*
X82184397Y-119370827D01*
X82184390Y-119370814D01*
X82096789Y-119239711D01*
X82096786Y-119239707D01*
X81985292Y-119128213D01*
X81985288Y-119128210D01*
X81854185Y-119040609D01*
X81854172Y-119040602D01*
X81708501Y-118980264D01*
X81708489Y-118980261D01*
X81553845Y-118949500D01*
X81553842Y-118949500D01*
X81396158Y-118949500D01*
X81396155Y-118949500D01*
X81241510Y-118980261D01*
X81241498Y-118980264D01*
X81095827Y-119040602D01*
X81095814Y-119040609D01*
X80964711Y-119128210D01*
X80964707Y-119128213D01*
X80853213Y-119239707D01*
X80853210Y-119239711D01*
X80765609Y-119370814D01*
X80765602Y-119370827D01*
X80705264Y-119516498D01*
X80705261Y-119516510D01*
X80674500Y-119671153D01*
X80674500Y-119828846D01*
X80705261Y-119983489D01*
X80705264Y-119983501D01*
X80765602Y-120129172D01*
X80765609Y-120129185D01*
X80853210Y-120260288D01*
X80853213Y-120260292D01*
X80964707Y-120371786D01*
X80964711Y-120371789D01*
X81095814Y-120459390D01*
X81095827Y-120459397D01*
X81219054Y-120510439D01*
X81273458Y-120554280D01*
X81295523Y-120620574D01*
X81278244Y-120688273D01*
X81227107Y-120735884D01*
X81219054Y-120739561D01*
X81095827Y-120790602D01*
X81095814Y-120790609D01*
X80964711Y-120878210D01*
X80964707Y-120878213D01*
X80853213Y-120989707D01*
X80853210Y-120989711D01*
X80765609Y-121120814D01*
X80765602Y-121120827D01*
X80705264Y-121266498D01*
X80705261Y-121266510D01*
X80674500Y-121421153D01*
X80674500Y-121578846D01*
X80705261Y-121733489D01*
X80705264Y-121733501D01*
X80765602Y-121879172D01*
X80765609Y-121879185D01*
X80853210Y-122010288D01*
X80853213Y-122010292D01*
X80964707Y-122121786D01*
X80964711Y-122121789D01*
X81011642Y-122153148D01*
X81056447Y-122206761D01*
X81065154Y-122276086D01*
X81034999Y-122339113D01*
X81011642Y-122359352D01*
X80964711Y-122390710D01*
X80964707Y-122390713D01*
X80853213Y-122502207D01*
X80853210Y-122502211D01*
X80765609Y-122633314D01*
X80765601Y-122633329D01*
X80751023Y-122668524D01*
X80707182Y-122722927D01*
X80640887Y-122744991D01*
X80627614Y-122744754D01*
X80624069Y-122744500D01*
X80624067Y-122744500D01*
X79825933Y-122744500D01*
X79825922Y-122744500D01*
X79816891Y-122744580D01*
X79815561Y-122744604D01*
X79748182Y-122726118D01*
X79701493Y-122674138D01*
X79698789Y-122668075D01*
X79684394Y-122633321D01*
X79684390Y-122633314D01*
X79596789Y-122502211D01*
X79596786Y-122502207D01*
X79485292Y-122390713D01*
X79485284Y-122390707D01*
X79438358Y-122359352D01*
X79393552Y-122305740D01*
X79384845Y-122236415D01*
X79414999Y-122173388D01*
X79438358Y-122153148D01*
X79469506Y-122132334D01*
X79485289Y-122121789D01*
X79596789Y-122010289D01*
X79684394Y-121879179D01*
X79744737Y-121733497D01*
X79775500Y-121578842D01*
X79775500Y-121421158D01*
X79775500Y-121421155D01*
X79775499Y-121421153D01*
X79744738Y-121266510D01*
X79744737Y-121266503D01*
X79744735Y-121266498D01*
X79684397Y-121120827D01*
X79684390Y-121120814D01*
X79596789Y-120989711D01*
X79596786Y-120989707D01*
X79485292Y-120878213D01*
X79485288Y-120878210D01*
X79354185Y-120790609D01*
X79354172Y-120790602D01*
X79230945Y-120739561D01*
X79176541Y-120695721D01*
X79154476Y-120629427D01*
X79171755Y-120561727D01*
X79222892Y-120514116D01*
X79230945Y-120510439D01*
X79354172Y-120459397D01*
X79354172Y-120459396D01*
X79354179Y-120459394D01*
X79485289Y-120371789D01*
X79596789Y-120260289D01*
X79684394Y-120129179D01*
X79744737Y-119983497D01*
X79775500Y-119828842D01*
X79775500Y-119671158D01*
X79775500Y-119671155D01*
X79775499Y-119671153D01*
X79744737Y-119516503D01*
X79744735Y-119516498D01*
X79684397Y-119370827D01*
X79684390Y-119370814D01*
X79596789Y-119239711D01*
X79596786Y-119239707D01*
X79485292Y-119128213D01*
X79485288Y-119128210D01*
X79354185Y-119040609D01*
X79354172Y-119040602D01*
X79208501Y-118980264D01*
X79208489Y-118980261D01*
X79053845Y-118949500D01*
X79053842Y-118949500D01*
X78896158Y-118949500D01*
X78896155Y-118949500D01*
X78741510Y-118980261D01*
X78741498Y-118980264D01*
X78595827Y-119040602D01*
X78595814Y-119040609D01*
X78464711Y-119128210D01*
X78464707Y-119128213D01*
X78353213Y-119239707D01*
X78353210Y-119239711D01*
X78265609Y-119370814D01*
X78265602Y-119370827D01*
X78205264Y-119516498D01*
X78205261Y-119516510D01*
X78174500Y-119671153D01*
X78174500Y-119828846D01*
X78205261Y-119983489D01*
X78205264Y-119983501D01*
X78265602Y-120129172D01*
X78265609Y-120129185D01*
X78353210Y-120260288D01*
X78353213Y-120260292D01*
X78464707Y-120371786D01*
X78464711Y-120371789D01*
X78595814Y-120459390D01*
X78595827Y-120459397D01*
X78719054Y-120510439D01*
X78773458Y-120554280D01*
X78795523Y-120620574D01*
X78778244Y-120688273D01*
X78727107Y-120735884D01*
X78719054Y-120739561D01*
X78595827Y-120790602D01*
X78595814Y-120790609D01*
X78464711Y-120878210D01*
X78464707Y-120878213D01*
X78353213Y-120989707D01*
X78353210Y-120989711D01*
X78265609Y-121120814D01*
X78265602Y-121120827D01*
X78205264Y-121266498D01*
X78205261Y-121266510D01*
X78174500Y-121421153D01*
X78174500Y-121578846D01*
X78205261Y-121733489D01*
X78205264Y-121733501D01*
X78265602Y-121879172D01*
X78265609Y-121879185D01*
X78353210Y-122010288D01*
X78353213Y-122010292D01*
X78464707Y-122121786D01*
X78464711Y-122121789D01*
X78511642Y-122153148D01*
X78556447Y-122206761D01*
X78565154Y-122276086D01*
X78534999Y-122339113D01*
X78511642Y-122359352D01*
X78464711Y-122390710D01*
X78464707Y-122390713D01*
X78353213Y-122502207D01*
X78353210Y-122502211D01*
X78265609Y-122633314D01*
X78265601Y-122633329D01*
X78251023Y-122668524D01*
X78207182Y-122722927D01*
X78140887Y-122744991D01*
X78127614Y-122744754D01*
X78124069Y-122744500D01*
X78124067Y-122744500D01*
X77325933Y-122744500D01*
X77325922Y-122744500D01*
X77316891Y-122744580D01*
X77315561Y-122744604D01*
X77248182Y-122726118D01*
X77201493Y-122674138D01*
X77198789Y-122668075D01*
X77184394Y-122633321D01*
X77184390Y-122633314D01*
X77096789Y-122502211D01*
X77096786Y-122502207D01*
X76985292Y-122390713D01*
X76985284Y-122390707D01*
X76938358Y-122359352D01*
X76893552Y-122305740D01*
X76884845Y-122236415D01*
X76914999Y-122173388D01*
X76938358Y-122153148D01*
X76969506Y-122132334D01*
X76985289Y-122121789D01*
X77096789Y-122010289D01*
X77184394Y-121879179D01*
X77244737Y-121733497D01*
X77275500Y-121578842D01*
X77275500Y-121421158D01*
X77275500Y-121421155D01*
X77275499Y-121421153D01*
X77244738Y-121266510D01*
X77244737Y-121266503D01*
X77244735Y-121266498D01*
X77184397Y-121120827D01*
X77184390Y-121120814D01*
X77096789Y-120989711D01*
X77096786Y-120989707D01*
X76985292Y-120878213D01*
X76985288Y-120878210D01*
X76854185Y-120790609D01*
X76854172Y-120790602D01*
X76730945Y-120739561D01*
X76676541Y-120695721D01*
X76654476Y-120629427D01*
X76671755Y-120561727D01*
X76722892Y-120514116D01*
X76730945Y-120510439D01*
X76854172Y-120459397D01*
X76854172Y-120459396D01*
X76854179Y-120459394D01*
X76985289Y-120371789D01*
X77096789Y-120260289D01*
X77184394Y-120129179D01*
X77244737Y-119983497D01*
X77275500Y-119828842D01*
X77275500Y-119671158D01*
X77275500Y-119671155D01*
X77275499Y-119671153D01*
X77244737Y-119516503D01*
X77244735Y-119516498D01*
X77184397Y-119370827D01*
X77184390Y-119370814D01*
X77096789Y-119239711D01*
X77096786Y-119239707D01*
X76985292Y-119128213D01*
X76985288Y-119128210D01*
X76854185Y-119040609D01*
X76854172Y-119040602D01*
X76708501Y-118980264D01*
X76708489Y-118980261D01*
X76553845Y-118949500D01*
X76553842Y-118949500D01*
X76396158Y-118949500D01*
X76396155Y-118949500D01*
X76241510Y-118980261D01*
X76241498Y-118980264D01*
X76095827Y-119040602D01*
X76095814Y-119040609D01*
X75964711Y-119128210D01*
X75964707Y-119128213D01*
X75853213Y-119239707D01*
X75853210Y-119239711D01*
X75765609Y-119370814D01*
X75765602Y-119370827D01*
X75705264Y-119516498D01*
X75705261Y-119516510D01*
X75674500Y-119671153D01*
X75674500Y-119828846D01*
X75705261Y-119983489D01*
X75705264Y-119983501D01*
X75765602Y-120129172D01*
X75765609Y-120129185D01*
X75853210Y-120260288D01*
X75853213Y-120260292D01*
X75964707Y-120371786D01*
X75964711Y-120371789D01*
X76095814Y-120459390D01*
X76095827Y-120459397D01*
X76219054Y-120510439D01*
X76273458Y-120554280D01*
X76295523Y-120620574D01*
X76278244Y-120688273D01*
X76227107Y-120735884D01*
X76219054Y-120739561D01*
X76095827Y-120790602D01*
X76095814Y-120790609D01*
X75964711Y-120878210D01*
X75964707Y-120878213D01*
X75853213Y-120989707D01*
X75853210Y-120989711D01*
X75765609Y-121120814D01*
X75765602Y-121120827D01*
X75705264Y-121266498D01*
X75705261Y-121266510D01*
X75674500Y-121421153D01*
X75674500Y-121578846D01*
X75705261Y-121733489D01*
X75705264Y-121733501D01*
X75765602Y-121879172D01*
X75765609Y-121879185D01*
X75853210Y-122010288D01*
X75853213Y-122010292D01*
X75964707Y-122121786D01*
X75964711Y-122121789D01*
X76011642Y-122153148D01*
X76056447Y-122206761D01*
X76065154Y-122276086D01*
X76034999Y-122339113D01*
X76011642Y-122359352D01*
X75964711Y-122390710D01*
X75964707Y-122390713D01*
X75853213Y-122502207D01*
X75853210Y-122502211D01*
X75765609Y-122633314D01*
X75765601Y-122633329D01*
X75751023Y-122668524D01*
X75707182Y-122722927D01*
X75640887Y-122744991D01*
X75627614Y-122744754D01*
X75624069Y-122744500D01*
X75624067Y-122744500D01*
X74825933Y-122744500D01*
X74825922Y-122744500D01*
X74816891Y-122744580D01*
X74815561Y-122744604D01*
X74748182Y-122726118D01*
X74701493Y-122674138D01*
X74698789Y-122668075D01*
X74684394Y-122633321D01*
X74684390Y-122633314D01*
X74596789Y-122502211D01*
X74596786Y-122502207D01*
X74485292Y-122390713D01*
X74485284Y-122390707D01*
X74438358Y-122359352D01*
X74393552Y-122305740D01*
X74384845Y-122236415D01*
X74414999Y-122173388D01*
X74438358Y-122153148D01*
X74469506Y-122132334D01*
X74485289Y-122121789D01*
X74596789Y-122010289D01*
X74684394Y-121879179D01*
X74744737Y-121733497D01*
X74775500Y-121578842D01*
X74775500Y-121421158D01*
X74775500Y-121421155D01*
X74775499Y-121421153D01*
X74744738Y-121266510D01*
X74744737Y-121266503D01*
X74744735Y-121266498D01*
X74684397Y-121120827D01*
X74684390Y-121120814D01*
X74596789Y-120989711D01*
X74596786Y-120989707D01*
X74485292Y-120878213D01*
X74485288Y-120878210D01*
X74354185Y-120790609D01*
X74354172Y-120790602D01*
X74230945Y-120739561D01*
X74176541Y-120695721D01*
X74154476Y-120629427D01*
X74171755Y-120561727D01*
X74222892Y-120514116D01*
X74230945Y-120510439D01*
X74354172Y-120459397D01*
X74354172Y-120459396D01*
X74354179Y-120459394D01*
X74485289Y-120371789D01*
X74596789Y-120260289D01*
X74684394Y-120129179D01*
X74744737Y-119983497D01*
X74775500Y-119828842D01*
X74775500Y-119671158D01*
X74775500Y-119671155D01*
X74775499Y-119671153D01*
X74744737Y-119516503D01*
X74744735Y-119516498D01*
X74684397Y-119370827D01*
X74684390Y-119370814D01*
X74596789Y-119239711D01*
X74596786Y-119239707D01*
X74485292Y-119128213D01*
X74485288Y-119128210D01*
X74354185Y-119040609D01*
X74354172Y-119040602D01*
X74208501Y-118980264D01*
X74208489Y-118980261D01*
X74053845Y-118949500D01*
X74053842Y-118949500D01*
X73896158Y-118949500D01*
X73896155Y-118949500D01*
X73741510Y-118980261D01*
X73741498Y-118980264D01*
X73595827Y-119040602D01*
X73595814Y-119040609D01*
X73464711Y-119128210D01*
X73464707Y-119128213D01*
X73353213Y-119239707D01*
X73353210Y-119239711D01*
X73265609Y-119370814D01*
X73265602Y-119370827D01*
X73205264Y-119516498D01*
X73205261Y-119516510D01*
X73174500Y-119671153D01*
X73174500Y-119828846D01*
X73205261Y-119983489D01*
X73205264Y-119983501D01*
X73265602Y-120129172D01*
X73265609Y-120129185D01*
X73353210Y-120260288D01*
X73353213Y-120260292D01*
X73464707Y-120371786D01*
X73464711Y-120371789D01*
X73595814Y-120459390D01*
X73595827Y-120459397D01*
X73719054Y-120510439D01*
X73773458Y-120554280D01*
X73795523Y-120620574D01*
X73778244Y-120688273D01*
X73727107Y-120735884D01*
X73719054Y-120739561D01*
X73595827Y-120790602D01*
X73595814Y-120790609D01*
X73464711Y-120878210D01*
X73464707Y-120878213D01*
X73353213Y-120989707D01*
X73353210Y-120989711D01*
X73265609Y-121120814D01*
X73265602Y-121120827D01*
X73205264Y-121266498D01*
X73205261Y-121266510D01*
X73174500Y-121421153D01*
X73174500Y-121578846D01*
X73205261Y-121733489D01*
X73205264Y-121733501D01*
X73265602Y-121879172D01*
X73265609Y-121879185D01*
X73353210Y-122010288D01*
X73353213Y-122010292D01*
X73464707Y-122121786D01*
X73464711Y-122121789D01*
X73511642Y-122153148D01*
X73556447Y-122206761D01*
X73565154Y-122276086D01*
X73534999Y-122339113D01*
X73511642Y-122359352D01*
X73464711Y-122390710D01*
X73464707Y-122390713D01*
X73353213Y-122502207D01*
X73353210Y-122502211D01*
X73265609Y-122633314D01*
X73265601Y-122633329D01*
X73251023Y-122668524D01*
X73207182Y-122722927D01*
X73140887Y-122744991D01*
X73127614Y-122744754D01*
X73124069Y-122744500D01*
X73124067Y-122744500D01*
X72999500Y-122744500D01*
X72932461Y-122724815D01*
X72886706Y-122672011D01*
X72875500Y-122620500D01*
X72875500Y-116021153D01*
X73174500Y-116021153D01*
X73174500Y-116178846D01*
X73205261Y-116333489D01*
X73205264Y-116333501D01*
X73265602Y-116479172D01*
X73265609Y-116479185D01*
X73353210Y-116610288D01*
X73353213Y-116610292D01*
X73464707Y-116721786D01*
X73464711Y-116721789D01*
X73595814Y-116809390D01*
X73595827Y-116809397D01*
X73719054Y-116860439D01*
X73773458Y-116904280D01*
X73795523Y-116970574D01*
X73778244Y-117038273D01*
X73727107Y-117085884D01*
X73719054Y-117089561D01*
X73595827Y-117140602D01*
X73595814Y-117140609D01*
X73464711Y-117228210D01*
X73464707Y-117228213D01*
X73353213Y-117339707D01*
X73353210Y-117339711D01*
X73265609Y-117470814D01*
X73265602Y-117470827D01*
X73205264Y-117616498D01*
X73205261Y-117616510D01*
X73174500Y-117771153D01*
X73174500Y-117928846D01*
X73205261Y-118083489D01*
X73205264Y-118083501D01*
X73265602Y-118229172D01*
X73265609Y-118229185D01*
X73353210Y-118360288D01*
X73353213Y-118360292D01*
X73464707Y-118471786D01*
X73464711Y-118471789D01*
X73595814Y-118559390D01*
X73595827Y-118559397D01*
X73734673Y-118616908D01*
X73741503Y-118619737D01*
X73896153Y-118650499D01*
X73896156Y-118650500D01*
X73896158Y-118650500D01*
X74053844Y-118650500D01*
X74053845Y-118650499D01*
X74208497Y-118619737D01*
X74354179Y-118559394D01*
X74485289Y-118471789D01*
X74596789Y-118360289D01*
X74684394Y-118229179D01*
X74744737Y-118083497D01*
X74775500Y-117928842D01*
X74775500Y-117771158D01*
X74775500Y-117771155D01*
X74775499Y-117771153D01*
X74744738Y-117616510D01*
X74744737Y-117616503D01*
X74733959Y-117590483D01*
X74684397Y-117470827D01*
X74684390Y-117470814D01*
X74596789Y-117339711D01*
X74596786Y-117339707D01*
X74485292Y-117228213D01*
X74485288Y-117228210D01*
X74354185Y-117140609D01*
X74354172Y-117140602D01*
X74230945Y-117089561D01*
X74176541Y-117045721D01*
X74154476Y-116979427D01*
X74171755Y-116911727D01*
X74222892Y-116864116D01*
X74230945Y-116860439D01*
X74354172Y-116809397D01*
X74354172Y-116809396D01*
X74354179Y-116809394D01*
X74485289Y-116721789D01*
X74596789Y-116610289D01*
X74684394Y-116479179D01*
X74744737Y-116333497D01*
X74775500Y-116178842D01*
X74775500Y-116021158D01*
X74775500Y-116021155D01*
X74775499Y-116021153D01*
X75674500Y-116021153D01*
X75674500Y-116178846D01*
X75705261Y-116333489D01*
X75705264Y-116333501D01*
X75765602Y-116479172D01*
X75765609Y-116479185D01*
X75853210Y-116610288D01*
X75853213Y-116610292D01*
X75964707Y-116721786D01*
X75964711Y-116721789D01*
X76095814Y-116809390D01*
X76095827Y-116809397D01*
X76219054Y-116860439D01*
X76273458Y-116904280D01*
X76295523Y-116970574D01*
X76278244Y-117038273D01*
X76227107Y-117085884D01*
X76219054Y-117089561D01*
X76095827Y-117140602D01*
X76095814Y-117140609D01*
X75964711Y-117228210D01*
X75964707Y-117228213D01*
X75853213Y-117339707D01*
X75853210Y-117339711D01*
X75765609Y-117470814D01*
X75765602Y-117470827D01*
X75705264Y-117616498D01*
X75705261Y-117616510D01*
X75674500Y-117771153D01*
X75674500Y-117928846D01*
X75705261Y-118083489D01*
X75705264Y-118083501D01*
X75765602Y-118229172D01*
X75765609Y-118229185D01*
X75853210Y-118360288D01*
X75853213Y-118360292D01*
X75964707Y-118471786D01*
X75964711Y-118471789D01*
X76095814Y-118559390D01*
X76095827Y-118559397D01*
X76234673Y-118616908D01*
X76241503Y-118619737D01*
X76396153Y-118650499D01*
X76396156Y-118650500D01*
X76396158Y-118650500D01*
X76553844Y-118650500D01*
X76553845Y-118650499D01*
X76708497Y-118619737D01*
X76854179Y-118559394D01*
X76985289Y-118471789D01*
X77096789Y-118360289D01*
X77184394Y-118229179D01*
X77244737Y-118083497D01*
X77275500Y-117928842D01*
X77275500Y-117771158D01*
X77275500Y-117771155D01*
X77275499Y-117771153D01*
X77244738Y-117616510D01*
X77244737Y-117616503D01*
X77233959Y-117590483D01*
X77184397Y-117470827D01*
X77184390Y-117470814D01*
X77096789Y-117339711D01*
X77096786Y-117339707D01*
X76985292Y-117228213D01*
X76985288Y-117228210D01*
X76854185Y-117140609D01*
X76854172Y-117140602D01*
X76730945Y-117089561D01*
X76676541Y-117045721D01*
X76654476Y-116979427D01*
X76671755Y-116911727D01*
X76722892Y-116864116D01*
X76730945Y-116860439D01*
X76854172Y-116809397D01*
X76854172Y-116809396D01*
X76854179Y-116809394D01*
X76985289Y-116721789D01*
X77096789Y-116610289D01*
X77184394Y-116479179D01*
X77244737Y-116333497D01*
X77275500Y-116178842D01*
X77275500Y-116021158D01*
X77275500Y-116021155D01*
X77275499Y-116021153D01*
X78174500Y-116021153D01*
X78174500Y-116178846D01*
X78205261Y-116333489D01*
X78205264Y-116333501D01*
X78265602Y-116479172D01*
X78265609Y-116479185D01*
X78353210Y-116610288D01*
X78353213Y-116610292D01*
X78464707Y-116721786D01*
X78464711Y-116721789D01*
X78595814Y-116809390D01*
X78595827Y-116809397D01*
X78719054Y-116860439D01*
X78773458Y-116904280D01*
X78795523Y-116970574D01*
X78778244Y-117038273D01*
X78727107Y-117085884D01*
X78719054Y-117089561D01*
X78595827Y-117140602D01*
X78595814Y-117140609D01*
X78464711Y-117228210D01*
X78464707Y-117228213D01*
X78353213Y-117339707D01*
X78353210Y-117339711D01*
X78265609Y-117470814D01*
X78265602Y-117470827D01*
X78205264Y-117616498D01*
X78205261Y-117616510D01*
X78174500Y-117771153D01*
X78174500Y-117928846D01*
X78205261Y-118083489D01*
X78205264Y-118083501D01*
X78265602Y-118229172D01*
X78265609Y-118229185D01*
X78353210Y-118360288D01*
X78353213Y-118360292D01*
X78464707Y-118471786D01*
X78464711Y-118471789D01*
X78595814Y-118559390D01*
X78595827Y-118559397D01*
X78734673Y-118616908D01*
X78741503Y-118619737D01*
X78896153Y-118650499D01*
X78896156Y-118650500D01*
X78896158Y-118650500D01*
X79053844Y-118650500D01*
X79053845Y-118650499D01*
X79208497Y-118619737D01*
X79354179Y-118559394D01*
X79485289Y-118471789D01*
X79596789Y-118360289D01*
X79684394Y-118229179D01*
X79744737Y-118083497D01*
X79775500Y-117928842D01*
X79775500Y-117771158D01*
X79775500Y-117771155D01*
X79775499Y-117771153D01*
X79744738Y-117616510D01*
X79744737Y-117616503D01*
X79733959Y-117590483D01*
X79684397Y-117470827D01*
X79684390Y-117470814D01*
X79596789Y-117339711D01*
X79596786Y-117339707D01*
X79485292Y-117228213D01*
X79485288Y-117228210D01*
X79354185Y-117140609D01*
X79354172Y-117140602D01*
X79230945Y-117089561D01*
X79176541Y-117045721D01*
X79154476Y-116979427D01*
X79171755Y-116911727D01*
X79222892Y-116864116D01*
X79230945Y-116860439D01*
X79354172Y-116809397D01*
X79354172Y-116809396D01*
X79354179Y-116809394D01*
X79485289Y-116721789D01*
X79596789Y-116610289D01*
X79684394Y-116479179D01*
X79744737Y-116333497D01*
X79775500Y-116178842D01*
X79775500Y-116021158D01*
X79775500Y-116021155D01*
X79775499Y-116021153D01*
X80674500Y-116021153D01*
X80674500Y-116178846D01*
X80705261Y-116333489D01*
X80705264Y-116333501D01*
X80765602Y-116479172D01*
X80765609Y-116479185D01*
X80853210Y-116610288D01*
X80853213Y-116610292D01*
X80964707Y-116721786D01*
X80964711Y-116721789D01*
X81095814Y-116809390D01*
X81095827Y-116809397D01*
X81219054Y-116860439D01*
X81273458Y-116904280D01*
X81295523Y-116970574D01*
X81278244Y-117038273D01*
X81227107Y-117085884D01*
X81219054Y-117089561D01*
X81095827Y-117140602D01*
X81095814Y-117140609D01*
X80964711Y-117228210D01*
X80964707Y-117228213D01*
X80853213Y-117339707D01*
X80853210Y-117339711D01*
X80765609Y-117470814D01*
X80765602Y-117470827D01*
X80705264Y-117616498D01*
X80705261Y-117616510D01*
X80674500Y-117771153D01*
X80674500Y-117928846D01*
X80705261Y-118083489D01*
X80705264Y-118083501D01*
X80765602Y-118229172D01*
X80765609Y-118229185D01*
X80853210Y-118360288D01*
X80853213Y-118360292D01*
X80964707Y-118471786D01*
X80964711Y-118471789D01*
X81095814Y-118559390D01*
X81095827Y-118559397D01*
X81234673Y-118616908D01*
X81241503Y-118619737D01*
X81396153Y-118650499D01*
X81396156Y-118650500D01*
X81396158Y-118650500D01*
X81553844Y-118650500D01*
X81553845Y-118650499D01*
X81708497Y-118619737D01*
X81715341Y-118616902D01*
X108967000Y-118616902D01*
X108967000Y-118853097D01*
X109003946Y-119086368D01*
X109076933Y-119310996D01*
X109107416Y-119370821D01*
X109184157Y-119521433D01*
X109322983Y-119712510D01*
X109489990Y-119879517D01*
X109681067Y-120018343D01*
X109780491Y-120069002D01*
X109891503Y-120125566D01*
X109891505Y-120125566D01*
X109891508Y-120125568D01*
X110011912Y-120164689D01*
X110116131Y-120198553D01*
X110349403Y-120235500D01*
X110349408Y-120235500D01*
X110585597Y-120235500D01*
X110818868Y-120198553D01*
X111043492Y-120125568D01*
X111253933Y-120018343D01*
X111445010Y-119879517D01*
X111612017Y-119712510D01*
X111750843Y-119521433D01*
X111858068Y-119310992D01*
X111931053Y-119086368D01*
X111968000Y-118853097D01*
X111968000Y-118616902D01*
X111931053Y-118383631D01*
X111858066Y-118159003D01*
X111750842Y-117948566D01*
X111612017Y-117757490D01*
X111445010Y-117590483D01*
X111253933Y-117451657D01*
X111043496Y-117344433D01*
X110818868Y-117271446D01*
X110585597Y-117234500D01*
X110585592Y-117234500D01*
X110349408Y-117234500D01*
X110349403Y-117234500D01*
X110116131Y-117271446D01*
X109891503Y-117344433D01*
X109681066Y-117451657D01*
X109572050Y-117530862D01*
X109489990Y-117590483D01*
X109489988Y-117590485D01*
X109489987Y-117590485D01*
X109322985Y-117757487D01*
X109322985Y-117757488D01*
X109322983Y-117757490D01*
X109313055Y-117771155D01*
X109184157Y-117948566D01*
X109076933Y-118159003D01*
X109003946Y-118383631D01*
X108967000Y-118616902D01*
X81715341Y-118616902D01*
X81854179Y-118559394D01*
X81985289Y-118471789D01*
X82096789Y-118360289D01*
X82184394Y-118229179D01*
X82244737Y-118083497D01*
X82275500Y-117928842D01*
X82275500Y-117771158D01*
X82275500Y-117771155D01*
X82275499Y-117771153D01*
X82244738Y-117616510D01*
X82244737Y-117616503D01*
X82233959Y-117590483D01*
X82184397Y-117470827D01*
X82184390Y-117470814D01*
X82096789Y-117339711D01*
X82096786Y-117339707D01*
X81985292Y-117228213D01*
X81985288Y-117228210D01*
X81854185Y-117140609D01*
X81854172Y-117140602D01*
X81730945Y-117089561D01*
X81676541Y-117045721D01*
X81654476Y-116979427D01*
X81671755Y-116911727D01*
X81722892Y-116864116D01*
X81730945Y-116860439D01*
X81854172Y-116809397D01*
X81854172Y-116809396D01*
X81854179Y-116809394D01*
X81985289Y-116721789D01*
X82096789Y-116610289D01*
X82184394Y-116479179D01*
X82244737Y-116333497D01*
X82275500Y-116178842D01*
X82275500Y-116021158D01*
X82275500Y-116021155D01*
X82275499Y-116021153D01*
X82244738Y-115866510D01*
X82244737Y-115866503D01*
X82244735Y-115866498D01*
X82184397Y-115720827D01*
X82184390Y-115720814D01*
X82096789Y-115589711D01*
X82096786Y-115589707D01*
X81985292Y-115478213D01*
X81985288Y-115478210D01*
X81854185Y-115390609D01*
X81854172Y-115390602D01*
X81708501Y-115330264D01*
X81708489Y-115330261D01*
X81553845Y-115299500D01*
X81553842Y-115299500D01*
X81396158Y-115299500D01*
X81396155Y-115299500D01*
X81241510Y-115330261D01*
X81241498Y-115330264D01*
X81095827Y-115390602D01*
X81095814Y-115390609D01*
X80964711Y-115478210D01*
X80964707Y-115478213D01*
X80853213Y-115589707D01*
X80853210Y-115589711D01*
X80765609Y-115720814D01*
X80765602Y-115720827D01*
X80705264Y-115866498D01*
X80705261Y-115866510D01*
X80674500Y-116021153D01*
X79775499Y-116021153D01*
X79744738Y-115866510D01*
X79744737Y-115866503D01*
X79744735Y-115866498D01*
X79684397Y-115720827D01*
X79684390Y-115720814D01*
X79596789Y-115589711D01*
X79596786Y-115589707D01*
X79485292Y-115478213D01*
X79485288Y-115478210D01*
X79354185Y-115390609D01*
X79354172Y-115390602D01*
X79208501Y-115330264D01*
X79208489Y-115330261D01*
X79053845Y-115299500D01*
X79053842Y-115299500D01*
X78896158Y-115299500D01*
X78896155Y-115299500D01*
X78741510Y-115330261D01*
X78741498Y-115330264D01*
X78595827Y-115390602D01*
X78595814Y-115390609D01*
X78464711Y-115478210D01*
X78464707Y-115478213D01*
X78353213Y-115589707D01*
X78353210Y-115589711D01*
X78265609Y-115720814D01*
X78265602Y-115720827D01*
X78205264Y-115866498D01*
X78205261Y-115866510D01*
X78174500Y-116021153D01*
X77275499Y-116021153D01*
X77244738Y-115866510D01*
X77244737Y-115866503D01*
X77244735Y-115866498D01*
X77184397Y-115720827D01*
X77184390Y-115720814D01*
X77096789Y-115589711D01*
X77096786Y-115589707D01*
X76985292Y-115478213D01*
X76985288Y-115478210D01*
X76854185Y-115390609D01*
X76854172Y-115390602D01*
X76708501Y-115330264D01*
X76708489Y-115330261D01*
X76553845Y-115299500D01*
X76553842Y-115299500D01*
X76396158Y-115299500D01*
X76396155Y-115299500D01*
X76241510Y-115330261D01*
X76241498Y-115330264D01*
X76095827Y-115390602D01*
X76095814Y-115390609D01*
X75964711Y-115478210D01*
X75964707Y-115478213D01*
X75853213Y-115589707D01*
X75853210Y-115589711D01*
X75765609Y-115720814D01*
X75765602Y-115720827D01*
X75705264Y-115866498D01*
X75705261Y-115866510D01*
X75674500Y-116021153D01*
X74775499Y-116021153D01*
X74744738Y-115866510D01*
X74744737Y-115866503D01*
X74744735Y-115866498D01*
X74684397Y-115720827D01*
X74684390Y-115720814D01*
X74596789Y-115589711D01*
X74596786Y-115589707D01*
X74485292Y-115478213D01*
X74485288Y-115478210D01*
X74354185Y-115390609D01*
X74354172Y-115390602D01*
X74208501Y-115330264D01*
X74208489Y-115330261D01*
X74053845Y-115299500D01*
X74053842Y-115299500D01*
X73896158Y-115299500D01*
X73896155Y-115299500D01*
X73741510Y-115330261D01*
X73741498Y-115330264D01*
X73595827Y-115390602D01*
X73595814Y-115390609D01*
X73464711Y-115478210D01*
X73464707Y-115478213D01*
X73353213Y-115589707D01*
X73353210Y-115589711D01*
X73265609Y-115720814D01*
X73265602Y-115720827D01*
X73205264Y-115866498D01*
X73205261Y-115866510D01*
X73174500Y-116021153D01*
X72875500Y-116021153D01*
X72875500Y-114171153D01*
X73174500Y-114171153D01*
X73174500Y-114328846D01*
X73205261Y-114483489D01*
X73205264Y-114483501D01*
X73265602Y-114629172D01*
X73265609Y-114629185D01*
X73353210Y-114760288D01*
X73353213Y-114760292D01*
X73464707Y-114871786D01*
X73464711Y-114871789D01*
X73595814Y-114959390D01*
X73595827Y-114959397D01*
X73741498Y-115019735D01*
X73741503Y-115019737D01*
X73896153Y-115050499D01*
X73896156Y-115050500D01*
X73896158Y-115050500D01*
X74053844Y-115050500D01*
X74053845Y-115050499D01*
X74208497Y-115019737D01*
X74354179Y-114959394D01*
X74485289Y-114871789D01*
X74596789Y-114760289D01*
X74684394Y-114629179D01*
X74744737Y-114483497D01*
X74775500Y-114328842D01*
X74775500Y-114171158D01*
X74775500Y-114171155D01*
X74775499Y-114171153D01*
X75674500Y-114171153D01*
X75674500Y-114328846D01*
X75705261Y-114483489D01*
X75705264Y-114483501D01*
X75765602Y-114629172D01*
X75765609Y-114629185D01*
X75853210Y-114760288D01*
X75853213Y-114760292D01*
X75964707Y-114871786D01*
X75964711Y-114871789D01*
X76095814Y-114959390D01*
X76095827Y-114959397D01*
X76241498Y-115019735D01*
X76241503Y-115019737D01*
X76396153Y-115050499D01*
X76396156Y-115050500D01*
X76396158Y-115050500D01*
X76553844Y-115050500D01*
X76553845Y-115050499D01*
X76708497Y-115019737D01*
X76854179Y-114959394D01*
X76985289Y-114871789D01*
X77096789Y-114760289D01*
X77184394Y-114629179D01*
X77244737Y-114483497D01*
X77275500Y-114328842D01*
X77275500Y-114171158D01*
X77275500Y-114171155D01*
X77275499Y-114171153D01*
X78174500Y-114171153D01*
X78174500Y-114328846D01*
X78205261Y-114483489D01*
X78205264Y-114483501D01*
X78265602Y-114629172D01*
X78265609Y-114629185D01*
X78353210Y-114760288D01*
X78353213Y-114760292D01*
X78464707Y-114871786D01*
X78464711Y-114871789D01*
X78595814Y-114959390D01*
X78595827Y-114959397D01*
X78741498Y-115019735D01*
X78741503Y-115019737D01*
X78896153Y-115050499D01*
X78896156Y-115050500D01*
X78896158Y-115050500D01*
X79053844Y-115050500D01*
X79053845Y-115050499D01*
X79208497Y-115019737D01*
X79354179Y-114959394D01*
X79485289Y-114871789D01*
X79596789Y-114760289D01*
X79684394Y-114629179D01*
X79744737Y-114483497D01*
X79775500Y-114328842D01*
X79775500Y-114171158D01*
X79775500Y-114171155D01*
X79775499Y-114171153D01*
X80674500Y-114171153D01*
X80674500Y-114328846D01*
X80705261Y-114483489D01*
X80705264Y-114483501D01*
X80765602Y-114629172D01*
X80765609Y-114629185D01*
X80853210Y-114760288D01*
X80853213Y-114760292D01*
X80964707Y-114871786D01*
X80964711Y-114871789D01*
X81095814Y-114959390D01*
X81095827Y-114959397D01*
X81241498Y-115019735D01*
X81241503Y-115019737D01*
X81396153Y-115050499D01*
X81396156Y-115050500D01*
X81396158Y-115050500D01*
X81553844Y-115050500D01*
X81553845Y-115050499D01*
X81708497Y-115019737D01*
X81854179Y-114959394D01*
X81985289Y-114871789D01*
X82096789Y-114760289D01*
X82184394Y-114629179D01*
X82244737Y-114483497D01*
X82275500Y-114328842D01*
X82275500Y-114171158D01*
X82275500Y-114171155D01*
X82275499Y-114171153D01*
X82244738Y-114016510D01*
X82244737Y-114016503D01*
X82244735Y-114016498D01*
X82184397Y-113870827D01*
X82184390Y-113870814D01*
X82096789Y-113739711D01*
X82096786Y-113739707D01*
X81985292Y-113628213D01*
X81985288Y-113628210D01*
X81854185Y-113540609D01*
X81854172Y-113540602D01*
X81708501Y-113480264D01*
X81708489Y-113480261D01*
X81553845Y-113449500D01*
X81553842Y-113449500D01*
X81396158Y-113449500D01*
X81396155Y-113449500D01*
X81241510Y-113480261D01*
X81241498Y-113480264D01*
X81095827Y-113540602D01*
X81095814Y-113540609D01*
X80964711Y-113628210D01*
X80964707Y-113628213D01*
X80853213Y-113739707D01*
X80853210Y-113739711D01*
X80765609Y-113870814D01*
X80765602Y-113870827D01*
X80705264Y-114016498D01*
X80705261Y-114016510D01*
X80674500Y-114171153D01*
X79775499Y-114171153D01*
X79744738Y-114016510D01*
X79744737Y-114016503D01*
X79744735Y-114016498D01*
X79684397Y-113870827D01*
X79684390Y-113870814D01*
X79596789Y-113739711D01*
X79596786Y-113739707D01*
X79485292Y-113628213D01*
X79485288Y-113628210D01*
X79354185Y-113540609D01*
X79354172Y-113540602D01*
X79208501Y-113480264D01*
X79208489Y-113480261D01*
X79053845Y-113449500D01*
X79053842Y-113449500D01*
X78896158Y-113449500D01*
X78896155Y-113449500D01*
X78741510Y-113480261D01*
X78741498Y-113480264D01*
X78595827Y-113540602D01*
X78595814Y-113540609D01*
X78464711Y-113628210D01*
X78464707Y-113628213D01*
X78353213Y-113739707D01*
X78353210Y-113739711D01*
X78265609Y-113870814D01*
X78265602Y-113870827D01*
X78205264Y-114016498D01*
X78205261Y-114016510D01*
X78174500Y-114171153D01*
X77275499Y-114171153D01*
X77244738Y-114016510D01*
X77244737Y-114016503D01*
X77244735Y-114016498D01*
X77184397Y-113870827D01*
X77184390Y-113870814D01*
X77096789Y-113739711D01*
X77096786Y-113739707D01*
X76985292Y-113628213D01*
X76985288Y-113628210D01*
X76854185Y-113540609D01*
X76854172Y-113540602D01*
X76708501Y-113480264D01*
X76708489Y-113480261D01*
X76553845Y-113449500D01*
X76553842Y-113449500D01*
X76396158Y-113449500D01*
X76396155Y-113449500D01*
X76241510Y-113480261D01*
X76241498Y-113480264D01*
X76095827Y-113540602D01*
X76095814Y-113540609D01*
X75964711Y-113628210D01*
X75964707Y-113628213D01*
X75853213Y-113739707D01*
X75853210Y-113739711D01*
X75765609Y-113870814D01*
X75765602Y-113870827D01*
X75705264Y-114016498D01*
X75705261Y-114016510D01*
X75674500Y-114171153D01*
X74775499Y-114171153D01*
X74744738Y-114016510D01*
X74744737Y-114016503D01*
X74744735Y-114016498D01*
X74684397Y-113870827D01*
X74684390Y-113870814D01*
X74596789Y-113739711D01*
X74596786Y-113739707D01*
X74485292Y-113628213D01*
X74485288Y-113628210D01*
X74354185Y-113540609D01*
X74354172Y-113540602D01*
X74208501Y-113480264D01*
X74208489Y-113480261D01*
X74053845Y-113449500D01*
X74053842Y-113449500D01*
X73896158Y-113449500D01*
X73896155Y-113449500D01*
X73741510Y-113480261D01*
X73741498Y-113480264D01*
X73595827Y-113540602D01*
X73595814Y-113540609D01*
X73464711Y-113628210D01*
X73464707Y-113628213D01*
X73353213Y-113739707D01*
X73353210Y-113739711D01*
X73265609Y-113870814D01*
X73265602Y-113870827D01*
X73205264Y-114016498D01*
X73205261Y-114016510D01*
X73174500Y-114171153D01*
X72875500Y-114171153D01*
X72875500Y-111881902D01*
X108999500Y-111881902D01*
X108999500Y-112118097D01*
X109036446Y-112351368D01*
X109109433Y-112575996D01*
X109216657Y-112786433D01*
X109355483Y-112977510D01*
X109522490Y-113144517D01*
X109713567Y-113283343D01*
X109812991Y-113334002D01*
X109924003Y-113390566D01*
X109924005Y-113390566D01*
X109924008Y-113390568D01*
X110044412Y-113429689D01*
X110148631Y-113463553D01*
X110381903Y-113500500D01*
X110381908Y-113500500D01*
X110618097Y-113500500D01*
X110851368Y-113463553D01*
X111075992Y-113390568D01*
X111286433Y-113283343D01*
X111477510Y-113144517D01*
X111644517Y-112977510D01*
X111783343Y-112786433D01*
X111890568Y-112575992D01*
X111963553Y-112351368D01*
X112000500Y-112118097D01*
X112000500Y-111881902D01*
X111963553Y-111648631D01*
X111890566Y-111424003D01*
X111783342Y-111213566D01*
X111644517Y-111022490D01*
X111477510Y-110855483D01*
X111286433Y-110716657D01*
X111075996Y-110609433D01*
X110851368Y-110536446D01*
X110618097Y-110499500D01*
X110618092Y-110499500D01*
X110381908Y-110499500D01*
X110381903Y-110499500D01*
X110148631Y-110536446D01*
X109924003Y-110609433D01*
X109713566Y-110716657D01*
X109604550Y-110795862D01*
X109522490Y-110855483D01*
X109522488Y-110855485D01*
X109522487Y-110855485D01*
X109355485Y-111022487D01*
X109355485Y-111022488D01*
X109355483Y-111022490D01*
X109295862Y-111104550D01*
X109216657Y-111213566D01*
X109109433Y-111424003D01*
X109036446Y-111648631D01*
X108999500Y-111881902D01*
X72875500Y-111881902D01*
X72875500Y-102904079D01*
X72895185Y-102837040D01*
X72947989Y-102791285D01*
X73004454Y-102780178D01*
X78466286Y-102998651D01*
X78528382Y-103018245D01*
X85499998Y-107499999D01*
X85500000Y-107500000D01*
X98384669Y-108905600D01*
X98449179Y-108932439D01*
X98474324Y-108959978D01*
X98550535Y-109074034D01*
X98550538Y-109074038D01*
X98675961Y-109199461D01*
X98675965Y-109199464D01*
X98823446Y-109298009D01*
X98823459Y-109298016D01*
X98946363Y-109348923D01*
X98987334Y-109365894D01*
X98987336Y-109365894D01*
X98987341Y-109365896D01*
X99161304Y-109400499D01*
X99161307Y-109400500D01*
X99161309Y-109400500D01*
X99338693Y-109400500D01*
X99338694Y-109400499D01*
X99396682Y-109388964D01*
X99512658Y-109365896D01*
X99512661Y-109365894D01*
X99512666Y-109365894D01*
X99676547Y-109298013D01*
X99824035Y-109199464D01*
X99949464Y-109074035D01*
X100048013Y-108926547D01*
X100115894Y-108762666D01*
X100150500Y-108588691D01*
X100150500Y-108411309D01*
X100150500Y-108411306D01*
X100150499Y-108411304D01*
X100115896Y-108237341D01*
X100115893Y-108237332D01*
X100048016Y-108073459D01*
X100048009Y-108073446D01*
X99949464Y-107925965D01*
X99949461Y-107925961D01*
X99824038Y-107800538D01*
X99824034Y-107800535D01*
X99676553Y-107701990D01*
X99676540Y-107701983D01*
X99512667Y-107634106D01*
X99512659Y-107634104D01*
X99382736Y-107608260D01*
X99320825Y-107575875D01*
X99286251Y-107515159D01*
X99282957Y-107483953D01*
X99425627Y-100921153D01*
X99699500Y-100921153D01*
X99699500Y-101078846D01*
X99730261Y-101233489D01*
X99730264Y-101233501D01*
X99790602Y-101379172D01*
X99790609Y-101379185D01*
X99878210Y-101510288D01*
X99878213Y-101510292D01*
X99989707Y-101621786D01*
X99989711Y-101621789D01*
X100120814Y-101709390D01*
X100120827Y-101709397D01*
X100266498Y-101769735D01*
X100266503Y-101769737D01*
X100371418Y-101790606D01*
X100421153Y-101800499D01*
X100421156Y-101800500D01*
X100421158Y-101800500D01*
X100425162Y-101800500D01*
X100427183Y-101801093D01*
X100427218Y-101801097D01*
X100427217Y-101801103D01*
X100492201Y-101820185D01*
X100537956Y-101872989D01*
X100539715Y-101877029D01*
X100540606Y-101879179D01*
X100540607Y-101879180D01*
X100540609Y-101879185D01*
X100628210Y-102010288D01*
X100628213Y-102010292D01*
X100739707Y-102121786D01*
X100739711Y-102121789D01*
X100870814Y-102209390D01*
X100870827Y-102209397D01*
X100902806Y-102222643D01*
X100957210Y-102266483D01*
X100979275Y-102332778D01*
X100961996Y-102400477D01*
X100943036Y-102424885D01*
X100878210Y-102489711D01*
X100790609Y-102620814D01*
X100790602Y-102620827D01*
X100730264Y-102766498D01*
X100730261Y-102766510D01*
X100699500Y-102921153D01*
X100699500Y-103078846D01*
X100730261Y-103233489D01*
X100730264Y-103233501D01*
X100790602Y-103379172D01*
X100790609Y-103379185D01*
X100878210Y-103510288D01*
X100878213Y-103510292D01*
X100989707Y-103621786D01*
X100989711Y-103621789D01*
X101120817Y-103709392D01*
X101120819Y-103709393D01*
X101120821Y-103709394D01*
X101138409Y-103716679D01*
X101192812Y-103760520D01*
X101214877Y-103826814D01*
X101212573Y-103855431D01*
X101199500Y-103921153D01*
X101199500Y-104078846D01*
X101230261Y-104233489D01*
X101230264Y-104233501D01*
X101290602Y-104379172D01*
X101290609Y-104379185D01*
X101378210Y-104510288D01*
X101378213Y-104510292D01*
X101489707Y-104621786D01*
X101489711Y-104621789D01*
X101620814Y-104709390D01*
X101620827Y-104709397D01*
X101766498Y-104769735D01*
X101766503Y-104769737D01*
X101862367Y-104788805D01*
X101863535Y-104789038D01*
X101925446Y-104821422D01*
X101960020Y-104882138D01*
X101960961Y-104886463D01*
X101980261Y-104983491D01*
X101980264Y-104983501D01*
X102040602Y-105129172D01*
X102040609Y-105129185D01*
X102128210Y-105260288D01*
X102128213Y-105260292D01*
X102239707Y-105371786D01*
X102239711Y-105371789D01*
X102370814Y-105459390D01*
X102370827Y-105459397D01*
X102516498Y-105519735D01*
X102516503Y-105519737D01*
X102671153Y-105550499D01*
X102671156Y-105550500D01*
X102671158Y-105550500D01*
X102828844Y-105550500D01*
X102828845Y-105550499D01*
X102983497Y-105519737D01*
X103129179Y-105459394D01*
X103260289Y-105371789D01*
X103371789Y-105260289D01*
X103459394Y-105129179D01*
X103474835Y-105091902D01*
X108999500Y-105091902D01*
X108999500Y-105328097D01*
X109036446Y-105561368D01*
X109109433Y-105785996D01*
X109154292Y-105874035D01*
X109216657Y-105996433D01*
X109355483Y-106187510D01*
X109522490Y-106354517D01*
X109713567Y-106493343D01*
X109812991Y-106544002D01*
X109924003Y-106600566D01*
X109924005Y-106600566D01*
X109924008Y-106600568D01*
X110041338Y-106638691D01*
X110148631Y-106673553D01*
X110381903Y-106710500D01*
X110381908Y-106710500D01*
X110618097Y-106710500D01*
X110851368Y-106673553D01*
X111075992Y-106600568D01*
X111286433Y-106493343D01*
X111477510Y-106354517D01*
X111644517Y-106187510D01*
X111783343Y-105996433D01*
X111890568Y-105785992D01*
X111963553Y-105561368D01*
X111965274Y-105550500D01*
X112000500Y-105328097D01*
X112000500Y-105091902D01*
X111963553Y-104858631D01*
X111890566Y-104634003D01*
X111827530Y-104510289D01*
X111783343Y-104423567D01*
X111644517Y-104232490D01*
X111477510Y-104065483D01*
X111286433Y-103926657D01*
X111275631Y-103921153D01*
X111075996Y-103819433D01*
X110851368Y-103746446D01*
X110618097Y-103709500D01*
X110618092Y-103709500D01*
X110381908Y-103709500D01*
X110381903Y-103709500D01*
X110148631Y-103746446D01*
X109924003Y-103819433D01*
X109713566Y-103926657D01*
X109604550Y-104005862D01*
X109522490Y-104065483D01*
X109522488Y-104065485D01*
X109522487Y-104065485D01*
X109355485Y-104232487D01*
X109355485Y-104232488D01*
X109355483Y-104232490D01*
X109350240Y-104239707D01*
X109216657Y-104423566D01*
X109109433Y-104634003D01*
X109036446Y-104858631D01*
X108999500Y-105091902D01*
X103474835Y-105091902D01*
X103519737Y-104983497D01*
X103550500Y-104828842D01*
X103550500Y-104671158D01*
X103550500Y-104671155D01*
X103550499Y-104671153D01*
X103519738Y-104516510D01*
X103519737Y-104516503D01*
X103496082Y-104459394D01*
X103459397Y-104370827D01*
X103459390Y-104370814D01*
X103371789Y-104239711D01*
X103371786Y-104239707D01*
X103260292Y-104128213D01*
X103260288Y-104128210D01*
X103129185Y-104040609D01*
X103129172Y-104040602D01*
X102983501Y-103980264D01*
X102983491Y-103980261D01*
X102886463Y-103960961D01*
X102824552Y-103928576D01*
X102789978Y-103867860D01*
X102789038Y-103863535D01*
X102781734Y-103826814D01*
X102769737Y-103766503D01*
X102761429Y-103746446D01*
X102709397Y-103620827D01*
X102709390Y-103620814D01*
X102621789Y-103489711D01*
X102621786Y-103489707D01*
X102510292Y-103378213D01*
X102510288Y-103378210D01*
X102379185Y-103290609D01*
X102379179Y-103290606D01*
X102361589Y-103283320D01*
X102307186Y-103239478D01*
X102285122Y-103173184D01*
X102287425Y-103144571D01*
X102300500Y-103078842D01*
X102300500Y-102921158D01*
X102300500Y-102921155D01*
X102300499Y-102921153D01*
X102269738Y-102766510D01*
X102269737Y-102766503D01*
X102256066Y-102733497D01*
X102209397Y-102620827D01*
X102209390Y-102620814D01*
X102121789Y-102489711D01*
X102121786Y-102489707D01*
X102010292Y-102378213D01*
X102010288Y-102378210D01*
X101879185Y-102290609D01*
X101879179Y-102290606D01*
X101847191Y-102277356D01*
X101792788Y-102233514D01*
X101770724Y-102167220D01*
X101788004Y-102099521D01*
X101806960Y-102075117D01*
X101871789Y-102010289D01*
X101959394Y-101879179D01*
X101960276Y-101877051D01*
X102004634Y-101769958D01*
X102019737Y-101733497D01*
X102050500Y-101578842D01*
X102050500Y-101421158D01*
X102050500Y-101421155D01*
X102050499Y-101421153D01*
X102042148Y-101379172D01*
X102019737Y-101266503D01*
X102006062Y-101233489D01*
X101959397Y-101120827D01*
X101959390Y-101120814D01*
X101871789Y-100989711D01*
X101871786Y-100989707D01*
X101760292Y-100878213D01*
X101760288Y-100878210D01*
X101629185Y-100790609D01*
X101629172Y-100790602D01*
X101483501Y-100730264D01*
X101483489Y-100730261D01*
X101328845Y-100699500D01*
X101328842Y-100699500D01*
X101324838Y-100699500D01*
X101322816Y-100698906D01*
X101322782Y-100698903D01*
X101322782Y-100698896D01*
X101257799Y-100679815D01*
X101212044Y-100627011D01*
X101210275Y-100622949D01*
X101209394Y-100620821D01*
X101209391Y-100620816D01*
X101209390Y-100620814D01*
X101121789Y-100489711D01*
X101121786Y-100489707D01*
X101010292Y-100378213D01*
X101010288Y-100378210D01*
X100879185Y-100290609D01*
X100879172Y-100290602D01*
X100733501Y-100230264D01*
X100733489Y-100230261D01*
X100578845Y-100199500D01*
X100578842Y-100199500D01*
X100421158Y-100199500D01*
X100421155Y-100199500D01*
X100266510Y-100230261D01*
X100266498Y-100230264D01*
X100120827Y-100290602D01*
X100120814Y-100290609D01*
X99989711Y-100378210D01*
X99989707Y-100378213D01*
X99878213Y-100489707D01*
X99878210Y-100489711D01*
X99790609Y-100620814D01*
X99790602Y-100620827D01*
X99730264Y-100766498D01*
X99730261Y-100766510D01*
X99699500Y-100921153D01*
X99425627Y-100921153D01*
X99439335Y-100290602D01*
X99481155Y-98366902D01*
X108967000Y-98366902D01*
X108967000Y-98603097D01*
X109003946Y-98836368D01*
X109076933Y-99060996D01*
X109184157Y-99271433D01*
X109322983Y-99462510D01*
X109489990Y-99629517D01*
X109681067Y-99768343D01*
X109777959Y-99817712D01*
X109891503Y-99875566D01*
X109891505Y-99875566D01*
X109891508Y-99875568D01*
X109996906Y-99909814D01*
X110116131Y-99948553D01*
X110349403Y-99985500D01*
X110349408Y-99985500D01*
X110585597Y-99985500D01*
X110818868Y-99948553D01*
X110888386Y-99925965D01*
X111043492Y-99875568D01*
X111253933Y-99768343D01*
X111445010Y-99629517D01*
X111612017Y-99462510D01*
X111750843Y-99271433D01*
X111858068Y-99060992D01*
X111931053Y-98836368D01*
X111968000Y-98603097D01*
X111968000Y-98366902D01*
X111931053Y-98133631D01*
X111897189Y-98029412D01*
X111858068Y-97909008D01*
X111858066Y-97909005D01*
X111858066Y-97909003D01*
X111750842Y-97698566D01*
X111612017Y-97507490D01*
X111445010Y-97340483D01*
X111253933Y-97201657D01*
X111043496Y-97094433D01*
X110818868Y-97021446D01*
X110585597Y-96984500D01*
X110585592Y-96984500D01*
X110349408Y-96984500D01*
X110349403Y-96984500D01*
X110116131Y-97021446D01*
X109891503Y-97094433D01*
X109681066Y-97201657D01*
X109605797Y-97256344D01*
X109489990Y-97340483D01*
X109489988Y-97340485D01*
X109489987Y-97340485D01*
X109322985Y-97507487D01*
X109322985Y-97507488D01*
X109322983Y-97507490D01*
X109275966Y-97572203D01*
X109184157Y-97698566D01*
X109076933Y-97909003D01*
X109003946Y-98133631D01*
X108967000Y-98366902D01*
X99481155Y-98366902D01*
X99481319Y-98359341D01*
X99497363Y-97621305D01*
X99518500Y-97554709D01*
X99572286Y-97510113D01*
X99621334Y-97500000D01*
X106750000Y-97500000D01*
X106750000Y-91631902D01*
X108999500Y-91631902D01*
X108999500Y-91868097D01*
X109036446Y-92101368D01*
X109109433Y-92325996D01*
X109180234Y-92464949D01*
X109216657Y-92536433D01*
X109355483Y-92727510D01*
X109522490Y-92894517D01*
X109713567Y-93033343D01*
X109812991Y-93084002D01*
X109924003Y-93140566D01*
X109924005Y-93140566D01*
X109924008Y-93140568D01*
X110044412Y-93179689D01*
X110148631Y-93213553D01*
X110381903Y-93250500D01*
X110381908Y-93250500D01*
X110618097Y-93250500D01*
X110851368Y-93213553D01*
X111075992Y-93140568D01*
X111286433Y-93033343D01*
X111477510Y-92894517D01*
X111644517Y-92727510D01*
X111783343Y-92536433D01*
X111886630Y-92333719D01*
X111890566Y-92325996D01*
X111890566Y-92325995D01*
X111890568Y-92325992D01*
X111963553Y-92101368D01*
X111976482Y-92019737D01*
X112000500Y-91868097D01*
X112000500Y-91631902D01*
X111963553Y-91398631D01*
X111929689Y-91294412D01*
X111890568Y-91174008D01*
X111890566Y-91174005D01*
X111890566Y-91174003D01*
X111810315Y-91016503D01*
X111783343Y-90963567D01*
X111644517Y-90772490D01*
X111477510Y-90605483D01*
X111286433Y-90466657D01*
X111075996Y-90359433D01*
X110851368Y-90286446D01*
X110618097Y-90249500D01*
X110618092Y-90249500D01*
X110381908Y-90249500D01*
X110381903Y-90249500D01*
X110148631Y-90286446D01*
X109924003Y-90359433D01*
X109713566Y-90466657D01*
X109611785Y-90540606D01*
X109522490Y-90605483D01*
X109522488Y-90605485D01*
X109522487Y-90605485D01*
X109355485Y-90772487D01*
X109355485Y-90772488D01*
X109355483Y-90772490D01*
X109295862Y-90854550D01*
X109216657Y-90963566D01*
X109109433Y-91174003D01*
X109036446Y-91398631D01*
X108999500Y-91631902D01*
X106750000Y-91631902D01*
X106750000Y-84881902D01*
X108999500Y-84881902D01*
X108999500Y-85118097D01*
X109036446Y-85351368D01*
X109109433Y-85575996D01*
X109192851Y-85739711D01*
X109216657Y-85786433D01*
X109355483Y-85977510D01*
X109522490Y-86144517D01*
X109713567Y-86283343D01*
X109802864Y-86328842D01*
X109924003Y-86390566D01*
X109924005Y-86390566D01*
X109924008Y-86390568D01*
X110044412Y-86429689D01*
X110148631Y-86463553D01*
X110381903Y-86500500D01*
X110381908Y-86500500D01*
X110618097Y-86500500D01*
X110851368Y-86463553D01*
X111075992Y-86390568D01*
X111286433Y-86283343D01*
X111477510Y-86144517D01*
X111644517Y-85977510D01*
X111783343Y-85786433D01*
X111890568Y-85575992D01*
X111963553Y-85351368D01*
X111965399Y-85339711D01*
X112000500Y-85118097D01*
X112000500Y-84881902D01*
X111963553Y-84648631D01*
X111921672Y-84519737D01*
X111890568Y-84424008D01*
X111890566Y-84424005D01*
X111890566Y-84424003D01*
X111788343Y-84223381D01*
X111783343Y-84213567D01*
X111644517Y-84022490D01*
X111477510Y-83855483D01*
X111286433Y-83716657D01*
X111215006Y-83680263D01*
X111075996Y-83609433D01*
X110851368Y-83536446D01*
X110618097Y-83499500D01*
X110618092Y-83499500D01*
X110381908Y-83499500D01*
X110381903Y-83499500D01*
X110148631Y-83536446D01*
X109924003Y-83609433D01*
X109713566Y-83716657D01*
X109604550Y-83795862D01*
X109522490Y-83855483D01*
X109522488Y-83855485D01*
X109522487Y-83855485D01*
X109355485Y-84022487D01*
X109355485Y-84022488D01*
X109355483Y-84022490D01*
X109295862Y-84104550D01*
X109216657Y-84213566D01*
X109109433Y-84424003D01*
X109036446Y-84648631D01*
X108999500Y-84881902D01*
X106750000Y-84881902D01*
X106750000Y-76624500D01*
X106769685Y-76557461D01*
X106822489Y-76511706D01*
X106874000Y-76500500D01*
X110125912Y-76500500D01*
X110192951Y-76520185D01*
G37*
%TD.AperFunction*%
%TD*%
%TA.AperFunction,Conductor*%
%TO.N,VCC*%
G36*
X73191106Y-123269685D02*
G01*
X73236861Y-123322489D01*
X73238628Y-123326548D01*
X73265602Y-123391673D01*
X73265609Y-123391685D01*
X73353210Y-123522788D01*
X73353213Y-123522792D01*
X73464707Y-123634286D01*
X73464711Y-123634289D01*
X73595814Y-123721890D01*
X73595827Y-123721897D01*
X73741498Y-123782235D01*
X73741503Y-123782237D01*
X73896153Y-123812999D01*
X73896156Y-123813000D01*
X73896158Y-123813000D01*
X74053844Y-123813000D01*
X74053845Y-123812999D01*
X74208497Y-123782237D01*
X74354179Y-123721894D01*
X74485289Y-123634289D01*
X74596789Y-123522789D01*
X74684394Y-123391679D01*
X74684395Y-123391676D01*
X74684397Y-123391673D01*
X74711372Y-123326548D01*
X74755212Y-123272144D01*
X74821506Y-123250079D01*
X74825933Y-123250000D01*
X75624067Y-123250000D01*
X75691106Y-123269685D01*
X75736861Y-123322489D01*
X75738628Y-123326548D01*
X75765602Y-123391673D01*
X75765609Y-123391685D01*
X75853210Y-123522788D01*
X75853213Y-123522792D01*
X75964707Y-123634286D01*
X75964711Y-123634289D01*
X76095814Y-123721890D01*
X76095827Y-123721897D01*
X76241498Y-123782235D01*
X76241503Y-123782237D01*
X76396153Y-123812999D01*
X76396156Y-123813000D01*
X76396158Y-123813000D01*
X76553844Y-123813000D01*
X76553845Y-123812999D01*
X76708497Y-123782237D01*
X76854179Y-123721894D01*
X76985289Y-123634289D01*
X77096789Y-123522789D01*
X77184394Y-123391679D01*
X77184395Y-123391676D01*
X77184397Y-123391673D01*
X77211372Y-123326548D01*
X77255212Y-123272144D01*
X77321506Y-123250079D01*
X77325933Y-123250000D01*
X78124067Y-123250000D01*
X78191106Y-123269685D01*
X78236861Y-123322489D01*
X78238628Y-123326548D01*
X78265602Y-123391673D01*
X78265609Y-123391685D01*
X78353210Y-123522788D01*
X78353213Y-123522792D01*
X78464707Y-123634286D01*
X78464711Y-123634289D01*
X78595814Y-123721890D01*
X78595827Y-123721897D01*
X78741498Y-123782235D01*
X78741503Y-123782237D01*
X78896153Y-123812999D01*
X78896156Y-123813000D01*
X78896158Y-123813000D01*
X79053844Y-123813000D01*
X79053845Y-123812999D01*
X79208497Y-123782237D01*
X79354179Y-123721894D01*
X79485289Y-123634289D01*
X79596789Y-123522789D01*
X79684394Y-123391679D01*
X79684395Y-123391676D01*
X79684397Y-123391673D01*
X79711372Y-123326548D01*
X79755212Y-123272144D01*
X79821506Y-123250079D01*
X79825933Y-123250000D01*
X80624067Y-123250000D01*
X80691106Y-123269685D01*
X80736861Y-123322489D01*
X80738628Y-123326548D01*
X80765602Y-123391673D01*
X80765609Y-123391685D01*
X80853210Y-123522788D01*
X80853213Y-123522792D01*
X80964707Y-123634286D01*
X80964711Y-123634289D01*
X81095814Y-123721890D01*
X81095827Y-123721897D01*
X81241498Y-123782235D01*
X81241503Y-123782237D01*
X81396153Y-123812999D01*
X81396156Y-123813000D01*
X81396158Y-123813000D01*
X81553844Y-123813000D01*
X81553845Y-123812999D01*
X81708497Y-123782237D01*
X81854179Y-123721894D01*
X81985289Y-123634289D01*
X82096789Y-123522789D01*
X82184394Y-123391679D01*
X82184395Y-123391676D01*
X82184397Y-123391673D01*
X82211372Y-123326548D01*
X82255212Y-123272144D01*
X82321506Y-123250079D01*
X82325933Y-123250000D01*
X114000500Y-123250000D01*
X114067539Y-123269685D01*
X114113294Y-123322489D01*
X114124500Y-123374000D01*
X114124500Y-130800957D01*
X114104815Y-130867996D01*
X114052011Y-130913751D01*
X113982853Y-130923695D01*
X113919297Y-130894670D01*
X113894961Y-130866054D01*
X113891078Y-130859759D01*
X113842712Y-130781344D01*
X113718656Y-130657288D01*
X113569334Y-130565186D01*
X113402797Y-130510001D01*
X113402795Y-130510000D01*
X113300010Y-130499500D01*
X111699998Y-130499500D01*
X111699981Y-130499501D01*
X111597203Y-130510000D01*
X111597200Y-130510001D01*
X111430668Y-130565185D01*
X111430663Y-130565187D01*
X111281342Y-130657289D01*
X111157287Y-130781344D01*
X111127487Y-130829658D01*
X111075539Y-130876382D01*
X111006576Y-130887603D01*
X110942494Y-130859759D01*
X110941241Y-130858614D01*
X110941214Y-130858647D01*
X110937517Y-130855490D01*
X110937510Y-130855483D01*
X110746433Y-130716657D01*
X110535996Y-130609433D01*
X110311368Y-130536446D01*
X110078097Y-130499500D01*
X110078092Y-130499500D01*
X109841908Y-130499500D01*
X109841903Y-130499500D01*
X109608631Y-130536446D01*
X109384003Y-130609433D01*
X109173566Y-130716657D01*
X109084536Y-130781342D01*
X108982490Y-130855483D01*
X108982488Y-130855485D01*
X108982487Y-130855485D01*
X108815485Y-131022487D01*
X108815485Y-131022488D01*
X108815483Y-131022490D01*
X108766071Y-131090500D01*
X108676657Y-131213566D01*
X108569433Y-131424003D01*
X108496446Y-131648631D01*
X108459500Y-131881902D01*
X108459500Y-132118097D01*
X108496446Y-132351368D01*
X108569433Y-132575996D01*
X108676657Y-132786433D01*
X108815483Y-132977510D01*
X108982490Y-133144517D01*
X109173567Y-133283343D01*
X109272991Y-133334002D01*
X109384003Y-133390566D01*
X109384005Y-133390566D01*
X109384008Y-133390568D01*
X109504412Y-133429689D01*
X109608631Y-133463553D01*
X109841903Y-133500500D01*
X109841908Y-133500500D01*
X110078097Y-133500500D01*
X110311368Y-133463553D01*
X110535992Y-133390568D01*
X110746433Y-133283343D01*
X110937510Y-133144517D01*
X110937516Y-133144511D01*
X110941221Y-133141348D01*
X110942784Y-133143179D01*
X110995292Y-133114339D01*
X111064996Y-133119152D01*
X111121032Y-133160885D01*
X111127487Y-133170342D01*
X111157287Y-133218655D01*
X111157288Y-133218656D01*
X111281344Y-133342712D01*
X111430666Y-133434814D01*
X111597203Y-133489999D01*
X111699991Y-133500500D01*
X113300008Y-133500499D01*
X113402797Y-133489999D01*
X113569334Y-133434814D01*
X113718656Y-133342712D01*
X113842712Y-133218656D01*
X113894961Y-133133945D01*
X113946909Y-133087221D01*
X114015871Y-133075998D01*
X114079953Y-133103841D01*
X114118810Y-133161910D01*
X114124500Y-133199042D01*
X114124500Y-135125500D01*
X114104815Y-135192539D01*
X114052011Y-135238294D01*
X114000500Y-135249500D01*
X72999500Y-135249500D01*
X72932461Y-135229815D01*
X72886706Y-135177011D01*
X72875500Y-135125500D01*
X72875500Y-131386902D01*
X89199500Y-131386902D01*
X89199500Y-131623097D01*
X89236446Y-131856368D01*
X89309433Y-132080996D01*
X89416657Y-132291433D01*
X89555483Y-132482510D01*
X89722490Y-132649517D01*
X89913567Y-132788343D01*
X90012991Y-132839002D01*
X90124003Y-132895566D01*
X90124005Y-132895566D01*
X90124008Y-132895568D01*
X90146257Y-132902797D01*
X90348631Y-132968553D01*
X90581903Y-133005500D01*
X90581908Y-133005500D01*
X90818097Y-133005500D01*
X91051368Y-132968553D01*
X91275992Y-132895568D01*
X91486433Y-132788343D01*
X91677510Y-132649517D01*
X91844517Y-132482510D01*
X91983343Y-132291433D01*
X92090568Y-132080992D01*
X92163553Y-131856368D01*
X92200500Y-131623097D01*
X92200500Y-131386902D01*
X92163553Y-131153631D01*
X92120941Y-131022487D01*
X92090568Y-130929008D01*
X92090566Y-130929005D01*
X92090566Y-130929003D01*
X92015328Y-130781342D01*
X91983343Y-130718567D01*
X91844517Y-130527490D01*
X91677510Y-130360483D01*
X91486433Y-130221657D01*
X91433478Y-130194675D01*
X91275996Y-130114433D01*
X91051368Y-130041446D01*
X90818097Y-130004500D01*
X90818092Y-130004500D01*
X90581908Y-130004500D01*
X90581903Y-130004500D01*
X90348631Y-130041446D01*
X90124003Y-130114433D01*
X89913566Y-130221657D01*
X89804550Y-130300862D01*
X89722490Y-130360483D01*
X89722488Y-130360485D01*
X89722487Y-130360485D01*
X89555485Y-130527487D01*
X89555485Y-130527488D01*
X89555483Y-130527490D01*
X89495948Y-130609432D01*
X89416657Y-130718566D01*
X89309433Y-130929003D01*
X89236446Y-131153631D01*
X89199500Y-131386902D01*
X72875500Y-131386902D01*
X72875500Y-128894675D01*
X102999500Y-128894675D01*
X102999500Y-129055324D01*
X103030837Y-129212865D01*
X103030839Y-129212873D01*
X103092311Y-129361281D01*
X103092316Y-129361290D01*
X103181559Y-129494850D01*
X103181562Y-129494854D01*
X103224027Y-129537319D01*
X103257512Y-129598642D01*
X103252528Y-129668334D01*
X103224027Y-129712681D01*
X103181562Y-129755145D01*
X103181559Y-129755149D01*
X103092316Y-129888709D01*
X103092311Y-129888718D01*
X103030839Y-130037126D01*
X103030837Y-130037134D01*
X102999500Y-130194675D01*
X102999500Y-130355324D01*
X103030837Y-130512865D01*
X103030839Y-130512873D01*
X103092311Y-130661281D01*
X103092316Y-130661290D01*
X103181559Y-130794850D01*
X103181562Y-130794854D01*
X103295145Y-130908437D01*
X103295149Y-130908440D01*
X103428709Y-130997683D01*
X103428715Y-130997686D01*
X103428716Y-130997687D01*
X103577127Y-131059161D01*
X103734675Y-131090499D01*
X103734679Y-131090500D01*
X103734680Y-131090500D01*
X103895321Y-131090500D01*
X103895322Y-131090499D01*
X104052873Y-131059161D01*
X104201284Y-130997687D01*
X104334851Y-130908440D01*
X104355688Y-130887603D01*
X104377319Y-130865973D01*
X104438642Y-130832488D01*
X104508334Y-130837472D01*
X104552681Y-130865973D01*
X104595145Y-130908437D01*
X104595149Y-130908440D01*
X104728709Y-130997683D01*
X104728715Y-130997686D01*
X104728716Y-130997687D01*
X104877127Y-131059161D01*
X105034675Y-131090499D01*
X105034679Y-131090500D01*
X105034680Y-131090500D01*
X105195321Y-131090500D01*
X105195322Y-131090499D01*
X105352873Y-131059161D01*
X105501284Y-130997687D01*
X105634851Y-130908440D01*
X105655688Y-130887603D01*
X105677319Y-130865973D01*
X105738642Y-130832488D01*
X105808334Y-130837472D01*
X105852681Y-130865973D01*
X105895145Y-130908437D01*
X105895149Y-130908440D01*
X106028709Y-130997683D01*
X106028715Y-130997686D01*
X106028716Y-130997687D01*
X106177127Y-131059161D01*
X106334675Y-131090499D01*
X106334679Y-131090500D01*
X106334680Y-131090500D01*
X106495321Y-131090500D01*
X106495322Y-131090499D01*
X106652873Y-131059161D01*
X106801284Y-130997687D01*
X106934851Y-130908440D01*
X107048440Y-130794851D01*
X107137687Y-130661284D01*
X107199161Y-130512873D01*
X107230500Y-130355320D01*
X107230500Y-130194680D01*
X107199161Y-130037127D01*
X107137687Y-129888716D01*
X107137686Y-129888715D01*
X107137683Y-129888709D01*
X107048440Y-129755149D01*
X107048437Y-129755145D01*
X107005973Y-129712681D01*
X106972488Y-129651358D01*
X106977472Y-129581666D01*
X107005973Y-129537319D01*
X107048437Y-129494854D01*
X107048440Y-129494851D01*
X107137687Y-129361284D01*
X107199161Y-129212873D01*
X107230500Y-129055320D01*
X107230500Y-128894680D01*
X107199161Y-128737127D01*
X107137687Y-128588716D01*
X107137686Y-128588715D01*
X107137683Y-128588709D01*
X107048440Y-128455149D01*
X107048437Y-128455145D01*
X106934854Y-128341562D01*
X106934850Y-128341559D01*
X106801290Y-128252316D01*
X106801281Y-128252311D01*
X106652873Y-128190839D01*
X106652865Y-128190837D01*
X106495324Y-128159500D01*
X106495320Y-128159500D01*
X106334680Y-128159500D01*
X106334675Y-128159500D01*
X106177134Y-128190837D01*
X106177126Y-128190839D01*
X106028718Y-128252311D01*
X106028709Y-128252316D01*
X105895149Y-128341559D01*
X105895145Y-128341562D01*
X105852681Y-128384027D01*
X105791358Y-128417512D01*
X105721666Y-128412528D01*
X105677319Y-128384027D01*
X105634854Y-128341562D01*
X105634850Y-128341559D01*
X105501290Y-128252316D01*
X105501281Y-128252311D01*
X105352873Y-128190839D01*
X105352865Y-128190837D01*
X105195324Y-128159500D01*
X105195320Y-128159500D01*
X105034680Y-128159500D01*
X105034675Y-128159500D01*
X104877134Y-128190837D01*
X104877126Y-128190839D01*
X104728718Y-128252311D01*
X104728709Y-128252316D01*
X104595149Y-128341559D01*
X104595145Y-128341562D01*
X104552681Y-128384027D01*
X104491358Y-128417512D01*
X104421666Y-128412528D01*
X104377319Y-128384027D01*
X104334854Y-128341562D01*
X104334850Y-128341559D01*
X104201290Y-128252316D01*
X104201281Y-128252311D01*
X104052873Y-128190839D01*
X104052865Y-128190837D01*
X103895324Y-128159500D01*
X103895320Y-128159500D01*
X103734680Y-128159500D01*
X103734675Y-128159500D01*
X103577134Y-128190837D01*
X103577126Y-128190839D01*
X103428718Y-128252311D01*
X103428709Y-128252316D01*
X103295149Y-128341559D01*
X103295145Y-128341562D01*
X103181562Y-128455145D01*
X103181559Y-128455149D01*
X103092316Y-128588709D01*
X103092311Y-128588718D01*
X103030839Y-128737126D01*
X103030837Y-128737134D01*
X102999500Y-128894675D01*
X72875500Y-128894675D01*
X72875500Y-127661304D01*
X98099500Y-127661304D01*
X98099500Y-127838695D01*
X98134103Y-128012658D01*
X98134106Y-128012667D01*
X98201983Y-128176540D01*
X98201990Y-128176553D01*
X98300535Y-128324034D01*
X98300538Y-128324038D01*
X98425961Y-128449461D01*
X98425965Y-128449464D01*
X98573446Y-128548009D01*
X98573459Y-128548016D01*
X98696363Y-128598923D01*
X98737334Y-128615894D01*
X98737336Y-128615894D01*
X98737341Y-128615896D01*
X98911304Y-128650499D01*
X98911307Y-128650500D01*
X98911309Y-128650500D01*
X99088693Y-128650500D01*
X99088694Y-128650499D01*
X99146682Y-128638964D01*
X99262658Y-128615896D01*
X99262661Y-128615894D01*
X99262666Y-128615894D01*
X99426547Y-128548013D01*
X99574035Y-128449464D01*
X99699464Y-128324035D01*
X99798013Y-128176547D01*
X99865894Y-128012666D01*
X99900500Y-127838691D01*
X99900500Y-127661309D01*
X99900500Y-127661306D01*
X99900499Y-127661304D01*
X99865896Y-127487341D01*
X99865893Y-127487332D01*
X99798016Y-127323459D01*
X99798009Y-127323446D01*
X99699464Y-127175965D01*
X99699461Y-127175961D01*
X99574038Y-127050538D01*
X99574034Y-127050535D01*
X99426553Y-126951990D01*
X99426540Y-126951983D01*
X99262667Y-126884106D01*
X99262658Y-126884103D01*
X99088694Y-126849500D01*
X99088691Y-126849500D01*
X98911309Y-126849500D01*
X98911306Y-126849500D01*
X98737341Y-126884103D01*
X98737332Y-126884106D01*
X98573459Y-126951983D01*
X98573446Y-126951990D01*
X98425965Y-127050535D01*
X98425961Y-127050538D01*
X98300538Y-127175961D01*
X98300535Y-127175965D01*
X98201990Y-127323446D01*
X98201983Y-127323459D01*
X98134106Y-127487332D01*
X98134103Y-127487341D01*
X98099500Y-127661304D01*
X72875500Y-127661304D01*
X72875500Y-124421153D01*
X100199500Y-124421153D01*
X100199500Y-124578846D01*
X100230261Y-124733489D01*
X100230264Y-124733501D01*
X100290602Y-124879172D01*
X100290609Y-124879185D01*
X100378210Y-125010288D01*
X100378213Y-125010292D01*
X100489707Y-125121786D01*
X100489711Y-125121789D01*
X100620814Y-125209390D01*
X100620827Y-125209397D01*
X100766498Y-125269735D01*
X100766503Y-125269737D01*
X100921153Y-125300499D01*
X100921156Y-125300500D01*
X100921158Y-125300500D01*
X101078844Y-125300500D01*
X101078845Y-125300499D01*
X101233497Y-125269737D01*
X101379179Y-125209394D01*
X101436411Y-125171153D01*
X101949500Y-125171153D01*
X101949500Y-125328846D01*
X101980261Y-125483489D01*
X101980264Y-125483501D01*
X102040602Y-125629172D01*
X102040609Y-125629185D01*
X102128210Y-125760288D01*
X102128213Y-125760292D01*
X102239707Y-125871786D01*
X102239711Y-125871789D01*
X102370814Y-125959390D01*
X102370827Y-125959397D01*
X102516498Y-126019735D01*
X102516503Y-126019737D01*
X102671153Y-126050499D01*
X102671156Y-126050500D01*
X102671158Y-126050500D01*
X102828844Y-126050500D01*
X102828845Y-126050499D01*
X102983497Y-126019737D01*
X103129179Y-125959394D01*
X103260289Y-125871789D01*
X103260292Y-125871786D01*
X103287319Y-125844760D01*
X103348642Y-125811275D01*
X103418334Y-125816259D01*
X103462681Y-125844760D01*
X103489707Y-125871786D01*
X103489711Y-125871789D01*
X103620814Y-125959390D01*
X103620827Y-125959397D01*
X103766498Y-126019735D01*
X103766503Y-126019737D01*
X103921153Y-126050499D01*
X103921156Y-126050500D01*
X103921158Y-126050500D01*
X104078844Y-126050500D01*
X104078845Y-126050499D01*
X104233497Y-126019737D01*
X104379179Y-125959394D01*
X104510289Y-125871789D01*
X104621789Y-125760289D01*
X104709394Y-125629179D01*
X104769737Y-125483497D01*
X104800500Y-125328842D01*
X104800500Y-125171158D01*
X104800500Y-125171155D01*
X104800499Y-125171153D01*
X104769738Y-125016510D01*
X104769737Y-125016503D01*
X104767163Y-125010288D01*
X104709397Y-124870827D01*
X104709390Y-124870814D01*
X104621789Y-124739711D01*
X104621786Y-124739707D01*
X104510292Y-124628213D01*
X104510288Y-124628210D01*
X104379185Y-124540609D01*
X104379172Y-124540602D01*
X104233501Y-124480264D01*
X104233489Y-124480261D01*
X104078845Y-124449500D01*
X104078842Y-124449500D01*
X103921158Y-124449500D01*
X103921155Y-124449500D01*
X103766510Y-124480261D01*
X103766498Y-124480264D01*
X103620827Y-124540602D01*
X103620814Y-124540609D01*
X103489711Y-124628210D01*
X103489707Y-124628213D01*
X103462681Y-124655240D01*
X103401358Y-124688725D01*
X103331666Y-124683741D01*
X103287319Y-124655240D01*
X103260292Y-124628213D01*
X103260288Y-124628210D01*
X103129185Y-124540609D01*
X103129172Y-124540602D01*
X102983501Y-124480264D01*
X102983489Y-124480261D01*
X102828845Y-124449500D01*
X102828842Y-124449500D01*
X102671158Y-124449500D01*
X102671155Y-124449500D01*
X102516510Y-124480261D01*
X102516498Y-124480264D01*
X102370827Y-124540602D01*
X102370814Y-124540609D01*
X102239711Y-124628210D01*
X102239707Y-124628213D01*
X102128213Y-124739707D01*
X102128210Y-124739711D01*
X102040609Y-124870814D01*
X102040602Y-124870827D01*
X101980264Y-125016498D01*
X101980261Y-125016510D01*
X101949500Y-125171153D01*
X101436411Y-125171153D01*
X101510289Y-125121789D01*
X101510292Y-125121786D01*
X101554694Y-125077385D01*
X101621786Y-125010292D01*
X101621789Y-125010289D01*
X101709394Y-124879179D01*
X101712854Y-124870827D01*
X101767163Y-124739711D01*
X101769737Y-124733497D01*
X101800500Y-124578842D01*
X101800500Y-124421158D01*
X101800500Y-124421155D01*
X101800499Y-124421153D01*
X101769738Y-124266510D01*
X101769737Y-124266503D01*
X101769735Y-124266498D01*
X101709397Y-124120827D01*
X101709390Y-124120814D01*
X101621789Y-123989711D01*
X101621786Y-123989707D01*
X101510292Y-123878213D01*
X101510288Y-123878210D01*
X101379185Y-123790609D01*
X101379172Y-123790602D01*
X101233501Y-123730264D01*
X101233489Y-123730261D01*
X101078845Y-123699500D01*
X101078842Y-123699500D01*
X100921158Y-123699500D01*
X100921155Y-123699500D01*
X100766510Y-123730261D01*
X100766498Y-123730264D01*
X100620827Y-123790602D01*
X100620814Y-123790609D01*
X100489711Y-123878210D01*
X100489707Y-123878213D01*
X100378213Y-123989707D01*
X100378210Y-123989711D01*
X100290609Y-124120814D01*
X100290602Y-124120827D01*
X100230264Y-124266498D01*
X100230261Y-124266510D01*
X100199500Y-124421153D01*
X72875500Y-124421153D01*
X72875500Y-123374000D01*
X72878050Y-123365314D01*
X72876762Y-123356353D01*
X72887740Y-123332312D01*
X72895185Y-123306961D01*
X72902025Y-123301033D01*
X72905787Y-123292797D01*
X72928021Y-123278507D01*
X72947989Y-123261206D01*
X72958503Y-123258918D01*
X72964565Y-123255023D01*
X72999500Y-123250000D01*
X73124067Y-123250000D01*
X73191106Y-123269685D01*
G37*
%TD.AperFunction*%
%TD*%
M02*
