%TF.GenerationSoftware,KiCad,Pcbnew,9.0.3-9.0.3-0~ubuntu24.04.1*%
%TF.CreationDate,2026-03-23T12:30:48+03:00*%
%TF.ProjectId,sounddecoder-esp32-s3-wroom-1,736f756e-6464-4656-936f-6465722d6573,rev?*%
%TF.SameCoordinates,Original*%
%TF.FileFunction,Legend,Top*%
%TF.FilePolarity,Positive*%
%FSLAX46Y46*%
G04 Gerber Fmt 4.6, Leading zero omitted, Abs format (unit mm)*
G04 Created by KiCad (PCBNEW 9.0.3-9.0.3-0~ubuntu24.04.1) date 2026-03-23 12:30:48*
%MOMM*%
%LPD*%
G01*
G04 APERTURE LIST*
%ADD10C,0.150000*%
%ADD11C,0.120000*%
G04 APERTURE END LIST*
D10*
X87666666Y-101204819D02*
X87666666Y-101919104D01*
X87666666Y-101919104D02*
X87619047Y-102061961D01*
X87619047Y-102061961D02*
X87523809Y-102157200D01*
X87523809Y-102157200D02*
X87380952Y-102204819D01*
X87380952Y-102204819D02*
X87285714Y-102204819D01*
X88571428Y-101204819D02*
X88380952Y-101204819D01*
X88380952Y-101204819D02*
X88285714Y-101252438D01*
X88285714Y-101252438D02*
X88238095Y-101300057D01*
X88238095Y-101300057D02*
X88142857Y-101442914D01*
X88142857Y-101442914D02*
X88095238Y-101633390D01*
X88095238Y-101633390D02*
X88095238Y-102014342D01*
X88095238Y-102014342D02*
X88142857Y-102109580D01*
X88142857Y-102109580D02*
X88190476Y-102157200D01*
X88190476Y-102157200D02*
X88285714Y-102204819D01*
X88285714Y-102204819D02*
X88476190Y-102204819D01*
X88476190Y-102204819D02*
X88571428Y-102157200D01*
X88571428Y-102157200D02*
X88619047Y-102109580D01*
X88619047Y-102109580D02*
X88666666Y-102014342D01*
X88666666Y-102014342D02*
X88666666Y-101776247D01*
X88666666Y-101776247D02*
X88619047Y-101681009D01*
X88619047Y-101681009D02*
X88571428Y-101633390D01*
X88571428Y-101633390D02*
X88476190Y-101585771D01*
X88476190Y-101585771D02*
X88285714Y-101585771D01*
X88285714Y-101585771D02*
X88190476Y-101633390D01*
X88190476Y-101633390D02*
X88142857Y-101681009D01*
X88142857Y-101681009D02*
X88095238Y-101776247D01*
X74988095Y-82954819D02*
X74988095Y-83764342D01*
X74988095Y-83764342D02*
X75035714Y-83859580D01*
X75035714Y-83859580D02*
X75083333Y-83907200D01*
X75083333Y-83907200D02*
X75178571Y-83954819D01*
X75178571Y-83954819D02*
X75369047Y-83954819D01*
X75369047Y-83954819D02*
X75464285Y-83907200D01*
X75464285Y-83907200D02*
X75511904Y-83859580D01*
X75511904Y-83859580D02*
X75559523Y-83764342D01*
X75559523Y-83764342D02*
X75559523Y-82954819D01*
X76511904Y-82954819D02*
X76035714Y-82954819D01*
X76035714Y-82954819D02*
X75988095Y-83431009D01*
X75988095Y-83431009D02*
X76035714Y-83383390D01*
X76035714Y-83383390D02*
X76130952Y-83335771D01*
X76130952Y-83335771D02*
X76369047Y-83335771D01*
X76369047Y-83335771D02*
X76464285Y-83383390D01*
X76464285Y-83383390D02*
X76511904Y-83431009D01*
X76511904Y-83431009D02*
X76559523Y-83526247D01*
X76559523Y-83526247D02*
X76559523Y-83764342D01*
X76559523Y-83764342D02*
X76511904Y-83859580D01*
X76511904Y-83859580D02*
X76464285Y-83907200D01*
X76464285Y-83907200D02*
X76369047Y-83954819D01*
X76369047Y-83954819D02*
X76130952Y-83954819D01*
X76130952Y-83954819D02*
X76035714Y-83907200D01*
X76035714Y-83907200D02*
X75988095Y-83859580D01*
X95383333Y-98559580D02*
X95335714Y-98607200D01*
X95335714Y-98607200D02*
X95192857Y-98654819D01*
X95192857Y-98654819D02*
X95097619Y-98654819D01*
X95097619Y-98654819D02*
X94954762Y-98607200D01*
X94954762Y-98607200D02*
X94859524Y-98511961D01*
X94859524Y-98511961D02*
X94811905Y-98416723D01*
X94811905Y-98416723D02*
X94764286Y-98226247D01*
X94764286Y-98226247D02*
X94764286Y-98083390D01*
X94764286Y-98083390D02*
X94811905Y-97892914D01*
X94811905Y-97892914D02*
X94859524Y-97797676D01*
X94859524Y-97797676D02*
X94954762Y-97702438D01*
X94954762Y-97702438D02*
X95097619Y-97654819D01*
X95097619Y-97654819D02*
X95192857Y-97654819D01*
X95192857Y-97654819D02*
X95335714Y-97702438D01*
X95335714Y-97702438D02*
X95383333Y-97750057D01*
X96240476Y-97654819D02*
X96050000Y-97654819D01*
X96050000Y-97654819D02*
X95954762Y-97702438D01*
X95954762Y-97702438D02*
X95907143Y-97750057D01*
X95907143Y-97750057D02*
X95811905Y-97892914D01*
X95811905Y-97892914D02*
X95764286Y-98083390D01*
X95764286Y-98083390D02*
X95764286Y-98464342D01*
X95764286Y-98464342D02*
X95811905Y-98559580D01*
X95811905Y-98559580D02*
X95859524Y-98607200D01*
X95859524Y-98607200D02*
X95954762Y-98654819D01*
X95954762Y-98654819D02*
X96145238Y-98654819D01*
X96145238Y-98654819D02*
X96240476Y-98607200D01*
X96240476Y-98607200D02*
X96288095Y-98559580D01*
X96288095Y-98559580D02*
X96335714Y-98464342D01*
X96335714Y-98464342D02*
X96335714Y-98226247D01*
X96335714Y-98226247D02*
X96288095Y-98131009D01*
X96288095Y-98131009D02*
X96240476Y-98083390D01*
X96240476Y-98083390D02*
X96145238Y-98035771D01*
X96145238Y-98035771D02*
X95954762Y-98035771D01*
X95954762Y-98035771D02*
X95859524Y-98083390D01*
X95859524Y-98083390D02*
X95811905Y-98131009D01*
X95811905Y-98131009D02*
X95764286Y-98226247D01*
X80709580Y-108704166D02*
X80757200Y-108751785D01*
X80757200Y-108751785D02*
X80804819Y-108894642D01*
X80804819Y-108894642D02*
X80804819Y-108989880D01*
X80804819Y-108989880D02*
X80757200Y-109132737D01*
X80757200Y-109132737D02*
X80661961Y-109227975D01*
X80661961Y-109227975D02*
X80566723Y-109275594D01*
X80566723Y-109275594D02*
X80376247Y-109323213D01*
X80376247Y-109323213D02*
X80233390Y-109323213D01*
X80233390Y-109323213D02*
X80042914Y-109275594D01*
X80042914Y-109275594D02*
X79947676Y-109227975D01*
X79947676Y-109227975D02*
X79852438Y-109132737D01*
X79852438Y-109132737D02*
X79804819Y-108989880D01*
X79804819Y-108989880D02*
X79804819Y-108894642D01*
X79804819Y-108894642D02*
X79852438Y-108751785D01*
X79852438Y-108751785D02*
X79900057Y-108704166D01*
X79804819Y-107799404D02*
X79804819Y-108275594D01*
X79804819Y-108275594D02*
X80281009Y-108323213D01*
X80281009Y-108323213D02*
X80233390Y-108275594D01*
X80233390Y-108275594D02*
X80185771Y-108180356D01*
X80185771Y-108180356D02*
X80185771Y-107942261D01*
X80185771Y-107942261D02*
X80233390Y-107847023D01*
X80233390Y-107847023D02*
X80281009Y-107799404D01*
X80281009Y-107799404D02*
X80376247Y-107751785D01*
X80376247Y-107751785D02*
X80614342Y-107751785D01*
X80614342Y-107751785D02*
X80709580Y-107799404D01*
X80709580Y-107799404D02*
X80757200Y-107847023D01*
X80757200Y-107847023D02*
X80804819Y-107942261D01*
X80804819Y-107942261D02*
X80804819Y-108180356D01*
X80804819Y-108180356D02*
X80757200Y-108275594D01*
X80757200Y-108275594D02*
X80709580Y-108323213D01*
X85483333Y-135109580D02*
X85435714Y-135157200D01*
X85435714Y-135157200D02*
X85292857Y-135204819D01*
X85292857Y-135204819D02*
X85197619Y-135204819D01*
X85197619Y-135204819D02*
X85054762Y-135157200D01*
X85054762Y-135157200D02*
X84959524Y-135061961D01*
X84959524Y-135061961D02*
X84911905Y-134966723D01*
X84911905Y-134966723D02*
X84864286Y-134776247D01*
X84864286Y-134776247D02*
X84864286Y-134633390D01*
X84864286Y-134633390D02*
X84911905Y-134442914D01*
X84911905Y-134442914D02*
X84959524Y-134347676D01*
X84959524Y-134347676D02*
X85054762Y-134252438D01*
X85054762Y-134252438D02*
X85197619Y-134204819D01*
X85197619Y-134204819D02*
X85292857Y-134204819D01*
X85292857Y-134204819D02*
X85435714Y-134252438D01*
X85435714Y-134252438D02*
X85483333Y-134300057D01*
X86340476Y-134538152D02*
X86340476Y-135204819D01*
X86102381Y-134157200D02*
X85864286Y-134871485D01*
X85864286Y-134871485D02*
X86483333Y-134871485D01*
X93933333Y-126397080D02*
X93885714Y-126444700D01*
X93885714Y-126444700D02*
X93742857Y-126492319D01*
X93742857Y-126492319D02*
X93647619Y-126492319D01*
X93647619Y-126492319D02*
X93504762Y-126444700D01*
X93504762Y-126444700D02*
X93409524Y-126349461D01*
X93409524Y-126349461D02*
X93361905Y-126254223D01*
X93361905Y-126254223D02*
X93314286Y-126063747D01*
X93314286Y-126063747D02*
X93314286Y-125920890D01*
X93314286Y-125920890D02*
X93361905Y-125730414D01*
X93361905Y-125730414D02*
X93409524Y-125635176D01*
X93409524Y-125635176D02*
X93504762Y-125539938D01*
X93504762Y-125539938D02*
X93647619Y-125492319D01*
X93647619Y-125492319D02*
X93742857Y-125492319D01*
X93742857Y-125492319D02*
X93885714Y-125539938D01*
X93885714Y-125539938D02*
X93933333Y-125587557D01*
X94314286Y-125587557D02*
X94361905Y-125539938D01*
X94361905Y-125539938D02*
X94457143Y-125492319D01*
X94457143Y-125492319D02*
X94695238Y-125492319D01*
X94695238Y-125492319D02*
X94790476Y-125539938D01*
X94790476Y-125539938D02*
X94838095Y-125587557D01*
X94838095Y-125587557D02*
X94885714Y-125682795D01*
X94885714Y-125682795D02*
X94885714Y-125778033D01*
X94885714Y-125778033D02*
X94838095Y-125920890D01*
X94838095Y-125920890D02*
X94266667Y-126492319D01*
X94266667Y-126492319D02*
X94885714Y-126492319D01*
X88954819Y-111666666D02*
X88954819Y-112142856D01*
X88954819Y-112142856D02*
X87954819Y-112142856D01*
X88954819Y-110809523D02*
X88954819Y-111380951D01*
X88954819Y-111095237D02*
X87954819Y-111095237D01*
X87954819Y-111095237D02*
X88097676Y-111190475D01*
X88097676Y-111190475D02*
X88192914Y-111285713D01*
X88192914Y-111285713D02*
X88240533Y-111380951D01*
X83454819Y-91385237D02*
X84264342Y-91385237D01*
X84264342Y-91385237D02*
X84359580Y-91337618D01*
X84359580Y-91337618D02*
X84407200Y-91289999D01*
X84407200Y-91289999D02*
X84454819Y-91194761D01*
X84454819Y-91194761D02*
X84454819Y-91004285D01*
X84454819Y-91004285D02*
X84407200Y-90909047D01*
X84407200Y-90909047D02*
X84359580Y-90861428D01*
X84359580Y-90861428D02*
X84264342Y-90813809D01*
X84264342Y-90813809D02*
X83454819Y-90813809D01*
X84169104Y-90385237D02*
X84169104Y-89909047D01*
X84454819Y-90480475D02*
X83454819Y-90147142D01*
X83454819Y-90147142D02*
X84454819Y-89813809D01*
X84454819Y-88909047D02*
X83978628Y-89242380D01*
X84454819Y-89480475D02*
X83454819Y-89480475D01*
X83454819Y-89480475D02*
X83454819Y-89099523D01*
X83454819Y-89099523D02*
X83502438Y-89004285D01*
X83502438Y-89004285D02*
X83550057Y-88956666D01*
X83550057Y-88956666D02*
X83645295Y-88909047D01*
X83645295Y-88909047D02*
X83788152Y-88909047D01*
X83788152Y-88909047D02*
X83883390Y-88956666D01*
X83883390Y-88956666D02*
X83931009Y-89004285D01*
X83931009Y-89004285D02*
X83978628Y-89099523D01*
X83978628Y-89099523D02*
X83978628Y-89480475D01*
X83454819Y-88623332D02*
X83454819Y-88051904D01*
X84454819Y-88337618D02*
X83454819Y-88337618D01*
X73738095Y-103907200D02*
X73880952Y-103954819D01*
X73880952Y-103954819D02*
X74119047Y-103954819D01*
X74119047Y-103954819D02*
X74214285Y-103907200D01*
X74214285Y-103907200D02*
X74261904Y-103859580D01*
X74261904Y-103859580D02*
X74309523Y-103764342D01*
X74309523Y-103764342D02*
X74309523Y-103669104D01*
X74309523Y-103669104D02*
X74261904Y-103573866D01*
X74261904Y-103573866D02*
X74214285Y-103526247D01*
X74214285Y-103526247D02*
X74119047Y-103478628D01*
X74119047Y-103478628D02*
X73928571Y-103431009D01*
X73928571Y-103431009D02*
X73833333Y-103383390D01*
X73833333Y-103383390D02*
X73785714Y-103335771D01*
X73785714Y-103335771D02*
X73738095Y-103240533D01*
X73738095Y-103240533D02*
X73738095Y-103145295D01*
X73738095Y-103145295D02*
X73785714Y-103050057D01*
X73785714Y-103050057D02*
X73833333Y-103002438D01*
X73833333Y-103002438D02*
X73928571Y-102954819D01*
X73928571Y-102954819D02*
X74166666Y-102954819D01*
X74166666Y-102954819D02*
X74309523Y-103002438D01*
X74738095Y-103288152D02*
X74738095Y-104288152D01*
X74738095Y-103335771D02*
X74833333Y-103288152D01*
X74833333Y-103288152D02*
X75023809Y-103288152D01*
X75023809Y-103288152D02*
X75119047Y-103335771D01*
X75119047Y-103335771D02*
X75166666Y-103383390D01*
X75166666Y-103383390D02*
X75214285Y-103478628D01*
X75214285Y-103478628D02*
X75214285Y-103764342D01*
X75214285Y-103764342D02*
X75166666Y-103859580D01*
X75166666Y-103859580D02*
X75119047Y-103907200D01*
X75119047Y-103907200D02*
X75023809Y-103954819D01*
X75023809Y-103954819D02*
X74833333Y-103954819D01*
X74833333Y-103954819D02*
X74738095Y-103907200D01*
X76023809Y-103907200D02*
X75928571Y-103954819D01*
X75928571Y-103954819D02*
X75738095Y-103954819D01*
X75738095Y-103954819D02*
X75642857Y-103907200D01*
X75642857Y-103907200D02*
X75595238Y-103811961D01*
X75595238Y-103811961D02*
X75595238Y-103431009D01*
X75595238Y-103431009D02*
X75642857Y-103335771D01*
X75642857Y-103335771D02*
X75738095Y-103288152D01*
X75738095Y-103288152D02*
X75928571Y-103288152D01*
X75928571Y-103288152D02*
X76023809Y-103335771D01*
X76023809Y-103335771D02*
X76071428Y-103431009D01*
X76071428Y-103431009D02*
X76071428Y-103526247D01*
X76071428Y-103526247D02*
X75595238Y-103621485D01*
X76928571Y-103954819D02*
X76928571Y-103431009D01*
X76928571Y-103431009D02*
X76880952Y-103335771D01*
X76880952Y-103335771D02*
X76785714Y-103288152D01*
X76785714Y-103288152D02*
X76595238Y-103288152D01*
X76595238Y-103288152D02*
X76500000Y-103335771D01*
X76928571Y-103907200D02*
X76833333Y-103954819D01*
X76833333Y-103954819D02*
X76595238Y-103954819D01*
X76595238Y-103954819D02*
X76500000Y-103907200D01*
X76500000Y-103907200D02*
X76452381Y-103811961D01*
X76452381Y-103811961D02*
X76452381Y-103716723D01*
X76452381Y-103716723D02*
X76500000Y-103621485D01*
X76500000Y-103621485D02*
X76595238Y-103573866D01*
X76595238Y-103573866D02*
X76833333Y-103573866D01*
X76833333Y-103573866D02*
X76928571Y-103526247D01*
X77404762Y-103954819D02*
X77404762Y-102954819D01*
X77500000Y-103573866D02*
X77785714Y-103954819D01*
X77785714Y-103288152D02*
X77404762Y-103669104D01*
X78595238Y-103907200D02*
X78500000Y-103954819D01*
X78500000Y-103954819D02*
X78309524Y-103954819D01*
X78309524Y-103954819D02*
X78214286Y-103907200D01*
X78214286Y-103907200D02*
X78166667Y-103811961D01*
X78166667Y-103811961D02*
X78166667Y-103431009D01*
X78166667Y-103431009D02*
X78214286Y-103335771D01*
X78214286Y-103335771D02*
X78309524Y-103288152D01*
X78309524Y-103288152D02*
X78500000Y-103288152D01*
X78500000Y-103288152D02*
X78595238Y-103335771D01*
X78595238Y-103335771D02*
X78642857Y-103431009D01*
X78642857Y-103431009D02*
X78642857Y-103526247D01*
X78642857Y-103526247D02*
X78166667Y-103621485D01*
X79071429Y-103954819D02*
X79071429Y-103288152D01*
X79071429Y-103478628D02*
X79119048Y-103383390D01*
X79119048Y-103383390D02*
X79166667Y-103335771D01*
X79166667Y-103335771D02*
X79261905Y-103288152D01*
X79261905Y-103288152D02*
X79357143Y-103288152D01*
X84954819Y-94851904D02*
X85764342Y-94851904D01*
X85764342Y-94851904D02*
X85859580Y-94804285D01*
X85859580Y-94804285D02*
X85907200Y-94756666D01*
X85907200Y-94756666D02*
X85954819Y-94661428D01*
X85954819Y-94661428D02*
X85954819Y-94470952D01*
X85954819Y-94470952D02*
X85907200Y-94375714D01*
X85907200Y-94375714D02*
X85859580Y-94328095D01*
X85859580Y-94328095D02*
X85764342Y-94280476D01*
X85764342Y-94280476D02*
X84954819Y-94280476D01*
X84954819Y-93899523D02*
X84954819Y-93232857D01*
X84954819Y-93232857D02*
X85954819Y-93661428D01*
X96988095Y-108954819D02*
X96988095Y-109764342D01*
X96988095Y-109764342D02*
X97035714Y-109859580D01*
X97035714Y-109859580D02*
X97083333Y-109907200D01*
X97083333Y-109907200D02*
X97178571Y-109954819D01*
X97178571Y-109954819D02*
X97369047Y-109954819D01*
X97369047Y-109954819D02*
X97464285Y-109907200D01*
X97464285Y-109907200D02*
X97511904Y-109859580D01*
X97511904Y-109859580D02*
X97559523Y-109764342D01*
X97559523Y-109764342D02*
X97559523Y-108954819D01*
X98464285Y-108954819D02*
X98273809Y-108954819D01*
X98273809Y-108954819D02*
X98178571Y-109002438D01*
X98178571Y-109002438D02*
X98130952Y-109050057D01*
X98130952Y-109050057D02*
X98035714Y-109192914D01*
X98035714Y-109192914D02*
X97988095Y-109383390D01*
X97988095Y-109383390D02*
X97988095Y-109764342D01*
X97988095Y-109764342D02*
X98035714Y-109859580D01*
X98035714Y-109859580D02*
X98083333Y-109907200D01*
X98083333Y-109907200D02*
X98178571Y-109954819D01*
X98178571Y-109954819D02*
X98369047Y-109954819D01*
X98369047Y-109954819D02*
X98464285Y-109907200D01*
X98464285Y-109907200D02*
X98511904Y-109859580D01*
X98511904Y-109859580D02*
X98559523Y-109764342D01*
X98559523Y-109764342D02*
X98559523Y-109526247D01*
X98559523Y-109526247D02*
X98511904Y-109431009D01*
X98511904Y-109431009D02*
X98464285Y-109383390D01*
X98464285Y-109383390D02*
X98369047Y-109335771D01*
X98369047Y-109335771D02*
X98178571Y-109335771D01*
X98178571Y-109335771D02*
X98083333Y-109383390D01*
X98083333Y-109383390D02*
X98035714Y-109431009D01*
X98035714Y-109431009D02*
X97988095Y-109526247D01*
X109416666Y-127954819D02*
X109416666Y-126954819D01*
X109416666Y-126954819D02*
X109749999Y-127669104D01*
X109749999Y-127669104D02*
X110083332Y-126954819D01*
X110083332Y-126954819D02*
X110083332Y-127954819D01*
X110702380Y-127954819D02*
X110607142Y-127907200D01*
X110607142Y-127907200D02*
X110559523Y-127859580D01*
X110559523Y-127859580D02*
X110511904Y-127764342D01*
X110511904Y-127764342D02*
X110511904Y-127478628D01*
X110511904Y-127478628D02*
X110559523Y-127383390D01*
X110559523Y-127383390D02*
X110607142Y-127335771D01*
X110607142Y-127335771D02*
X110702380Y-127288152D01*
X110702380Y-127288152D02*
X110845237Y-127288152D01*
X110845237Y-127288152D02*
X110940475Y-127335771D01*
X110940475Y-127335771D02*
X110988094Y-127383390D01*
X110988094Y-127383390D02*
X111035713Y-127478628D01*
X111035713Y-127478628D02*
X111035713Y-127764342D01*
X111035713Y-127764342D02*
X110988094Y-127859580D01*
X110988094Y-127859580D02*
X110940475Y-127907200D01*
X110940475Y-127907200D02*
X110845237Y-127954819D01*
X110845237Y-127954819D02*
X110702380Y-127954819D01*
X111321428Y-127288152D02*
X111702380Y-127288152D01*
X111464285Y-126954819D02*
X111464285Y-127811961D01*
X111464285Y-127811961D02*
X111511904Y-127907200D01*
X111511904Y-127907200D02*
X111607142Y-127954819D01*
X111607142Y-127954819D02*
X111702380Y-127954819D01*
X112178571Y-127954819D02*
X112083333Y-127907200D01*
X112083333Y-127907200D02*
X112035714Y-127859580D01*
X112035714Y-127859580D02*
X111988095Y-127764342D01*
X111988095Y-127764342D02*
X111988095Y-127478628D01*
X111988095Y-127478628D02*
X112035714Y-127383390D01*
X112035714Y-127383390D02*
X112083333Y-127335771D01*
X112083333Y-127335771D02*
X112178571Y-127288152D01*
X112178571Y-127288152D02*
X112321428Y-127288152D01*
X112321428Y-127288152D02*
X112416666Y-127335771D01*
X112416666Y-127335771D02*
X112464285Y-127383390D01*
X112464285Y-127383390D02*
X112511904Y-127478628D01*
X112511904Y-127478628D02*
X112511904Y-127764342D01*
X112511904Y-127764342D02*
X112464285Y-127859580D01*
X112464285Y-127859580D02*
X112416666Y-127907200D01*
X112416666Y-127907200D02*
X112321428Y-127954819D01*
X112321428Y-127954819D02*
X112178571Y-127954819D01*
X112940476Y-127954819D02*
X112940476Y-127288152D01*
X112940476Y-127478628D02*
X112988095Y-127383390D01*
X112988095Y-127383390D02*
X113035714Y-127335771D01*
X113035714Y-127335771D02*
X113130952Y-127288152D01*
X113130952Y-127288152D02*
X113226190Y-127288152D01*
X83359580Y-82392857D02*
X83407200Y-82440476D01*
X83407200Y-82440476D02*
X83454819Y-82583333D01*
X83454819Y-82583333D02*
X83454819Y-82678571D01*
X83454819Y-82678571D02*
X83407200Y-82821428D01*
X83407200Y-82821428D02*
X83311961Y-82916666D01*
X83311961Y-82916666D02*
X83216723Y-82964285D01*
X83216723Y-82964285D02*
X83026247Y-83011904D01*
X83026247Y-83011904D02*
X82883390Y-83011904D01*
X82883390Y-83011904D02*
X82692914Y-82964285D01*
X82692914Y-82964285D02*
X82597676Y-82916666D01*
X82597676Y-82916666D02*
X82502438Y-82821428D01*
X82502438Y-82821428D02*
X82454819Y-82678571D01*
X82454819Y-82678571D02*
X82454819Y-82583333D01*
X82454819Y-82583333D02*
X82502438Y-82440476D01*
X82502438Y-82440476D02*
X82550057Y-82392857D01*
X83454819Y-81440476D02*
X83454819Y-82011904D01*
X83454819Y-81726190D02*
X82454819Y-81726190D01*
X82454819Y-81726190D02*
X82597676Y-81821428D01*
X82597676Y-81821428D02*
X82692914Y-81916666D01*
X82692914Y-81916666D02*
X82740533Y-82011904D01*
X82454819Y-80821428D02*
X82454819Y-80726190D01*
X82454819Y-80726190D02*
X82502438Y-80630952D01*
X82502438Y-80630952D02*
X82550057Y-80583333D01*
X82550057Y-80583333D02*
X82645295Y-80535714D01*
X82645295Y-80535714D02*
X82835771Y-80488095D01*
X82835771Y-80488095D02*
X83073866Y-80488095D01*
X83073866Y-80488095D02*
X83264342Y-80535714D01*
X83264342Y-80535714D02*
X83359580Y-80583333D01*
X83359580Y-80583333D02*
X83407200Y-80630952D01*
X83407200Y-80630952D02*
X83454819Y-80726190D01*
X83454819Y-80726190D02*
X83454819Y-80821428D01*
X83454819Y-80821428D02*
X83407200Y-80916666D01*
X83407200Y-80916666D02*
X83359580Y-80964285D01*
X83359580Y-80964285D02*
X83264342Y-81011904D01*
X83264342Y-81011904D02*
X83073866Y-81059523D01*
X83073866Y-81059523D02*
X82835771Y-81059523D01*
X82835771Y-81059523D02*
X82645295Y-81011904D01*
X82645295Y-81011904D02*
X82550057Y-80964285D01*
X82550057Y-80964285D02*
X82502438Y-80916666D01*
X82502438Y-80916666D02*
X82454819Y-80821428D01*
X85454819Y-82916666D02*
X84978628Y-83249999D01*
X85454819Y-83488094D02*
X84454819Y-83488094D01*
X84454819Y-83488094D02*
X84454819Y-83107142D01*
X84454819Y-83107142D02*
X84502438Y-83011904D01*
X84502438Y-83011904D02*
X84550057Y-82964285D01*
X84550057Y-82964285D02*
X84645295Y-82916666D01*
X84645295Y-82916666D02*
X84788152Y-82916666D01*
X84788152Y-82916666D02*
X84883390Y-82964285D01*
X84883390Y-82964285D02*
X84931009Y-83011904D01*
X84931009Y-83011904D02*
X84978628Y-83107142D01*
X84978628Y-83107142D02*
X84978628Y-83488094D01*
X84550057Y-82535713D02*
X84502438Y-82488094D01*
X84502438Y-82488094D02*
X84454819Y-82392856D01*
X84454819Y-82392856D02*
X84454819Y-82154761D01*
X84454819Y-82154761D02*
X84502438Y-82059523D01*
X84502438Y-82059523D02*
X84550057Y-82011904D01*
X84550057Y-82011904D02*
X84645295Y-81964285D01*
X84645295Y-81964285D02*
X84740533Y-81964285D01*
X84740533Y-81964285D02*
X84883390Y-82011904D01*
X84883390Y-82011904D02*
X85454819Y-82583332D01*
X85454819Y-82583332D02*
X85454819Y-81964285D01*
X104954819Y-124738094D02*
X103954819Y-124738094D01*
X103954819Y-124738094D02*
X103954819Y-124499999D01*
X103954819Y-124499999D02*
X104002438Y-124357142D01*
X104002438Y-124357142D02*
X104097676Y-124261904D01*
X104097676Y-124261904D02*
X104192914Y-124214285D01*
X104192914Y-124214285D02*
X104383390Y-124166666D01*
X104383390Y-124166666D02*
X104526247Y-124166666D01*
X104526247Y-124166666D02*
X104716723Y-124214285D01*
X104716723Y-124214285D02*
X104811961Y-124261904D01*
X104811961Y-124261904D02*
X104907200Y-124357142D01*
X104907200Y-124357142D02*
X104954819Y-124499999D01*
X104954819Y-124499999D02*
X104954819Y-124738094D01*
X104954819Y-123214285D02*
X104954819Y-123785713D01*
X104954819Y-123499999D02*
X103954819Y-123499999D01*
X103954819Y-123499999D02*
X104097676Y-123595237D01*
X104097676Y-123595237D02*
X104192914Y-123690475D01*
X104192914Y-123690475D02*
X104240533Y-123785713D01*
X82083333Y-96109580D02*
X82035714Y-96157200D01*
X82035714Y-96157200D02*
X81892857Y-96204819D01*
X81892857Y-96204819D02*
X81797619Y-96204819D01*
X81797619Y-96204819D02*
X81654762Y-96157200D01*
X81654762Y-96157200D02*
X81559524Y-96061961D01*
X81559524Y-96061961D02*
X81511905Y-95966723D01*
X81511905Y-95966723D02*
X81464286Y-95776247D01*
X81464286Y-95776247D02*
X81464286Y-95633390D01*
X81464286Y-95633390D02*
X81511905Y-95442914D01*
X81511905Y-95442914D02*
X81559524Y-95347676D01*
X81559524Y-95347676D02*
X81654762Y-95252438D01*
X81654762Y-95252438D02*
X81797619Y-95204819D01*
X81797619Y-95204819D02*
X81892857Y-95204819D01*
X81892857Y-95204819D02*
X82035714Y-95252438D01*
X82035714Y-95252438D02*
X82083333Y-95300057D01*
X82416667Y-95204819D02*
X83083333Y-95204819D01*
X83083333Y-95204819D02*
X82654762Y-96204819D01*
X87859580Y-98666666D02*
X87907200Y-98714285D01*
X87907200Y-98714285D02*
X87954819Y-98857142D01*
X87954819Y-98857142D02*
X87954819Y-98952380D01*
X87954819Y-98952380D02*
X87907200Y-99095237D01*
X87907200Y-99095237D02*
X87811961Y-99190475D01*
X87811961Y-99190475D02*
X87716723Y-99238094D01*
X87716723Y-99238094D02*
X87526247Y-99285713D01*
X87526247Y-99285713D02*
X87383390Y-99285713D01*
X87383390Y-99285713D02*
X87192914Y-99238094D01*
X87192914Y-99238094D02*
X87097676Y-99190475D01*
X87097676Y-99190475D02*
X87002438Y-99095237D01*
X87002438Y-99095237D02*
X86954819Y-98952380D01*
X86954819Y-98952380D02*
X86954819Y-98857142D01*
X86954819Y-98857142D02*
X87002438Y-98714285D01*
X87002438Y-98714285D02*
X87050057Y-98666666D01*
X87383390Y-98095237D02*
X87335771Y-98190475D01*
X87335771Y-98190475D02*
X87288152Y-98238094D01*
X87288152Y-98238094D02*
X87192914Y-98285713D01*
X87192914Y-98285713D02*
X87145295Y-98285713D01*
X87145295Y-98285713D02*
X87050057Y-98238094D01*
X87050057Y-98238094D02*
X87002438Y-98190475D01*
X87002438Y-98190475D02*
X86954819Y-98095237D01*
X86954819Y-98095237D02*
X86954819Y-97904761D01*
X86954819Y-97904761D02*
X87002438Y-97809523D01*
X87002438Y-97809523D02*
X87050057Y-97761904D01*
X87050057Y-97761904D02*
X87145295Y-97714285D01*
X87145295Y-97714285D02*
X87192914Y-97714285D01*
X87192914Y-97714285D02*
X87288152Y-97761904D01*
X87288152Y-97761904D02*
X87335771Y-97809523D01*
X87335771Y-97809523D02*
X87383390Y-97904761D01*
X87383390Y-97904761D02*
X87383390Y-98095237D01*
X87383390Y-98095237D02*
X87431009Y-98190475D01*
X87431009Y-98190475D02*
X87478628Y-98238094D01*
X87478628Y-98238094D02*
X87573866Y-98285713D01*
X87573866Y-98285713D02*
X87764342Y-98285713D01*
X87764342Y-98285713D02*
X87859580Y-98238094D01*
X87859580Y-98238094D02*
X87907200Y-98190475D01*
X87907200Y-98190475D02*
X87954819Y-98095237D01*
X87954819Y-98095237D02*
X87954819Y-97904761D01*
X87954819Y-97904761D02*
X87907200Y-97809523D01*
X87907200Y-97809523D02*
X87859580Y-97761904D01*
X87859580Y-97761904D02*
X87764342Y-97714285D01*
X87764342Y-97714285D02*
X87573866Y-97714285D01*
X87573866Y-97714285D02*
X87478628Y-97761904D01*
X87478628Y-97761904D02*
X87431009Y-97809523D01*
X87431009Y-97809523D02*
X87383390Y-97904761D01*
X84738095Y-113204819D02*
X84738095Y-114014342D01*
X84738095Y-114014342D02*
X84785714Y-114109580D01*
X84785714Y-114109580D02*
X84833333Y-114157200D01*
X84833333Y-114157200D02*
X84928571Y-114204819D01*
X84928571Y-114204819D02*
X85119047Y-114204819D01*
X85119047Y-114204819D02*
X85214285Y-114157200D01*
X85214285Y-114157200D02*
X85261904Y-114109580D01*
X85261904Y-114109580D02*
X85309523Y-114014342D01*
X85309523Y-114014342D02*
X85309523Y-113204819D01*
X86309523Y-114204819D02*
X85738095Y-114204819D01*
X86023809Y-114204819D02*
X86023809Y-113204819D01*
X86023809Y-113204819D02*
X85928571Y-113347676D01*
X85928571Y-113347676D02*
X85833333Y-113442914D01*
X85833333Y-113442914D02*
X85738095Y-113490533D01*
X90333333Y-125847080D02*
X90285714Y-125894700D01*
X90285714Y-125894700D02*
X90142857Y-125942319D01*
X90142857Y-125942319D02*
X90047619Y-125942319D01*
X90047619Y-125942319D02*
X89904762Y-125894700D01*
X89904762Y-125894700D02*
X89809524Y-125799461D01*
X89809524Y-125799461D02*
X89761905Y-125704223D01*
X89761905Y-125704223D02*
X89714286Y-125513747D01*
X89714286Y-125513747D02*
X89714286Y-125370890D01*
X89714286Y-125370890D02*
X89761905Y-125180414D01*
X89761905Y-125180414D02*
X89809524Y-125085176D01*
X89809524Y-125085176D02*
X89904762Y-124989938D01*
X89904762Y-124989938D02*
X90047619Y-124942319D01*
X90047619Y-124942319D02*
X90142857Y-124942319D01*
X90142857Y-124942319D02*
X90285714Y-124989938D01*
X90285714Y-124989938D02*
X90333333Y-125037557D01*
X90666667Y-124942319D02*
X91285714Y-124942319D01*
X91285714Y-124942319D02*
X90952381Y-125323271D01*
X90952381Y-125323271D02*
X91095238Y-125323271D01*
X91095238Y-125323271D02*
X91190476Y-125370890D01*
X91190476Y-125370890D02*
X91238095Y-125418509D01*
X91238095Y-125418509D02*
X91285714Y-125513747D01*
X91285714Y-125513747D02*
X91285714Y-125751842D01*
X91285714Y-125751842D02*
X91238095Y-125847080D01*
X91238095Y-125847080D02*
X91190476Y-125894700D01*
X91190476Y-125894700D02*
X91095238Y-125942319D01*
X91095238Y-125942319D02*
X90809524Y-125942319D01*
X90809524Y-125942319D02*
X90714286Y-125894700D01*
X90714286Y-125894700D02*
X90666667Y-125847080D01*
X81798095Y-102944819D02*
X81798095Y-103754342D01*
X81798095Y-103754342D02*
X81845714Y-103849580D01*
X81845714Y-103849580D02*
X81893333Y-103897200D01*
X81893333Y-103897200D02*
X81988571Y-103944819D01*
X81988571Y-103944819D02*
X82179047Y-103944819D01*
X82179047Y-103944819D02*
X82274285Y-103897200D01*
X82274285Y-103897200D02*
X82321904Y-103849580D01*
X82321904Y-103849580D02*
X82369523Y-103754342D01*
X82369523Y-103754342D02*
X82369523Y-102944819D01*
X82750476Y-102944819D02*
X83369523Y-102944819D01*
X83369523Y-102944819D02*
X83036190Y-103325771D01*
X83036190Y-103325771D02*
X83179047Y-103325771D01*
X83179047Y-103325771D02*
X83274285Y-103373390D01*
X83274285Y-103373390D02*
X83321904Y-103421009D01*
X83321904Y-103421009D02*
X83369523Y-103516247D01*
X83369523Y-103516247D02*
X83369523Y-103754342D01*
X83369523Y-103754342D02*
X83321904Y-103849580D01*
X83321904Y-103849580D02*
X83274285Y-103897200D01*
X83274285Y-103897200D02*
X83179047Y-103944819D01*
X83179047Y-103944819D02*
X82893333Y-103944819D01*
X82893333Y-103944819D02*
X82798095Y-103897200D01*
X82798095Y-103897200D02*
X82750476Y-103849580D01*
X81859580Y-82416666D02*
X81907200Y-82464285D01*
X81907200Y-82464285D02*
X81954819Y-82607142D01*
X81954819Y-82607142D02*
X81954819Y-82702380D01*
X81954819Y-82702380D02*
X81907200Y-82845237D01*
X81907200Y-82845237D02*
X81811961Y-82940475D01*
X81811961Y-82940475D02*
X81716723Y-82988094D01*
X81716723Y-82988094D02*
X81526247Y-83035713D01*
X81526247Y-83035713D02*
X81383390Y-83035713D01*
X81383390Y-83035713D02*
X81192914Y-82988094D01*
X81192914Y-82988094D02*
X81097676Y-82940475D01*
X81097676Y-82940475D02*
X81002438Y-82845237D01*
X81002438Y-82845237D02*
X80954819Y-82702380D01*
X80954819Y-82702380D02*
X80954819Y-82607142D01*
X80954819Y-82607142D02*
X81002438Y-82464285D01*
X81002438Y-82464285D02*
X81050057Y-82416666D01*
X81954819Y-81940475D02*
X81954819Y-81749999D01*
X81954819Y-81749999D02*
X81907200Y-81654761D01*
X81907200Y-81654761D02*
X81859580Y-81607142D01*
X81859580Y-81607142D02*
X81716723Y-81511904D01*
X81716723Y-81511904D02*
X81526247Y-81464285D01*
X81526247Y-81464285D02*
X81145295Y-81464285D01*
X81145295Y-81464285D02*
X81050057Y-81511904D01*
X81050057Y-81511904D02*
X81002438Y-81559523D01*
X81002438Y-81559523D02*
X80954819Y-81654761D01*
X80954819Y-81654761D02*
X80954819Y-81845237D01*
X80954819Y-81845237D02*
X81002438Y-81940475D01*
X81002438Y-81940475D02*
X81050057Y-81988094D01*
X81050057Y-81988094D02*
X81145295Y-82035713D01*
X81145295Y-82035713D02*
X81383390Y-82035713D01*
X81383390Y-82035713D02*
X81478628Y-81988094D01*
X81478628Y-81988094D02*
X81526247Y-81940475D01*
X81526247Y-81940475D02*
X81573866Y-81845237D01*
X81573866Y-81845237D02*
X81573866Y-81654761D01*
X81573866Y-81654761D02*
X81526247Y-81559523D01*
X81526247Y-81559523D02*
X81478628Y-81511904D01*
X81478628Y-81511904D02*
X81383390Y-81464285D01*
X85259523Y-127704819D02*
X85259523Y-126704819D01*
X85735713Y-127038152D02*
X85735713Y-127704819D01*
X85735713Y-127133390D02*
X85783332Y-127085771D01*
X85783332Y-127085771D02*
X85878570Y-127038152D01*
X85878570Y-127038152D02*
X86021427Y-127038152D01*
X86021427Y-127038152D02*
X86116665Y-127085771D01*
X86116665Y-127085771D02*
X86164284Y-127181009D01*
X86164284Y-127181009D02*
X86164284Y-127704819D01*
X86640475Y-127038152D02*
X86640475Y-128038152D01*
X86640475Y-127085771D02*
X86735713Y-127038152D01*
X86735713Y-127038152D02*
X86926189Y-127038152D01*
X86926189Y-127038152D02*
X87021427Y-127085771D01*
X87021427Y-127085771D02*
X87069046Y-127133390D01*
X87069046Y-127133390D02*
X87116665Y-127228628D01*
X87116665Y-127228628D02*
X87116665Y-127514342D01*
X87116665Y-127514342D02*
X87069046Y-127609580D01*
X87069046Y-127609580D02*
X87021427Y-127657200D01*
X87021427Y-127657200D02*
X86926189Y-127704819D01*
X86926189Y-127704819D02*
X86735713Y-127704819D01*
X86735713Y-127704819D02*
X86640475Y-127657200D01*
X87973808Y-127038152D02*
X87973808Y-127704819D01*
X87545237Y-127038152D02*
X87545237Y-127561961D01*
X87545237Y-127561961D02*
X87592856Y-127657200D01*
X87592856Y-127657200D02*
X87688094Y-127704819D01*
X87688094Y-127704819D02*
X87830951Y-127704819D01*
X87830951Y-127704819D02*
X87926189Y-127657200D01*
X87926189Y-127657200D02*
X87973808Y-127609580D01*
X88307142Y-127038152D02*
X88688094Y-127038152D01*
X88449999Y-126704819D02*
X88449999Y-127561961D01*
X88449999Y-127561961D02*
X88497618Y-127657200D01*
X88497618Y-127657200D02*
X88592856Y-127704819D01*
X88592856Y-127704819D02*
X88688094Y-127704819D01*
X89783333Y-127038152D02*
X89783333Y-128038152D01*
X89783333Y-127085771D02*
X89878571Y-127038152D01*
X89878571Y-127038152D02*
X90069047Y-127038152D01*
X90069047Y-127038152D02*
X90164285Y-127085771D01*
X90164285Y-127085771D02*
X90211904Y-127133390D01*
X90211904Y-127133390D02*
X90259523Y-127228628D01*
X90259523Y-127228628D02*
X90259523Y-127514342D01*
X90259523Y-127514342D02*
X90211904Y-127609580D01*
X90211904Y-127609580D02*
X90164285Y-127657200D01*
X90164285Y-127657200D02*
X90069047Y-127704819D01*
X90069047Y-127704819D02*
X89878571Y-127704819D01*
X89878571Y-127704819D02*
X89783333Y-127657200D01*
X90830952Y-127704819D02*
X90735714Y-127657200D01*
X90735714Y-127657200D02*
X90688095Y-127609580D01*
X90688095Y-127609580D02*
X90640476Y-127514342D01*
X90640476Y-127514342D02*
X90640476Y-127228628D01*
X90640476Y-127228628D02*
X90688095Y-127133390D01*
X90688095Y-127133390D02*
X90735714Y-127085771D01*
X90735714Y-127085771D02*
X90830952Y-127038152D01*
X90830952Y-127038152D02*
X90973809Y-127038152D01*
X90973809Y-127038152D02*
X91069047Y-127085771D01*
X91069047Y-127085771D02*
X91116666Y-127133390D01*
X91116666Y-127133390D02*
X91164285Y-127228628D01*
X91164285Y-127228628D02*
X91164285Y-127514342D01*
X91164285Y-127514342D02*
X91116666Y-127609580D01*
X91116666Y-127609580D02*
X91069047Y-127657200D01*
X91069047Y-127657200D02*
X90973809Y-127704819D01*
X90973809Y-127704819D02*
X90830952Y-127704819D01*
X91497619Y-127038152D02*
X91688095Y-127704819D01*
X91688095Y-127704819D02*
X91878571Y-127228628D01*
X91878571Y-127228628D02*
X92069047Y-127704819D01*
X92069047Y-127704819D02*
X92259523Y-127038152D01*
X93021428Y-127657200D02*
X92926190Y-127704819D01*
X92926190Y-127704819D02*
X92735714Y-127704819D01*
X92735714Y-127704819D02*
X92640476Y-127657200D01*
X92640476Y-127657200D02*
X92592857Y-127561961D01*
X92592857Y-127561961D02*
X92592857Y-127181009D01*
X92592857Y-127181009D02*
X92640476Y-127085771D01*
X92640476Y-127085771D02*
X92735714Y-127038152D01*
X92735714Y-127038152D02*
X92926190Y-127038152D01*
X92926190Y-127038152D02*
X93021428Y-127085771D01*
X93021428Y-127085771D02*
X93069047Y-127181009D01*
X93069047Y-127181009D02*
X93069047Y-127276247D01*
X93069047Y-127276247D02*
X92592857Y-127371485D01*
X93497619Y-127704819D02*
X93497619Y-127038152D01*
X93497619Y-127228628D02*
X93545238Y-127133390D01*
X93545238Y-127133390D02*
X93592857Y-127085771D01*
X93592857Y-127085771D02*
X93688095Y-127038152D01*
X93688095Y-127038152D02*
X93783333Y-127038152D01*
X100988095Y-96554819D02*
X100988095Y-97364342D01*
X100988095Y-97364342D02*
X101035714Y-97459580D01*
X101035714Y-97459580D02*
X101083333Y-97507200D01*
X101083333Y-97507200D02*
X101178571Y-97554819D01*
X101178571Y-97554819D02*
X101369047Y-97554819D01*
X101369047Y-97554819D02*
X101464285Y-97507200D01*
X101464285Y-97507200D02*
X101511904Y-97459580D01*
X101511904Y-97459580D02*
X101559523Y-97364342D01*
X101559523Y-97364342D02*
X101559523Y-96554819D01*
X102178571Y-96983390D02*
X102083333Y-96935771D01*
X102083333Y-96935771D02*
X102035714Y-96888152D01*
X102035714Y-96888152D02*
X101988095Y-96792914D01*
X101988095Y-96792914D02*
X101988095Y-96745295D01*
X101988095Y-96745295D02*
X102035714Y-96650057D01*
X102035714Y-96650057D02*
X102083333Y-96602438D01*
X102083333Y-96602438D02*
X102178571Y-96554819D01*
X102178571Y-96554819D02*
X102369047Y-96554819D01*
X102369047Y-96554819D02*
X102464285Y-96602438D01*
X102464285Y-96602438D02*
X102511904Y-96650057D01*
X102511904Y-96650057D02*
X102559523Y-96745295D01*
X102559523Y-96745295D02*
X102559523Y-96792914D01*
X102559523Y-96792914D02*
X102511904Y-96888152D01*
X102511904Y-96888152D02*
X102464285Y-96935771D01*
X102464285Y-96935771D02*
X102369047Y-96983390D01*
X102369047Y-96983390D02*
X102178571Y-96983390D01*
X102178571Y-96983390D02*
X102083333Y-97031009D01*
X102083333Y-97031009D02*
X102035714Y-97078628D01*
X102035714Y-97078628D02*
X101988095Y-97173866D01*
X101988095Y-97173866D02*
X101988095Y-97364342D01*
X101988095Y-97364342D02*
X102035714Y-97459580D01*
X102035714Y-97459580D02*
X102083333Y-97507200D01*
X102083333Y-97507200D02*
X102178571Y-97554819D01*
X102178571Y-97554819D02*
X102369047Y-97554819D01*
X102369047Y-97554819D02*
X102464285Y-97507200D01*
X102464285Y-97507200D02*
X102511904Y-97459580D01*
X102511904Y-97459580D02*
X102559523Y-97364342D01*
X102559523Y-97364342D02*
X102559523Y-97173866D01*
X102559523Y-97173866D02*
X102511904Y-97078628D01*
X102511904Y-97078628D02*
X102464285Y-97031009D01*
X102464285Y-97031009D02*
X102369047Y-96983390D01*
X105758095Y-123917319D02*
X105758095Y-124726842D01*
X105758095Y-124726842D02*
X105805714Y-124822080D01*
X105805714Y-124822080D02*
X105853333Y-124869700D01*
X105853333Y-124869700D02*
X105948571Y-124917319D01*
X105948571Y-124917319D02*
X106139047Y-124917319D01*
X106139047Y-124917319D02*
X106234285Y-124869700D01*
X106234285Y-124869700D02*
X106281904Y-124822080D01*
X106281904Y-124822080D02*
X106329523Y-124726842D01*
X106329523Y-124726842D02*
X106329523Y-123917319D01*
X107234285Y-124250652D02*
X107234285Y-124917319D01*
X106996190Y-123869700D02*
X106758095Y-124583985D01*
X106758095Y-124583985D02*
X107377142Y-124583985D01*
X79609580Y-79142857D02*
X79657200Y-79190476D01*
X79657200Y-79190476D02*
X79704819Y-79333333D01*
X79704819Y-79333333D02*
X79704819Y-79428571D01*
X79704819Y-79428571D02*
X79657200Y-79571428D01*
X79657200Y-79571428D02*
X79561961Y-79666666D01*
X79561961Y-79666666D02*
X79466723Y-79714285D01*
X79466723Y-79714285D02*
X79276247Y-79761904D01*
X79276247Y-79761904D02*
X79133390Y-79761904D01*
X79133390Y-79761904D02*
X78942914Y-79714285D01*
X78942914Y-79714285D02*
X78847676Y-79666666D01*
X78847676Y-79666666D02*
X78752438Y-79571428D01*
X78752438Y-79571428D02*
X78704819Y-79428571D01*
X78704819Y-79428571D02*
X78704819Y-79333333D01*
X78704819Y-79333333D02*
X78752438Y-79190476D01*
X78752438Y-79190476D02*
X78800057Y-79142857D01*
X79704819Y-78190476D02*
X79704819Y-78761904D01*
X79704819Y-78476190D02*
X78704819Y-78476190D01*
X78704819Y-78476190D02*
X78847676Y-78571428D01*
X78847676Y-78571428D02*
X78942914Y-78666666D01*
X78942914Y-78666666D02*
X78990533Y-78761904D01*
X79704819Y-77238095D02*
X79704819Y-77809523D01*
X79704819Y-77523809D02*
X78704819Y-77523809D01*
X78704819Y-77523809D02*
X78847676Y-77619047D01*
X78847676Y-77619047D02*
X78942914Y-77714285D01*
X78942914Y-77714285D02*
X78990533Y-77809523D01*
X101359580Y-134241666D02*
X101407200Y-134289285D01*
X101407200Y-134289285D02*
X101454819Y-134432142D01*
X101454819Y-134432142D02*
X101454819Y-134527380D01*
X101454819Y-134527380D02*
X101407200Y-134670237D01*
X101407200Y-134670237D02*
X101311961Y-134765475D01*
X101311961Y-134765475D02*
X101216723Y-134813094D01*
X101216723Y-134813094D02*
X101026247Y-134860713D01*
X101026247Y-134860713D02*
X100883390Y-134860713D01*
X100883390Y-134860713D02*
X100692914Y-134813094D01*
X100692914Y-134813094D02*
X100597676Y-134765475D01*
X100597676Y-134765475D02*
X100502438Y-134670237D01*
X100502438Y-134670237D02*
X100454819Y-134527380D01*
X100454819Y-134527380D02*
X100454819Y-134432142D01*
X100454819Y-134432142D02*
X100502438Y-134289285D01*
X100502438Y-134289285D02*
X100550057Y-134241666D01*
X101454819Y-133289285D02*
X101454819Y-133860713D01*
X101454819Y-133574999D02*
X100454819Y-133574999D01*
X100454819Y-133574999D02*
X100597676Y-133670237D01*
X100597676Y-133670237D02*
X100692914Y-133765475D01*
X100692914Y-133765475D02*
X100740533Y-133860713D01*
X98583333Y-126454819D02*
X98250000Y-125978628D01*
X98011905Y-126454819D02*
X98011905Y-125454819D01*
X98011905Y-125454819D02*
X98392857Y-125454819D01*
X98392857Y-125454819D02*
X98488095Y-125502438D01*
X98488095Y-125502438D02*
X98535714Y-125550057D01*
X98535714Y-125550057D02*
X98583333Y-125645295D01*
X98583333Y-125645295D02*
X98583333Y-125788152D01*
X98583333Y-125788152D02*
X98535714Y-125883390D01*
X98535714Y-125883390D02*
X98488095Y-125931009D01*
X98488095Y-125931009D02*
X98392857Y-125978628D01*
X98392857Y-125978628D02*
X98011905Y-125978628D01*
X99535714Y-126454819D02*
X98964286Y-126454819D01*
X99250000Y-126454819D02*
X99250000Y-125454819D01*
X99250000Y-125454819D02*
X99154762Y-125597676D01*
X99154762Y-125597676D02*
X99059524Y-125692914D01*
X99059524Y-125692914D02*
X98964286Y-125740533D01*
D11*
%TO.C,J7*%
X107280000Y-82390000D02*
X107280000Y-76570000D01*
X109000000Y-82390000D02*
X109000000Y-76570000D01*
X112100000Y-82390000D02*
X112100000Y-76570000D01*
X113100000Y-82390000D02*
X113100000Y-76570000D01*
X114020000Y-82390000D02*
X107280000Y-82390000D01*
X114020000Y-81050000D02*
X114020000Y-82390000D01*
X107280000Y-76570000D02*
X114020000Y-76570000D01*
X114020000Y-76570000D02*
X114020000Y-80450000D01*
X114630000Y-81190000D02*
X114020000Y-80750000D01*
X114630000Y-80310000D01*
X114630000Y-81190000D01*
G36*
X114630000Y-81190000D02*
G01*
X114020000Y-80750000D01*
X114630000Y-80310000D01*
X114630000Y-81190000D01*
G37*
%TO.C,J6*%
X85255000Y-102765000D02*
X85255000Y-100890000D01*
X85314435Y-102765000D02*
X85255000Y-102765000D01*
X85589970Y-100890000D02*
X85255000Y-100890000D01*
X86745000Y-100890000D02*
X86410030Y-100890000D01*
X86745000Y-102765000D02*
X86685565Y-102765000D01*
X86745000Y-102765000D02*
X86745000Y-100890000D01*
X86745000Y-103500000D02*
X86745000Y-104235000D01*
X86745000Y-104235000D02*
X86000000Y-104235000D01*
%TO.C,U5*%
X73215000Y-76600000D02*
X73215000Y-82600000D01*
X78435000Y-76610000D02*
X78435000Y-82600000D01*
X78615000Y-76370000D02*
X78135000Y-76370000D01*
X78135000Y-75890000D01*
X78615000Y-76370000D01*
G36*
X78615000Y-76370000D02*
G01*
X78135000Y-76370000D01*
X78135000Y-75890000D01*
X78615000Y-76370000D01*
G37*
%TO.C,J13*%
X107247500Y-122915000D02*
X107247500Y-117095000D01*
X108967500Y-122915000D02*
X108967500Y-117095000D01*
X112067500Y-122915000D02*
X112067500Y-117095000D01*
X113067500Y-122915000D02*
X113067500Y-117095000D01*
X113987500Y-122915000D02*
X107247500Y-122915000D01*
X113987500Y-121575000D02*
X113987500Y-122915000D01*
X107247500Y-117095000D02*
X113987500Y-117095000D01*
X113987500Y-117095000D02*
X113987500Y-120975000D01*
X114597500Y-121715000D02*
X113987500Y-121275000D01*
X114597500Y-120835000D01*
X114597500Y-121715000D01*
G36*
X114597500Y-121715000D02*
G01*
X113987500Y-121275000D01*
X114597500Y-120835000D01*
X114597500Y-121715000D01*
G37*
%TO.C,J12*%
X107280000Y-116180000D02*
X107280000Y-110360000D01*
X109000000Y-116180000D02*
X109000000Y-110360000D01*
X112100000Y-116180000D02*
X112100000Y-110360000D01*
X113100000Y-116180000D02*
X113100000Y-110360000D01*
X114020000Y-116180000D02*
X107280000Y-116180000D01*
X114020000Y-114840000D02*
X114020000Y-116180000D01*
X107280000Y-110360000D02*
X114020000Y-110360000D01*
X114020000Y-110360000D02*
X114020000Y-114240000D01*
X114630000Y-114980000D02*
X114020000Y-114540000D01*
X114630000Y-114100000D01*
X114630000Y-114980000D01*
G36*
X114630000Y-114980000D02*
G01*
X114020000Y-114540000D01*
X114630000Y-114100000D01*
X114630000Y-114980000D01*
G37*
%TO.C,J11*%
X114630000Y-108190000D02*
X114020000Y-107750000D01*
X114630000Y-107310000D01*
X114630000Y-108190000D01*
G36*
X114630000Y-108190000D02*
G01*
X114020000Y-107750000D01*
X114630000Y-107310000D01*
X114630000Y-108190000D01*
G37*
X114020000Y-103570000D02*
X114020000Y-107450000D01*
X107280000Y-103570000D02*
X114020000Y-103570000D01*
X114020000Y-108050000D02*
X114020000Y-109390000D01*
X114020000Y-109390000D02*
X107280000Y-109390000D01*
X113100000Y-109390000D02*
X113100000Y-103570000D01*
X112100000Y-109390000D02*
X112100000Y-103570000D01*
X109000000Y-109390000D02*
X109000000Y-103570000D01*
X107280000Y-109390000D02*
X107280000Y-103570000D01*
%TO.C,J10*%
X114597500Y-101465000D02*
X113987500Y-101025000D01*
X114597500Y-100585000D01*
X114597500Y-101465000D01*
G36*
X114597500Y-101465000D02*
G01*
X113987500Y-101025000D01*
X114597500Y-100585000D01*
X114597500Y-101465000D01*
G37*
X113987500Y-96845000D02*
X113987500Y-100725000D01*
X107247500Y-96845000D02*
X113987500Y-96845000D01*
X113987500Y-101325000D02*
X113987500Y-102665000D01*
X113987500Y-102665000D02*
X107247500Y-102665000D01*
X113067500Y-102665000D02*
X113067500Y-96845000D01*
X112067500Y-102665000D02*
X112067500Y-96845000D01*
X108967500Y-102665000D02*
X108967500Y-96845000D01*
X107247500Y-102665000D02*
X107247500Y-96845000D01*
%TO.C,J9*%
X114630000Y-94730000D02*
X114020000Y-94290000D01*
X114630000Y-93850000D01*
X114630000Y-94730000D01*
G36*
X114630000Y-94730000D02*
G01*
X114020000Y-94290000D01*
X114630000Y-93850000D01*
X114630000Y-94730000D01*
G37*
X114020000Y-90110000D02*
X114020000Y-93990000D01*
X107280000Y-90110000D02*
X114020000Y-90110000D01*
X114020000Y-94590000D02*
X114020000Y-95930000D01*
X114020000Y-95930000D02*
X107280000Y-95930000D01*
X113100000Y-95930000D02*
X113100000Y-90110000D01*
X112100000Y-95930000D02*
X112100000Y-90110000D01*
X109000000Y-95930000D02*
X109000000Y-90110000D01*
X107280000Y-95930000D02*
X107280000Y-90110000D01*
%TO.C,J8*%
X107280000Y-89180000D02*
X107280000Y-83360000D01*
X109000000Y-89180000D02*
X109000000Y-83360000D01*
X112100000Y-89180000D02*
X112100000Y-83360000D01*
X113100000Y-89180000D02*
X113100000Y-83360000D01*
X114020000Y-89180000D02*
X107280000Y-89180000D01*
X114020000Y-87840000D02*
X114020000Y-89180000D01*
X107280000Y-83360000D02*
X114020000Y-83360000D01*
X114020000Y-83360000D02*
X114020000Y-87240000D01*
X114630000Y-87980000D02*
X114020000Y-87540000D01*
X114630000Y-87100000D01*
X114630000Y-87980000D01*
G36*
X114630000Y-87980000D02*
G01*
X114020000Y-87540000D01*
X114630000Y-87100000D01*
X114630000Y-87980000D01*
G37*
%TO.C,C6*%
X95500000Y-101810000D02*
X95000000Y-101810000D01*
X95250000Y-102060000D02*
X95250000Y-101560000D01*
X94760000Y-101445563D02*
X94760000Y-101310000D01*
X94760000Y-101445563D02*
X93695563Y-102510000D01*
X94760000Y-99054437D02*
X94760000Y-99190000D01*
X94760000Y-99054437D02*
X93695563Y-97990000D01*
X93695563Y-102510000D02*
X90240000Y-102510000D01*
X93695563Y-97990000D02*
X90240000Y-97990000D01*
X90240000Y-102510000D02*
X90240000Y-101310000D01*
X90240000Y-97990000D02*
X90240000Y-99190000D01*
%TO.C,C5*%
X78345563Y-105127500D02*
X77060000Y-105127500D01*
X78345563Y-105127500D02*
X79410000Y-106191937D01*
X73654437Y-105127500D02*
X74940000Y-105127500D01*
X73654437Y-105127500D02*
X72590000Y-106191937D01*
X79410000Y-106191937D02*
X79410000Y-111947500D01*
X72590000Y-106191937D02*
X72590000Y-111947500D01*
X79410000Y-111947500D02*
X77060000Y-111947500D01*
X72590000Y-111947500D02*
X74940000Y-111947500D01*
%TO.C,C4*%
X86300000Y-132797500D02*
X85050000Y-132797500D01*
X85675000Y-133422500D02*
X85675000Y-132172500D01*
X84810000Y-134333063D02*
X84810000Y-131547500D01*
X84810000Y-134333063D02*
X83745563Y-135397500D01*
X84810000Y-125741937D02*
X84810000Y-128527500D01*
X84810000Y-125741937D02*
X83745563Y-124677500D01*
X83745563Y-135397500D02*
X74090000Y-135397500D01*
X83745563Y-124677500D02*
X74090000Y-124677500D01*
X74090000Y-135397500D02*
X74090000Y-131547500D01*
X74090000Y-124677500D02*
X74090000Y-128527500D01*
%TO.C,C2*%
X94502500Y-134925000D02*
X94502500Y-134137500D01*
X94108750Y-134531250D02*
X94896250Y-134531250D01*
X94004437Y-133897500D02*
X95290000Y-133897500D01*
X94004437Y-133897500D02*
X92940000Y-132833063D01*
X98695563Y-133897500D02*
X97410000Y-133897500D01*
X98695563Y-133897500D02*
X99760000Y-132833063D01*
X92940000Y-132833063D02*
X92940000Y-127077500D01*
X99760000Y-132833063D02*
X99760000Y-127077500D01*
X92940000Y-127077500D02*
X95290000Y-127077500D01*
X99760000Y-127077500D02*
X97410000Y-127077500D01*
%TO.C,L1*%
X90300000Y-124237500D02*
G75*
G02*
X89600000Y-123537500I-1J699999D01*
G01*
X102400000Y-123537500D02*
G75*
G02*
X101700000Y-124237500I-699999J-1D01*
G01*
X89600000Y-112037500D02*
G75*
G02*
X90300000Y-111337500I700000J0D01*
G01*
X101700000Y-111337500D02*
G75*
G02*
X102400000Y-112037500I0J-700000D01*
G01*
X90250000Y-124237500D02*
X93200000Y-124237500D01*
X98800000Y-124237500D02*
X101700000Y-124237500D01*
X89600000Y-123537500D02*
X89600000Y-112037500D01*
X102400000Y-112037500D02*
X102400000Y-123537500D01*
X90300000Y-111337500D02*
X93200000Y-111337500D01*
X98800000Y-111337500D02*
X101700000Y-111337500D01*
%TO.C,J5*%
X71910000Y-84670000D02*
X71910000Y-94950000D01*
X71910000Y-84670000D02*
X80540000Y-84670000D01*
X71910000Y-84790000D02*
X80540000Y-84790000D01*
X71910000Y-84908095D02*
X80540000Y-84908095D01*
X71910000Y-85026190D02*
X80540000Y-85026190D01*
X71910000Y-85144285D02*
X80540000Y-85144285D01*
X71910000Y-85262380D02*
X80540000Y-85262380D01*
X71910000Y-85380475D02*
X80540000Y-85380475D01*
X71910000Y-85498570D02*
X80540000Y-85498570D01*
X71910000Y-85616665D02*
X80540000Y-85616665D01*
X71910000Y-85734760D02*
X80540000Y-85734760D01*
X71910000Y-85852855D02*
X80540000Y-85852855D01*
X71910000Y-85970950D02*
X80540000Y-85970950D01*
X71910000Y-86089045D02*
X80540000Y-86089045D01*
X71910000Y-86207140D02*
X80540000Y-86207140D01*
X71910000Y-86325235D02*
X80540000Y-86325235D01*
X71910000Y-86443330D02*
X80540000Y-86443330D01*
X71910000Y-86561425D02*
X80540000Y-86561425D01*
X71910000Y-86679520D02*
X80540000Y-86679520D01*
X71910000Y-86797615D02*
X80540000Y-86797615D01*
X71910000Y-86915710D02*
X80540000Y-86915710D01*
X71910000Y-87033805D02*
X80540000Y-87033805D01*
X71910000Y-87151900D02*
X80540000Y-87151900D01*
X71910000Y-87270000D02*
X80540000Y-87270000D01*
X71910000Y-89810000D02*
X80540000Y-89810000D01*
X71910000Y-92350000D02*
X80540000Y-92350000D01*
X71910000Y-94950000D02*
X80540000Y-94950000D01*
X80540000Y-84670000D02*
X80540000Y-94950000D01*
X80540000Y-85640000D02*
X80890000Y-85640000D01*
X80540000Y-86360000D02*
X80890000Y-86360000D01*
X80540000Y-88180000D02*
X80950000Y-88180000D01*
X80540000Y-88900000D02*
X80950000Y-88900000D01*
X80540000Y-90720000D02*
X80950000Y-90720000D01*
X80540000Y-91440000D02*
X80950000Y-91440000D01*
X80540000Y-93260000D02*
X80950000Y-93260000D01*
X80540000Y-93980000D02*
X80950000Y-93980000D01*
X82000000Y-84670000D02*
X83110000Y-84670000D01*
X83110000Y-84670000D02*
X83110000Y-86000000D01*
%TO.C,J4*%
X72762500Y-96835000D02*
X79502500Y-96835000D01*
X72762500Y-98175000D02*
X72762500Y-96835000D01*
X72762500Y-102655000D02*
X72762500Y-98775000D01*
X73682500Y-96835000D02*
X73682500Y-102655000D01*
X74682500Y-96835000D02*
X74682500Y-102655000D01*
X77782500Y-96835000D02*
X77782500Y-102655000D01*
X79502500Y-96835000D02*
X79502500Y-102655000D01*
X79502500Y-102655000D02*
X72762500Y-102655000D01*
X72762500Y-98475000D02*
X72152500Y-98915000D01*
X72152500Y-98035000D01*
X72762500Y-98475000D01*
G36*
X72762500Y-98475000D02*
G01*
X72152500Y-98915000D01*
X72152500Y-98035000D01*
X72762500Y-98475000D01*
G37*
%TO.C,U7*%
X86800000Y-69790000D02*
X86800000Y-75990000D01*
X86800000Y-69790000D02*
X105200000Y-69790000D01*
X86800000Y-94640000D02*
X86800000Y-95640000D01*
X86800000Y-95640000D02*
X88300000Y-95640000D01*
X105200000Y-69790000D02*
X105200000Y-75990000D01*
X105200000Y-95640000D02*
X103700000Y-95640000D01*
X105200000Y-95640000D02*
X105200000Y-94640000D01*
X86800000Y-76665000D02*
X86300000Y-76665000D01*
X86800000Y-76165000D01*
X86800000Y-76665000D01*
G36*
X86800000Y-76665000D02*
G01*
X86300000Y-76665000D01*
X86800000Y-76165000D01*
X86800000Y-76665000D01*
G37*
%TO.C,U6*%
X90500000Y-103090000D02*
X94260000Y-103090000D01*
X90500000Y-109910000D02*
X94260000Y-109910000D01*
X94260000Y-103090000D02*
X94260000Y-104350000D01*
X94260000Y-109910000D02*
X94260000Y-108650000D01*
X89220000Y-103190000D02*
X88980000Y-102860000D01*
X89460000Y-102860000D01*
X89220000Y-103190000D01*
G36*
X89220000Y-103190000D02*
G01*
X88980000Y-102860000D01*
X89460000Y-102860000D01*
X89220000Y-103190000D01*
G37*
%TO.C,J3*%
X114140000Y-135220000D02*
X108320000Y-135220000D01*
X114140000Y-133500000D02*
X108320000Y-133500000D01*
X114140000Y-130400000D02*
X108320000Y-130400000D01*
X114140000Y-129400000D02*
X108320000Y-129400000D01*
X114140000Y-128480000D02*
X114140000Y-135220000D01*
X112800000Y-128480000D02*
X114140000Y-128480000D01*
X108320000Y-135220000D02*
X108320000Y-128480000D01*
X108320000Y-128480000D02*
X112200000Y-128480000D01*
X112500000Y-128480000D02*
X112060000Y-127870000D01*
X112940000Y-127870000D01*
X112500000Y-128480000D01*
G36*
X112500000Y-128480000D02*
G01*
X112060000Y-127870000D01*
X112940000Y-127870000D01*
X112500000Y-128480000D01*
G37*
%TO.C,C10*%
X82265000Y-78723752D02*
X82265000Y-78201248D01*
X83735000Y-78723752D02*
X83735000Y-78201248D01*
%TO.C,R2*%
X84265000Y-79772936D02*
X84265000Y-80227064D01*
X85735000Y-79772936D02*
X85735000Y-80227064D01*
%TO.C,D1*%
X103100000Y-122760000D02*
X103100000Y-115750000D01*
X103100000Y-122760000D02*
X106400000Y-122760000D01*
X106400000Y-122760000D02*
X106400000Y-115750000D01*
%TO.C,C7*%
X81988748Y-98235000D02*
X82511252Y-98235000D01*
X81988748Y-96765000D02*
X82511252Y-96765000D01*
%TO.C,C8*%
X86485000Y-98761252D02*
X86485000Y-98238748D01*
X85015000Y-98761252D02*
X85015000Y-98238748D01*
%TO.C,U1*%
X87065000Y-123342500D02*
X86385000Y-123342500D01*
X86725000Y-122872500D01*
X87065000Y-123342500D01*
G36*
X87065000Y-123342500D02*
G01*
X86385000Y-123342500D01*
X86725000Y-122872500D01*
X87065000Y-123342500D01*
G37*
X83900000Y-123862500D02*
X83900000Y-122912500D01*
X83900000Y-113462500D02*
X83900000Y-114412500D01*
X82535000Y-123862500D02*
X83900000Y-123862500D01*
X82535000Y-113462500D02*
X83900000Y-113462500D01*
%TO.C,C3*%
X87201248Y-126235000D02*
X87723752Y-126235000D01*
X87201248Y-124765000D02*
X87723752Y-124765000D01*
%TO.C,U3*%
X84170000Y-101825000D02*
X84170000Y-102060000D01*
X84170000Y-99080000D02*
X84170000Y-99555000D01*
X83695000Y-102300000D02*
X83870000Y-102300000D01*
X83695000Y-99080000D02*
X84170000Y-99080000D01*
X81425000Y-102300000D02*
X80950000Y-102300000D01*
X81425000Y-99080000D02*
X80950000Y-99080000D01*
X80950000Y-102300000D02*
X80950000Y-101825000D01*
X80950000Y-99080000D02*
X80950000Y-99555000D01*
X84410000Y-102630000D02*
X83930000Y-102630000D01*
X84170000Y-102300000D01*
X84410000Y-102630000D01*
G36*
X84410000Y-102630000D02*
G01*
X83930000Y-102630000D01*
X84170000Y-102300000D01*
X84410000Y-102630000D01*
G37*
%TO.C,C9*%
X80485000Y-82548752D02*
X80485000Y-82026248D01*
X79015000Y-82548752D02*
X79015000Y-82026248D01*
%TO.C,J1*%
X88600000Y-135635000D02*
X87720000Y-135635000D01*
X88160000Y-135025000D01*
X88600000Y-135635000D01*
G36*
X88600000Y-135635000D02*
G01*
X87720000Y-135635000D01*
X88160000Y-135025000D01*
X88600000Y-135635000D01*
G37*
X92340000Y-135025000D02*
X88460000Y-135025000D01*
X92340000Y-128285000D02*
X92340000Y-135025000D01*
X87860000Y-135025000D02*
X86520000Y-135025000D01*
X86520000Y-135025000D02*
X86520000Y-128285000D01*
X86520000Y-134105000D02*
X92340000Y-134105000D01*
X86520000Y-133105000D02*
X92340000Y-133105000D01*
X86520000Y-130005000D02*
X92340000Y-130005000D01*
X86520000Y-128285000D02*
X92340000Y-128285000D01*
%TO.C,U8*%
X101750000Y-97940000D02*
X99800000Y-97940000D01*
X101750000Y-97940000D02*
X103700000Y-97940000D01*
X101750000Y-108060000D02*
X99800000Y-108060000D01*
X101750000Y-108060000D02*
X103700000Y-108060000D01*
X99050000Y-97995000D02*
X98810000Y-97665000D01*
X99290000Y-97665000D01*
X99050000Y-97995000D01*
G36*
X99050000Y-97995000D02*
G01*
X98810000Y-97665000D01*
X99290000Y-97665000D01*
X99050000Y-97995000D01*
G37*
D10*
%TO.C,U4*%
X102540000Y-127550000D02*
X102540000Y-131700000D01*
X107690000Y-127550000D02*
X107690000Y-131700000D01*
D11*
X107920000Y-127190000D02*
X107590000Y-126950000D01*
X107920000Y-126710000D01*
X107920000Y-127190000D01*
G36*
X107920000Y-127190000D02*
G01*
X107590000Y-126950000D01*
X107920000Y-126710000D01*
X107920000Y-127190000D01*
G37*
%TO.C,C11*%
X80265000Y-78723752D02*
X80265000Y-78201248D01*
X81735000Y-78723752D02*
X81735000Y-78201248D01*
%TO.C,C1*%
X100265000Y-131048752D02*
X100265000Y-130526248D01*
X101735000Y-131048752D02*
X101735000Y-130526248D01*
%TO.C,R1*%
X100265000Y-126560436D02*
X100265000Y-127014564D01*
X101735000Y-126560436D02*
X101735000Y-127014564D01*
%TD*%
M02*
