%TF.GenerationSoftware,KiCad,Pcbnew,9.0.3-9.0.3-0~ubuntu24.04.1*%
%TF.CreationDate,2026-04-16T08:19:37+03:00*%
%TF.ProjectId,sounddecoder-esp32-s3-wroom-1,736f756e-6464-4656-936f-6465722d6573,rev?*%
%TF.SameCoordinates,Original*%
%TF.FileFunction,Copper,L1,Top*%
%TF.FilePolarity,Positive*%
%FSLAX46Y46*%
G04 Gerber Fmt 4.6, Leading zero omitted, Abs format (unit mm)*
G04 Created by KiCad (PCBNEW 9.0.3-9.0.3-0~ubuntu24.04.1) date 2026-04-16 08:19:37*
%MOMM*%
%LPD*%
G01*
G04 APERTURE LIST*
G04 Aperture macros list*
%AMRoundRect*
0 Rectangle with rounded corners*
0 $1 Rounding radius*
0 $2 $3 $4 $5 $6 $7 $8 $9 X,Y pos of 4 corners*
0 Add a 4 corners polygon primitive as box body*
4,1,4,$2,$3,$4,$5,$6,$7,$8,$9,$2,$3,0*
0 Add four circle primitives for the rounded corners*
1,1,$1+$1,$2,$3*
1,1,$1+$1,$4,$5*
1,1,$1+$1,$6,$7*
1,1,$1+$1,$8,$9*
0 Add four rect primitives between the rounded corners*
20,1,$1+$1,$2,$3,$4,$5,0*
20,1,$1+$1,$4,$5,$6,$7,0*
20,1,$1+$1,$6,$7,$8,$9,0*
20,1,$1+$1,$8,$9,$2,$3,0*%
G04 Aperture macros list end*
%TA.AperFunction,SMDPad,CuDef*%
%ADD10R,5.000000X3.100000*%
%TD*%
%TA.AperFunction,ComponentPad*%
%ADD11R,1.700000X1.700000*%
%TD*%
%TA.AperFunction,ComponentPad*%
%ADD12C,1.700000*%
%TD*%
%TA.AperFunction,ComponentPad*%
%ADD13RoundRect,0.250000X0.750000X-0.750000X0.750000X0.750000X-0.750000X0.750000X-0.750000X-0.750000X0*%
%TD*%
%TA.AperFunction,ComponentPad*%
%ADD14C,2.000000*%
%TD*%
%TA.AperFunction,ComponentPad*%
%ADD15RoundRect,0.250000X-0.750000X0.750000X-0.750000X-0.750000X0.750000X-0.750000X0.750000X0.750000X0*%
%TD*%
%TA.AperFunction,SMDPad,CuDef*%
%ADD16R,1.500000X0.900000*%
%TD*%
%TA.AperFunction,SMDPad,CuDef*%
%ADD17R,0.900000X1.500000*%
%TD*%
%TA.AperFunction,HeatsinkPad*%
%ADD18C,0.600000*%
%TD*%
%TA.AperFunction,HeatsinkPad*%
%ADD19R,3.900000X3.900000*%
%TD*%
%TA.AperFunction,SMDPad,CuDef*%
%ADD20RoundRect,0.375000X-0.625000X-0.375000X0.625000X-0.375000X0.625000X0.375000X-0.625000X0.375000X0*%
%TD*%
%TA.AperFunction,SMDPad,CuDef*%
%ADD21RoundRect,0.500000X-0.500000X-1.400000X0.500000X-1.400000X0.500000X1.400000X-0.500000X1.400000X0*%
%TD*%
%TA.AperFunction,ComponentPad*%
%ADD22RoundRect,0.250000X0.750000X0.750000X-0.750000X0.750000X-0.750000X-0.750000X0.750000X-0.750000X0*%
%TD*%
%TA.AperFunction,SMDPad,CuDef*%
%ADD23RoundRect,0.250000X0.475000X-0.337500X0.475000X0.337500X-0.475000X0.337500X-0.475000X-0.337500X0*%
%TD*%
%TA.AperFunction,SMDPad,CuDef*%
%ADD24RoundRect,0.250000X0.550000X-1.500000X0.550000X1.500000X-0.550000X1.500000X-0.550000X-1.500000X0*%
%TD*%
%TA.AperFunction,SMDPad,CuDef*%
%ADD25RoundRect,0.250000X-0.450000X0.350000X-0.450000X-0.350000X0.450000X-0.350000X0.450000X0.350000X0*%
%TD*%
%TA.AperFunction,SMDPad,CuDef*%
%ADD26RoundRect,0.250000X1.050000X0.550000X-1.050000X0.550000X-1.050000X-0.550000X1.050000X-0.550000X0*%
%TD*%
%TA.AperFunction,SMDPad,CuDef*%
%ADD27RoundRect,0.250000X1.400000X1.000000X-1.400000X1.000000X-1.400000X-1.000000X1.400000X-1.000000X0*%
%TD*%
%TA.AperFunction,SMDPad,CuDef*%
%ADD28RoundRect,0.250000X-0.337500X-0.475000X0.337500X-0.475000X0.337500X0.475000X-0.337500X0.475000X0*%
%TD*%
%TA.AperFunction,ComponentPad*%
%ADD29R,0.850000X0.850000*%
%TD*%
%TA.AperFunction,ComponentPad*%
%ADD30C,0.850000*%
%TD*%
%TA.AperFunction,SMDPad,CuDef*%
%ADD31RoundRect,0.250000X-0.550000X1.412500X-0.550000X-1.412500X0.550000X-1.412500X0.550000X1.412500X0*%
%TD*%
%TA.AperFunction,SMDPad,CuDef*%
%ADD32RoundRect,0.250000X2.050000X0.300000X-2.050000X0.300000X-2.050000X-0.300000X2.050000X-0.300000X0*%
%TD*%
%TA.AperFunction,SMDPad,CuDef*%
%ADD33RoundRect,0.250002X4.449998X5.149998X-4.449998X5.149998X-4.449998X-5.149998X4.449998X-5.149998X0*%
%TD*%
%TA.AperFunction,SMDPad,CuDef*%
%ADD34RoundRect,0.062500X0.350000X0.062500X-0.350000X0.062500X-0.350000X-0.062500X0.350000X-0.062500X0*%
%TD*%
%TA.AperFunction,SMDPad,CuDef*%
%ADD35RoundRect,0.062500X0.062500X0.350000X-0.062500X0.350000X-0.062500X-0.350000X0.062500X-0.350000X0*%
%TD*%
%TA.AperFunction,HeatsinkPad*%
%ADD36R,1.230000X1.230000*%
%TD*%
%TA.AperFunction,SMDPad,CuDef*%
%ADD37RoundRect,0.125000X-0.125000X0.200000X-0.125000X-0.200000X0.125000X-0.200000X0.125000X0.200000X0*%
%TD*%
%TA.AperFunction,HeatsinkPad*%
%ADD38R,4.300000X3.400000*%
%TD*%
%TA.AperFunction,ComponentPad*%
%ADD39RoundRect,0.250000X-0.750000X-0.750000X0.750000X-0.750000X0.750000X0.750000X-0.750000X0.750000X0*%
%TD*%
%TA.AperFunction,SMDPad,CuDef*%
%ADD40RoundRect,0.150000X-0.725000X-0.150000X0.725000X-0.150000X0.725000X0.150000X-0.725000X0.150000X0*%
%TD*%
%TA.AperFunction,SMDPad,CuDef*%
%ADD41RoundRect,0.250000X1.950000X1.000000X-1.950000X1.000000X-1.950000X-1.000000X1.950000X-1.000000X0*%
%TD*%
%TA.AperFunction,SMDPad,CuDef*%
%ADD42R,0.500000X2.200000*%
%TD*%
%TA.AperFunction,ComponentPad*%
%ADD43C,0.630000*%
%TD*%
%TA.AperFunction,SMDPad,CuDef*%
%ADD44R,4.900000X2.950000*%
%TD*%
%TA.AperFunction,ViaPad*%
%ADD45C,0.600000*%
%TD*%
%TA.AperFunction,ViaPad*%
%ADD46C,0.800000*%
%TD*%
%TA.AperFunction,Conductor*%
%ADD47C,1.000000*%
%TD*%
%TA.AperFunction,Conductor*%
%ADD48C,0.800000*%
%TD*%
%TA.AperFunction,Conductor*%
%ADD49C,0.203200*%
%TD*%
%TA.AperFunction,Conductor*%
%ADD50C,0.600000*%
%TD*%
%TA.AperFunction,Conductor*%
%ADD51C,0.400000*%
%TD*%
G04 APERTURE END LIST*
D10*
%TO.P,L1,1,1*%
%TO.N,/Out5V*%
X96000000Y-123337500D03*
%TO.P,L1,2,2*%
%TO.N,+5V*%
X96000000Y-112237500D03*
%TD*%
D11*
%TO.P,J5,1,Pin_1*%
%TO.N,+3.3V*%
X82000000Y-86960000D03*
D12*
%TO.P,J5,2,Pin_2*%
%TO.N,/UART-TX*%
X82000000Y-89500000D03*
%TO.P,J5,3,Pin_3*%
%TO.N,/UART-RX*%
X82000000Y-92040000D03*
%TO.P,J5,4,Pin_4*%
%TO.N,GND*%
X82000000Y-94580000D03*
%TD*%
D13*
%TO.P,J10,1,Pin_1*%
%TO.N,+5V*%
X113000000Y-101025000D03*
D14*
%TO.P,J10,2,Pin_2*%
%TO.N,Net-(J10-Pin_2)*%
X113000000Y-98485000D03*
%TD*%
D15*
%TO.P,J4,1,Pin_1*%
%TO.N,/Sound1*%
X76282500Y-98475000D03*
D14*
%TO.P,J4,2,Pin_2*%
%TO.N,/Sound2*%
X76282500Y-101015000D03*
%TD*%
D16*
%TO.P,U7,1,GND*%
%TO.N,GND*%
X87250000Y-77430000D03*
%TO.P,U7,2,3V3*%
%TO.N,+3.3V*%
X87250000Y-78700000D03*
%TO.P,U7,3,EN*%
%TO.N,Net-(U7-EN)*%
X87250000Y-79970000D03*
%TO.P,U7,4,IO4*%
%TO.N,Net-(U4-IN2)*%
X87250000Y-81240000D03*
%TO.P,U7,5,IO5*%
%TO.N,unconnected-(U7-IO5-Pad5)*%
X87250000Y-82510000D03*
%TO.P,U7,6,IO6*%
%TO.N,unconnected-(U7-IO6-Pad6)*%
X87250000Y-83780000D03*
%TO.P,U7,7,IO7*%
%TO.N,/MEM_CE*%
X87250000Y-85050000D03*
%TO.P,U7,8,IO15*%
%TO.N,/MEM_IO1*%
X87250000Y-86320000D03*
%TO.P,U7,9,IO16*%
%TO.N,/MEM_IO2*%
X87250000Y-87590000D03*
%TO.P,U7,10,IO17*%
%TO.N,/MEM_IO3*%
X87250000Y-88860000D03*
%TO.P,U7,11,IO18*%
%TO.N,/MEM_SCK*%
X87250000Y-90130000D03*
%TO.P,U7,12,IO8*%
%TO.N,/MEM_IO0*%
X87250000Y-91400000D03*
%TO.P,U7,13,USB_D-*%
%TO.N,unconnected-(U7-USB_D--Pad13)*%
X87250000Y-92670000D03*
%TO.P,U7,14,USB_D+*%
%TO.N,unconnected-(U7-USB_D+-Pad14)*%
X87250000Y-93940000D03*
D17*
%TO.P,U7,15,IO3*%
%TO.N,unconnected-(U7-IO3-Pad15)*%
X89015000Y-95190000D03*
%TO.P,U7,16,IO46*%
%TO.N,unconnected-(U7-IO46-Pad16)*%
X90285000Y-95190000D03*
%TO.P,U7,17,IO9*%
%TO.N,unconnected-(U7-IO9-Pad17)*%
X91555000Y-95190000D03*
%TO.P,U7,18,IO10*%
%TO.N,unconnected-(U7-IO10-Pad18)*%
X92825000Y-95190000D03*
%TO.P,U7,19,IO11*%
%TO.N,Net-(U3-DIN)*%
X94095000Y-95190000D03*
%TO.P,U7,20,IO12*%
%TO.N,Net-(U3-BCLK)*%
X95365000Y-95190000D03*
%TO.P,U7,21,IO13*%
%TO.N,Net-(U3-LRCLK)*%
X96635000Y-95190000D03*
%TO.P,U7,22,IO14*%
%TO.N,unconnected-(U7-IO14-Pad22)*%
X97905000Y-95190000D03*
%TO.P,U7,23,IO21*%
%TO.N,unconnected-(U7-IO21-Pad23)*%
X99175000Y-95190000D03*
%TO.P,U7,24,IO47*%
%TO.N,Net-(U7-IO47)*%
X100445000Y-95190000D03*
%TO.P,U7,25,IO48*%
%TO.N,Net-(U7-IO48)*%
X101715000Y-95190000D03*
%TO.P,U7,26,IO45*%
%TO.N,unconnected-(U7-IO45-Pad26)*%
X102985000Y-95190000D03*
D16*
%TO.P,U7,27,IO0*%
%TO.N,Net-(J2-Pin_2)*%
X104750000Y-93940000D03*
%TO.P,U7,28,IO35*%
%TO.N,unconnected-(U7-IO35-Pad28)*%
X104750000Y-92670000D03*
%TO.P,U7,29,IO36*%
%TO.N,unconnected-(U7-IO36-Pad29)*%
X104750000Y-91400000D03*
%TO.P,U7,30,IO37*%
%TO.N,unconnected-(U7-IO37-Pad30)*%
X104750000Y-90130000D03*
%TO.P,U7,31,IO38*%
%TO.N,Net-(U7-IO38)*%
X104750000Y-88860000D03*
%TO.P,U7,32,IO39*%
%TO.N,Net-(U7-IO39)*%
X104750000Y-87590000D03*
%TO.P,U7,33,IO40*%
%TO.N,Net-(U7-IO40)*%
X104750000Y-86320000D03*
%TO.P,U7,34,IO41*%
%TO.N,Net-(U7-IO41)*%
X104750000Y-85050000D03*
%TO.P,U7,35,IO42*%
%TO.N,Net-(U7-IO42)*%
X104750000Y-83780000D03*
%TO.P,U7,36,RXD0*%
%TO.N,/UART-RX*%
X104750000Y-82510000D03*
%TO.P,U7,37,TXD0*%
%TO.N,/UART-TX*%
X104750000Y-81240000D03*
%TO.P,U7,38,IO2*%
%TO.N,Net-(U4-IN1)*%
X104750000Y-79970000D03*
%TO.P,U7,39,IO1*%
%TO.N,unconnected-(U7-IO1-Pad39)*%
X104750000Y-78700000D03*
%TO.P,U7,40,GND*%
%TO.N,GND*%
X104750000Y-77430000D03*
D18*
%TO.P,U7,41,GND*%
X93100000Y-84450000D03*
X93100000Y-85850000D03*
X93800000Y-83750000D03*
X93800000Y-85150000D03*
X93800000Y-86550000D03*
X94500000Y-84450000D03*
D19*
X94500000Y-85150000D03*
D18*
X94500000Y-85850000D03*
X95200000Y-83750000D03*
X95200000Y-85150000D03*
X95200000Y-86550000D03*
X95900000Y-84450000D03*
X95900000Y-85850000D03*
%TD*%
D13*
%TO.P,J11,1,Pin_1*%
%TO.N,+5V*%
X113000000Y-107750000D03*
D14*
%TO.P,J11,2,Pin_2*%
%TO.N,Net-(J11-Pin_2)*%
X113000000Y-105210000D03*
%TD*%
D20*
%TO.P,U6,1,GND*%
%TO.N,GND*%
X89200000Y-104200000D03*
%TO.P,U6,2,VO*%
%TO.N,+3.3V*%
X89200000Y-106500000D03*
D21*
X95500000Y-106500000D03*
D20*
%TO.P,U6,3,VI*%
%TO.N,+5V*%
X89200000Y-108800000D03*
%TD*%
D22*
%TO.P,J3,1,Pin_1*%
%TO.N,/MOTOR1*%
X112500000Y-132000000D03*
D14*
%TO.P,J3,2,Pin_2*%
%TO.N,/MOTOR2*%
X109960000Y-132000000D03*
%TD*%
D13*
%TO.P,J8,1,Pin_1*%
%TO.N,+5V*%
X112967500Y-87540000D03*
D14*
%TO.P,J8,2,Pin_2*%
%TO.N,/FwdLED*%
X112967500Y-85000000D03*
%TD*%
D23*
%TO.P,C10,1*%
%TO.N,+3.3V*%
X83000000Y-79500000D03*
%TO.P,C10,2*%
%TO.N,GND*%
X83000000Y-77425000D03*
%TD*%
D24*
%TO.P,C2,1*%
%TO.N,VCC*%
X96350000Y-133287500D03*
%TO.P,C2,2*%
%TO.N,GND*%
X96350000Y-127687500D03*
%TD*%
D25*
%TO.P,R1,1*%
%TO.N,Net-(U4-ILIM)*%
X101000000Y-125787500D03*
%TO.P,R1,2*%
%TO.N,GND*%
X101000000Y-127787500D03*
%TD*%
D26*
%TO.P,C6,1*%
%TO.N,+3.3V*%
X94300000Y-100250000D03*
%TO.P,C6,2*%
%TO.N,GND*%
X90700000Y-100250000D03*
%TD*%
D25*
%TO.P,R2,1*%
%TO.N,+3.3V*%
X85000000Y-79000000D03*
%TO.P,R2,2*%
%TO.N,Net-(U7-EN)*%
X85000000Y-81000000D03*
%TD*%
D27*
%TO.P,D1,1,K*%
%TO.N,/Out5V*%
X106000000Y-121650000D03*
%TO.P,D1,2,A*%
%TO.N,GND*%
X106000000Y-114850000D03*
%TD*%
D28*
%TO.P,C7,1*%
%TO.N,+3.3V*%
X81212500Y-97500000D03*
%TO.P,C7,2*%
%TO.N,GND*%
X83287500Y-97500000D03*
%TD*%
D29*
%TO.P,J6,1,Pin_1*%
%TO.N,GND*%
X86000000Y-103500000D03*
D30*
%TO.P,J6,2,Pin_2*%
%TO.N,/SND_GAIN*%
X86000000Y-102500000D03*
%TO.P,J6,3,Pin_3*%
%TO.N,+3.3V*%
X86000000Y-101500000D03*
%TD*%
D23*
%TO.P,C8,1*%
%TO.N,+3.3V*%
X85750000Y-99537500D03*
%TO.P,C8,2*%
%TO.N,GND*%
X85750000Y-97462500D03*
%TD*%
D13*
%TO.P,J13,1,Pin_1*%
%TO.N,+5V*%
X113000000Y-121275000D03*
D14*
%TO.P,J13,2,Pin_2*%
%TO.N,Net-(J13-Pin_2)*%
X113000000Y-118735000D03*
%TD*%
D31*
%TO.P,C5,1*%
%TO.N,+5V*%
X76000000Y-106000000D03*
%TO.P,C5,2*%
%TO.N,GND*%
X76000000Y-111075000D03*
%TD*%
D32*
%TO.P,U1,1,VIN*%
%TO.N,VCC*%
X86725000Y-122062500D03*
%TO.P,U1,2,OUT*%
%TO.N,/Out5V*%
X86725000Y-120362500D03*
%TO.P,U1,3,GND*%
%TO.N,GND*%
X86725000Y-118662500D03*
D33*
X77575000Y-118662500D03*
D32*
%TO.P,U1,4,FB*%
%TO.N,+5V*%
X86725000Y-116962500D03*
%TO.P,U1,5,~{ON}/OFF*%
%TO.N,GND*%
X86725000Y-115262500D03*
%TD*%
D28*
%TO.P,C3,1*%
%TO.N,VCC*%
X86425000Y-125500000D03*
%TO.P,C3,2*%
%TO.N,GND*%
X88500000Y-125500000D03*
%TD*%
D34*
%TO.P,U3,1,DIN*%
%TO.N,Net-(U3-DIN)*%
X83997500Y-101440000D03*
%TO.P,U3,2,GAIN_SLOT*%
%TO.N,/SND_GAIN*%
X83997500Y-100940000D03*
%TO.P,U3,3,GND*%
%TO.N,GND*%
X83997500Y-100440000D03*
%TO.P,U3,4,~{SD_MODE}*%
%TO.N,+3.3V*%
X83997500Y-99940000D03*
D35*
%TO.P,U3,5,NC*%
%TO.N,unconnected-(U3-NC-Pad5)*%
X83310000Y-99252500D03*
%TO.P,U3,6,NC*%
%TO.N,unconnected-(U3-NC-Pad6)*%
X82810000Y-99252500D03*
%TO.P,U3,7,VDD*%
%TO.N,+3.3V*%
X82310000Y-99252500D03*
%TO.P,U3,8,VDD*%
X81810000Y-99252500D03*
D34*
%TO.P,U3,9,OUTP*%
%TO.N,/Sound1*%
X81122500Y-99940000D03*
%TO.P,U3,10,OUTN*%
%TO.N,/Sound2*%
X81122500Y-100440000D03*
%TO.P,U3,11,GND*%
%TO.N,GND*%
X81122500Y-100940000D03*
%TO.P,U3,12,NC*%
%TO.N,unconnected-(U3-NC-Pad12)*%
X81122500Y-101440000D03*
D35*
%TO.P,U3,13,NC*%
%TO.N,unconnected-(U3-NC-Pad13)*%
X81810000Y-102127500D03*
%TO.P,U3,14,LRCLK*%
%TO.N,Net-(U3-LRCLK)*%
X82310000Y-102127500D03*
%TO.P,U3,15,GND*%
%TO.N,GND*%
X82810000Y-102127500D03*
%TO.P,U3,16,BCLK*%
%TO.N,Net-(U3-BCLK)*%
X83310000Y-102127500D03*
D36*
%TO.P,U3,17,PAD*%
%TO.N,GND*%
X82560000Y-100690000D03*
%TD*%
D23*
%TO.P,C12,1*%
%TO.N,GND*%
X85000000Y-84787500D03*
%TO.P,C12,2*%
%TO.N,Net-(U7-EN)*%
X85000000Y-82712500D03*
%TD*%
D37*
%TO.P,U5,1,~{CS}*%
%TO.N,/MEM_CE*%
X77730000Y-77000000D03*
%TO.P,U5,2,DO/IO_{1}*%
%TO.N,/MEM_IO1*%
X76460000Y-77000000D03*
%TO.P,U5,3,~{WP}/IO_{2}*%
%TO.N,/MEM_IO2*%
X75190000Y-77000000D03*
%TO.P,U5,4,GND*%
%TO.N,GND*%
X73920000Y-77000000D03*
%TO.P,U5,5,DI/IO_{0}*%
%TO.N,/MEM_IO0*%
X73920000Y-84500000D03*
%TO.P,U5,6,CLK*%
%TO.N,/MEM_SCK*%
X75190000Y-84500000D03*
%TO.P,U5,7,~{HOLD}/~{RESET}/IO_{3}*%
%TO.N,/MEM_IO3*%
X76460000Y-84500000D03*
%TO.P,U5,8,VCC*%
%TO.N,+3.3V*%
X77730000Y-84500000D03*
D38*
%TO.P,U5,9,EP*%
%TO.N,GND*%
X75825000Y-80750000D03*
%TD*%
D23*
%TO.P,C9,1*%
%TO.N,+3.3V*%
X80250000Y-83325000D03*
%TO.P,C9,2*%
%TO.N,GND*%
X80250000Y-81250000D03*
%TD*%
D39*
%TO.P,J1,1,Pin_1*%
%TO.N,VCC*%
X88160000Y-131505000D03*
D14*
%TO.P,J1,2,Pin_2*%
%TO.N,GND*%
X90700000Y-131505000D03*
%TD*%
D40*
%TO.P,U8,1,I1*%
%TO.N,Net-(U7-IO47)*%
X99175000Y-98555000D03*
%TO.P,U8,2,I2*%
%TO.N,Net-(U7-IO48)*%
X99175000Y-99825000D03*
%TO.P,U8,3,I3*%
%TO.N,Net-(U7-IO42)*%
X99175000Y-101095000D03*
%TO.P,U8,4,I4*%
%TO.N,Net-(U7-IO41)*%
X99175000Y-102365000D03*
%TO.P,U8,5,I5*%
%TO.N,Net-(U7-IO40)*%
X99175000Y-103635000D03*
%TO.P,U8,6,I6*%
%TO.N,Net-(U7-IO39)*%
X99175000Y-104905000D03*
%TO.P,U8,7,I7*%
%TO.N,Net-(U7-IO38)*%
X99175000Y-106175000D03*
%TO.P,U8,8,GND*%
%TO.N,GND*%
X99175000Y-107445000D03*
%TO.P,U8,9,COM*%
%TO.N,+5V*%
X104325000Y-107445000D03*
%TO.P,U8,10,O7*%
%TO.N,Net-(J13-Pin_2)*%
X104325000Y-106175000D03*
%TO.P,U8,11,O6*%
%TO.N,Net-(J12-Pin_2)*%
X104325000Y-104905000D03*
%TO.P,U8,12,O5*%
%TO.N,Net-(J11-Pin_2)*%
X104325000Y-103635000D03*
%TO.P,U8,13,O4*%
%TO.N,Net-(J10-Pin_2)*%
X104325000Y-102365000D03*
%TO.P,U8,14,O3*%
%TO.N,/BackLED*%
X104325000Y-101095000D03*
%TO.P,U8,15,O2*%
%TO.N,/FwdLED*%
X104325000Y-99825000D03*
%TO.P,U8,16,O1*%
%TO.N,/Smoke*%
X104325000Y-98555000D03*
%TD*%
D13*
%TO.P,J9,1,Pin_1*%
%TO.N,+5V*%
X113000000Y-94290000D03*
D14*
%TO.P,J9,2,Pin_2*%
%TO.N,/BackLED*%
X113000000Y-91750000D03*
%TD*%
D41*
%TO.P,C4,1*%
%TO.N,VCC*%
X83650000Y-130037500D03*
%TO.P,C4,2*%
%TO.N,GND*%
X75250000Y-130037500D03*
%TD*%
D42*
%TO.P,U4,1,GND*%
%TO.N,GND*%
X107020000Y-126750000D03*
%TO.P,U4,2,IN2*%
%TO.N,Net-(U4-IN2)*%
X105750000Y-126750000D03*
%TO.P,U4,3,IN1*%
%TO.N,Net-(U4-IN1)*%
X104480000Y-126750000D03*
%TO.P,U4,4,ILIM*%
%TO.N,Net-(U4-ILIM)*%
X103210000Y-126750000D03*
%TO.P,U4,5,VM*%
%TO.N,VCC*%
X103210000Y-132500000D03*
%TO.P,U4,6,OUT1*%
%TO.N,/MOTOR1*%
X104480000Y-132500000D03*
%TO.P,U4,7,GND*%
%TO.N,GND*%
X105750000Y-132500000D03*
%TO.P,U4,8,OUT2*%
%TO.N,/MOTOR2*%
X107020000Y-132500000D03*
D43*
%TO.P,U4,9,GND*%
%TO.N,GND*%
X106415000Y-128975000D03*
X105115000Y-128975000D03*
X103815000Y-128975000D03*
D44*
X105115000Y-129625000D03*
D43*
X106415000Y-130275000D03*
X105115000Y-130275000D03*
X103815000Y-130275000D03*
%TD*%
D29*
%TO.P,J2,1,Pin_1*%
%TO.N,+3.3V*%
X84250000Y-110250000D03*
D30*
%TO.P,J2,2,Pin_2*%
%TO.N,Net-(J2-Pin_2)*%
X85250000Y-110250000D03*
%TO.P,J2,3,Pin_3*%
%TO.N,GND*%
X86250000Y-110250000D03*
%TD*%
D23*
%TO.P,C11,1*%
%TO.N,+3.3V*%
X81000000Y-79500000D03*
%TO.P,C11,2*%
%TO.N,GND*%
X81000000Y-77425000D03*
%TD*%
%TO.P,C1,1*%
%TO.N,VCC*%
X101000000Y-131825000D03*
%TO.P,C1,2*%
%TO.N,GND*%
X101000000Y-129750000D03*
%TD*%
D13*
%TO.P,J7,1,Pin_1*%
%TO.N,+5V*%
X113000000Y-80750000D03*
D14*
%TO.P,J7,2,Pin_2*%
%TO.N,/Smoke*%
X113000000Y-78210000D03*
%TD*%
D13*
%TO.P,J12,1,Pin_1*%
%TO.N,+5V*%
X113000000Y-114540000D03*
D14*
%TO.P,J12,2,Pin_2*%
%TO.N,Net-(J12-Pin_2)*%
X113000000Y-112000000D03*
%TD*%
D45*
%TO.N,GND*%
X78975000Y-117850000D03*
X78975000Y-123012500D03*
D46*
X99000000Y-127750000D03*
D45*
X73975000Y-116100000D03*
X76475000Y-121500000D03*
X81475000Y-121500000D03*
X81475000Y-123012500D03*
X78975000Y-121500000D03*
X76475000Y-123012500D03*
X81475000Y-116100000D03*
X76475000Y-114250000D03*
X73975000Y-117850000D03*
X76475000Y-119750000D03*
X76475000Y-117850000D03*
X78975000Y-114250000D03*
X81475000Y-119750000D03*
X78975000Y-119750000D03*
X75825000Y-80750000D03*
X73975000Y-114250000D03*
D46*
X99250000Y-108500000D03*
D45*
X74500000Y-80500000D03*
X73975000Y-121500000D03*
X81475000Y-117850000D03*
X73975000Y-119750000D03*
X76475000Y-116100000D03*
X73975000Y-123012500D03*
X81475000Y-114250000D03*
X82560000Y-100690000D03*
X78975000Y-116100000D03*
D46*
%TO.N,VCC*%
X97750000Y-131750000D03*
X102000000Y-134500000D03*
X82500000Y-132250000D03*
X82500000Y-127000000D03*
%TO.N,+5V*%
X96000000Y-116000000D03*
X99250000Y-116000000D03*
D45*
X102750000Y-107500000D03*
D46*
X92500000Y-116000000D03*
X74250000Y-104250000D03*
%TO.N,+3.3V*%
X97200000Y-107800000D03*
X80000000Y-97500000D03*
X88500000Y-78750000D03*
X97200000Y-106550000D03*
X97200000Y-105300000D03*
X96250000Y-100500000D03*
D45*
X86000000Y-78750000D03*
%TO.N,Net-(U3-DIN)*%
X93500000Y-96500000D03*
X84250000Y-102500000D03*
%TO.N,Net-(U3-BCLK)*%
X83500000Y-103750000D03*
X94750000Y-96500000D03*
%TO.N,Net-(U3-LRCLK)*%
X96000000Y-96500000D03*
X82500000Y-103750000D03*
%TO.N,Net-(U4-IN1)*%
X104000000Y-125250000D03*
X102750000Y-80000000D03*
%TO.N,Net-(U4-IN2)*%
X101000000Y-124500000D03*
X96250000Y-90000000D03*
%TO.N,Net-(U7-IO38)*%
X101005800Y-88750000D03*
X102750000Y-104750000D03*
%TO.N,Net-(U7-IO40)*%
X100005800Y-86250000D03*
X101500000Y-103000000D03*
%TO.N,Net-(U7-IO42)*%
X100500000Y-101000000D03*
X99000000Y-84250000D03*
%TO.N,Net-(U7-IO39)*%
X102000000Y-104000000D03*
X100601600Y-87500000D03*
%TO.N,Net-(U7-IO41)*%
X101250000Y-101500000D03*
X99601600Y-85000000D03*
%TO.N,Net-(J2-Pin_2)*%
X97000000Y-93989998D03*
%TO.N,/MEM_IO2*%
X85750000Y-87250000D03*
X75750000Y-77449998D03*
%TO.N,/MEM_IO1*%
X86015955Y-85984045D03*
X77006507Y-76990180D03*
%TO.N,/MEM_IO0*%
X74000000Y-85500000D03*
X86000000Y-91250000D03*
%TO.N,/UART-TX*%
X97750000Y-82750000D03*
%TO.N,/UART-RX*%
X98351600Y-83750000D03*
%TO.N,/MEM_CE*%
X79500000Y-77000000D03*
X88500000Y-84000000D03*
%TO.N,/MEM_SCK*%
X75750000Y-85500000D03*
X85750000Y-89750000D03*
%TO.N,/MEM_IO3*%
X76750000Y-83750000D03*
X85675041Y-88074959D03*
%TD*%
D47*
%TO.N,GND*%
X86725000Y-118662500D02*
X101837500Y-118662500D01*
D48*
X76475000Y-80250000D02*
X75825000Y-79600000D01*
D49*
X82810000Y-100440000D02*
X82560000Y-100690000D01*
X83997500Y-100440000D02*
X82810000Y-100440000D01*
D50*
X73920000Y-77695000D02*
X75825000Y-79600000D01*
D47*
X80975000Y-115262500D02*
X77575000Y-118662500D01*
X86725000Y-118662500D02*
X77575000Y-118662500D01*
D50*
X73920000Y-76900000D02*
X73920000Y-77695000D01*
D47*
X76000000Y-117087500D02*
X77575000Y-118662500D01*
D49*
X82310000Y-100940000D02*
X82560000Y-100690000D01*
X74066714Y-81945800D02*
X74274200Y-82153286D01*
D47*
X86725000Y-115262500D02*
X80975000Y-115262500D01*
D49*
X82810000Y-102127500D02*
X82810000Y-100940000D01*
X82810000Y-100940000D02*
X82560000Y-100690000D01*
D47*
X101837500Y-118662500D02*
X104750000Y-115750000D01*
D49*
X73773286Y-81945800D02*
X74066714Y-81945800D01*
X81122500Y-100940000D02*
X82310000Y-100940000D01*
D51*
%TO.N,+5V*%
X104270000Y-107500000D02*
X104325000Y-107445000D01*
X102750000Y-107500000D02*
X104270000Y-107500000D01*
D49*
%TO.N,+3.3V*%
X88000000Y-106500000D02*
X89200000Y-106500000D01*
D48*
X87300000Y-78750000D02*
X87250000Y-78700000D01*
D47*
X89150000Y-106550000D02*
X89200000Y-106500000D01*
D48*
X88500000Y-78750000D02*
X87300000Y-78750000D01*
D49*
X84250000Y-110250000D02*
X88000000Y-106500000D01*
D50*
%TO.N,Net-(J10-Pin_2)*%
X110467500Y-98485000D02*
X113000000Y-98485000D01*
X104325000Y-102365000D02*
X106587500Y-102365000D01*
X106587500Y-102365000D02*
X110467500Y-98485000D01*
%TO.N,Net-(J11-Pin_2)*%
X104325000Y-103635000D02*
X111425000Y-103635000D01*
X111425000Y-103635000D02*
X113000000Y-105210000D01*
%TO.N,Net-(J12-Pin_2)*%
X105905000Y-104905000D02*
X113000000Y-112000000D01*
X104325000Y-104905000D02*
X105905000Y-104905000D01*
%TO.N,Net-(J13-Pin_2)*%
X109250000Y-116000000D02*
X111985000Y-118735000D01*
X104325000Y-106175000D02*
X105199999Y-106175000D01*
X109250000Y-110225001D02*
X109250000Y-116000000D01*
X111985000Y-118735000D02*
X113000000Y-118735000D01*
X105199999Y-106175000D02*
X109250000Y-110225001D01*
D49*
%TO.N,/Sound2*%
X76857500Y-100440000D02*
X76282500Y-101015000D01*
X81122500Y-100440000D02*
X76857500Y-100440000D01*
%TO.N,/Sound1*%
X81122500Y-99940000D02*
X77747500Y-99940000D01*
X77747500Y-99940000D02*
X76282500Y-98475000D01*
%TO.N,Net-(U3-DIN)*%
X94095000Y-95190000D02*
X94095000Y-95905000D01*
X84250000Y-101692500D02*
X83997500Y-101440000D01*
X84250000Y-102500000D02*
X84250000Y-101692500D01*
X94095000Y-95905000D02*
X93500000Y-96500000D01*
%TO.N,Net-(U3-BCLK)*%
X95365000Y-95885000D02*
X94750000Y-96500000D01*
X83500000Y-103750000D02*
X83250000Y-103500000D01*
X83250000Y-103500000D02*
X83250000Y-102187500D01*
X95365000Y-95190000D02*
X95365000Y-95885000D01*
X83250000Y-102187500D02*
X83310000Y-102127500D01*
%TO.N,Net-(U3-LRCLK)*%
X96635000Y-95865000D02*
X96635000Y-95190000D01*
X96000000Y-96500000D02*
X96635000Y-95865000D01*
X82310000Y-103560000D02*
X82310000Y-102127500D01*
X82500000Y-103750000D02*
X82310000Y-103560000D01*
%TO.N,Net-(U4-IN1)*%
X104000000Y-126270000D02*
X104480000Y-126750000D01*
X102750000Y-80000000D02*
X104720000Y-80000000D01*
X104000000Y-125250000D02*
X104000000Y-126270000D01*
X104720000Y-80000000D02*
X104750000Y-79970000D01*
D51*
%TO.N,Net-(U4-ILIM)*%
X102247500Y-125787500D02*
X103210000Y-126750000D01*
X101000000Y-125787500D02*
X102247500Y-125787500D01*
D49*
%TO.N,unconnected-(U7-IO1-Pad39)*%
X104700000Y-78750000D02*
X104750000Y-78700000D01*
%TO.N,Net-(U4-IN2)*%
X91250000Y-86405200D02*
X91250000Y-82250000D01*
X96250000Y-90000000D02*
X94844800Y-90000000D01*
X105750000Y-126750000D02*
X105750000Y-126218505D01*
X104031495Y-124500000D02*
X101000000Y-124500000D01*
X94844800Y-90000000D02*
X91250000Y-86405200D01*
X90240000Y-81240000D02*
X87250000Y-81240000D01*
X105750000Y-126218505D02*
X104031495Y-124500000D01*
X91250000Y-82250000D02*
X90240000Y-81240000D01*
%TO.N,Net-(U7-IO38)*%
X99175000Y-106175000D02*
X101325000Y-106175000D01*
X101325000Y-106175000D02*
X102750000Y-104750000D01*
X101005800Y-88750000D02*
X104640000Y-88750000D01*
X104640000Y-88750000D02*
X104750000Y-88860000D01*
%TO.N,Net-(U7-IO40)*%
X100005800Y-86250000D02*
X104680000Y-86250000D01*
X99175000Y-103635000D02*
X100865000Y-103635000D01*
X104680000Y-86250000D02*
X104750000Y-86320000D01*
X100865000Y-103635000D02*
X101500000Y-103000000D01*
%TO.N,Net-(U7-IO42)*%
X100405000Y-101095000D02*
X100500000Y-101000000D01*
X99000000Y-84250000D02*
X99470000Y-83780000D01*
X99470000Y-83780000D02*
X104750000Y-83780000D01*
X99175000Y-101095000D02*
X100405000Y-101095000D01*
%TO.N,Net-(U7-IO39)*%
X100601600Y-87500000D02*
X104660000Y-87500000D01*
X99175000Y-104905000D02*
X101095000Y-104905000D01*
X104660000Y-87500000D02*
X104750000Y-87590000D01*
X101095000Y-104905000D02*
X102000000Y-104000000D01*
%TO.N,Net-(U7-IO41)*%
X104700000Y-85000000D02*
X104750000Y-85050000D01*
X100635000Y-102365000D02*
X101250000Y-101750000D01*
X101250000Y-101750000D02*
X101250000Y-101500000D01*
X99601600Y-85000000D02*
X104700000Y-85000000D01*
X99175000Y-102365000D02*
X100635000Y-102365000D01*
%TO.N,Net-(J2-Pin_2)*%
X104750000Y-93940000D02*
X97049998Y-93940000D01*
X97049998Y-93940000D02*
X97000000Y-93989998D01*
%TO.N,Net-(U7-EN)*%
X86030000Y-79970000D02*
X87250000Y-79970000D01*
X85000000Y-81000000D02*
X85000000Y-82712500D01*
X85000000Y-81000000D02*
X86030000Y-79970000D01*
%TO.N,Net-(U7-IO48)*%
X100049999Y-99825000D02*
X101715000Y-98159999D01*
X101715000Y-98159999D02*
X101715000Y-95190000D01*
X99175000Y-99825000D02*
X100049999Y-99825000D01*
%TO.N,Net-(U7-IO47)*%
X100445000Y-97285000D02*
X100445000Y-95190000D01*
X99175000Y-98555000D02*
X100445000Y-97285000D01*
D50*
%TO.N,/Smoke*%
X104325000Y-98555000D02*
X106748000Y-96132000D01*
X110500000Y-78210000D02*
X113000000Y-78210000D01*
X106748000Y-81962000D02*
X110500000Y-78210000D01*
X106748000Y-96132000D02*
X106748000Y-81962000D01*
%TO.N,/FwdLED*%
X107499000Y-88001000D02*
X110500000Y-85000000D01*
X105199999Y-99825000D02*
X107499000Y-97525999D01*
X107499000Y-97525999D02*
X107499000Y-88001000D01*
X104325000Y-99825000D02*
X105199999Y-99825000D01*
X110500000Y-85000000D02*
X112967500Y-85000000D01*
%TO.N,/BackLED*%
X105199999Y-101095000D02*
X108250000Y-98044999D01*
X110500000Y-91750000D02*
X113000000Y-91750000D01*
X108250000Y-94000000D02*
X110500000Y-91750000D01*
X104325000Y-101095000D02*
X105199999Y-101095000D01*
X108250000Y-98044999D02*
X108250000Y-94000000D01*
D49*
%TO.N,/MEM_IO2*%
X87250000Y-87590000D02*
X86090000Y-87590000D01*
X75200002Y-76900000D02*
X75750000Y-77449998D01*
X86090000Y-87590000D02*
X85750000Y-87250000D01*
X75190000Y-76900000D02*
X75200002Y-76900000D01*
%TO.N,/MEM_IO1*%
X87250000Y-86320000D02*
X86351910Y-86320000D01*
X76460000Y-76900000D02*
X76916327Y-76900000D01*
X86351910Y-86320000D02*
X86015955Y-85984045D01*
X76916327Y-76900000D02*
X77006507Y-76990180D01*
%TO.N,/MEM_IO0*%
X87250000Y-91400000D02*
X86150000Y-91400000D01*
X74000000Y-85500000D02*
X74000000Y-84580000D01*
X86150000Y-91400000D02*
X86000000Y-91250000D01*
X74000000Y-84580000D02*
X73920000Y-84500000D01*
%TO.N,/UART-TX*%
X99260000Y-81240000D02*
X104750000Y-81240000D01*
X97750000Y-82750000D02*
X99260000Y-81240000D01*
%TO.N,/UART-RX*%
X98351600Y-83750000D02*
X98500000Y-83750000D01*
X99740000Y-82510000D02*
X104750000Y-82510000D01*
X98500000Y-83750000D02*
X99740000Y-82510000D01*
D47*
%TO.N,/MOTOR2*%
X109460000Y-132500000D02*
X109960000Y-132000000D01*
X107020000Y-132500000D02*
X109460000Y-132500000D01*
%TO.N,/MOTOR1*%
X110249000Y-134251000D02*
X112500000Y-132000000D01*
X104849000Y-134251000D02*
X110249000Y-134251000D01*
X104480000Y-133882000D02*
X104849000Y-134251000D01*
X104480000Y-132500000D02*
X104480000Y-133882000D01*
D49*
%TO.N,/SND_GAIN*%
X84440000Y-100940000D02*
X86000000Y-102500000D01*
X83997500Y-100940000D02*
X84440000Y-100940000D01*
%TO.N,/MEM_CE*%
X88500000Y-84250000D02*
X88500000Y-84000000D01*
X87250000Y-85050000D02*
X87700000Y-85050000D01*
X77730000Y-76918008D02*
X77730000Y-76900000D01*
X77811992Y-77000000D02*
X77730000Y-76918008D01*
X87700000Y-85050000D02*
X88500000Y-84250000D01*
X79500000Y-77000000D02*
X77811992Y-77000000D01*
X86950000Y-85050000D02*
X87250000Y-85050000D01*
%TO.N,/MEM_SCK*%
X75750000Y-85060000D02*
X75190000Y-84500000D01*
X75750000Y-85500000D02*
X75750000Y-85060000D01*
X86130000Y-90130000D02*
X85750000Y-89750000D01*
X87250000Y-90130000D02*
X86130000Y-90130000D01*
%TO.N,/MEM_IO3*%
X76750000Y-84210000D02*
X76460000Y-84500000D01*
X85675041Y-88175041D02*
X86360000Y-88860000D01*
X76750000Y-83750000D02*
X76750000Y-84210000D01*
X86360000Y-88860000D02*
X87250000Y-88860000D01*
X85675041Y-88074959D02*
X85675041Y-88175041D01*
%TD*%
%TA.AperFunction,Conductor*%
%TO.N,/Out5V*%
G36*
X108693039Y-119769685D02*
G01*
X108738794Y-119822489D01*
X108750000Y-119874000D01*
X108750000Y-124876000D01*
X108730315Y-124943039D01*
X108677511Y-124988794D01*
X108626000Y-125000000D01*
X105010091Y-125000000D01*
X104943052Y-124980315D01*
X104922410Y-124963681D01*
X104216991Y-124258261D01*
X104148100Y-124218485D01*
X104071270Y-124197900D01*
X104071267Y-124197900D01*
X101457076Y-124197900D01*
X101390037Y-124178215D01*
X101369395Y-124161581D01*
X101307316Y-124099502D01*
X101307314Y-124099500D01*
X101226471Y-124052825D01*
X101193187Y-124033608D01*
X101129539Y-124016554D01*
X101065892Y-123999500D01*
X100934108Y-123999500D01*
X100806812Y-124033608D01*
X100692686Y-124099500D01*
X100692683Y-124099502D01*
X100599502Y-124192683D01*
X100599500Y-124192686D01*
X100533608Y-124306812D01*
X100499500Y-124434108D01*
X100499500Y-124565891D01*
X100533608Y-124693187D01*
X100562691Y-124743559D01*
X100595969Y-124801198D01*
X100603118Y-124830666D01*
X100612526Y-124859478D01*
X100611272Y-124864275D01*
X100612442Y-124869097D01*
X100602526Y-124897746D01*
X100594862Y-124927078D01*
X100591211Y-124930437D01*
X100589590Y-124935124D01*
X100565761Y-124953862D01*
X100543454Y-124974396D01*
X100537791Y-124975859D01*
X100534669Y-124978315D01*
X100509903Y-124985351D01*
X100500455Y-124987000D01*
X100495734Y-124987000D01*
X100465301Y-124989854D01*
X100446586Y-124996402D01*
X100436557Y-124998153D01*
X100430287Y-124997442D01*
X100415236Y-125000000D01*
X90124000Y-125000000D01*
X90056961Y-124980315D01*
X90011206Y-124927511D01*
X90000000Y-124876000D01*
X90000000Y-121250000D01*
X84374000Y-121250000D01*
X84306961Y-121230315D01*
X84261206Y-121177511D01*
X84250000Y-121126000D01*
X84250000Y-119874000D01*
X84269685Y-119806961D01*
X84322489Y-119761206D01*
X84374000Y-119750000D01*
X108626000Y-119750000D01*
X108693039Y-119769685D01*
G37*
%TD.AperFunction*%
%TD*%
%TA.AperFunction,Conductor*%
%TO.N,+3.3V*%
G36*
X92953735Y-96519685D02*
G01*
X92999490Y-96572489D01*
X93006471Y-96591907D01*
X93033608Y-96693187D01*
X93066554Y-96750250D01*
X93099500Y-96807314D01*
X93192686Y-96900500D01*
X93306814Y-96966392D01*
X93434108Y-97000500D01*
X93434110Y-97000500D01*
X93565890Y-97000500D01*
X93565892Y-97000500D01*
X93693186Y-96966392D01*
X93807314Y-96900500D01*
X93900500Y-96807314D01*
X93966392Y-96693186D01*
X93993529Y-96591905D01*
X94008022Y-96568129D01*
X94019591Y-96542797D01*
X94025956Y-96538706D01*
X94029894Y-96532246D01*
X94054941Y-96520078D01*
X94078369Y-96505023D01*
X94089116Y-96503477D01*
X94092741Y-96501717D01*
X94113304Y-96500000D01*
X94136696Y-96500000D01*
X94203735Y-96519685D01*
X94249490Y-96572489D01*
X94256471Y-96591907D01*
X94283608Y-96693187D01*
X94316554Y-96750250D01*
X94349500Y-96807314D01*
X94442686Y-96900500D01*
X94556814Y-96966392D01*
X94684108Y-97000500D01*
X94684110Y-97000500D01*
X94815890Y-97000500D01*
X94815892Y-97000500D01*
X94943186Y-96966392D01*
X95057314Y-96900500D01*
X95150500Y-96807314D01*
X95216392Y-96693186D01*
X95243529Y-96591905D01*
X95258022Y-96568129D01*
X95269591Y-96542797D01*
X95275956Y-96538706D01*
X95279894Y-96532246D01*
X95304941Y-96520078D01*
X95328369Y-96505023D01*
X95339116Y-96503477D01*
X95342741Y-96501717D01*
X95363304Y-96500000D01*
X95386696Y-96500000D01*
X95453735Y-96519685D01*
X95499490Y-96572489D01*
X95506471Y-96591907D01*
X95533608Y-96693187D01*
X95566554Y-96750250D01*
X95599500Y-96807314D01*
X95692686Y-96900500D01*
X95806814Y-96966392D01*
X95934108Y-97000500D01*
X95934110Y-97000500D01*
X96065890Y-97000500D01*
X96065892Y-97000500D01*
X96193186Y-96966392D01*
X96307314Y-96900500D01*
X96400500Y-96807314D01*
X96466392Y-96693186D01*
X96493529Y-96591905D01*
X96529894Y-96532246D01*
X96592741Y-96501717D01*
X96613304Y-96500000D01*
X97378362Y-96500000D01*
X97445401Y-96519685D01*
X97491156Y-96572489D01*
X97502338Y-96621614D01*
X97716900Y-107778825D01*
X97743618Y-109168116D01*
X97725226Y-109235521D01*
X97673312Y-109282283D01*
X97619641Y-109294500D01*
X94079500Y-109294500D01*
X94012461Y-109274815D01*
X93966706Y-109222011D01*
X93955500Y-109170500D01*
X93955500Y-107874008D01*
X93955499Y-107873992D01*
X93950803Y-107830316D01*
X93942738Y-107793242D01*
X93939602Y-107778825D01*
X93939348Y-107777789D01*
X93937110Y-107768627D01*
X93894100Y-107687915D01*
X93848345Y-107635111D01*
X93848339Y-107635104D01*
X93830757Y-107617160D01*
X93830756Y-107617159D01*
X93830754Y-107617157D01*
X93830752Y-107617156D01*
X93830750Y-107617154D01*
X93750940Y-107572511D01*
X93750935Y-107572509D01*
X93683903Y-107552826D01*
X93683899Y-107552825D01*
X93683898Y-107552825D01*
X93626000Y-107544500D01*
X87874000Y-107544500D01*
X87806961Y-107524815D01*
X87761206Y-107472011D01*
X87750000Y-107420500D01*
X87750000Y-105374000D01*
X87769685Y-105306961D01*
X87822489Y-105261206D01*
X87874000Y-105250000D01*
X92250000Y-105250000D01*
X92250000Y-96624000D01*
X92269685Y-96556961D01*
X92322489Y-96511206D01*
X92374000Y-96500000D01*
X92886696Y-96500000D01*
X92953735Y-96519685D01*
G37*
%TD.AperFunction*%
%TD*%
%TA.AperFunction,Conductor*%
%TO.N,GND*%
G36*
X79193039Y-109019685D02*
G01*
X79238794Y-109072489D01*
X79250000Y-109124000D01*
X79250000Y-133250000D01*
X89500000Y-133250000D01*
X89500000Y-128000000D01*
X88124000Y-128000000D01*
X88056961Y-127980315D01*
X88011206Y-127927511D01*
X88000000Y-127876000D01*
X88000000Y-124374000D01*
X88019685Y-124306961D01*
X88072489Y-124261206D01*
X88124000Y-124250000D01*
X89626000Y-124250000D01*
X89693039Y-124269685D01*
X89738794Y-124322489D01*
X89750000Y-124374000D01*
X89750000Y-125500000D01*
X99376000Y-125500000D01*
X99443039Y-125519685D01*
X99488794Y-125572489D01*
X99500000Y-125624000D01*
X99500000Y-126750000D01*
X102126000Y-126750000D01*
X102193039Y-126769685D01*
X102238794Y-126822489D01*
X102250000Y-126874000D01*
X102250000Y-128000000D01*
X102785986Y-128000000D01*
X102853025Y-128019685D01*
X102854873Y-128020895D01*
X102881769Y-128038867D01*
X102881772Y-128038867D01*
X102881773Y-128038868D01*
X102940247Y-128050499D01*
X102940250Y-128050500D01*
X102940252Y-128050500D01*
X103479750Y-128050500D01*
X103479751Y-128050499D01*
X103538231Y-128038867D01*
X103565123Y-128020897D01*
X103631801Y-128000020D01*
X103634014Y-128000000D01*
X104055986Y-128000000D01*
X104123025Y-128019685D01*
X104124873Y-128020895D01*
X104151769Y-128038867D01*
X104151772Y-128038867D01*
X104151773Y-128038868D01*
X104210247Y-128050499D01*
X104210250Y-128050500D01*
X104210252Y-128050500D01*
X104749750Y-128050500D01*
X104749751Y-128050499D01*
X104808231Y-128038867D01*
X104835123Y-128020897D01*
X104901801Y-128000020D01*
X104904014Y-128000000D01*
X105325986Y-128000000D01*
X105393025Y-128019685D01*
X105394873Y-128020895D01*
X105421769Y-128038867D01*
X105421772Y-128038867D01*
X105421773Y-128038868D01*
X105480247Y-128050499D01*
X105480250Y-128050500D01*
X105480252Y-128050500D01*
X106019750Y-128050500D01*
X106019751Y-128050499D01*
X106078231Y-128038867D01*
X106105123Y-128020897D01*
X106171801Y-128000020D01*
X106174014Y-128000000D01*
X106250000Y-128000000D01*
X106250000Y-126874000D01*
X106269685Y-126806961D01*
X106322489Y-126761206D01*
X106374000Y-126750000D01*
X107876000Y-126750000D01*
X107943039Y-126769685D01*
X107988794Y-126822489D01*
X108000000Y-126874000D01*
X108000000Y-130876000D01*
X107980315Y-130943039D01*
X107927511Y-130988794D01*
X107876000Y-131000000D01*
X106250000Y-131000000D01*
X106250000Y-133426500D01*
X106230315Y-133493539D01*
X106177511Y-133539294D01*
X106126000Y-133550500D01*
X105374000Y-133550500D01*
X105306961Y-133530815D01*
X105261206Y-133478011D01*
X105250000Y-133426500D01*
X105250000Y-131250000D01*
X104904014Y-131250000D01*
X104836975Y-131230315D01*
X104835123Y-131229102D01*
X104808231Y-131211133D01*
X104808229Y-131211132D01*
X104808226Y-131211131D01*
X104749752Y-131199500D01*
X104749748Y-131199500D01*
X104210252Y-131199500D01*
X104210247Y-131199500D01*
X104151773Y-131211131D01*
X104151769Y-131211133D01*
X104124877Y-131229102D01*
X104106830Y-131234752D01*
X104090921Y-131244977D01*
X104059959Y-131249428D01*
X104058199Y-131249980D01*
X104055986Y-131250000D01*
X103960767Y-131250000D01*
X103893728Y-131230315D01*
X103867055Y-131207204D01*
X103848345Y-131185611D01*
X103848344Y-131185610D01*
X103848338Y-131185603D01*
X103830757Y-131167660D01*
X103830756Y-131167659D01*
X103830754Y-131167657D01*
X103830752Y-131167656D01*
X103830750Y-131167654D01*
X103750940Y-131123011D01*
X103750935Y-131123009D01*
X103683903Y-131103326D01*
X103683899Y-131103325D01*
X103683898Y-131103325D01*
X103626000Y-131095000D01*
X103625996Y-131095000D01*
X102691870Y-131095000D01*
X102686201Y-131093975D01*
X102682960Y-131094679D01*
X102666234Y-131090367D01*
X102648477Y-131087159D01*
X102644107Y-131085526D01*
X102615923Y-131072510D01*
X102584797Y-131063370D01*
X102580607Y-131061805D01*
X102556081Y-131043425D01*
X102530286Y-131026847D01*
X102528375Y-131022662D01*
X102524695Y-131019905D01*
X102513996Y-130991175D01*
X102501262Y-130963291D01*
X102500703Y-130955481D01*
X102500311Y-130954428D01*
X102500549Y-130953333D01*
X102500000Y-130945646D01*
X102500000Y-130487500D01*
X94500000Y-130499999D01*
X94500000Y-135125500D01*
X94480315Y-135192539D01*
X94427511Y-135238294D01*
X94376000Y-135249500D01*
X72999500Y-135249500D01*
X72932461Y-135229815D01*
X72886706Y-135177011D01*
X72875500Y-135125500D01*
X72875500Y-109124000D01*
X72895185Y-109056961D01*
X72947989Y-109011206D01*
X72999500Y-109000000D01*
X79126000Y-109000000D01*
X79193039Y-109019685D01*
G37*
%TD.AperFunction*%
%TD*%
%TA.AperFunction,Conductor*%
%TO.N,+5V*%
G36*
X81193039Y-103519685D02*
G01*
X81238794Y-103572489D01*
X81250000Y-103624000D01*
X81250000Y-107750000D01*
X86023404Y-107750000D01*
X86090443Y-107769685D01*
X86136198Y-107822489D01*
X86146142Y-107891647D01*
X86117117Y-107955203D01*
X86111085Y-107961681D01*
X84484585Y-109588181D01*
X84423262Y-109621666D01*
X84396904Y-109624500D01*
X83805247Y-109624500D01*
X83746770Y-109636131D01*
X83746769Y-109636132D01*
X83680447Y-109680447D01*
X83636132Y-109746769D01*
X83636131Y-109746770D01*
X83624500Y-109805247D01*
X83624500Y-110694752D01*
X83636131Y-110753229D01*
X83636132Y-110753230D01*
X83680447Y-110819552D01*
X83746769Y-110863867D01*
X83746770Y-110863868D01*
X83805247Y-110875499D01*
X83805250Y-110875500D01*
X83805252Y-110875500D01*
X84694750Y-110875500D01*
X84694751Y-110875499D01*
X84709568Y-110872552D01*
X84753229Y-110863868D01*
X84753229Y-110863867D01*
X84753231Y-110863867D01*
X84819552Y-110819552D01*
X84819551Y-110819552D01*
X84829707Y-110812767D01*
X84832184Y-110816474D01*
X84872286Y-110794481D01*
X84941987Y-110799336D01*
X84948050Y-110802065D01*
X84948086Y-110801980D01*
X84953714Y-110804311D01*
X85067548Y-110851463D01*
X85188389Y-110875499D01*
X85188393Y-110875500D01*
X85188394Y-110875500D01*
X85311607Y-110875500D01*
X85311608Y-110875499D01*
X85432452Y-110851463D01*
X85546286Y-110804311D01*
X85648733Y-110735858D01*
X85648736Y-110735855D01*
X85662319Y-110722273D01*
X85723642Y-110688788D01*
X85793334Y-110693772D01*
X85837681Y-110722273D01*
X85851263Y-110735855D01*
X85851267Y-110735858D01*
X85953707Y-110804307D01*
X85953713Y-110804310D01*
X85953714Y-110804311D01*
X86067548Y-110851463D01*
X86188389Y-110875499D01*
X86188393Y-110875500D01*
X86188394Y-110875500D01*
X86311607Y-110875500D01*
X86311608Y-110875499D01*
X86432452Y-110851463D01*
X86546286Y-110804311D01*
X86648733Y-110735858D01*
X86735858Y-110648733D01*
X86804311Y-110546286D01*
X86851463Y-110432452D01*
X86875500Y-110311606D01*
X86875500Y-110188394D01*
X86851463Y-110067548D01*
X86804311Y-109953714D01*
X86804310Y-109953713D01*
X86804307Y-109953707D01*
X86735858Y-109851267D01*
X86735855Y-109851263D01*
X86648736Y-109764144D01*
X86648732Y-109764141D01*
X86546292Y-109695692D01*
X86546283Y-109695687D01*
X86432454Y-109648538D01*
X86432455Y-109648538D01*
X86432452Y-109648537D01*
X86432448Y-109648536D01*
X86432444Y-109648535D01*
X86311610Y-109624500D01*
X86311606Y-109624500D01*
X86188394Y-109624500D01*
X86188389Y-109624500D01*
X86067555Y-109648535D01*
X86067545Y-109648538D01*
X85953716Y-109695687D01*
X85953707Y-109695692D01*
X85851267Y-109764141D01*
X85851263Y-109764144D01*
X85837681Y-109777727D01*
X85776358Y-109811212D01*
X85706666Y-109806228D01*
X85684104Y-109795088D01*
X85672230Y-109787639D01*
X85648733Y-109764142D01*
X85546286Y-109695689D01*
X85485558Y-109670534D01*
X85476739Y-109665002D01*
X85460197Y-109646328D01*
X85440779Y-109630680D01*
X85437434Y-109620630D01*
X85430410Y-109612701D01*
X85426590Y-109588051D01*
X85418714Y-109564386D01*
X85421333Y-109554121D01*
X85419712Y-109543655D01*
X85429824Y-109520855D01*
X85435993Y-109496687D01*
X85446599Y-109483033D01*
X85448040Y-109479786D01*
X85450254Y-109478328D01*
X85454950Y-109472283D01*
X87140914Y-107786318D01*
X87202237Y-107752834D01*
X87228595Y-107750000D01*
X93626000Y-107750000D01*
X93693039Y-107769685D01*
X93738794Y-107822489D01*
X93750000Y-107874000D01*
X93750000Y-109500000D01*
X101250000Y-109500000D01*
X101250000Y-106874000D01*
X101269685Y-106806961D01*
X101322489Y-106761206D01*
X101374000Y-106750000D01*
X105015823Y-106750000D01*
X105082862Y-106769685D01*
X105103504Y-106786319D01*
X105713681Y-107396496D01*
X105747166Y-107457819D01*
X105750000Y-107484177D01*
X105750000Y-112876000D01*
X105730315Y-112943039D01*
X105677511Y-112988794D01*
X105626000Y-113000000D01*
X101250000Y-113000000D01*
X101250000Y-117626265D01*
X101230315Y-117693304D01*
X101177511Y-117739059D01*
X101126266Y-117750265D01*
X83874266Y-117787233D01*
X83807184Y-117767692D01*
X83761316Y-117714986D01*
X83750000Y-117663233D01*
X83750000Y-116124000D01*
X83769685Y-116056961D01*
X83822489Y-116011206D01*
X83874000Y-116000000D01*
X84540236Y-116000000D01*
X84581189Y-116006958D01*
X84590298Y-116010145D01*
X84590301Y-116010146D01*
X84605517Y-116011573D01*
X84620730Y-116013000D01*
X84620734Y-116013000D01*
X88829270Y-116013000D01*
X88842791Y-116011731D01*
X88859699Y-116010146D01*
X88863527Y-116008806D01*
X88868811Y-116006958D01*
X88909764Y-116000000D01*
X90500000Y-116000000D01*
X90500000Y-112500000D01*
X79624000Y-112500000D01*
X79556961Y-112480315D01*
X79511206Y-112427511D01*
X79500000Y-112376000D01*
X79500000Y-108750000D01*
X72999500Y-108750000D01*
X72932461Y-108730315D01*
X72886706Y-108677511D01*
X72875500Y-108626000D01*
X72875500Y-103624000D01*
X72895185Y-103556961D01*
X72947989Y-103511206D01*
X72999500Y-103500000D01*
X81126000Y-103500000D01*
X81193039Y-103519685D01*
G37*
%TD.AperFunction*%
%TD*%
%TA.AperFunction,Conductor*%
%TO.N,GND*%
G36*
X105693039Y-76520185D02*
G01*
X105738794Y-76572989D01*
X105750000Y-76624500D01*
X105750000Y-77841595D01*
X105730315Y-77908634D01*
X105677511Y-77954389D01*
X105608353Y-77964333D01*
X105575917Y-77955031D01*
X105569992Y-77952415D01*
X105544865Y-77949500D01*
X103955143Y-77949500D01*
X103955117Y-77949502D01*
X103930012Y-77952413D01*
X103930008Y-77952415D01*
X103846168Y-77989434D01*
X103796082Y-78000000D01*
X97000000Y-78000000D01*
X97000000Y-87126000D01*
X96980315Y-87193039D01*
X96927511Y-87238794D01*
X96876000Y-87250000D01*
X92714818Y-87250000D01*
X92647779Y-87230315D01*
X92627137Y-87213681D01*
X92036319Y-86622863D01*
X92002834Y-86561540D01*
X92000000Y-86535182D01*
X92000000Y-78000000D01*
X88203918Y-78000000D01*
X88153831Y-77989434D01*
X88069992Y-77952415D01*
X88044865Y-77949500D01*
X86455143Y-77949500D01*
X86455117Y-77949502D01*
X86430012Y-77952413D01*
X86430008Y-77952415D01*
X86346168Y-77989434D01*
X86296082Y-78000000D01*
X80000000Y-78000000D01*
X80000000Y-78969644D01*
X79991355Y-79015132D01*
X79985123Y-79030935D01*
X79985122Y-79030937D01*
X79979014Y-79081811D01*
X79974500Y-79119398D01*
X79974500Y-79880602D01*
X79979282Y-79920423D01*
X79985122Y-79969063D01*
X79991353Y-79984861D01*
X80000000Y-80030354D01*
X80000000Y-80250000D01*
X80116196Y-80250000D01*
X80183235Y-80269685D01*
X80191111Y-80275188D01*
X80252658Y-80321861D01*
X80393436Y-80377377D01*
X80481898Y-80388000D01*
X80481903Y-80388000D01*
X81126000Y-80388000D01*
X81193039Y-80407685D01*
X81238794Y-80460489D01*
X81250000Y-80512000D01*
X81250000Y-81876000D01*
X81230315Y-81943039D01*
X81177511Y-81988794D01*
X81126000Y-82000000D01*
X78624000Y-82000000D01*
X78556961Y-81980315D01*
X78511206Y-81927511D01*
X78500000Y-81876000D01*
X78500000Y-81500000D01*
X73624000Y-81500000D01*
X73556961Y-81480315D01*
X73511206Y-81427511D01*
X73500000Y-81376000D01*
X73500000Y-78124000D01*
X73519685Y-78056961D01*
X73572489Y-78011206D01*
X73624000Y-78000000D01*
X75470436Y-78000000D01*
X75510247Y-78007918D01*
X75510367Y-78007471D01*
X75517194Y-78009300D01*
X75517886Y-78009438D01*
X75518212Y-78009573D01*
X75518216Y-78009575D01*
X75670943Y-78050498D01*
X75670946Y-78050498D01*
X75829054Y-78050498D01*
X75829057Y-78050498D01*
X75981784Y-78009575D01*
X75981788Y-78009572D01*
X75982114Y-78009438D01*
X75982805Y-78009300D01*
X75989633Y-78007471D01*
X75989752Y-78007918D01*
X76029564Y-78000000D01*
X78500000Y-78000000D01*
X78500000Y-77526100D01*
X78519685Y-77459061D01*
X78572489Y-77413306D01*
X78624000Y-77402100D01*
X79001502Y-77402100D01*
X79068541Y-77421785D01*
X79089183Y-77438419D01*
X79131284Y-77480520D01*
X79131286Y-77480521D01*
X79131290Y-77480524D01*
X79249078Y-77548528D01*
X79268216Y-77559577D01*
X79420943Y-77600500D01*
X79420945Y-77600500D01*
X79579055Y-77600500D01*
X79579057Y-77600500D01*
X79731784Y-77559577D01*
X79868716Y-77480520D01*
X79980520Y-77368716D01*
X80059577Y-77231784D01*
X80100500Y-77079057D01*
X80100500Y-76920943D01*
X80059577Y-76768216D01*
X80012397Y-76686498D01*
X79995926Y-76618599D01*
X80018779Y-76552572D01*
X80073701Y-76509382D01*
X80119786Y-76500500D01*
X105626000Y-76500500D01*
X105693039Y-76520185D01*
G37*
%TD.AperFunction*%
%TD*%
%TA.AperFunction,Conductor*%
%TO.N,GND*%
G36*
X100943039Y-106769685D02*
G01*
X100988794Y-106822489D01*
X101000000Y-106874000D01*
X101000000Y-109126000D01*
X100980315Y-109193039D01*
X100927511Y-109238794D01*
X100876000Y-109250000D01*
X98124000Y-109250000D01*
X98056961Y-109230315D01*
X98011206Y-109177511D01*
X98000000Y-109126000D01*
X98000000Y-106874000D01*
X98019685Y-106806961D01*
X98072489Y-106761206D01*
X98124000Y-106750000D01*
X100876000Y-106750000D01*
X100943039Y-106769685D01*
G37*
%TD.AperFunction*%
%TD*%
%TA.AperFunction,Conductor*%
%TO.N,GND*%
G36*
X85938080Y-83769685D02*
G01*
X85983835Y-83822489D01*
X85994946Y-83878859D01*
X85947666Y-85084521D01*
X85925369Y-85150738D01*
X85870813Y-85194388D01*
X85847954Y-85201279D01*
X85782462Y-85214306D01*
X85782453Y-85214309D01*
X85636782Y-85274647D01*
X85636769Y-85274654D01*
X85505666Y-85362255D01*
X85505662Y-85362258D01*
X85394168Y-85473752D01*
X85394165Y-85473756D01*
X85306564Y-85604859D01*
X85306557Y-85604872D01*
X85246219Y-85750543D01*
X85246216Y-85750555D01*
X85215455Y-85905198D01*
X85215455Y-86062891D01*
X85246216Y-86217534D01*
X85246219Y-86217546D01*
X85306557Y-86363217D01*
X85306563Y-86363228D01*
X85339444Y-86412438D01*
X85360321Y-86479115D01*
X85341836Y-86546495D01*
X85305233Y-86584430D01*
X85239707Y-86628213D01*
X85128213Y-86739707D01*
X85128210Y-86739711D01*
X85040609Y-86870814D01*
X85040602Y-86870827D01*
X84980264Y-87016498D01*
X84980261Y-87016510D01*
X84949500Y-87171153D01*
X84949500Y-87328846D01*
X84980260Y-87483488D01*
X84980261Y-87483489D01*
X84980263Y-87483497D01*
X85003587Y-87539807D01*
X85011055Y-87609275D01*
X84992129Y-87656146D01*
X84965648Y-87695778D01*
X84965643Y-87695787D01*
X84905305Y-87841457D01*
X84905302Y-87841469D01*
X84874541Y-87996112D01*
X84874541Y-88153805D01*
X84905302Y-88308448D01*
X84905305Y-88308460D01*
X84965643Y-88454131D01*
X84965650Y-88454144D01*
X85053251Y-88585247D01*
X85053254Y-88585251D01*
X85164748Y-88696745D01*
X85164752Y-88696748D01*
X85295855Y-88784349D01*
X85295862Y-88784353D01*
X85366090Y-88813442D01*
X85420493Y-88857282D01*
X85442559Y-88923576D01*
X85425280Y-88991275D01*
X85375921Y-89037231D01*
X85376191Y-89037736D01*
X85374284Y-89038754D01*
X85374144Y-89038886D01*
X85373419Y-89039217D01*
X85370814Y-89040609D01*
X85239711Y-89128210D01*
X85239707Y-89128213D01*
X85128213Y-89239707D01*
X85128210Y-89239711D01*
X85040609Y-89370814D01*
X85040602Y-89370827D01*
X84980264Y-89516498D01*
X84980261Y-89516510D01*
X84949500Y-89671153D01*
X84949500Y-89828846D01*
X84980261Y-89983489D01*
X84980264Y-89983501D01*
X85040602Y-90129172D01*
X85040609Y-90129185D01*
X85128210Y-90260288D01*
X85128213Y-90260292D01*
X85239707Y-90371786D01*
X85239711Y-90371789D01*
X85370814Y-90459390D01*
X85370827Y-90459397D01*
X85402806Y-90472643D01*
X85457210Y-90516483D01*
X85479275Y-90582778D01*
X85461996Y-90650477D01*
X85443036Y-90674885D01*
X85378210Y-90739711D01*
X85290609Y-90870814D01*
X85290602Y-90870827D01*
X85230264Y-91016498D01*
X85230261Y-91016510D01*
X85199500Y-91171153D01*
X85199500Y-91328846D01*
X85230261Y-91483489D01*
X85230264Y-91483501D01*
X85290602Y-91629172D01*
X85290609Y-91629185D01*
X85378210Y-91760288D01*
X85378213Y-91760292D01*
X85489707Y-91871786D01*
X85489711Y-91871789D01*
X85618866Y-91958088D01*
X85663671Y-92011700D01*
X85673880Y-92066049D01*
X85519657Y-95998738D01*
X85500000Y-96500000D01*
X91620500Y-96500000D01*
X91687539Y-96519685D01*
X91733294Y-96572489D01*
X91744500Y-96624000D01*
X91744500Y-104620500D01*
X91724815Y-104687539D01*
X91672011Y-104733294D01*
X91620500Y-104744500D01*
X87874000Y-104744500D01*
X87873991Y-104744500D01*
X87873990Y-104744501D01*
X87766549Y-104756052D01*
X87766537Y-104756054D01*
X87715027Y-104767260D01*
X87612502Y-104801383D01*
X87612496Y-104801386D01*
X87491462Y-104879171D01*
X87491458Y-104879173D01*
X87438653Y-104924930D01*
X87410687Y-104957204D01*
X87351908Y-104994978D01*
X87316975Y-105000000D01*
X85374000Y-105000000D01*
X85306961Y-104980315D01*
X85261206Y-104927511D01*
X85250000Y-104876000D01*
X85250000Y-103343943D01*
X85269685Y-103276904D01*
X85322489Y-103231149D01*
X85391647Y-103221205D01*
X85442890Y-103240840D01*
X85561611Y-103320167D01*
X85561612Y-103320167D01*
X85561613Y-103320168D01*
X85663803Y-103362496D01*
X85730042Y-103389933D01*
X85730046Y-103389933D01*
X85730047Y-103389934D01*
X85908843Y-103425500D01*
X85908846Y-103425500D01*
X86091156Y-103425500D01*
X86211445Y-103401572D01*
X86269958Y-103389933D01*
X86438389Y-103320167D01*
X86438391Y-103320166D01*
X86557109Y-103240841D01*
X86589972Y-103218883D01*
X86718883Y-103089972D01*
X86742176Y-103055110D01*
X86795787Y-103010305D01*
X86845279Y-103000000D01*
X87250000Y-103000000D01*
X87250000Y-102184856D01*
X87269685Y-102117817D01*
X87292795Y-102091144D01*
X87311347Y-102075070D01*
X87405567Y-101966336D01*
X87465338Y-101835459D01*
X87485023Y-101768420D01*
X87485024Y-101768416D01*
X87505500Y-101626000D01*
X87505500Y-98624000D01*
X87493947Y-98516544D01*
X87482741Y-98465033D01*
X87451370Y-98370778D01*
X87448616Y-98362502D01*
X87448613Y-98362496D01*
X87394120Y-98277704D01*
X87370825Y-98241457D01*
X87370820Y-98241451D01*
X87325076Y-98188659D01*
X87325072Y-98188656D01*
X87325070Y-98188653D01*
X87216336Y-98094433D01*
X87216333Y-98094431D01*
X87216331Y-98094430D01*
X87085465Y-98034664D01*
X87085460Y-98034662D01*
X87085459Y-98034662D01*
X87018420Y-98014977D01*
X87018422Y-98014977D01*
X87018417Y-98014976D01*
X86970944Y-98008150D01*
X86876000Y-97994500D01*
X83648587Y-97994500D01*
X83648567Y-97994500D01*
X83630593Y-97994820D01*
X83621755Y-97995135D01*
X83603712Y-97996100D01*
X83603698Y-97996102D01*
X83463117Y-98026677D01*
X83397645Y-98051094D01*
X83271368Y-98120040D01*
X83169632Y-98221763D01*
X83169619Y-98221778D01*
X83159656Y-98235086D01*
X83103718Y-98276952D01*
X83034026Y-98281930D01*
X82972706Y-98248439D01*
X82966683Y-98241969D01*
X82920489Y-98188659D01*
X82920484Y-98188653D01*
X82811750Y-98094433D01*
X82811747Y-98094431D01*
X82811745Y-98094430D01*
X82680879Y-98034664D01*
X82680874Y-98034662D01*
X82680873Y-98034662D01*
X82613834Y-98014977D01*
X82613836Y-98014977D01*
X82613831Y-98014976D01*
X82566358Y-98008150D01*
X82471414Y-97994500D01*
X82471412Y-97994500D01*
X82424500Y-97994500D01*
X82357461Y-97974815D01*
X82311706Y-97922011D01*
X82300500Y-97870500D01*
X82300499Y-96974998D01*
X82300498Y-96974980D01*
X82289999Y-96872203D01*
X82289998Y-96872200D01*
X82261794Y-96787085D01*
X82261733Y-96786742D01*
X82261633Y-96786596D01*
X82260961Y-96782380D01*
X82255557Y-96751829D01*
X82255500Y-96749943D01*
X82255500Y-96624000D01*
X82250201Y-96574717D01*
X82250057Y-96569941D01*
X82250176Y-96569483D01*
X82250000Y-96566193D01*
X82250000Y-96000000D01*
X81673123Y-96000000D01*
X81655477Y-95998738D01*
X81626001Y-95994500D01*
X81626000Y-95994500D01*
X80124000Y-95994500D01*
X80056961Y-95974815D01*
X80011206Y-95922011D01*
X80000000Y-95870500D01*
X80000000Y-93624000D01*
X80019685Y-93556961D01*
X80072489Y-93511206D01*
X80124000Y-93500000D01*
X83500000Y-93500000D01*
X83787387Y-87895950D01*
X83810478Y-87830011D01*
X83820571Y-87817699D01*
X83897120Y-87735698D01*
X83961692Y-87607122D01*
X83983844Y-87540857D01*
X84009577Y-87399298D01*
X84139915Y-83880126D01*
X84162067Y-83813864D01*
X84216528Y-83770094D01*
X84286008Y-83762717D01*
X84302829Y-83767010D01*
X84372203Y-83789999D01*
X84474991Y-83800500D01*
X85525008Y-83800499D01*
X85525016Y-83800498D01*
X85525019Y-83800498D01*
X85581302Y-83794748D01*
X85627797Y-83789999D01*
X85729512Y-83756294D01*
X85732304Y-83755843D01*
X85733581Y-83755023D01*
X85768516Y-83750000D01*
X85871041Y-83750000D01*
X85938080Y-83769685D01*
G37*
%TD.AperFunction*%
%TD*%
%TA.AperFunction,Conductor*%
%TO.N,+3.3V*%
G36*
X87943039Y-78474685D02*
G01*
X87988794Y-78527489D01*
X88000000Y-78579000D01*
X88000000Y-78895500D01*
X87980315Y-78962539D01*
X87927511Y-79008294D01*
X87876000Y-79019500D01*
X86452129Y-79019500D01*
X86452123Y-79019501D01*
X86392516Y-79025908D01*
X86257671Y-79076202D01*
X86257664Y-79076206D01*
X86142455Y-79162452D01*
X86142452Y-79162455D01*
X86056206Y-79277664D01*
X86056201Y-79277673D01*
X86052316Y-79288090D01*
X86010442Y-79344021D01*
X85958424Y-79365207D01*
X85958582Y-79365797D01*
X85953888Y-79367054D01*
X85952331Y-79367689D01*
X85950737Y-79367898D01*
X85797596Y-79408933D01*
X85797591Y-79408936D01*
X85688142Y-79472126D01*
X85688142Y-79472127D01*
X85660299Y-79488201D01*
X85285319Y-79863181D01*
X85223996Y-79896666D01*
X85197638Y-79899500D01*
X84499998Y-79899500D01*
X84499980Y-79899501D01*
X84397203Y-79910000D01*
X84397200Y-79910001D01*
X84230668Y-79965185D01*
X84230663Y-79965187D01*
X84081342Y-80057289D01*
X83957289Y-80181342D01*
X83865187Y-80330663D01*
X83865185Y-80330668D01*
X83840705Y-80404544D01*
X83810001Y-80497203D01*
X83810001Y-80497204D01*
X83810000Y-80497204D01*
X83799500Y-80599983D01*
X83799500Y-80649137D01*
X83779815Y-80716176D01*
X83763181Y-80736818D01*
X83750000Y-80749998D01*
X83750000Y-80750000D01*
X83608097Y-84581399D01*
X83504423Y-87380589D01*
X83482271Y-87446854D01*
X83427809Y-87490624D01*
X83380508Y-87500000D01*
X77374000Y-87500000D01*
X77306961Y-87480315D01*
X77261206Y-87427511D01*
X77250000Y-87376000D01*
X77250000Y-84581399D01*
X77254149Y-84565911D01*
X77253494Y-84552170D01*
X77266607Y-84519413D01*
X77266609Y-84519405D01*
X77282133Y-84492517D01*
X77311067Y-84442402D01*
X77347153Y-84307727D01*
X77368789Y-84265610D01*
X77368405Y-84265354D01*
X77370638Y-84262010D01*
X77371079Y-84261154D01*
X77371780Y-84260297D01*
X77371789Y-84260289D01*
X77459394Y-84129179D01*
X77519737Y-83983497D01*
X77550500Y-83828842D01*
X77550500Y-83671158D01*
X77550500Y-83671155D01*
X77550499Y-83671153D01*
X77519738Y-83516510D01*
X77519737Y-83516503D01*
X77519735Y-83516498D01*
X77459397Y-83370827D01*
X77459390Y-83370814D01*
X77371789Y-83239711D01*
X77371786Y-83239707D01*
X77294259Y-83162180D01*
X77260774Y-83100857D01*
X77265758Y-83031165D01*
X77307630Y-82975232D01*
X77373094Y-82950815D01*
X77381940Y-82950499D01*
X78022871Y-82950499D01*
X78022872Y-82950499D01*
X78082483Y-82944091D01*
X78217331Y-82893796D01*
X78332546Y-82807546D01*
X78418796Y-82692331D01*
X78460457Y-82580632D01*
X78502328Y-82524698D01*
X78567792Y-82500281D01*
X78594277Y-82501226D01*
X78624000Y-82505500D01*
X78624005Y-82505500D01*
X81125990Y-82505500D01*
X81126000Y-82505500D01*
X81233456Y-82493947D01*
X81284967Y-82482741D01*
X81319197Y-82471347D01*
X81387497Y-82448616D01*
X81387501Y-82448613D01*
X81387504Y-82448613D01*
X81508543Y-82370825D01*
X81561347Y-82325070D01*
X81655567Y-82216336D01*
X81715338Y-82085459D01*
X81735023Y-82018420D01*
X81735024Y-82018416D01*
X81755500Y-81876000D01*
X81755500Y-80512000D01*
X81743947Y-80404544D01*
X81732741Y-80353033D01*
X81725297Y-80330668D01*
X81698616Y-80250502D01*
X81698613Y-80250496D01*
X81620828Y-80129462D01*
X81620825Y-80129457D01*
X81620820Y-80129451D01*
X81575076Y-80076659D01*
X81575072Y-80076656D01*
X81575070Y-80076653D01*
X81466336Y-79982433D01*
X81466333Y-79982431D01*
X81466331Y-79982430D01*
X81335465Y-79922664D01*
X81335460Y-79922662D01*
X81335459Y-79922662D01*
X81268420Y-79902977D01*
X81268422Y-79902977D01*
X81268417Y-79902976D01*
X81220944Y-79896150D01*
X81126000Y-79882500D01*
X81125998Y-79882500D01*
X80678156Y-79882500D01*
X80611117Y-79862815D01*
X80565362Y-79810011D01*
X80556564Y-79782819D01*
X80482408Y-79412041D01*
X80480000Y-79387722D01*
X80480000Y-79157065D01*
X80480887Y-79142263D01*
X80480928Y-79141922D01*
X80480941Y-79141812D01*
X80480947Y-79141812D01*
X80480945Y-79141774D01*
X80481388Y-79138083D01*
X80485392Y-79118404D01*
X80487966Y-79109513D01*
X80496611Y-79064025D01*
X80505500Y-78969644D01*
X80505500Y-78636999D01*
X80525185Y-78569960D01*
X80577989Y-78524205D01*
X80629500Y-78512999D01*
X81525002Y-78512999D01*
X81525008Y-78512999D01*
X81592135Y-78506141D01*
X81604735Y-78505500D01*
X82395260Y-78505500D01*
X82407861Y-78506141D01*
X82474991Y-78513000D01*
X83525008Y-78512999D01*
X83592135Y-78506141D01*
X83604735Y-78505500D01*
X86296077Y-78505500D01*
X86296082Y-78505500D01*
X86400424Y-78494614D01*
X86450510Y-78484048D01*
X86522064Y-78460981D01*
X86560110Y-78455000D01*
X87876000Y-78455000D01*
X87943039Y-78474685D01*
G37*
%TD.AperFunction*%
%TD*%
%TA.AperFunction,Conductor*%
%TO.N,VCC*%
G36*
X89193039Y-121519685D02*
G01*
X89238794Y-121572489D01*
X89250000Y-121624000D01*
X89250000Y-123876000D01*
X89230315Y-123943039D01*
X89177511Y-123988794D01*
X89126000Y-124000000D01*
X87750000Y-124000000D01*
X87750000Y-124818789D01*
X87743042Y-124859743D01*
X87714853Y-124940302D01*
X87712000Y-124970730D01*
X87712000Y-126029269D01*
X87714853Y-126059698D01*
X87727997Y-126097261D01*
X87743041Y-126140255D01*
X87750000Y-126181207D01*
X87750000Y-128250000D01*
X89126000Y-128250000D01*
X89193039Y-128269685D01*
X89238794Y-128322489D01*
X89250000Y-128374000D01*
X89250000Y-132876000D01*
X89230315Y-132943039D01*
X89177511Y-132988794D01*
X89126000Y-133000000D01*
X79874000Y-133000000D01*
X79806961Y-132980315D01*
X79761206Y-132927511D01*
X79750000Y-132876000D01*
X79750000Y-125124000D01*
X79769685Y-125056961D01*
X79822489Y-125011206D01*
X79874000Y-125000000D01*
X83250000Y-125000000D01*
X83250000Y-121624000D01*
X83269685Y-121556961D01*
X83322489Y-121511206D01*
X83374000Y-121500000D01*
X89126000Y-121500000D01*
X89193039Y-121519685D01*
G37*
%TD.AperFunction*%
%TD*%
%TA.AperFunction,Conductor*%
%TO.N,+3.3V*%
G36*
X86943039Y-98519685D02*
G01*
X86988794Y-98572489D01*
X87000000Y-98624000D01*
X87000000Y-101626000D01*
X86980315Y-101693039D01*
X86927511Y-101738794D01*
X86876000Y-101750000D01*
X85801362Y-101750000D01*
X85734323Y-101730315D01*
X85713681Y-101713681D01*
X84786319Y-100786319D01*
X84752834Y-100724996D01*
X84750000Y-100698638D01*
X84750000Y-100250000D01*
X84644894Y-100250000D01*
X84577855Y-100230315D01*
X84541793Y-100194892D01*
X84537115Y-100187892D01*
X84537114Y-100187891D01*
X84537112Y-100187888D01*
X84450117Y-100129760D01*
X84450115Y-100129759D01*
X84450112Y-100129758D01*
X84373404Y-100114500D01*
X83624000Y-100114500D01*
X83615314Y-100111949D01*
X83606353Y-100113238D01*
X83582312Y-100102259D01*
X83556961Y-100094815D01*
X83551033Y-100087974D01*
X83542797Y-100084213D01*
X83528507Y-100061978D01*
X83511206Y-100042011D01*
X83508918Y-100031496D01*
X83505023Y-100025435D01*
X83500000Y-99990500D01*
X83500000Y-99899893D01*
X83519685Y-99832854D01*
X83555111Y-99796789D01*
X83562112Y-99792112D01*
X83620240Y-99705117D01*
X83635500Y-99628401D01*
X83635499Y-98876600D01*
X83620240Y-98799883D01*
X83620239Y-98799881D01*
X83620238Y-98799879D01*
X83562111Y-98712887D01*
X83560901Y-98711677D01*
X83559106Y-98708390D01*
X83555327Y-98702734D01*
X83555833Y-98702395D01*
X83527419Y-98650352D01*
X83532407Y-98580661D01*
X83574282Y-98524729D01*
X83639747Y-98500315D01*
X83648587Y-98500000D01*
X86876000Y-98500000D01*
X86943039Y-98519685D01*
G37*
%TD.AperFunction*%
%TD*%
%TA.AperFunction,Conductor*%
%TO.N,VCC*%
G36*
X102193039Y-130769685D02*
G01*
X102238794Y-130822489D01*
X102250000Y-130874000D01*
X102250000Y-131250000D01*
X102490986Y-131250000D01*
X102558025Y-131269685D01*
X102559873Y-131270895D01*
X102586769Y-131288867D01*
X102586772Y-131288867D01*
X102586773Y-131288868D01*
X102645247Y-131300499D01*
X102645250Y-131300500D01*
X102645252Y-131300500D01*
X103626000Y-131300500D01*
X103693039Y-131320185D01*
X103738794Y-131372989D01*
X103750000Y-131424500D01*
X103750000Y-135125500D01*
X103730315Y-135192539D01*
X103677511Y-135238294D01*
X103626000Y-135249500D01*
X94874000Y-135249500D01*
X94806961Y-135229815D01*
X94761206Y-135177011D01*
X94750000Y-135125500D01*
X94750000Y-130874000D01*
X94769685Y-130806961D01*
X94822489Y-130761206D01*
X94874000Y-130750000D01*
X102126000Y-130750000D01*
X102193039Y-130769685D01*
G37*
%TD.AperFunction*%
%TD*%
%TA.AperFunction,Conductor*%
%TO.N,+3.3V*%
G36*
X81693039Y-96519685D02*
G01*
X81738794Y-96572489D01*
X81750000Y-96624000D01*
X81750000Y-98500000D01*
X82471414Y-98500000D01*
X82538453Y-98519685D01*
X82584208Y-98572489D01*
X82594152Y-98641647D01*
X82565127Y-98705203D01*
X82559095Y-98711681D01*
X82557889Y-98712886D01*
X82499760Y-98799883D01*
X82499758Y-98799887D01*
X82484500Y-98876594D01*
X82484500Y-98876596D01*
X82484501Y-99626000D01*
X82464817Y-99693039D01*
X82412013Y-99738794D01*
X82360501Y-99750000D01*
X81769894Y-99750000D01*
X81702855Y-99730315D01*
X81666793Y-99694892D01*
X81662115Y-99687892D01*
X81662114Y-99687891D01*
X81662112Y-99687888D01*
X81575117Y-99629760D01*
X81575115Y-99629759D01*
X81575112Y-99629758D01*
X81498404Y-99614500D01*
X80746602Y-99614500D01*
X80692146Y-99625331D01*
X80669883Y-99629760D01*
X80669882Y-99629760D01*
X80657904Y-99632143D01*
X80657774Y-99631493D01*
X80625566Y-99637900D01*
X79624000Y-99637900D01*
X79556961Y-99618215D01*
X79511206Y-99565411D01*
X79500000Y-99513900D01*
X79500000Y-96624000D01*
X79519685Y-96556961D01*
X79572489Y-96511206D01*
X79624000Y-96500000D01*
X81626000Y-96500000D01*
X81693039Y-96519685D01*
G37*
%TD.AperFunction*%
%TD*%
M02*
