%TF.GenerationSoftware,KiCad,Pcbnew,9.0.3-9.0.3-0~ubuntu24.04.1*%
%TF.CreationDate,2026-03-23T12:30:48+03:00*%
%TF.ProjectId,sounddecoder-esp32-s3-wroom-1,736f756e-6464-4656-936f-6465722d6573,rev?*%
%TF.SameCoordinates,Original*%
%TF.FileFunction,Legend,Bot*%
%TF.FilePolarity,Positive*%
%FSLAX46Y46*%
G04 Gerber Fmt 4.6, Leading zero omitted, Abs format (unit mm)*
G04 Created by KiCad (PCBNEW 9.0.3-9.0.3-0~ubuntu24.04.1) date 2026-03-23 12:30:48*
%MOMM*%
%LPD*%
G01*
G04 APERTURE LIST*
%ADD10C,0.100000*%
G04 APERTURE END LIST*
D10*
X108493734Y-120336704D02*
X108017544Y-120336704D01*
X108588972Y-120622419D02*
X108255639Y-119622419D01*
X108255639Y-119622419D02*
X107922306Y-120622419D01*
X107588972Y-119622419D02*
X107588972Y-120431942D01*
X107588972Y-120431942D02*
X107541353Y-120527180D01*
X107541353Y-120527180D02*
X107493734Y-120574800D01*
X107493734Y-120574800D02*
X107398496Y-120622419D01*
X107398496Y-120622419D02*
X107208020Y-120622419D01*
X107208020Y-120622419D02*
X107112782Y-120574800D01*
X107112782Y-120574800D02*
X107065163Y-120527180D01*
X107065163Y-120527180D02*
X107017544Y-120431942D01*
X107017544Y-120431942D02*
X107017544Y-119622419D01*
X106636591Y-119622419D02*
X105969925Y-120622419D01*
X105969925Y-119622419D02*
X106636591Y-120622419D01*
X105160401Y-119955752D02*
X105160401Y-120622419D01*
X105398496Y-119574800D02*
X105636591Y-120289085D01*
X105636591Y-120289085D02*
X105017544Y-120289085D01*
X108493734Y-113336704D02*
X108017544Y-113336704D01*
X108588972Y-113622419D02*
X108255639Y-112622419D01*
X108255639Y-112622419D02*
X107922306Y-113622419D01*
X107588972Y-112622419D02*
X107588972Y-113431942D01*
X107588972Y-113431942D02*
X107541353Y-113527180D01*
X107541353Y-113527180D02*
X107493734Y-113574800D01*
X107493734Y-113574800D02*
X107398496Y-113622419D01*
X107398496Y-113622419D02*
X107208020Y-113622419D01*
X107208020Y-113622419D02*
X107112782Y-113574800D01*
X107112782Y-113574800D02*
X107065163Y-113527180D01*
X107065163Y-113527180D02*
X107017544Y-113431942D01*
X107017544Y-113431942D02*
X107017544Y-112622419D01*
X106636591Y-112622419D02*
X105969925Y-113622419D01*
X105969925Y-112622419D02*
X106636591Y-113622419D01*
X105684210Y-112622419D02*
X105065163Y-112622419D01*
X105065163Y-112622419D02*
X105398496Y-113003371D01*
X105398496Y-113003371D02*
X105255639Y-113003371D01*
X105255639Y-113003371D02*
X105160401Y-113050990D01*
X105160401Y-113050990D02*
X105112782Y-113098609D01*
X105112782Y-113098609D02*
X105065163Y-113193847D01*
X105065163Y-113193847D02*
X105065163Y-113431942D01*
X105065163Y-113431942D02*
X105112782Y-113527180D01*
X105112782Y-113527180D02*
X105160401Y-113574800D01*
X105160401Y-113574800D02*
X105255639Y-113622419D01*
X105255639Y-113622419D02*
X105541353Y-113622419D01*
X105541353Y-113622419D02*
X105636591Y-113574800D01*
X105636591Y-113574800D02*
X105684210Y-113527180D01*
X108743734Y-106586704D02*
X108267544Y-106586704D01*
X108838972Y-106872419D02*
X108505639Y-105872419D01*
X108505639Y-105872419D02*
X108172306Y-106872419D01*
X107838972Y-105872419D02*
X107838972Y-106681942D01*
X107838972Y-106681942D02*
X107791353Y-106777180D01*
X107791353Y-106777180D02*
X107743734Y-106824800D01*
X107743734Y-106824800D02*
X107648496Y-106872419D01*
X107648496Y-106872419D02*
X107458020Y-106872419D01*
X107458020Y-106872419D02*
X107362782Y-106824800D01*
X107362782Y-106824800D02*
X107315163Y-106777180D01*
X107315163Y-106777180D02*
X107267544Y-106681942D01*
X107267544Y-106681942D02*
X107267544Y-105872419D01*
X106886591Y-105872419D02*
X106219925Y-106872419D01*
X106219925Y-105872419D02*
X106886591Y-106872419D01*
X105886591Y-105967657D02*
X105838972Y-105920038D01*
X105838972Y-105920038D02*
X105743734Y-105872419D01*
X105743734Y-105872419D02*
X105505639Y-105872419D01*
X105505639Y-105872419D02*
X105410401Y-105920038D01*
X105410401Y-105920038D02*
X105362782Y-105967657D01*
X105362782Y-105967657D02*
X105315163Y-106062895D01*
X105315163Y-106062895D02*
X105315163Y-106158133D01*
X105315163Y-106158133D02*
X105362782Y-106300990D01*
X105362782Y-106300990D02*
X105934210Y-106872419D01*
X105934210Y-106872419D02*
X105315163Y-106872419D01*
X108493734Y-99836704D02*
X108017544Y-99836704D01*
X108588972Y-100122419D02*
X108255639Y-99122419D01*
X108255639Y-99122419D02*
X107922306Y-100122419D01*
X107588972Y-99122419D02*
X107588972Y-99931942D01*
X107588972Y-99931942D02*
X107541353Y-100027180D01*
X107541353Y-100027180D02*
X107493734Y-100074800D01*
X107493734Y-100074800D02*
X107398496Y-100122419D01*
X107398496Y-100122419D02*
X107208020Y-100122419D01*
X107208020Y-100122419D02*
X107112782Y-100074800D01*
X107112782Y-100074800D02*
X107065163Y-100027180D01*
X107065163Y-100027180D02*
X107017544Y-99931942D01*
X107017544Y-99931942D02*
X107017544Y-99122419D01*
X106636591Y-99122419D02*
X105969925Y-100122419D01*
X105969925Y-99122419D02*
X106636591Y-100122419D01*
X105065163Y-100122419D02*
X105636591Y-100122419D01*
X105350877Y-100122419D02*
X105350877Y-99122419D01*
X105350877Y-99122419D02*
X105446115Y-99265276D01*
X105446115Y-99265276D02*
X105541353Y-99360514D01*
X105541353Y-99360514D02*
X105636591Y-99408133D01*
X113446115Y-107491466D02*
X112684211Y-107491466D01*
X113065163Y-107872419D02*
X113065163Y-107110514D01*
X113446115Y-78241466D02*
X112684211Y-78241466D01*
X113446115Y-114491466D02*
X112684211Y-114491466D01*
X113065163Y-114872419D02*
X113065163Y-114110514D01*
X113446115Y-98241466D02*
X112684211Y-98241466D01*
X113446115Y-118741466D02*
X112684211Y-118741466D01*
X113446115Y-94241466D02*
X112684211Y-94241466D01*
X113065163Y-94622419D02*
X113065163Y-93860514D01*
X113446115Y-80741466D02*
X112684211Y-80741466D01*
X113065163Y-81122419D02*
X113065163Y-80360514D01*
X113446115Y-111991466D02*
X112684211Y-111991466D01*
X108362782Y-86098609D02*
X108696115Y-86098609D01*
X108696115Y-86622419D02*
X108696115Y-85622419D01*
X108696115Y-85622419D02*
X108219925Y-85622419D01*
X107934210Y-85955752D02*
X107743734Y-86622419D01*
X107743734Y-86622419D02*
X107553258Y-86146228D01*
X107553258Y-86146228D02*
X107362782Y-86622419D01*
X107362782Y-86622419D02*
X107172306Y-85955752D01*
X106362782Y-86622419D02*
X106362782Y-85622419D01*
X106362782Y-86574800D02*
X106458020Y-86622419D01*
X106458020Y-86622419D02*
X106648496Y-86622419D01*
X106648496Y-86622419D02*
X106743734Y-86574800D01*
X106743734Y-86574800D02*
X106791353Y-86527180D01*
X106791353Y-86527180D02*
X106838972Y-86431942D01*
X106838972Y-86431942D02*
X106838972Y-86146228D01*
X106838972Y-86146228D02*
X106791353Y-86050990D01*
X106791353Y-86050990D02*
X106743734Y-86003371D01*
X106743734Y-86003371D02*
X106648496Y-85955752D01*
X106648496Y-85955752D02*
X106458020Y-85955752D01*
X106458020Y-85955752D02*
X106362782Y-86003371D01*
X105410401Y-86622419D02*
X105886591Y-86622419D01*
X105886591Y-86622419D02*
X105886591Y-85622419D01*
X105077067Y-86098609D02*
X104743734Y-86098609D01*
X104600877Y-86622419D02*
X105077067Y-86622419D01*
X105077067Y-86622419D02*
X105077067Y-85622419D01*
X105077067Y-85622419D02*
X104600877Y-85622419D01*
X104172305Y-86622419D02*
X104172305Y-85622419D01*
X104172305Y-85622419D02*
X103934210Y-85622419D01*
X103934210Y-85622419D02*
X103791353Y-85670038D01*
X103791353Y-85670038D02*
X103696115Y-85765276D01*
X103696115Y-85765276D02*
X103648496Y-85860514D01*
X103648496Y-85860514D02*
X103600877Y-86050990D01*
X103600877Y-86050990D02*
X103600877Y-86193847D01*
X103600877Y-86193847D02*
X103648496Y-86384323D01*
X103648496Y-86384323D02*
X103696115Y-86479561D01*
X103696115Y-86479561D02*
X103791353Y-86574800D01*
X103791353Y-86574800D02*
X103934210Y-86622419D01*
X103934210Y-86622419D02*
X104172305Y-86622419D01*
X113446115Y-91741466D02*
X112684211Y-91741466D01*
X108743734Y-79824800D02*
X108600877Y-79872419D01*
X108600877Y-79872419D02*
X108362782Y-79872419D01*
X108362782Y-79872419D02*
X108267544Y-79824800D01*
X108267544Y-79824800D02*
X108219925Y-79777180D01*
X108219925Y-79777180D02*
X108172306Y-79681942D01*
X108172306Y-79681942D02*
X108172306Y-79586704D01*
X108172306Y-79586704D02*
X108219925Y-79491466D01*
X108219925Y-79491466D02*
X108267544Y-79443847D01*
X108267544Y-79443847D02*
X108362782Y-79396228D01*
X108362782Y-79396228D02*
X108553258Y-79348609D01*
X108553258Y-79348609D02*
X108648496Y-79300990D01*
X108648496Y-79300990D02*
X108696115Y-79253371D01*
X108696115Y-79253371D02*
X108743734Y-79158133D01*
X108743734Y-79158133D02*
X108743734Y-79062895D01*
X108743734Y-79062895D02*
X108696115Y-78967657D01*
X108696115Y-78967657D02*
X108648496Y-78920038D01*
X108648496Y-78920038D02*
X108553258Y-78872419D01*
X108553258Y-78872419D02*
X108315163Y-78872419D01*
X108315163Y-78872419D02*
X108172306Y-78920038D01*
X107743734Y-79872419D02*
X107743734Y-79205752D01*
X107743734Y-79300990D02*
X107696115Y-79253371D01*
X107696115Y-79253371D02*
X107600877Y-79205752D01*
X107600877Y-79205752D02*
X107458020Y-79205752D01*
X107458020Y-79205752D02*
X107362782Y-79253371D01*
X107362782Y-79253371D02*
X107315163Y-79348609D01*
X107315163Y-79348609D02*
X107315163Y-79872419D01*
X107315163Y-79348609D02*
X107267544Y-79253371D01*
X107267544Y-79253371D02*
X107172306Y-79205752D01*
X107172306Y-79205752D02*
X107029449Y-79205752D01*
X107029449Y-79205752D02*
X106934210Y-79253371D01*
X106934210Y-79253371D02*
X106886591Y-79348609D01*
X106886591Y-79348609D02*
X106886591Y-79872419D01*
X106267544Y-79872419D02*
X106362782Y-79824800D01*
X106362782Y-79824800D02*
X106410401Y-79777180D01*
X106410401Y-79777180D02*
X106458020Y-79681942D01*
X106458020Y-79681942D02*
X106458020Y-79396228D01*
X106458020Y-79396228D02*
X106410401Y-79300990D01*
X106410401Y-79300990D02*
X106362782Y-79253371D01*
X106362782Y-79253371D02*
X106267544Y-79205752D01*
X106267544Y-79205752D02*
X106124687Y-79205752D01*
X106124687Y-79205752D02*
X106029449Y-79253371D01*
X106029449Y-79253371D02*
X105981830Y-79300990D01*
X105981830Y-79300990D02*
X105934211Y-79396228D01*
X105934211Y-79396228D02*
X105934211Y-79681942D01*
X105934211Y-79681942D02*
X105981830Y-79777180D01*
X105981830Y-79777180D02*
X106029449Y-79824800D01*
X106029449Y-79824800D02*
X106124687Y-79872419D01*
X106124687Y-79872419D02*
X106267544Y-79872419D01*
X105505639Y-79872419D02*
X105505639Y-78872419D01*
X105410401Y-79491466D02*
X105124687Y-79872419D01*
X105124687Y-79205752D02*
X105505639Y-79586704D01*
X104315163Y-79824800D02*
X104410401Y-79872419D01*
X104410401Y-79872419D02*
X104600877Y-79872419D01*
X104600877Y-79872419D02*
X104696115Y-79824800D01*
X104696115Y-79824800D02*
X104743734Y-79729561D01*
X104743734Y-79729561D02*
X104743734Y-79348609D01*
X104743734Y-79348609D02*
X104696115Y-79253371D01*
X104696115Y-79253371D02*
X104600877Y-79205752D01*
X104600877Y-79205752D02*
X104410401Y-79205752D01*
X104410401Y-79205752D02*
X104315163Y-79253371D01*
X104315163Y-79253371D02*
X104267544Y-79348609D01*
X104267544Y-79348609D02*
X104267544Y-79443847D01*
X104267544Y-79443847D02*
X104743734Y-79539085D01*
X113446115Y-87491466D02*
X112684211Y-87491466D01*
X113065163Y-87872419D02*
X113065163Y-87110514D01*
X113446115Y-121241466D02*
X112684211Y-121241466D01*
X113065163Y-121622419D02*
X113065163Y-120860514D01*
X113446115Y-104991466D02*
X112684211Y-104991466D01*
X113446115Y-100741466D02*
X112684211Y-100741466D01*
X113065163Y-101122419D02*
X113065163Y-100360514D01*
X113446115Y-84991466D02*
X112684211Y-84991466D01*
X108362782Y-93098609D02*
X108219925Y-93146228D01*
X108219925Y-93146228D02*
X108172306Y-93193847D01*
X108172306Y-93193847D02*
X108124687Y-93289085D01*
X108124687Y-93289085D02*
X108124687Y-93431942D01*
X108124687Y-93431942D02*
X108172306Y-93527180D01*
X108172306Y-93527180D02*
X108219925Y-93574800D01*
X108219925Y-93574800D02*
X108315163Y-93622419D01*
X108315163Y-93622419D02*
X108696115Y-93622419D01*
X108696115Y-93622419D02*
X108696115Y-92622419D01*
X108696115Y-92622419D02*
X108362782Y-92622419D01*
X108362782Y-92622419D02*
X108267544Y-92670038D01*
X108267544Y-92670038D02*
X108219925Y-92717657D01*
X108219925Y-92717657D02*
X108172306Y-92812895D01*
X108172306Y-92812895D02*
X108172306Y-92908133D01*
X108172306Y-92908133D02*
X108219925Y-93003371D01*
X108219925Y-93003371D02*
X108267544Y-93050990D01*
X108267544Y-93050990D02*
X108362782Y-93098609D01*
X108362782Y-93098609D02*
X108696115Y-93098609D01*
X107267544Y-93622419D02*
X107267544Y-93098609D01*
X107267544Y-93098609D02*
X107315163Y-93003371D01*
X107315163Y-93003371D02*
X107410401Y-92955752D01*
X107410401Y-92955752D02*
X107600877Y-92955752D01*
X107600877Y-92955752D02*
X107696115Y-93003371D01*
X107267544Y-93574800D02*
X107362782Y-93622419D01*
X107362782Y-93622419D02*
X107600877Y-93622419D01*
X107600877Y-93622419D02*
X107696115Y-93574800D01*
X107696115Y-93574800D02*
X107743734Y-93479561D01*
X107743734Y-93479561D02*
X107743734Y-93384323D01*
X107743734Y-93384323D02*
X107696115Y-93289085D01*
X107696115Y-93289085D02*
X107600877Y-93241466D01*
X107600877Y-93241466D02*
X107362782Y-93241466D01*
X107362782Y-93241466D02*
X107267544Y-93193847D01*
X106362782Y-93574800D02*
X106458020Y-93622419D01*
X106458020Y-93622419D02*
X106648496Y-93622419D01*
X106648496Y-93622419D02*
X106743734Y-93574800D01*
X106743734Y-93574800D02*
X106791353Y-93527180D01*
X106791353Y-93527180D02*
X106838972Y-93431942D01*
X106838972Y-93431942D02*
X106838972Y-93146228D01*
X106838972Y-93146228D02*
X106791353Y-93050990D01*
X106791353Y-93050990D02*
X106743734Y-93003371D01*
X106743734Y-93003371D02*
X106648496Y-92955752D01*
X106648496Y-92955752D02*
X106458020Y-92955752D01*
X106458020Y-92955752D02*
X106362782Y-93003371D01*
X105934210Y-93622419D02*
X105934210Y-92622419D01*
X105838972Y-93241466D02*
X105553258Y-93622419D01*
X105553258Y-92955752D02*
X105934210Y-93336704D01*
X104648496Y-93622419D02*
X105124686Y-93622419D01*
X105124686Y-93622419D02*
X105124686Y-92622419D01*
X104315162Y-93098609D02*
X103981829Y-93098609D01*
X103838972Y-93622419D02*
X104315162Y-93622419D01*
X104315162Y-93622419D02*
X104315162Y-92622419D01*
X104315162Y-92622419D02*
X103838972Y-92622419D01*
X103410400Y-93622419D02*
X103410400Y-92622419D01*
X103410400Y-92622419D02*
X103172305Y-92622419D01*
X103172305Y-92622419D02*
X103029448Y-92670038D01*
X103029448Y-92670038D02*
X102934210Y-92765276D01*
X102934210Y-92765276D02*
X102886591Y-92860514D01*
X102886591Y-92860514D02*
X102838972Y-93050990D01*
X102838972Y-93050990D02*
X102838972Y-93193847D01*
X102838972Y-93193847D02*
X102886591Y-93384323D01*
X102886591Y-93384323D02*
X102934210Y-93479561D01*
X102934210Y-93479561D02*
X103029448Y-93574800D01*
X103029448Y-93574800D02*
X103172305Y-93622419D01*
X103172305Y-93622419D02*
X103410400Y-93622419D01*
M02*
